<?xml version="1.0" encoding="UTF-8" standalone="no"?>
<svg
   width="17.956041mm"
   height="10.155453mm"
   viewBox="0 0 17.956041 10.155453"
   version="1.1"
   id="svg1843"
   inkscape:version="1.3.2 (091e20e, 2023-11-25, custom)"
   sodipodi:docname="größenprofil.svg"
   xmlns:inkscape="http://www.inkscape.org/namespaces/inkscape"
   xmlns:sodipodi="http://sodipodi.sourceforge.net/DTD/sodipodi-0.dtd"
   xmlns="http://www.w3.org/2000/svg"
   xmlns:svg="http://www.w3.org/2000/svg"
   xmlns:rdf="http://www.w3.org/1999/02/22-rdf-syntax-ns#"
   xmlns:cc="http://creativecommons.org/ns#"
   xmlns:dc="http://purl.org/dc/elements/1.1/">
  <defs
     id="defs1837" />
  <sodipodi:namedview
     id="base"
     pagecolor="#ffffff"
     bordercolor="#666666"
     borderopacity="1.0"
     inkscape:pageopacity="0.0"
     inkscape:pageshadow="2"
     inkscape:zoom="11.313709"
     inkscape:cx="41.984465"
     inkscape:cy="22.406446"
     inkscape:document-units="mm"
     inkscape:current-layer="g1"
     inkscape:document-rotation="0"
     showgrid="false"
     fit-margin-top="0"
     fit-margin-left="0"
     fit-margin-right="0"
     fit-margin-bottom="0"
     inkscape:window-width="1920"
     inkscape:window-height="1009"
     inkscape:window-x="1912"
     inkscape:window-y="-8"
     inkscape:window-maximized="1"
     showguides="true"
     inkscape:guide-bbox="true"
     inkscape:showpageshadow="2"
     inkscape:pagecheckerboard="0"
     inkscape:deskcolor="#d1d1d1" />
  <metadata
     id="metadata1840">
    <rdf:RDF>
      <cc:Work
         rdf:about="">
        <dc:format>image/svg+xml</dc:format>
        <dc:type
           rdf:resource="http://purl.org/dc/dcmitype/StillImage" />
      </cc:Work>
    </rdf:RDF>
  </metadata>
  <g
     inkscape:label="Ebene 1"
     inkscape:groupmode="layer"
     id="layer1"
     transform="translate(-73.89719,-62.267042)">
    <g
       id="g1"
       transform="matrix(0.29822373,0,0,0.29822373,41.954773,43.352624)">
      <g
         id="g36"
         transform="matrix(1.2287499,0,0,1,-28.611928,0)"
         style="stroke-width:0.902128">
        <path
           id="path1715"
           style="color:#000000;overflow:visible;fill:#000000;stroke:#000000;stroke-width:0.157909;stroke-miterlimit:4;stroke-dasharray:none"
           d="m 127.80605,92.908695 c 0,-0.430506 -1.83991,-0.779798 -4.10931,-0.779798 -2.26941,0 -4.10931,0.349292 -4.10931,0.779798 l -0.27544,1.053166 c 0,0.459373 1.96318,0.831991 4.38475,0.831991 2.42156,0 4.38474,-0.372618 4.38474,-0.831991 z"
           sodipodi:nodetypes="csccscc" />
        <path
           style="fill:#ffffff;fill-opacity:1;stroke:#000000;stroke-width:0.2662;stroke-linecap:round;stroke-linejoin:round;stroke-miterlimit:4;stroke-dasharray:none;stroke-opacity:1"
           d="m 123.69682,80.855701 a 1.0000262,1.239638 0 0 0 -1.00005,1.23966 1.0000262,1.239638 0 0 0 1.00005,1.239663 1.0000262,1.239638 0 0 0 1.00004,-1.239663 1.0000262,1.239638 0 0 0 -1.00004,-1.23966 z m -1.32908,2.889382 v 0.01114 c -0.39248,0.07187 -0.6918,0.48906 -0.6918,0.996184 v 3.408997 c 0,0.507131 0.29932,0.924224 0.6918,0.996085 v 3.988235 h 2.65815 v -3.988235 c 0.39248,-0.07187 0.6918,-0.488954 0.6918,-0.996085 v -3.409 c 0,-0.507125 -0.29932,-0.924321 -0.6918,-0.996186 v -0.01114 h -0.12069 -2.41677 z"
           id="path1719"
           inkscape:connector-curvature="0" />
        <path
           id="ellipse1721"
           style="color:#000000;overflow:visible;opacity:0.643874;fill:#999999;stroke:none;stroke-width:0.147987;stroke-miterlimit:4;stroke-dasharray:none"
           d="m 127.80612,79.545077 c 0,-0.430506 -1.83991,-0.779796 -4.10931,-0.779796 -2.2694,0 -4.10931,0.34929 -4.10931,0.779796 v 13.363618 c 0,0.430507 1.83991,0.77928 4.10931,0.77928 2.2694,0 4.10931,-0.348773 4.10931,-0.77928 z"
           sodipodi:nodetypes="csccscc" />
        <path
           id="path1798"
           style="color:#000000;overflow:visible;fill:none;stroke:#000000;stroke-width:0.147987;stroke-miterlimit:4;stroke-dasharray:none"
           d="m 127.80612,79.545077 c 0,-0.430506 -1.83991,-0.779796 -4.10931,-0.779796 -2.2694,0 -4.10931,0.34929 -4.10931,0.779796 v 13.363618 c 0,0.430507 1.83991,0.77928 4.10931,0.77928 2.2694,0 4.10931,-0.348773 4.10931,-0.77928 z"
           sodipodi:nodetypes="csccscc" />
        <path
           id="ellipse1800"
           style="color:#000000;overflow:visible;fill:none;stroke:#000000;stroke-width:0.147987;stroke-miterlimit:4;stroke-dasharray:none"
           d="m 127.80593,79.544834 c 0,0.430506 -1.83972,0.779502 -4.10912,0.779502 -2.2694,0 -4.10912,-0.348996 -4.10912,-0.779502"
           sodipodi:nodetypes="csc" />
      </g>
      <g
         id="g52"
         transform="translate(-2.1172837)">
        <path
           id="path36"
           style="color:#000000;overflow:visible;fill:#000000;stroke:#000000;stroke-width:0.175041;stroke-miterlimit:4;stroke-dasharray:none"
           d="m 117.80777,92.908695 c 0,-0.430506 -1.83991,-0.779798 -4.10931,-0.779798 -2.26941,0 -4.10931,0.349292 -4.10931,0.779798 l -0.27544,1.053166 c 0,0.459373 1.96318,0.831991 4.38475,0.831991 2.42156,0 4.38474,-0.372618 4.38474,-0.831991 z"
           sodipodi:nodetypes="csccscc" />
        <path
           style="fill:#ffffff;fill-opacity:1;stroke:#000000;stroke-width:0.29508;stroke-linecap:round;stroke-linejoin:round;stroke-miterlimit:4;stroke-dasharray:none;stroke-opacity:1"
           d="m 113.69849,85.569093 a 0.76338088,0.76338088 0 0 0 -0.76339,0.763394 0.76338088,0.76338088 0 0 0 0.76339,0.763397 0.76338088,0.76338088 0 0 0 0.76339,-0.763397 0.76338088,0.76338088 0 0 0 -0.76339,-0.763394 z m -1.01456,1.779309 v 0.0069 c -0.29961,0.04426 -0.5281,0.301168 -0.5281,0.61346 v 2.099292 c 0,0.312296 0.22849,0.569146 0.5281,0.613399 v 2.455993 h 2.02912 v -2.455993 c 0.29961,-0.04426 0.5281,-0.301103 0.5281,-0.613399 V 87.96876 c 0,-0.312293 -0.22849,-0.569206 -0.5281,-0.613461 v -0.0069 h -0.0921 -1.84486 z"
           id="path37"
           inkscape:connector-curvature="0" />
        <path
           id="path38"
           style="color:#000000;overflow:visible;opacity:0.643874;fill:#999999;stroke:none;stroke-width:0.164042;stroke-miterlimit:4;stroke-dasharray:none"
           d="m 117.80784,84.446197 c 0,-0.430506 -1.83991,-0.779796 -4.10931,-0.779796 -2.2694,0 -4.10931,0.34929 -4.10931,0.779796 v 8.462498 c 0,0.430507 1.83991,0.77928 4.10931,0.77928 2.2694,0 4.10931,-0.348773 4.10931,-0.77928 z"
           sodipodi:nodetypes="csccscc" />
        <path
           id="path39"
           style="color:#000000;overflow:visible;fill:none;stroke:#000000;stroke-width:0.164042;stroke-miterlimit:4;stroke-dasharray:none"
           d="m 117.80784,84.446197 c 0,-0.430506 -1.83991,-0.779796 -4.10931,-0.779796 -2.2694,0 -4.10931,0.34929 -4.10931,0.779796 v 8.462498 c 0,0.430507 1.83991,0.77928 4.10931,0.77928 2.2694,0 4.10931,-0.348773 4.10931,-0.77928 z"
           sodipodi:nodetypes="csccscc" />
        <path
           id="path40"
           style="color:#000000;overflow:visible;fill:none;stroke:#000000;stroke-width:0.164042;stroke-miterlimit:4;stroke-dasharray:none"
           d="m 117.80765,84.445958 c 0,0.430506 -1.83972,0.779502 -4.10912,0.779502 -2.2694,0 -4.10912,-0.348996 -4.10912,-0.779502"
           sodipodi:nodetypes="csc" />
      </g>
      <g
         id="g45"
         transform="translate(-3.7693408,0.67007488)">
        <path
           id="path41"
           style="color:#000000;overflow:visible;fill:#000000;stroke:#000000;stroke-width:0.17504;stroke-miterlimit:4;stroke-dasharray:none"
           d="m 148.13642,91.766329 c 0,-0.691419 -2.96536,-1.252403 -6.62293,-1.252403 -3.65758,0 -6.62292,0.560984 -6.62292,1.252403 l -0.3263,1.02122 c 0,0.737781 3.04641,1.336228 6.94922,1.336228 3.9028,0 6.9492,-0.598447 6.9492,-1.336228 z"
           sodipodi:nodetypes="csccscc" />
        <path
           style="fill:#ffffff;fill-opacity:1;stroke:#000000;stroke-width:0.296734;stroke-linecap:round;stroke-linejoin:round;stroke-miterlimit:4;stroke-dasharray:none;stroke-opacity:1"
           d="m 141.51354,73.41751 a 1.8883621,1.882299 0 0 0 -1.8884,1.882333 1.8883621,1.882299 0 0 0 1.8884,1.882337 1.8883621,1.882299 0 0 0 1.8884,-1.882337 1.8883621,1.882299 0 0 0 -1.8884,-1.882333 z m -2.50971,4.387314 v 0.01692 c -0.74112,0.10913 -1.30634,0.742602 -1.30634,1.512632 v 5.176308 c 0,0.770042 0.56522,1.403368 1.30634,1.512483 v 6.055848 h 5.01942 v -6.055848 c 0.74112,-0.109124 1.30634,-0.742441 1.30634,-1.512483 v -5.176315 c 0,-0.77003 -0.56522,-1.403512 -1.30634,-1.512634 v -0.01692 h -0.22791 -4.5636 z"
           id="path42"
           inkscape:connector-curvature="0" />
        <path
           id="path43"
           style="color:#000000;overflow:visible;opacity:0.643874;fill:#999999;stroke:none;stroke-width:0.164042;stroke-miterlimit:4;stroke-dasharray:none"
           d="m 148.13653,71.479816 c 0,-0.691419 -2.96536,-1.2524 -6.62293,-1.2524 -3.65756,0 -6.62292,0.560981 -6.62292,1.2524 v 20.286513 c 0,0.69142 2.96536,1.251571 6.62292,1.251571 3.65757,0 6.62293,-0.560151 6.62293,-1.251571 z"
           sodipodi:nodetypes="csccscc" />
        <path
           id="path44"
           style="color:#000000;overflow:visible;fill:none;stroke:#000000;stroke-width:0.164042;stroke-miterlimit:4;stroke-dasharray:none"
           d="m 148.13653,71.479816 c 0,-0.691419 -2.96536,-1.2524 -6.62293,-1.2524 -3.65756,0 -6.62292,0.560981 -6.62292,1.2524 v 20.286513 c 0,0.69142 2.96536,1.251571 6.62292,1.251571 3.65757,0 6.62293,-0.560151 6.62293,-1.251571 z"
           sodipodi:nodetypes="csccscc" />
        <path
           id="path45"
           style="color:#000000;overflow:visible;fill:none;stroke:#000000;stroke-width:0.164042;stroke-miterlimit:4;stroke-dasharray:none"
           d="m 148.13622,71.577449 c 0,0.691419 -2.96505,1.251927 -6.62262,1.251927 -3.65756,0 -6.62261,-0.560508 -6.62261,-1.251927"
           sodipodi:nodetypes="csc" />
      </g>
      <g
         id="g50"
         transform="matrix(1.2020337,0,0,1,-29.570898,0.65898188)"
         style="stroke-width:0.912098">
        <path
           id="path46"
           style="color:#000000;overflow:visible;fill:#000000;stroke:#000000;stroke-width:0.159654;stroke-miterlimit:4;stroke-dasharray:none"
           d="m 163.51996,91.462444 c 0,-0.865426 -3.7157,-1.567591 -8.29877,-1.567591 -4.58308,0 -8.29876,0.702165 -8.29876,1.567591 l -0.2627,1.087435 c 0,0.923456 3.63847,1.672512 8.52884,1.672512 4.89035,0 8.52882,-0.749056 8.52882,-1.672512 z"
           sodipodi:nodetypes="csccscc" />
        <g
           id="g51"
           transform="matrix(0.1308894,0,0,0.1612776,122.40574,67.70375)"
           style="stroke-width:1.85243;stroke-dasharray:none">
          <path
             id="path902"
             style="color:#000000;overflow:visible;fill:#ffffff;stroke:#000000;stroke-width:1.85243;stroke-linecap:round;stroke-linejoin:round;stroke-miterlimit:4;stroke-dasharray:none"
             d="m 241.24575,-6.3208986 c -2.4797,0 -4.47166,1.9919405 -4.47166,4.4716362 V 12.447317 h -9.64098 c -1.90669,0 -3.62156,0.742341 -4.92193,1.928204 h -2.72102 l 0.16485,-0.976778 c 0.088,-0.525354 -0.3104,-1.147584 -0.80553,-0.951426 l -16.38964,6.494986 c -0.49522,0.196063 -1.08403,0.41977 -1.1164,0.951426 l -10.20547,49.180086 c -0.0312,0.531647 2.05452,6.155542 2.57359,6.274639 l 12.84084,2.946158 c 0.51907,0.119164 2.80923,-5.749257 2.89705,-6.27461 l 7.05953,-33.307343 h 3.30464 l 1.77439,17.226943 c 0.41573,4.035816 1.48794,7.325895 5.5451,7.325895 h 7.77621 v 6.647186 h -7.47338 c -1.94227,0 -11.86649,11.606284 -11.9862,13.545002 l -4.42719,61.578615 c -0.1199,1.93873 1.34949,3.50123 3.29186,3.50123 h 16.40232 c 1.94246,0 3.60349,-1.5625 3.7232,-3.50123 l 3.10798,-48.529998 3.21975,-7.09758 h 19.31848 l 3.21974,7.09758 3.10798,48.529998 c 0.11981,1.93873 1.78074,3.50123 3.72321,3.50123 h 16.40231 c 1.94247,0 3.41157,-1.5625 3.29186,-3.50123 l -4.42719,-61.578615 c -0.1199,-1.938718 -10.05017,-13.545002 -11.99254,-13.545002 h -7.46703 v -6.647186 h 7.76986 c 4.05717,0 5.13571,-3.290041 5.55144,-7.325895 l 1.7744,-17.226943 h 3.87547 l 7.05944,33.307343 c 0.088,0.525353 2.37797,6.393774 2.89704,6.27461 l 12.8346,-2.946158 c 0.51898,-0.119163 2.61106,-5.742992 2.57993,-6.274639 L 300.08119,19.893729 c -0.0312,-0.531656 -0.62752,-0.755221 -1.12265,-0.951426 L 282.5689,12.447317 c -0.49512,-0.196054 -0.88719,0.426072 -0.79918,0.951426 l 0.16485,0.976778 h -3.29186 c -1.30037,-1.185863 -3.02158,-1.928204 -4.92827,-1.928204 h -9.63473 V -1.8492624 c 0,-2.4796957 -1.99196,-4.4716362 -4.47167,-4.4716362 z"
             sodipodi:nodetypes="sscscccssccsscccssccsccssccccccssccsccsscccssccsscccscsss" />
          <path
             style="fill:none;fill-rule:evenodd;stroke:#000000;stroke-width:1.85243;stroke-linecap:butt;stroke-linejoin:miter;stroke-miterlimit:4;stroke-dasharray:none;stroke-opacity:1"
             d="m 219.49016,14.37554 0.32355,24.337157"
             id="path904"
             sodipodi:nodetypes="cc" />
          <path
             style="fill:none;fill-rule:evenodd;stroke:#000000;stroke-width:1.85243;stroke-linecap:butt;stroke-linejoin:miter;stroke-miterlimit:4;stroke-dasharray:none;stroke-opacity:1"
             d="m 281.93466,14.37554 -0.89439,24.337157"
             id="path906"
             sodipodi:nodetypes="cc" />
          <path
             style="fill:none;fill-rule:evenodd;stroke:#000000;stroke-width:1.85243;stroke-linecap:butt;stroke-linejoin:miter;stroke-miterlimit:4;stroke-dasharray:none;stroke-opacity:1"
             d="m 265.94448,69.912683 -5.85834,19.496039"
             id="path908-6"
             sodipodi:nodetypes="cc" />
          <path
             style="fill:none;fill-rule:evenodd;stroke:#000000;stroke-width:1.85243;stroke-linecap:butt;stroke-linejoin:miter;stroke-miterlimit:4;stroke-dasharray:none;stroke-opacity:1"
             d="m 234.90932,69.912683 5.85834,19.496039"
             id="path910"
             sodipodi:nodetypes="cc" />
        </g>
        <path
           id="path48"
           style="color:#000000;overflow:visible;opacity:0.643874;fill:#999999;stroke:none;stroke-width:0.149622;stroke-miterlimit:4;stroke-dasharray:none"
           d="m 163.5201,64.407002 c 0,-0.865426 -3.7157,-1.567587 -8.29877,-1.567587 -4.58306,0 -8.29877,0.702161 -8.29877,1.567587 v 27.055442 c 0,0.865427 3.71571,1.566549 8.29877,1.566549 4.58307,0 8.29877,-0.701122 8.29877,-1.566549 z"
           sodipodi:nodetypes="csccscc" />
        <path
           id="path49"
           style="color:#000000;overflow:visible;fill:none;stroke:#000000;stroke-width:0.149622;stroke-miterlimit:4;stroke-dasharray:none"
           d="m 163.5201,64.407002 c 0,-0.865426 -3.7157,-1.567587 -8.29877,-1.567587 -4.58306,0 -8.29877,0.702161 -8.29877,1.567587 v 27.055442 c 0,0.865427 3.71571,1.566549 8.29877,1.566549 4.58307,0 8.29877,-0.701122 8.29877,-1.566549 z"
           sodipodi:nodetypes="csccscc" />
        <path
           id="path50"
           style="color:#000000;overflow:visible;fill:none;stroke:#000000;stroke-width:0.149622;stroke-miterlimit:4;stroke-dasharray:none"
           d="m 163.51971,64.529207 c 0,0.865426 -3.71531,1.566995 -8.29838,1.566995 -4.58306,0 -8.29838,-0.701569 -8.29838,-1.566995"
           sodipodi:nodetypes="csc" />
      </g>
      <path
         d="m 109.10326,97.026189 v -1.732808 l 0.21949,-0.103968 h 0.0115 v 0.962285 l 0.48287,-0.488651 h 0.0116 l 0.20331,0.09588 -0.38353,0.352337 q 0.16404,0.02195 0.27032,0.107434 0.14325,0.117831 0.14325,0.331544 v 0.371976 l -0.21949,0.103969 h -0.0115 v -0.475945 q 0,-0.132848 -0.0728,-0.194074 -0.0716,-0.06238 -0.17559,-0.06238 -0.10397,0 -0.17675,0.06238 -0.0716,0.06238 -0.0716,0.194074 v 0.371976 l -0.21949,0.103969 z m 1.36314,0 v -1.732808 l 0.21949,-0.103968 h 0.0115 v 1.732807 l -0.21949,0.103969 z m 1.59418,-0.557964 v 0.07278 q 0,0.190608 -0.14324,0.331543 -0.13401,0.130539 -0.33617,0.130539 -0.19985,0 -0.33616,-0.130539 -0.14325,-0.138624 -0.14325,-0.331543 v -0.39277 q 0,-0.190609 0.14325,-0.331544 0.134,-0.130538 0.33616,-0.130538 0.19639,0 0.33617,0.130538 0.14324,0.134004 0.14324,0.298043 v 0.0023 l -0.70467,0.552188 q 0.0173,0.03928 0.0485,0.06585 0.0728,0.06238 0.17674,0.06238 0.10397,0 0.17559,-0.06238 0.0728,-0.06238 0.0728,-0.162884 l 0.21949,-0.103968 z m -0.72778,-0.03235 0.48288,-0.391615 q -0.0185,-0.05661 -0.0578,-0.09011 -0.0728,-0.06238 -0.17675,-0.06238 -0.10397,0 -0.17674,0.06238 -0.0716,0.06123 -0.0716,0.194075 z m 1.14943,-0.981924 q -0.0404,-0.04159 -0.0404,-0.09935 0,-0.05892 0.0404,-0.100503 0.0404,-0.04159 0.0982,-0.04159 0.0578,0 0.0982,0.04159 0.0404,0.04159 0.0404,0.100503 0,0.05776 -0.0404,0.09935 -0.0404,0.04159 -0.0982,0.04159 -0.0578,0 -0.0982,-0.04159 z m -0.0173,1.572234 v -1.259174 l 0.21949,-0.103968 h 0.0116 v 1.259173 l -0.21949,0.103969 z m 0.63537,0 v -0.877956 q 0,-0.190609 0.14324,-0.331544 0.13401,-0.130538 0.33617,-0.130538 0.19985,0 0.33616,0.130538 0.14325,0.138625 0.14325,0.331544 v 0.773987 l -0.21949,0.103969 h -0.0115 v -0.877956 q 0,-0.132849 -0.0728,-0.194075 -0.0716,-0.06238 -0.17559,-0.06238 -0.10397,0 -0.17675,0.06238 -0.0716,0.06123 -0.0716,0.194075 v 0.773987 l -0.21949,0.103969 z"
         id="text52"
         style="font-size:2.36586px;font-family:'Nova Round';-inkscape-font-specification:'Nova Round, Normal';text-align:center;text-anchor:middle;stroke-width:0.29508;stroke-linecap:round"
         aria-label="klein" />
      <path
         d="m 120.33761,97.026189 v -0.877956 q 0,-0.190609 0.14325,-0.331544 0.134,-0.130538 0.33616,-0.130538 0.18368,0 0.31768,0.134004 0.0254,0.02541 0.0462,0.06007 0.0208,-0.0335 0.0462,-0.05891 0.1444,-0.135159 0.31768,-0.135159 0.19985,0 0.33617,0.130538 0.14324,0.138625 0.14324,0.331544 v 0.773987 l -0.21949,0.103969 h -0.0115 v -0.877956 q 0,-0.132849 -0.0728,-0.194075 -0.0716,-0.06238 -0.17559,-0.06238 -0.10397,0 -0.17675,0.06238 -0.0716,0.06123 -0.0716,0.194075 v 0.773987 l -0.21949,0.103969 h -0.0115 v -0.877956 q 0,-0.132849 -0.0728,-0.194075 -0.0716,-0.06238 -0.17559,-0.06238 -0.10397,0 -0.17674,0.06238 -0.0716,0.06123 -0.0716,0.194075 v 0.773987 l -0.21949,0.103969 z m 2.10825,-1.572234 q -0.0404,-0.04159 -0.0404,-0.09935 0,-0.05892 0.0404,-0.100503 0.0404,-0.04159 0.0982,-0.04159 0.0578,0 0.0982,0.04159 0.0404,0.04159 0.0404,0.100503 0,0.05776 -0.0404,0.09935 -0.0404,0.04159 -0.0982,0.04159 -0.0578,0 -0.0982,-0.04159 z m -0.0173,1.572234 v -1.259174 l 0.21949,-0.103968 h 0.0115 v 1.259173 l -0.21949,0.103969 z m 0.78785,0 v -1.106687 h -0.29689 v -0.01155 l 0.0936,-0.198695 h 0.20331 v -0.415874 l 0.21949,-0.103968 h 0.0115 v 0.519842 h 0.29689 v 0.01155 l -0.0936,0.198695 h -0.20332 v 1.002718 l -0.21949,0.103969 z m 0.88258,0 v -1.106687 h -0.29689 v -0.01155 l 0.0936,-0.198695 h 0.20332 v -0.415874 l 0.21949,-0.103968 h 0.0115 v 0.519842 h 0.29689 v 0.01155 l -0.0936,0.198695 H 124.33 v 1.002718 l -0.21949,0.103969 z m 1.68891,-0.557964 v 0.07278 q 0,0.190608 -0.14325,0.331543 -0.134,0.130539 -0.33616,0.130539 -0.19985,0 -0.33617,-0.130539 -0.14324,-0.138624 -0.14324,-0.331543 v -0.39277 q 0,-0.190609 0.14324,-0.331544 0.13401,-0.130538 0.33617,-0.130538 0.19638,0 0.33616,0.130538 0.14325,0.134004 0.14325,0.298043 v 0.0023 l -0.70468,0.552188 q 0.0173,0.03928 0.0485,0.06585 0.0728,0.06238 0.17675,0.06238 0.10397,0 0.17559,-0.06238 0.0728,-0.06238 0.0728,-0.162884 l 0.21949,-0.103968 z m -0.72778,-0.03235 0.48288,-0.391615 q -0.0185,-0.05661 -0.0578,-0.09011 -0.0728,-0.06238 -0.17675,-0.06238 -0.10397,0 -0.17675,0.06238 -0.0716,0.06123 -0.0716,0.194075 z m 1.1321,0.59031 v -1.732808 l 0.21949,-0.103968 h 0.0115 v 1.732807 l -0.21949,0.103969 z"
         id="text53"
         style="font-size:2.36586px;font-family:'Nova Round';-inkscape-font-specification:'Nova Round, Normal';text-align:center;text-anchor:middle;stroke-width:0.29508;stroke-linecap:round"
         aria-label="mittel" />
      <path
         d="m 135.6769,96.541003 q 0,0.132848 0.0716,0.195229 0.0728,0.06123 0.17675,0.06123 0.10397,0 0.17559,-0.06123 0.0728,-0.06238 0.0728,-0.195229 v -0.39277 q 0,-0.132849 -0.0728,-0.194075 -0.0716,-0.06238 -0.17559,-0.06238 -0.10397,0 -0.17675,0.06238 -0.0716,0.06123 -0.0716,0.194075 z m -0.23104,0 v -0.39277 q 0,-0.190609 0.14325,-0.331544 0.134,-0.130538 0.33616,-0.130538 0.20216,0 0.33616,0.130538 0.14325,0.13978 0.14325,0.331544 v 0.866404 q 0,0.190608 -0.14325,0.331543 -0.134,0.130539 -0.33616,0.130539 h -0.3558 v -0.01155 l 0.0924,-0.194075 h 0.26339 q 0.10397,0 0.17559,-0.06238 0.0728,-0.06123 0.0728,-0.194074 v -0.109745 q -0.0878,0.09819 -0.24837,0.09819 -0.19985,0 -0.33616,-0.130539 -0.14325,-0.138624 -0.14325,-0.331543 z m 1.34004,0.485186 v -0.877956 q 0,-0.190609 0.14324,-0.331544 0.13401,-0.130538 0.33617,-0.130538 h 0.15595 v 0.01155 l -0.0924,0.194074 h -0.0635 q -0.10397,0 -0.17675,0.06238 -0.0716,0.06123 -0.0716,0.194075 0,0 0,0.773987 l -0.21949,0.103969 z m 0.83175,-0.485186 v -0.39277 q 0,-0.190609 0.14324,-0.331544 0.134,-0.130538 0.33617,-0.130538 0.19985,0 0.33616,0.130538 0.14325,0.138625 0.14325,0.331544 v 0.39277 q 0,0.190608 -0.14325,0.331543 -0.134,0.130539 -0.33616,0.130539 -0.19985,0 -0.33617,-0.130539 -0.14324,-0.138624 -0.14324,-0.331543 z m 0.23104,0 q 0,0.132848 0.0716,0.195229 0.0728,0.06123 0.17675,0.06123 0.10396,0 0.17559,-0.06123 0.0728,-0.06238 0.0728,-0.195229 v -0.39277 q 0,-0.132849 -0.0728,-0.194075 -0.0716,-0.06238 -0.17559,-0.06238 -0.10397,0 -0.17675,0.06238 -0.0716,0.06123 -0.0716,0.194075 z m 1.1321,0.485186 v -1.353901 q 0,-0.232196 0.14324,-0.348872 0.13632,-0.110899 0.33617,-0.110899 0.19985,0 0.33616,0.110899 0.14325,0.116676 0.14325,0.331544 0,0.179057 -0.16058,0.328078 0.0578,0.02311 0.10744,0.06816 0.15595,0.140935 0.15595,0.383528 0,0.235662 -0.1548,0.400856 -0.15826,0.167505 -0.42742,0.167505 h -0.0924 v -0.01155 l 0.0924,-0.196385 q 0.16519,0 0.26916,-0.118986 0.082,-0.09357 0.082,-0.239128 0,-0.137469 -0.067,-0.216023 -0.0924,-0.10859 -0.28418,-0.10859 h -0.0936 v -0.01155 l 0.0936,-0.196384 q 0.12707,0 0.19638,-0.0774 0.052,-0.05776 0.052,-0.172126 0,-0.118986 -0.0682,-0.189453 -0.0682,-0.07047 -0.18021,-0.07047 -0.11206,0 -0.18021,0.07047 -0.0682,0.07047 -0.0682,0.189453 v 1.26726 l -0.21949,0.103969 z"
         id="text54"
         style="font-size:2.36586px;font-family:'Nova Round';-inkscape-font-specification:'Nova Round, Normal';text-align:center;text-anchor:middle;stroke-width:0.29508;stroke-linecap:round"
         aria-label="groß" />
      <path
         d="m 154.11185,97.026189 v -0.877956 q 0,-0.190609 0.14325,-0.331544 0.134,-0.130538 0.33616,-0.130538 h 0.15595 v 0.01155 l -0.0924,0.194074 h -0.0635 q -0.10397,0 -0.17675,0.06238 -0.0716,0.06123 -0.0716,0.194075 0,0 0,0.773987 l -0.21949,0.103969 z m 0.90684,-1.572234 q -0.0404,-0.04159 -0.0404,-0.09935 0,-0.05892 0.0404,-0.100503 0.0404,-0.04159 0.0982,-0.04159 0.0578,0 0.0982,0.04159 0.0404,0.04159 0.0404,0.100503 0,0.05776 -0.0404,0.09935 -0.0404,0.04159 -0.0982,0.04159 -0.0578,0 -0.0982,-0.04159 z m -0.0173,1.572234 v -1.259174 l 0.21949,-0.103968 h 0.0115 v 1.259173 l -0.21949,0.103969 z m 1.59418,-0.557964 v 0.07278 q 0,0.190608 -0.14324,0.331543 -0.13401,0.130539 -0.33617,0.130539 -0.19985,0 -0.33616,-0.130539 -0.14325,-0.138624 -0.14325,-0.331543 v -0.39277 q 0,-0.190609 0.14325,-0.331544 0.134,-0.130538 0.33616,-0.130538 0.19639,0 0.33617,0.130538 0.14324,0.134004 0.14324,0.298043 v 0.0023 l -0.70467,0.552188 q 0.0173,0.03928 0.0485,0.06585 0.0728,0.06238 0.17674,0.06238 0.10397,0 0.17559,-0.06238 0.0728,-0.06238 0.0728,-0.162884 l 0.21949,-0.103968 z m -0.72778,-0.03235 0.48288,-0.391615 q -0.0185,-0.05661 -0.0578,-0.09011 -0.0728,-0.06238 -0.17675,-0.06238 -0.10397,0 -0.17674,0.06238 -0.0716,0.06123 -0.0716,0.194075 z m 1.03969,0.136314 0.21949,-0.103968 h 0.0115 v 0.09242 q 0,0.129383 0.0751,0.196385 0.0716,0.06354 0.17328,0.06354 0.11783,0 0.18368,-0.07509 0.0693,-0.07855 0.0693,-0.170971 0,-0.09935 -0.0739,-0.157107 -0.0635,-0.04967 -0.18021,-0.04967 -0.20562,0 -0.32461,-0.09011 -0.10512,-0.07855 -0.10512,-0.243748 0,-0.160574 0.14671,-0.265698 0.11436,-0.08202 0.28418,-0.08202 0.16288,0 0.28302,0.101658 0.0924,0.07971 0.11437,0.184833 l -0.21949,0.103968 h -0.0115 v -0.0335 q 0,-0.06007 -0.0347,-0.102813 -0.0555,-0.07162 -0.15826,-0.07162 -0.082,0 -0.13401,0.05198 -0.0508,0.05083 -0.0508,0.113211 0,0.07393 0.0624,0.11783 0.0346,0.02426 0.14786,0.02426 0.23451,0 0.35234,0.107434 0.12823,0.116676 0.12823,0.303819 0,0.150176 -0.13285,0.286491 -0.12592,0.129383 -0.34656,0.129383 -0.19985,0 -0.33617,-0.1109 -0.14324,-0.116676 -0.14324,-0.319992 z m 1.34581,-1.118238 q -0.0404,-0.04159 -0.0404,-0.09935 0,-0.05892 0.0404,-0.100503 0.0404,-0.04159 0.0982,-0.04159 0.0578,0 0.0982,0.04159 0.0404,0.04159 0.0404,0.100503 0,0.05776 -0.0404,0.09935 -0.0404,0.04159 -0.0982,0.04159 -0.0578,0 -0.0982,-0.04159 z m -0.0173,1.572234 v -1.259174 l 0.21949,-0.103968 h 0.0115 v 1.259173 l -0.21948,0.103969 z m 0.86641,-0.485186 q 0,0.132848 0.0716,0.195229 0.0728,0.06123 0.17675,0.06123 0.10396,0 0.17559,-0.06123 0.0728,-0.06238 0.0728,-0.195229 v -0.39277 q 0,-0.132849 -0.0728,-0.194075 -0.0716,-0.06238 -0.17559,-0.06238 -0.10397,0 -0.17675,0.06238 -0.0716,0.06123 -0.0716,0.194075 z m -0.23104,0 v -0.39277 q 0,-0.190609 0.14324,-0.331544 0.13401,-0.130538 0.33617,-0.130538 0.20216,0 0.33616,0.130538 0.14325,0.13978 0.14325,0.331544 v 0.866404 q 0,0.190608 -0.14325,0.331543 -0.134,0.130539 -0.33616,0.130539 h -0.35581 v -0.01155 l 0.0924,-0.194075 h 0.26339 q 0.10396,0 0.17559,-0.06238 0.0728,-0.06123 0.0728,-0.194074 v -0.109745 q -0.0878,0.09819 -0.24837,0.09819 -0.19985,0 -0.33617,-0.130539 -0.14324,-0.138624 -0.14324,-0.331543 z"
         id="text55"
         style="font-size:2.36586px;font-family:'Nova Round';-inkscape-font-specification:'Nova Round, Normal';text-align:center;text-anchor:middle;stroke-width:0.29508;stroke-linecap:round"
         aria-label="riesig" />
    </g>
  </g>
</svg>
