<?xml version="1.0" encoding="UTF-8" standalone="no"?>
<!-- Created with Inkscape (http://www.inkscape.org/) -->

<svg
   width="63.000008mm"
   height="88mm"
   viewBox="0 0 63.000008 88"
   version="1.1"
   id="svg5"
   inkscape:version="1.3 (0e150ed6c4, 2023-07-21)"
   sodipodi:docname="kraft_beispiel.svg"
   xml:space="preserve"
   xmlns:inkscape="http://www.inkscape.org/namespaces/inkscape"
   xmlns:sodipodi="http://sodipodi.sourceforge.net/DTD/sodipodi-0.dtd"
   xmlns="http://www.w3.org/2000/svg"
   xmlns:svg="http://www.w3.org/2000/svg"><sodipodi:namedview
     id="namedview7"
     pagecolor="#ffffff"
     bordercolor="#666666"
     borderopacity="1.0"
     inkscape:showpageshadow="2"
     inkscape:pageopacity="0.0"
     inkscape:pagecheckerboard="0"
     inkscape:deskcolor="#d1d1d1"
     inkscape:document-units="mm"
     showgrid="false"
     inkscape:zoom="1.6088805"
     inkscape:cx="121.20229"
     inkscape:cy="158.80608"
     inkscape:window-width="1920"
     inkscape:window-height="1009"
     inkscape:window-x="1912"
     inkscape:window-y="-8"
     inkscape:window-maximized="1"
     inkscape:current-layer="g3013"><inkscape:page
       x="0"
       y="0"
       width="63.000008"
       height="88"
       id="page22"
       margin="0"
       bleed="0" /></sodipodi:namedview><defs
     id="defs2"><rect
       x="406.52338"
       y="99.327538"
       width="12.003021"
       height="45.775719"
       id="rect3061" /><rect
       x="1.0384082"
       y="27.424376"
       width="236.03343"
       height="264.45972"
       id="rect2233" /><rect
       x="1.0384082"
       y="27.424376"
       width="236.03343"
       height="264.45972"
       id="rect2500" /><rect
       x="1.0384082"
       y="27.424376"
       width="236.03345"
       height="277.32599"
       id="rect2738" /><rect
       x="1.0384082"
       y="27.424376"
       width="236.03345"
       height="277.32599"
       id="rect53" /><rect
       x="1.0384082"
       y="27.424376"
       width="236.03345"
       height="277.32599"
       id="rect85" /><rect
       x="1.0384082"
       y="27.424376"
       width="236.03345"
       height="277.32599"
       id="rect117" /><rect
       x="1.0384082"
       y="27.424376"
       width="222.35934"
       height="202.73997"
       id="rect119" /></defs><g
     inkscape:label="Ebene 1"
     inkscape:groupmode="layer"
     id="layer1"
     transform="translate(-219.00002)"><g
       id="g3013"><rect
         style="fill:#ffffff;stroke:#000000;stroke-width:0.549491;stroke-linecap:round;stroke-linejoin:round;stroke-dasharray:none;stroke-dashoffset:0;stop-color:#000000"
         id="rect54"
         width="62.450512"
         height="87.450508"
         x="219.27477"
         y="0.27474549" /><g
         id="g63"
         transform="matrix(0.69295981,0,0,0.69295981,154.31406,-48.038929)"
         style="stroke-width:0.977758"><rect
           y="83.949471"
           x="94.863724"
           height="9.375"
           width="9.375"
           id="rect61"
           style="fill:none;stroke-width:0.258697" /><g
           id="g62"
           style="stroke-width:0.977758"><path
             transform="matrix(0.2915935,0.06201993,-0.06201993,0.2915935,100.52492,29.051091)"
             inkscape:transform-center-y="-1.0345173"
             inkscape:transform-center-x="1.5502266"
             inkscape:randomized="0"
             inkscape:rounded="0"
             inkscape:flatsided="false"
             sodipodi:arg2="0.70681145"
             sodipodi:arg1="0.52807446"
             sodipodi:r2="14.994771"
             sodipodi:r1="8.6827774"
             sodipodi:cy="196.1122"
             sodipodi:cx="38.214287"
             sodipodi:sides="8"
             id="path61"
             style="fill:#ffcc00;fill-opacity:1;stroke:none;stroke-width:2.04059;stroke-linejoin:round;stroke-miterlimit:4;stroke-dasharray:none;stroke-opacity:1"
             sodipodi:type="star"
             d="m 45.714287,200.4872 3.90257,5.36279 -9.192862,-1.3409 -1.032531,6.5516 -5.552177,-7.44849 -5.36279,3.90257 1.340897,-9.19286 -6.551599,-1.03253 7.448492,-5.55218 -3.90257,-5.36279 9.192861,1.34089 1.032532,-6.55159 5.552177,7.44849 5.36279,-3.90257 -1.340897,9.19286 6.551599,1.03253 z" /><path
             style="font-size:4.30286px;font-family:'Nova Round';-inkscape-font-specification:'Nova Round';text-align:center;text-anchor:middle;stroke-width:29.7619;stroke-linecap:round;stroke-linejoin:round"
             d="m 98.430425,90.213448 v -0.02101 l 0.170181,-0.361373 1.006382,-0.974867 q 0.533652,-0.491635 0.533652,-0.834099 0,-0.260525 -0.13866,-0.428606 -0.178588,-0.216403 -0.489537,-0.216403 -0.294141,0 -0.489534,0.216403 -0.151273,0.168081 -0.151273,0.420202 0,0.140767 0.08194,0.279433 l -0.352969,0.170182 h -0.02101 q -0.128161,-0.226909 -0.128161,-0.497939 0,-0.361373 0.283636,-0.661816 0.287838,-0.304646 0.777372,-0.304646 0.489536,0 0.777376,0.304646 0.28153,0.298342 0.28153,0.73115 -0.002,0.472726 -0.56727,0.993775 l -0.89713,0.802585 h 1.4728 v 0.02101 l -0.17018,0.361373 z"
             id="path62"
             aria-label="2" /></g></g><rect
         style="fill:#a40000;stroke:#000000;stroke-width:0.549492;stroke-linecap:round;stroke-linejoin:round;stroke-dasharray:none;stroke-dashoffset:0;stop-color:#000000"
         id="rect55"
         width="62.450516"
         height="9.1191607"
         x="219.27477"
         y="0.27474549" /><path
         style="font-size:5.29167px;line-height:2.77712px;font-family:'Nova Round';-inkscape-font-specification:'Nova Round';letter-spacing:0px;word-spacing:0px;fill:#ffffff;stroke-width:0.264583"
         d="M 234.15378,7.6648601 V 2.3242294 l 0.37739,-0.1780209 h 2.25731 v 0.035603 l -0.2884,0.6123924 h -1.63423 v 1.7161227 h 1.92263 v 0.035604 l -0.2884,0.6123923 h -1.63423 V 7.344421 l -0.67648,0.3204379 z m 6.58676,-1.7196831 v 0.2243065 q 0,0.5874693 -0.44147,1.0218406 -0.41302,0.4023275 -1.03609,0.4023275 -0.61596,0 -1.03609,-0.4023275 -0.44148,-0.4272504 -0.44148,-1.0218406 V 4.9589406 q 0,-0.5874693 0.44148,-1.0218407 0.41301,-0.4023276 1.03609,-0.4023276 0.60527,0 1.03608,0.4023276 0.44148,0.4130087 0.44148,0.9185885 v 0.00712 l -2.17185,1.7018809 q 0.0535,0.1210543 0.14954,0.2029439 0.2243,0.1922628 0.54475,0.1922628 0.32044,0 0.54117,-0.1922628 0.22431,-0.1922626 0.22431,-0.5020191 l 0.67649,-0.320441 z m -2.24306,-0.099692 1.48826,-1.2069825 q -0.0569,-0.1744606 -0.17802,-0.2777128 -0.2243,-0.1922627 -0.54474,-0.1922627 -0.32045,0 -0.54475,0.1922627 -0.22075,0.1887023 -0.22075,0.5981506 z m 6.26635,-2.3819214 v 2.7059197 q 0,0.5874693 -0.44149,1.0218406 -0.41302,0.4023275 -1.03609,0.4023275 -0.61595,0 -1.03608,-0.4023275 -0.44149,-0.4272505 -0.44149,-1.0218406 V 3.7840017 l 0.67647,-0.3204378 h 0.0356 v 2.7059196 q 0,0.4094483 0.22075,0.601711 0.22429,0.1887023 0.54473,0.1887023 0.32044,0 0.54118,-0.1887023 0.22431,-0.1922627 0.22431,-0.601711 V 3.7840017 l 0.67649,-0.3204378 z m 4.02327,2.4816132 v 0.2243065 q 0,0.5874693 -0.44149,1.0218406 -0.41301,0.4023275 -1.03609,0.4023275 -0.61595,0 -1.03608,-0.4023275 -0.44149,-0.4272505 -0.44149,-1.0218406 V 4.9589406 q 0,-0.5874693 0.44149,-1.0218407 0.413,-0.4023276 1.03608,-0.4023276 0.60527,0 1.03609,0.4023276 0.44149,0.4130087 0.44149,0.9185885 v 0.00712 l -2.17186,1.7018809 q 0.0535,0.1210543 0.14955,0.2029439 0.2243,0.1922628 0.54473,0.1922628 0.32044,0 0.54118,-0.1922628 0.22432,-0.1922626 0.22432,-0.5020191 l 0.67647,-0.3204378 z m -2.24306,-0.099692 1.48824,-1.2069824 q -0.0569,-0.1744606 -0.17801,-0.2777128 -0.22431,-0.1922627 -0.54475,-0.1922627 -0.32043,0 -0.54473,0.1922627 -0.22075,0.1887022 -0.22075,0.5981506 z m 3.31118,1.8193749 v -2.70592 q 0,-0.5874693 0.44149,-1.0218407 0.41301,-0.4023276 1.03608,-0.4023276 h 0.48067 v 0.035604 l -0.28484,0.5981506 h -0.19583 q -0.32042,0 -0.54473,0.1922628 -0.22075,0.1887022 -0.22075,0.5981506 0,0 0,2.3854816 l -0.67649,0.3204379 z M 252.59675,6.169483 V 2.3242294 l 0.67649,-0.3204379 h 0.0356 v 1.8336166 q 0.27061,-0.3026358 0.76551,-0.3026358 0.61596,0 1.03608,0.4023276 0.44148,0.4272504 0.44148,1.0218407 v 1.2105429 q 0,0.5874693 -0.44148,1.0218406 -0.413,0.4023275 -1.03608,0.4023275 -0.61595,0 -1.03609,-0.4023275 -0.44149,-0.4272504 -0.44149,-1.0218406 z m 0.71207,0 q 0,0.4094483 0.22075,0.601711 0.22431,0.1887023 0.54476,0.1887023 0.32043,0 0.54118,-0.1887023 0.22431,-0.1922627 0.22431,-0.601711 V 4.9589406 q 0,-0.4094484 -0.22431,-0.5981507 -0.22075,-0.1922627 -0.54118,-0.1922627 -0.32045,0 -0.54476,0.1922627 -0.22075,0.1887023 -0.22075,0.5981507 z m 6.01713,1.1749388 -0.67649,0.3204378 h -0.0356 V 7.291016 q -0.28483,0.3026356 -0.76549,0.3026356 -0.66581,0 -1.03608,-0.4023275 -0.37028,-0.4023274 -0.37028,-0.9506322 0,-0.5696673 0.40232,-0.9684345 0.38809,-0.3845253 1.00404,-0.3845253 0.43794,0 0.76549,0.3026358 0,-0.6301944 -0.22075,-0.829578 -0.21363,-0.1922627 -0.54474,-0.1922627 h -0.86518 v -0.035603 l 0.28484,-0.5981507 h 0.58034 q 0.62308,0 1.03608,0.4023276 0.44151,0.4308107 0.44151,1.0218407 z m -2.1861,-1.1037304 q 0,0.3168775 0.19226,0.5233818 0.18514,0.1993836 0.51981,0.1993836 0.34893,0 0.54118,-0.202944 0.21363,-0.227867 0.21363,-0.5127006 0,-0.3204378 -0.22074,-0.5198213 -0.22074,-0.1993836 -0.5305,-0.1993836 -0.32399,0 -0.51981,0.2100647 -0.19583,0.2100649 -0.19583,0.5020194 z m 3.43224,1.4241682 V 2.3242294 l 0.67648,-0.3204379 h 0.0356 v 5.3406307 l -0.67649,0.3204379 z m 2.13625,0 V 2.3242294 l 0.67648,-0.3204379 h 0.0356 v 5.3406307 l -0.67647,0.3204379 z"
         id="path55"
         aria-label="Feuerball" /><rect
         style="fill:#ffffff;stroke:#000000;stroke-width:0.549493;stroke-linecap:round;stroke-linejoin:round;stroke-dasharray:none;stroke-dashoffset:0;stop-color:#000000"
         id="rect56"
         width="62.450512"
         height="57.467529"
         x="219.27477"
         y="17.158953" /><path
         style="font-size:4.23333px;line-height:6.61458px;font-family:'Nova Round';-inkscape-font-specification:'Nova Round';letter-spacing:0px;word-spacing:0px;fill:#ffffff;stroke-width:0.264583"
         d="m 221.08288,5.7925511 0.6989,-0.3310565 h 0.0368 v 0.3310565 q 0,0.4855504 0.26485,0.7982155 0.32002,0.3788743 0.85707,0.3788743 0.52601,0 0.85707,-0.3788743 0.26117,-0.2979518 0.26117,-0.7614307 0,-0.4340527 -0.21704,-0.6878611 -0.30163,-0.3457714 -0.90856,-0.3457714 -0.50394,0 -0.81661,0.161849 l 1.21756,-2.2842898 h -1.92749 v -0.036786 l 0.29795,-0.6326854 h 2.76986 l -1.2617,2.2070444 q 0.6474,0.00373 1.08145,0.386231 0.50026,0.4414091 0.50026,1.2249096 0,0.7503942 -0.4929,1.2764061 -0.50395,0.5333687 -1.36102,0.5333687 -0.85707,0 -1.36102,-0.5333687 -0.49657,-0.5260119 -0.49657,-1.3058341 z m 7.06624,-1.0630591 h 0.7798 v 0.9343166 h -0.7798 z m 1.12555,-1.3168674 q -0.34207,-0.1434665 -0.73566,-0.1434665 -0.39357,0 -0.73568,0.1434665 -0.33841,0.1434486 -0.61796,0.4230159 -0.28326,0.2832366 -0.42302,0.6216498 -0.13988,0.3384131 -0.13988,0.739359 0,0.3899112 0.13988,0.7283242 0.13987,0.3384149 0.42302,0.6216515 0.27955,0.2795585 0.61796,0.4230159 0.34211,0.1434487 0.73568,0.1434487 0.39359,0 0.73566,-0.1434487 0.33843,-0.1434485 0.618,-0.4230159 0.28323,-0.2832366 0.42302,-0.6216515 0.13987,-0.338413 0.13987,-0.7283242 0,-0.4009459 -0.13987,-0.739359 -0.13987,-0.3384132 -0.42302,-0.6216498 -0.27957,-0.2795584 -0.618,-0.4230159 z m -1.68101,-0.5112992 q 0.43773,-0.1839201 0.94535,-0.1839201 0.50764,0 0.94536,0.1839201 0.43773,0.183921 0.79822,0.5444041 0.36415,0.3641628 0.5444,0.801892 0.18024,0.4340526 0.18024,0.9490278 0,0.5039423 -0.18024,0.941673 -0.18025,0.4340509 -0.5444,0.7982139 -0.36049,0.3604829 -0.79822,0.5444036 -0.43772,0.1839206 -0.94536,0.1839206 -0.50762,0 -0.94535,-0.1839206 -0.43772,-0.1839207 -0.79821,-0.5444036 -0.36415,-0.364163 -0.5444,-0.7982139 -0.18024,-0.4377307 -0.18024,-0.941673 0,-0.5149752 0.18024,-0.9490278 0.18025,-0.4377292 0.5444,-0.801892 0.36049,-0.3604831 0.79821,-0.5444041 z"
         id="path57"
         aria-label="3⊙" /><g
         id="g69"
         transform="matrix(1.5664337,0,0,1.5664337,97.717348,53.394725)"
         style="stroke-width:0.638393"><g
           id="g59"
           transform="matrix(0.17926755,0,0,0.17926755,35.024667,-113.48606)"
           style="stroke-width:0.638393"><path
             style="fill:#000000;fill-opacity:1;stroke:none;stroke-width:0.111283;stroke-linecap:round;stroke-linejoin:round;stroke-miterlimit:4;stroke-dasharray:none;stroke-opacity:1"
             d="m 292.85794,719.25449 a 2.4356859,2.4356859 0 0 0 -2.43573,2.43573 2.4356859,2.4356859 0 0 0 2.43573,2.43573 2.4356859,2.4356859 0 0 0 2.43574,-2.43573 2.4356859,2.4356859 0 0 0 -2.43574,-2.43573 z m -3.23711,5.67716 v 0.0218 c -0.95595,0.14119 -1.68498,0.96092 -1.68498,1.95733 v 6.69812 c 0,0.99643 0.72903,1.81595 1.68498,1.95715 v 7.83622 h 6.47423 v -7.83622 c 0.95595,-0.1412 1.68498,-0.96072 1.68498,-1.95715 v -6.69812 c 0,-0.99641 -0.72903,-1.81614 -1.68498,-1.95733 v -0.0218 h -0.29394 -5.88635 z"
             id="path58"
             inkscape:connector-curvature="0" /><rect
             y="713.61182"
             x="275.14142"
             height="35.433071"
             width="35.433071"
             id="rect58"
             style="fill:none;stroke-width:0.638393" /><rect
             style="fill:none;stroke:#000000;stroke-width:1.84496;stroke-linecap:round;stroke-miterlimit:4;stroke-dasharray:none;paint-order:stroke fill markers;stop-color:#000000"
             id="rect59"
             width="30.110001"
             height="30.110001"
             x="277.80295"
             y="716.27338"
             ry="2.7954218" /></g><g
           id="g61"
           transform="matrix(0.17926755,0,0,0.17926755,68.966458,-109.49684)"
           style="stroke-width:0.638393"><rect
             y="691.35895"
             x="141.64806"
             height="35.433071"
             width="35.433071"
             id="rect60"
             style="fill:none;stroke:none;stroke-width:0.638393" /><g
             id="g60"
             transform="translate(43.974745,1.2374706)"
             style="stroke-width:0.638393"><circle
               style="fill:none;stroke:#000000;stroke-width:1.84496;stroke-linecap:round;stroke-linejoin:round;stroke-miterlimit:4;stroke-dasharray:none;stop-color:#000000"
               id="circle60"
               cx="115.38985"
               cy="707.83801"
               r="15.055" /><path
               id="path60"
               style="fill:#000000;stroke:none;stroke-width:0.638393px;stroke-linecap:butt;stroke-linejoin:miter;stroke-opacity:1"
               d="m 114.52692,709.47378 -3.30564,10.73251 11.06638,-14.7568 -6.03647,0.75275 3.30559,-10.7325 -11.06475,14.75787 z"
               sodipodi:nodetypes="ccccccc" /></g></g><g
           id="g68"
           transform="matrix(0.17926755,0,0,0.17926755,36.909267,-96.500055)"
           style="stroke-width:0.638393"><rect
             y="618.85956"
             x="376.31381"
             height="35.433071"
             width="35.433071"
             id="rect63"
             style="fill:none;stroke-width:0.638393" /><g
             id="g67"
             transform="translate(-6.8306923e-5,-111.47885)"
             style="stroke-width:0.638393"><rect
               style="fill:none;stroke:#000000;stroke-width:1.84496;stroke-linecap:round;stroke-miterlimit:4;stroke-dasharray:none;paint-order:stroke fill markers;stop-color:#000000"
               id="rect64"
               width="30.110001"
               height="30.110001"
               x="378.9754"
               y="732.99994"
               ry="2.7954218" /><g
               id="g66"
               style="stroke-width:0.638393"><path
                 style="fill:none;stroke:#000000;stroke-width:1.84496;stroke-linecap:butt;stroke-linejoin:miter;stroke-miterlimit:4;stroke-dasharray:1.84496, 1.84496;stroke-dashoffset:0;stroke-opacity:1"
                 d="m 402.52308,739.56227 -16.8875,16.8875"
                 id="path64"
                 sodipodi:nodetypes="cc" /><path
                 id="path65"
                 style="color:#000000;fill:#000000;stroke-width:0.638393;-inkscape-stroke:none"
                 d="m 394.87896,737.83725 v 2.89062 h 6.47852 v 6.47852 h 2.89062 v -6.47852 -2.89062 h -2.89062 z" /><path
                 id="path66"
                 style="color:#000000;fill:#000000;stroke-width:0.638393;-inkscape-stroke:none"
                 d="m 393.18185,758.27264 v -2.89062 h -6.47852 v -6.47852 h -2.89062 v 6.47852 2.89062 h 2.89062 z" /></g></g></g></g><text
         xml:space="preserve"
         style="font-size:4.23333px;font-family:'Nova Round';-inkscape-font-specification:'Nova Round';text-align:center;text-anchor:middle;fill:#000000;stroke:none;stroke-width:4.25299;stroke-linecap:round;stroke-linejoin:round"
         x="233.34053"
         y="15.047341"
         id="text117"><tspan
           sodipodi:role="line"
           id="tspan117"
           style="font-size:4.23333px;fill:#000000;stroke-width:4.253"
           x="233.34053"
           y="15.047341">FK -4</tspan></text><text
         xml:space="preserve"
         transform="matrix(0.26458333,0,0,0.26458333,220.62793,10.253781)"
         id="text119"
         style="font-style:normal;font-weight:normal;font-size:40px;line-height:11.6667px;font-family:sans-serif;letter-spacing:0px;word-spacing:0px;white-space:pre;shape-inside:url(#rect119);shape-padding:0.452437;display:inline;fill:#000000;fill-opacity:1;stroke:none"><tspan
           x="1.4921875"
           y="45.105311"
           id="tspan2"><tspan
             style="font-size:18.6667px;font-family:Arial;-inkscape-font-specification:'Arial, Normal'"
             id="tspan1">&lt;TODO&gt;</tspan></tspan></text></g><text
       xml:space="preserve"
       transform="scale(0.26458333)"
       id="text3059"
       style="font-style:normal;font-weight:normal;font-size:40px;line-height:25px;font-family:sans-serif;letter-spacing:0px;word-spacing:0px;white-space:pre;shape-inside:url(#rect3061);display:inline;fill:#000000;fill-opacity:1;stroke:none" /></g></svg>
