<?xml version="1.0" encoding="UTF-8" standalone="no"?>
<svg
   xmlns:dc="http://purl.org/dc/elements/1.1/"
   xmlns:cc="http://creativecommons.org/ns#"
   xmlns:rdf="http://www.w3.org/1999/02/22-rdf-syntax-ns#"
   xmlns:svg="http://www.w3.org/2000/svg"
   xmlns="http://www.w3.org/2000/svg"
   xmlns:sodipodi="http://sodipodi.sourceforge.net/DTD/sodipodi-0.dtd"
   xmlns:inkscape="http://www.inkscape.org/namespaces/inkscape"
   width="94.041153mm"
   height="70.866127mm"
   viewBox="0 0 333.21668 251.10045"
   id="svg2"
   version="1.1"
   inkscape:version="1.0.1 (3bc2e813f5, 2020-09-07)"
   sodipodi:docname="sichtfeld.svg"
   inkscape:export-filename="C:\Users\Charon\Dropbox\Projekt Tesserakt\Regelbuch\Abbildungen\Wahrnehmungsbereich.png"
   inkscape:export-xdpi="159.92"
   inkscape:export-ydpi="159.92">
  <defs
     id="defs4">
    <marker
       inkscape:stockid="Arrow2Lend"
       orient="auto"
       refY="0"
       refX="0"
       id="marker5395"
       style="overflow:visible"
       inkscape:isstock="true">
      <path
         id="path5397"
         style="fill:#000000;fill-opacity:1;fill-rule:evenodd;stroke:#000000;stroke-width:0.625;stroke-linejoin:round;stroke-opacity:1"
         d="M 8.7185878,4.0337352 -2.2072895,0.01601326 8.7185884,-4.0017078 c -1.7454984,2.3720609 -1.7354408,5.6174519 -6e-7,8.035443 z"
         transform="matrix(-1.1,0,0,-1.1,-1.1,0)"
         inkscape:connector-curvature="0" />
    </marker>
    <marker
       inkscape:isstock="true"
       style="overflow:visible"
       id="marker5214"
       refX="0"
       refY="0"
       orient="auto"
       inkscape:stockid="Arrow2Lstart">
      <path
         transform="matrix(1.1,0,0,1.1,1.1,0)"
         d="M 8.7185878,4.0337352 -2.2072895,0.01601326 8.7185884,-4.0017078 c -1.7454984,2.3720609 -1.7354408,5.6174519 -6e-7,8.035443 z"
         style="fill:#000000;fill-opacity:1;fill-rule:evenodd;stroke:#000000;stroke-width:0.625;stroke-linejoin:round;stroke-opacity:1"
         id="path5216"
         inkscape:connector-curvature="0" />
    </marker>
    <marker
       inkscape:isstock="true"
       style="overflow:visible"
       id="marker5063"
       refX="0"
       refY="0"
       orient="auto"
       inkscape:stockid="Arrow2Lstart">
      <path
         transform="matrix(1.1,0,0,1.1,1.1,0)"
         d="M 8.7185878,4.0337352 -2.2072895,0.01601326 8.7185884,-4.0017078 c -1.7454984,2.3720609 -1.7354408,5.6174519 -6e-7,8.035443 z"
         style="fill:#000000;fill-opacity:1;fill-rule:evenodd;stroke:#000000;stroke-width:0.625;stroke-linejoin:round;stroke-opacity:1"
         id="path5065"
         inkscape:connector-curvature="0" />
    </marker>
    <marker
       inkscape:isstock="true"
       style="overflow:visible"
       id="marker4918"
       refX="0"
       refY="0"
       orient="auto"
       inkscape:stockid="Arrow2Lstart">
      <path
         transform="matrix(1.1,0,0,1.1,1.1,0)"
         d="M 8.7185878,4.0337352 -2.2072895,0.01601326 8.7185884,-4.0017078 c -1.7454984,2.3720609 -1.7354408,5.6174519 -6e-7,8.035443 z"
         style="fill:#000000;fill-opacity:1;fill-rule:evenodd;stroke:#000000;stroke-width:0.625;stroke-linejoin:round;stroke-opacity:1"
         id="path4920"
         inkscape:connector-curvature="0" />
    </marker>
    <marker
       inkscape:isstock="true"
       style="overflow:visible"
       id="marker4761"
       refX="0"
       refY="0"
       orient="auto"
       inkscape:stockid="Arrow2Lend"
       inkscape:collect="always">
      <path
         transform="matrix(-1.1,0,0,-1.1,-1.1,0)"
         d="M 8.7185878,4.0337352 -2.2072895,0.01601326 8.7185884,-4.0017078 c -1.7454984,2.3720609 -1.7354408,5.6174519 -6e-7,8.035443 z"
         style="fill:#000000;fill-opacity:1;fill-rule:evenodd;stroke:#000000;stroke-width:0.625;stroke-linejoin:round;stroke-opacity:1"
         id="path4763"
         inkscape:connector-curvature="0" />
    </marker>
    <marker
       inkscape:isstock="true"
       style="overflow:visible"
       id="marker4628"
       refX="0"
       refY="0"
       orient="auto"
       inkscape:stockid="Arrow2Lend">
      <path
         transform="matrix(-1.1,0,0,-1.1,-1.1,0)"
         d="M 8.7185878,4.0337352 -2.2072895,0.01601326 8.7185884,-4.0017078 c -1.7454984,2.3720609 -1.7354408,5.6174519 -6e-7,8.035443 z"
         style="fill:#000000;fill-opacity:1;fill-rule:evenodd;stroke:#000000;stroke-width:0.625;stroke-linejoin:round;stroke-opacity:1"
         id="path4630"
         inkscape:connector-curvature="0" />
    </marker>
    <marker
       inkscape:isstock="true"
       style="overflow:visible"
       id="marker4540"
       refX="0"
       refY="0"
       orient="auto"
       inkscape:stockid="Arrow2Lend">
      <path
         transform="matrix(-1.1,0,0,-1.1,-1.1,0)"
         d="M 8.7185878,4.0337352 -2.2072895,0.01601326 8.7185884,-4.0017078 c -1.7454984,2.3720609 -1.7354408,5.6174519 -6e-7,8.035443 z"
         style="fill:#000000;fill-opacity:1;fill-rule:evenodd;stroke:#000000;stroke-width:0.625;stroke-linejoin:round;stroke-opacity:1"
         id="path4542"
         inkscape:connector-curvature="0" />
    </marker>
    <marker
       inkscape:stockid="Arrow2Lstart"
       orient="auto"
       refY="0"
       refX="0"
       id="marker7413"
       style="overflow:visible"
       inkscape:isstock="true"
       inkscape:collect="always">
      <path
         id="path7415"
         style="fill:#000000;fill-opacity:1;fill-rule:evenodd;stroke:#000000;stroke-width:0.625;stroke-linejoin:round;stroke-opacity:1"
         d="M 8.7185878,4.0337352 -2.2072895,0.01601326 8.7185884,-4.0017078 c -1.7454984,2.3720609 -1.7354408,5.6174519 -6e-7,8.035443 z"
         transform="matrix(1.1,0,0,1.1,1.1,0)"
         inkscape:connector-curvature="0" />
    </marker>
    <marker
       inkscape:stockid="Arrow2Lend"
       orient="auto"
       refY="0"
       refX="0"
       id="marker6660"
       style="overflow:visible"
       inkscape:isstock="true"
       inkscape:collect="always">
      <path
         id="path6662"
         style="fill:#000000;fill-opacity:1;fill-rule:evenodd;stroke:#000000;stroke-width:0.625;stroke-linejoin:round;stroke-opacity:1"
         d="M 8.7185878,4.0337352 -2.2072895,0.01601326 8.7185884,-4.0017078 c -1.7454984,2.3720609 -1.7354408,5.6174519 -6e-7,8.035443 z"
         transform="matrix(-1.1,0,0,-1.1,-1.1,0)"
         inkscape:connector-curvature="0" />
    </marker>
  </defs>
  <sodipodi:namedview
     id="base"
     pagecolor="#ffffff"
     bordercolor="#666666"
     borderopacity="1.0"
     inkscape:pageopacity="0.0"
     inkscape:pageshadow="2"
     inkscape:zoom="1.4"
     inkscape:cx="-19.686361"
     inkscape:cy="85.287671"
     inkscape:document-units="mm"
     inkscape:current-layer="layer1"
     showgrid="false"
     inkscape:window-width="1920"
     inkscape:window-height="1057"
     inkscape:window-x="1912"
     inkscape:window-y="-8"
     inkscape:window-maximized="1"
     showguides="true"
     inkscape:guide-bbox="true"
     fit-margin-top="0"
     fit-margin-left="0"
     fit-margin-right="0"
     fit-margin-bottom="0"
     inkscape:document-rotation="0">
    <sodipodi:guide
       position="554.94673,238.2848"
       orientation="0,1"
       id="guide7867" />
    <sodipodi:guide
       position="597.80391,178.2848"
       orientation="0,1"
       id="guide7869" />
    <sodipodi:guide
       position="567.80387,3.2847928"
       orientation="0,1"
       id="guide7871" />
  </sodipodi:namedview>
  <metadata
     id="metadata7">
    <rdf:RDF>
      <cc:Work
         rdf:about="">
        <dc:format>image/svg+xml</dc:format>
        <dc:type
           rdf:resource="http://purl.org/dc/dcmitype/StillImage" />
        <dc:title />
      </cc:Work>
    </rdf:RDF>
  </metadata>
  <g
     inkscape:label="Ebene 1"
     inkscape:groupmode="layer"
     id="layer1"
     transform="translate(-405.05326,-585.26082)">
    <path
       id="path7849"
       d="m 515.52425,832.97193 c 0.002,-0.75945 -0.063,-77.94037 -0.063,-77.94037"
       style="fill:none;fill-opacity:1;stroke:#808080;stroke-width:0.708661;stroke-miterlimit:4;stroke-dasharray:none;stroke-dashoffset:0;stroke-opacity:1"
       inkscape:connector-curvature="0"
       sodipodi:nodetypes="cc" />
    <path
       sodipodi:nodetypes="ccc"
       style="fill:none;fill-opacity:1;stroke:#808080;stroke-width:0.708661;stroke-miterlimit:4;stroke-dasharray:none;stroke-dashoffset:0;stroke-opacity:1"
       d="M 579.47589,598.3484 515.46126,752.89337 451.44664,598.3484"
       id="path6118"
       inkscape:connector-curvature="0" />
    <path
       sodipodi:nodetypes="ccc"
       inkscape:connector-curvature="0"
       style="fill:none;fill-opacity:1;stroke:#808080;stroke-width:0.708661;stroke-miterlimit:4;stroke-dasharray:none;stroke-dashoffset:0;stroke-opacity:1"
       d="m 612.61182,657.51874 -97.15056,97.15057 -97.15057,-97.15056"
       id="path6116" />
    <path
       sodipodi:nodetypes="ccc"
       inkscape:connector-curvature="0"
       style="fill:none;fill-opacity:1;stroke:#808080;stroke-width:0.708661;stroke-miterlimit:4;stroke-dasharray:none;stroke-dashoffset:0;stroke-opacity:1"
       d="M 622.50624,755.03156 H 515.46126 l -107.04498,-10e-6"
       id="path6120" />
    <circle
       r="17.67767"
       cy="754.66931"
       cx="515.46124"
       id="circle4248"
       style="fill:#000000;fill-opacity:1;stroke:none;stroke-width:2;stroke-miterlimit:4;stroke-dasharray:8, 2;stroke-dashoffset:0;stroke-opacity:1" />
    <path
       inkscape:connector-curvature="0"
       id="path4250"
       d="M 515.47797,732.951 V 713.77667"
       style="fill:none;fill-rule:evenodd;stroke:#000000;stroke-width:0.949981;stroke-linecap:butt;stroke-linejoin:miter;stroke-miterlimit:4;stroke-dasharray:none;stroke-opacity:1;marker-end:url(#marker5395)" />
    <path
       sodipodi:nodetypes="cc"
       inkscape:connector-curvature="0"
       id="path4252"
       d="m 418.31069,657.51875 c 53.65477,-53.65478 140.64635,-53.65478 194.30113,-10e-6"
       style="fill:none;fill-opacity:1;stroke:#000000;stroke-width:0.708661;stroke-miterlimit:4;stroke-dasharray:none;stroke-dashoffset:0;stroke-opacity:1;marker-start:url(#marker4918);marker-end:url(#marker4540)" />
    <path
       sodipodi:nodetypes="cc"
       inkscape:connector-curvature="0"
       id="path4254"
       d="m 451.44664,598.3484 c 40.98788,-16.97773 87.04137,-16.97773 128.02925,0"
       style="fill:none;fill-opacity:1;stroke:#000000;stroke-width:0.708661;stroke-miterlimit:4;stroke-dasharray:none;stroke-dashoffset:0;stroke-opacity:1;marker-start:url(#marker5063);marker-end:url(#marker4628)" />
    <path
       sodipodi:nodetypes="csc"
       inkscape:connector-curvature="0"
       id="path4256"
       d="m 408.41628,755.03155 c 0,-59.11931 47.92567,-107.04498 107.04498,-107.04498 59.11931,0 107.04499,47.92568 107.04498,107.04499"
       style="fill:none;fill-opacity:1;stroke:#000000;stroke-width:0.708661;stroke-miterlimit:4;stroke-dasharray:none;stroke-dashoffset:0;stroke-opacity:1;marker-start:url(#marker7413);marker-end:url(#marker6660)" />
    <path
       sodipodi:nodetypes="csssc"
       inkscape:connector-curvature="0"
       id="circle4258"
       d="m 515.46126,832.97329 c -43.24609,0 -78.30398,-35.05789 -78.30398,-78.30398 0,-43.24609 35.05789,-78.30398 78.30398,-78.30398 43.24609,0 78.30398,35.05789 78.30398,78.30398 0,43.24609 -35.05789,78.30398 -78.30398,78.30398"
       style="fill:none;fill-opacity:1;stroke:#000000;stroke-width:0.708661;stroke-miterlimit:4;stroke-dasharray:none;stroke-dashoffset:0;stroke-opacity:1;marker-start:url(#marker5214);marker-end:url(#marker4761)" />
    <path
       d="m 718.05511,593.41101 v -4.73144 l -3.18603,4.73144 z m 0,4.24805 v -2.91504 h -5.36865 v -0.0732 l 0.59326,-1.25977 4.77539,-6.73828 1.39161,-0.65918 h 0.0732 v 7.39746 h 1.09863 v 0.0732 l -0.59326,1.25977 h -0.50537 v 2.25586 l -1.3916,0.65918 z"
       style="font-style:normal;font-variant:normal;font-weight:normal;font-stretch:normal;font-size:15px;line-height:1.25;font-family:'Nova Round';-inkscape-font-specification:'Nova Round, Normal';font-variant-ligatures:normal;font-variant-caps:normal;font-variant-numeric:normal;font-variant-east-asian:normal;text-align:start;letter-spacing:0px;word-spacing:0px;writing-mode:lr-tb;text-anchor:start;fill:#000000;fill-opacity:1;stroke:none;stroke-width:1px;stroke-linecap:butt;stroke-linejoin:miter;stroke-opacity:1"
       id="path1668" />
    <path
       d="m 722.53021,593.85046 q 0,0 1.3916,-0.65918 h 0.0732 v 0.65918 q 0,0.9668 0.52734,1.58936 0.63721,0.75439 1.70654,0.75439 1.04737,0 1.70655,-0.75439 0.52002,-0.59326 0.52002,-1.51611 0,-0.80567 -0.4834,-1.36963 -0.60059,-0.68848 -1.75782,-0.68848 -1.00341,0 -1.62597,0.32227 l -1.53076,-0.73975 1.22314,-5.1416 h 5.07568 v 0.0732 l -0.59326,1.25977 h -3.36914 l -0.89355,3.2666 q 0.81299,-0.39551 1.71386,-0.39551 1.6626,0 2.66602,0.87158 1.04004,0.90088 1.04004,2.52686 0,1.49414 -0.98145,2.5415 -1.00341,1.06201 -2.70996,1.06201 -1.70654,0 -2.70996,-1.06201 -0.98877,-1.04736 -0.98877,-2.6001 z"
       style="font-style:normal;font-variant:normal;font-weight:normal;font-stretch:normal;font-size:15px;line-height:1.25;font-family:'Nova Round';-inkscape-font-specification:'Nova Round, Normal';font-variant-ligatures:normal;font-variant-caps:normal;font-variant-numeric:normal;font-variant-east-asian:normal;text-align:start;letter-spacing:0px;word-spacing:0px;writing-mode:lr-tb;text-anchor:start;fill:#000000;fill-opacity:1;stroke:none;stroke-width:1px;stroke-linecap:butt;stroke-linejoin:miter;stroke-opacity:1"
       id="path1670" />
    <path
       d="m 732.19086,589.08972 q 0,-1.20849 0.9082,-2.10205 0.84961,-0.82764 2.13135,-0.82764 1.26709,0 2.13135,0.82764 0.9082,0.87891 0.9082,2.10205 0,1.2085 -0.9082,2.10205 -0.84961,0.82764 -2.13135,0.82764 -1.26709,0 -2.13135,-0.82764 -0.9082,-0.8789 -0.9082,-2.10205 z m 4.15283,1.23779 q 0.46142,-0.3955 0.46142,-1.23779 0,-0.84228 -0.46142,-1.23047 -0.4541,-0.3955 -1.11328,-0.3955 -0.65918,0 -1.12061,0.3955 -0.4541,0.38819 -0.4541,1.23047 0,0.84229 0.4541,1.23779 0.46143,0.38819 1.12061,0.38819 0.65918,0 1.11328,-0.38819 z"
       style="font-style:normal;font-variant:normal;font-weight:normal;font-stretch:normal;font-size:15px;line-height:1.25;font-family:'Nova Round';-inkscape-font-specification:'Nova Round, Normal';font-variant-ligatures:normal;font-variant-caps:normal;font-variant-numeric:normal;font-variant-east-asian:normal;text-align:start;letter-spacing:0px;word-spacing:0px;writing-mode:lr-tb;text-anchor:start;fill:#000000;fill-opacity:1;stroke:none;stroke-width:1px;stroke-linecap:butt;stroke-linejoin:miter;stroke-opacity:1"
       id="path1672" />
    <path
       d="m 711.94672,654.495 1.34765,-0.64454 h 0.0732 q 0,0.97412 0.52735,1.58936 0.65918,0.75439 1.69922,0.75439 1.06201,0 1.71386,-0.75439 0.52735,-0.60791 0.52735,-1.58936 v -1.3623 q -0.92285,0.86426 -2.23389,0.86426 -1.70654,0 -2.70996,-1.06201 -0.98877,-1.04737 -0.98877,-2.52686 0,-1.49414 0.98877,-2.5415 1.00342,-1.06202 2.70996,-1.06202 1.70654,0 2.70996,1.06202 0.98877,1.04736 0.98877,2.52685 v 4.10156 q 0,1.55274 -0.98877,2.6001 -1.00342,1.06201 -2.70996,1.06201 -1.76514,0 -2.70996,-0.98144 -0.94482,-0.98877 -0.94482,-2.03613 z m 3.65478,-2.46094 q 1.04736,0 1.70654,-0.7544 0.52735,-0.60791 0.52735,-1.53076 0,-0.90088 -0.52735,-1.51611 -0.64453,-0.7544 -1.70654,-0.7544 -1.03271,0 -1.70654,0.7544 -0.52735,0.59326 -0.52735,1.51611 0,0.91553 0.52735,1.53076 0.64453,0.7544 1.70654,0.7544 z"
       style="font-style:normal;font-variant:normal;font-weight:normal;font-stretch:normal;font-size:15px;line-height:1.25;font-family:'Nova Round';-inkscape-font-specification:'Nova Round, Normal';font-variant-ligatures:normal;font-variant-caps:normal;font-variant-numeric:normal;font-variant-east-asian:normal;text-align:start;letter-spacing:0px;word-spacing:0px;writing-mode:lr-tb;text-anchor:start;fill:#000000;fill-opacity:1;stroke:none;stroke-width:1px;stroke-linecap:butt;stroke-linejoin:miter;stroke-opacity:1"
       id="path1675" />
    <path
       d="m 723.69476,653.85046 q 0,0.98145 0.52735,1.58936 0.65185,0.75439 1.70654,0.75439 1.05469,0 1.70654,-0.75439 0.52735,-0.60791 0.52735,-1.58936 v -4.02832 q 0,-0.98144 -0.52735,-1.58935 -0.65185,-0.7544 -1.70654,-0.7544 -1.05469,0 -1.70654,0.7544 -0.52735,0.60791 -0.52735,1.58935 z m -1.46484,0 v -4.02832 q 0,-1.58935 0.98877,-2.60009 1.04004,-1.06202 2.70996,-1.06202 1.66992,0 2.70996,1.06202 0.98877,1.00341 0.98877,2.60009 v 4.02832 q 0,1.58936 -0.98877,2.6001 -1.04004,1.06201 -2.70996,1.06201 -1.66992,0 -2.70996,-1.06201 -0.98877,-1.01074 -0.98877,-2.6001 z"
       style="font-style:normal;font-variant:normal;font-weight:normal;font-stretch:normal;font-size:15px;line-height:1.25;font-family:'Nova Round';-inkscape-font-specification:'Nova Round, Normal';font-variant-ligatures:normal;font-variant-caps:normal;font-variant-numeric:normal;font-variant-east-asian:normal;text-align:start;letter-spacing:0px;word-spacing:0px;writing-mode:lr-tb;text-anchor:start;fill:#000000;fill-opacity:1;stroke:none;stroke-width:1px;stroke-linecap:butt;stroke-linejoin:miter;stroke-opacity:1"
       id="path1677" />
    <path
       d="m 732.19086,649.08972 q 0,-1.20849 0.9082,-2.10205 0.84961,-0.82764 2.13135,-0.82764 1.26709,0 2.13135,0.82764 0.9082,0.87891 0.9082,2.10205 0,1.2085 -0.9082,2.10205 -0.84961,0.82764 -2.13135,0.82764 -1.26709,0 -2.13135,-0.82764 -0.9082,-0.8789 -0.9082,-2.10205 z m 4.15283,1.23779 q 0.46142,-0.3955 0.46142,-1.23779 0,-0.84228 -0.46142,-1.23047 -0.4541,-0.3955 -1.11328,-0.3955 -0.65918,0 -1.12061,0.3955 -0.4541,0.38819 -0.4541,1.23047 0,0.84229 0.4541,1.23779 0.46143,0.38819 1.12061,0.38819 0.65918,0 1.11328,-0.38819 z"
       style="font-style:normal;font-variant:normal;font-weight:normal;font-stretch:normal;font-size:15px;line-height:1.25;font-family:'Nova Round';-inkscape-font-specification:'Nova Round, Normal';font-variant-ligatures:normal;font-variant-caps:normal;font-variant-numeric:normal;font-variant-east-asian:normal;text-align:start;letter-spacing:0px;word-spacing:0px;writing-mode:lr-tb;text-anchor:start;fill:#000000;fill-opacity:1;stroke:none;stroke-width:1px;stroke-linecap:butt;stroke-linejoin:miter;stroke-opacity:1"
       id="path1679" />
    <path
       d="m 707.74261,755.22595 v -9.60937 l -1.7871,0.98144 v -1.50146 l 3.17871,-1.51612 h 0.0732 v 10.98633 l -1.3916,0.65918 z"
       style="font-style:normal;font-variant:normal;font-weight:normal;font-stretch:normal;font-size:15px;line-height:1.25;font-family:'Nova Round';-inkscape-font-specification:'Nova Round, Normal';font-variant-ligatures:normal;font-variant-caps:normal;font-variant-numeric:normal;font-variant-east-asian:normal;text-align:start;letter-spacing:0px;word-spacing:0px;writing-mode:lr-tb;text-anchor:start;fill:#000000;fill-opacity:1;stroke:none;stroke-width:1px;stroke-linecap:butt;stroke-linejoin:miter;stroke-opacity:1"
       id="path1682" />
    <path
       d="m 712.21039,751.47595 q 0,-1.43554 1.11328,-2.47558 0.23437,-0.21973 0.55664,-0.38819 -1.01807,-0.82031 -1.01807,-1.97021 0,-1.46485 0.90821,-2.21192 0.86425,-0.70312 2.13134,-0.70312 1.26709,0 2.13135,0.70312 0.90821,0.73975 0.90821,2.21192 0,1.1499 -1.01807,1.97021 0.32226,0.16846 0.55664,0.38819 1.11328,1.04004 1.11328,2.47558 0,1.49414 -0.98144,2.54151 -1.00342,1.06201 -2.70997,1.06201 -1.71386,0 -2.70996,-1.06201 -0.98144,-1.04737 -0.98144,-2.54151 z m 1.98486,1.53076 q 0.65918,0.7544 1.70654,0.7544 1.04737,0 1.70655,-0.7544 0.52002,-0.59326 0.52002,-1.51611 0,-0.87158 -0.42481,-1.36963 -0.58594,-0.68847 -1.80176,-0.68847 -1.21582,0 -1.80175,0.68847 -0.42481,0.49805 -0.42481,1.36963 0,0.92285 0.52002,1.51611 z m 2.84912,-7.67578 q -0.43213,-0.44677 -1.14258,-0.44677 -0.71044,0 -1.14257,0.44677 -0.43213,0.44678 -0.43213,1.20117 0,0.7251 0.32959,1.09131 0.43945,0.49073 1.24511,0.49073 0.80567,0 1.24512,-0.49073 0.32959,-0.36621 0.32959,-1.09131 0,-0.75439 -0.43213,-1.20117 z"
       style="font-style:normal;font-variant:normal;font-weight:normal;font-stretch:normal;font-size:15px;line-height:1.25;font-family:'Nova Round';-inkscape-font-specification:'Nova Round, Normal';font-variant-ligatures:normal;font-variant-caps:normal;font-variant-numeric:normal;font-variant-east-asian:normal;text-align:start;letter-spacing:0px;word-spacing:0px;writing-mode:lr-tb;text-anchor:start;fill:#000000;fill-opacity:1;stroke:none;stroke-width:1px;stroke-linecap:butt;stroke-linejoin:miter;stroke-opacity:1"
       id="path1684" />
    <path
       d="m 723.69476,751.41736 q 0,0.98144 0.52735,1.58935 0.65185,0.7544 1.70654,0.7544 1.05469,0 1.70654,-0.7544 0.52735,-0.60791 0.52735,-1.58935 v -4.02832 q 0,-0.98145 -0.52735,-1.58936 -0.65185,-0.75439 -1.70654,-0.75439 -1.05469,0 -1.70654,0.75439 -0.52735,0.60791 -0.52735,1.58936 z m -1.46484,0 v -4.02832 q 0,-1.58936 0.98877,-2.6001 1.04004,-1.06201 2.70996,-1.06201 1.66992,0 2.70996,1.06201 0.98877,1.00342 0.98877,2.6001 v 4.02832 q 0,1.58935 -0.98877,2.6001 -1.04004,1.06201 -2.70996,1.06201 -1.66992,0 -2.70996,-1.06201 -0.98877,-1.01075 -0.98877,-2.6001 z"
       style="font-style:normal;font-variant:normal;font-weight:normal;font-stretch:normal;font-size:15px;line-height:1.25;font-family:'Nova Round';-inkscape-font-specification:'Nova Round, Normal';font-variant-ligatures:normal;font-variant-caps:normal;font-variant-numeric:normal;font-variant-east-asian:normal;text-align:start;letter-spacing:0px;word-spacing:0px;writing-mode:lr-tb;text-anchor:start;fill:#000000;fill-opacity:1;stroke:none;stroke-width:1px;stroke-linecap:butt;stroke-linejoin:miter;stroke-opacity:1"
       id="path1686" />
    <path
       d="m 732.19086,746.65662 q 0,-1.2085 0.9082,-2.10205 0.84961,-0.82764 2.13135,-0.82764 1.26709,0 2.13135,0.82764 0.9082,0.8789 0.9082,2.10205 0,1.20849 -0.9082,2.10205 -0.84961,0.82763 -2.13135,0.82763 -1.26709,0 -2.13135,-0.82763 -0.9082,-0.87891 -0.9082,-2.10205 z m 4.15283,1.23779 q 0.46142,-0.39551 0.46142,-1.23779 0,-0.84229 -0.46142,-1.23047 -0.4541,-0.39551 -1.11328,-0.39551 -0.65918,0 -1.12061,0.39551 -0.4541,0.38818 -0.4541,1.23047 0,0.84228 0.4541,1.23779 0.46143,0.38818 1.12061,0.38818 0.65918,0 1.11328,-0.38818 z"
       style="font-style:normal;font-variant:normal;font-weight:normal;font-stretch:normal;font-size:15px;line-height:1.25;font-family:'Nova Round';-inkscape-font-specification:'Nova Round, Normal';font-variant-ligatures:normal;font-variant-caps:normal;font-variant-numeric:normal;font-variant-east-asian:normal;text-align:start;letter-spacing:0px;word-spacing:0px;writing-mode:lr-tb;text-anchor:start;fill:#000000;fill-opacity:1;stroke:none;stroke-width:1px;stroke-linecap:butt;stroke-linejoin:miter;stroke-opacity:1"
       id="path1688" />
    <path
       d="m 701.87592,829.20764 1.3916,-0.65918 h 0.0732 v 0.65918 q 0,0.9668 0.52734,1.58936 0.63721,0.75439 1.70655,0.75439 1.04736,0 1.70654,-0.75439 0.52002,-0.59326 0.52002,-1.51612 0,-0.86425 -0.43213,-1.36963 -0.60059,-0.68847 -1.80908,-0.68847 -1.00342,0 -1.62598,0.32226 l 2.42432,-4.54834 h -3.83789 v -0.0732 l 0.59326,-1.25976 h 5.51514 l -2.51221,4.39453 q 1.28906,0.007 2.15332,0.76904 0.99609,0.87891 0.99609,2.43897 0,1.49414 -0.98144,2.5415 -1.00342,1.06201 -2.70996,1.06201 -1.70655,0 -2.70996,-1.06201 -0.98877,-1.04736 -0.98877,-2.6001 z"
       style="font-style:normal;font-variant:normal;font-weight:normal;font-stretch:normal;font-size:15px;line-height:1.25;font-family:'Nova Round';-inkscape-font-specification:'Nova Round, Normal';font-variant-ligatures:normal;font-variant-caps:normal;font-variant-numeric:normal;font-variant-east-asian:normal;text-align:start;letter-spacing:0px;word-spacing:0px;writing-mode:lr-tb;text-anchor:start;fill:#000000;fill-opacity:1;stroke:none;stroke-width:1px;stroke-linecap:butt;stroke-linejoin:miter;stroke-opacity:1"
       id="path1691" />
    <path
       d="m 719.1098,824.53479 -1.34765,0.64453 h -0.0733 q 0,-0.97412 -0.52734,-1.58935 -0.65918,-0.7544 -1.55273,-0.7544 -1.06202,0 -1.71387,0.7544 -0.52735,0.60791 -0.52735,1.58935 v 1.36231 q 0.95215,-0.86426 2.23389,-0.86426 1.70654,0 2.70996,1.06201 0.98877,1.04736 0.98877,2.52686 0,1.49414 -0.98877,2.5415 -1.00342,1.06201 -2.70996,1.06201 -1.70654,0 -2.70996,-1.06201 -0.98877,-1.04736 -0.98877,-2.52686 v -4.10156 q 0,-1.55273 0.98877,-2.6001 1.00342,-1.06201 2.70996,-1.06201 1.61865,0 2.56348,0.98877 0.94482,0.98145 0.94482,2.02881 z m -3.5083,2.46094 q -1.04736,0 -1.70654,0.75439 -0.52735,0.60791 -0.52735,1.53076 0,0.90088 0.52735,1.51612 0.64453,0.75439 1.70654,0.75439 1.03272,0 1.70654,-0.75439 0.52735,-0.59326 0.52735,-1.51612 0,-0.91552 -0.52735,-1.53076 -0.64453,-0.75439 -1.70654,-0.75439 z"
       style="font-style:normal;font-variant:normal;font-weight:normal;font-stretch:normal;font-size:15px;line-height:1.25;font-family:'Nova Round';-inkscape-font-specification:'Nova Round, Normal';font-variant-ligatures:normal;font-variant-caps:normal;font-variant-numeric:normal;font-variant-east-asian:normal;text-align:start;letter-spacing:0px;word-spacing:0px;writing-mode:lr-tb;text-anchor:start;fill:#000000;fill-opacity:1;stroke:none;stroke-width:1px;stroke-linecap:butt;stroke-linejoin:miter;stroke-opacity:1"
       id="path1693" />
    <path
       d="m 723.69476,829.20764 q 0,0.98145 0.52735,1.58936 0.65185,0.75439 1.70654,0.75439 1.05469,0 1.70654,-0.75439 0.52735,-0.60791 0.52735,-1.58936 v -4.02832 q 0,-0.98144 -0.52735,-1.58935 -0.65185,-0.7544 -1.70654,-0.7544 -1.05469,0 -1.70654,0.7544 -0.52735,0.60791 -0.52735,1.58935 z m -1.46484,0 v -4.02832 q 0,-1.58935 0.98877,-2.6001 1.04004,-1.06201 2.70996,-1.06201 1.66992,0 2.70996,1.06201 0.98877,1.00342 0.98877,2.6001 v 4.02832 q 0,1.58936 -0.98877,2.6001 -1.04004,1.06201 -2.70996,1.06201 -1.66992,0 -2.70996,-1.06201 -0.98877,-1.01074 -0.98877,-2.6001 z"
       style="font-style:normal;font-variant:normal;font-weight:normal;font-stretch:normal;font-size:15px;line-height:1.25;font-family:'Nova Round';-inkscape-font-specification:'Nova Round, Normal';font-variant-ligatures:normal;font-variant-caps:normal;font-variant-numeric:normal;font-variant-east-asian:normal;text-align:start;letter-spacing:0px;word-spacing:0px;writing-mode:lr-tb;text-anchor:start;fill:#000000;fill-opacity:1;stroke:none;stroke-width:1px;stroke-linecap:butt;stroke-linejoin:miter;stroke-opacity:1"
       id="path1695" />
    <path
       d="m 732.19086,824.4469 q 0,-1.2085 0.9082,-2.10205 0.84961,-0.82764 2.13135,-0.82764 1.26709,0 2.13135,0.82764 0.9082,0.8789 0.9082,2.10205 0,1.2085 -0.9082,2.10205 -0.84961,0.82764 -2.13135,0.82764 -1.26709,0 -2.13135,-0.82764 -0.9082,-0.87891 -0.9082,-2.10205 z m 4.15283,1.23779 q 0.46142,-0.39551 0.46142,-1.23779 0,-0.84229 -0.46142,-1.23047 -0.4541,-0.39551 -1.11328,-0.39551 -0.65918,0 -1.12061,0.39551 -0.4541,0.38818 -0.4541,1.23047 0,0.84228 0.4541,1.23779 0.46143,0.38819 1.12061,0.38819 0.65918,0 1.11328,-0.38819 z"
       style="font-style:normal;font-variant:normal;font-weight:normal;font-stretch:normal;font-size:15px;line-height:1.25;font-family:'Nova Round';-inkscape-font-specification:'Nova Round, Normal';font-variant-ligatures:normal;font-variant-caps:normal;font-variant-numeric:normal;font-variant-east-asian:normal;text-align:start;letter-spacing:0px;word-spacing:0px;writing-mode:lr-tb;text-anchor:start;fill:#000000;fill-opacity:1;stroke:none;stroke-width:1px;stroke-linecap:butt;stroke-linejoin:miter;stroke-opacity:1"
       id="path1697" />
    <path
       inkscape:connector-curvature="0"
       id="path4634"
       d="m 585.56197,598.55118 c 123.52936,0 126.88093,0 126.88093,0"
       style="fill:none;fill-rule:evenodd;stroke:#808080;stroke-width:0.690439;stroke-linecap:butt;stroke-linejoin:miter;stroke-miterlimit:4;stroke-dasharray:4.14264, 4.14264;stroke-dashoffset:0;stroke-opacity:0.768627" />
    <path
       style="fill:none;fill-rule:evenodd;stroke:#808080;stroke-width:0.687712;stroke-linecap:butt;stroke-linejoin:miter;stroke-miterlimit:4;stroke-dasharray:4.12627, 4.12627;stroke-dashoffset:0;stroke-opacity:0.768627"
       d="m 618.06197,658.52899 c 92.75712,0 95.27378,0 95.27378,0"
       id="path4636"
       inkscape:connector-curvature="0" />
    <path
       inkscape:connector-curvature="0"
       id="path4638"
       d="m 627.8834,755.3147 h 78.83404"
       style="fill:none;fill-rule:evenodd;stroke:#808080;stroke-width:0.702093;stroke-linecap:butt;stroke-linejoin:miter;stroke-miterlimit:4;stroke-dasharray:4.21255, 4.21255;stroke-dashoffset:0;stroke-opacity:0.768627"
       sodipodi:nodetypes="cc" />
    <path
       style="fill:none;fill-rule:evenodd;stroke:#808080;stroke-width:0.708661;stroke-linecap:butt;stroke-linejoin:miter;stroke-miterlimit:4;stroke-dasharray:4.25197, 4.25197;stroke-dashoffset:0;stroke-opacity:0.768627"
       d="m 531.99054,833.52899 c 166.99298,0 171.52378,0 171.52378,0"
       id="path4646"
       inkscape:connector-curvature="0" />
  </g>
</svg>
