<?xml version="1.0" encoding="UTF-8" standalone="no"?>
<svg
   xmlns:dc="http://purl.org/dc/elements/1.1/"
   xmlns:cc="http://creativecommons.org/ns#"
   xmlns:rdf="http://www.w3.org/1999/02/22-rdf-syntax-ns#"
   xmlns:svg="http://www.w3.org/2000/svg"
   xmlns="http://www.w3.org/2000/svg"
   xmlns:sodipodi="http://sodipodi.sourceforge.net/DTD/sodipodi-0.dtd"
   xmlns:inkscape="http://www.inkscape.org/namespaces/inkscape"
   width="24.471554mm"
   height="17.234631mm"
   viewBox="0 0 24.471561 17.234631"
   version="1.1"
   id="svg1843"
   inkscape:version="1.0.1 (3bc2e813f5, 2020-09-07)"
   sodipodi:docname="sichtlinie.svg">
  <defs
     id="defs1837" />
  <sodipodi:namedview
     id="base"
     pagecolor="#ffffff"
     bordercolor="#666666"
     borderopacity="1.0"
     inkscape:pageopacity="0.0"
     inkscape:pageshadow="2"
     inkscape:zoom="7.9195959"
     inkscape:cx="25.546029"
     inkscape:cy="43.704998"
     inkscape:document-units="mm"
     inkscape:current-layer="layer1"
     inkscape:document-rotation="0"
     showgrid="false"
     fit-margin-top="0"
     fit-margin-left="0"
     fit-margin-right="0"
     fit-margin-bottom="0"
     inkscape:window-width="1920"
     inkscape:window-height="1020"
     inkscape:window-x="1920"
     inkscape:window-y="28"
     inkscape:window-maximized="1" />
  <metadata
     id="metadata1840">
    <rdf:RDF>
      <cc:Work
         rdf:about="">
        <dc:format>image/svg+xml</dc:format>
        <dc:type
           rdf:resource="http://purl.org/dc/dcmitype/StillImage" />
        <dc:title />
      </cc:Work>
    </rdf:RDF>
  </metadata>
  <g
     inkscape:label="Ebene 1"
     inkscape:groupmode="layer"
     id="layer1"
     transform="translate(-94.886637,-66.013581)">
    <path
       style="fill:none;fill-rule:evenodd;stroke:#000000;stroke-width:0.264583px;stroke-linecap:butt;stroke-linejoin:miter;stroke-opacity:1"
       d="m 103.24448,66.094432 4.85105,6.282571"
       id="path847"
       sodipodi:nodetypes="cc" />
    <path
       id="path845"
       style="color:#000000;overflow:visible;opacity:1;fill:#999999;stroke:none;stroke-width:0.145213;stroke-linecap:round;stroke-linejoin:bevel;stroke-miterlimit:4;stroke-dasharray:none"
       d="m 119.28677,81.993254 -0.46855,-2.572894 v -2.839199 l -22.247327,-6.093865 -1.143914,0.649743 v 2.839655 l -0.468548,3.105502 22.247779,6.093409 z"
       sodipodi:nodetypes="ccccccccc" />
    <path
       id="path849"
       style="color:#000000;overflow:visible;opacity:1;fill:none;stroke:#000000;stroke-width:0.145213;stroke-linecap:round;stroke-linejoin:bevel;stroke-miterlimit:4;stroke-dasharray:none"
       d="m 118.81822,76.581161 -22.247327,-6.093865 -1.143914,0.649743 m 22.247781,6.093867 -22.247781,-6.093867 v 0 2.839655 m 0,0 22.247781,6.093409 m -22.247781,-6.093409 -0.468548,3.105502 22.247779,6.093409 m 1.61201,-6.594444 -1.14346,0.649745 v 2.839197 l -0.46855,3.105502 2.08055,-1.182351 -0.46854,-2.572894 z"
       sodipodi:nodetypes="ccccccccccccccccccc" />
    <g
       id="g861"
       transform="matrix(0.26458333,0,0,0.26458333,-18.119329,-182.00482)">
      <path
         id="path851"
         style="color:#000000;overflow:visible;fill:#000000;stroke:#000000;stroke-width:0.661571;stroke-miterlimit:4;stroke-dasharray:none"
         d="m 481.17745,991.1875 c 0,-1.62711 -6.95398,-2.94727 -15.53125,-2.94727 -8.57727,0 -15.53125,1.32016 -15.53125,2.94727 l -1.04102,3.98047 c -1e-5,1.73621 7.41989,3.14453 16.57227,3.14453 9.15238,0 16.57227,-1.40832 16.57226,-3.14453 z"
         sodipodi:nodetypes="csccscc" />
      <path
         style="fill:#ffffff;fill-opacity:1;stroke:#000000;stroke-width:0.856;stroke-linecap:round;stroke-linejoin:round;stroke-miterlimit:4;stroke-dasharray:none;stroke-opacity:1"
         d="m 465.64633,956.0217 a 3.5760264,3.5760264 0 0 0 -3.57609,3.57609 3.5760264,3.5760264 0 0 0 3.57609,3.5761 3.5760264,3.5760264 0 0 0 3.5761,-3.5761 3.5760264,3.5760264 0 0 0 -3.5761,-3.57609 z m -4.75267,8.3351 v 0.032 c -1.4035,0.20731 -2.47385,1.41081 -2.47385,2.87373 v 9.83405 c 0,1.46294 1.07035,2.66614 2.47385,2.87344 v 11.505 h 9.50535 v -11.505 c 1.4035,-0.2073 2.47385,-1.4105 2.47385,-2.87344 v -9.83406 c 0,-1.46292 -1.07035,-2.66642 -2.47385,-2.87373 v -0.032 h -0.43157 -8.64221 z"
         id="path853"
         inkscape:connector-curvature="0" />
      <path
         id="path855"
         style="color:#000000;overflow:visible;opacity:0.643874;fill:#999999;stroke:none;stroke-width:0.62;stroke-miterlimit:4;stroke-dasharray:none"
         d="m 481.17773,951.05273 c 0,-1.62711 -6.95398,-2.94726 -15.53125,-2.94726 -8.57727,0 -15.53125,1.32015 -15.53125,2.94726 v 40.13477 c 0,1.62711 6.95398,2.94531 15.53125,2.94531 8.57727,0 15.53125,-1.3182 15.53125,-2.94531 z"
         sodipodi:nodetypes="csccscc" />
      <path
         id="path857"
         style="color:#000000;overflow:visible;opacity:1;fill:none;stroke:#000000;stroke-width:0.62;stroke-miterlimit:4;stroke-dasharray:none"
         d="m 481.17773,951.05273 c 0,-1.62711 -6.95398,-2.94726 -15.53125,-2.94726 -8.57727,0 -15.53125,1.32015 -15.53125,2.94726 v 40.13477 c 0,1.62711 6.95398,2.94531 15.53125,2.94531 8.57727,0 15.53125,-1.3182 15.53125,-2.94531 z"
         sodipodi:nodetypes="csccscc" />
      <path
         id="path859"
         style="color:#000000;overflow:visible;fill:none;stroke:#000000;stroke-width:0.62;stroke-miterlimit:4;stroke-dasharray:none"
         d="m 481.17701,951.05182 c 0,1.62711 -6.95326,2.94615 -15.53053,2.94615 -8.57727,0 -15.53052,-1.31904 -15.53052,-2.94615"
         sodipodi:nodetypes="csc" />
    </g>
    <path
       style="fill:none;fill-rule:evenodd;stroke:#000000;stroke-width:0.264583px;stroke-linecap:butt;stroke-linejoin:miter;stroke-opacity:1"
       d="m 108.09553,72.377003 6.34047,8.211491"
       id="path863"
       sodipodi:nodetypes="cc" />
  </g>
</svg>
