<?xml version="1.0" encoding="UTF-8" standalone="no"?>
<svg
   width="100.00021mm"
   height="100.0002mm"
   viewBox="0 0 354.33144 354.33141"
   id="svg2"
   version="1.1"
   inkscape:version="1.4.2 (f4327f4, 2025-05-13)"
   sodipodi:docname="spielfeld.svg"
   xml:space="preserve"
   xmlns:inkscape="http://www.inkscape.org/namespaces/inkscape"
   xmlns:sodipodi="http://sodipodi.sourceforge.net/DTD/sodipodi-0.dtd"
   xmlns="http://www.w3.org/2000/svg"
   xmlns:svg="http://www.w3.org/2000/svg"
   xmlns:rdf="http://www.w3.org/1999/02/22-rdf-syntax-ns#"
   xmlns:cc="http://creativecommons.org/ns#"
   xmlns:dc="http://purl.org/dc/elements/1.1/"><defs
     id="defs4"><marker
       style="overflow:visible"
       id="marker2726"
       refX="0"
       refY="0"
       orient="auto"
       inkscape:stockid="Arrow1Lend"
       inkscape:isstock="true"><path
         transform="matrix(-0.8,0,0,-0.8,-10,0)"
         style="fill:#000000;fill-opacity:1;fill-rule:evenodd;stroke:#000000;stroke-width:1pt;stroke-opacity:1"
         d="M 0,0 5,-5 -12.5,0 5,5 Z"
         id="path2724" /></marker><marker
       style="overflow:visible"
       id="marker2716"
       refX="0"
       refY="0"
       orient="auto"
       inkscape:stockid="Arrow1Lend"
       inkscape:isstock="true"><path
         transform="matrix(-0.8,0,0,-0.8,-10,0)"
         style="fill:#000000;fill-opacity:1;fill-rule:evenodd;stroke:#000000;stroke-width:1pt;stroke-opacity:1"
         d="M 0,0 5,-5 -12.5,0 5,5 Z"
         id="path2714" /></marker><marker
       style="overflow:visible"
       id="marker2522"
       refX="0"
       refY="0"
       orient="auto"
       inkscape:stockid="Arrow1Lend"
       inkscape:isstock="true"
       inkscape:collect="always"><path
         transform="matrix(-0.8,0,0,-0.8,-10,0)"
         style="fill:#000000;fill-opacity:1;fill-rule:evenodd;stroke:#000000;stroke-width:1pt;stroke-opacity:1"
         d="M 0,0 5,-5 -12.5,0 5,5 Z"
         id="path2520" /></marker><marker
       style="overflow:visible"
       id="Arrow1Lend"
       refX="0"
       refY="0"
       orient="auto"
       inkscape:stockid="Arrow1Lend"
       inkscape:isstock="true"
       inkscape:collect="always"><path
         transform="matrix(-0.8,0,0,-0.8,-10,0)"
         style="fill:#000000;fill-opacity:1;fill-rule:evenodd;stroke:#000000;stroke-width:1pt;stroke-opacity:1"
         d="M 0,0 5,-5 -12.5,0 5,5 Z"
         id="path1857" /></marker><linearGradient
       id="linearGradient5588"
       inkscape:swatch="solid"><stop
         style="stop-color:#000000;stop-opacity:1;"
         offset="0"
         id="stop5590" /></linearGradient></defs><sodipodi:namedview
     id="base"
     pagecolor="#ffffff"
     bordercolor="#666666"
     borderopacity="1.0"
     inkscape:pageopacity="0.0"
     inkscape:pageshadow="2"
     inkscape:zoom="3.959798"
     inkscape:cx="151.90169"
     inkscape:cy="134.47656"
     inkscape:document-units="px"
     inkscape:current-layer="layer1"
     showgrid="false"
     fit-margin-top="0"
     fit-margin-left="0"
     fit-margin-right="0"
     fit-margin-bottom="0"
     inkscape:window-width="2560"
     inkscape:window-height="1369"
     inkscape:window-x="2552"
     inkscape:window-y="-8"
     inkscape:window-maximized="1"
     inkscape:snap-bbox="true"
     inkscape:bbox-paths="true"
     inkscape:object-paths="true"
     inkscape:document-rotation="0"
     inkscape:snap-midpoints="true"
     inkscape:showpageshadow="2"
     inkscape:pagecheckerboard="0"
     inkscape:deskcolor="#d1d1d1" /><metadata
     id="metadata7"><rdf:RDF><cc:Work
         rdf:about=""><dc:format>image/svg+xml</dc:format><dc:type
           rdf:resource="http://purl.org/dc/dcmitype/StillImage" /><dc:title /></cc:Work></rdf:RDF></metadata><g
     inkscape:label="Ebene 1"
     inkscape:groupmode="layer"
     id="layer1"
     transform="translate(-137.06974,-167.67154)"><rect
       style="color:#000000;display:inline;overflow:visible;visibility:visible;fill:#715936;fill-opacity:1;fill-rule:nonzero;stroke:#000000;stroke-width:0.761674;stroke-miterlimit:4;stroke-dasharray:none;stroke-dashoffset:0;stroke-opacity:1;marker:none;enable-background:accumulate"
       id="rect4136"
       width="318.13596"
       height="318.13599"
       x="172.88367"
       y="203.48543"
       ry="5.1790104"
       rx="0" /><g
       id="g7"
       transform="matrix(1.1785066,1.6223721e-8,-1.6223721e-8,1.1785066,-37.501818,-77.956057)"><path
         style="fill:#536c53;fill-opacity:1;stroke:#000000;stroke-width:0.253919;stroke-linecap:butt;stroke-linejoin:miter;stroke-miterlimit:4;stroke-dasharray:none;stroke-opacity:1"
         d="m 246.56036,435.53943 c -3.63352,0.27179 -7.62691,2.86983 -13.82746,2.79942 -6.20055,-0.0704 -18.08302,-4.11364 -21.71673,-0.33932 -4.23592,4.90817 -1.27706,12.83503 -0.2545,15.86341 1.00703,3.05802 -0.44085,10.01988 0.25449,13.31846 0.69533,3.29858 2.4317,12.75485 8.82243,18.32351 6.39072,5.56865 18.38697,0.83265 27.65491,3.39323 9.26794,2.56059 10.70173,4.70775 14.67577,2.46011 3.97405,-2.24765 6.65725,-6.93213 7.3803,-10.0949 0.72305,-3.16276 -3.38604,-16.6995 -5.68368,-24.68582 -2.29763,-7.98632 -2.4465,-11.00513 -7.33789,-15.312 -4.60673,-3.9718 -6.70645,-5.95878 -9.96764,-5.7261 z"
         id="path1"
         sodipodi:nodetypes="czcczzzzzzcc" /><path
         style="fill:#217821;fill-opacity:1;stroke:#000000;stroke-width:0.0551275;stroke-opacity:1"
         d="m 221.10406,466.84459 c 0.52173,0.28084 0.23543,-0.2382 0.68194,0.0133 0.12527,-0.31071 0.5643,0.032 0.43577,-0.4974 0.70793,0.0625 -0.38957,-0.18635 0.33098,-0.2429 0.28538,0.36948 0.30138,0.12271 0.59523,0.28335 0.23679,0.16975 0.009,0.50951 -0.008,0.96688 -0.20409,0.0461 -1.05307,0.0304 -0.6567,0.49331 0.0914,0.68121 0.36219,-0.44348 0.29391,-0.30602 -0.0886,0.93099 0.48694,0.0937 0.47894,0.0466 -0.0556,-0.38388 0.3843,-0.55734 0.71729,-0.27551 0.58931,-0.0418 0.87943,-0.42546 0.59901,-0.58722 0.17299,-0.10673 -0.3827,-0.25758 -0.30712,-0.54334 -0.17364,0.4235 -0.0946,0.55022 0.0234,0.48882 -0.0447,0.52095 -0.39302,0.0254 -0.69653,-0.0662 -0.60661,-0.16441 0.63672,-0.38203 -0.0811,-0.64137 -0.16741,-0.11487 0.7043,-0.38062 0.59513,-0.61431 0.46043,-0.0233 0.41391,-0.0861 0.87641,-0.33175 0.53633,-0.0149 0.30546,0.15693 0.60518,-0.19346 0.39228,0.22415 -0.22744,0.0526 0.15514,0.41506 -0.1942,-0.0228 -0.44984,0.57163 -0.235,0.78509 0.25418,-0.63658 0.18997,0.24698 0.39744,-0.15262 0.34606,-0.31186 0.32194,0.38993 -0.0867,0.27478 -0.17102,0.34143 0.41865,0.16864 0.15853,0.56151 -0.10752,0.20056 -0.004,0.41932 0.28459,0.65279 0.1215,-0.15974 0.46641,0.32438 0.44465,-0.28404 0.27382,-0.11165 0.39475,-0.64387 0.79404,-0.82304 0.39665,-0.25795 0.5643,-0.79987 0.15908,-0.66273 -0.15479,-0.39538 -0.9735,-0.16658 -0.21634,-0.50691 -0.0409,-0.52863 0.43074,-0.33883 0.72619,-0.57656 0.28096,0.15409 -0.357,0.78292 -0.34415,0.8477 -0.28959,0.017 0.35372,0.23571 0.35237,0.51625 0.29571,0.13569 0.0789,0.86002 0.52709,0.28617 -0.007,-0.1356 0.64129,-0.1498 0.23127,-0.60468 -0.17026,0.2863 -0.52357,-0.27721 -0.0557,-0.30605 -0.51894,-0.0115 0.76976,-0.50844 0.18595,-1.01497 0.24442,-0.48607 0.66231,0.68825 0.64047,-0.0275 0.38953,-0.61733 0.80359,0.20881 0.58984,0.53577 0.28096,-0.30859 -0.0705,0.37645 0.32134,-0.0962 -0.32645,-0.11914 1.01124,-0.0903 0.34428,-0.48954 0.0366,-0.33159 -0.358,0.64855 -0.3115,-0.002 0.3628,-0.3287 0.0745,-0.54491 0.48999,-0.10494 0.41953,0.24669 -0.35906,-0.0213 0.13911,0.29475 0.15838,0.26239 0.14,-0.19334 0.56529,0.24822 0.38324,-0.14429 0.9954,0.32959 0.50819,0.49346 0.366,0.18384 0.43334,-0.55828 0.85352,-0.58728 -0.0734,-0.25038 1.22701,0.56157 0.73967,-0.27386 -0.18302,0.29465 -0.23402,-0.16887 -0.2995,-0.19576 -0.36579,-0.16801 0.35859,-0.41519 -0.0702,-0.39733 0.26269,-0.22739 0.87914,-0.14725 0.44702,-0.42911 -0.43343,-0.11935 0.66129,-0.0226 0.49672,-0.19289 -0.15656,0.65298 0.34065,0.8431 0.56634,1.21436 0.48121,-0.13517 0.28506,0.59556 0.65271,0.72945 -0.009,0.3073 0.51634,0.0988 -3.8e-4,0.56044 0.21775,0.0275 0.0146,0.66085 0.2754,0.56533 0.27405,0.2253 -0.18254,0.37488 0.18759,0.73158 0.10828,0.15971 0.31581,0.1713 0.56234,0.12226 -0.22895,0.4005 0.28039,0.27118 0.11131,0.0801 0.35147,0.23475 -0.1262,0.62688 -0.18626,0.34431 -0.25404,0.27352 -0.0463,-0.4921 -0.20805,0.17018 -0.12009,-0.16557 -0.41306,0.55479 0.12766,0.51253 -0.17511,0.37242 -0.28518,0.785 -0.46785,0.72264 0.18353,-0.37897 -0.14848,-0.27454 -0.38584,-0.55574 -0.0577,0.32673 0.25921,0.52333 0.18587,0.6883 0.2435,0.0811 0.3918,0.18475 0.18458,0.58639 0.12983,0.52315 0.38265,0.39593 0.68801,0.59818 0.0783,0.26938 0.20491,-0.0784 0.27174,-0.036 0.51265,0.5061 0.71736,0.44355 1.07046,0.83545 -0.11283,0.3 -0.0727,0.70167 -0.51868,0.40331 -0.65296,-0.1742 -0.47832,0.19644 -0.16243,0.42537 0.0943,-0.14366 0.48277,0.49579 0.11081,0.62359 -0.55793,-0.0659 -0.29312,0.54022 0.11628,0.11155 0.52952,0.35694 -0.14711,0.49723 -0.28044,0.51151 0.0458,-0.25984 -0.34552,-0.0112 -0.10814,0.1825 -0.14341,-0.1015 -0.41283,0.0688 -0.31583,-0.40536 0.38255,0.11239 -0.51957,-0.56501 -0.002,-0.52842 -0.73678,-0.59657 -0.34807,0.84275 -0.91668,0.48185 0.12358,0.23658 -0.0222,0.35285 -0.0793,0.61653 0.44427,-0.24836 -0.52691,0.66247 0.0973,0.49499 0.40367,0.37051 -0.33583,0.55809 0.23728,0.80559 -0.64258,-0.0189 -0.60741,0.42713 -0.0162,0.49653 -0.50992,-0.0729 -0.31888,0.42455 -0.36778,0.67317 -0.47767,0.0193 -0.71234,0.099 -0.29485,0.38128 -0.0739,-0.38523 0.48124,0.41296 0.65772,-0.087 0.38294,-0.11798 0.12852,-0.60826 0.56264,-0.20622 0.35975,-0.13741 0.0227,-0.32323 0.43952,-0.51332 -0.0614,-0.38945 -0.69608,-0.64422 -0.62742,-0.18093 -0.0313,0.18552 -0.44248,-0.15602 0.0529,-0.31134 -0.11156,-0.14974 -0.42949,-0.36726 -0.0605,-0.17006 0.1688,-0.40657 0.12525,-0.63202 -0.0237,-0.83232 0.37351,-0.45487 1.06097,0.49548 1.21993,0.0606 0.41954,0.0911 0.58108,0.46406 0.65329,0.60761 0.58671,0.15066 -0.33515,0.65098 -0.1084,0.75784 -0.21019,-0.20506 -0.49604,0.45389 -0.56666,-0.0398 -0.72575,0.23549 -0.204,0.74129 0.20534,0.5832 0.27735,-0.42687 0.69162,-0.40221 0.19865,0.0499 0.23288,0.17215 -0.33107,0.72424 -0.32128,0.55238 -0.62643,-0.22255 0.21354,-0.50478 -0.14043,-0.23734 0.84334,-0.12367 -0.30459,-0.45001 -0.33904,-0.0346 -0.24139,-0.56309 -0.19127,0.0644 -0.548,0.0504 -0.0622,0.61997 0.54838,0.34618 -0.0513,0.75563 -0.19195,0.0363 0.18678,-0.33956 -0.0666,-0.27716 -0.0158,-0.29087 -0.7041,0.13427 -0.40982,0.38271 0.30504,-0.33754 0.52591,0.6482 0.0613,0.15506 -0.25172,0.34185 -0.47718,-0.0259 -0.23663,-0.05 -0.34674,-0.92543 -1.01484,0.50393 -0.38096,0.26466 -0.20339,0.23111 0.73204,0.19118 0.16172,0.69743 -0.16426,-0.21651 0.032,0.29175 -0.38926,0.44542 -0.0195,0.37229 -0.15168,0.50859 0.0537,0.92538 -0.35088,0.33908 -0.0845,-0.29565 -0.4649,0.10219 -0.63312,-0.12449 -0.28471,0.38358 -0.17973,0.54245 0.19404,-0.023 0.4805,0.34788 -0.13005,0.10877 -0.12859,-0.22078 -0.76436,-0.25122 -1.09539,-0.14407 -0.33792,-0.22775 0.0662,0.51749 -0.48971,0.16098 -0.76606,-0.32764 0.19875,1.19294 0.35362,0.64476 0.45712,0.3404 0.69037,0.68875 0.68205,0.81623 0.75067,0.30337 -0.5183,0.75025 0.17963,0.97809 0.031,0.36854 0.10067,0.7994 -0.21168,0.83029 -0.10437,-0.34718 -0.48598,0.43986 -0.48408,0.0408 -0.39344,0.34142 -0.64361,-0.0157 -0.53757,0.29688 -0.42041,0.0435 -0.5168,-0.16941 -0.62926,0.18077 -0.25789,-0.49073 -0.25544,-0.45157 -0.34322,-0.10695 -0.37121,-0.15409 0.045,-0.60734 0.0991,-0.49908 0.0672,-0.32164 0.48066,0.25873 0.60717,-0.11009 0.51546,-0.0196 -0.071,-0.62488 0.10069,-0.64187 -0.22983,-0.33083 -0.17587,0.54217 -0.28765,-0.0117 -0.11619,-0.6952 0.83485,-0.2705 0.51947,-0.74214 -0.37192,-0.34982 -0.4603,0.5363 -0.41574,-0.36904 0.11797,-0.31279 -0.19179,-1.078 -0.37308,-0.44341 0.25142,0.0247 -0.52409,0.1887 -0.20894,0.45591 -0.36161,-0.13824 -0.37678,0.0227 -0.44405,0.1876 -0.38452,-0.14507 -0.39585,0.13832 -0.88175,-0.0572 -0.67995,-0.22441 -0.0841,0.31933 -0.20631,0.39665 -0.30955,0.10367 0.17252,0.44765 -0.4468,0.44426 0.21536,0.37702 0.30173,0.8075 -0.13101,1.20948 -0.15195,0.0695 -0.53819,0.0632 -0.78117,0.27394 0.30503,-0.57287 -1.06064,-0.44861 -0.40289,-0.0626 0.31742,0.13739 -0.57724,0.38544 -0.63017,0.62563 -0.32737,0.25661 -0.0853,-0.97273 -0.67545,-0.38686 -0.63677,-0.0507 -0.34661,-0.39014 -0.01,-0.53976 0.37961,-0.10425 0.82521,-0.49893 0.23644,-0.67884 0.20527,0.56847 -0.76252,-0.27073 -0.55712,0.31998 -0.31723,-0.14095 -0.39206,-0.23343 -0.35508,0.0621 -0.10561,-0.60438 -0.80098,-0.32716 -0.20332,-0.21231 -0.10139,0.4927 -0.3115,0.13257 -0.71883,0.35344 -0.10885,-0.51393 -0.61225,0.17709 -0.90784,-0.0783 -0.18655,0.28796 -0.0932,0.0818 -0.0339,-0.39706 -0.23006,0.25761 -0.0794,-0.49637 -0.20924,-0.47348 0.38468,-0.64785 -0.10882,0.10535 -0.39436,-0.1223 -0.0752,0.72512 -0.0414,-0.53709 -0.4963,0.10674 -0.12084,-0.10193 -0.30256,0.39106 -0.62588,0.14627 0.002,0.2383 -1.13952,0.0291 -0.62272,-0.50378 0.35554,-0.85604 -0.078,0.0844 -0.59017,0.0505 -0.0199,0.48746 0.49707,0.2165 0.1951,0.54828 -0.28669,-0.36283 -0.67384,0.3452 -0.35585,-0.19701 -0.48869,-0.0344 -0.85058,0.12897 -0.57405,-0.28089 -0.11076,0.0457 -0.43837,-0.19321 -0.32194,-0.34483 0.31172,-0.45346 -0.50779,0.0293 -0.34929,-0.54364 -0.51835,0.0887 0.58169,-0.49694 -0.1247,-0.55218 -0.0833,-0.24487 0.0924,-0.39241 0.29024,-0.7356 0.003,0.28102 0.65621,0.31003 0.48273,0.033 -0.0211,-0.19781 -0.12916,-0.26163 0.0481,-0.67392 -0.54198,-0.10214 -0.19188,-0.15569 -0.17924,-0.44745 -0.6039,0.16668 -0.71749,0.0201 -0.73809,-0.42527 -0.11454,-0.2978 -0.6274,-0.56787 -0.40085,-0.99009 -0.0206,-0.3559 -0.32372,-0.48335 0.2866,-0.7161 -0.0128,-0.54517 0.26979,0.19591 -0.0194,0.41312 0.44338,0.019 0.67344,0.12999 0.58234,-0.33838 0.0253,0.0201 -0.46382,-0.36301 0.0335,-0.50098 0.21251,-0.0336 -0.47805,-0.54018 -0.0535,-0.84862 0.20758,0.31363 0.47654,-0.55941 0.20679,-0.42262 0.57303,-0.47285 0.25458,0.53342 0.51992,-0.28521 -0.16207,-0.56165 -0.4621,0.13836 -0.79893,0.21267 -0.68494,-0.50195 0.31807,-0.18733 -0.12902,-0.72866 0.64181,-0.68263 -0.56784,-0.10411 -0.48552,-0.21646 -0.71393,-0.16885 0.0661,-0.58315 0.56835,-0.70507 -0.47107,-0.12588 -0.086,0.0615 0.11878,-0.29148 0.1035,-0.68461 -1.18698,-0.4536 -0.43063,-0.0439 0.53052,0.34634 -0.40876,-0.24355 -0.21169,0.23412 -0.52167,-0.0937 -0.94378,-0.59054 -0.63492,0.20857 -0.16943,0.43218 0.14841,-8.5e-4 -0.002,0.40344 -0.13655,-0.0414 0.2869,0.28393 -0.26487,0.21399 -0.37133,-0.12954 0.33686,-1.03111 -0.24736,-0.79272 0.15939,-0.29636 -0.003,-0.3721 -0.17847,-0.55448 -0.22324,0.0905 0.3867,-0.46958 -0.0938,-0.3079 -0.23179,-0.47317 -0.60205,-0.35383 -0.10923,-0.85414 -0.0901,-0.32303 0.19622,-0.14972 0.14501,-0.65253 -0.57522,0.0594 0.63176,-0.10587 0.25514,-0.10789 0.67091,-2.1e-4 -0.21202,-0.22709 0.27526,-0.59889 -0.61616,-0.52945 0.33511,-0.531 0.0891,-0.72786 0.17647,0.18202 0.73678,-0.0401 0.55575,0.18897 -0.10033,0.10739 0.0611,1.00134 0.48789,0.61928 0.42269,3e-4 -0.11267,-0.27617 0.20675,-0.58524 -0.38808,0.1597 0.0549,-0.32553 0.10758,-0.40133 -0.0513,-0.19189 1.1977,-0.13226 0.78132,0.11095 0.0866,0.69692 0.45778,-0.0454 0.64755,-0.0517 -0.36213,-0.055 1.05453,-0.0372 0.17088,-0.41036 -0.54094,0.32549 -0.74309,-0.57303 -0.49737,-0.5475 -0.0363,-0.0279 0.52156,-0.62489 -0.15382,-0.50002 -0.44574,-0.41372 -0.84053,-0.23613 -0.58896,0.16095 -0.29659,0.22611 -0.64521,-0.2547 -0.49863,-0.36906 -0.0632,-0.63712 0.91813,0.13931 0.40225,-0.35368 0.40244,-0.10838 -0.59297,-0.6249 -0.1659,-0.66542 z"
         id="path2" /><path
         style="fill:#217821;fill-opacity:1;stroke:#000000;stroke-width:0.0387028;stroke-opacity:1"
         d="m 223.58381,442.90692 c 0.0832,0.37708 0.20317,0.0999 0.3112,0.38143 0.18121,0.0262 0.18276,0.31927 0.41883,0.063 0.224,0.42641 0.002,-0.32429 0.27001,0.13261 -0.14007,0.28725 0.20963,0.2621 0.0232,0.52437 0.0118,-0.0194 -0.44928,0.39566 -0.58565,0.20371 -0.0295,-0.29712 -0.483,-0.30871 -0.52803,-0.0777 -0.1503,0.51327 0.80136,-0.38695 0.17033,0.17701 -0.0526,0.26761 0.35564,0.0834 0.52214,0.11672 0.17337,-0.23763 0.26171,0.36559 0.48629,0.50096 0.3136,0.29118 0.33108,-0.03 0.3773,-0.0765 0.13102,0.0558 -0.007,-0.32344 0.18671,-0.3966 -0.31311,0.0723 -0.3537,0.16832 -0.27067,0.21164 -0.33494,0.19489 -0.18407,-0.31088 -0.25921,-0.57182 0.0953,0.0715 0.48682,0.0728 0.40227,-0.22829 0.0802,0.26746 0.50731,0.0985 0.5503,0.202 0.15549,0.24546 0.37114,0.13287 0.60918,0.43036 0.0621,0.25278 0.0634,0.0704 0.28516,0.18643 0.021,0.16973 -0.16677,0.0511 -0.1663,0.19771 -0.15688,-0.0318 -0.54384,-0.002 -0.53958,0.23358 0.45667,-0.14741 -0.0961,0.21557 0.23006,0.15122 0.31889,0.0717 -0.0928,0.34337 -0.19265,0.0621 -0.26483,0.0398 0.0726,0.30774 -0.25704,0.31864 -0.16562,-0.0265 -0.34627,0.35668 -0.18053,0.49094 -0.11919,0.19694 0.4729,0.17154 0.44805,0.0916 0.41659,-0.0547 0.7042,0.26644 1.13248,0.13051 -0.039,-0.1584 -0.10407,-0.1767 -0.0236,-0.46198 -0.41642,-0.31533 0.36309,-0.0511 0.40166,-0.11664 0.22453,0.0938 0.6394,0.38635 0.0529,0.37572 -0.23238,0.10187 -0.47699,-0.24023 -0.31065,0.17678 -0.18619,0.12687 -0.21384,0.45378 -0.32722,0.59251 0.33208,-0.0577 0.45224,0.39257 0.66829,-0.0515 -0.28838,-0.10593 0.0519,-0.25594 0.16077,-0.21578 -0.17329,-0.13567 0.62751,0.23573 0.64885,-0.24489 0.37141,-0.0625 -0.12887,0.65727 0.2754,0.356 0.5118,-0.0272 0.20544,0.54568 -0.0685,0.55548 0.1962,-0.002 -0.11094,0.23157 0.19783,0.0799 -0.0367,4.3e-4 0.46213,0.53274 0.40746,0.0648 0.18593,-0.0998 -0.55225,0.0446 -0.0806,-0.20994 0.40595,0.007 0.21713,0.0164 0.1922,0.40514 -0.0881,-0.32746 -0.15662,0.3876 -0.0401,0.16178 0.0199,0.36677 0.33208,0.69117 0.11644,0.89792 -0.43826,-0.19848 0.069,0.2022 0.14028,0.0586 0.50583,-0.0447 0.44032,0.22201 0.62777,0.59811 0.50029,-0.0471 -0.14783,-0.25868 0.24058,-0.3032 -0.16418,-0.18221 0.034,-0.28205 0.24486,-0.2387 -0.18611,-0.23595 0.20424,0.18565 0.24993,0.0707 0.23753,0.38809 -0.0909,-0.52373 0.22752,0.008 0.39345,0.20717 -0.14062,0.17518 -0.19933,0.52552 -0.0656,0.2619 -0.0346,0.4586 -0.0555,0.72497 -0.20781,0.16695 -0.28199,0.47533 -0.21623,0.60098 -0.36532,-0.0801 -0.50173,0.26327 -0.56145,0.4389 0.0161,0.0725 -0.3666,0.23061 -0.28297,0.45893 -0.0998,0.0999 0.38956,0.30953 -0.0247,0.30461 0.0605,0.27149 0.31723,-0.0897 0.0712,0.1986 -0.2749,0.15801 -0.0921,-0.19426 -0.23236,-0.1746 0.28212,-0.17155 -0.30833,0.0791 -0.1882,-0.0404 -0.349,-0.002 -0.0605,0.58654 -0.58777,0.36762 -0.17958,0.14024 -0.23618,-0.0566 0.014,-0.10076 -0.14918,-0.0331 0.11646,-0.54039 -0.1897,-0.24626 -0.0565,0.28371 -0.1924,0.20065 -0.1626,0.43734 0.0653,0.11903 -0.47724,0.23624 -0.40444,0.49902 0.14497,0.11122 -0.0165,0.56919 0.20331,0.40332 -0.0767,0.51143 0.0447,0.63489 -0.0365,0.97118 -0.16456,0.1005 -0.41617,0.25198 -0.43718,-0.0453 -0.1758,-0.37798 -0.21251,-0.43367 -0.3739,0.0253 0.245,-0.0448 -0.0167,0.38534 -0.22151,0.35355 -0.32275,-0.39555 -0.28952,0.008 -0.10996,0.149 0.10921,0.39229 -0.54665,-0.054 -0.29567,-0.0943 -0.1883,-0.12243 -0.14334,0.13724 -0.24999,-0.0161 -0.13004,-0.34818 0.36982,-0.0411 0.25146,-0.39059 0.12738,-0.16075 0.37874,-0.10908 0.012,-0.37554 -0.16218,0.0288 -0.43701,0.31108 -0.45706,-0.034 -0.0858,0.16594 -0.21113,0.13002 -0.3856,0.20411 0.26773,0.14451 -0.56674,-0.0206 -0.29226,0.3063 -0.0135,0.34281 -0.4326,-0.0174 -0.31743,0.41213 -0.25015,-0.3753 -0.49052,-0.17658 -0.29102,0.1912 -0.18736,-0.39705 -0.38202,0.12865 -0.5781,0.0136 -0.15713,-0.31874 -0.34539,-0.17457 -0.28539,0.005 0.19124,-0.11217 -0.0608,0.49116 0.3077,0.37147 0.22271,0.17178 0.40084,-0.17283 0.34623,0.23897 0.21691,0.10788 0.23381,-0.0521 0.49178,0.004 0.27693,-0.20534 -0.0966,-0.68996 -0.17048,-0.32754 -0.28451,-0.37143 0.42536,-0.0445 0.24461,-0.32412 -0.0649,-0.14912 0.12854,0.15197 0.36312,-0.0619 0.0282,-0.10769 0.20079,-0.42895 0.32606,-0.0632 0.0578,0.28242 0.16147,0.52644 0.28589,0.65489 0.12839,0.32801 -0.18154,0.38506 -0.0507,0.63479 -0.16456,0.21816 -0.479,-0.002 -0.5305,0.1335 -0.0393,-0.19096 -0.37886,-0.13037 -0.23195,-0.37132 -0.6717,-0.30243 -0.31381,0.57871 0.12321,0.45224 -0.0207,0.15932 -0.56923,0.13005 -0.71913,0.19471 -0.19295,-0.21476 0.18223,-0.45686 0.13119,-0.24445 -0.28678,-0.12591 0.42897,0.36591 0.0943,-0.0409 -0.0863,-0.30886 -0.43156,-0.0754 -0.1763,-0.41758 -0.24942,0.0639 -0.49476,-0.17012 -0.58069,0.242 0.13332,0.0665 -0.56649,-0.0855 -0.06,-0.12594 -0.0405,-0.0187 -0.0165,-0.329 -0.33225,-0.24891 -0.11979,0.0198 0.0837,0.48301 -0.13392,0.36412 0.008,-0.15069 -0.39665,-0.32785 -0.15748,-0.32812 0.34459,-0.0367 -0.10841,-0.72303 -0.34207,-0.19608 0.059,0.0993 0.10803,0.12738 0.002,0.1682 0.37873,0.31953 -0.4482,0.37892 -0.19422,0.24259 -0.21771,0.1176 -0.41948,0.0293 -0.6662,0.1259 -0.0571,-0.007 -0.47021,0.53214 -0.40355,0.18839 0.0929,6e-5 -0.50322,-0.50816 -0.43743,-0.16336 -0.0469,0.20521 -0.14384,0.20629 -0.0438,0.33615 -0.1866,0.12686 -0.2082,-0.37138 -0.20428,-0.47273 -0.15498,-0.15558 -0.35336,-0.70867 -0.51142,-0.37683 -0.13021,-0.78012 -0.47778,-0.18302 -0.46545,0.21633 0.36685,0.0245 -0.0516,0.80073 -0.0495,0.72438 -0.003,0.48457 -0.59732,0.0739 -0.57895,0.58635 -0.15105,0.11445 -0.3657,0.28294 -0.47078,0.1279 0.15682,-0.20037 -0.44905,-0.10062 -0.21962,-0.26029 -0.35596,-0.0866 -0.25187,-0.37646 -0.38893,-0.18784 -0.17212,-0.24018 -0.11845,-0.36086 -0.35774,-0.28709 0.17696,-0.34695 0.15535,-0.32934 -0.0777,-0.23997 -0.062,-0.27531 0.36637,-0.22031 0.32626,-0.14543 0.17582,-0.0187 0.1149,0.36942 0.39886,0.36211 0.13882,0.10822 0.34481,-0.42631 0.28171,-0.2365 0.12555,-0.35381 -0.40224,0.14653 -0.008,-0.24747 0.36828,-0.21718 0.43875,0.47713 0.59103,-0.0169 -0.12187,-0.25681 -0.41162,-3e-5 0.0247,-0.32139 0.42826,-0.0781 0.28286,-0.60696 0.16413,-0.36207 -0.18669,0.0158 -0.30342,-0.20328 -0.40705,0.0331 -0.0669,-0.26349 -0.16635,-0.20734 -0.28738,-0.17885 -0.0727,-0.27911 -0.23961,-0.17131 -0.32506,-0.5285 -0.14734,-0.48079 -0.21698,0.0809 -0.31074,0.0423 -0.18452,-0.13548 -0.18736,0.28001 -0.43602,-0.0762 -0.10043,0.33679 -0.46814,0.47959 -0.82133,0.43185 0.0245,-0.36772 -0.67564,-0.24675 -0.21322,-0.47261 0.0318,-0.52171 -0.50703,-0.31913 -0.2791,-0.039 -0.2556,-0.0947 -0.58194,-0.18769 -0.71406,-0.27297 0.37913,-0.30033 0.0946,-0.38949 -0.0801,-0.69241 0.0296,-0.24327 0.34471,-0.0207 0.51991,0.0428 0.29049,0.41133 0.55379,-0.29179 0.26632,-0.12894 -0.28943,-0.1161 0.0137,-0.47091 -0.3352,-0.27428 0.099,-0.53822 -0.31887,0.14132 -0.0532,-0.39458 0.003,-0.38909 -0.16019,-0.0203 -0.10564,0.0215 -0.20952,0.20688 -0.35334,-0.20846 -0.39841,-0.29904 0.0914,-0.26124 -0.4385,-0.24476 -0.36411,-0.54704 -0.44232,0.12746 0.35038,-0.10871 0.13484,-0.21072 0.3008,-0.16353 0.13981,-0.237 0.47819,-0.27093 -0.11694,0.0327 -0.30529,-0.34019 -0.51764,-0.14991 0.46441,-0.35206 -0.25689,-0.31228 -0.33878,-0.54017 -0.10873,0.0335 -0.53584,-0.61808 -0.11616,-0.61258 0.30772,-0.0649 0.58808,-0.20862 0.0672,-0.16341 -0.19069,-0.30096 -0.41925,-0.13939 -0.35791,0.0674 0.2071,-0.0695 -0.26632,0.30011 -0.11531,-0.11553 -0.35461,-0.0848 -0.12889,-0.0518 -0.036,-0.16223 -0.27351,-0.25046 -0.3537,-0.3759 -0.0683,-0.3835 -0.14654,-0.18836 0.0408,-0.31589 0.24134,-0.43134 -0.31263,-0.0834 0.0407,-0.40786 -0.0136,-0.42922 0.52549,0.27967 0.13592,-0.49282 0.54328,-0.26592 0.41512,-0.25168 0.0651,0.25792 0.41028,0.33245 0.0138,-0.20035 0.22121,-0.19497 0.42547,-0.38143 -0.28983,-0.36686 0.50428,-0.0534 0.006,-0.36114 -0.13238,-0.3515 0.0128,-0.25026 0.20351,-0.56681 -0.0189,-0.28795 0.18573,-0.52005 0.5144,-0.6384 -0.17351,-0.28828 0.40601,0.009 0.50614,-0.0756 -0.0535,0.21688 -0.61158,0.14224 -0.22843,0.47844 0.0251,0.14995 0.46295,-0.11965 0.24323,-0.1978 0.20514,-0.28224 0.48958,0.1691 0.43083,-0.27643 0.37088,-0.37352 0.28074,0.10724 0.7354,-0.10844 -0.24977,-0.18672 0.42659,0.0811 0.0337,0.167 0.5669,-0.0815 0.33503,-0.44573 -0.0763,-0.4028 -0.28548,-0.14599 0.14026,-0.48825 0.0977,-0.22405 0.14444,-0.073 0.31796,-0.27849 0.43814,-0.2533 -0.22182,-0.34352 -0.37252,-0.14086 -0.34383,-0.47123 -0.13877,-0.44629 0.74349,0.36619 0.61662,0.0919 -0.17251,-0.15277 0.3323,0.26211 0.35036,-0.1196 0.18883,-0.42802 -0.48548,-0.4378 -0.23736,0.0758 -0.16769,-0.19353 0.006,-0.27516 -0.26631,-0.22662 -0.0688,-0.44359 -0.0803,-0.64451 -0.38252,-0.21224 -0.29325,-0.0209 0.11307,0.17261 -0.20436,0.0973 0.0727,0.29749 -0.49226,-0.15577 -0.0543,-0.19483 0.10207,-0.24771 0.47896,-0.0379 0.1898,-0.29931 0.40164,-0.0299 0.0504,-0.5135 0.45442,-0.37192 -0.0928,-0.15117 -0.0186,-0.70572 0.21647,-0.51119 0.31654,-0.16807 0.32344,-0.0106 0.56498,-0.22501 -0.29633,-0.0988 0.3916,-0.0476 0.16269,0.22275 0.13337,-0.18448 0.21666,0.20999 0.19251,-0.12384 0.33928,0.0963 0.32239,-0.52203 0.62549,-0.30279 0.0856,0.13309 0.14052,-0.0855 0.1611,0.22157 0.29058,-0.005 0.0702,0.27368 0.005,0.18436 -0.5396,0.26186 0.0163,0.7899 0.17555,0.44625 0.31718,-0.022 -0.10529,-0.28351 0.34105,-0.1469 0.14043,-0.16754 0.51718,0.35141 0.42403,0.55002 -0.28883,-0.005 -0.21287,0.26138 0.13347,0.24307 0.11245,0.1383 0.0651,-0.22524 0.17143,0.16636 0.61337,0.21331 -0.34447,-0.6778 0.28699,-0.75622 0.0224,0.17114 0.21681,-0.052 0.37924,-0.0184 -0.13319,-0.36419 -0.20274,-0.95037 -0.44957,-0.49059 -0.24924,-0.0784 -0.11615,-0.4728 0.01,-0.43556 0.35863,-0.23517 0.27616,0.52265 0.40328,0.10151 0.17239,0.0914 0.0923,-0.59344 0.27736,-0.37444 z"
         id="path3" /><path
         style="fill:#217821;fill-opacity:1;stroke:#000000;stroke-width:0.0387028;stroke-opacity:1"
         d="m 256.06149,471.03192 c 0.0832,0.37708 0.20317,0.0999 0.3112,0.38143 0.18121,0.0262 0.18276,0.31927 0.41883,0.063 0.224,0.42641 0.002,-0.32429 0.27001,0.13261 -0.14007,0.28725 0.20963,0.2621 0.0232,0.52437 0.0118,-0.0194 -0.44928,0.39566 -0.58565,0.20371 -0.0295,-0.29712 -0.483,-0.30871 -0.52803,-0.0777 -0.1503,0.51327 0.80136,-0.38695 0.17033,0.17701 -0.0527,0.26761 0.35564,0.0834 0.52214,0.11672 0.17337,-0.23763 0.26171,0.36559 0.48629,0.50096 0.3136,0.29118 0.33108,-0.03 0.3773,-0.0765 0.13102,0.0558 -0.007,-0.32344 0.18671,-0.3966 -0.31311,0.0723 -0.3537,0.16832 -0.27067,0.21164 -0.33494,0.19489 -0.18407,-0.31088 -0.25921,-0.57182 0.0953,0.0715 0.48682,0.0728 0.40227,-0.22829 0.0802,0.26746 0.50731,0.0985 0.5503,0.202 0.15549,0.24546 0.37114,0.13287 0.60918,0.43036 0.0621,0.25278 0.0634,0.0704 0.28516,0.18643 0.021,0.16973 -0.16677,0.0511 -0.1663,0.19771 -0.15688,-0.0318 -0.54384,-0.002 -0.53958,0.23358 0.45667,-0.14741 -0.0961,0.21557 0.23006,0.15122 0.31889,0.0717 -0.0928,0.34337 -0.19265,0.0621 -0.26483,0.0398 0.0726,0.30774 -0.25704,0.31864 -0.16562,-0.0265 -0.34627,0.35668 -0.18053,0.49094 -0.11919,0.19694 0.4729,0.17154 0.44805,0.0916 0.41659,-0.0547 0.7042,0.26644 1.13248,0.13051 -0.039,-0.1584 -0.10407,-0.1767 -0.0236,-0.46198 -0.41642,-0.31533 0.36309,-0.0511 0.40166,-0.11664 0.22453,0.0938 0.6394,0.38635 0.0529,0.37572 -0.23238,0.10187 -0.47699,-0.24023 -0.31065,0.17678 -0.18619,0.12687 -0.21384,0.45378 -0.32722,0.59251 0.33208,-0.0577 0.45224,0.39257 0.6683,-0.0515 -0.28839,-0.10593 0.0519,-0.25594 0.16076,-0.21578 -0.17329,-0.13567 0.62751,0.23573 0.64885,-0.24489 0.37141,-0.0625 -0.12887,0.65727 0.2754,0.356 0.5118,-0.0272 0.20544,0.54568 -0.0685,0.55548 0.19619,-0.002 -0.11095,0.23157 0.19782,0.0799 -0.0367,4.3e-4 0.46213,0.53274 0.40746,0.0648 0.18593,-0.0998 -0.55225,0.0446 -0.0806,-0.20994 0.40594,0.007 0.21712,0.0164 0.19219,0.40514 -0.0881,-0.32746 -0.15662,0.3876 -0.0401,0.16178 0.0199,0.36677 0.33208,0.69117 0.11644,0.89792 -0.43826,-0.19848 0.069,0.2022 0.14028,0.0586 0.50583,-0.0447 0.44032,0.22201 0.62777,0.59811 0.50029,-0.0471 -0.14783,-0.25868 0.24058,-0.3032 -0.16418,-0.18221 0.034,-0.28205 0.24486,-0.2387 -0.18611,-0.23595 0.20424,0.18565 0.24993,0.0707 0.23753,0.38809 -0.0909,-0.52373 0.22752,0.008 0.39345,0.20717 -0.14062,0.17518 -0.19933,0.52552 -0.0655,0.2619 -0.0346,0.4586 -0.0555,0.72497 -0.20781,0.16695 -0.28199,0.47533 -0.21623,0.60098 -0.36532,-0.0801 -0.50173,0.26327 -0.56144,0.4389 0.0161,0.0725 -0.36661,0.23061 -0.28298,0.45893 -0.0998,0.0999 0.38956,0.30953 -0.0247,0.30461 0.0605,0.27149 0.31723,-0.0897 0.0712,0.1986 -0.2749,0.15801 -0.0921,-0.19426 -0.23236,-0.1746 0.28212,-0.17155 -0.30833,0.0791 -0.1882,-0.0404 -0.349,-0.002 -0.0605,0.58654 -0.58777,0.36762 -0.17958,0.14024 -0.23618,-0.0566 0.014,-0.10076 -0.14918,-0.0331 0.11646,-0.54039 -0.1897,-0.24626 -0.0565,0.28371 -0.1924,0.20065 -0.1626,0.43734 0.0653,0.11903 -0.47724,0.23624 -0.40444,0.49902 0.14497,0.11122 -0.0165,0.56919 0.20331,0.40332 -0.0767,0.51143 0.0447,0.63489 -0.0365,0.97118 -0.16456,0.1005 -0.41617,0.25198 -0.43718,-0.0453 -0.1758,-0.37798 -0.21251,-0.43367 -0.3739,0.0253 0.245,-0.0448 -0.0167,0.38534 -0.22151,0.35355 -0.32275,-0.39555 -0.28952,0.008 -0.10996,0.149 0.10921,0.39229 -0.54665,-0.054 -0.29567,-0.0943 -0.1883,-0.12243 -0.14334,0.13724 -0.24999,-0.0161 -0.13004,-0.34818 0.36982,-0.0411 0.25146,-0.39059 0.12738,-0.16075 0.37874,-0.10908 0.012,-0.37554 -0.16218,0.0288 -0.43701,0.31108 -0.45706,-0.034 -0.0858,0.16594 -0.21113,0.13002 -0.3856,0.20411 0.26773,0.14451 -0.56674,-0.0206 -0.29226,0.3063 -0.0135,0.34281 -0.4326,-0.0174 -0.31743,0.41213 -0.25015,-0.3753 -0.49052,-0.17658 -0.29102,0.1912 -0.18736,-0.39705 -0.38202,0.12865 -0.5781,0.0136 -0.15713,-0.31874 -0.34539,-0.17457 -0.28539,0.005 0.19124,-0.11217 -0.0608,0.49116 0.3077,0.37147 0.22271,0.17178 0.40084,-0.17283 0.34623,0.23897 0.21691,0.10788 0.23381,-0.0521 0.49178,0.004 0.27693,-0.20534 -0.0967,-0.68996 -0.17048,-0.32754 -0.28451,-0.37143 0.42536,-0.0445 0.24461,-0.32412 -0.0649,-0.14912 0.12854,0.15197 0.36312,-0.0619 0.0282,-0.10769 0.20079,-0.42895 0.32606,-0.0632 0.0578,0.28242 0.16147,0.52644 0.28589,0.65489 0.12839,0.32801 -0.18154,0.38506 -0.0507,0.63479 -0.16456,0.21816 -0.479,-0.002 -0.5305,0.1335 -0.0393,-0.19096 -0.37886,-0.13037 -0.23195,-0.37132 -0.6717,-0.30243 -0.31381,0.57871 0.12321,0.45224 -0.0207,0.15932 -0.56923,0.13005 -0.71913,0.19471 -0.19295,-0.21476 0.18223,-0.45686 0.13119,-0.24445 -0.28678,-0.12591 0.42897,0.36591 0.0943,-0.0409 -0.0863,-0.30886 -0.43156,-0.0754 -0.1763,-0.41758 -0.24942,0.0639 -0.49476,-0.17012 -0.58069,0.242 0.13332,0.0665 -0.56649,-0.0855 -0.06,-0.12594 -0.0405,-0.0187 -0.0165,-0.329 -0.33225,-0.24891 -0.11979,0.0198 0.0837,0.48301 -0.13392,0.36412 0.008,-0.15069 -0.39665,-0.32785 -0.15748,-0.32812 0.34459,-0.0367 -0.10841,-0.72303 -0.34207,-0.19608 0.059,0.0993 0.10803,0.12738 0.002,0.1682 0.37873,0.31953 -0.4482,0.37892 -0.19422,0.24259 -0.21771,0.1176 -0.41948,0.0293 -0.6662,0.1259 -0.0571,-0.007 -0.47021,0.53214 -0.40355,0.18839 0.0929,6e-5 -0.50322,-0.50816 -0.43743,-0.16336 -0.0469,0.20521 -0.14384,0.20629 -0.0438,0.33615 -0.1866,0.12686 -0.2082,-0.37138 -0.20428,-0.47273 -0.15498,-0.15558 -0.35336,-0.70867 -0.51142,-0.37683 -0.13021,-0.78012 -0.47778,-0.18302 -0.46545,0.21633 0.36685,0.0245 -0.0516,0.80073 -0.0495,0.72438 -0.003,0.48457 -0.59732,0.0739 -0.57895,0.58635 -0.15105,0.11445 -0.3657,0.28294 -0.47078,0.1279 0.15682,-0.20037 -0.44905,-0.10062 -0.21962,-0.26029 -0.35596,-0.0866 -0.25187,-0.37646 -0.38893,-0.18784 -0.17212,-0.24018 -0.11845,-0.36086 -0.35774,-0.28709 0.17696,-0.34695 0.15535,-0.32934 -0.0777,-0.23997 -0.062,-0.27531 0.36637,-0.22031 0.32626,-0.14543 0.17582,-0.0187 0.1149,0.36942 0.39886,0.36211 0.13882,0.10822 0.34481,-0.42631 0.28171,-0.2365 0.12555,-0.35381 -0.40224,0.14653 -0.008,-0.24747 0.36828,-0.21718 0.43875,0.47713 0.59103,-0.0169 -0.12187,-0.25681 -0.41162,-3e-5 0.0247,-0.32139 0.42826,-0.0781 0.28286,-0.60696 0.16413,-0.36207 -0.18669,0.0158 -0.30342,-0.20328 -0.40705,0.0331 -0.0669,-0.26349 -0.16635,-0.20734 -0.28738,-0.17885 -0.0727,-0.27911 -0.23961,-0.17131 -0.32506,-0.5285 -0.14734,-0.48079 -0.21698,0.0809 -0.31074,0.0423 -0.18452,-0.13548 -0.18736,0.28001 -0.43602,-0.0762 -0.10043,0.33679 -0.46814,0.47959 -0.82133,0.43185 0.0245,-0.36772 -0.67564,-0.24675 -0.21322,-0.47261 0.0318,-0.52171 -0.50703,-0.31913 -0.2791,-0.039 -0.2556,-0.0947 -0.58194,-0.18769 -0.71406,-0.27297 0.37913,-0.30033 0.0946,-0.38949 -0.0801,-0.69241 0.0296,-0.24327 0.34471,-0.0207 0.51991,0.0428 0.29049,0.41133 0.55379,-0.29179 0.26632,-0.12894 -0.28943,-0.1161 0.0137,-0.47091 -0.3352,-0.27428 0.099,-0.53822 -0.31887,0.14132 -0.0532,-0.39458 0.003,-0.38909 -0.16019,-0.0203 -0.10564,0.0215 -0.20952,0.20688 -0.35334,-0.20846 -0.39841,-0.29904 0.0914,-0.26124 -0.4385,-0.24476 -0.36411,-0.54704 -0.44232,0.12746 0.35038,-0.10871 0.13484,-0.21072 0.3008,-0.16353 0.13981,-0.237 0.47819,-0.27093 -0.11694,0.0327 -0.30529,-0.34019 -0.51764,-0.14991 0.46441,-0.35206 -0.25689,-0.31228 -0.33878,-0.54017 -0.10873,0.0335 -0.53584,-0.61808 -0.11616,-0.61258 0.30772,-0.0649 0.58808,-0.20862 0.0672,-0.16341 -0.19069,-0.30096 -0.41925,-0.13939 -0.35791,0.0674 0.2071,-0.0695 -0.26632,0.30011 -0.11531,-0.11553 -0.35461,-0.0848 -0.12889,-0.0518 -0.036,-0.16223 -0.27351,-0.25046 -0.3537,-0.3759 -0.0683,-0.3835 -0.14654,-0.18836 0.0408,-0.31589 0.24134,-0.43134 -0.31263,-0.0834 0.0407,-0.40786 -0.0136,-0.42922 0.52549,0.27967 0.13592,-0.49282 0.54328,-0.26592 0.41512,-0.25168 0.0651,0.25792 0.41028,0.33245 0.0138,-0.20035 0.22121,-0.19497 0.42547,-0.38143 -0.28983,-0.36686 0.50428,-0.0534 0.006,-0.36114 -0.13238,-0.3515 0.0128,-0.25026 0.20351,-0.56681 -0.0189,-0.28795 0.18573,-0.52005 0.5144,-0.6384 -0.17351,-0.28828 0.40601,0.009 0.50614,-0.0756 -0.0535,0.21688 -0.61158,0.14224 -0.22843,0.47844 0.0251,0.14995 0.46295,-0.11965 0.24323,-0.1978 0.20514,-0.28224 0.48958,0.1691 0.43083,-0.27643 0.37088,-0.37352 0.28074,0.10724 0.7354,-0.10844 -0.24977,-0.18672 0.42659,0.0811 0.0337,0.167 0.5669,-0.0815 0.33503,-0.44573 -0.0763,-0.4028 -0.28548,-0.14599 0.14026,-0.48825 0.0977,-0.22405 0.14444,-0.073 0.31796,-0.27849 0.43814,-0.2533 -0.22182,-0.34352 -0.37252,-0.14086 -0.34383,-0.47123 -0.13877,-0.44629 0.74349,0.36619 0.61662,0.0919 -0.17251,-0.15277 0.3323,0.26211 0.35036,-0.1196 0.18883,-0.42802 -0.48548,-0.4378 -0.23736,0.0758 -0.16769,-0.19353 0.006,-0.27516 -0.26631,-0.22662 -0.0688,-0.44359 -0.0803,-0.64451 -0.38252,-0.21224 -0.29325,-0.0209 0.11307,0.17261 -0.20436,0.0973 0.0727,0.29749 -0.49226,-0.15577 -0.0543,-0.19483 0.10207,-0.24771 0.47896,-0.0379 0.1898,-0.29931 0.40164,-0.0299 0.0504,-0.5135 0.45442,-0.37192 -0.0928,-0.15117 -0.0186,-0.70572 0.21647,-0.51119 0.31654,-0.16807 0.32344,-0.0106 0.56498,-0.22501 -0.29633,-0.0988 0.3916,-0.0476 0.16269,0.22275 0.13337,-0.18448 0.21666,0.20999 0.19251,-0.12384 0.33928,0.0963 0.32239,-0.52203 0.62549,-0.30279 0.0856,0.13309 0.14052,-0.0855 0.1611,0.22157 0.29058,-0.005 0.0702,0.27368 0.005,0.18436 -0.5396,0.26186 0.0163,0.7899 0.17555,0.44625 0.31718,-0.022 -0.10529,-0.28351 0.34105,-0.1469 0.14043,-0.16754 0.51718,0.35141 0.42403,0.55002 -0.28883,-0.005 -0.21287,0.26138 0.13347,0.24307 0.11245,0.1383 0.0651,-0.22524 0.17143,0.16636 0.61337,0.21331 -0.34447,-0.6778 0.28699,-0.75622 0.0224,0.17114 0.21681,-0.052 0.37924,-0.0184 -0.13319,-0.36419 -0.20274,-0.95037 -0.44957,-0.49059 -0.24924,-0.0784 -0.11615,-0.4728 0.01,-0.43556 0.35863,-0.23517 0.27616,0.52265 0.40328,0.10151 0.17239,0.0914 0.0923,-0.59344 0.27736,-0.37444 z"
         id="path4" /><path
         style="fill:#217821;fill-opacity:1;stroke:#000000;stroke-width:0.0551275;stroke-opacity:1"
         d="m 240.07358,458.96375 c 0.28084,-0.52173 -0.2382,-0.23543 0.0133,-0.68194 -0.31071,-0.12527 0.032,-0.5643 -0.4974,-0.43577 0.0625,-0.70793 -0.18635,0.38957 -0.2429,-0.33098 0.36948,-0.28538 0.12271,-0.30138 0.28335,-0.59523 0.16975,-0.23679 0.50951,-0.009 0.96688,0.008 0.0461,0.20409 0.0304,1.05307 0.49331,0.6567 0.68121,-0.0914 -0.44348,-0.36219 -0.30602,-0.29391 0.93099,0.0886 0.0937,-0.48694 0.0466,-0.47894 -0.38388,0.0556 -0.55734,-0.3843 -0.27551,-0.71729 -0.0418,-0.58931 -0.42546,-0.87943 -0.58722,-0.59901 -0.10673,-0.17299 -0.25758,0.3827 -0.54334,0.30712 0.4235,0.17364 0.55022,0.0946 0.48882,-0.0234 0.52095,0.0447 0.0254,0.39302 -0.0662,0.69653 -0.16441,0.60661 -0.38203,-0.63672 -0.64137,0.0811 -0.11487,0.16741 -0.38062,-0.7043 -0.61432,-0.59513 -0.0233,-0.46043 -0.0861,-0.41391 -0.33174,-0.87641 -0.0149,-0.53633 0.15693,-0.30546 -0.19346,-0.60518 0.22415,-0.39228 0.0526,0.22744 0.41505,-0.15514 -0.0228,0.1942 0.57164,0.44984 0.7851,0.235 -0.63658,-0.25418 0.24698,-0.18997 -0.15262,-0.39744 -0.31186,-0.34606 0.38993,-0.32194 0.27478,0.0867 0.34143,0.17102 0.16864,-0.41865 0.56151,-0.15853 0.20056,0.10752 0.41932,0.004 0.65279,-0.28459 -0.15974,-0.1215 0.32438,-0.46641 -0.28404,-0.44465 -0.11165,-0.27382 -0.64387,-0.39475 -0.82304,-0.79404 -0.25795,-0.39665 -0.79987,-0.5643 -0.66273,-0.15908 -0.39538,0.15479 -0.16658,0.9735 -0.50691,0.21634 -0.52863,0.0409 -0.33883,-0.43074 -0.57656,-0.72619 0.15409,-0.28096 0.78292,0.357 0.8477,0.34416 0.017,0.28958 0.23571,-0.35373 0.51625,-0.35238 0.13569,-0.29571 0.86002,-0.0789 0.28617,-0.52709 -0.1356,0.007 -0.1498,-0.64129 -0.60468,-0.23127 0.2863,0.17026 -0.27721,0.52357 -0.30605,0.0557 -0.0115,0.51894 -0.50844,-0.76976 -1.01497,-0.18595 -0.48607,-0.24442 0.68825,-0.66231 -0.0275,-0.64047 -0.61733,-0.38953 0.20881,-0.80359 0.53577,-0.58983 -0.30859,-0.28097 0.37645,0.0705 -0.0962,-0.32135 -0.11914,0.32645 -0.0903,-1.01124 -0.48954,-0.34428 -0.33159,-0.0366 0.64855,0.358 -0.002,0.3115 -0.3287,-0.3628 -0.54491,-0.0745 -0.10494,-0.48999 0.24669,-0.41953 -0.0214,0.35906 0.29475,-0.13911 0.26239,-0.15838 -0.19334,-0.14 0.24822,-0.56529 -0.14429,-0.38324 0.32959,-0.9954 0.49346,-0.50819 0.18384,-0.366 -0.55828,-0.43334 -0.58728,-0.85352 -0.25038,0.0734 0.56157,-1.22701 -0.27386,-0.73967 0.29465,0.18302 -0.16887,0.23402 -0.19576,0.2995 -0.16801,0.36579 -0.41519,-0.35859 -0.39733,0.0702 -0.22739,-0.26269 -0.14725,-0.87914 -0.42911,-0.44702 -0.11935,0.43343 -0.0226,-0.66129 -0.19289,-0.49672 0.65298,0.15656 0.8431,-0.34065 1.21436,-0.56634 -0.13517,-0.48121 0.59556,-0.28506 0.72945,-0.65271 0.3073,0.009 0.0988,-0.51634 0.56044,3.8e-4 0.0275,-0.21775 0.66085,-0.0146 0.56533,-0.2754 0.2253,-0.27405 0.37488,0.18254 0.73158,-0.18759 0.15971,-0.10828 0.1713,-0.31581 0.12226,-0.56234 0.4005,0.22895 0.27118,-0.28039 0.0801,-0.11131 0.23475,-0.35147 0.62688,0.1262 0.34431,0.18626 0.27352,0.25404 -0.4921,0.0463 0.17018,0.20805 -0.16557,0.12009 0.55479,0.41306 0.51253,-0.12765 0.37242,0.1751 0.785,0.28517 0.72264,0.46784 -0.37897,-0.18353 -0.27454,0.14848 -0.55574,0.38584 0.32673,0.0577 0.52333,-0.25921 0.6883,-0.18587 0.0811,-0.2435 0.18475,-0.3918 0.58639,-0.18458 0.52315,-0.12983 0.39593,-0.38265 0.59818,-0.68801 0.26938,-0.0783 -0.0784,-0.20491 -0.036,-0.27174 0.5061,-0.51265 0.44355,-0.71736 0.83545,-1.07046 0.3,0.11283 0.70167,0.0727 0.40331,0.51868 -0.1742,0.65296 0.19644,0.47832 0.42537,0.16243 -0.14366,-0.0943 0.49579,-0.48277 0.62359,-0.11081 -0.0659,0.55793 0.54022,0.29312 0.11155,-0.11627 0.35694,-0.52953 0.49723,0.1471 0.51151,0.28043 -0.25984,-0.0458 -0.0112,0.34552 0.1825,0.10814 -0.1015,0.14341 0.0688,0.41283 -0.40536,0.31583 0.11239,-0.38255 -0.56501,0.51957 -0.52842,0.002 -0.59657,0.73678 0.84275,0.34807 0.48185,0.91668 0.23658,-0.12358 0.35285,0.0222 0.61653,0.0793 -0.24836,-0.44427 0.66247,0.52691 0.49499,-0.0972 0.37051,-0.40368 0.55809,0.33582 0.80559,-0.23729 -0.0189,0.64258 0.42713,0.60741 0.49653,0.0163 -0.0729,0.50992 0.42455,0.31888 0.67317,0.36778 0.0193,0.47767 0.099,0.71234 0.38128,0.29485 -0.38523,0.0739 0.41296,-0.48124 -0.087,-0.65772 -0.11798,-0.38294 -0.60826,-0.12852 -0.20622,-0.56264 -0.13741,-0.35975 -0.32323,-0.0227 -0.51332,-0.43952 -0.38945,0.0615 -0.64422,0.69608 -0.18093,0.62742 0.18552,0.0313 -0.15602,0.44248 -0.31134,-0.0529 -0.14974,0.11156 -0.36726,0.42949 -0.17006,0.0605 -0.40657,-0.1688 -0.63202,-0.12525 -0.83232,0.0237 -0.45487,-0.37351 0.49548,-1.06097 0.0606,-1.21993 0.0911,-0.41954 0.46406,-0.58108 0.60761,-0.65329 0.15066,-0.58671 0.65098,0.33515 0.75784,0.10841 -0.20506,0.21018 0.45389,0.49603 -0.0398,0.56665 0.23549,0.72575 0.74129,0.204 0.5832,-0.20534 -0.42687,-0.27735 -0.40221,-0.69162 0.0499,-0.19865 0.17215,-0.23288 0.72424,0.33107 0.55238,0.32128 -0.22255,0.62643 -0.50478,-0.21354 -0.23734,0.14043 -0.12367,-0.84334 -0.45001,0.30459 -0.0346,0.33904 -0.56309,0.24139 0.0644,0.19127 0.0504,0.548 0.61997,0.0622 0.34618,-0.54838 0.75563,0.0513 0.0363,0.19194 -0.33956,-0.18679 -0.27716,0.0666 -0.29087,0.0158 0.13427,0.7041 0.38271,0.40982 -0.33754,-0.30504 0.6482,-0.52591 0.15506,-0.0613 0.34185,0.25172 -0.0259,0.47718 -0.05,0.23663 -0.92543,0.34674 0.50393,1.01484 0.26466,0.38096 0.23111,0.20339 0.19118,-0.73204 0.69743,-0.16172 -0.21651,0.16426 0.29175,-0.032 0.44542,0.38926 0.37229,0.0195 0.50859,0.15168 0.92538,-0.0537 0.33908,0.35087 -0.29565,0.0844 0.10219,0.46489 -0.12449,0.63312 0.38358,0.28471 0.54245,0.17973 -0.023,-0.19404 0.34788,-0.4805 0.10877,0.13005 -0.22078,0.12859 -0.25122,0.76436 -0.14407,1.09539 -0.22775,0.33792 0.51749,-0.0662 0.16098,0.48971 -0.32764,0.76606 1.19294,-0.19875 0.64476,-0.35362 0.3404,-0.45712 0.68875,-0.69037 0.81623,-0.68205 0.30337,-0.75067 0.75025,0.5183 0.97809,-0.17963 0.36854,-0.031 0.7994,-0.10067 0.83029,0.21168 -0.34718,0.10437 0.43986,0.48598 0.0409,0.48408 0.34142,0.39344 -0.0157,0.64361 0.29688,0.53757 0.0435,0.42041 -0.16941,0.5168 0.18077,0.62926 -0.49073,0.25789 -0.45157,0.25544 -0.10695,0.34322 -0.15409,0.37121 -0.60734,-0.045 -0.49908,-0.0991 -0.32164,-0.0672 0.25873,-0.48066 -0.11009,-0.60717 -0.0196,-0.51546 -0.62488,0.071 -0.64187,-0.10069 -0.33083,0.22983 0.54217,0.17587 -0.0117,0.28765 -0.6952,0.11619 -0.2705,-0.83485 -0.74214,-0.51947 -0.34982,0.37192 0.5363,0.4603 -0.36904,0.41574 -0.31279,-0.11797 -1.078,0.19179 -0.44341,0.37308 0.0247,-0.25142 0.1887,0.52409 0.45591,0.20895 -0.13824,0.3616 0.0227,0.37677 0.1876,0.44404 -0.14507,0.38452 0.13832,0.39585 -0.0572,0.88175 -0.22441,0.67995 0.31933,0.0842 0.39665,0.20631 0.10367,0.30955 0.44765,-0.17252 0.44426,0.4468 0.37702,-0.21536 0.8075,-0.30173 1.20948,0.13101 0.0695,0.15195 0.0632,0.53819 0.27394,0.78117 -0.57287,-0.30503 -0.44861,1.06064 -0.0626,0.40289 0.13739,-0.31742 0.38544,0.57724 0.62563,0.63017 0.25661,0.32737 -0.97273,0.0853 -0.38686,0.67546 -0.0507,0.63676 -0.39014,0.3466 -0.53976,0.01 -0.10425,-0.37961 -0.49893,-0.82521 -0.67884,-0.23644 0.56847,-0.20527 -0.27073,0.76252 0.31998,0.55712 -0.14095,0.31723 -0.23343,0.39206 0.0621,0.35508 -0.60438,0.10561 -0.32716,0.80098 -0.21231,0.20332 0.4927,0.10139 0.13257,0.3115 0.35344,0.71883 -0.51393,0.10885 0.17709,0.61225 -0.0783,0.90784 0.28796,0.18655 0.0818,0.0932 -0.39706,0.0339 0.25761,0.23006 -0.49637,0.0794 -0.47348,0.20924 -0.64785,-0.38468 0.10535,0.10882 -0.1223,0.39436 0.72512,0.0752 -0.53709,0.0414 0.10674,0.49631 -0.10193,0.12083 0.39106,0.30255 0.14627,0.62587 0.2383,-0.002 0.0291,1.13952 -0.50378,0.62272 -0.85604,-0.35554 0.0844,0.078 0.0505,0.59017 0.48746,0.0199 0.2165,-0.49707 0.54828,-0.1951 -0.36283,0.28669 0.3452,0.67384 -0.19701,0.35585 -0.0344,0.48869 0.12897,0.85058 -0.28089,0.57405 0.0457,0.11076 -0.19321,0.43837 -0.34483,0.32194 -0.45346,-0.31172 0.0293,0.50779 -0.54364,0.34929 0.0887,0.51835 -0.49694,-0.58169 -0.55218,0.12471 -0.24487,0.0833 -0.39241,-0.0924 -0.7356,-0.29025 0.28102,-0.003 0.31003,-0.65621 0.033,-0.48273 -0.19781,0.0211 -0.26163,0.12916 -0.67392,-0.0481 -0.10214,0.54198 -0.15569,0.19188 -0.44745,0.17924 0.16668,0.6039 0.0201,0.71749 -0.42527,0.73809 -0.2978,0.11454 -0.56787,0.6274 -0.99009,0.40085 -0.3559,0.0206 -0.48335,0.32372 -0.7161,-0.28659 -0.54517,0.0128 0.19591,-0.2698 0.41312,0.0193 0.019,-0.44338 0.12999,-0.67344 -0.33838,-0.58234 0.0201,-0.0253 -0.36301,0.46382 -0.50098,-0.0335 -0.0336,-0.21251 -0.54018,0.47805 -0.84862,0.0535 0.31363,-0.20759 -0.55941,-0.47655 -0.42262,-0.2068 -0.47285,-0.57303 0.53342,-0.25458 -0.28521,-0.51992 -0.56165,0.16207 0.13836,0.4621 0.21267,0.79893 -0.50195,0.68494 -0.18733,-0.31807 -0.72866,0.12902 -0.68263,-0.64181 -0.10411,0.56784 -0.21646,0.48552 -0.16885,0.71393 -0.58315,-0.0661 -0.70507,-0.56835 -0.12588,0.47107 0.0615,0.086 -0.29148,-0.11878 -0.68461,-0.1035 -0.4536,1.18698 -0.0439,0.43063 0.34634,-0.53052 -0.24355,0.40876 0.23412,0.21169 -0.0937,0.52167 -0.59054,0.94378 0.20857,0.63492 0.43218,0.16943 -8.5e-4,-0.14841 0.40344,0.002 -0.0414,0.13655 0.28393,-0.2869 0.21399,0.26487 -0.12954,0.37133 -1.03111,-0.33686 -0.79272,0.24736 -0.29636,-0.15939 -0.3721,0.003 -0.55448,0.17847 0.0905,0.22324 -0.46958,-0.3867 -0.3079,0.0938 -0.47317,0.23179 -0.35383,0.60205 -0.85414,0.10923 -0.32303,0.0901 -0.14972,-0.19622 -0.65253,-0.14501 0.0594,0.57522 -0.10587,-0.63176 -0.10789,-0.25514 -2.1e-4,-0.67091 -0.22709,0.21202 -0.59889,-0.27526 -0.52945,0.61616 -0.531,-0.33511 -0.72786,-0.0891 0.18202,-0.17647 -0.0401,-0.73678 0.18897,-0.55575 0.10739,0.10033 1.00134,-0.0611 0.61928,-0.48789 3e-4,-0.42269 -0.27617,0.11267 -0.58524,-0.20675 0.1597,0.38808 -0.32553,-0.0549 -0.40133,-0.10758 -0.19189,0.0513 -0.13226,-1.1977 0.11095,-0.78132 0.69692,-0.0866 -0.0454,-0.45778 -0.0517,-0.64755 -0.055,0.36213 -0.0373,-1.05453 -0.41036,-0.17088 0.32549,0.54094 -0.57303,0.74309 -0.5475,0.49737 -0.0279,0.0363 -0.62489,-0.52156 -0.50002,0.15383 -0.41372,0.44573 -0.23613,0.84052 0.16095,0.58895 0.22611,0.29659 -0.2547,0.64521 -0.36906,0.49864 -0.63712,0.0632 0.13931,-0.91814 -0.35369,-0.40226 -0.10837,-0.40244 -0.62489,0.59297 -0.66541,0.1659 z"
         id="path5" /></g><path
       style="fill:none;stroke:#000000;stroke-width:1.77165;stroke-linecap:butt;stroke-linejoin:miter;stroke-miterlimit:4;stroke-dasharray:3.54331, 3.54331;stroke-dashoffset:0;stroke-opacity:1"
       d="m 173.38865,167.67154 v 35.43307"
       id="path1844"
       sodipodi:nodetypes="cc" /><path
       style="fill:none;stroke:#000000;stroke-width:1.77165;stroke-linecap:butt;stroke-linejoin:miter;stroke-miterlimit:4;stroke-dasharray:3.54331, 3.54331;stroke-dashoffset:0;stroke-opacity:1"
       d="m 490.51464,167.67154 v 35.43307"
       id="path1846" /><g
       id="g5"><g
         id="g3"><path
           style="fill:none;stroke:#000000;stroke-width:1.41732;stroke-linecap:butt;stroke-linejoin:miter;stroke-miterlimit:4;stroke-dasharray:none;stroke-opacity:1;marker-end:url(#Arrow1Lend)"
           d="M 302.09358,185.38808 H 177.02601"
           id="path1852"
           sodipodi:nodetypes="cc" /><path
           style="fill:none;stroke:#000000;stroke-width:1.41732;stroke-linecap:butt;stroke-linejoin:miter;stroke-miterlimit:4;stroke-dasharray:none;stroke-opacity:1;marker-end:url(#marker2522)"
           d="M 361.80971,185.38808 H 486.87728"
           id="path2518"
           sodipodi:nodetypes="cc" /></g><g
         id="text1"
         style="font-size:17.5px;font-family:'Nova Round';-inkscape-font-specification:'Nova Round, Normal';text-align:center;text-anchor:middle;stroke-width:0.311811;stroke-linecap:round"
         aria-label="36&quot;"><path
           style="font-size:16.25px"
           d="m 319.16937,188.12245 1.50757,-0.71411 h 0.0793 v 0.71411 q 0,1.04737 0.57129,1.7218 0.6903,0.81726 1.84875,0.81726 1.13464,0 1.84876,-0.81726 0.56335,-0.6427 0.56335,-1.64245 0,-0.93628 -0.46814,-1.48377 -0.65063,-0.74585 -1.95984,-0.74585 -1.08703,0 -1.76147,0.34912 l 2.62634,-4.92736 h -4.15772 v -0.0793 l 0.6427,-1.36475 h 5.97474 l -2.72156,4.76075 q 1.39648,0.008 2.33276,0.83313 1.0791,0.95214 1.0791,2.64221 0,1.61865 -1.06323,2.75329 -1.08703,1.15052 -2.93579,1.15052 -1.84875,0 -2.93579,-1.15052 -1.07117,-1.13464 -1.07117,-2.81677 z m 18.67005,-5.06225 -1.45996,0.69824 h -0.0793 q 0,-1.0553 -0.57129,-1.7218 -0.71411,-0.81726 -1.68213,-0.81726 -1.15051,0 -1.85669,0.81726 -0.57129,0.65857 -0.57129,1.7218 v 1.47583 q 1.0315,-0.93628 2.42005,-0.93628 1.84875,0 2.93579,1.15051 1.07117,1.13465 1.07117,2.73743 0,1.61865 -1.07117,2.75329 -1.08704,1.15052 -2.93579,1.15052 -1.84876,0 -2.93579,-1.15052 -1.07117,-1.13464 -1.07117,-2.73742 v -4.44336 q 0,-1.68213 1.07117,-2.81677 1.08703,-1.15052 2.93579,-1.15052 1.75354,0 2.7771,1.07117 1.02356,1.06323 1.02356,2.19788 z m -3.80066,2.66601 q -1.13465,0 -1.84876,0.81726 -0.57129,0.65857 -0.57129,1.65833 0,0.97595 0.57129,1.64245 0.69824,0.81726 1.84876,0.81726 1.11877,0 1.84875,-0.81726 0.57129,-0.6427 0.57129,-1.64245 0,-0.99182 -0.57129,-1.65833 -0.69824,-0.81726 -1.84875,-0.81726 z"
           id="path8" /><path
           d="m 344.6485,178.68642 h 0.0854 v 4.13574 l -1.33301,0.63232 h -0.0854 v -4.13574 z m -2.40112,0 h 0.0854 v 4.13574 l -1.333,0.63232 h -0.0854 v -4.13574 z"
           id="path9" /></g></g><path
       style="fill:none;stroke:#000000;stroke-width:1.77165;stroke-linecap:butt;stroke-linejoin:miter;stroke-miterlimit:4;stroke-dasharray:3.54331, 3.54331;stroke-dashoffset:0;stroke-opacity:1"
       d="m 137.06974,521.11643 h 35.43307"
       id="path2700"
       sodipodi:nodetypes="cc" /><path
       style="fill:none;stroke:#000000;stroke-width:1.77165;stroke-linecap:butt;stroke-linejoin:miter;stroke-miterlimit:4;stroke-dasharray:3.54331, 3.54331;stroke-dashoffset:0;stroke-opacity:1"
       d="m 137.06974,203.99044 h 35.43307"
       id="path2702" /><path
       style="fill:#888a85;stroke:#000000;stroke-width:0.615334px;stroke-linecap:butt;stroke-linejoin:miter;stroke-opacity:1"
       d="m 220.66497,363.8529 c -1.89728,1.65627 -4.55355,3.89586 -5.59423,5.28344 -1.04068,1.38758 1.12519,5.41467 0,7.45898 -1.12519,2.04431 -4.75855,9.48307 -2.48632,12.43163 2.27222,2.94856 7.79702,7.73255 9.63451,7.76978 1.83749,0.0372 6.94384,-2.85686 9.01293,-4.04029 2.0691,-1.18343 2.51594,-2.15224 4.35107,-2.79711 1.83513,-0.64488 5.61223,-0.84122 6.21582,-4.04029 0.6036,-3.19906 -0.87131,-8.31862 -0.62158,-11.81005 0.24973,-3.49142 -2.04295,-5.23752 -2.79712,-8.08055 -0.75416,-2.84304 -5.65237,-3.98691 -8.39135,-3.7295 -2.73898,0.25741 -7.42644,-0.10231 -9.32373,1.55396 z"
       id="path1935"
       sodipodi:nodetypes="zzzzzzzzzzzz" /><path
       style="fill:#888a85;stroke:#000000;stroke-width:0.615334px;stroke-linecap:butt;stroke-linejoin:miter;stroke-opacity:1"
       d="m 244.27491,342.40123 c -0.17042,2.51274 -0.46506,5.97463 -0.21976,7.69167 0.24529,1.71704 4.62438,3.03313 5.2743,5.27431 0.64992,2.24117 3.34074,10.07034 7.0324,10.54858 3.69165,0.47824 10.98107,-0.0456 12.3067,-1.31856 1.32561,-1.273 2.88993,-6.93015 3.51618,-9.23003 0.62627,-2.29989 0.25718,-3.3009 1.09882,-5.05453 0.84163,-1.75363 3.37361,-4.56328 1.53833,-7.25216 -1.83527,-2.68889 -6.49826,-5.26605 -8.79049,-7.91145 -2.29223,-2.6454 -5.14808,-2.25891 -7.69168,-3.73595 -2.54361,-1.47706 -6.816,1.17766 -8.57074,3.29642 -1.75473,2.11877 -5.32363,5.17895 -5.49406,7.6917 z"
       id="path2218"
       sodipodi:nodetypes="zzzzzzzzzzzz" /><path
       style="fill:#888a85;stroke:#000000;stroke-width:0.615334px;stroke-linecap:butt;stroke-linejoin:miter;stroke-opacity:1"
       d="m 264.96513,408.84703 c 2.51274,0.17042 5.97463,0.46506 7.69167,0.21976 1.71704,-0.24529 3.03313,-4.62438 5.27431,-5.2743 2.24117,-0.64992 10.07034,-3.34074 10.54858,-7.0324 0.47824,-3.69165 -0.0456,-10.98107 -1.31856,-12.3067 -1.273,-1.32561 -6.93015,-2.88993 -9.23003,-3.51618 -2.29989,-0.62627 -3.3009,-0.25718 -5.05453,-1.09882 -1.75363,-0.84163 -4.56328,-3.37361 -7.25216,-1.53833 -2.68889,1.83527 -5.26605,6.49826 -7.91145,8.79049 -2.6454,2.29223 -2.25891,5.14808 -3.73595,7.69168 -1.47706,2.54361 1.17766,6.816 3.29642,8.57074 2.11877,1.75473 5.17895,5.32363 7.6917,5.49406 z"
       id="path2220"
       sodipodi:nodetypes="zzzzzzzzzzzz" /><rect
       style="fill:#666666;stroke:#000000;stroke-width:1.13736;stroke-miterlimit:4;stroke-dasharray:none;stop-color:#000000"
       id="rect2232"
       width="41.702194"
       height="30.025129"
       x="424.9465"
       y="349.46274"
       ry="1.5819442" /><rect
       style="fill:#666666;stroke:#000000;stroke-width:1.38563;stroke-miterlimit:4;stroke-dasharray:none;stop-color:#000000"
       id="rect2230"
       width="70.07933"
       height="69.605827"
       x="410.75793"
       y="376.96252"
       ry="2.34375" /><rect
       style="fill:#666666;stroke:#000000;stroke-width:1.38563;stroke-miterlimit:4;stroke-dasharray:none;stop-color:#000000"
       id="rect2238"
       width="53.170845"
       height="34.951809"
       x="252.4167"
       y="271.67276"
       ry="2.6785715" /><path
       style="fill:none;stroke:#000000;stroke-width:1.38563;stroke-linecap:butt;stroke-linejoin:miter;stroke-miterlimit:4;stroke-dasharray:none;stroke-opacity:1"
       d="M 263.13099,271.67277 H 172.88367"
       id="path2240"
       sodipodi:nodetypes="cc" /><g
       id="g9140"
       transform="matrix(0.30501998,-1.13835,1.13835,0.30501998,-170.1106,395.12622)"><path
         style="fill:#536c53;stroke:#000000;stroke-width:0.253919;stroke-linecap:butt;stroke-linejoin:miter;stroke-miterlimit:4;stroke-dasharray:none;stroke-opacity:1;fill-opacity:1"
         d="m 246.56036,435.53943 c -3.63352,0.27179 -7.62691,2.86983 -13.82746,2.79942 -6.20055,-0.0704 -18.08302,-4.11364 -21.71673,-0.33932 -4.23592,4.90817 -1.27706,12.83503 -0.2545,15.86341 1.00703,3.05802 -0.44085,10.01988 0.25449,13.31846 0.69533,3.29858 2.4317,12.75485 8.82243,18.32351 6.39072,5.56865 18.38697,0.83265 27.65491,3.39323 9.26794,2.56059 10.70173,4.70775 14.67577,2.46011 3.97405,-2.24765 6.65725,-6.93213 7.3803,-10.0949 0.72305,-3.16276 -3.38604,-16.6995 -5.68368,-24.68582 -2.29763,-7.98632 -2.4465,-11.00513 -7.33789,-15.312 -4.60673,-3.9718 -6.70645,-5.95878 -9.96764,-5.7261 z"
         id="path9130"
         sodipodi:nodetypes="czcczzzzzzcc" /><path
         style="fill:#217821;fill-opacity:1;stroke-width:0.0551275;stroke:#000000;stroke-opacity:1"
         d="m 221.10406,466.84459 c 0.52173,0.28084 0.23543,-0.2382 0.68194,0.0133 0.12527,-0.31071 0.5643,0.032 0.43577,-0.4974 0.70793,0.0625 -0.38957,-0.18635 0.33098,-0.2429 0.28538,0.36948 0.30138,0.12271 0.59523,0.28335 0.23679,0.16975 0.009,0.50951 -0.008,0.96688 -0.20409,0.0461 -1.05307,0.0304 -0.6567,0.49331 0.0914,0.68121 0.36219,-0.44348 0.29391,-0.30602 -0.0886,0.93099 0.48694,0.0937 0.47894,0.0466 -0.0556,-0.38388 0.3843,-0.55734 0.71729,-0.27551 0.58931,-0.0418 0.87943,-0.42546 0.59901,-0.58722 0.17299,-0.10673 -0.3827,-0.25758 -0.30712,-0.54334 -0.17364,0.4235 -0.0946,0.55022 0.0234,0.48882 -0.0447,0.52095 -0.39302,0.0254 -0.69653,-0.0662 -0.60661,-0.16441 0.63672,-0.38203 -0.0811,-0.64137 -0.16741,-0.11487 0.7043,-0.38062 0.59513,-0.61431 0.46043,-0.0233 0.41391,-0.0861 0.87641,-0.33175 0.53633,-0.0149 0.30546,0.15693 0.60518,-0.19346 0.39228,0.22415 -0.22744,0.0526 0.15514,0.41506 -0.1942,-0.0228 -0.44984,0.57163 -0.235,0.78509 0.25418,-0.63658 0.18997,0.24698 0.39744,-0.15262 0.34606,-0.31186 0.32194,0.38993 -0.0867,0.27478 -0.17102,0.34143 0.41865,0.16864 0.15853,0.56151 -0.10752,0.20056 -0.004,0.41932 0.28459,0.65279 0.1215,-0.15974 0.46641,0.32438 0.44465,-0.28404 0.27382,-0.11165 0.39475,-0.64387 0.79404,-0.82304 0.39665,-0.25795 0.5643,-0.79987 0.15908,-0.66273 -0.15479,-0.39538 -0.9735,-0.16658 -0.21634,-0.50691 -0.0409,-0.52863 0.43074,-0.33883 0.72619,-0.57656 0.28096,0.15409 -0.357,0.78292 -0.34415,0.8477 -0.28959,0.017 0.35372,0.23571 0.35237,0.51625 0.29571,0.13569 0.0789,0.86002 0.52709,0.28617 -0.007,-0.1356 0.64129,-0.1498 0.23127,-0.60468 -0.17026,0.2863 -0.52357,-0.27721 -0.0557,-0.30605 -0.51894,-0.0115 0.76976,-0.50844 0.18595,-1.01497 0.24442,-0.48607 0.66231,0.68825 0.64047,-0.0275 0.38953,-0.61733 0.80359,0.20881 0.58984,0.53577 0.28096,-0.30859 -0.0705,0.37645 0.32134,-0.0962 -0.32645,-0.11914 1.01124,-0.0903 0.34428,-0.48954 0.0366,-0.33159 -0.358,0.64855 -0.3115,-0.002 0.3628,-0.3287 0.0745,-0.54491 0.48999,-0.10494 0.41953,0.24669 -0.35906,-0.0213 0.13911,0.29475 0.15838,0.26239 0.14,-0.19334 0.56529,0.24822 0.38324,-0.14429 0.9954,0.32959 0.50819,0.49346 0.366,0.18384 0.43334,-0.55828 0.85352,-0.58728 -0.0734,-0.25038 1.22701,0.56157 0.73967,-0.27386 -0.18302,0.29465 -0.23402,-0.16887 -0.2995,-0.19576 -0.36579,-0.16801 0.35859,-0.41519 -0.0702,-0.39733 0.26269,-0.22739 0.87914,-0.14725 0.44702,-0.42911 -0.43343,-0.11935 0.66129,-0.0226 0.49672,-0.19289 -0.15656,0.65298 0.34065,0.8431 0.56634,1.21436 0.48121,-0.13517 0.28506,0.59556 0.65271,0.72945 -0.009,0.3073 0.51634,0.0988 -3.8e-4,0.56044 0.21775,0.0275 0.0146,0.66085 0.2754,0.56533 0.27405,0.2253 -0.18254,0.37488 0.18759,0.73158 0.10828,0.15971 0.31581,0.1713 0.56234,0.12226 -0.22895,0.4005 0.28039,0.27118 0.11131,0.0801 0.35147,0.23475 -0.1262,0.62688 -0.18626,0.34431 -0.25404,0.27352 -0.0463,-0.4921 -0.20805,0.17018 -0.12009,-0.16557 -0.41306,0.55479 0.12766,0.51253 -0.17511,0.37242 -0.28518,0.785 -0.46785,0.72264 0.18353,-0.37897 -0.14848,-0.27454 -0.38584,-0.55574 -0.0577,0.32673 0.25921,0.52333 0.18587,0.6883 0.2435,0.0811 0.3918,0.18475 0.18458,0.58639 0.12983,0.52315 0.38265,0.39593 0.68801,0.59818 0.0783,0.26938 0.20491,-0.0784 0.27174,-0.036 0.51265,0.5061 0.71736,0.44355 1.07046,0.83545 -0.11283,0.3 -0.0727,0.70167 -0.51868,0.40331 -0.65296,-0.1742 -0.47832,0.19644 -0.16243,0.42537 0.0943,-0.14366 0.48277,0.49579 0.11081,0.62359 -0.55793,-0.0659 -0.29312,0.54022 0.11628,0.11155 0.52952,0.35694 -0.14711,0.49723 -0.28044,0.51151 0.0458,-0.25984 -0.34552,-0.0112 -0.10814,0.1825 -0.14341,-0.1015 -0.41283,0.0688 -0.31583,-0.40536 0.38255,0.11239 -0.51957,-0.56501 -0.002,-0.52842 -0.73678,-0.59657 -0.34807,0.84275 -0.91668,0.48185 0.12358,0.23658 -0.0222,0.35285 -0.0793,0.61653 0.44427,-0.24836 -0.52691,0.66247 0.0973,0.49499 0.40367,0.37051 -0.33583,0.55809 0.23728,0.80559 -0.64258,-0.0189 -0.60741,0.42713 -0.0162,0.49653 -0.50992,-0.0729 -0.31888,0.42455 -0.36778,0.67317 -0.47767,0.0193 -0.71234,0.099 -0.29485,0.38128 -0.0739,-0.38523 0.48124,0.41296 0.65772,-0.087 0.38294,-0.11798 0.12852,-0.60826 0.56264,-0.20622 0.35975,-0.13741 0.0227,-0.32323 0.43952,-0.51332 -0.0614,-0.38945 -0.69608,-0.64422 -0.62742,-0.18093 -0.0313,0.18552 -0.44248,-0.15602 0.0529,-0.31134 -0.11156,-0.14974 -0.42949,-0.36726 -0.0605,-0.17006 0.1688,-0.40657 0.12525,-0.63202 -0.0237,-0.83232 0.37351,-0.45487 1.06097,0.49548 1.21993,0.0606 0.41954,0.0911 0.58108,0.46406 0.65329,0.60761 0.58671,0.15066 -0.33515,0.65098 -0.1084,0.75784 -0.21019,-0.20506 -0.49604,0.45389 -0.56666,-0.0398 -0.72575,0.23549 -0.204,0.74129 0.20534,0.5832 0.27735,-0.42687 0.69162,-0.40221 0.19865,0.0499 0.23288,0.17215 -0.33107,0.72424 -0.32128,0.55238 -0.62643,-0.22255 0.21354,-0.50478 -0.14043,-0.23734 0.84334,-0.12367 -0.30459,-0.45001 -0.33904,-0.0346 -0.24139,-0.56309 -0.19127,0.0644 -0.548,0.0504 -0.0622,0.61997 0.54838,0.34618 -0.0513,0.75563 -0.19195,0.0363 0.18678,-0.33956 -0.0666,-0.27716 -0.0158,-0.29087 -0.7041,0.13427 -0.40982,0.38271 0.30504,-0.33754 0.52591,0.6482 0.0613,0.15506 -0.25172,0.34185 -0.47718,-0.0259 -0.23663,-0.05 -0.34674,-0.92543 -1.01484,0.50393 -0.38096,0.26466 -0.20339,0.23111 0.73204,0.19118 0.16172,0.69743 -0.16426,-0.21651 0.032,0.29175 -0.38926,0.44542 -0.0195,0.37229 -0.15168,0.50859 0.0537,0.92538 -0.35088,0.33908 -0.0845,-0.29565 -0.4649,0.10219 -0.63312,-0.12449 -0.28471,0.38358 -0.17973,0.54245 0.19404,-0.023 0.4805,0.34788 -0.13005,0.10877 -0.12859,-0.22078 -0.76436,-0.25122 -1.09539,-0.14407 -0.33792,-0.22775 0.0662,0.51749 -0.48971,0.16098 -0.76606,-0.32764 0.19875,1.19294 0.35362,0.64476 0.45712,0.3404 0.69037,0.68875 0.68205,0.81623 0.75067,0.30337 -0.5183,0.75025 0.17963,0.97809 0.031,0.36854 0.10067,0.7994 -0.21168,0.83029 -0.10437,-0.34718 -0.48598,0.43986 -0.48408,0.0408 -0.39344,0.34142 -0.64361,-0.0157 -0.53757,0.29688 -0.42041,0.0435 -0.5168,-0.16941 -0.62926,0.18077 -0.25789,-0.49073 -0.25544,-0.45157 -0.34322,-0.10695 -0.37121,-0.15409 0.045,-0.60734 0.0991,-0.49908 0.0672,-0.32164 0.48066,0.25873 0.60717,-0.11009 0.51546,-0.0196 -0.071,-0.62488 0.10069,-0.64187 -0.22983,-0.33083 -0.17587,0.54217 -0.28765,-0.0117 -0.11619,-0.6952 0.83485,-0.2705 0.51947,-0.74214 -0.37192,-0.34982 -0.4603,0.5363 -0.41574,-0.36904 0.11797,-0.31279 -0.19179,-1.078 -0.37308,-0.44341 0.25142,0.0247 -0.52409,0.1887 -0.20894,0.45591 -0.36161,-0.13824 -0.37678,0.0227 -0.44405,0.1876 -0.38452,-0.14507 -0.39585,0.13832 -0.88175,-0.0572 -0.67995,-0.22441 -0.0841,0.31933 -0.20631,0.39665 -0.30955,0.10367 0.17252,0.44765 -0.4468,0.44426 0.21536,0.37702 0.30173,0.8075 -0.13101,1.20948 -0.15195,0.0695 -0.53819,0.0632 -0.78117,0.27394 0.30503,-0.57287 -1.06064,-0.44861 -0.40289,-0.0626 0.31742,0.13739 -0.57724,0.38544 -0.63017,0.62563 -0.32737,0.25661 -0.0853,-0.97273 -0.67545,-0.38686 -0.63677,-0.0507 -0.34661,-0.39014 -0.01,-0.53976 0.37961,-0.10425 0.82521,-0.49893 0.23644,-0.67884 0.20527,0.56847 -0.76252,-0.27073 -0.55712,0.31998 -0.31723,-0.14095 -0.39206,-0.23343 -0.35508,0.0621 -0.10561,-0.60438 -0.80098,-0.32716 -0.20332,-0.21231 -0.10139,0.4927 -0.3115,0.13257 -0.71883,0.35344 -0.10885,-0.51393 -0.61225,0.17709 -0.90784,-0.0783 -0.18655,0.28796 -0.0932,0.0818 -0.0339,-0.39706 -0.23006,0.25761 -0.0794,-0.49637 -0.20924,-0.47348 0.38468,-0.64785 -0.10882,0.10535 -0.39436,-0.1223 -0.0752,0.72512 -0.0414,-0.53709 -0.4963,0.10674 -0.12084,-0.10193 -0.30256,0.39106 -0.62588,0.14627 0.002,0.2383 -1.13952,0.0291 -0.62272,-0.50378 0.35554,-0.85604 -0.078,0.0844 -0.59017,0.0505 -0.0199,0.48746 0.49707,0.2165 0.1951,0.54828 -0.28669,-0.36283 -0.67384,0.3452 -0.35585,-0.19701 -0.48869,-0.0344 -0.85058,0.12897 -0.57405,-0.28089 -0.11076,0.0457 -0.43837,-0.19321 -0.32194,-0.34483 0.31172,-0.45346 -0.50779,0.0293 -0.34929,-0.54364 -0.51835,0.0887 0.58169,-0.49694 -0.1247,-0.55218 -0.0833,-0.24487 0.0924,-0.39241 0.29024,-0.7356 0.003,0.28102 0.65621,0.31003 0.48273,0.033 -0.0211,-0.19781 -0.12916,-0.26163 0.0481,-0.67392 -0.54198,-0.10214 -0.19188,-0.15569 -0.17924,-0.44745 -0.6039,0.16668 -0.71749,0.0201 -0.73809,-0.42527 -0.11454,-0.2978 -0.6274,-0.56787 -0.40085,-0.99009 -0.0206,-0.3559 -0.32372,-0.48335 0.2866,-0.7161 -0.0128,-0.54517 0.26979,0.19591 -0.0194,0.41312 0.44338,0.019 0.67344,0.12999 0.58234,-0.33838 0.0253,0.0201 -0.46382,-0.36301 0.0335,-0.50098 0.21251,-0.0336 -0.47805,-0.54018 -0.0535,-0.84862 0.20758,0.31363 0.47654,-0.55941 0.20679,-0.42262 0.57303,-0.47285 0.25458,0.53342 0.51992,-0.28521 -0.16207,-0.56165 -0.4621,0.13836 -0.79893,0.21267 -0.68494,-0.50195 0.31807,-0.18733 -0.12902,-0.72866 0.64181,-0.68263 -0.56784,-0.10411 -0.48552,-0.21646 -0.71393,-0.16885 0.0661,-0.58315 0.56835,-0.70507 -0.47107,-0.12588 -0.086,0.0615 0.11878,-0.29148 0.1035,-0.68461 -1.18698,-0.4536 -0.43063,-0.0439 0.53052,0.34634 -0.40876,-0.24355 -0.21169,0.23412 -0.52167,-0.0937 -0.94378,-0.59054 -0.63492,0.20857 -0.16943,0.43218 0.14841,-8.5e-4 -0.002,0.40344 -0.13655,-0.0414 0.2869,0.28393 -0.26487,0.21399 -0.37133,-0.12954 0.33686,-1.03111 -0.24736,-0.79272 0.15939,-0.29636 -0.003,-0.3721 -0.17847,-0.55448 -0.22324,0.0905 0.3867,-0.46958 -0.0938,-0.3079 -0.23179,-0.47317 -0.60205,-0.35383 -0.10923,-0.85414 -0.0901,-0.32303 0.19622,-0.14972 0.14501,-0.65253 -0.57522,0.0594 0.63176,-0.10587 0.25514,-0.10789 0.67091,-2.1e-4 -0.21202,-0.22709 0.27526,-0.59889 -0.61616,-0.52945 0.33511,-0.531 0.0891,-0.72786 0.17647,0.18202 0.73678,-0.0401 0.55575,0.18897 -0.10033,0.10739 0.0611,1.00134 0.48789,0.61928 0.42269,3e-4 -0.11267,-0.27617 0.20675,-0.58524 -0.38808,0.1597 0.0549,-0.32553 0.10758,-0.40133 -0.0513,-0.19189 1.1977,-0.13226 0.78132,0.11095 0.0866,0.69692 0.45778,-0.0454 0.64755,-0.0517 -0.36213,-0.055 1.05453,-0.0372 0.17088,-0.41036 -0.54094,0.32549 -0.74309,-0.57303 -0.49737,-0.5475 -0.0363,-0.0279 0.52156,-0.62489 -0.15382,-0.50002 -0.44574,-0.41372 -0.84053,-0.23613 -0.58896,0.16095 -0.29659,0.22611 -0.64521,-0.2547 -0.49863,-0.36906 -0.0632,-0.63712 0.91813,0.13931 0.40225,-0.35368 0.40244,-0.10838 -0.59297,-0.6249 -0.1659,-0.66542 z"
         id="path9132" /><path
         style="fill:#217821;fill-opacity:1;stroke-width:0.0387028;stroke:#000000;stroke-opacity:1"
         d="m 223.58381,442.90692 c 0.0832,0.37708 0.20317,0.0999 0.3112,0.38143 0.18121,0.0262 0.18276,0.31927 0.41883,0.063 0.224,0.42641 0.002,-0.32429 0.27001,0.13261 -0.14007,0.28725 0.20963,0.2621 0.0232,0.52437 0.0118,-0.0194 -0.44928,0.39566 -0.58565,0.20371 -0.0295,-0.29712 -0.483,-0.30871 -0.52803,-0.0777 -0.1503,0.51327 0.80136,-0.38695 0.17033,0.17701 -0.0526,0.26761 0.35564,0.0834 0.52214,0.11672 0.17337,-0.23763 0.26171,0.36559 0.48629,0.50096 0.3136,0.29118 0.33108,-0.03 0.3773,-0.0765 0.13102,0.0558 -0.007,-0.32344 0.18671,-0.3966 -0.31311,0.0723 -0.3537,0.16832 -0.27067,0.21164 -0.33494,0.19489 -0.18407,-0.31088 -0.25921,-0.57182 0.0953,0.0715 0.48682,0.0728 0.40227,-0.22829 0.0802,0.26746 0.50731,0.0985 0.5503,0.202 0.15549,0.24546 0.37114,0.13287 0.60918,0.43036 0.0621,0.25278 0.0634,0.0704 0.28516,0.18643 0.021,0.16973 -0.16677,0.0511 -0.1663,0.19771 -0.15688,-0.0318 -0.54384,-0.002 -0.53958,0.23358 0.45667,-0.14741 -0.0961,0.21557 0.23006,0.15122 0.31889,0.0717 -0.0928,0.34337 -0.19265,0.0621 -0.26483,0.0398 0.0726,0.30774 -0.25704,0.31864 -0.16562,-0.0265 -0.34627,0.35668 -0.18053,0.49094 -0.11919,0.19694 0.4729,0.17154 0.44805,0.0916 0.41659,-0.0547 0.7042,0.26644 1.13248,0.13051 -0.039,-0.1584 -0.10407,-0.1767 -0.0236,-0.46198 -0.41642,-0.31533 0.36309,-0.0511 0.40166,-0.11664 0.22453,0.0938 0.6394,0.38635 0.0529,0.37572 -0.23238,0.10187 -0.47699,-0.24023 -0.31065,0.17678 -0.18619,0.12687 -0.21384,0.45378 -0.32722,0.59251 0.33208,-0.0577 0.45224,0.39257 0.66829,-0.0515 -0.28838,-0.10593 0.0519,-0.25594 0.16077,-0.21578 -0.17329,-0.13567 0.62751,0.23573 0.64885,-0.24489 0.37141,-0.0625 -0.12887,0.65727 0.2754,0.356 0.5118,-0.0272 0.20544,0.54568 -0.0685,0.55548 0.1962,-0.002 -0.11094,0.23157 0.19783,0.0799 -0.0367,4.3e-4 0.46213,0.53274 0.40746,0.0648 0.18593,-0.0998 -0.55225,0.0446 -0.0806,-0.20994 0.40595,0.007 0.21713,0.0164 0.1922,0.40514 -0.0881,-0.32746 -0.15662,0.3876 -0.0401,0.16178 0.0199,0.36677 0.33208,0.69117 0.11644,0.89792 -0.43826,-0.19848 0.069,0.2022 0.14028,0.0586 0.50583,-0.0447 0.44032,0.22201 0.62777,0.59811 0.50029,-0.0471 -0.14783,-0.25868 0.24058,-0.3032 -0.16418,-0.18221 0.034,-0.28205 0.24486,-0.2387 -0.18611,-0.23595 0.20424,0.18565 0.24993,0.0707 0.23753,0.38809 -0.0909,-0.52373 0.22752,0.008 0.39345,0.20717 -0.14062,0.17518 -0.19933,0.52552 -0.0656,0.2619 -0.0346,0.4586 -0.0555,0.72497 -0.20781,0.16695 -0.28199,0.47533 -0.21623,0.60098 -0.36532,-0.0801 -0.50173,0.26327 -0.56145,0.4389 0.0161,0.0725 -0.3666,0.23061 -0.28297,0.45893 -0.0998,0.0999 0.38956,0.30953 -0.0247,0.30461 0.0605,0.27149 0.31723,-0.0897 0.0712,0.1986 -0.2749,0.15801 -0.0921,-0.19426 -0.23236,-0.1746 0.28212,-0.17155 -0.30833,0.0791 -0.1882,-0.0404 -0.349,-0.002 -0.0605,0.58654 -0.58777,0.36762 -0.17958,0.14024 -0.23618,-0.0566 0.014,-0.10076 -0.14918,-0.0331 0.11646,-0.54039 -0.1897,-0.24626 -0.0565,0.28371 -0.1924,0.20065 -0.1626,0.43734 0.0653,0.11903 -0.47724,0.23624 -0.40444,0.49902 0.14497,0.11122 -0.0165,0.56919 0.20331,0.40332 -0.0767,0.51143 0.0447,0.63489 -0.0365,0.97118 -0.16456,0.1005 -0.41617,0.25198 -0.43718,-0.0453 -0.1758,-0.37798 -0.21251,-0.43367 -0.3739,0.0253 0.245,-0.0448 -0.0167,0.38534 -0.22151,0.35355 -0.32275,-0.39555 -0.28952,0.008 -0.10996,0.149 0.10921,0.39229 -0.54665,-0.054 -0.29567,-0.0943 -0.1883,-0.12243 -0.14334,0.13724 -0.24999,-0.0161 -0.13004,-0.34818 0.36982,-0.0411 0.25146,-0.39059 0.12738,-0.16075 0.37874,-0.10908 0.012,-0.37554 -0.16218,0.0288 -0.43701,0.31108 -0.45706,-0.034 -0.0858,0.16594 -0.21113,0.13002 -0.3856,0.20411 0.26773,0.14451 -0.56674,-0.0206 -0.29226,0.3063 -0.0135,0.34281 -0.4326,-0.0174 -0.31743,0.41213 -0.25015,-0.3753 -0.49052,-0.17658 -0.29102,0.1912 -0.18736,-0.39705 -0.38202,0.12865 -0.5781,0.0136 -0.15713,-0.31874 -0.34539,-0.17457 -0.28539,0.005 0.19124,-0.11217 -0.0608,0.49116 0.3077,0.37147 0.22271,0.17178 0.40084,-0.17283 0.34623,0.23897 0.21691,0.10788 0.23381,-0.0521 0.49178,0.004 0.27693,-0.20534 -0.0966,-0.68996 -0.17048,-0.32754 -0.28451,-0.37143 0.42536,-0.0445 0.24461,-0.32412 -0.0649,-0.14912 0.12854,0.15197 0.36312,-0.0619 0.0282,-0.10769 0.20079,-0.42895 0.32606,-0.0632 0.0578,0.28242 0.16147,0.52644 0.28589,0.65489 0.12839,0.32801 -0.18154,0.38506 -0.0507,0.63479 -0.16456,0.21816 -0.479,-0.002 -0.5305,0.1335 -0.0393,-0.19096 -0.37886,-0.13037 -0.23195,-0.37132 -0.6717,-0.30243 -0.31381,0.57871 0.12321,0.45224 -0.0207,0.15932 -0.56923,0.13005 -0.71913,0.19471 -0.19295,-0.21476 0.18223,-0.45686 0.13119,-0.24445 -0.28678,-0.12591 0.42897,0.36591 0.0943,-0.0409 -0.0863,-0.30886 -0.43156,-0.0754 -0.1763,-0.41758 -0.24942,0.0639 -0.49476,-0.17012 -0.58069,0.242 0.13332,0.0665 -0.56649,-0.0855 -0.06,-0.12594 -0.0405,-0.0187 -0.0165,-0.329 -0.33225,-0.24891 -0.11979,0.0198 0.0837,0.48301 -0.13392,0.36412 0.008,-0.15069 -0.39665,-0.32785 -0.15748,-0.32812 0.34459,-0.0367 -0.10841,-0.72303 -0.34207,-0.19608 0.059,0.0993 0.10803,0.12738 0.002,0.1682 0.37873,0.31953 -0.4482,0.37892 -0.19422,0.24259 -0.21771,0.1176 -0.41948,0.0293 -0.6662,0.1259 -0.0571,-0.007 -0.47021,0.53214 -0.40355,0.18839 0.0929,6e-5 -0.50322,-0.50816 -0.43743,-0.16336 -0.0469,0.20521 -0.14384,0.20629 -0.0438,0.33615 -0.1866,0.12686 -0.2082,-0.37138 -0.20428,-0.47273 -0.15498,-0.15558 -0.35336,-0.70867 -0.51142,-0.37683 -0.13021,-0.78012 -0.47778,-0.18302 -0.46545,0.21633 0.36685,0.0245 -0.0516,0.80073 -0.0495,0.72438 -0.003,0.48457 -0.59732,0.0739 -0.57895,0.58635 -0.15105,0.11445 -0.3657,0.28294 -0.47078,0.1279 0.15682,-0.20037 -0.44905,-0.10062 -0.21962,-0.26029 -0.35596,-0.0866 -0.25187,-0.37646 -0.38893,-0.18784 -0.17212,-0.24018 -0.11845,-0.36086 -0.35774,-0.28709 0.17696,-0.34695 0.15535,-0.32934 -0.0777,-0.23997 -0.062,-0.27531 0.36637,-0.22031 0.32626,-0.14543 0.17582,-0.0187 0.1149,0.36942 0.39886,0.36211 0.13882,0.10822 0.34481,-0.42631 0.28171,-0.2365 0.12555,-0.35381 -0.40224,0.14653 -0.008,-0.24747 0.36828,-0.21718 0.43875,0.47713 0.59103,-0.0169 -0.12187,-0.25681 -0.41162,-3e-5 0.0247,-0.32139 0.42826,-0.0781 0.28286,-0.60696 0.16413,-0.36207 -0.18669,0.0158 -0.30342,-0.20328 -0.40705,0.0331 -0.0669,-0.26349 -0.16635,-0.20734 -0.28738,-0.17885 -0.0727,-0.27911 -0.23961,-0.17131 -0.32506,-0.5285 -0.14734,-0.48079 -0.21698,0.0809 -0.31074,0.0423 -0.18452,-0.13548 -0.18736,0.28001 -0.43602,-0.0762 -0.10043,0.33679 -0.46814,0.47959 -0.82133,0.43185 0.0245,-0.36772 -0.67564,-0.24675 -0.21322,-0.47261 0.0318,-0.52171 -0.50703,-0.31913 -0.2791,-0.039 -0.2556,-0.0947 -0.58194,-0.18769 -0.71406,-0.27297 0.37913,-0.30033 0.0946,-0.38949 -0.0801,-0.69241 0.0296,-0.24327 0.34471,-0.0207 0.51991,0.0428 0.29049,0.41133 0.55379,-0.29179 0.26632,-0.12894 -0.28943,-0.1161 0.0137,-0.47091 -0.3352,-0.27428 0.099,-0.53822 -0.31887,0.14132 -0.0532,-0.39458 0.003,-0.38909 -0.16019,-0.0203 -0.10564,0.0215 -0.20952,0.20688 -0.35334,-0.20846 -0.39841,-0.29904 0.0914,-0.26124 -0.4385,-0.24476 -0.36411,-0.54704 -0.44232,0.12746 0.35038,-0.10871 0.13484,-0.21072 0.3008,-0.16353 0.13981,-0.237 0.47819,-0.27093 -0.11694,0.0327 -0.30529,-0.34019 -0.51764,-0.14991 0.46441,-0.35206 -0.25689,-0.31228 -0.33878,-0.54017 -0.10873,0.0335 -0.53584,-0.61808 -0.11616,-0.61258 0.30772,-0.0649 0.58808,-0.20862 0.0672,-0.16341 -0.19069,-0.30096 -0.41925,-0.13939 -0.35791,0.0674 0.2071,-0.0695 -0.26632,0.30011 -0.11531,-0.11553 -0.35461,-0.0848 -0.12889,-0.0518 -0.036,-0.16223 -0.27351,-0.25046 -0.3537,-0.3759 -0.0683,-0.3835 -0.14654,-0.18836 0.0408,-0.31589 0.24134,-0.43134 -0.31263,-0.0834 0.0407,-0.40786 -0.0136,-0.42922 0.52549,0.27967 0.13592,-0.49282 0.54328,-0.26592 0.41512,-0.25168 0.0651,0.25792 0.41028,0.33245 0.0138,-0.20035 0.22121,-0.19497 0.42547,-0.38143 -0.28983,-0.36686 0.50428,-0.0534 0.006,-0.36114 -0.13238,-0.3515 0.0128,-0.25026 0.20351,-0.56681 -0.0189,-0.28795 0.18573,-0.52005 0.5144,-0.6384 -0.17351,-0.28828 0.40601,0.009 0.50614,-0.0756 -0.0535,0.21688 -0.61158,0.14224 -0.22843,0.47844 0.0251,0.14995 0.46295,-0.11965 0.24323,-0.1978 0.20514,-0.28224 0.48958,0.1691 0.43083,-0.27643 0.37088,-0.37352 0.28074,0.10724 0.7354,-0.10844 -0.24977,-0.18672 0.42659,0.0811 0.0337,0.167 0.5669,-0.0815 0.33503,-0.44573 -0.0763,-0.4028 -0.28548,-0.14599 0.14026,-0.48825 0.0977,-0.22405 0.14444,-0.073 0.31796,-0.27849 0.43814,-0.2533 -0.22182,-0.34352 -0.37252,-0.14086 -0.34383,-0.47123 -0.13877,-0.44629 0.74349,0.36619 0.61662,0.0919 -0.17251,-0.15277 0.3323,0.26211 0.35036,-0.1196 0.18883,-0.42802 -0.48548,-0.4378 -0.23736,0.0758 -0.16769,-0.19353 0.006,-0.27516 -0.26631,-0.22662 -0.0688,-0.44359 -0.0803,-0.64451 -0.38252,-0.21224 -0.29325,-0.0209 0.11307,0.17261 -0.20436,0.0973 0.0727,0.29749 -0.49226,-0.15577 -0.0543,-0.19483 0.10207,-0.24771 0.47896,-0.0379 0.1898,-0.29931 0.40164,-0.0299 0.0504,-0.5135 0.45442,-0.37192 -0.0928,-0.15117 -0.0186,-0.70572 0.21647,-0.51119 0.31654,-0.16807 0.32344,-0.0106 0.56498,-0.22501 -0.29633,-0.0988 0.3916,-0.0476 0.16269,0.22275 0.13337,-0.18448 0.21666,0.20999 0.19251,-0.12384 0.33928,0.0963 0.32239,-0.52203 0.62549,-0.30279 0.0856,0.13309 0.14052,-0.0855 0.1611,0.22157 0.29058,-0.005 0.0702,0.27368 0.005,0.18436 -0.5396,0.26186 0.0163,0.7899 0.17555,0.44625 0.31718,-0.022 -0.10529,-0.28351 0.34105,-0.1469 0.14043,-0.16754 0.51718,0.35141 0.42403,0.55002 -0.28883,-0.005 -0.21287,0.26138 0.13347,0.24307 0.11245,0.1383 0.0651,-0.22524 0.17143,0.16636 0.61337,0.21331 -0.34447,-0.6778 0.28699,-0.75622 0.0224,0.17114 0.21681,-0.052 0.37924,-0.0184 -0.13319,-0.36419 -0.20274,-0.95037 -0.44957,-0.49059 -0.24924,-0.0784 -0.11615,-0.4728 0.01,-0.43556 0.35863,-0.23517 0.27616,0.52265 0.40328,0.10151 0.17239,0.0914 0.0923,-0.59344 0.27736,-0.37444 z"
         id="path9134" /><path
         style="fill:#217821;fill-opacity:1;stroke-width:0.0387028;stroke:#000000;stroke-opacity:1"
         d="m 256.06149,471.03192 c 0.0832,0.37708 0.20317,0.0999 0.3112,0.38143 0.18121,0.0262 0.18276,0.31927 0.41883,0.063 0.224,0.42641 0.002,-0.32429 0.27001,0.13261 -0.14007,0.28725 0.20963,0.2621 0.0232,0.52437 0.0118,-0.0194 -0.44928,0.39566 -0.58565,0.20371 -0.0295,-0.29712 -0.483,-0.30871 -0.52803,-0.0777 -0.1503,0.51327 0.80136,-0.38695 0.17033,0.17701 -0.0527,0.26761 0.35564,0.0834 0.52214,0.11672 0.17337,-0.23763 0.26171,0.36559 0.48629,0.50096 0.3136,0.29118 0.33108,-0.03 0.3773,-0.0765 0.13102,0.0558 -0.007,-0.32344 0.18671,-0.3966 -0.31311,0.0723 -0.3537,0.16832 -0.27067,0.21164 -0.33494,0.19489 -0.18407,-0.31088 -0.25921,-0.57182 0.0953,0.0715 0.48682,0.0728 0.40227,-0.22829 0.0802,0.26746 0.50731,0.0985 0.5503,0.202 0.15549,0.24546 0.37114,0.13287 0.60918,0.43036 0.0621,0.25278 0.0634,0.0704 0.28516,0.18643 0.021,0.16973 -0.16677,0.0511 -0.1663,0.19771 -0.15688,-0.0318 -0.54384,-0.002 -0.53958,0.23358 0.45667,-0.14741 -0.0961,0.21557 0.23006,0.15122 0.31889,0.0717 -0.0928,0.34337 -0.19265,0.0621 -0.26483,0.0398 0.0726,0.30774 -0.25704,0.31864 -0.16562,-0.0265 -0.34627,0.35668 -0.18053,0.49094 -0.11919,0.19694 0.4729,0.17154 0.44805,0.0916 0.41659,-0.0547 0.7042,0.26644 1.13248,0.13051 -0.039,-0.1584 -0.10407,-0.1767 -0.0236,-0.46198 -0.41642,-0.31533 0.36309,-0.0511 0.40166,-0.11664 0.22453,0.0938 0.6394,0.38635 0.0529,0.37572 -0.23238,0.10187 -0.47699,-0.24023 -0.31065,0.17678 -0.18619,0.12687 -0.21384,0.45378 -0.32722,0.59251 0.33208,-0.0577 0.45224,0.39257 0.6683,-0.0515 -0.28839,-0.10593 0.0519,-0.25594 0.16076,-0.21578 -0.17329,-0.13567 0.62751,0.23573 0.64885,-0.24489 0.37141,-0.0625 -0.12887,0.65727 0.2754,0.356 0.5118,-0.0272 0.20544,0.54568 -0.0685,0.55548 0.19619,-0.002 -0.11095,0.23157 0.19782,0.0799 -0.0367,4.3e-4 0.46213,0.53274 0.40746,0.0648 0.18593,-0.0998 -0.55225,0.0446 -0.0806,-0.20994 0.40594,0.007 0.21712,0.0164 0.19219,0.40514 -0.0881,-0.32746 -0.15662,0.3876 -0.0401,0.16178 0.0199,0.36677 0.33208,0.69117 0.11644,0.89792 -0.43826,-0.19848 0.069,0.2022 0.14028,0.0586 0.50583,-0.0447 0.44032,0.22201 0.62777,0.59811 0.50029,-0.0471 -0.14783,-0.25868 0.24058,-0.3032 -0.16418,-0.18221 0.034,-0.28205 0.24486,-0.2387 -0.18611,-0.23595 0.20424,0.18565 0.24993,0.0707 0.23753,0.38809 -0.0909,-0.52373 0.22752,0.008 0.39345,0.20717 -0.14062,0.17518 -0.19933,0.52552 -0.0655,0.2619 -0.0346,0.4586 -0.0555,0.72497 -0.20781,0.16695 -0.28199,0.47533 -0.21623,0.60098 -0.36532,-0.0801 -0.50173,0.26327 -0.56144,0.4389 0.0161,0.0725 -0.36661,0.23061 -0.28298,0.45893 -0.0998,0.0999 0.38956,0.30953 -0.0247,0.30461 0.0605,0.27149 0.31723,-0.0897 0.0712,0.1986 -0.2749,0.15801 -0.0921,-0.19426 -0.23236,-0.1746 0.28212,-0.17155 -0.30833,0.0791 -0.1882,-0.0404 -0.349,-0.002 -0.0605,0.58654 -0.58777,0.36762 -0.17958,0.14024 -0.23618,-0.0566 0.014,-0.10076 -0.14918,-0.0331 0.11646,-0.54039 -0.1897,-0.24626 -0.0565,0.28371 -0.1924,0.20065 -0.1626,0.43734 0.0653,0.11903 -0.47724,0.23624 -0.40444,0.49902 0.14497,0.11122 -0.0165,0.56919 0.20331,0.40332 -0.0767,0.51143 0.0447,0.63489 -0.0365,0.97118 -0.16456,0.1005 -0.41617,0.25198 -0.43718,-0.0453 -0.1758,-0.37798 -0.21251,-0.43367 -0.3739,0.0253 0.245,-0.0448 -0.0167,0.38534 -0.22151,0.35355 -0.32275,-0.39555 -0.28952,0.008 -0.10996,0.149 0.10921,0.39229 -0.54665,-0.054 -0.29567,-0.0943 -0.1883,-0.12243 -0.14334,0.13724 -0.24999,-0.0161 -0.13004,-0.34818 0.36982,-0.0411 0.25146,-0.39059 0.12738,-0.16075 0.37874,-0.10908 0.012,-0.37554 -0.16218,0.0288 -0.43701,0.31108 -0.45706,-0.034 -0.0858,0.16594 -0.21113,0.13002 -0.3856,0.20411 0.26773,0.14451 -0.56674,-0.0206 -0.29226,0.3063 -0.0135,0.34281 -0.4326,-0.0174 -0.31743,0.41213 -0.25015,-0.3753 -0.49052,-0.17658 -0.29102,0.1912 -0.18736,-0.39705 -0.38202,0.12865 -0.5781,0.0136 -0.15713,-0.31874 -0.34539,-0.17457 -0.28539,0.005 0.19124,-0.11217 -0.0608,0.49116 0.3077,0.37147 0.22271,0.17178 0.40084,-0.17283 0.34623,0.23897 0.21691,0.10788 0.23381,-0.0521 0.49178,0.004 0.27693,-0.20534 -0.0967,-0.68996 -0.17048,-0.32754 -0.28451,-0.37143 0.42536,-0.0445 0.24461,-0.32412 -0.0649,-0.14912 0.12854,0.15197 0.36312,-0.0619 0.0282,-0.10769 0.20079,-0.42895 0.32606,-0.0632 0.0578,0.28242 0.16147,0.52644 0.28589,0.65489 0.12839,0.32801 -0.18154,0.38506 -0.0507,0.63479 -0.16456,0.21816 -0.479,-0.002 -0.5305,0.1335 -0.0393,-0.19096 -0.37886,-0.13037 -0.23195,-0.37132 -0.6717,-0.30243 -0.31381,0.57871 0.12321,0.45224 -0.0207,0.15932 -0.56923,0.13005 -0.71913,0.19471 -0.19295,-0.21476 0.18223,-0.45686 0.13119,-0.24445 -0.28678,-0.12591 0.42897,0.36591 0.0943,-0.0409 -0.0863,-0.30886 -0.43156,-0.0754 -0.1763,-0.41758 -0.24942,0.0639 -0.49476,-0.17012 -0.58069,0.242 0.13332,0.0665 -0.56649,-0.0855 -0.06,-0.12594 -0.0405,-0.0187 -0.0165,-0.329 -0.33225,-0.24891 -0.11979,0.0198 0.0837,0.48301 -0.13392,0.36412 0.008,-0.15069 -0.39665,-0.32785 -0.15748,-0.32812 0.34459,-0.0367 -0.10841,-0.72303 -0.34207,-0.19608 0.059,0.0993 0.10803,0.12738 0.002,0.1682 0.37873,0.31953 -0.4482,0.37892 -0.19422,0.24259 -0.21771,0.1176 -0.41948,0.0293 -0.6662,0.1259 -0.0571,-0.007 -0.47021,0.53214 -0.40355,0.18839 0.0929,6e-5 -0.50322,-0.50816 -0.43743,-0.16336 -0.0469,0.20521 -0.14384,0.20629 -0.0438,0.33615 -0.1866,0.12686 -0.2082,-0.37138 -0.20428,-0.47273 -0.15498,-0.15558 -0.35336,-0.70867 -0.51142,-0.37683 -0.13021,-0.78012 -0.47778,-0.18302 -0.46545,0.21633 0.36685,0.0245 -0.0516,0.80073 -0.0495,0.72438 -0.003,0.48457 -0.59732,0.0739 -0.57895,0.58635 -0.15105,0.11445 -0.3657,0.28294 -0.47078,0.1279 0.15682,-0.20037 -0.44905,-0.10062 -0.21962,-0.26029 -0.35596,-0.0866 -0.25187,-0.37646 -0.38893,-0.18784 -0.17212,-0.24018 -0.11845,-0.36086 -0.35774,-0.28709 0.17696,-0.34695 0.15535,-0.32934 -0.0777,-0.23997 -0.062,-0.27531 0.36637,-0.22031 0.32626,-0.14543 0.17582,-0.0187 0.1149,0.36942 0.39886,0.36211 0.13882,0.10822 0.34481,-0.42631 0.28171,-0.2365 0.12555,-0.35381 -0.40224,0.14653 -0.008,-0.24747 0.36828,-0.21718 0.43875,0.47713 0.59103,-0.0169 -0.12187,-0.25681 -0.41162,-3e-5 0.0247,-0.32139 0.42826,-0.0781 0.28286,-0.60696 0.16413,-0.36207 -0.18669,0.0158 -0.30342,-0.20328 -0.40705,0.0331 -0.0669,-0.26349 -0.16635,-0.20734 -0.28738,-0.17885 -0.0727,-0.27911 -0.23961,-0.17131 -0.32506,-0.5285 -0.14734,-0.48079 -0.21698,0.0809 -0.31074,0.0423 -0.18452,-0.13548 -0.18736,0.28001 -0.43602,-0.0762 -0.10043,0.33679 -0.46814,0.47959 -0.82133,0.43185 0.0245,-0.36772 -0.67564,-0.24675 -0.21322,-0.47261 0.0318,-0.52171 -0.50703,-0.31913 -0.2791,-0.039 -0.2556,-0.0947 -0.58194,-0.18769 -0.71406,-0.27297 0.37913,-0.30033 0.0946,-0.38949 -0.0801,-0.69241 0.0296,-0.24327 0.34471,-0.0207 0.51991,0.0428 0.29049,0.41133 0.55379,-0.29179 0.26632,-0.12894 -0.28943,-0.1161 0.0137,-0.47091 -0.3352,-0.27428 0.099,-0.53822 -0.31887,0.14132 -0.0532,-0.39458 0.003,-0.38909 -0.16019,-0.0203 -0.10564,0.0215 -0.20952,0.20688 -0.35334,-0.20846 -0.39841,-0.29904 0.0914,-0.26124 -0.4385,-0.24476 -0.36411,-0.54704 -0.44232,0.12746 0.35038,-0.10871 0.13484,-0.21072 0.3008,-0.16353 0.13981,-0.237 0.47819,-0.27093 -0.11694,0.0327 -0.30529,-0.34019 -0.51764,-0.14991 0.46441,-0.35206 -0.25689,-0.31228 -0.33878,-0.54017 -0.10873,0.0335 -0.53584,-0.61808 -0.11616,-0.61258 0.30772,-0.0649 0.58808,-0.20862 0.0672,-0.16341 -0.19069,-0.30096 -0.41925,-0.13939 -0.35791,0.0674 0.2071,-0.0695 -0.26632,0.30011 -0.11531,-0.11553 -0.35461,-0.0848 -0.12889,-0.0518 -0.036,-0.16223 -0.27351,-0.25046 -0.3537,-0.3759 -0.0683,-0.3835 -0.14654,-0.18836 0.0408,-0.31589 0.24134,-0.43134 -0.31263,-0.0834 0.0407,-0.40786 -0.0136,-0.42922 0.52549,0.27967 0.13592,-0.49282 0.54328,-0.26592 0.41512,-0.25168 0.0651,0.25792 0.41028,0.33245 0.0138,-0.20035 0.22121,-0.19497 0.42547,-0.38143 -0.28983,-0.36686 0.50428,-0.0534 0.006,-0.36114 -0.13238,-0.3515 0.0128,-0.25026 0.20351,-0.56681 -0.0189,-0.28795 0.18573,-0.52005 0.5144,-0.6384 -0.17351,-0.28828 0.40601,0.009 0.50614,-0.0756 -0.0535,0.21688 -0.61158,0.14224 -0.22843,0.47844 0.0251,0.14995 0.46295,-0.11965 0.24323,-0.1978 0.20514,-0.28224 0.48958,0.1691 0.43083,-0.27643 0.37088,-0.37352 0.28074,0.10724 0.7354,-0.10844 -0.24977,-0.18672 0.42659,0.0811 0.0337,0.167 0.5669,-0.0815 0.33503,-0.44573 -0.0763,-0.4028 -0.28548,-0.14599 0.14026,-0.48825 0.0977,-0.22405 0.14444,-0.073 0.31796,-0.27849 0.43814,-0.2533 -0.22182,-0.34352 -0.37252,-0.14086 -0.34383,-0.47123 -0.13877,-0.44629 0.74349,0.36619 0.61662,0.0919 -0.17251,-0.15277 0.3323,0.26211 0.35036,-0.1196 0.18883,-0.42802 -0.48548,-0.4378 -0.23736,0.0758 -0.16769,-0.19353 0.006,-0.27516 -0.26631,-0.22662 -0.0688,-0.44359 -0.0803,-0.64451 -0.38252,-0.21224 -0.29325,-0.0209 0.11307,0.17261 -0.20436,0.0973 0.0727,0.29749 -0.49226,-0.15577 -0.0543,-0.19483 0.10207,-0.24771 0.47896,-0.0379 0.1898,-0.29931 0.40164,-0.0299 0.0504,-0.5135 0.45442,-0.37192 -0.0928,-0.15117 -0.0186,-0.70572 0.21647,-0.51119 0.31654,-0.16807 0.32344,-0.0106 0.56498,-0.22501 -0.29633,-0.0988 0.3916,-0.0476 0.16269,0.22275 0.13337,-0.18448 0.21666,0.20999 0.19251,-0.12384 0.33928,0.0963 0.32239,-0.52203 0.62549,-0.30279 0.0856,0.13309 0.14052,-0.0855 0.1611,0.22157 0.29058,-0.005 0.0702,0.27368 0.005,0.18436 -0.5396,0.26186 0.0163,0.7899 0.17555,0.44625 0.31718,-0.022 -0.10529,-0.28351 0.34105,-0.1469 0.14043,-0.16754 0.51718,0.35141 0.42403,0.55002 -0.28883,-0.005 -0.21287,0.26138 0.13347,0.24307 0.11245,0.1383 0.0651,-0.22524 0.17143,0.16636 0.61337,0.21331 -0.34447,-0.6778 0.28699,-0.75622 0.0224,0.17114 0.21681,-0.052 0.37924,-0.0184 -0.13319,-0.36419 -0.20274,-0.95037 -0.44957,-0.49059 -0.24924,-0.0784 -0.11615,-0.4728 0.01,-0.43556 0.35863,-0.23517 0.27616,0.52265 0.40328,0.10151 0.17239,0.0914 0.0923,-0.59344 0.27736,-0.37444 z"
         id="path9136" /><path
         style="fill:#217821;fill-opacity:1;stroke-width:0.0551275;stroke:#000000;stroke-opacity:1"
         d="m 240.07358,458.96375 c 0.28084,-0.52173 -0.2382,-0.23543 0.0133,-0.68194 -0.31071,-0.12527 0.032,-0.5643 -0.4974,-0.43577 0.0625,-0.70793 -0.18635,0.38957 -0.2429,-0.33098 0.36948,-0.28538 0.12271,-0.30138 0.28335,-0.59523 0.16975,-0.23679 0.50951,-0.009 0.96688,0.008 0.0461,0.20409 0.0304,1.05307 0.49331,0.6567 0.68121,-0.0914 -0.44348,-0.36219 -0.30602,-0.29391 0.93099,0.0886 0.0937,-0.48694 0.0466,-0.47894 -0.38388,0.0556 -0.55734,-0.3843 -0.27551,-0.71729 -0.0418,-0.58931 -0.42546,-0.87943 -0.58722,-0.59901 -0.10673,-0.17299 -0.25758,0.3827 -0.54334,0.30712 0.4235,0.17364 0.55022,0.0946 0.48882,-0.0234 0.52095,0.0447 0.0254,0.39302 -0.0662,0.69653 -0.16441,0.60661 -0.38203,-0.63672 -0.64137,0.0811 -0.11487,0.16741 -0.38062,-0.7043 -0.61432,-0.59513 -0.0233,-0.46043 -0.0861,-0.41391 -0.33174,-0.87641 -0.0149,-0.53633 0.15693,-0.30546 -0.19346,-0.60518 0.22415,-0.39228 0.0526,0.22744 0.41505,-0.15514 -0.0228,0.1942 0.57164,0.44984 0.7851,0.235 -0.63658,-0.25418 0.24698,-0.18997 -0.15262,-0.39744 -0.31186,-0.34606 0.38993,-0.32194 0.27478,0.0867 0.34143,0.17102 0.16864,-0.41865 0.56151,-0.15853 0.20056,0.10752 0.41932,0.004 0.65279,-0.28459 -0.15974,-0.1215 0.32438,-0.46641 -0.28404,-0.44465 -0.11165,-0.27382 -0.64387,-0.39475 -0.82304,-0.79404 -0.25795,-0.39665 -0.79987,-0.5643 -0.66273,-0.15908 -0.39538,0.15479 -0.16658,0.9735 -0.50691,0.21634 -0.52863,0.0409 -0.33883,-0.43074 -0.57656,-0.72619 0.15409,-0.28096 0.78292,0.357 0.8477,0.34416 0.017,0.28958 0.23571,-0.35373 0.51625,-0.35238 0.13569,-0.29571 0.86002,-0.0789 0.28617,-0.52709 -0.1356,0.007 -0.1498,-0.64129 -0.60468,-0.23127 0.2863,0.17026 -0.27721,0.52357 -0.30605,0.0557 -0.0115,0.51894 -0.50844,-0.76976 -1.01497,-0.18595 -0.48607,-0.24442 0.68825,-0.66231 -0.0275,-0.64047 -0.61733,-0.38953 0.20881,-0.80359 0.53577,-0.58983 -0.30859,-0.28097 0.37645,0.0705 -0.0962,-0.32135 -0.11914,0.32645 -0.0903,-1.01124 -0.48954,-0.34428 -0.33159,-0.0366 0.64855,0.358 -0.002,0.3115 -0.3287,-0.3628 -0.54491,-0.0745 -0.10494,-0.48999 0.24669,-0.41953 -0.0214,0.35906 0.29475,-0.13911 0.26239,-0.15838 -0.19334,-0.14 0.24822,-0.56529 -0.14429,-0.38324 0.32959,-0.9954 0.49346,-0.50819 0.18384,-0.366 -0.55828,-0.43334 -0.58728,-0.85352 -0.25038,0.0734 0.56157,-1.22701 -0.27386,-0.73967 0.29465,0.18302 -0.16887,0.23402 -0.19576,0.2995 -0.16801,0.36579 -0.41519,-0.35859 -0.39733,0.0702 -0.22739,-0.26269 -0.14725,-0.87914 -0.42911,-0.44702 -0.11935,0.43343 -0.0226,-0.66129 -0.19289,-0.49672 0.65298,0.15656 0.8431,-0.34065 1.21436,-0.56634 -0.13517,-0.48121 0.59556,-0.28506 0.72945,-0.65271 0.3073,0.009 0.0988,-0.51634 0.56044,3.8e-4 0.0275,-0.21775 0.66085,-0.0146 0.56533,-0.2754 0.2253,-0.27405 0.37488,0.18254 0.73158,-0.18759 0.15971,-0.10828 0.1713,-0.31581 0.12226,-0.56234 0.4005,0.22895 0.27118,-0.28039 0.0801,-0.11131 0.23475,-0.35147 0.62688,0.1262 0.34431,0.18626 0.27352,0.25404 -0.4921,0.0463 0.17018,0.20805 -0.16557,0.12009 0.55479,0.41306 0.51253,-0.12765 0.37242,0.1751 0.785,0.28517 0.72264,0.46784 -0.37897,-0.18353 -0.27454,0.14848 -0.55574,0.38584 0.32673,0.0577 0.52333,-0.25921 0.6883,-0.18587 0.0811,-0.2435 0.18475,-0.3918 0.58639,-0.18458 0.52315,-0.12983 0.39593,-0.38265 0.59818,-0.68801 0.26938,-0.0783 -0.0784,-0.20491 -0.036,-0.27174 0.5061,-0.51265 0.44355,-0.71736 0.83545,-1.07046 0.3,0.11283 0.70167,0.0727 0.40331,0.51868 -0.1742,0.65296 0.19644,0.47832 0.42537,0.16243 -0.14366,-0.0943 0.49579,-0.48277 0.62359,-0.11081 -0.0659,0.55793 0.54022,0.29312 0.11155,-0.11627 0.35694,-0.52953 0.49723,0.1471 0.51151,0.28043 -0.25984,-0.0458 -0.0112,0.34552 0.1825,0.10814 -0.1015,0.14341 0.0688,0.41283 -0.40536,0.31583 0.11239,-0.38255 -0.56501,0.51957 -0.52842,0.002 -0.59657,0.73678 0.84275,0.34807 0.48185,0.91668 0.23658,-0.12358 0.35285,0.0222 0.61653,0.0793 -0.24836,-0.44427 0.66247,0.52691 0.49499,-0.0972 0.37051,-0.40368 0.55809,0.33582 0.80559,-0.23729 -0.0189,0.64258 0.42713,0.60741 0.49653,0.0163 -0.0729,0.50992 0.42455,0.31888 0.67317,0.36778 0.0193,0.47767 0.099,0.71234 0.38128,0.29485 -0.38523,0.0739 0.41296,-0.48124 -0.087,-0.65772 -0.11798,-0.38294 -0.60826,-0.12852 -0.20622,-0.56264 -0.13741,-0.35975 -0.32323,-0.0227 -0.51332,-0.43952 -0.38945,0.0615 -0.64422,0.69608 -0.18093,0.62742 0.18552,0.0313 -0.15602,0.44248 -0.31134,-0.0529 -0.14974,0.11156 -0.36726,0.42949 -0.17006,0.0605 -0.40657,-0.1688 -0.63202,-0.12525 -0.83232,0.0237 -0.45487,-0.37351 0.49548,-1.06097 0.0606,-1.21993 0.0911,-0.41954 0.46406,-0.58108 0.60761,-0.65329 0.15066,-0.58671 0.65098,0.33515 0.75784,0.10841 -0.20506,0.21018 0.45389,0.49603 -0.0398,0.56665 0.23549,0.72575 0.74129,0.204 0.5832,-0.20534 -0.42687,-0.27735 -0.40221,-0.69162 0.0499,-0.19865 0.17215,-0.23288 0.72424,0.33107 0.55238,0.32128 -0.22255,0.62643 -0.50478,-0.21354 -0.23734,0.14043 -0.12367,-0.84334 -0.45001,0.30459 -0.0346,0.33904 -0.56309,0.24139 0.0644,0.19127 0.0504,0.548 0.61997,0.0622 0.34618,-0.54838 0.75563,0.0513 0.0363,0.19194 -0.33956,-0.18679 -0.27716,0.0666 -0.29087,0.0158 0.13427,0.7041 0.38271,0.40982 -0.33754,-0.30504 0.6482,-0.52591 0.15506,-0.0613 0.34185,0.25172 -0.0259,0.47718 -0.05,0.23663 -0.92543,0.34674 0.50393,1.01484 0.26466,0.38096 0.23111,0.20339 0.19118,-0.73204 0.69743,-0.16172 -0.21651,0.16426 0.29175,-0.032 0.44542,0.38926 0.37229,0.0195 0.50859,0.15168 0.92538,-0.0537 0.33908,0.35087 -0.29565,0.0844 0.10219,0.46489 -0.12449,0.63312 0.38358,0.28471 0.54245,0.17973 -0.023,-0.19404 0.34788,-0.4805 0.10877,0.13005 -0.22078,0.12859 -0.25122,0.76436 -0.14407,1.09539 -0.22775,0.33792 0.51749,-0.0662 0.16098,0.48971 -0.32764,0.76606 1.19294,-0.19875 0.64476,-0.35362 0.3404,-0.45712 0.68875,-0.69037 0.81623,-0.68205 0.30337,-0.75067 0.75025,0.5183 0.97809,-0.17963 0.36854,-0.031 0.7994,-0.10067 0.83029,0.21168 -0.34718,0.10437 0.43986,0.48598 0.0409,0.48408 0.34142,0.39344 -0.0157,0.64361 0.29688,0.53757 0.0435,0.42041 -0.16941,0.5168 0.18077,0.62926 -0.49073,0.25789 -0.45157,0.25544 -0.10695,0.34322 -0.15409,0.37121 -0.60734,-0.045 -0.49908,-0.0991 -0.32164,-0.0672 0.25873,-0.48066 -0.11009,-0.60717 -0.0196,-0.51546 -0.62488,0.071 -0.64187,-0.10069 -0.33083,0.22983 0.54217,0.17587 -0.0117,0.28765 -0.6952,0.11619 -0.2705,-0.83485 -0.74214,-0.51947 -0.34982,0.37192 0.5363,0.4603 -0.36904,0.41574 -0.31279,-0.11797 -1.078,0.19179 -0.44341,0.37308 0.0247,-0.25142 0.1887,0.52409 0.45591,0.20895 -0.13824,0.3616 0.0227,0.37677 0.1876,0.44404 -0.14507,0.38452 0.13832,0.39585 -0.0572,0.88175 -0.22441,0.67995 0.31933,0.0842 0.39665,0.20631 0.10367,0.30955 0.44765,-0.17252 0.44426,0.4468 0.37702,-0.21536 0.8075,-0.30173 1.20948,0.13101 0.0695,0.15195 0.0632,0.53819 0.27394,0.78117 -0.57287,-0.30503 -0.44861,1.06064 -0.0626,0.40289 0.13739,-0.31742 0.38544,0.57724 0.62563,0.63017 0.25661,0.32737 -0.97273,0.0853 -0.38686,0.67546 -0.0507,0.63676 -0.39014,0.3466 -0.53976,0.01 -0.10425,-0.37961 -0.49893,-0.82521 -0.67884,-0.23644 0.56847,-0.20527 -0.27073,0.76252 0.31998,0.55712 -0.14095,0.31723 -0.23343,0.39206 0.0621,0.35508 -0.60438,0.10561 -0.32716,0.80098 -0.21231,0.20332 0.4927,0.10139 0.13257,0.3115 0.35344,0.71883 -0.51393,0.10885 0.17709,0.61225 -0.0783,0.90784 0.28796,0.18655 0.0818,0.0932 -0.39706,0.0339 0.25761,0.23006 -0.49637,0.0794 -0.47348,0.20924 -0.64785,-0.38468 0.10535,0.10882 -0.1223,0.39436 0.72512,0.0752 -0.53709,0.0414 0.10674,0.49631 -0.10193,0.12083 0.39106,0.30255 0.14627,0.62587 0.2383,-0.002 0.0291,1.13952 -0.50378,0.62272 -0.85604,-0.35554 0.0844,0.078 0.0505,0.59017 0.48746,0.0199 0.2165,-0.49707 0.54828,-0.1951 -0.36283,0.28669 0.3452,0.67384 -0.19701,0.35585 -0.0344,0.48869 0.12897,0.85058 -0.28089,0.57405 0.0457,0.11076 -0.19321,0.43837 -0.34483,0.32194 -0.45346,-0.31172 0.0293,0.50779 -0.54364,0.34929 0.0887,0.51835 -0.49694,-0.58169 -0.55218,0.12471 -0.24487,0.0833 -0.39241,-0.0924 -0.7356,-0.29025 0.28102,-0.003 0.31003,-0.65621 0.033,-0.48273 -0.19781,0.0211 -0.26163,0.12916 -0.67392,-0.0481 -0.10214,0.54198 -0.15569,0.19188 -0.44745,0.17924 0.16668,0.6039 0.0201,0.71749 -0.42527,0.73809 -0.2978,0.11454 -0.56787,0.6274 -0.99009,0.40085 -0.3559,0.0206 -0.48335,0.32372 -0.7161,-0.28659 -0.54517,0.0128 0.19591,-0.2698 0.41312,0.0193 0.019,-0.44338 0.12999,-0.67344 -0.33838,-0.58234 0.0201,-0.0253 -0.36301,0.46382 -0.50098,-0.0335 -0.0336,-0.21251 -0.54018,0.47805 -0.84862,0.0535 0.31363,-0.20759 -0.55941,-0.47655 -0.42262,-0.2068 -0.47285,-0.57303 0.53342,-0.25458 -0.28521,-0.51992 -0.56165,0.16207 0.13836,0.4621 0.21267,0.79893 -0.50195,0.68494 -0.18733,-0.31807 -0.72866,0.12902 -0.68263,-0.64181 -0.10411,0.56784 -0.21646,0.48552 -0.16885,0.71393 -0.58315,-0.0661 -0.70507,-0.56835 -0.12588,0.47107 0.0615,0.086 -0.29148,-0.11878 -0.68461,-0.1035 -0.4536,1.18698 -0.0439,0.43063 0.34634,-0.53052 -0.24355,0.40876 0.23412,0.21169 -0.0937,0.52167 -0.59054,0.94378 0.20857,0.63492 0.43218,0.16943 -8.5e-4,-0.14841 0.40344,0.002 -0.0414,0.13655 0.28393,-0.2869 0.21399,0.26487 -0.12954,0.37133 -1.03111,-0.33686 -0.79272,0.24736 -0.29636,-0.15939 -0.3721,0.003 -0.55448,0.17847 0.0905,0.22324 -0.46958,-0.3867 -0.3079,0.0938 -0.47317,0.23179 -0.35383,0.60205 -0.85414,0.10923 -0.32303,0.0901 -0.14972,-0.19622 -0.65253,-0.14501 0.0594,0.57522 -0.10587,-0.63176 -0.10789,-0.25514 -2.1e-4,-0.67091 -0.22709,0.21202 -0.59889,-0.27526 -0.52945,0.61616 -0.531,-0.33511 -0.72786,-0.0891 0.18202,-0.17647 -0.0401,-0.73678 0.18897,-0.55575 0.10739,0.10033 1.00134,-0.0611 0.61928,-0.48789 3e-4,-0.42269 -0.27617,0.11267 -0.58524,-0.20675 0.1597,0.38808 -0.32553,-0.0549 -0.40133,-0.10758 -0.19189,0.0513 -0.13226,-1.1977 0.11095,-0.78132 0.69692,-0.0866 -0.0454,-0.45778 -0.0517,-0.64755 -0.055,0.36213 -0.0373,-1.05453 -0.41036,-0.17088 0.32549,0.54094 -0.57303,0.74309 -0.5475,0.49737 -0.0279,0.0363 -0.62489,-0.52156 -0.50002,0.15383 -0.41372,0.44573 -0.23613,0.84052 0.16095,0.58895 0.22611,0.29659 -0.2547,0.64521 -0.36906,0.49864 -0.63712,0.0632 0.13931,-0.91814 -0.35369,-0.40226 -0.10837,-0.40244 -0.62489,0.59297 -0.66541,0.1659 z"
         id="path9138" /></g><path
       style="fill:none;stroke:#000000;stroke-width:26.4375;stroke-linecap:butt;stroke-linejoin:round;stroke-dasharray:none;stroke-opacity:1"
       d="m 172.88367,251.95614 h 141.75195 l 71.13773,123.21417 v 96.0205 h 105.24627"
       id="path10799"
       sodipodi:nodetypes="ccccc" /><path
       style="fill:none;stroke:#cccccc;stroke-width:1.875;stroke-linecap:butt;stroke-linejoin:round;stroke-dasharray:7.5, 15;stroke-dashoffset:0;stroke-opacity:1"
       d="m 172.88367,251.95614 h 141.75195 l 71.13773,123.21417 v 96.0205 h 105.24627"
       id="path11671"
       sodipodi:nodetypes="ccccc" /><g
       id="g6"><g
         id="g4"><path
           style="fill:none;stroke:#000000;stroke-width:1.41732;stroke-linecap:butt;stroke-linejoin:miter;stroke-miterlimit:4;stroke-dasharray:none;stroke-opacity:1;marker-end:url(#marker2716)"
           d="M 154.78628,392.4115 V 517.47907"
           id="path2708"
           sodipodi:nodetypes="cc" /><path
           style="fill:none;stroke:#000000;stroke-width:1.41732;stroke-linecap:butt;stroke-linejoin:miter;stroke-miterlimit:4;stroke-dasharray:none;stroke-opacity:1;marker-end:url(#marker2726)"
           d="M 154.78628,332.69537 V 207.6278"
           id="path2710"
           sodipodi:nodetypes="cc" /></g><g
         id="text5"
         style="font-size:17.5px;font-family:'Nova Round';-inkscape-font-specification:'Nova Round, Normal';text-align:center;text-anchor:middle;stroke-width:0.311811;stroke-linecap:round"
         transform="rotate(-90)"
         aria-label="36&quot;"><path
           style="font-size:16.25px"
           d="m -375.33572,157.52066 1.50756,-0.71411 h 0.0794 v 0.71411 q 0,1.04736 0.57129,1.7218 0.69031,0.81726 1.84875,0.81726 1.13465,0 1.84876,-0.81726 0.56335,-0.6427 0.56335,-1.64245 0,-0.93628 -0.46814,-1.48377 -0.65063,-0.74585 -1.95984,-0.74585 -1.08703,0 -1.76147,0.34912 l 2.62634,-4.92737 h -4.15771 v -0.0793 l 0.6427,-1.36475 h 5.97473 l -2.72156,4.76075 q 1.39649,0.008 2.33277,0.83313 1.0791,0.95214 1.0791,2.64221 0,1.61865 -1.06323,2.75329 -1.08704,1.15052 -2.9358,1.15052 -1.84875,0 -2.93579,-1.15052 -1.07116,-1.13464 -1.07116,-2.81677 z m 18.67004,-5.06226 -1.45996,0.69825 h -0.0794 q 0,-1.0553 -0.57129,-1.72181 -0.71411,-0.81726 -1.68212,-0.81726 -1.15052,0 -1.85669,0.81726 -0.57129,0.65857 -0.57129,1.72181 v 1.47583 q 1.03149,-0.93628 2.42004,-0.93628 1.84876,0 2.93579,1.15051 1.07117,1.13464 1.07117,2.73743 0,1.61865 -1.07117,2.75329 -1.08703,1.15052 -2.93579,1.15052 -1.84875,0 -2.93579,-1.15052 -1.07117,-1.13464 -1.07117,-2.73742 v -4.44336 q 0,-1.68213 1.07117,-2.81678 1.08704,-1.15051 2.93579,-1.15051 1.75354,0 2.7771,1.07117 1.02356,1.06323 1.02356,2.19787 z m -3.80066,2.66602 q -1.13464,0 -1.84875,0.81726 -0.57129,0.65857 -0.57129,1.65833 0,0.97595 0.57129,1.64245 0.69824,0.81726 1.84875,0.81726 1.11878,0 1.84876,-0.81726 0.57128,-0.6427 0.57128,-1.64245 0,-0.99183 -0.57128,-1.65833 -0.69825,-0.81726 -1.84876,-0.81726 z"
           id="path6" /><path
           d="m -349.8566,148.08463 h 0.0855 v 4.13574 l -1.33301,0.63232 h -0.0855 v -4.13574 z m -2.40112,0 h 0.0854 v 4.13574 l -1.33301,0.63232 h -0.0854 v -4.13574 z"
           id="path7" /></g></g><g
       id="g1"
       transform="translate(0,0.50137424)"><rect
         style="fill:none;stroke:#000000;stroke-width:1.38563;stroke-miterlimit:4;stroke-dasharray:none;stop-color:#000000"
         id="rect2236"
         width="17.36437"
         height="17.36437"
         x="418.04031"
         y="384.33411"
         ry="2.0089285" /><rect
         style="fill:none;stroke:#000000;stroke-width:1.38563;stroke-miterlimit:4;stroke-dasharray:none;stop-color:#000000"
         id="rect1"
         width="17.36437"
         height="17.36437"
         x="418.04031"
         y="420.82965"
         ry="2.0089285" /></g></g></svg>
