<?xml version="1.0" encoding="UTF-8" standalone="no"?>
<svg
   width="100.00021mm"
   height="100.0002mm"
   viewBox="0 0 354.33144 354.33141"
   id="svg2"
   version="1.1"
   inkscape:version="1.3.2 (091e20e, 2023-11-25, custom)"
   sodipodi:docname="spielfeld.svg"
   xml:space="preserve"
   xmlns:inkscape="http://www.inkscape.org/namespaces/inkscape"
   xmlns:sodipodi="http://sodipodi.sourceforge.net/DTD/sodipodi-0.dtd"
   xmlns="http://www.w3.org/2000/svg"
   xmlns:svg="http://www.w3.org/2000/svg"
   xmlns:rdf="http://www.w3.org/1999/02/22-rdf-syntax-ns#"
   xmlns:cc="http://creativecommons.org/ns#"
   xmlns:dc="http://purl.org/dc/elements/1.1/"><defs
     id="defs4"><marker
       style="overflow:visible"
       id="marker2726"
       refX="0"
       refY="0"
       orient="auto"
       inkscape:stockid="Arrow1Lend"
       inkscape:isstock="true"><path
         transform="matrix(-0.8,0,0,-0.8,-10,0)"
         style="fill:#000000;fill-opacity:1;fill-rule:evenodd;stroke:#000000;stroke-width:1pt;stroke-opacity:1"
         d="M 0,0 5,-5 -12.5,0 5,5 Z"
         id="path2724" /></marker><marker
       style="overflow:visible"
       id="marker2716"
       refX="0"
       refY="0"
       orient="auto"
       inkscape:stockid="Arrow1Lend"
       inkscape:isstock="true"><path
         transform="matrix(-0.8,0,0,-0.8,-10,0)"
         style="fill:#000000;fill-opacity:1;fill-rule:evenodd;stroke:#000000;stroke-width:1pt;stroke-opacity:1"
         d="M 0,0 5,-5 -12.5,0 5,5 Z"
         id="path2714" /></marker><marker
       style="overflow:visible"
       id="marker2522"
       refX="0"
       refY="0"
       orient="auto"
       inkscape:stockid="Arrow1Lend"
       inkscape:isstock="true"
       inkscape:collect="always"><path
         transform="matrix(-0.8,0,0,-0.8,-10,0)"
         style="fill:#000000;fill-opacity:1;fill-rule:evenodd;stroke:#000000;stroke-width:1pt;stroke-opacity:1"
         d="M 0,0 5,-5 -12.5,0 5,5 Z"
         id="path2520" /></marker><marker
       style="overflow:visible"
       id="Arrow1Lend"
       refX="0"
       refY="0"
       orient="auto"
       inkscape:stockid="Arrow1Lend"
       inkscape:isstock="true"
       inkscape:collect="always"><path
         transform="matrix(-0.8,0,0,-0.8,-10,0)"
         style="fill:#000000;fill-opacity:1;fill-rule:evenodd;stroke:#000000;stroke-width:1pt;stroke-opacity:1"
         d="M 0,0 5,-5 -12.5,0 5,5 Z"
         id="path1857" /></marker><linearGradient
       id="linearGradient5588"
       inkscape:swatch="solid"><stop
         style="stop-color:#000000;stop-opacity:1;"
         offset="0"
         id="stop5590" /></linearGradient></defs><sodipodi:namedview
     id="base"
     pagecolor="#ffffff"
     bordercolor="#666666"
     borderopacity="1.0"
     inkscape:pageopacity="0.0"
     inkscape:pageshadow="2"
     inkscape:zoom="1.979899"
     inkscape:cx="75.76144"
     inkscape:cy="118.44038"
     inkscape:document-units="px"
     inkscape:current-layer="layer1"
     showgrid="false"
     fit-margin-top="0"
     fit-margin-left="0"
     fit-margin-right="0"
     fit-margin-bottom="0"
     inkscape:window-width="1920"
     inkscape:window-height="1009"
     inkscape:window-x="1912"
     inkscape:window-y="-8"
     inkscape:window-maximized="1"
     inkscape:snap-bbox="true"
     inkscape:bbox-paths="true"
     inkscape:object-paths="true"
     inkscape:document-rotation="0"
     inkscape:snap-midpoints="true"
     inkscape:showpageshadow="2"
     inkscape:pagecheckerboard="0"
     inkscape:deskcolor="#d1d1d1" /><metadata
     id="metadata7"><rdf:RDF><cc:Work
         rdf:about=""><dc:format>image/svg+xml</dc:format><dc:type
           rdf:resource="http://purl.org/dc/dcmitype/StillImage" /><dc:title /></cc:Work></rdf:RDF></metadata><g
     inkscape:label="Ebene 1"
     inkscape:groupmode="layer"
     id="layer1"
     transform="translate(-137.06974,-167.67154)"><rect
       style="color:#000000;display:inline;overflow:visible;visibility:visible;fill:#71552b;fill-opacity:1;fill-rule:nonzero;stroke:#000000;stroke-width:0.761674;stroke-miterlimit:4;stroke-dasharray:none;stroke-dashoffset:0;stroke-opacity:1;marker:none;enable-background:accumulate"
       id="rect4136"
       width="318.13596"
       height="318.13599"
       x="172.88367"
       y="203.48543" /><path
       style="fill:none;stroke:#000000;stroke-width:1.77165;stroke-linecap:butt;stroke-linejoin:miter;stroke-miterlimit:4;stroke-dasharray:3.54331, 3.54331;stroke-dashoffset:0;stroke-opacity:1"
       d="m 173.38865,167.67154 v 35.43307"
       id="path1844"
       sodipodi:nodetypes="cc" /><path
       style="fill:none;stroke:#000000;stroke-width:1.77165;stroke-linecap:butt;stroke-linejoin:miter;stroke-miterlimit:4;stroke-dasharray:3.54331, 3.54331;stroke-dashoffset:0;stroke-opacity:1"
       d="m 490.51464,167.67154 v 35.43307"
       id="path1846" /><g
       id="g5"><g
         id="g3"><path
           style="fill:none;stroke:#000000;stroke-width:1.41732;stroke-linecap:butt;stroke-linejoin:miter;stroke-miterlimit:4;stroke-dasharray:none;stroke-opacity:1;marker-end:url(#Arrow1Lend)"
           d="M 302.09358,185.38808 H 177.02601"
           id="path1852"
           sodipodi:nodetypes="cc" /><path
           style="fill:none;stroke:#000000;stroke-width:1.41732;stroke-linecap:butt;stroke-linejoin:miter;stroke-miterlimit:4;stroke-dasharray:none;stroke-opacity:1;marker-end:url(#marker2522)"
           d="M 361.80971,185.38808 H 486.87728"
           id="path2518"
           sodipodi:nodetypes="cc" /></g><g
         id="text1"
         style="font-size:17.5px;font-family:'Nova Round';-inkscape-font-specification:'Nova Round, Normal';text-align:center;text-anchor:middle;stroke-width:0.311811;stroke-linecap:round"
         aria-label="36&quot;"><path
           style="font-size:16.25px"
           d="m 319.16937,188.12245 1.50757,-0.71411 h 0.0793 v 0.71411 q 0,1.04737 0.57129,1.7218 0.6903,0.81726 1.84875,0.81726 1.13464,0 1.84876,-0.81726 0.56335,-0.6427 0.56335,-1.64245 0,-0.93628 -0.46814,-1.48377 -0.65063,-0.74585 -1.95984,-0.74585 -1.08703,0 -1.76147,0.34912 l 2.62634,-4.92736 h -4.15772 v -0.0793 l 0.6427,-1.36475 h 5.97474 l -2.72156,4.76075 q 1.39648,0.008 2.33276,0.83313 1.0791,0.95214 1.0791,2.64221 0,1.61865 -1.06323,2.75329 -1.08703,1.15052 -2.93579,1.15052 -1.84875,0 -2.93579,-1.15052 -1.07117,-1.13464 -1.07117,-2.81677 z m 18.67005,-5.06225 -1.45996,0.69824 h -0.0793 q 0,-1.0553 -0.57129,-1.7218 -0.71411,-0.81726 -1.68213,-0.81726 -1.15051,0 -1.85669,0.81726 -0.57129,0.65857 -0.57129,1.7218 v 1.47583 q 1.0315,-0.93628 2.42005,-0.93628 1.84875,0 2.93579,1.15051 1.07117,1.13465 1.07117,2.73743 0,1.61865 -1.07117,2.75329 -1.08704,1.15052 -2.93579,1.15052 -1.84876,0 -2.93579,-1.15052 -1.07117,-1.13464 -1.07117,-2.73742 v -4.44336 q 0,-1.68213 1.07117,-2.81677 1.08703,-1.15052 2.93579,-1.15052 1.75354,0 2.7771,1.07117 1.02356,1.06323 1.02356,2.19788 z m -3.80066,2.66601 q -1.13465,0 -1.84876,0.81726 -0.57129,0.65857 -0.57129,1.65833 0,0.97595 0.57129,1.64245 0.69824,0.81726 1.84876,0.81726 1.11877,0 1.84875,-0.81726 0.57129,-0.6427 0.57129,-1.64245 0,-0.99182 -0.57129,-1.65833 -0.69824,-0.81726 -1.84875,-0.81726 z"
           id="path8" /><path
           d="m 344.6485,178.68642 h 0.0854 v 4.13574 l -1.33301,0.63232 h -0.0854 v -4.13574 z m -2.40112,0 h 0.0854 v 4.13574 l -1.333,0.63232 h -0.0854 v -4.13574 z"
           id="path9" /></g></g><path
       style="fill:none;stroke:#000000;stroke-width:1.77165;stroke-linecap:butt;stroke-linejoin:miter;stroke-miterlimit:4;stroke-dasharray:3.54331, 3.54331;stroke-dashoffset:0;stroke-opacity:1"
       d="m 137.06974,521.11643 h 35.43307"
       id="path2700"
       sodipodi:nodetypes="cc" /><path
       style="fill:none;stroke:#000000;stroke-width:1.77165;stroke-linecap:butt;stroke-linejoin:miter;stroke-miterlimit:4;stroke-dasharray:3.54331, 3.54331;stroke-dashoffset:0;stroke-opacity:1"
       d="m 137.06974,203.99044 h 35.43307"
       id="path2702" /><path
       style="fill:#888a85;stroke:#000000;stroke-width:0.615334px;stroke-linecap:butt;stroke-linejoin:miter;stroke-opacity:1"
       d="m 220.66497,363.8529 c -1.89728,1.65627 -4.55355,3.89586 -5.59423,5.28344 -1.04068,1.38758 1.12519,5.41467 0,7.45898 -1.12519,2.04431 -4.75855,9.48307 -2.48632,12.43163 2.27222,2.94856 7.79702,7.73255 9.63451,7.76978 1.83749,0.0372 6.94384,-2.85686 9.01293,-4.04029 2.0691,-1.18343 2.51594,-2.15224 4.35107,-2.79711 1.83513,-0.64488 5.61223,-0.84122 6.21582,-4.04029 0.6036,-3.19906 -0.87131,-8.31862 -0.62158,-11.81005 0.24973,-3.49142 -2.04295,-5.23752 -2.79712,-8.08055 -0.75416,-2.84304 -5.65237,-3.98691 -8.39135,-3.7295 -2.73898,0.25741 -7.42644,-0.10231 -9.32373,1.55396 z"
       id="path1935"
       sodipodi:nodetypes="zzzzzzzzzzzz" /><path
       style="fill:#888a85;stroke:#000000;stroke-width:0.615334px;stroke-linecap:butt;stroke-linejoin:miter;stroke-opacity:1"
       d="m 244.27491,342.40123 c -0.17042,2.51274 -0.46506,5.97463 -0.21976,7.69167 0.24529,1.71704 4.62438,3.03313 5.2743,5.27431 0.64992,2.24117 3.34074,10.07034 7.0324,10.54858 3.69165,0.47824 10.98107,-0.0456 12.3067,-1.31856 1.32561,-1.273 2.88993,-6.93015 3.51618,-9.23003 0.62627,-2.29989 0.25718,-3.3009 1.09882,-5.05453 0.84163,-1.75363 3.37361,-4.56328 1.53833,-7.25216 -1.83527,-2.68889 -6.49826,-5.26605 -8.79049,-7.91145 -2.29223,-2.6454 -5.14808,-2.25891 -7.69168,-3.73595 -2.54361,-1.47706 -6.816,1.17766 -8.57074,3.29642 -1.75473,2.11877 -5.32363,5.17895 -5.49406,7.6917 z"
       id="path2218"
       sodipodi:nodetypes="zzzzzzzzzzzz" /><path
       style="fill:#888a85;stroke:#000000;stroke-width:0.615334px;stroke-linecap:butt;stroke-linejoin:miter;stroke-opacity:1"
       d="m 264.96513,408.84703 c 2.51274,0.17042 5.97463,0.46506 7.69167,0.21976 1.71704,-0.24529 3.03313,-4.62438 5.27431,-5.2743 2.24117,-0.64992 10.07034,-3.34074 10.54858,-7.0324 0.47824,-3.69165 -0.0456,-10.98107 -1.31856,-12.3067 -1.273,-1.32561 -6.93015,-2.88993 -9.23003,-3.51618 -2.29989,-0.62627 -3.3009,-0.25718 -5.05453,-1.09882 -1.75363,-0.84163 -4.56328,-3.37361 -7.25216,-1.53833 -2.68889,1.83527 -5.26605,6.49826 -7.91145,8.79049 -2.6454,2.29223 -2.25891,5.14808 -3.73595,7.69168 -1.47706,2.54361 1.17766,6.816 3.29642,8.57074 2.11877,1.75473 5.17895,5.32363 7.6917,5.49406 z"
       id="path2220"
       sodipodi:nodetypes="zzzzzzzzzzzz" /><rect
       style="fill:#666666;stroke:#000000;stroke-width:1.38562499;stroke-miterlimit:4;stroke-dasharray:none;stop-color:#000000"
       id="rect2230"
       width="70.07933"
       height="69.605827"
       x="410.75793"
       y="376.96252" /><rect
       style="fill:#666666;stroke:#000000;stroke-width:1.38563;stroke-miterlimit:4;stroke-dasharray:none;stop-color:#000000"
       id="rect2232"
       width="53.170845"
       height="34.951809"
       x="425.65747"
       y="342.01071" /><rect
       style="fill:none;stroke:#000000;stroke-width:1.38563;stroke-miterlimit:4;stroke-dasharray:none;stop-color:#000000"
       id="rect2234"
       width="17.36437"
       height="17.36437"
       x="418.04031"
       y="422.45157" /><rect
       style="fill:none;stroke:#000000;stroke-width:1.38563;stroke-miterlimit:4;stroke-dasharray:none;stop-color:#000000"
       id="rect2236"
       width="17.36437"
       height="17.36437"
       x="418.04031"
       y="384.33411" /><rect
       style="fill:#666666;stroke:#000000;stroke-width:1.38562499;stroke-miterlimit:4;stroke-dasharray:none;stop-color:#000000"
       id="rect2238"
       width="53.170845"
       height="34.951809"
       x="252.4167"
       y="271.67276" /><path
       style="fill:none;stroke:#000000;stroke-width:1.38562499;stroke-linecap:butt;stroke-linejoin:miter;stroke-opacity:1;stroke-miterlimit:4;stroke-dasharray:none"
       d="M 252.4167,271.67277 H 172.88367"
       id="path2240" /><g
       id="g9128"
       transform="matrix(1.1702547,0,0,1.1702547,-35.527818,-74.127915)"><path
         style="fill:#58a358;stroke:#000000;stroke-width:0.253919;stroke-linecap:butt;stroke-linejoin:miter;stroke-miterlimit:4;stroke-dasharray:none;stroke-opacity:1;fill-opacity:1"
         d="m 246.56036,435.53943 c -3.63352,0.27179 -7.62691,2.86983 -13.82746,2.79942 -6.20055,-0.0704 -18.08302,-4.11364 -21.71673,-0.33932 -4.23592,4.90817 -1.27706,12.83503 -0.2545,15.86341 1.00703,3.05802 -0.44085,10.01988 0.25449,13.31846 0.69533,3.29858 2.4317,12.75485 8.82243,18.32351 6.39072,5.56865 18.38697,0.83265 27.65491,3.39323 9.26794,2.56059 10.70173,4.70775 14.67577,2.46011 3.97405,-2.24765 6.65725,-6.93213 7.3803,-10.0949 0.72305,-3.16276 -3.38604,-16.6995 -5.68368,-24.68582 -2.29763,-7.98632 -2.4465,-11.00513 -7.33789,-15.312 -4.60673,-3.9718 -6.70645,-5.95878 -9.96764,-5.7261 z"
         id="path8677"
         sodipodi:nodetypes="czcczzzzzzcc" /><path
         style="fill:#3c7605;fill-opacity:1;stroke-width:0.0551275"
         d="m 221.10406,466.84459 c 0.50709,0.21339 0.2834,-0.15481 0.69978,-0.0486 0.17928,-0.18919 0.52213,0.0499 0.41793,-0.43551 0.70793,0.0625 -0.38957,-0.18635 0.33098,-0.2429 0.28538,0.36948 0.30138,0.12271 0.59523,0.28335 0.23679,0.16975 0.009,0.50951 -0.008,0.96688 -0.20409,0.0461 -1.05307,0.0304 -0.6567,0.49331 0.0914,0.68121 0.36219,-0.44348 0.29391,-0.30602 -0.0886,0.93099 0.48694,0.0937 0.47894,0.0466 -0.0494,-0.46893 0.42099,-0.45393 0.79302,-0.30551 0.36376,0.0219 1.03998,-0.42836 0.44085,-0.49129 0.36938,-0.0781 -0.30826,-0.55011 -0.26059,-0.5333 -0.24149,0.73143 0.15474,0.0925 0.0358,0.63904 -0.24172,0.001 -0.57172,-0.19784 -0.88537,-0.46408 0.44798,0.12823 0.28124,-0.63371 0.12427,-0.54772 0.56122,-0.1642 0.42262,-0.57576 0.91357,-0.58751 0.0499,0.12145 0.72352,-0.55517 0.90876,-0.22422 -0.0121,0.0627 0.42743,-0.4428 0.34454,-0.11305 -0.28123,0.0295 0.31171,0.27981 -0.0669,0.27847 -0.20772,0.28511 -0.25319,1.11162 0.10243,0.47684 -0.1027,0.60889 0.62721,-0.21408 0.37777,0.20681 0.13852,0.29481 -0.66661,0.3538 -0.11401,0.4781 0.16235,0.34211 -0.23291,0.46589 0.0891,0.70999 0.15559,0.36126 0.6023,0.38645 0.73072,-0.0537 0.12367,-0.17633 0.38176,-0.62288 0.71044,-0.80374 0.39665,-0.25795 0.5643,-0.79987 0.15908,-0.66273 -0.15479,-0.39538 -0.9735,-0.16658 -0.21634,-0.50691 -0.0409,-0.52863 0.43074,-0.33883 0.72619,-0.57656 0.24097,0.22841 -0.336,0.75366 -0.39512,0.89902 -0.10726,-0.10331 0.37505,0.26516 0.40334,0.46493 0.24687,0.15892 0.10995,0.84696 0.52709,0.28617 -0.007,-0.1356 0.64129,-0.1498 0.23127,-0.60468 -0.26098,0.25125 -0.41113,-0.25111 -0.076,-0.35737 -0.46958,0.0809 0.70633,-0.41968 0.2686,-0.86381 -0.0796,-0.72701 0.67062,0.62048 0.57808,-0.12737 0.38953,-0.61733 0.80359,0.20881 0.58984,0.53577 0.28096,-0.30859 -0.0705,0.37645 0.32134,-0.0962 -0.32645,-0.11914 1.01124,-0.0903 0.34428,-0.48954 0.0369,-0.29803 -0.40297,0.67882 -0.31085,-0.0791 0.34094,-0.46733 0.19783,-0.23861 0.62894,0.10942 -0.45306,-0.16687 0.32243,0.50075 0.15499,0.17909 0.44348,0.27795 1.07656,0.18263 1.14076,0.60294 -0.5918,0.34661 0.29162,0.0859 0.18272,-0.11441 0.36354,-0.62516 0.6207,-0.3297 1.21142,-0.23836 0.35604,-0.62035 -0.42248,-0.0409 -0.15495,-0.52913 -0.34711,0.041 -0.30135,-0.27257 -0.0767,-0.48195 -0.44834,0.0709 0.37023,-0.15013 0.24752,-0.17808 0.71153,-0.0586 -0.62301,-0.33624 0.23718,-0.31148 0.56394,-0.28763 0.0872,0.30661 0.44644,0.66356 0.24972,0.2916 0.50641,0.41718 0.7983,0.66065 0.0242,0.3793 0.32103,0.71888 0.52154,0.74579 -0.34485,0.26238 -0.1786,0.85549 0.0251,0.89349 0.27948,0.17465 -0.22791,0.54714 0.27808,0.72498 -0.10401,0.39629 0.75533,-0.15569 0.38065,0.3811 0.41224,0.17197 0.0686,-0.42065 0.31538,0.0232 -0.0456,0.51319 -0.31647,0.0285 -0.42017,0.18394 0.0385,-0.46201 -0.1632,0.42059 -0.20251,0.18548 -0.2892,0.40456 0.63239,0.55228 -0.0553,0.98617 0.015,0.32521 -0.25858,0.22777 -0.10502,-0.098 -0.16054,0.14668 -0.5326,-0.57983 -0.44287,0.0181 0.26467,0.31318 0.11254,0.31176 0.28452,0.53655 0.40781,-0.0885 -0.0758,0.6461 0.2643,0.83194 0.19083,0.12835 0.4835,0.15431 0.64758,0.3148 -0.0368,-0.38783 0.70276,0.42695 0.74712,0.35501 0.31539,0.12487 0.65082,0.58273 0.23277,0.72605 0.21354,0.45632 -1.20613,-0.38528 -0.66527,0.26228 0.0635,0.45013 0.45826,-0.0962 0.29489,0.35153 0.69021,0.28901 -0.56428,0.55904 -0.22779,0.72218 0.46981,-0.22943 0.85448,0.29763 0.13711,0.40129 -0.0914,-0.2177 -0.23027,-0.0192 -0.20935,0.0988 -0.18327,0.17267 -0.46566,-0.29663 -0.0939,-0.42213 -0.71299,-0.14245 0.18353,-0.64735 -0.54925,-0.56193 -0.40291,0.0666 -8.2e-4,0.902 -0.54643,0.58483 0.12358,0.23658 -0.0222,0.35285 -0.0793,0.61653 0.38828,-0.19319 -0.48892,0.64186 0.11639,0.5922 0.3875,0.29749 -0.37585,0.48873 0.21814,0.70838 -0.64258,-0.0189 -0.60741,0.42713 -0.0162,0.49653 -0.61537,-0.10846 -0.16612,0.54963 -0.46055,0.68332 -0.50042,-0.0795 -0.48695,0.25875 -0.22904,0.33617 0.0512,-0.28264 0.48164,0.42128 0.68468,-0.0521 0.38294,-0.11798 0.12852,-0.60826 0.56264,-0.20622 0.30364,-0.164 0.13181,-0.3145 0.40851,-0.56855 -0.0107,-0.49158 -0.88252,-0.45429 -0.52085,-0.0712 -0.66595,0.0257 0.29754,-0.53162 -0.17612,-0.55093 -0.30071,-0.10762 0.3621,0.0856 0.14808,-0.39498 0.37466,-0.23732 -0.46746,-0.37056 0.0933,-0.56555 0.40326,-0.0202 0.8619,0.52565 1.01298,0.22123 0.33344,-0.01 0.72243,0.43993 0.60807,0.54272 0.64426,0.1305 -0.098,0.77876 -0.10853,0.79273 -0.10235,-0.0983 -0.46788,0.42314 -0.48639,-0.0272 -0.8859,0.26645 0.0673,0.8909 0.3034,0.43646 0.62004,-0.54575 0.15523,0.33831 -0.005,0.57723 -0.18491,0.34564 -0.16053,0.19922 -0.49736,-0.0665 0.29206,-0.29199 0.19019,0.22195 0.47294,-0.20684 -0.5193,-0.25181 -0.48447,0.16689 -0.74687,0.12454 -0.11307,-0.54183 -0.17219,0.19235 -0.47146,0.099 0.22311,0.5168 0.2458,0.61321 -0.0873,0.72245 0.12961,-0.24611 -0.005,-0.37149 -0.26682,-0.28998 -0.54979,0.35602 0.057,0.27117 0.14117,0.6089 0.13965,0.28752 -0.43487,-0.27171 -0.45827,0.1754 -0.44448,-0.22321 0.32846,-0.22478 -0.29103,-0.48407 -0.51527,-0.28895 -0.41155,0.80504 -0.10586,0.57347 -0.15505,0.15492 0.66011,0.0972 0.21551,0.56842 -0.20078,0.13412 -0.18514,-0.20857 -0.11928,0.29969 -0.50178,0.202 -0.45881,0.68795 -0.28606,1.12486 -0.35088,0.33908 -0.0845,-0.29565 -0.4649,0.10219 -0.63312,-0.12449 -0.28471,0.38358 -0.17973,0.54245 0.19404,-0.023 0.4805,0.34788 -0.13005,0.10877 -0.19214,-0.17786 -0.62176,-0.30829 -1.12921,-0.12678 0.0495,-0.22752 -0.27708,0.11601 -0.1407,0.24009 -1.00213,-0.52465 -0.50023,0.45545 -0.0813,0.71111 0.33191,-0.40548 0.88918,0.71864 0.8018,0.65348 0.66994,0.36088 -0.51783,0.75585 0.24822,1.0894 -0.17618,0.36381 0.16643,0.55321 -0.30408,0.76628 0.068,-0.4655 -0.5341,0.38176 -0.41963,0.0112 -0.30133,0.18284 -0.51824,0.15187 -0.62752,0.12441 0.28297,0.41952 -0.66623,-0.15993 -0.57995,0.33559 -0.25789,-0.49073 -0.25544,-0.45157 -0.34322,-0.10695 -0.37121,-0.15409 0.045,-0.60734 0.0991,-0.49908 0.20855,-0.31007 0.19102,0.18593 0.65007,-0.0323 0.0393,-0.16438 0.36775,-0.32302 0.0102,-0.5656 0.24519,-0.42528 -0.30583,-0.0331 -0.19681,-0.0266 -0.31097,-0.69328 0.66102,-0.54792 0.51722,-0.77692 -0.27361,-0.6155 -0.57651,0.50789 -0.45679,-0.47348 0.2612,-0.562 -0.47271,-0.82832 -0.28615,-0.48852 -0.13583,0.23014 -0.48513,0.18637 -0.29587,0.50102 -0.36161,-0.13824 -0.37678,0.0227 -0.44405,0.1876 -0.38452,-0.14507 -0.39585,0.13832 -0.88175,-0.0572 -0.67995,-0.22441 -0.0841,0.31933 -0.20631,0.39665 -0.30955,0.10367 0.17252,0.44765 -0.4468,0.44426 0.3328,0.40696 0.11992,0.84892 -0.10051,1.28988 -0.44036,-0.3174 -0.91492,0.59505 -0.797,-0.11999 -0.58104,-0.46564 -0.78764,0.32681 -0.27514,0.29338 -0.31961,0.22009 -0.6962,0.52216 -0.90374,0.60607 -0.16358,-0.44306 -0.0781,-0.65662 -0.63531,-0.42641 -0.58915,-0.0882 -0.15548,-0.38535 0.11855,-0.56843 0.57504,0.0443 0.52265,-0.7172 0.25205,-0.56207 -0.10411,0.44224 -0.72071,-0.33074 -0.65512,0.25963 -0.54459,-0.55792 -0.0981,0.48752 -0.50273,-0.26271 -0.44993,-0.32322 -0.15613,0.16981 -0.0623,0.14065 0.0678,0.41384 -0.53266,0.23927 -0.67601,0.21728 -0.22886,-0.3212 -0.64505,0.30732 -0.93574,-0.027 -0.21736,0.61991 0.1633,-0.49604 -0.134,-0.32974 0.0569,-0.48426 -0.16052,-0.35762 0.078,-0.77901 -0.0465,0.12477 -0.56826,0.12246 -0.58348,0.3812 -0.0102,0.0287 -0.10908,-0.57955 -0.45746,-0.11289 -0.13723,-0.14708 -0.24651,0.45083 -0.6115,0.11387 0.0164,0.30913 -1.15675,0.0552 -0.6371,-0.47138 0.37404,-0.84558 -0.12111,0.0619 -0.61955,0.0777 0.0973,0.48989 0.48124,0.16727 0.22448,0.52108 -0.28669,-0.36283 -0.67384,0.3452 -0.35585,-0.19701 -0.48869,-0.0344 -0.85058,0.12897 -0.57405,-0.28089 -0.19354,0.0293 -0.50716,-0.2592 -0.2321,-0.50213 -0.13563,-0.19826 -0.51165,0.0768 -0.43913,-0.38634 -0.51835,0.0887 0.58169,-0.49694 -0.1247,-0.55218 -0.0833,-0.24487 0.0924,-0.39241 0.29024,-0.7356 0.11343,0.44023 0.80106,0.13861 0.41552,-0.14499 0.28865,-0.22548 -0.2109,-0.74926 -0.15429,-0.61956 0.44828,-0.56418 -0.664,-0.1105 -0.6128,-0.37879 0.11306,-0.44016 -0.26648,-0.62187 -0.46954,-0.98414 -0.0126,-0.26918 0.13794,-0.6856 -0.11996,-0.75684 0.4032,-0.45501 0.68962,-0.76197 0.4776,0.0143 0.0879,0.13609 0.76349,0.19401 0.52574,-0.27508 -0.18176,0.0132 -0.19515,-0.41717 -0.0388,-0.54002 0.37461,0.005 -0.47581,-0.55965 0.0188,-0.80958 0.20758,0.31363 0.47654,-0.55941 0.20679,-0.42262 0.57303,-0.47285 0.25458,0.53342 0.51992,-0.28521 -0.19939,-0.7113 -0.551,0.51389 -0.97589,0.0925 -0.27506,-0.42415 0.45034,-0.0858 0.0479,-0.60846 0.64181,-0.68263 -0.56784,-0.10411 -0.48552,-0.21646 -0.71393,-0.16885 0.0661,-0.58315 0.56835,-0.70507 -0.66191,-0.0425 0.41236,-0.0761 -0.005,-0.55339 -0.34288,-0.57176 -0.90798,0.20507 -0.10691,0.33857 -0.3628,0.0343 -0.3153,-0.23262 -0.48192,0.12287 -0.57232,-0.28535 -0.81585,-0.43625 -0.56123,0.27043 -0.26535,0.32477 0.29356,0.009 -0.0548,0.31733 0.40635,0.15813 -0.58587,0.44385 -0.27118,-0.0978 -0.20439,-0.32302 0.35016,-0.58739 -0.19169,-0.46603 0.38101,-0.44576 -0.63913,-0.51432 -0.0248,-0.75003 -0.23741,-0.0756 -0.69895,-0.59107 -0.56864,-0.65385 0.31846,-0.5211 0.18596,-0.43416 0.36705,-0.87751 -0.37359,0.12764 0.096,-0.48233 0.34632,-0.0729 -0.21513,-0.26404 0.53741,-0.14039 -0.007,-0.27052 0.41454,-0.35817 -0.30606,-0.83478 0.18379,-1.03176 0.0615,-0.0816 0.22867,0.0621 0.1513,-0.15635 0.13588,0.21507 0.69239,-0.0413 0.49073,0.19816 -0.22878,0.37793 0.32599,1.04194 0.72784,0.49353 -0.43121,0.034 0.23643,-0.72943 -0.2011,-0.41449 0.19168,-0.5656 0.29737,-0.55781 0.89176,-0.54673 0.41263,-0.1724 0.14304,0.67526 0.36676,0.46174 0.57863,-0.2442 0.18256,-0.44968 0.68572,-0.33697 0.70207,-0.47775 -1.22338,-0.19596 -0.61376,-0.99263 0.16015,0.26378 0.0896,-0.35859 0.24483,-0.389 -0.53307,-0.14472 -1.27219,-0.5454 -0.94023,0.1196 -0.29659,0.22611 -0.64521,-0.2547 -0.49863,-0.36906 0.0228,-0.61006 0.83403,0.10854 0.45039,-0.38541 0.24596,-0.12704 -0.60435,-0.58328 -0.21404,-0.63369 z"
         id="path8718" /><path
         style="fill:#3c7605;fill-opacity:1;stroke-width:0.0387028"
         d="m 223.58381,442.90692 c 0.0832,0.37708 0.20317,0.0999 0.3112,0.38143 0.19447,0.0892 0.18477,0.24175 0.46744,0.0876 0.13209,0.38597 -0.0191,-0.36537 0.2214,0.10799 -0.13864,0.29672 0.20696,0.24717 0.0232,0.52437 0.0118,-0.0194 -0.44928,0.39566 -0.58565,0.20371 -0.0419,-0.34556 -0.4849,-0.27415 -0.54688,-0.0664 -0.0712,0.49668 0.79542,-0.40324 0.18918,0.16573 -0.0543,0.25736 0.43564,0.12012 0.55194,0.0629 0.26454,-0.0446 0.17879,0.49536 0.54163,0.58111 0.26552,0.25727 0.34153,-0.19542 0.30248,-0.17835 0.25232,-0.35104 0.14964,-0.39267 -0.17458,-0.15152 0.30674,0.0341 -0.30534,0.19692 -0.1319,-0.1131 -0.0734,-0.25666 -0.0689,-0.57879 0.13926,-0.35704 0.39668,-0.0361 -0.0251,-0.51097 0.48901,-0.11497 0.26326,-0.0206 0.20025,-0.0264 0.42305,0.14349 -0.0769,0.0522 0.72097,0.25618 0.4478,0.42829 0.14062,0.0156 0.41602,0.0857 0.25218,0.15408 -0.13081,-0.14951 -0.0342,0.29256 -0.18678,0.0743 -0.24779,-0.004 -0.73978,0.30435 -0.23208,0.25094 -0.39002,0.1885 0.37689,0.27257 0.0348,0.30109 -0.11301,0.19894 -0.47288,-0.23902 -0.32032,0.12818 -0.13005,0.23237 -0.36081,0.0555 -0.37033,0.33911 -0.14396,0.23552 0.0226,0.50176 0.32698,0.39701 0.15116,-2.2e-4 0.5118,-0.0337 0.7488,0.0815 0.30913,0.12283 0.68722,-6.3e-4 0.44409,-0.17715 0.1643,-0.24898 -0.29897,-0.62576 0.20306,-0.32941 0.28647,-0.23736 0.36882,0.10993 0.62476,0.18287 -0.033,0.23095 -0.56855,0.11208 -0.6753,0.13797 0.01,-0.0191 -0.0303,0.59649 -0.31525,0.7332 0.33241,0.0108 0.48473,0.41855 0.70208,-0.008 -0.28838,-0.10593 0.0519,-0.25594 0.16077,-0.21578 -0.17329,-0.13567 0.62751,0.23573 0.64885,-0.24489 0.38105,-0.0654 -0.1442,0.65884 0.2754,0.356 0.5118,-0.0272 0.20544,0.54568 -0.0685,0.55548 0.1962,-0.002 -0.11094,0.23157 0.19783,0.0799 -0.0367,4.3e-4 0.46213,0.53274 0.40746,0.0648 0.16344,-0.0744 -0.54026,0.0277 -0.0806,-0.20994 0.40595,0.007 0.21713,0.0164 0.1922,0.40514 -0.0881,-0.32746 -0.15662,0.3876 -0.0401,0.16178 0.0199,0.36677 0.33208,0.69117 0.11644,0.89792 -0.43826,-0.19848 0.069,0.2022 0.14028,0.0586 0.50583,-0.0447 0.44032,0.22201 0.62777,0.59811 0.42776,-0.0745 -0.0463,-0.25517 0.18692,-0.3426 -0.0562,-0.2144 0.13526,-0.1797 0.28546,-0.22269 -0.13906,-0.18957 0.21213,0.21088 0.26299,0.0941 0.22764,0.38493 -0.069,-0.51339 0.22752,0.008 0.47601,0.19846 -0.34405,0.22788 -0.12915,0.58052 -0.33688,0.28667 0.0592,0.45599 -0.16642,0.70367 -0.32038,0.21601 -0.0322,0.5586 -0.31627,0.58166 -0.24094,-0.029 -0.44921,0.30193 -0.37904,0.50457 -0.29155,-0.0829 -0.50029,0.50508 -0.14562,0.62519 -0.30502,-0.0553 -0.0916,0.36021 -0.0639,0.0774 0.16143,0.28546 -0.40449,0.24294 -0.23182,0.0602 -0.27735,-0.0211 0.29195,-0.24851 -0.1817,-0.0498 -0.0964,-0.21389 -0.32294,0.13254 -0.32328,0.30296 -0.23086,0.0496 -0.68329,0.12729 -0.42153,-0.0423 0.0867,-0.002 0.0517,-0.22246 0.0613,-0.40286 -0.18148,0.14305 -0.27723,0.33071 -0.28374,0.43321 0.0414,0.17036 -0.13904,0.22055 -0.30624,0.38046 -0.29668,0.2363 0.0266,0.44624 -0.0453,0.67063 0.20633,-0.17783 0.0534,0.57093 0.0989,0.57208 0.0565,0.23168 -0.0704,0.60923 -0.32202,0.4274 -0.17568,0.30636 -0.26818,-0.84753 -0.42027,-0.27533 -0.0719,0.27645 0.0686,0.17506 -0.0516,0.39406 -0.0314,0.41728 -0.68499,-0.25842 -0.48931,0.11588 0.4016,0.32279 -0.12907,0.45711 -0.22757,0.1598 0.18026,-0.19164 -0.19511,-0.0162 -0.1365,-0.0349 -0.17467,-0.0353 -0.0191,-0.3875 0.20309,-0.225 -0.20467,-0.47655 0.47984,-0.15117 0.0701,-0.57827 -0.21682,-0.0792 -0.48538,0.3609 -0.52728,-0.0402 -0.0858,0.16594 -0.21113,0.13002 -0.3856,0.20411 0.26773,0.14451 -0.56674,-0.0206 -0.29226,0.3063 -0.0392,0.31588 -0.40487,0.0143 -0.31743,0.41213 -0.25015,-0.3753 -0.49052,-0.17658 -0.29102,0.1912 -0.18736,-0.39705 -0.38202,0.12865 -0.5781,0.0136 -0.15713,-0.31874 -0.34539,-0.17457 -0.28539,0.005 0.19124,-0.11217 -0.0608,0.49116 0.3077,0.37147 0.22271,0.17178 0.40084,-0.17283 0.34623,0.23897 0.23032,0.16463 0.19053,-0.1241 0.47252,0.044 0.34573,-0.48464 -0.17209,-0.44346 -0.20795,-0.49199 0.005,-0.13962 0.43724,0.0196 0.30134,-0.19981 -0.0649,-0.14912 0.12854,0.15197 0.36312,-0.0619 0.0282,-0.10769 0.20079,-0.42895 0.32606,-0.0632 0.0578,0.28242 0.16147,0.52644 0.28589,0.65489 0.12839,0.32801 -0.18154,0.38506 -0.0507,0.63479 -0.16456,0.21816 -0.479,-0.002 -0.5305,0.1335 -0.0393,-0.19096 -0.37886,-0.13037 -0.23195,-0.37132 -0.6717,-0.30243 -0.31381,0.57871 0.12321,0.45224 -0.0207,0.15932 -0.56923,0.13005 -0.71913,0.19471 -0.19295,-0.21476 0.18223,-0.45686 0.13119,-0.24445 -0.28678,-0.12591 0.42897,0.36591 0.0943,-0.0409 -0.20571,-0.24562 -0.28388,-0.19116 -0.236,-0.4094 -0.14241,-0.0289 -0.57865,-0.023 -0.48474,0.20993 -0.0714,0.14153 -0.52747,-0.0945 -0.0962,-0.10205 -0.0438,-0.0413 -0.0434,-0.32137 -0.3698,-0.26334 0.0434,0.13175 -0.0353,0.68282 -0.12432,0.22682 -0.29612,-0.004 -0.17717,-0.28319 -0.0673,-0.15589 0.39022,-0.5737 -0.69917,-0.37763 -0.30629,-0.11108 -0.21511,-0.0229 0.18763,0.49722 -0.33414,0.37549 0.0569,-0.18204 -0.15386,0.13675 -0.41293,-0.0426 -0.27953,0.0572 -0.33234,0.31939 -0.6214,0.39742 0.0919,-0.15469 -0.11923,-0.26056 -0.30677,-0.37552 -0.20199,-0.0103 -0.18358,0.29925 -0.19199,0.3627 0.11028,0.33603 -0.34398,-0.22594 -0.14572,-0.3445 -0.12668,-0.1946 -0.40256,-0.73155 -0.51474,-0.43967 -0.14252,-0.39086 -0.3712,-0.57312 -0.43543,0.002 -0.21753,0.29494 0.29932,0.17147 0.0378,0.64034 -0.0699,0.3684 -0.1518,0.10828 -0.16542,0.50317 -0.27323,0.21637 -0.52413,-0.1042 -0.50487,0.38796 -0.16439,0.0825 -0.54363,0.30468 -0.48148,0.12549 -0.0554,-0.2431 -0.40349,-0.0712 -0.28908,-0.27139 -0.34136,0.0357 -0.18929,-0.50443 -0.36546,-0.11228 -0.10954,-0.27142 -0.13022,-0.42996 -0.35583,-0.34644 0.17696,-0.34695 0.15535,-0.32934 -0.0777,-0.23997 -0.062,-0.27531 0.36637,-0.22031 0.32626,-0.14543 0.17582,-0.0187 0.1149,0.36942 0.39886,0.36211 0.13882,0.10822 0.34481,-0.42631 0.28171,-0.2365 0.12555,-0.35381 -0.40224,0.14653 -0.008,-0.24747 0.36828,-0.21718 0.43875,0.47713 0.59103,-0.0169 -0.12187,-0.25681 -0.41162,-3e-5 0.0247,-0.32139 0.42826,-0.0781 0.28286,-0.60696 0.16413,-0.36207 -0.18669,0.0158 -0.30342,-0.20328 -0.40705,0.0331 -0.0669,-0.26349 -0.16635,-0.20734 -0.28738,-0.17885 -0.0727,-0.27911 -0.23961,-0.17131 -0.32506,-0.5285 -0.14734,-0.48079 -0.21698,0.0809 -0.31074,0.0423 -0.18452,-0.13548 -0.18736,0.28001 -0.43602,-0.0762 -0.10043,0.33679 -0.46814,0.47959 -0.82133,0.43185 0.0245,-0.36772 -0.67564,-0.24675 -0.21322,-0.47261 0.0318,-0.52171 -0.50703,-0.31913 -0.2791,-0.039 -0.2556,-0.0947 -0.58194,-0.18769 -0.71406,-0.27297 0.37913,-0.30033 0.0946,-0.38949 -0.0801,-0.69241 0.0296,-0.24327 0.34471,-0.0207 0.51991,0.0428 0.29049,0.41133 0.55379,-0.29179 0.26632,-0.12894 -0.28943,-0.1161 0.0137,-0.47091 -0.3352,-0.27428 0.0346,-0.48517 -0.28411,0.0932 -0.0274,-0.49577 -0.17926,-0.22299 -0.0932,0.38539 -0.36699,0.12157 -0.0593,-0.22124 -0.24502,-0.24794 -0.1798,-0.45173 -0.28635,0.0189 -0.2878,-0.49388 -0.46819,-0.33074 -0.0853,-0.10055 0.44947,-0.15297 0.25582,-0.27322 0.30457,-0.17815 0.13775,-0.22656 0.47819,-0.27093 -0.11694,0.0327 -0.30529,-0.34019 -0.51764,-0.14991 0.46441,-0.35206 -0.25689,-0.31228 -0.33878,-0.54017 -0.10873,0.0335 -0.53584,-0.61808 -0.11616,-0.61258 0.30772,-0.0649 0.58808,-0.20862 0.0672,-0.16341 -0.19069,-0.30096 -0.41925,-0.13939 -0.35791,0.0674 0.14823,0.0145 -0.22956,0.22163 -0.15545,-0.1716 -0.48995,0.0479 0.35294,-0.0966 -0.1921,-0.25906 -0.27192,-0.31493 0.33703,-0.14925 0.0546,-0.35303 0.10534,-0.34555 0.41899,-0.13387 0.1677,-0.51066 0.23779,-0.18766 -0.0551,-0.27085 0.42552,-0.1758 -0.0126,-0.24158 0.0342,-0.37363 0.29752,-0.34979 0.35427,-0.22784 0.082,0.4885 0.34,0.28942 0.12928,-0.0761 0.22992,-0.16955 0.44935,-0.3062 -0.28983,-0.36686 0.50428,-0.0534 0.006,-0.36114 -0.13238,-0.3515 0.0128,-0.25026 0.20351,-0.56681 -0.0189,-0.28795 0.18573,-0.52005 0.5144,-0.6384 -0.17351,-0.28828 0.40601,0.009 0.50614,-0.0756 -0.19301,0.15501 -0.54926,0.32849 -0.13001,0.54371 0.25893,-0.20299 0.0961,-0.13928 0.26624,-0.38655 0.41782,0.23168 0.16865,-0.17364 0.58844,-0.34661 -0.008,0.26034 0.54918,0.12261 0.40265,-0.0148 0.49726,0.1634 -0.21153,0.35008 0.41163,0.17829 0.23462,-0.45484 -0.66684,-0.0658 -0.47405,-0.60617 0.17914,-0.10466 0.21724,0.24546 0.35602,-0.13114 0.65128,0.0913 -0.17082,-0.36762 -0.0728,-0.36599 -0.19259,-0.47775 0.36103,-0.19821 0.63437,0.0401 -0.24386,-0.39698 0.21056,0.20563 0.31496,-0.2271 0.18883,-0.42802 -0.48548,-0.4378 -0.23736,0.0758 -0.16769,-0.19353 0.006,-0.27516 -0.26631,-0.22662 -0.0688,-0.44359 -0.0803,-0.64451 -0.38252,-0.21224 -0.29325,-0.0209 0.11307,0.17261 -0.20436,0.0973 0.0727,0.29749 -0.49226,-0.15577 -0.0543,-0.19483 0.2234,-0.23838 0.35181,-0.0527 0.22784,-0.33865 0.35236,0.0118 0.0209,-0.49476 0.41638,-0.33258 -0.0928,-0.15117 -0.0186,-0.70572 0.21647,-0.51119 0.31654,-0.16807 0.32344,-0.0106 0.56498,-0.22501 -0.25013,-0.14557 0.344,0.0421 0.19153,0.20926 0.0326,-0.19114 0.27341,0.25561 0.12315,-0.0999 0.37187,0.0482 0.38459,-0.47073 0.68332,-0.35017 0.0689,0.25723 0.12892,-0.0993 0.14379,0.25846 0.39953,0.16898 -0.18611,0.16072 -0.26702,0.54371 0.30763,0.32088 0.2853,0.17596 0.63064,-0.0199 -0.33362,-0.1327 0.35115,0.0381 0.29401,-0.10109 0.17142,0.27511 0.48093,0.55292 0.16639,0.65351 -0.3145,0.1477 0.51876,0.31157 0.33361,0.15323 0.15404,0.49734 0.5371,0.12946 0.14422,-0.24337 -0.0132,-0.31305 0.3463,-0.23801 0.33588,-0.25466 0.43717,0.0913 0.14702,-0.47079 0.0392,-0.76852 -0.12076,0.16501 -0.24149,0.33187 -0.34196,0.0763 -0.0433,-0.17342 0.11032,-0.49459 0.44604,-0.27344 -0.12127,0.40783 0.24915,0.0808 0.2258,-0.19139 0.11589,-0.0241 -0.003,-0.31836 0.15026,-0.10496 z"
         id="path8720" /><path
         style="fill:#3c7605;fill-opacity:1;stroke-width:0.0387028"
         d="m 256.06149,471.03192 c 0.0832,0.37708 0.20317,0.0999 0.3112,0.38143 0.19447,0.0892 0.18477,0.24175 0.46744,0.0876 0.13209,0.38597 -0.0191,-0.36537 0.2214,0.10799 -0.13864,0.29672 0.20696,0.24717 0.0232,0.52437 0.0118,-0.0194 -0.44928,0.39566 -0.58565,0.20371 -0.0419,-0.34556 -0.4849,-0.27415 -0.54688,-0.0664 -0.0712,0.49668 0.79542,-0.40324 0.18918,0.16573 -0.0543,0.25736 0.43564,0.12012 0.55194,0.0629 0.26454,-0.0446 0.17879,0.49536 0.54162,0.58111 0.26553,0.25727 0.34154,-0.19542 0.3025,-0.17835 0.25231,-0.35104 0.14963,-0.39267 -0.17459,-0.15152 0.30674,0.0341 -0.30534,0.19692 -0.1319,-0.1131 -0.0734,-0.25666 -0.0689,-0.57879 0.13926,-0.35704 0.39668,-0.0361 -0.0251,-0.51097 0.48901,-0.11497 0.26326,-0.0206 0.20025,-0.0264 0.42305,0.14349 -0.0769,0.0522 0.72097,0.25618 0.4478,0.42829 0.14062,0.0156 0.41602,0.0857 0.25218,0.15408 -0.13081,-0.14951 -0.0342,0.29256 -0.18678,0.0743 -0.24779,-0.004 -0.73978,0.30435 -0.23208,0.25094 -0.39002,0.1885 0.37689,0.27257 0.0347,0.30109 -0.11301,0.19894 -0.47288,-0.23902 -0.32033,0.12818 -0.13004,0.23237 -0.3608,0.0555 -0.37033,0.33911 -0.14395,0.23552 0.0226,0.50176 0.32699,0.39701 0.15116,-2.2e-4 0.5118,-0.0337 0.7488,0.0815 0.30913,0.12283 0.68722,-6.3e-4 0.44409,-0.17715 0.1643,-0.24898 -0.29897,-0.62576 0.20306,-0.32941 0.28647,-0.23736 0.36882,0.10993 0.62476,0.18287 -0.033,0.23095 -0.56855,0.11208 -0.6753,0.13797 0.01,-0.0191 -0.0303,0.59649 -0.31525,0.7332 0.33241,0.0108 0.48473,0.41855 0.70209,-0.008 -0.28839,-0.10593 0.0519,-0.25594 0.16076,-0.21578 -0.17329,-0.13567 0.62751,0.23573 0.64885,-0.24489 0.38105,-0.0654 -0.1442,0.65884 0.2754,0.356 0.5118,-0.0272 0.20544,0.54568 -0.0685,0.55548 0.19619,-0.002 -0.11095,0.23157 0.19782,0.0799 -0.0367,4.3e-4 0.46213,0.53274 0.40746,0.0648 0.16344,-0.0744 -0.54026,0.0277 -0.0806,-0.20994 0.40594,0.007 0.21712,0.0164 0.19219,0.40514 -0.0881,-0.32746 -0.15662,0.3876 -0.0401,0.16178 0.0199,0.36677 0.33208,0.69117 0.11644,0.89792 -0.43826,-0.19848 0.069,0.2022 0.14028,0.0586 0.50583,-0.0447 0.44032,0.22201 0.62777,0.59811 0.42776,-0.0745 -0.0463,-0.25517 0.18692,-0.3426 -0.0562,-0.2144 0.13526,-0.1797 0.28546,-0.22269 -0.13906,-0.18957 0.21213,0.21088 0.26299,0.0941 0.22764,0.38493 -0.069,-0.51339 0.22752,0.008 0.47601,0.19846 -0.34405,0.22788 -0.12914,0.58052 -0.33689,0.28667 0.0592,0.45599 -0.16643,0.70367 -0.32038,0.21601 -0.0322,0.5586 -0.31627,0.58166 -0.24094,-0.029 -0.44921,0.30193 -0.37904,0.50457 -0.29155,-0.0829 -0.50029,0.50508 -0.14562,0.62519 -0.30502,-0.0553 -0.0916,0.36021 -0.0639,0.0774 0.16142,0.28546 -0.4045,0.24294 -0.23183,0.0602 -0.27735,-0.0211 0.29195,-0.24851 -0.1817,-0.0498 -0.0964,-0.21389 -0.32294,0.13254 -0.32328,0.30296 -0.23086,0.0496 -0.68329,0.12729 -0.42153,-0.0423 0.0867,-0.002 0.0516,-0.22246 0.0613,-0.40286 -0.18148,0.14305 -0.27723,0.33071 -0.28374,0.43321 0.0414,0.17036 -0.13904,0.22055 -0.30624,0.38046 -0.29668,0.2363 0.0266,0.44624 -0.0453,0.67063 0.20633,-0.17783 0.0534,0.57093 0.0989,0.57208 0.0565,0.23168 -0.0704,0.60923 -0.32202,0.4274 -0.17568,0.30636 -0.26818,-0.84753 -0.42027,-0.27533 -0.0719,0.27645 0.0686,0.17506 -0.0516,0.39406 -0.0314,0.41728 -0.68499,-0.25842 -0.48931,0.11588 0.4016,0.32279 -0.12907,0.45711 -0.22757,0.1598 0.18026,-0.19164 -0.19511,-0.0162 -0.1365,-0.0349 -0.17467,-0.0353 -0.0191,-0.3875 0.20309,-0.225 -0.20467,-0.47655 0.47984,-0.15117 0.0701,-0.57827 -0.21683,-0.0792 -0.48539,0.3609 -0.52729,-0.0402 -0.0858,0.16594 -0.21113,0.13002 -0.3856,0.20411 0.26773,0.14451 -0.56674,-0.0206 -0.29226,0.3063 -0.0392,0.31588 -0.40487,0.0143 -0.31743,0.41213 -0.25015,-0.3753 -0.49052,-0.17658 -0.29102,0.1912 -0.18736,-0.39705 -0.38202,0.12865 -0.5781,0.0136 -0.15713,-0.31874 -0.34539,-0.17457 -0.28539,0.005 0.19124,-0.11217 -0.0608,0.49116 0.3077,0.37147 0.22271,0.17178 0.40084,-0.17283 0.34623,0.23897 0.23032,0.16463 0.19053,-0.1241 0.47252,0.044 0.34573,-0.48464 -0.17209,-0.44346 -0.20795,-0.49199 0.005,-0.13962 0.43724,0.0196 0.30134,-0.19981 -0.0649,-0.14912 0.12854,0.15197 0.36312,-0.0619 0.0282,-0.10769 0.20079,-0.42895 0.32606,-0.0632 0.0578,0.28242 0.16147,0.52644 0.28589,0.65489 0.12839,0.32801 -0.18154,0.38506 -0.0507,0.63479 -0.16456,0.21816 -0.479,-0.002 -0.5305,0.1335 -0.0393,-0.19096 -0.37886,-0.13037 -0.23195,-0.37132 -0.6717,-0.30243 -0.31381,0.57871 0.12321,0.45224 -0.0207,0.15932 -0.56923,0.13005 -0.71913,0.19471 -0.19295,-0.21476 0.18223,-0.45686 0.13119,-0.24445 -0.28678,-0.12591 0.42897,0.36591 0.0943,-0.0409 -0.20571,-0.24562 -0.28388,-0.19116 -0.236,-0.4094 -0.14241,-0.0289 -0.57865,-0.023 -0.48474,0.20993 -0.0714,0.14153 -0.52747,-0.0945 -0.0962,-0.10205 -0.0438,-0.0413 -0.0434,-0.32137 -0.3698,-0.26334 0.0434,0.13175 -0.0353,0.68282 -0.12432,0.22682 -0.29612,-0.004 -0.17717,-0.28319 -0.0673,-0.15589 0.39022,-0.5737 -0.69917,-0.37763 -0.30629,-0.11108 -0.21511,-0.0229 0.18763,0.49722 -0.33414,0.37549 0.0569,-0.18204 -0.15386,0.13675 -0.41293,-0.0426 -0.27953,0.0572 -0.33234,0.31939 -0.6214,0.39742 0.0919,-0.15469 -0.11923,-0.26056 -0.30677,-0.37552 -0.20199,-0.0103 -0.18358,0.29925 -0.19199,0.3627 0.11028,0.33603 -0.34398,-0.22594 -0.14572,-0.3445 -0.12668,-0.1946 -0.40256,-0.73155 -0.51474,-0.43967 -0.14252,-0.39086 -0.3712,-0.57312 -0.43543,0.002 -0.21753,0.29494 0.29932,0.17147 0.0378,0.64034 -0.0699,0.3684 -0.1518,0.10828 -0.16542,0.50317 -0.27323,0.21637 -0.52413,-0.1042 -0.50487,0.38796 -0.16439,0.0825 -0.54363,0.30468 -0.48148,0.12549 -0.0554,-0.2431 -0.40349,-0.0712 -0.28908,-0.27139 -0.34136,0.0357 -0.18929,-0.50443 -0.36546,-0.11228 -0.10954,-0.27142 -0.13022,-0.42996 -0.35583,-0.34644 0.17696,-0.34695 0.15535,-0.32934 -0.0777,-0.23997 -0.062,-0.27531 0.36637,-0.22031 0.32626,-0.14543 0.17582,-0.0187 0.1149,0.36942 0.39886,0.36211 0.13882,0.10822 0.34481,-0.42631 0.28171,-0.2365 0.12555,-0.35381 -0.40224,0.14653 -0.008,-0.24747 0.36828,-0.21718 0.43875,0.47713 0.59103,-0.0169 -0.12187,-0.25681 -0.41162,-3e-5 0.0247,-0.32139 0.42826,-0.0781 0.28286,-0.60696 0.16413,-0.36207 -0.18669,0.0158 -0.30342,-0.20328 -0.40705,0.0331 -0.0669,-0.26349 -0.16635,-0.20734 -0.28738,-0.17885 -0.0727,-0.27911 -0.23961,-0.17131 -0.32506,-0.5285 -0.14734,-0.48079 -0.21698,0.0809 -0.31074,0.0423 -0.18452,-0.13548 -0.18736,0.28001 -0.43602,-0.0762 -0.10043,0.33679 -0.46814,0.47959 -0.82133,0.43185 0.0245,-0.36772 -0.67564,-0.24675 -0.21322,-0.47261 0.0318,-0.52171 -0.50703,-0.31913 -0.2791,-0.039 -0.2556,-0.0947 -0.58194,-0.18769 -0.71406,-0.27297 0.37913,-0.30033 0.0946,-0.38949 -0.0801,-0.69241 0.0296,-0.24327 0.34471,-0.0207 0.51991,0.0428 0.29049,0.41133 0.55379,-0.29179 0.26632,-0.12894 -0.28943,-0.1161 0.0137,-0.47091 -0.3352,-0.27428 0.0346,-0.48517 -0.28411,0.0932 -0.0273,-0.49577 -0.17926,-0.22299 -0.0932,0.38539 -0.36699,0.12157 -0.0593,-0.22124 -0.24502,-0.24794 -0.1798,-0.45173 -0.28635,0.0189 -0.2878,-0.49388 -0.46819,-0.33074 -0.0853,-0.10055 0.44947,-0.15297 0.25582,-0.27322 0.30457,-0.17815 0.13775,-0.22656 0.47819,-0.27093 -0.11694,0.0327 -0.30529,-0.34019 -0.51764,-0.14991 0.46441,-0.35206 -0.25689,-0.31228 -0.33878,-0.54017 -0.10873,0.0335 -0.53584,-0.61808 -0.11616,-0.61258 0.30772,-0.0649 0.58808,-0.20862 0.0672,-0.16341 -0.19069,-0.30096 -0.41925,-0.13939 -0.35791,0.0674 0.14823,0.0145 -0.22956,0.22163 -0.15545,-0.1716 -0.48995,0.0479 0.35294,-0.0966 -0.1921,-0.25906 -0.27192,-0.31493 0.33703,-0.14925 0.0546,-0.35303 0.10534,-0.34555 0.41899,-0.13387 0.1677,-0.51066 0.23779,-0.18766 -0.0551,-0.27085 0.42552,-0.1758 -0.0126,-0.24158 0.0342,-0.37363 0.29752,-0.34979 0.35427,-0.22784 0.082,0.4885 0.34,0.28942 0.12928,-0.0761 0.22992,-0.16955 0.44935,-0.3062 -0.28983,-0.36686 0.50428,-0.0534 0.006,-0.36114 -0.13238,-0.3515 0.0128,-0.25026 0.20351,-0.56681 -0.0189,-0.28795 0.18573,-0.52005 0.5144,-0.6384 -0.17351,-0.28828 0.40601,0.009 0.50614,-0.0756 -0.19301,0.15501 -0.54926,0.32849 -0.13001,0.54371 0.25893,-0.20299 0.0961,-0.13928 0.26624,-0.38655 0.41782,0.23168 0.16865,-0.17364 0.58844,-0.34661 -0.008,0.26034 0.54918,0.12261 0.40265,-0.0148 0.49726,0.1634 -0.21153,0.35008 0.41163,0.17829 0.23462,-0.45484 -0.66684,-0.0658 -0.47405,-0.60617 0.17914,-0.10466 0.21724,0.24546 0.35602,-0.13114 0.65128,0.0913 -0.17082,-0.36762 -0.0728,-0.36599 -0.19259,-0.47775 0.36103,-0.19821 0.63437,0.0401 -0.24386,-0.39698 0.21056,0.20563 0.31496,-0.2271 0.18883,-0.42802 -0.48548,-0.4378 -0.23736,0.0758 -0.16769,-0.19353 0.006,-0.27516 -0.26631,-0.22662 -0.0688,-0.44359 -0.0803,-0.64451 -0.38252,-0.21224 -0.29325,-0.0209 0.11307,0.17261 -0.20436,0.0973 0.0727,0.29749 -0.49226,-0.15577 -0.0543,-0.19483 0.2234,-0.23838 0.35181,-0.0527 0.22784,-0.33865 0.35236,0.0118 0.0209,-0.49476 0.41638,-0.33258 -0.0928,-0.15117 -0.0186,-0.70572 0.21647,-0.51119 0.31654,-0.16807 0.32344,-0.0106 0.56498,-0.22501 -0.25013,-0.14557 0.344,0.0421 0.19153,0.20926 0.0326,-0.19114 0.27341,0.25561 0.12315,-0.0999 0.37187,0.0482 0.38459,-0.47073 0.68332,-0.35017 0.0689,0.25723 0.12892,-0.0993 0.14379,0.25846 0.39953,0.16898 -0.18611,0.16072 -0.26702,0.54371 0.30763,0.32088 0.2853,0.17596 0.63064,-0.0199 -0.33362,-0.1327 0.35115,0.0381 0.29401,-0.10109 0.17142,0.27511 0.48093,0.55292 0.16639,0.65351 -0.3145,0.1477 0.51876,0.31157 0.33361,0.15323 0.15404,0.49734 0.5371,0.12946 0.14422,-0.24337 -0.0132,-0.31305 0.3463,-0.23801 0.33588,-0.25466 0.43717,0.0913 0.14702,-0.47079 0.0392,-0.76852 -0.12076,0.16501 -0.24149,0.33187 -0.34196,0.0763 -0.0433,-0.17342 0.11032,-0.49459 0.44604,-0.27344 -0.12127,0.40783 0.24915,0.0808 0.2258,-0.19139 0.11589,-0.0241 -0.003,-0.31836 0.15026,-0.10496 z"
         id="path8722" /><path
         style="fill:#3c7605;fill-opacity:1;stroke-width:0.0551275"
         d="m 240.07358,458.96375 c 0.21339,-0.50709 -0.15481,-0.2834 -0.0486,-0.69978 -0.18919,-0.17928 0.0499,-0.52213 -0.43551,-0.41793 0.0625,-0.70793 -0.18635,0.38957 -0.2429,-0.33098 0.36948,-0.28538 0.12271,-0.30138 0.28335,-0.59523 0.16975,-0.23679 0.50951,-0.009 0.96688,0.008 0.0461,0.20409 0.0304,1.05307 0.49331,0.6567 0.68121,-0.0914 -0.44348,-0.36219 -0.30602,-0.29391 0.93099,0.0886 0.0937,-0.48694 0.0466,-0.47894 -0.46893,0.0494 -0.45393,-0.42099 -0.30551,-0.79302 0.0219,-0.36376 -0.42836,-1.03998 -0.49129,-0.44086 -0.0781,-0.36937 -0.55011,0.30827 -0.5333,0.2606 0.73143,0.24149 0.0925,-0.15474 0.63904,-0.0358 0.001,0.24172 -0.19784,0.57172 -0.46408,0.88537 0.12823,-0.44798 -0.63371,-0.28124 -0.54772,-0.12427 -0.1642,-0.56122 -0.57576,-0.42262 -0.58751,-0.91357 0.12145,-0.0499 -0.55517,-0.72352 -0.22422,-0.90876 0.0627,0.0121 -0.4428,-0.42743 -0.11305,-0.34454 0.0295,0.28123 0.27981,-0.31171 0.27847,0.0669 0.28511,0.20772 1.11162,0.25319 0.47684,-0.10242 0.60889,0.10269 -0.21408,-0.62722 0.20681,-0.37778 0.29481,-0.13852 0.3538,0.66661 0.47809,0.11401 0.34212,-0.16235 0.4659,0.23291 0.71,-0.0891 0.36126,-0.15559 0.38645,-0.6023 -0.0536,-0.73072 -0.17633,-0.12367 -0.62288,-0.38176 -0.80374,-0.71044 -0.25795,-0.39665 -0.79987,-0.5643 -0.66273,-0.15908 -0.39538,0.15479 -0.16658,0.9735 -0.50691,0.21634 -0.52863,0.0409 -0.33883,-0.43074 -0.57656,-0.72619 0.22841,-0.24097 0.75366,0.336 0.89902,0.39512 -0.10331,0.10726 0.26516,-0.37505 0.46493,-0.40334 0.15892,-0.24687 0.84696,-0.10995 0.28617,-0.52709 -0.1356,0.007 -0.1498,-0.64129 -0.60468,-0.23127 0.25125,0.26098 -0.25111,0.41113 -0.35737,0.076 0.0809,0.46958 -0.41968,-0.70633 -0.86381,-0.2686 -0.72701,0.0796 0.62048,-0.67062 -0.12737,-0.57808 -0.61733,-0.38953 0.20881,-0.80359 0.53577,-0.58983 -0.30859,-0.28097 0.37645,0.0705 -0.0962,-0.32135 -0.11914,0.32645 -0.0903,-1.01124 -0.48954,-0.34428 -0.29803,-0.0369 0.67882,0.40297 -0.0791,0.31085 -0.46733,-0.34094 -0.23861,-0.19783 0.10942,-0.62894 -0.16687,0.45306 0.50075,-0.32243 0.17909,-0.15499 0.27795,-0.44348 0.18263,-1.07656 0.60294,-1.14076 0.34661,0.5918 0.0859,-0.29162 -0.11441,-0.18272 -0.62516,-0.36354 -0.3297,-0.6207 -0.23836,-1.21142 -0.62035,-0.35604 -0.0409,0.42248 -0.52913,0.15495 0.041,0.34711 -0.27257,0.30135 -0.48195,0.0767 0.0709,0.44834 -0.15013,-0.37023 -0.17808,-0.24752 -0.0586,-0.71153 -0.33624,0.62301 -0.31148,-0.23718 -0.28763,-0.56394 0.30661,-0.0872 0.66356,-0.44644 0.2916,-0.24972 0.41718,-0.50641 0.66065,-0.7983 0.3793,-0.0242 0.71888,-0.32103 0.74579,-0.52154 0.26238,0.34485 0.85549,0.1786 0.89349,-0.0251 0.17465,-0.27948 0.54714,0.22791 0.72498,-0.27808 0.39629,0.10401 -0.15569,-0.75533 0.3811,-0.38065 0.17197,-0.41224 -0.42065,-0.0686 0.0232,-0.31538 0.51319,0.0456 0.0285,0.31647 0.18394,0.42017 -0.46201,-0.0385 0.42059,0.1632 0.18548,0.20251 0.40456,0.2892 0.55228,-0.63239 0.98617,0.0553 0.32521,-0.015 0.22777,0.25858 -0.098,0.10502 0.14668,0.16054 -0.57983,0.5326 0.0181,0.44287 0.31318,-0.26467 0.31176,-0.11254 0.53654,-0.28452 -0.0885,-0.40781 0.64611,0.0758 0.83195,-0.2643 0.12835,-0.19083 0.15431,-0.4835 0.3148,-0.64758 -0.38783,0.0368 0.42695,-0.70276 0.35501,-0.74712 0.12487,-0.31539 0.58273,-0.65082 0.72605,-0.23277 0.45632,-0.21354 -0.38528,1.20613 0.26228,0.66527 0.45013,-0.0636 -0.0962,-0.45826 0.35153,-0.29489 0.28901,-0.69021 0.55904,0.56428 0.72218,0.22779 -0.22943,-0.46981 0.29763,-0.85448 0.40129,-0.13711 -0.2177,0.0914 -0.0192,0.23027 0.0988,0.20935 0.17267,0.18327 -0.29663,0.46566 -0.42213,0.0939 -0.14245,0.71299 -0.64735,-0.18353 -0.56193,0.54925 0.0666,0.40291 0.902,8.2e-4 0.58483,0.54643 0.23658,-0.12358 0.35285,0.0222 0.61653,0.0793 -0.19319,-0.38828 0.64186,0.48892 0.5922,-0.11639 0.29749,-0.3875 0.48873,0.37585 0.70838,-0.21814 -0.0189,0.64258 0.42713,0.60741 0.49653,0.0163 -0.10846,0.61537 0.54963,0.16612 0.68332,0.46055 -0.0796,0.50042 0.25875,0.48695 0.33617,0.22904 -0.28264,-0.0512 0.42128,-0.48164 -0.0521,-0.68468 -0.11798,-0.38294 -0.60826,-0.12852 -0.20622,-0.56264 -0.164,-0.30364 -0.3145,-0.13181 -0.56855,-0.40851 -0.49158,0.0107 -0.45429,0.88252 -0.0712,0.52085 0.0257,0.66595 -0.53162,-0.29754 -0.55093,0.17612 -0.10762,0.30071 0.0857,-0.3621 -0.39498,-0.14808 -0.23732,-0.37466 -0.37056,0.46746 -0.56555,-0.0933 -0.0203,-0.40326 0.52565,-0.8619 0.22123,-1.01297 -0.01,-0.33345 0.43993,-0.72244 0.54272,-0.60808 0.1305,-0.64426 0.77876,0.098 0.79273,0.10853 -0.0983,0.10235 0.42314,0.46788 -0.0272,0.48639 0.26645,0.8859 0.8909,-0.0673 0.43646,-0.3034 -0.54575,-0.62004 0.33831,-0.15523 0.57723,0.005 0.34564,0.18491 0.19922,0.16053 -0.0665,0.49736 -0.29199,-0.29206 0.22195,-0.19019 -0.20684,-0.47294 -0.25181,0.5193 0.16689,0.48447 0.12454,0.74687 -0.54183,0.11307 0.19235,0.17219 0.099,0.47146 0.5168,-0.22311 0.61321,-0.2458 0.72245,0.0873 -0.24611,-0.12961 -0.37149,0.006 -0.28998,0.26682 0.35602,0.54979 0.27117,-0.057 0.6089,-0.14117 0.28752,-0.13965 -0.27171,0.43487 0.1754,0.45827 -0.22321,0.44448 -0.22478,-0.32846 -0.48407,0.29103 -0.28895,0.51527 0.80504,0.41155 0.57347,0.10586 0.15492,0.15505 0.0972,-0.66011 0.56842,-0.21551 0.13412,0.20078 -0.20857,0.18514 0.29969,0.11928 0.202,0.50178 0.68795,0.45881 1.12486,0.28607 0.33908,0.35087 -0.29565,0.0844 0.10219,0.46489 -0.12449,0.63312 0.38358,0.28471 0.54245,0.17973 -0.023,-0.19404 0.34788,-0.4805 0.10877,0.13005 -0.17786,0.19214 -0.30829,0.62176 -0.12678,1.12922 -0.22752,-0.0496 0.11601,0.27707 0.24009,0.14069 -0.52465,1.00213 0.45545,0.50023 0.71111,0.0813 -0.40548,-0.33191 0.71864,-0.88918 0.65348,-0.8018 0.36088,-0.66994 0.75585,0.51783 1.0894,-0.24822 0.36381,0.17618 0.55321,-0.16643 0.76628,0.30408 -0.4655,-0.068 0.38176,0.5341 0.0112,0.41963 0.18284,0.30133 0.15187,0.51824 0.12441,0.62752 0.41952,-0.28297 -0.15993,0.66623 0.33559,0.57995 -0.49073,0.25789 -0.45157,0.25544 -0.10695,0.34322 -0.15409,0.37121 -0.60734,-0.045 -0.49908,-0.0991 -0.31007,-0.20855 0.18593,-0.19102 -0.0323,-0.65007 -0.16438,-0.0393 -0.32302,-0.36775 -0.5656,-0.0102 -0.42528,-0.24519 -0.0331,0.30583 -0.0266,0.19681 -0.69328,0.31097 -0.54792,-0.66102 -0.77692,-0.51722 -0.6155,0.27361 0.50789,0.57651 -0.47348,0.45679 -0.562,-0.2612 -0.82832,0.47271 -0.48852,0.28615 0.23014,0.13583 0.18637,0.48513 0.50102,0.29588 -0.13824,0.3616 0.0227,0.37677 0.1876,0.44404 -0.14507,0.38452 0.13832,0.39585 -0.0572,0.88175 -0.22441,0.67995 0.31933,0.0842 0.39665,0.20631 0.10367,0.30955 0.44765,-0.17252 0.44426,0.4468 0.40696,-0.3328 0.84892,-0.11992 1.28988,0.10051 -0.3174,0.44036 0.59505,0.91492 -0.11999,0.797 -0.46564,0.58104 0.32681,0.78764 0.29337,0.27514 0.2201,0.31961 0.52217,0.6962 0.60608,0.90374 -0.44306,0.16358 -0.65662,0.0781 -0.42641,0.63531 -0.0882,0.58915 -0.38535,0.15548 -0.56843,-0.11855 0.0443,-0.57504 -0.7172,-0.52265 -0.56207,-0.25205 0.44224,0.10411 -0.33074,0.72071 0.25963,0.65512 -0.55792,0.54459 0.48752,0.0981 -0.26271,0.50273 -0.32322,0.44993 0.16981,0.15613 0.14065,0.0623 0.41384,-0.0678 0.23927,0.53266 0.21728,0.67601 -0.3212,0.22886 0.30732,0.64505 -0.027,0.93574 0.61991,0.21736 -0.49604,-0.1633 -0.32974,0.134 -0.48426,-0.0569 -0.35762,0.16052 -0.77901,-0.078 0.12477,0.0465 0.12246,0.56826 0.3812,0.58348 0.0287,0.0102 -0.57955,0.10908 -0.11289,0.45747 -0.14708,0.13722 0.45083,0.2465 0.11387,0.61149 0.30913,-0.0164 0.0552,1.15675 -0.47138,0.6371 -0.84558,-0.37404 0.0619,0.12111 0.0777,0.61956 0.48989,-0.0973 0.16727,-0.48125 0.52108,-0.22449 -0.36283,0.28669 0.3452,0.67384 -0.19701,0.35585 -0.0344,0.48869 0.12897,0.85058 -0.28089,0.57405 0.0293,0.19354 -0.2592,0.50716 -0.50213,0.2321 -0.19826,0.13563 0.0768,0.51165 -0.38634,0.43913 0.0887,0.51835 -0.49694,-0.58169 -0.55218,0.12471 -0.24487,0.0833 -0.39241,-0.0924 -0.7356,-0.29025 0.44023,-0.11343 0.13861,-0.80106 -0.14499,-0.41552 -0.22548,-0.28865 -0.74926,0.2109 -0.61956,0.15429 -0.56418,-0.44828 -0.1105,0.664 -0.37879,0.6128 -0.44016,-0.11306 -0.62187,0.26648 -0.98414,0.46954 -0.26918,0.0126 -0.6856,-0.13794 -0.75684,0.11996 -0.45501,-0.4032 -0.76197,-0.68962 0.0143,-0.4776 0.13609,-0.0879 0.19401,-0.76349 -0.27508,-0.52574 0.0132,0.18176 -0.41717,0.19515 -0.54002,0.0388 0.005,-0.37462 -0.55965,0.4758 -0.80958,-0.0188 0.31363,-0.20759 -0.55941,-0.47655 -0.42262,-0.2068 -0.47285,-0.57303 0.53342,-0.25458 -0.28521,-0.51992 -0.7113,0.19939 0.51389,0.551 0.0925,0.97589 -0.42415,0.27506 -0.0858,-0.45034 -0.60846,-0.0479 -0.68263,-0.64181 -0.10411,0.56784 -0.21646,0.48552 -0.16885,0.71393 -0.58315,-0.0661 -0.70507,-0.56835 -0.0425,0.66191 -0.0761,-0.41236 -0.55339,0.005 -0.57176,0.34288 0.20507,0.90798 0.33857,0.10691 0.0343,0.3628 -0.23262,0.3153 0.12287,0.48192 -0.28535,0.57232 -0.43625,0.81585 0.27043,0.56123 0.32477,0.26535 0.009,-0.29356 0.31733,0.0548 0.15813,-0.40635 0.44385,0.58587 -0.0978,0.27118 -0.32302,0.20439 -0.58739,-0.35016 -0.46603,0.19169 -0.44576,-0.38101 -0.51432,0.63913 -0.75003,0.0248 -0.0756,0.23741 -0.59107,0.69895 -0.65385,0.56864 -0.5211,-0.31846 -0.43416,-0.18596 -0.87751,-0.36705 0.12764,0.37359 -0.48233,-0.096 -0.0729,-0.34632 -0.26404,0.21513 -0.14039,-0.53741 -0.27052,0.007 -0.35817,-0.41455 -0.83478,0.30605 -1.03176,-0.1838 -0.0816,-0.0615 0.0621,-0.22867 -0.15635,-0.1513 0.21507,-0.13588 -0.0413,-0.69239 0.19816,-0.49073 0.37793,0.22878 1.04194,-0.32599 0.49353,-0.72784 0.034,0.43121 -0.72943,-0.23643 -0.41449,0.2011 -0.5656,-0.19168 -0.55781,-0.29737 -0.54673,-0.89176 -0.1724,-0.41263 0.67526,-0.14304 0.46174,-0.36676 -0.2442,-0.57863 -0.44968,-0.18256 -0.33697,-0.68572 -0.47775,-0.70207 -0.19596,1.22338 -0.99263,0.61376 0.26378,-0.16015 -0.35859,-0.0896 -0.389,-0.24483 -0.14472,0.53307 -0.5454,1.27219 0.1196,0.94023 0.22611,0.29659 -0.2547,0.64521 -0.36906,0.49864 -0.61006,-0.0228 0.10854,-0.83404 -0.38541,-0.4504 -0.12704,-0.24596 -0.58328,0.60435 -0.63369,0.21404 z"
         id="path8603" /></g><g
       id="g9140"
       transform="matrix(0.30501998,-1.13835,1.13835,0.30501998,-170.1106,395.12622)"><path
         style="fill:#58a358;stroke:#000000;stroke-width:0.253919;stroke-linecap:butt;stroke-linejoin:miter;stroke-miterlimit:4;stroke-dasharray:none;stroke-opacity:1;fill-opacity:1"
         d="m 246.56036,435.53943 c -3.63352,0.27179 -7.62691,2.86983 -13.82746,2.79942 -6.20055,-0.0704 -18.08302,-4.11364 -21.71673,-0.33932 -4.23592,4.90817 -1.27706,12.83503 -0.2545,15.86341 1.00703,3.05802 -0.44085,10.01988 0.25449,13.31846 0.69533,3.29858 2.4317,12.75485 8.82243,18.32351 6.39072,5.56865 18.38697,0.83265 27.65491,3.39323 9.26794,2.56059 10.70173,4.70775 14.67577,2.46011 3.97405,-2.24765 6.65725,-6.93213 7.3803,-10.0949 0.72305,-3.16276 -3.38604,-16.6995 -5.68368,-24.68582 -2.29763,-7.98632 -2.4465,-11.00513 -7.33789,-15.312 -4.60673,-3.9718 -6.70645,-5.95878 -9.96764,-5.7261 z"
         id="path9130"
         sodipodi:nodetypes="czcczzzzzzcc" /><path
         style="fill:#3c7605;fill-opacity:1;stroke-width:0.0551275"
         d="m 221.10406,466.84459 c 0.52173,0.28084 0.23543,-0.2382 0.68194,0.0133 0.12527,-0.31071 0.5643,0.032 0.43577,-0.4974 0.70793,0.0625 -0.38957,-0.18635 0.33098,-0.2429 0.28538,0.36948 0.30138,0.12271 0.59523,0.28335 0.23679,0.16975 0.009,0.50951 -0.008,0.96688 -0.20409,0.0461 -1.05307,0.0304 -0.6567,0.49331 0.0914,0.68121 0.36219,-0.44348 0.29391,-0.30602 -0.0886,0.93099 0.48694,0.0937 0.47894,0.0466 -0.0556,-0.38388 0.3843,-0.55734 0.71729,-0.27551 0.58931,-0.0418 0.87943,-0.42546 0.59901,-0.58722 0.17299,-0.10673 -0.3827,-0.25758 -0.30712,-0.54334 -0.17364,0.4235 -0.0946,0.55022 0.0234,0.48882 -0.0447,0.52095 -0.39302,0.0254 -0.69653,-0.0662 -0.60661,-0.16441 0.63672,-0.38203 -0.0811,-0.64137 -0.16741,-0.11487 0.7043,-0.38062 0.59513,-0.61431 0.46043,-0.0233 0.41391,-0.0861 0.87641,-0.33175 0.53633,-0.0149 0.30546,0.15693 0.60518,-0.19346 0.39228,0.22415 -0.22744,0.0526 0.15514,0.41506 -0.1942,-0.0228 -0.44984,0.57163 -0.235,0.78509 0.25418,-0.63658 0.18997,0.24698 0.39744,-0.15262 0.34606,-0.31186 0.32194,0.38993 -0.0867,0.27478 -0.17102,0.34143 0.41865,0.16864 0.15853,0.56151 -0.10752,0.20056 -0.004,0.41932 0.28459,0.65279 0.1215,-0.15974 0.46641,0.32438 0.44465,-0.28404 0.27382,-0.11165 0.39475,-0.64387 0.79404,-0.82304 0.39665,-0.25795 0.5643,-0.79987 0.15908,-0.66273 -0.15479,-0.39538 -0.9735,-0.16658 -0.21634,-0.50691 -0.0409,-0.52863 0.43074,-0.33883 0.72619,-0.57656 0.28096,0.15409 -0.357,0.78292 -0.34415,0.8477 -0.28959,0.017 0.35372,0.23571 0.35237,0.51625 0.29571,0.13569 0.0789,0.86002 0.52709,0.28617 -0.007,-0.1356 0.64129,-0.1498 0.23127,-0.60468 -0.17026,0.2863 -0.52357,-0.27721 -0.0557,-0.30605 -0.51894,-0.0115 0.76976,-0.50844 0.18595,-1.01497 0.24442,-0.48607 0.66231,0.68825 0.64047,-0.0275 0.38953,-0.61733 0.80359,0.20881 0.58984,0.53577 0.28096,-0.30859 -0.0705,0.37645 0.32134,-0.0962 -0.32645,-0.11914 1.01124,-0.0903 0.34428,-0.48954 0.0366,-0.33159 -0.358,0.64855 -0.3115,-0.002 0.3628,-0.3287 0.0745,-0.54491 0.48999,-0.10494 0.41953,0.24669 -0.35906,-0.0213 0.13911,0.29475 0.15838,0.26239 0.14,-0.19334 0.56529,0.24822 0.38324,-0.14429 0.9954,0.32959 0.50819,0.49346 0.366,0.18384 0.43334,-0.55828 0.85352,-0.58728 -0.0734,-0.25038 1.22701,0.56157 0.73967,-0.27386 -0.18302,0.29465 -0.23402,-0.16887 -0.2995,-0.19576 -0.36579,-0.16801 0.35859,-0.41519 -0.0702,-0.39733 0.26269,-0.22739 0.87914,-0.14725 0.44702,-0.42911 -0.43343,-0.11935 0.66129,-0.0226 0.49672,-0.19289 -0.15656,0.65298 0.34065,0.8431 0.56634,1.21436 0.48121,-0.13517 0.28506,0.59556 0.65271,0.72945 -0.009,0.3073 0.51634,0.0988 -3.8e-4,0.56044 0.21775,0.0275 0.0146,0.66085 0.2754,0.56533 0.27405,0.2253 -0.18254,0.37488 0.18759,0.73158 0.10828,0.15971 0.31581,0.1713 0.56234,0.12226 -0.22895,0.4005 0.28039,0.27118 0.11131,0.0801 0.35147,0.23475 -0.1262,0.62688 -0.18626,0.34431 -0.25404,0.27352 -0.0463,-0.4921 -0.20805,0.17018 -0.12009,-0.16557 -0.41306,0.55479 0.12766,0.51253 -0.17511,0.37242 -0.28518,0.785 -0.46785,0.72264 0.18353,-0.37897 -0.14848,-0.27454 -0.38584,-0.55574 -0.0577,0.32673 0.25921,0.52333 0.18587,0.6883 0.2435,0.0811 0.3918,0.18475 0.18458,0.58639 0.12983,0.52315 0.38265,0.39593 0.68801,0.59818 0.0783,0.26938 0.20491,-0.0784 0.27174,-0.036 0.51265,0.5061 0.71736,0.44355 1.07046,0.83545 -0.11283,0.3 -0.0727,0.70167 -0.51868,0.40331 -0.65296,-0.1742 -0.47832,0.19644 -0.16243,0.42537 0.0943,-0.14366 0.48277,0.49579 0.11081,0.62359 -0.55793,-0.0659 -0.29312,0.54022 0.11628,0.11155 0.52952,0.35694 -0.14711,0.49723 -0.28044,0.51151 0.0458,-0.25984 -0.34552,-0.0112 -0.10814,0.1825 -0.14341,-0.1015 -0.41283,0.0688 -0.31583,-0.40536 0.38255,0.11239 -0.51957,-0.56501 -0.002,-0.52842 -0.73678,-0.59657 -0.34807,0.84275 -0.91668,0.48185 0.12358,0.23658 -0.0222,0.35285 -0.0793,0.61653 0.44427,-0.24836 -0.52691,0.66247 0.0973,0.49499 0.40367,0.37051 -0.33583,0.55809 0.23728,0.80559 -0.64258,-0.0189 -0.60741,0.42713 -0.0162,0.49653 -0.50992,-0.0729 -0.31888,0.42455 -0.36778,0.67317 -0.47767,0.0193 -0.71234,0.099 -0.29485,0.38128 -0.0739,-0.38523 0.48124,0.41296 0.65772,-0.087 0.38294,-0.11798 0.12852,-0.60826 0.56264,-0.20622 0.35975,-0.13741 0.0227,-0.32323 0.43952,-0.51332 -0.0614,-0.38945 -0.69608,-0.64422 -0.62742,-0.18093 -0.0313,0.18552 -0.44248,-0.15602 0.0529,-0.31134 -0.11156,-0.14974 -0.42949,-0.36726 -0.0605,-0.17006 0.1688,-0.40657 0.12525,-0.63202 -0.0237,-0.83232 0.37351,-0.45487 1.06097,0.49548 1.21993,0.0606 0.41954,0.0911 0.58108,0.46406 0.65329,0.60761 0.58671,0.15066 -0.33515,0.65098 -0.1084,0.75784 -0.21019,-0.20506 -0.49604,0.45389 -0.56666,-0.0398 -0.72575,0.23549 -0.204,0.74129 0.20534,0.5832 0.27735,-0.42687 0.69162,-0.40221 0.19865,0.0499 0.23288,0.17215 -0.33107,0.72424 -0.32128,0.55238 -0.62643,-0.22255 0.21354,-0.50478 -0.14043,-0.23734 0.84334,-0.12367 -0.30459,-0.45001 -0.33904,-0.0346 -0.24139,-0.56309 -0.19127,0.0644 -0.548,0.0504 -0.0622,0.61997 0.54838,0.34618 -0.0513,0.75563 -0.19195,0.0363 0.18678,-0.33956 -0.0666,-0.27716 -0.0158,-0.29087 -0.7041,0.13427 -0.40982,0.38271 0.30504,-0.33754 0.52591,0.6482 0.0613,0.15506 -0.25172,0.34185 -0.47718,-0.0259 -0.23663,-0.05 -0.34674,-0.92543 -1.01484,0.50393 -0.38096,0.26466 -0.20339,0.23111 0.73204,0.19118 0.16172,0.69743 -0.16426,-0.21651 0.032,0.29175 -0.38926,0.44542 -0.0195,0.37229 -0.15168,0.50859 0.0537,0.92538 -0.35088,0.33908 -0.0845,-0.29565 -0.4649,0.10219 -0.63312,-0.12449 -0.28471,0.38358 -0.17973,0.54245 0.19404,-0.023 0.4805,0.34788 -0.13005,0.10877 -0.12859,-0.22078 -0.76436,-0.25122 -1.09539,-0.14407 -0.33792,-0.22775 0.0662,0.51749 -0.48971,0.16098 -0.76606,-0.32764 0.19875,1.19294 0.35362,0.64476 0.45712,0.3404 0.69037,0.68875 0.68205,0.81623 0.75067,0.30337 -0.5183,0.75025 0.17963,0.97809 0.031,0.36854 0.10067,0.7994 -0.21168,0.83029 -0.10437,-0.34718 -0.48598,0.43986 -0.48408,0.0408 -0.39344,0.34142 -0.64361,-0.0157 -0.53757,0.29688 -0.42041,0.0435 -0.5168,-0.16941 -0.62926,0.18077 -0.25789,-0.49073 -0.25544,-0.45157 -0.34322,-0.10695 -0.37121,-0.15409 0.045,-0.60734 0.0991,-0.49908 0.0672,-0.32164 0.48066,0.25873 0.60717,-0.11009 0.51546,-0.0196 -0.071,-0.62488 0.10069,-0.64187 -0.22983,-0.33083 -0.17587,0.54217 -0.28765,-0.0117 -0.11619,-0.6952 0.83485,-0.2705 0.51947,-0.74214 -0.37192,-0.34982 -0.4603,0.5363 -0.41574,-0.36904 0.11797,-0.31279 -0.19179,-1.078 -0.37308,-0.44341 0.25142,0.0247 -0.52409,0.1887 -0.20894,0.45591 -0.36161,-0.13824 -0.37678,0.0227 -0.44405,0.1876 -0.38452,-0.14507 -0.39585,0.13832 -0.88175,-0.0572 -0.67995,-0.22441 -0.0841,0.31933 -0.20631,0.39665 -0.30955,0.10367 0.17252,0.44765 -0.4468,0.44426 0.21536,0.37702 0.30173,0.8075 -0.13101,1.20948 -0.15195,0.0695 -0.53819,0.0632 -0.78117,0.27394 0.30503,-0.57287 -1.06064,-0.44861 -0.40289,-0.0626 0.31742,0.13739 -0.57724,0.38544 -0.63017,0.62563 -0.32737,0.25661 -0.0853,-0.97273 -0.67545,-0.38686 -0.63677,-0.0507 -0.34661,-0.39014 -0.01,-0.53976 0.37961,-0.10425 0.82521,-0.49893 0.23644,-0.67884 0.20527,0.56847 -0.76252,-0.27073 -0.55712,0.31998 -0.31723,-0.14095 -0.39206,-0.23343 -0.35508,0.0621 -0.10561,-0.60438 -0.80098,-0.32716 -0.20332,-0.21231 -0.10139,0.4927 -0.3115,0.13257 -0.71883,0.35344 -0.10885,-0.51393 -0.61225,0.17709 -0.90784,-0.0783 -0.18655,0.28796 -0.0932,0.0818 -0.0339,-0.39706 -0.23006,0.25761 -0.0794,-0.49637 -0.20924,-0.47348 0.38468,-0.64785 -0.10882,0.10535 -0.39436,-0.1223 -0.0752,0.72512 -0.0414,-0.53709 -0.4963,0.10674 -0.12084,-0.10193 -0.30256,0.39106 -0.62588,0.14627 0.002,0.2383 -1.13952,0.0291 -0.62272,-0.50378 0.35554,-0.85604 -0.078,0.0844 -0.59017,0.0505 -0.0199,0.48746 0.49707,0.2165 0.1951,0.54828 -0.28669,-0.36283 -0.67384,0.3452 -0.35585,-0.19701 -0.48869,-0.0344 -0.85058,0.12897 -0.57405,-0.28089 -0.11076,0.0457 -0.43837,-0.19321 -0.32194,-0.34483 0.31172,-0.45346 -0.50779,0.0293 -0.34929,-0.54364 -0.51835,0.0887 0.58169,-0.49694 -0.1247,-0.55218 -0.0833,-0.24487 0.0924,-0.39241 0.29024,-0.7356 0.003,0.28102 0.65621,0.31003 0.48273,0.033 -0.0211,-0.19781 -0.12916,-0.26163 0.0481,-0.67392 -0.54198,-0.10214 -0.19188,-0.15569 -0.17924,-0.44745 -0.6039,0.16668 -0.71749,0.0201 -0.73809,-0.42527 -0.11454,-0.2978 -0.6274,-0.56787 -0.40085,-0.99009 -0.0206,-0.3559 -0.32372,-0.48335 0.2866,-0.7161 -0.0128,-0.54517 0.26979,0.19591 -0.0194,0.41312 0.44338,0.019 0.67344,0.12999 0.58234,-0.33838 0.0253,0.0201 -0.46382,-0.36301 0.0335,-0.50098 0.21251,-0.0336 -0.47805,-0.54018 -0.0535,-0.84862 0.20758,0.31363 0.47654,-0.55941 0.20679,-0.42262 0.57303,-0.47285 0.25458,0.53342 0.51992,-0.28521 -0.16207,-0.56165 -0.4621,0.13836 -0.79893,0.21267 -0.68494,-0.50195 0.31807,-0.18733 -0.12902,-0.72866 0.64181,-0.68263 -0.56784,-0.10411 -0.48552,-0.21646 -0.71393,-0.16885 0.0661,-0.58315 0.56835,-0.70507 -0.47107,-0.12588 -0.086,0.0615 0.11878,-0.29148 0.1035,-0.68461 -1.18698,-0.4536 -0.43063,-0.0439 0.53052,0.34634 -0.40876,-0.24355 -0.21169,0.23412 -0.52167,-0.0937 -0.94378,-0.59054 -0.63492,0.20857 -0.16943,0.43218 0.14841,-8.5e-4 -0.002,0.40344 -0.13655,-0.0414 0.2869,0.28393 -0.26487,0.21399 -0.37133,-0.12954 0.33686,-1.03111 -0.24736,-0.79272 0.15939,-0.29636 -0.003,-0.3721 -0.17847,-0.55448 -0.22324,0.0905 0.3867,-0.46958 -0.0938,-0.3079 -0.23179,-0.47317 -0.60205,-0.35383 -0.10923,-0.85414 -0.0901,-0.32303 0.19622,-0.14972 0.14501,-0.65253 -0.57522,0.0594 0.63176,-0.10587 0.25514,-0.10789 0.67091,-2.1e-4 -0.21202,-0.22709 0.27526,-0.59889 -0.61616,-0.52945 0.33511,-0.531 0.0891,-0.72786 0.17647,0.18202 0.73678,-0.0401 0.55575,0.18897 -0.10033,0.10739 0.0611,1.00134 0.48789,0.61928 0.42269,3e-4 -0.11267,-0.27617 0.20675,-0.58524 -0.38808,0.1597 0.0549,-0.32553 0.10758,-0.40133 -0.0513,-0.19189 1.1977,-0.13226 0.78132,0.11095 0.0866,0.69692 0.45778,-0.0454 0.64755,-0.0517 -0.36213,-0.055 1.05453,-0.0372 0.17088,-0.41036 -0.54094,0.32549 -0.74309,-0.57303 -0.49737,-0.5475 -0.0363,-0.0279 0.52156,-0.62489 -0.15382,-0.50002 -0.44574,-0.41372 -0.84053,-0.23613 -0.58896,0.16095 -0.29659,0.22611 -0.64521,-0.2547 -0.49863,-0.36906 -0.0632,-0.63712 0.91813,0.13931 0.40225,-0.35368 0.40244,-0.10838 -0.59297,-0.6249 -0.1659,-0.66542 z"
         id="path9132" /><path
         style="fill:#3c7605;fill-opacity:1;stroke-width:0.0387028"
         d="m 223.58381,442.90692 c 0.0832,0.37708 0.20317,0.0999 0.3112,0.38143 0.18121,0.0262 0.18276,0.31927 0.41883,0.063 0.224,0.42641 0.002,-0.32429 0.27001,0.13261 -0.14007,0.28725 0.20963,0.2621 0.0232,0.52437 0.0118,-0.0194 -0.44928,0.39566 -0.58565,0.20371 -0.0295,-0.29712 -0.483,-0.30871 -0.52803,-0.0777 -0.1503,0.51327 0.80136,-0.38695 0.17033,0.17701 -0.0526,0.26761 0.35564,0.0834 0.52214,0.11672 0.17337,-0.23763 0.26171,0.36559 0.48629,0.50096 0.3136,0.29118 0.33108,-0.03 0.3773,-0.0765 0.13102,0.0558 -0.007,-0.32344 0.18671,-0.3966 -0.31311,0.0723 -0.3537,0.16832 -0.27067,0.21164 -0.33494,0.19489 -0.18407,-0.31088 -0.25921,-0.57182 0.0953,0.0715 0.48682,0.0728 0.40227,-0.22829 0.0802,0.26746 0.50731,0.0985 0.5503,0.202 0.15549,0.24546 0.37114,0.13287 0.60918,0.43036 0.0621,0.25278 0.0634,0.0704 0.28516,0.18643 0.021,0.16973 -0.16677,0.0511 -0.1663,0.19771 -0.15688,-0.0318 -0.54384,-0.002 -0.53958,0.23358 0.45667,-0.14741 -0.0961,0.21557 0.23006,0.15122 0.31889,0.0717 -0.0928,0.34337 -0.19265,0.0621 -0.26483,0.0398 0.0726,0.30774 -0.25704,0.31864 -0.16562,-0.0265 -0.34627,0.35668 -0.18053,0.49094 -0.11919,0.19694 0.4729,0.17154 0.44805,0.0916 0.41659,-0.0547 0.7042,0.26644 1.13248,0.13051 -0.039,-0.1584 -0.10407,-0.1767 -0.0236,-0.46198 -0.41642,-0.31533 0.36309,-0.0511 0.40166,-0.11664 0.22453,0.0938 0.6394,0.38635 0.0529,0.37572 -0.23238,0.10187 -0.47699,-0.24023 -0.31065,0.17678 -0.18619,0.12687 -0.21384,0.45378 -0.32722,0.59251 0.33208,-0.0577 0.45224,0.39257 0.66829,-0.0515 -0.28838,-0.10593 0.0519,-0.25594 0.16077,-0.21578 -0.17329,-0.13567 0.62751,0.23573 0.64885,-0.24489 0.37141,-0.0625 -0.12887,0.65727 0.2754,0.356 0.5118,-0.0272 0.20544,0.54568 -0.0685,0.55548 0.1962,-0.002 -0.11094,0.23157 0.19783,0.0799 -0.0367,4.3e-4 0.46213,0.53274 0.40746,0.0648 0.18593,-0.0998 -0.55225,0.0446 -0.0806,-0.20994 0.40595,0.007 0.21713,0.0164 0.1922,0.40514 -0.0881,-0.32746 -0.15662,0.3876 -0.0401,0.16178 0.0199,0.36677 0.33208,0.69117 0.11644,0.89792 -0.43826,-0.19848 0.069,0.2022 0.14028,0.0586 0.50583,-0.0447 0.44032,0.22201 0.62777,0.59811 0.50029,-0.0471 -0.14783,-0.25868 0.24058,-0.3032 -0.16418,-0.18221 0.034,-0.28205 0.24486,-0.2387 -0.18611,-0.23595 0.20424,0.18565 0.24993,0.0707 0.23753,0.38809 -0.0909,-0.52373 0.22752,0.008 0.39345,0.20717 -0.14062,0.17518 -0.19933,0.52552 -0.0656,0.2619 -0.0346,0.4586 -0.0555,0.72497 -0.20781,0.16695 -0.28199,0.47533 -0.21623,0.60098 -0.36532,-0.0801 -0.50173,0.26327 -0.56145,0.4389 0.0161,0.0725 -0.3666,0.23061 -0.28297,0.45893 -0.0998,0.0999 0.38956,0.30953 -0.0247,0.30461 0.0605,0.27149 0.31723,-0.0897 0.0712,0.1986 -0.2749,0.15801 -0.0921,-0.19426 -0.23236,-0.1746 0.28212,-0.17155 -0.30833,0.0791 -0.1882,-0.0404 -0.349,-0.002 -0.0605,0.58654 -0.58777,0.36762 -0.17958,0.14024 -0.23618,-0.0566 0.014,-0.10076 -0.14918,-0.0331 0.11646,-0.54039 -0.1897,-0.24626 -0.0565,0.28371 -0.1924,0.20065 -0.1626,0.43734 0.0653,0.11903 -0.47724,0.23624 -0.40444,0.49902 0.14497,0.11122 -0.0165,0.56919 0.20331,0.40332 -0.0767,0.51143 0.0447,0.63489 -0.0365,0.97118 -0.16456,0.1005 -0.41617,0.25198 -0.43718,-0.0453 -0.1758,-0.37798 -0.21251,-0.43367 -0.3739,0.0253 0.245,-0.0448 -0.0167,0.38534 -0.22151,0.35355 -0.32275,-0.39555 -0.28952,0.008 -0.10996,0.149 0.10921,0.39229 -0.54665,-0.054 -0.29567,-0.0943 -0.1883,-0.12243 -0.14334,0.13724 -0.24999,-0.0161 -0.13004,-0.34818 0.36982,-0.0411 0.25146,-0.39059 0.12738,-0.16075 0.37874,-0.10908 0.012,-0.37554 -0.16218,0.0288 -0.43701,0.31108 -0.45706,-0.034 -0.0858,0.16594 -0.21113,0.13002 -0.3856,0.20411 0.26773,0.14451 -0.56674,-0.0206 -0.29226,0.3063 -0.0135,0.34281 -0.4326,-0.0174 -0.31743,0.41213 -0.25015,-0.3753 -0.49052,-0.17658 -0.29102,0.1912 -0.18736,-0.39705 -0.38202,0.12865 -0.5781,0.0136 -0.15713,-0.31874 -0.34539,-0.17457 -0.28539,0.005 0.19124,-0.11217 -0.0608,0.49116 0.3077,0.37147 0.22271,0.17178 0.40084,-0.17283 0.34623,0.23897 0.21691,0.10788 0.23381,-0.0521 0.49178,0.004 0.27693,-0.20534 -0.0966,-0.68996 -0.17048,-0.32754 -0.28451,-0.37143 0.42536,-0.0445 0.24461,-0.32412 -0.0649,-0.14912 0.12854,0.15197 0.36312,-0.0619 0.0282,-0.10769 0.20079,-0.42895 0.32606,-0.0632 0.0578,0.28242 0.16147,0.52644 0.28589,0.65489 0.12839,0.32801 -0.18154,0.38506 -0.0507,0.63479 -0.16456,0.21816 -0.479,-0.002 -0.5305,0.1335 -0.0393,-0.19096 -0.37886,-0.13037 -0.23195,-0.37132 -0.6717,-0.30243 -0.31381,0.57871 0.12321,0.45224 -0.0207,0.15932 -0.56923,0.13005 -0.71913,0.19471 -0.19295,-0.21476 0.18223,-0.45686 0.13119,-0.24445 -0.28678,-0.12591 0.42897,0.36591 0.0943,-0.0409 -0.0863,-0.30886 -0.43156,-0.0754 -0.1763,-0.41758 -0.24942,0.0639 -0.49476,-0.17012 -0.58069,0.242 0.13332,0.0665 -0.56649,-0.0855 -0.06,-0.12594 -0.0405,-0.0187 -0.0165,-0.329 -0.33225,-0.24891 -0.11979,0.0198 0.0837,0.48301 -0.13392,0.36412 0.008,-0.15069 -0.39665,-0.32785 -0.15748,-0.32812 0.34459,-0.0367 -0.10841,-0.72303 -0.34207,-0.19608 0.059,0.0993 0.10803,0.12738 0.002,0.1682 0.37873,0.31953 -0.4482,0.37892 -0.19422,0.24259 -0.21771,0.1176 -0.41948,0.0293 -0.6662,0.1259 -0.0571,-0.007 -0.47021,0.53214 -0.40355,0.18839 0.0929,6e-5 -0.50322,-0.50816 -0.43743,-0.16336 -0.0469,0.20521 -0.14384,0.20629 -0.0438,0.33615 -0.1866,0.12686 -0.2082,-0.37138 -0.20428,-0.47273 -0.15498,-0.15558 -0.35336,-0.70867 -0.51142,-0.37683 -0.13021,-0.78012 -0.47778,-0.18302 -0.46545,0.21633 0.36685,0.0245 -0.0516,0.80073 -0.0495,0.72438 -0.003,0.48457 -0.59732,0.0739 -0.57895,0.58635 -0.15105,0.11445 -0.3657,0.28294 -0.47078,0.1279 0.15682,-0.20037 -0.44905,-0.10062 -0.21962,-0.26029 -0.35596,-0.0866 -0.25187,-0.37646 -0.38893,-0.18784 -0.17212,-0.24018 -0.11845,-0.36086 -0.35774,-0.28709 0.17696,-0.34695 0.15535,-0.32934 -0.0777,-0.23997 -0.062,-0.27531 0.36637,-0.22031 0.32626,-0.14543 0.17582,-0.0187 0.1149,0.36942 0.39886,0.36211 0.13882,0.10822 0.34481,-0.42631 0.28171,-0.2365 0.12555,-0.35381 -0.40224,0.14653 -0.008,-0.24747 0.36828,-0.21718 0.43875,0.47713 0.59103,-0.0169 -0.12187,-0.25681 -0.41162,-3e-5 0.0247,-0.32139 0.42826,-0.0781 0.28286,-0.60696 0.16413,-0.36207 -0.18669,0.0158 -0.30342,-0.20328 -0.40705,0.0331 -0.0669,-0.26349 -0.16635,-0.20734 -0.28738,-0.17885 -0.0727,-0.27911 -0.23961,-0.17131 -0.32506,-0.5285 -0.14734,-0.48079 -0.21698,0.0809 -0.31074,0.0423 -0.18452,-0.13548 -0.18736,0.28001 -0.43602,-0.0762 -0.10043,0.33679 -0.46814,0.47959 -0.82133,0.43185 0.0245,-0.36772 -0.67564,-0.24675 -0.21322,-0.47261 0.0318,-0.52171 -0.50703,-0.31913 -0.2791,-0.039 -0.2556,-0.0947 -0.58194,-0.18769 -0.71406,-0.27297 0.37913,-0.30033 0.0946,-0.38949 -0.0801,-0.69241 0.0296,-0.24327 0.34471,-0.0207 0.51991,0.0428 0.29049,0.41133 0.55379,-0.29179 0.26632,-0.12894 -0.28943,-0.1161 0.0137,-0.47091 -0.3352,-0.27428 0.099,-0.53822 -0.31887,0.14132 -0.0532,-0.39458 0.003,-0.38909 -0.16019,-0.0203 -0.10564,0.0215 -0.20952,0.20688 -0.35334,-0.20846 -0.39841,-0.29904 0.0914,-0.26124 -0.4385,-0.24476 -0.36411,-0.54704 -0.44232,0.12746 0.35038,-0.10871 0.13484,-0.21072 0.3008,-0.16353 0.13981,-0.237 0.47819,-0.27093 -0.11694,0.0327 -0.30529,-0.34019 -0.51764,-0.14991 0.46441,-0.35206 -0.25689,-0.31228 -0.33878,-0.54017 -0.10873,0.0335 -0.53584,-0.61808 -0.11616,-0.61258 0.30772,-0.0649 0.58808,-0.20862 0.0672,-0.16341 -0.19069,-0.30096 -0.41925,-0.13939 -0.35791,0.0674 0.2071,-0.0695 -0.26632,0.30011 -0.11531,-0.11553 -0.35461,-0.0848 -0.12889,-0.0518 -0.036,-0.16223 -0.27351,-0.25046 -0.3537,-0.3759 -0.0683,-0.3835 -0.14654,-0.18836 0.0408,-0.31589 0.24134,-0.43134 -0.31263,-0.0834 0.0407,-0.40786 -0.0136,-0.42922 0.52549,0.27967 0.13592,-0.49282 0.54328,-0.26592 0.41512,-0.25168 0.0651,0.25792 0.41028,0.33245 0.0138,-0.20035 0.22121,-0.19497 0.42547,-0.38143 -0.28983,-0.36686 0.50428,-0.0534 0.006,-0.36114 -0.13238,-0.3515 0.0128,-0.25026 0.20351,-0.56681 -0.0189,-0.28795 0.18573,-0.52005 0.5144,-0.6384 -0.17351,-0.28828 0.40601,0.009 0.50614,-0.0756 -0.0535,0.21688 -0.61158,0.14224 -0.22843,0.47844 0.0251,0.14995 0.46295,-0.11965 0.24323,-0.1978 0.20514,-0.28224 0.48958,0.1691 0.43083,-0.27643 0.37088,-0.37352 0.28074,0.10724 0.7354,-0.10844 -0.24977,-0.18672 0.42659,0.0811 0.0337,0.167 0.5669,-0.0815 0.33503,-0.44573 -0.0763,-0.4028 -0.28548,-0.14599 0.14026,-0.48825 0.0977,-0.22405 0.14444,-0.073 0.31796,-0.27849 0.43814,-0.2533 -0.22182,-0.34352 -0.37252,-0.14086 -0.34383,-0.47123 -0.13877,-0.44629 0.74349,0.36619 0.61662,0.0919 -0.17251,-0.15277 0.3323,0.26211 0.35036,-0.1196 0.18883,-0.42802 -0.48548,-0.4378 -0.23736,0.0758 -0.16769,-0.19353 0.006,-0.27516 -0.26631,-0.22662 -0.0688,-0.44359 -0.0803,-0.64451 -0.38252,-0.21224 -0.29325,-0.0209 0.11307,0.17261 -0.20436,0.0973 0.0727,0.29749 -0.49226,-0.15577 -0.0543,-0.19483 0.10207,-0.24771 0.47896,-0.0379 0.1898,-0.29931 0.40164,-0.0299 0.0504,-0.5135 0.45442,-0.37192 -0.0928,-0.15117 -0.0186,-0.70572 0.21647,-0.51119 0.31654,-0.16807 0.32344,-0.0106 0.56498,-0.22501 -0.29633,-0.0988 0.3916,-0.0476 0.16269,0.22275 0.13337,-0.18448 0.21666,0.20999 0.19251,-0.12384 0.33928,0.0963 0.32239,-0.52203 0.62549,-0.30279 0.0856,0.13309 0.14052,-0.0855 0.1611,0.22157 0.29058,-0.005 0.0702,0.27368 0.005,0.18436 -0.5396,0.26186 0.0163,0.7899 0.17555,0.44625 0.31718,-0.022 -0.10529,-0.28351 0.34105,-0.1469 0.14043,-0.16754 0.51718,0.35141 0.42403,0.55002 -0.28883,-0.005 -0.21287,0.26138 0.13347,0.24307 0.11245,0.1383 0.0651,-0.22524 0.17143,0.16636 0.61337,0.21331 -0.34447,-0.6778 0.28699,-0.75622 0.0224,0.17114 0.21681,-0.052 0.37924,-0.0184 -0.13319,-0.36419 -0.20274,-0.95037 -0.44957,-0.49059 -0.24924,-0.0784 -0.11615,-0.4728 0.01,-0.43556 0.35863,-0.23517 0.27616,0.52265 0.40328,0.10151 0.17239,0.0914 0.0923,-0.59344 0.27736,-0.37444 z"
         id="path9134" /><path
         style="fill:#3c7605;fill-opacity:1;stroke-width:0.0387028"
         d="m 256.06149,471.03192 c 0.0832,0.37708 0.20317,0.0999 0.3112,0.38143 0.18121,0.0262 0.18276,0.31927 0.41883,0.063 0.224,0.42641 0.002,-0.32429 0.27001,0.13261 -0.14007,0.28725 0.20963,0.2621 0.0232,0.52437 0.0118,-0.0194 -0.44928,0.39566 -0.58565,0.20371 -0.0295,-0.29712 -0.483,-0.30871 -0.52803,-0.0777 -0.1503,0.51327 0.80136,-0.38695 0.17033,0.17701 -0.0527,0.26761 0.35564,0.0834 0.52214,0.11672 0.17337,-0.23763 0.26171,0.36559 0.48629,0.50096 0.3136,0.29118 0.33108,-0.03 0.3773,-0.0765 0.13102,0.0558 -0.007,-0.32344 0.18671,-0.3966 -0.31311,0.0723 -0.3537,0.16832 -0.27067,0.21164 -0.33494,0.19489 -0.18407,-0.31088 -0.25921,-0.57182 0.0953,0.0715 0.48682,0.0728 0.40227,-0.22829 0.0802,0.26746 0.50731,0.0985 0.5503,0.202 0.15549,0.24546 0.37114,0.13287 0.60918,0.43036 0.0621,0.25278 0.0634,0.0704 0.28516,0.18643 0.021,0.16973 -0.16677,0.0511 -0.1663,0.19771 -0.15688,-0.0318 -0.54384,-0.002 -0.53958,0.23358 0.45667,-0.14741 -0.0961,0.21557 0.23006,0.15122 0.31889,0.0717 -0.0928,0.34337 -0.19265,0.0621 -0.26483,0.0398 0.0726,0.30774 -0.25704,0.31864 -0.16562,-0.0265 -0.34627,0.35668 -0.18053,0.49094 -0.11919,0.19694 0.4729,0.17154 0.44805,0.0916 0.41659,-0.0547 0.7042,0.26644 1.13248,0.13051 -0.039,-0.1584 -0.10407,-0.1767 -0.0236,-0.46198 -0.41642,-0.31533 0.36309,-0.0511 0.40166,-0.11664 0.22453,0.0938 0.6394,0.38635 0.0529,0.37572 -0.23238,0.10187 -0.47699,-0.24023 -0.31065,0.17678 -0.18619,0.12687 -0.21384,0.45378 -0.32722,0.59251 0.33208,-0.0577 0.45224,0.39257 0.6683,-0.0515 -0.28839,-0.10593 0.0519,-0.25594 0.16076,-0.21578 -0.17329,-0.13567 0.62751,0.23573 0.64885,-0.24489 0.37141,-0.0625 -0.12887,0.65727 0.2754,0.356 0.5118,-0.0272 0.20544,0.54568 -0.0685,0.55548 0.19619,-0.002 -0.11095,0.23157 0.19782,0.0799 -0.0367,4.3e-4 0.46213,0.53274 0.40746,0.0648 0.18593,-0.0998 -0.55225,0.0446 -0.0806,-0.20994 0.40594,0.007 0.21712,0.0164 0.19219,0.40514 -0.0881,-0.32746 -0.15662,0.3876 -0.0401,0.16178 0.0199,0.36677 0.33208,0.69117 0.11644,0.89792 -0.43826,-0.19848 0.069,0.2022 0.14028,0.0586 0.50583,-0.0447 0.44032,0.22201 0.62777,0.59811 0.50029,-0.0471 -0.14783,-0.25868 0.24058,-0.3032 -0.16418,-0.18221 0.034,-0.28205 0.24486,-0.2387 -0.18611,-0.23595 0.20424,0.18565 0.24993,0.0707 0.23753,0.38809 -0.0909,-0.52373 0.22752,0.008 0.39345,0.20717 -0.14062,0.17518 -0.19933,0.52552 -0.0655,0.2619 -0.0346,0.4586 -0.0555,0.72497 -0.20781,0.16695 -0.28199,0.47533 -0.21623,0.60098 -0.36532,-0.0801 -0.50173,0.26327 -0.56144,0.4389 0.0161,0.0725 -0.36661,0.23061 -0.28298,0.45893 -0.0998,0.0999 0.38956,0.30953 -0.0247,0.30461 0.0605,0.27149 0.31723,-0.0897 0.0712,0.1986 -0.2749,0.15801 -0.0921,-0.19426 -0.23236,-0.1746 0.28212,-0.17155 -0.30833,0.0791 -0.1882,-0.0404 -0.349,-0.002 -0.0605,0.58654 -0.58777,0.36762 -0.17958,0.14024 -0.23618,-0.0566 0.014,-0.10076 -0.14918,-0.0331 0.11646,-0.54039 -0.1897,-0.24626 -0.0565,0.28371 -0.1924,0.20065 -0.1626,0.43734 0.0653,0.11903 -0.47724,0.23624 -0.40444,0.49902 0.14497,0.11122 -0.0165,0.56919 0.20331,0.40332 -0.0767,0.51143 0.0447,0.63489 -0.0365,0.97118 -0.16456,0.1005 -0.41617,0.25198 -0.43718,-0.0453 -0.1758,-0.37798 -0.21251,-0.43367 -0.3739,0.0253 0.245,-0.0448 -0.0167,0.38534 -0.22151,0.35355 -0.32275,-0.39555 -0.28952,0.008 -0.10996,0.149 0.10921,0.39229 -0.54665,-0.054 -0.29567,-0.0943 -0.1883,-0.12243 -0.14334,0.13724 -0.24999,-0.0161 -0.13004,-0.34818 0.36982,-0.0411 0.25146,-0.39059 0.12738,-0.16075 0.37874,-0.10908 0.012,-0.37554 -0.16218,0.0288 -0.43701,0.31108 -0.45706,-0.034 -0.0858,0.16594 -0.21113,0.13002 -0.3856,0.20411 0.26773,0.14451 -0.56674,-0.0206 -0.29226,0.3063 -0.0135,0.34281 -0.4326,-0.0174 -0.31743,0.41213 -0.25015,-0.3753 -0.49052,-0.17658 -0.29102,0.1912 -0.18736,-0.39705 -0.38202,0.12865 -0.5781,0.0136 -0.15713,-0.31874 -0.34539,-0.17457 -0.28539,0.005 0.19124,-0.11217 -0.0608,0.49116 0.3077,0.37147 0.22271,0.17178 0.40084,-0.17283 0.34623,0.23897 0.21691,0.10788 0.23381,-0.0521 0.49178,0.004 0.27693,-0.20534 -0.0967,-0.68996 -0.17048,-0.32754 -0.28451,-0.37143 0.42536,-0.0445 0.24461,-0.32412 -0.0649,-0.14912 0.12854,0.15197 0.36312,-0.0619 0.0282,-0.10769 0.20079,-0.42895 0.32606,-0.0632 0.0578,0.28242 0.16147,0.52644 0.28589,0.65489 0.12839,0.32801 -0.18154,0.38506 -0.0507,0.63479 -0.16456,0.21816 -0.479,-0.002 -0.5305,0.1335 -0.0393,-0.19096 -0.37886,-0.13037 -0.23195,-0.37132 -0.6717,-0.30243 -0.31381,0.57871 0.12321,0.45224 -0.0207,0.15932 -0.56923,0.13005 -0.71913,0.19471 -0.19295,-0.21476 0.18223,-0.45686 0.13119,-0.24445 -0.28678,-0.12591 0.42897,0.36591 0.0943,-0.0409 -0.0863,-0.30886 -0.43156,-0.0754 -0.1763,-0.41758 -0.24942,0.0639 -0.49476,-0.17012 -0.58069,0.242 0.13332,0.0665 -0.56649,-0.0855 -0.06,-0.12594 -0.0405,-0.0187 -0.0165,-0.329 -0.33225,-0.24891 -0.11979,0.0198 0.0837,0.48301 -0.13392,0.36412 0.008,-0.15069 -0.39665,-0.32785 -0.15748,-0.32812 0.34459,-0.0367 -0.10841,-0.72303 -0.34207,-0.19608 0.059,0.0993 0.10803,0.12738 0.002,0.1682 0.37873,0.31953 -0.4482,0.37892 -0.19422,0.24259 -0.21771,0.1176 -0.41948,0.0293 -0.6662,0.1259 -0.0571,-0.007 -0.47021,0.53214 -0.40355,0.18839 0.0929,6e-5 -0.50322,-0.50816 -0.43743,-0.16336 -0.0469,0.20521 -0.14384,0.20629 -0.0438,0.33615 -0.1866,0.12686 -0.2082,-0.37138 -0.20428,-0.47273 -0.15498,-0.15558 -0.35336,-0.70867 -0.51142,-0.37683 -0.13021,-0.78012 -0.47778,-0.18302 -0.46545,0.21633 0.36685,0.0245 -0.0516,0.80073 -0.0495,0.72438 -0.003,0.48457 -0.59732,0.0739 -0.57895,0.58635 -0.15105,0.11445 -0.3657,0.28294 -0.47078,0.1279 0.15682,-0.20037 -0.44905,-0.10062 -0.21962,-0.26029 -0.35596,-0.0866 -0.25187,-0.37646 -0.38893,-0.18784 -0.17212,-0.24018 -0.11845,-0.36086 -0.35774,-0.28709 0.17696,-0.34695 0.15535,-0.32934 -0.0777,-0.23997 -0.062,-0.27531 0.36637,-0.22031 0.32626,-0.14543 0.17582,-0.0187 0.1149,0.36942 0.39886,0.36211 0.13882,0.10822 0.34481,-0.42631 0.28171,-0.2365 0.12555,-0.35381 -0.40224,0.14653 -0.008,-0.24747 0.36828,-0.21718 0.43875,0.47713 0.59103,-0.0169 -0.12187,-0.25681 -0.41162,-3e-5 0.0247,-0.32139 0.42826,-0.0781 0.28286,-0.60696 0.16413,-0.36207 -0.18669,0.0158 -0.30342,-0.20328 -0.40705,0.0331 -0.0669,-0.26349 -0.16635,-0.20734 -0.28738,-0.17885 -0.0727,-0.27911 -0.23961,-0.17131 -0.32506,-0.5285 -0.14734,-0.48079 -0.21698,0.0809 -0.31074,0.0423 -0.18452,-0.13548 -0.18736,0.28001 -0.43602,-0.0762 -0.10043,0.33679 -0.46814,0.47959 -0.82133,0.43185 0.0245,-0.36772 -0.67564,-0.24675 -0.21322,-0.47261 0.0318,-0.52171 -0.50703,-0.31913 -0.2791,-0.039 -0.2556,-0.0947 -0.58194,-0.18769 -0.71406,-0.27297 0.37913,-0.30033 0.0946,-0.38949 -0.0801,-0.69241 0.0296,-0.24327 0.34471,-0.0207 0.51991,0.0428 0.29049,0.41133 0.55379,-0.29179 0.26632,-0.12894 -0.28943,-0.1161 0.0137,-0.47091 -0.3352,-0.27428 0.099,-0.53822 -0.31887,0.14132 -0.0532,-0.39458 0.003,-0.38909 -0.16019,-0.0203 -0.10564,0.0215 -0.20952,0.20688 -0.35334,-0.20846 -0.39841,-0.29904 0.0914,-0.26124 -0.4385,-0.24476 -0.36411,-0.54704 -0.44232,0.12746 0.35038,-0.10871 0.13484,-0.21072 0.3008,-0.16353 0.13981,-0.237 0.47819,-0.27093 -0.11694,0.0327 -0.30529,-0.34019 -0.51764,-0.14991 0.46441,-0.35206 -0.25689,-0.31228 -0.33878,-0.54017 -0.10873,0.0335 -0.53584,-0.61808 -0.11616,-0.61258 0.30772,-0.0649 0.58808,-0.20862 0.0672,-0.16341 -0.19069,-0.30096 -0.41925,-0.13939 -0.35791,0.0674 0.2071,-0.0695 -0.26632,0.30011 -0.11531,-0.11553 -0.35461,-0.0848 -0.12889,-0.0518 -0.036,-0.16223 -0.27351,-0.25046 -0.3537,-0.3759 -0.0683,-0.3835 -0.14654,-0.18836 0.0408,-0.31589 0.24134,-0.43134 -0.31263,-0.0834 0.0407,-0.40786 -0.0136,-0.42922 0.52549,0.27967 0.13592,-0.49282 0.54328,-0.26592 0.41512,-0.25168 0.0651,0.25792 0.41028,0.33245 0.0138,-0.20035 0.22121,-0.19497 0.42547,-0.38143 -0.28983,-0.36686 0.50428,-0.0534 0.006,-0.36114 -0.13238,-0.3515 0.0128,-0.25026 0.20351,-0.56681 -0.0189,-0.28795 0.18573,-0.52005 0.5144,-0.6384 -0.17351,-0.28828 0.40601,0.009 0.50614,-0.0756 -0.0535,0.21688 -0.61158,0.14224 -0.22843,0.47844 0.0251,0.14995 0.46295,-0.11965 0.24323,-0.1978 0.20514,-0.28224 0.48958,0.1691 0.43083,-0.27643 0.37088,-0.37352 0.28074,0.10724 0.7354,-0.10844 -0.24977,-0.18672 0.42659,0.0811 0.0337,0.167 0.5669,-0.0815 0.33503,-0.44573 -0.0763,-0.4028 -0.28548,-0.14599 0.14026,-0.48825 0.0977,-0.22405 0.14444,-0.073 0.31796,-0.27849 0.43814,-0.2533 -0.22182,-0.34352 -0.37252,-0.14086 -0.34383,-0.47123 -0.13877,-0.44629 0.74349,0.36619 0.61662,0.0919 -0.17251,-0.15277 0.3323,0.26211 0.35036,-0.1196 0.18883,-0.42802 -0.48548,-0.4378 -0.23736,0.0758 -0.16769,-0.19353 0.006,-0.27516 -0.26631,-0.22662 -0.0688,-0.44359 -0.0803,-0.64451 -0.38252,-0.21224 -0.29325,-0.0209 0.11307,0.17261 -0.20436,0.0973 0.0727,0.29749 -0.49226,-0.15577 -0.0543,-0.19483 0.10207,-0.24771 0.47896,-0.0379 0.1898,-0.29931 0.40164,-0.0299 0.0504,-0.5135 0.45442,-0.37192 -0.0928,-0.15117 -0.0186,-0.70572 0.21647,-0.51119 0.31654,-0.16807 0.32344,-0.0106 0.56498,-0.22501 -0.29633,-0.0988 0.3916,-0.0476 0.16269,0.22275 0.13337,-0.18448 0.21666,0.20999 0.19251,-0.12384 0.33928,0.0963 0.32239,-0.52203 0.62549,-0.30279 0.0856,0.13309 0.14052,-0.0855 0.1611,0.22157 0.29058,-0.005 0.0702,0.27368 0.005,0.18436 -0.5396,0.26186 0.0163,0.7899 0.17555,0.44625 0.31718,-0.022 -0.10529,-0.28351 0.34105,-0.1469 0.14043,-0.16754 0.51718,0.35141 0.42403,0.55002 -0.28883,-0.005 -0.21287,0.26138 0.13347,0.24307 0.11245,0.1383 0.0651,-0.22524 0.17143,0.16636 0.61337,0.21331 -0.34447,-0.6778 0.28699,-0.75622 0.0224,0.17114 0.21681,-0.052 0.37924,-0.0184 -0.13319,-0.36419 -0.20274,-0.95037 -0.44957,-0.49059 -0.24924,-0.0784 -0.11615,-0.4728 0.01,-0.43556 0.35863,-0.23517 0.27616,0.52265 0.40328,0.10151 0.17239,0.0914 0.0923,-0.59344 0.27736,-0.37444 z"
         id="path9136" /><path
         style="fill:#3c7605;fill-opacity:1;stroke-width:0.0551275"
         d="m 240.07358,458.96375 c 0.28084,-0.52173 -0.2382,-0.23543 0.0133,-0.68194 -0.31071,-0.12527 0.032,-0.5643 -0.4974,-0.43577 0.0625,-0.70793 -0.18635,0.38957 -0.2429,-0.33098 0.36948,-0.28538 0.12271,-0.30138 0.28335,-0.59523 0.16975,-0.23679 0.50951,-0.009 0.96688,0.008 0.0461,0.20409 0.0304,1.05307 0.49331,0.6567 0.68121,-0.0914 -0.44348,-0.36219 -0.30602,-0.29391 0.93099,0.0886 0.0937,-0.48694 0.0466,-0.47894 -0.38388,0.0556 -0.55734,-0.3843 -0.27551,-0.71729 -0.0418,-0.58931 -0.42546,-0.87943 -0.58722,-0.59901 -0.10673,-0.17299 -0.25758,0.3827 -0.54334,0.30712 0.4235,0.17364 0.55022,0.0946 0.48882,-0.0234 0.52095,0.0447 0.0254,0.39302 -0.0662,0.69653 -0.16441,0.60661 -0.38203,-0.63672 -0.64137,0.0811 -0.11487,0.16741 -0.38062,-0.7043 -0.61432,-0.59513 -0.0233,-0.46043 -0.0861,-0.41391 -0.33174,-0.87641 -0.0149,-0.53633 0.15693,-0.30546 -0.19346,-0.60518 0.22415,-0.39228 0.0526,0.22744 0.41505,-0.15514 -0.0228,0.1942 0.57164,0.44984 0.7851,0.235 -0.63658,-0.25418 0.24698,-0.18997 -0.15262,-0.39744 -0.31186,-0.34606 0.38993,-0.32194 0.27478,0.0867 0.34143,0.17102 0.16864,-0.41865 0.56151,-0.15853 0.20056,0.10752 0.41932,0.004 0.65279,-0.28459 -0.15974,-0.1215 0.32438,-0.46641 -0.28404,-0.44465 -0.11165,-0.27382 -0.64387,-0.39475 -0.82304,-0.79404 -0.25795,-0.39665 -0.79987,-0.5643 -0.66273,-0.15908 -0.39538,0.15479 -0.16658,0.9735 -0.50691,0.21634 -0.52863,0.0409 -0.33883,-0.43074 -0.57656,-0.72619 0.15409,-0.28096 0.78292,0.357 0.8477,0.34416 0.017,0.28958 0.23571,-0.35373 0.51625,-0.35238 0.13569,-0.29571 0.86002,-0.0789 0.28617,-0.52709 -0.1356,0.007 -0.1498,-0.64129 -0.60468,-0.23127 0.2863,0.17026 -0.27721,0.52357 -0.30605,0.0557 -0.0115,0.51894 -0.50844,-0.76976 -1.01497,-0.18595 -0.48607,-0.24442 0.68825,-0.66231 -0.0275,-0.64047 -0.61733,-0.38953 0.20881,-0.80359 0.53577,-0.58983 -0.30859,-0.28097 0.37645,0.0705 -0.0962,-0.32135 -0.11914,0.32645 -0.0903,-1.01124 -0.48954,-0.34428 -0.33159,-0.0366 0.64855,0.358 -0.002,0.3115 -0.3287,-0.3628 -0.54491,-0.0745 -0.10494,-0.48999 0.24669,-0.41953 -0.0214,0.35906 0.29475,-0.13911 0.26239,-0.15838 -0.19334,-0.14 0.24822,-0.56529 -0.14429,-0.38324 0.32959,-0.9954 0.49346,-0.50819 0.18384,-0.366 -0.55828,-0.43334 -0.58728,-0.85352 -0.25038,0.0734 0.56157,-1.22701 -0.27386,-0.73967 0.29465,0.18302 -0.16887,0.23402 -0.19576,0.2995 -0.16801,0.36579 -0.41519,-0.35859 -0.39733,0.0702 -0.22739,-0.26269 -0.14725,-0.87914 -0.42911,-0.44702 -0.11935,0.43343 -0.0226,-0.66129 -0.19289,-0.49672 0.65298,0.15656 0.8431,-0.34065 1.21436,-0.56634 -0.13517,-0.48121 0.59556,-0.28506 0.72945,-0.65271 0.3073,0.009 0.0988,-0.51634 0.56044,3.8e-4 0.0275,-0.21775 0.66085,-0.0146 0.56533,-0.2754 0.2253,-0.27405 0.37488,0.18254 0.73158,-0.18759 0.15971,-0.10828 0.1713,-0.31581 0.12226,-0.56234 0.4005,0.22895 0.27118,-0.28039 0.0801,-0.11131 0.23475,-0.35147 0.62688,0.1262 0.34431,0.18626 0.27352,0.25404 -0.4921,0.0463 0.17018,0.20805 -0.16557,0.12009 0.55479,0.41306 0.51253,-0.12765 0.37242,0.1751 0.785,0.28517 0.72264,0.46784 -0.37897,-0.18353 -0.27454,0.14848 -0.55574,0.38584 0.32673,0.0577 0.52333,-0.25921 0.6883,-0.18587 0.0811,-0.2435 0.18475,-0.3918 0.58639,-0.18458 0.52315,-0.12983 0.39593,-0.38265 0.59818,-0.68801 0.26938,-0.0783 -0.0784,-0.20491 -0.036,-0.27174 0.5061,-0.51265 0.44355,-0.71736 0.83545,-1.07046 0.3,0.11283 0.70167,0.0727 0.40331,0.51868 -0.1742,0.65296 0.19644,0.47832 0.42537,0.16243 -0.14366,-0.0943 0.49579,-0.48277 0.62359,-0.11081 -0.0659,0.55793 0.54022,0.29312 0.11155,-0.11627 0.35694,-0.52953 0.49723,0.1471 0.51151,0.28043 -0.25984,-0.0458 -0.0112,0.34552 0.1825,0.10814 -0.1015,0.14341 0.0688,0.41283 -0.40536,0.31583 0.11239,-0.38255 -0.56501,0.51957 -0.52842,0.002 -0.59657,0.73678 0.84275,0.34807 0.48185,0.91668 0.23658,-0.12358 0.35285,0.0222 0.61653,0.0793 -0.24836,-0.44427 0.66247,0.52691 0.49499,-0.0972 0.37051,-0.40368 0.55809,0.33582 0.80559,-0.23729 -0.0189,0.64258 0.42713,0.60741 0.49653,0.0163 -0.0729,0.50992 0.42455,0.31888 0.67317,0.36778 0.0193,0.47767 0.099,0.71234 0.38128,0.29485 -0.38523,0.0739 0.41296,-0.48124 -0.087,-0.65772 -0.11798,-0.38294 -0.60826,-0.12852 -0.20622,-0.56264 -0.13741,-0.35975 -0.32323,-0.0227 -0.51332,-0.43952 -0.38945,0.0615 -0.64422,0.69608 -0.18093,0.62742 0.18552,0.0313 -0.15602,0.44248 -0.31134,-0.0529 -0.14974,0.11156 -0.36726,0.42949 -0.17006,0.0605 -0.40657,-0.1688 -0.63202,-0.12525 -0.83232,0.0237 -0.45487,-0.37351 0.49548,-1.06097 0.0606,-1.21993 0.0911,-0.41954 0.46406,-0.58108 0.60761,-0.65329 0.15066,-0.58671 0.65098,0.33515 0.75784,0.10841 -0.20506,0.21018 0.45389,0.49603 -0.0398,0.56665 0.23549,0.72575 0.74129,0.204 0.5832,-0.20534 -0.42687,-0.27735 -0.40221,-0.69162 0.0499,-0.19865 0.17215,-0.23288 0.72424,0.33107 0.55238,0.32128 -0.22255,0.62643 -0.50478,-0.21354 -0.23734,0.14043 -0.12367,-0.84334 -0.45001,0.30459 -0.0346,0.33904 -0.56309,0.24139 0.0644,0.19127 0.0504,0.548 0.61997,0.0622 0.34618,-0.54838 0.75563,0.0513 0.0363,0.19194 -0.33956,-0.18679 -0.27716,0.0666 -0.29087,0.0158 0.13427,0.7041 0.38271,0.40982 -0.33754,-0.30504 0.6482,-0.52591 0.15506,-0.0613 0.34185,0.25172 -0.0259,0.47718 -0.05,0.23663 -0.92543,0.34674 0.50393,1.01484 0.26466,0.38096 0.23111,0.20339 0.19118,-0.73204 0.69743,-0.16172 -0.21651,0.16426 0.29175,-0.032 0.44542,0.38926 0.37229,0.0195 0.50859,0.15168 0.92538,-0.0537 0.33908,0.35087 -0.29565,0.0844 0.10219,0.46489 -0.12449,0.63312 0.38358,0.28471 0.54245,0.17973 -0.023,-0.19404 0.34788,-0.4805 0.10877,0.13005 -0.22078,0.12859 -0.25122,0.76436 -0.14407,1.09539 -0.22775,0.33792 0.51749,-0.0662 0.16098,0.48971 -0.32764,0.76606 1.19294,-0.19875 0.64476,-0.35362 0.3404,-0.45712 0.68875,-0.69037 0.81623,-0.68205 0.30337,-0.75067 0.75025,0.5183 0.97809,-0.17963 0.36854,-0.031 0.7994,-0.10067 0.83029,0.21168 -0.34718,0.10437 0.43986,0.48598 0.0409,0.48408 0.34142,0.39344 -0.0157,0.64361 0.29688,0.53757 0.0435,0.42041 -0.16941,0.5168 0.18077,0.62926 -0.49073,0.25789 -0.45157,0.25544 -0.10695,0.34322 -0.15409,0.37121 -0.60734,-0.045 -0.49908,-0.0991 -0.32164,-0.0672 0.25873,-0.48066 -0.11009,-0.60717 -0.0196,-0.51546 -0.62488,0.071 -0.64187,-0.10069 -0.33083,0.22983 0.54217,0.17587 -0.0117,0.28765 -0.6952,0.11619 -0.2705,-0.83485 -0.74214,-0.51947 -0.34982,0.37192 0.5363,0.4603 -0.36904,0.41574 -0.31279,-0.11797 -1.078,0.19179 -0.44341,0.37308 0.0247,-0.25142 0.1887,0.52409 0.45591,0.20895 -0.13824,0.3616 0.0227,0.37677 0.1876,0.44404 -0.14507,0.38452 0.13832,0.39585 -0.0572,0.88175 -0.22441,0.67995 0.31933,0.0842 0.39665,0.20631 0.10367,0.30955 0.44765,-0.17252 0.44426,0.4468 0.37702,-0.21536 0.8075,-0.30173 1.20948,0.13101 0.0695,0.15195 0.0632,0.53819 0.27394,0.78117 -0.57287,-0.30503 -0.44861,1.06064 -0.0626,0.40289 0.13739,-0.31742 0.38544,0.57724 0.62563,0.63017 0.25661,0.32737 -0.97273,0.0853 -0.38686,0.67546 -0.0507,0.63676 -0.39014,0.3466 -0.53976,0.01 -0.10425,-0.37961 -0.49893,-0.82521 -0.67884,-0.23644 0.56847,-0.20527 -0.27073,0.76252 0.31998,0.55712 -0.14095,0.31723 -0.23343,0.39206 0.0621,0.35508 -0.60438,0.10561 -0.32716,0.80098 -0.21231,0.20332 0.4927,0.10139 0.13257,0.3115 0.35344,0.71883 -0.51393,0.10885 0.17709,0.61225 -0.0783,0.90784 0.28796,0.18655 0.0818,0.0932 -0.39706,0.0339 0.25761,0.23006 -0.49637,0.0794 -0.47348,0.20924 -0.64785,-0.38468 0.10535,0.10882 -0.1223,0.39436 0.72512,0.0752 -0.53709,0.0414 0.10674,0.49631 -0.10193,0.12083 0.39106,0.30255 0.14627,0.62587 0.2383,-0.002 0.0291,1.13952 -0.50378,0.62272 -0.85604,-0.35554 0.0844,0.078 0.0505,0.59017 0.48746,0.0199 0.2165,-0.49707 0.54828,-0.1951 -0.36283,0.28669 0.3452,0.67384 -0.19701,0.35585 -0.0344,0.48869 0.12897,0.85058 -0.28089,0.57405 0.0457,0.11076 -0.19321,0.43837 -0.34483,0.32194 -0.45346,-0.31172 0.0293,0.50779 -0.54364,0.34929 0.0887,0.51835 -0.49694,-0.58169 -0.55218,0.12471 -0.24487,0.0833 -0.39241,-0.0924 -0.7356,-0.29025 0.28102,-0.003 0.31003,-0.65621 0.033,-0.48273 -0.19781,0.0211 -0.26163,0.12916 -0.67392,-0.0481 -0.10214,0.54198 -0.15569,0.19188 -0.44745,0.17924 0.16668,0.6039 0.0201,0.71749 -0.42527,0.73809 -0.2978,0.11454 -0.56787,0.6274 -0.99009,0.40085 -0.3559,0.0206 -0.48335,0.32372 -0.7161,-0.28659 -0.54517,0.0128 0.19591,-0.2698 0.41312,0.0193 0.019,-0.44338 0.12999,-0.67344 -0.33838,-0.58234 0.0201,-0.0253 -0.36301,0.46382 -0.50098,-0.0335 -0.0336,-0.21251 -0.54018,0.47805 -0.84862,0.0535 0.31363,-0.20759 -0.55941,-0.47655 -0.42262,-0.2068 -0.47285,-0.57303 0.53342,-0.25458 -0.28521,-0.51992 -0.56165,0.16207 0.13836,0.4621 0.21267,0.79893 -0.50195,0.68494 -0.18733,-0.31807 -0.72866,0.12902 -0.68263,-0.64181 -0.10411,0.56784 -0.21646,0.48552 -0.16885,0.71393 -0.58315,-0.0661 -0.70507,-0.56835 -0.12588,0.47107 0.0615,0.086 -0.29148,-0.11878 -0.68461,-0.1035 -0.4536,1.18698 -0.0439,0.43063 0.34634,-0.53052 -0.24355,0.40876 0.23412,0.21169 -0.0937,0.52167 -0.59054,0.94378 0.20857,0.63492 0.43218,0.16943 -8.5e-4,-0.14841 0.40344,0.002 -0.0414,0.13655 0.28393,-0.2869 0.21399,0.26487 -0.12954,0.37133 -1.03111,-0.33686 -0.79272,0.24736 -0.29636,-0.15939 -0.3721,0.003 -0.55448,0.17847 0.0905,0.22324 -0.46958,-0.3867 -0.3079,0.0938 -0.47317,0.23179 -0.35383,0.60205 -0.85414,0.10923 -0.32303,0.0901 -0.14972,-0.19622 -0.65253,-0.14501 0.0594,0.57522 -0.10587,-0.63176 -0.10789,-0.25514 -2.1e-4,-0.67091 -0.22709,0.21202 -0.59889,-0.27526 -0.52945,0.61616 -0.531,-0.33511 -0.72786,-0.0891 0.18202,-0.17647 -0.0401,-0.73678 0.18897,-0.55575 0.10739,0.10033 1.00134,-0.0611 0.61928,-0.48789 3e-4,-0.42269 -0.27617,0.11267 -0.58524,-0.20675 0.1597,0.38808 -0.32553,-0.0549 -0.40133,-0.10758 -0.19189,0.0513 -0.13226,-1.1977 0.11095,-0.78132 0.69692,-0.0866 -0.0454,-0.45778 -0.0517,-0.64755 -0.055,0.36213 -0.0373,-1.05453 -0.41036,-0.17088 0.32549,0.54094 -0.57303,0.74309 -0.5475,0.49737 -0.0279,0.0363 -0.62489,-0.52156 -0.50002,0.15383 -0.41372,0.44573 -0.23613,0.84052 0.16095,0.58895 0.22611,0.29659 -0.2547,0.64521 -0.36906,0.49864 -0.63712,0.0632 0.13931,-0.91814 -0.35369,-0.40226 -0.10837,-0.40244 -0.62489,0.59297 -0.66541,0.1659 z"
         id="path9138" /></g><path
       style="fill:none;stroke:#000000;stroke-width:26.4375;stroke-linecap:butt;stroke-linejoin:round;stroke-dasharray:none;stroke-opacity:1"
       d="m 172.88367,251.95614 h 141.75195 l 71.13773,123.21417 v 96.0205 h 105.24627"
       id="path10799"
       sodipodi:nodetypes="ccccc" /><path
       style="fill:none;stroke:#ffffff;stroke-width:1.875;stroke-linecap:butt;stroke-linejoin:round;stroke-dasharray:7.5, 15;stroke-dashoffset:0;stroke-opacity:1"
       d="m 172.88367,251.95614 h 141.75195 l 71.13773,123.21417 v 96.0205 h 105.24627"
       id="path11671"
       sodipodi:nodetypes="ccccc" /><g
       id="g6"><g
         id="g4"><path
           style="fill:none;stroke:#000000;stroke-width:1.41732;stroke-linecap:butt;stroke-linejoin:miter;stroke-miterlimit:4;stroke-dasharray:none;stroke-opacity:1;marker-end:url(#marker2716)"
           d="M 154.78628,392.4115 V 517.47907"
           id="path2708"
           sodipodi:nodetypes="cc" /><path
           style="fill:none;stroke:#000000;stroke-width:1.41732;stroke-linecap:butt;stroke-linejoin:miter;stroke-miterlimit:4;stroke-dasharray:none;stroke-opacity:1;marker-end:url(#marker2726)"
           d="M 154.78628,332.69537 V 207.6278"
           id="path2710"
           sodipodi:nodetypes="cc" /></g><g
         id="text5"
         style="font-size:17.5px;font-family:'Nova Round';-inkscape-font-specification:'Nova Round, Normal';text-align:center;text-anchor:middle;stroke-width:0.311811;stroke-linecap:round"
         transform="rotate(-90)"
         aria-label="36&quot;"><path
           style="font-size:16.25px"
           d="m -375.33572,157.52066 1.50756,-0.71411 h 0.0794 v 0.71411 q 0,1.04736 0.57129,1.7218 0.69031,0.81726 1.84875,0.81726 1.13465,0 1.84876,-0.81726 0.56335,-0.6427 0.56335,-1.64245 0,-0.93628 -0.46814,-1.48377 -0.65063,-0.74585 -1.95984,-0.74585 -1.08703,0 -1.76147,0.34912 l 2.62634,-4.92737 h -4.15771 v -0.0793 l 0.6427,-1.36475 h 5.97473 l -2.72156,4.76075 q 1.39649,0.008 2.33277,0.83313 1.0791,0.95214 1.0791,2.64221 0,1.61865 -1.06323,2.75329 -1.08704,1.15052 -2.9358,1.15052 -1.84875,0 -2.93579,-1.15052 -1.07116,-1.13464 -1.07116,-2.81677 z m 18.67004,-5.06226 -1.45996,0.69825 h -0.0794 q 0,-1.0553 -0.57129,-1.72181 -0.71411,-0.81726 -1.68212,-0.81726 -1.15052,0 -1.85669,0.81726 -0.57129,0.65857 -0.57129,1.72181 v 1.47583 q 1.03149,-0.93628 2.42004,-0.93628 1.84876,0 2.93579,1.15051 1.07117,1.13464 1.07117,2.73743 0,1.61865 -1.07117,2.75329 -1.08703,1.15052 -2.93579,1.15052 -1.84875,0 -2.93579,-1.15052 -1.07117,-1.13464 -1.07117,-2.73742 v -4.44336 q 0,-1.68213 1.07117,-2.81678 1.08704,-1.15051 2.93579,-1.15051 1.75354,0 2.7771,1.07117 1.02356,1.06323 1.02356,2.19787 z m -3.80066,2.66602 q -1.13464,0 -1.84875,0.81726 -0.57129,0.65857 -0.57129,1.65833 0,0.97595 0.57129,1.64245 0.69824,0.81726 1.84875,0.81726 1.11878,0 1.84876,-0.81726 0.57128,-0.6427 0.57128,-1.64245 0,-0.99183 -0.57128,-1.65833 -0.69825,-0.81726 -1.84876,-0.81726 z"
           id="path6" /><path
           d="m -349.8566,148.08463 h 0.0855 v 4.13574 l -1.33301,0.63232 h -0.0855 v -4.13574 z m -2.40112,0 h 0.0854 v 4.13574 l -1.33301,0.63232 h -0.0854 v -4.13574 z"
           id="path7" /></g></g></g></svg>
