<?xml version="1.0" encoding="UTF-8" standalone="no"?>
<!-- Created with Inkscape (http://www.inkscape.org/) -->

<svg
   xmlns:dc="http://purl.org/dc/elements/1.1/"
   xmlns:cc="http://creativecommons.org/ns#"
   xmlns:rdf="http://www.w3.org/1999/02/22-rdf-syntax-ns#"
   xmlns:svg="http://www.w3.org/2000/svg"
   xmlns="http://www.w3.org/2000/svg"
   xmlns:sodipodi="http://sodipodi.sourceforge.net/DTD/sodipodi-0.dtd"
   xmlns:inkscape="http://www.inkscape.org/namespaces/inkscape"
   width="55.863846mm"
   height="69.896317mm"
   viewBox="0 0 197.94276 247.66411"
   id="svg2"
   version="1.1"
   inkscape:version="0.91 r13725"
   sodipodi:docname="Strukturzonen_MIKe.svg">
  <defs
     id="defs4" />
  <sodipodi:namedview
     id="base"
     pagecolor="#ffffff"
     bordercolor="#666666"
     borderopacity="1.0"
     inkscape:pageopacity="0.0"
     inkscape:pageshadow="2"
     inkscape:zoom="1.979899"
     inkscape:cx="113.12584"
     inkscape:cy="141.82955"
     inkscape:document-units="px"
     inkscape:current-layer="g4386"
     showgrid="false"
     fit-margin-top="0"
     fit-margin-left="0"
     fit-margin-right="0"
     fit-margin-bottom="0"
     inkscape:window-width="1280"
     inkscape:window-height="961"
     inkscape:window-x="1912"
     inkscape:window-y="-8"
     inkscape:window-maximized="1" />
  <metadata
     id="metadata7">
    <rdf:RDF>
      <cc:Work
         rdf:about="">
        <dc:format>image/svg+xml</dc:format>
        <dc:type
           rdf:resource="http://purl.org/dc/dcmitype/StillImage" />
        <dc:title></dc:title>
      </cc:Work>
    </rdf:RDF>
  </metadata>
  <g
     inkscape:label="Ebene 1"
     inkscape:groupmode="layer"
     id="layer1"
     transform="translate(-412.08031,-533.81793)">
    <g
       id="g4386">
      <g
         id="g4151">
        <path
           inkscape:connector-curvature="0"
           id="path4310"
           d="m 468.38904,777.57248 c 0,-1.25828 -0.90507,-1.79328 -3.03362,-1.79328 l -2.00883,0 0.21199,-1.81463 c 0.11661,-0.99807 0.67987,-3.62849 1.25176,-5.84539 0.98252,-3.80864 1.01147,-4.25787 0.5254,-8.15257 -0.85668,-6.86438 0.53872,-13.84591 3.31537,-16.58782 1.28801,-1.27185 1.43203,-1.62954 1.20343,-2.98882 -0.14282,-0.84924 -0.5341,-2.15612 -0.86953,-2.90421 -0.73577,-1.64077 -0.46076,-5.04779 0.72957,-9.03897 1.03827,-3.48119 1.03182,-4.9812 -0.0248,-5.72111 -1.87677,-1.31453 -2.38692,-6.35994 -0.87401,-8.64432 0.51364,-0.77562 0.84941,-2.00346 0.85113,-3.11257 0,-1.00741 0.38709,-2.5849 0.85676,-3.50553 0.46967,-0.92063 0.85395,-2.23096 0.85395,-2.91183 0,-1.5945 2.47705,-6.40638 3.71566,-7.21794 0.64486,-0.42253 1.29992,-1.75323 2.0219,-4.10735 0.58743,-1.91528 1.52741,-4.15481 2.08893,-4.97673 1.5804,-2.31346 2.48755,-5.9139 1.96596,-7.80288 -0.58854,-2.13163 -1.45111,-2.87149 -3.34778,-2.87149 -1.24706,0 -1.86234,0.28677 -2.74813,1.28092 -1.95277,2.19169 -4.97746,1.34568 -4.97746,-1.39221 0,-0.75446 -0.42313,-1.41278 -1.31726,-2.04946 -1.24258,-0.88478 -1.30497,-1.06196 -1.10066,-3.12464 0.41045,-4.14303 0.77918,-5.08033 2.81044,-7.14388 1.90114,-1.93136 1.99978,-2.15683 2.5308,-5.78481 0.93905,-6.4162 2.64622,-10.42746 4.96628,-11.66911 1.56033,-0.83506 4.03645,-0.26196 5.46296,1.26441 0.66433,0.71082 1.37934,1.29239 1.58895,1.29239 0.67368,0 1.6874,-1.82516 2.60224,-4.68523 0.49029,-1.53275 1.78714,-4.61213 2.8819,-6.84308 l 1.99052,-4.05626 1.92138,0.0189 c 1.05676,0.0104 2.99434,0.17263 4.30575,0.36059 2.1698,0.311 2.49263,0.24865 3.58718,-0.69287 1.59202,-1.36937 1.29334,-2.50136 -1.51325,-5.73548 -2.05097,-2.3634 -2.15002,-2.58868 -1.94009,-4.41196 0.51226,-4.44816 1.13052,-8.78205 1.35275,-9.4823 0.37378,-1.17763 -1.71486,-3.04351 -2.91739,-2.60624 -1.70969,0.62168 -11.19566,0.42082 -12.00819,-0.25428 -1.6735,-0.66579 -1.5934,-3.84746 -1.54112,-4.94151 0,-2.18613 -0.0759,-2.35927 -1.15236,-2.62944 -0.86822,-0.21791 -1.263,-0.0976 -1.60116,0.48811 -0.90301,1.56397 -1.8915,2.26288 -3.61152,2.55348 -1.9257,0.32535 -2.82705,1.39863 -2.37376,2.82672 0.39648,1.24923 -1.61,4.07755 -3.43314,4.83931 -0.82018,0.3427 -1.49125,0.90834 -1.49125,1.25698 0,0.34862 0.59384,1.58919 1.31965,2.75679 1.12247,1.80568 1.32648,2.56363 1.36512,5.07217 0.0496,3.22022 -0.6496,4.86139 -2.97511,6.98278 -1.28853,1.17545 -5.92578,3.98589 -7.29244,4.41965 -0.45486,0.14435 -1.43258,1.01607 -2.17279,1.93715 -1.20274,1.49665 -1.34578,1.97238 -1.34578,4.47505 0,2.67911 -0.0711,2.87147 -1.64214,4.44253 -2.67722,2.67719 -5.52313,4.45148 -6.676,4.16214 -0.55256,-0.13869 -1.06859,-0.10667 -1.14674,0.0711 -0.40276,0.91656 -4.84432,2.66405 -6.77112,2.66405 -1.8898,0 -2.24602,-0.17436 -4.15473,-2.0335 -1.14822,-1.11843 -2.4469,-2.84767 -2.88596,-3.84278 -0.94264,-2.13653 -1.5294,-2.23533 -4.45902,-0.75078 -1.14886,0.58217 -3.01583,1.2636 -4.14881,1.51428 -1.13299,0.25069 -3.26527,0.93508 -4.7384,1.52087 -3.33458,1.32598 -4.99796,1.10048 -6.98199,-0.94651 -1.35078,-1.39365 -1.43071,-1.64948 -1.50455,-4.81533 -0.0429,-1.83892 -0.39749,-4.28134 -0.788,-5.42762 -0.73761,-2.16507 -0.57547,-6.56737 0.24188,-6.56737 0.21794,0 0.39626,-0.28152 0.39626,-0.6256 0,-0.86365 2.31622,-3.42269 4.09038,-4.51918 1.52887,-0.94491 7.26121,-2.52697 9.18773,-2.53572 0.89007,-0.004 1.24874,-0.3426 1.81464,-1.71294 0.38792,-0.93934 1.01882,-2.46786 1.402,-3.3967 0.69324,-1.68041 2.541,-3.26839 5.06746,-4.35501 0.70453,-0.30301 3.49054,-1.73704 6.19115,-3.18676 l 4.91021,-2.63582 4.48323,-0.11048 c 3.97966,-0.0981 5.88777,-0.18787 7.54349,-0.35507 0.27412,-0.0277 0.83533,-0.93263 1.24719,-2.01102 0.41182,-1.07839 1.58054,-2.79247 2.59716,-3.80907 1.96383,-1.96382 2.14,-2.51648 1.35283,-4.24405 -0.5888,-1.29233 -2.12416,-1.45323 -3.24753,-0.34032 -1.25718,1.24543 -3.08745,2.29269 -3.52946,2.01951 -0.63401,-0.39185 -0.19251,-3.96573 0.59778,-4.83902 0.38342,-0.42365 0.69711,-0.95977 0.69711,-1.19139 0,-0.41869 11.46052,-12.21247 12.95938,-13.33619 0.54532,-0.40887 0.72884,-0.96899 0.60155,-1.83624 -0.14286,-0.97325 0.0818,-1.47087 1.02069,-2.26088 0.66211,-0.55713 1.59697,-2.06369 2.07745,-3.34793 0.66471,-1.7766 1.17404,-2.45941 2.12996,-2.85536 1.10988,-0.45973 1.46913,-0.39503 3.0822,0.55513 1.0042,0.59153 3.07477,2.00663 4.60121,3.14468 2.61411,1.94897 2.86094,2.28595 4.24929,5.80185 0.84809,2.14765 1.77374,3.82783 2.17987,3.95673 0.38822,0.12321 2.94327,0.31705 5.67783,0.43076 4.93963,0.20539 4.97186,0.20047 4.95683,-0.75637 -0.008,-0.52972 -0.28969,-1.44347 -0.6253,-2.03055 -1.28698,-2.25134 -0.65024,-4.7689 1.81464,-7.17481 0.52838,-0.51574 0.9607,-1.25698 0.9607,-1.64719 0,-0.39022 0.71151,-1.92585 1.58121,-3.41253 l 1.58117,-2.70303 1.13371,1.08614 c 1.2463,1.19403 1.84688,1.28334 4.61559,0.68635 2.23406,-0.48169 2.70971,-1.07347 2.4733,-3.0771 -0.0981,-0.83135 -0.048,-2.27239 0.11139,-3.20231 l 0.28975,-1.69076 0.72504,1.36646 c 0.39876,0.75155 0.72505,2.03598 0.72505,2.85428 0,1.94136 0.51489,3.10722 2.24746,5.08873 1.32516,1.51556 1.50415,1.59216 2.68179,1.14798 0.69405,-0.26176 1.88343,-1.07546 2.64314,-1.80822 0.75968,-0.73276 1.51974,-1.19383 1.68895,-1.02461 0.16925,0.16924 0.42138,1.98143 0.56032,4.02709 0.29696,4.37221 1.49155,6.92168 3.24321,6.92168 0.85941,0 1.02529,-0.21173 1.02529,-1.30899 0,-2.82768 2.22723,-4.51687 5.34009,-4.05007 2.68542,0.4027 10.49657,3.93207 11.79372,5.32883 0.61728,0.66465 1.5573,2.5285 2.08902,4.14189 0.73964,2.24439 1.39749,3.33459 2.80044,4.64132 1.00852,0.93935 3.38288,4.00409 5.2763,6.81054 2.80603,4.15914 3.44261,5.40258 3.44261,6.72485 0,1.75795 -0.5087,2.01767 -1.89628,0.96817 -1.25159,-0.94668 -2.34213,-0.76499 -2.81103,0.46836 -0.5856,1.54023 -0.5312,1.7996 0.44221,2.10855 1.79185,0.56871 2.76672,4.47456 1.94291,7.78424 -0.42484,1.70672 0.40862,2.18685 2.37928,1.37059 l 1.32268,-0.54787 -0.29201,-3.7325 c -0.26984,-3.44945 -0.22958,-3.75231 0.5309,-3.99367 1.19288,-0.37861 2.03064,0.0644 3.32114,1.75637 1.327,1.73974 9.15036,17.04103 9.15036,17.89663 0,0.31742 0.36895,1.39886 0.81992,2.4032 2.34542,5.2235 2.56279,6.12695 2.79037,11.59557 0.19628,4.71695 0.34735,5.57806 1.17495,6.69746 0.74289,1.00483 0.92674,1.76921 0.8443,3.51013 -0.0626,1.32101 0.27808,3.56594 0.83815,5.52336 0.9057,3.16526 0.91312,3.33147 0.18497,4.1361 -0.41729,0.46108 -0.65008,1.01403 -0.51737,1.2288 0.27629,0.44706 -1.98697,1.17761 -4.97789,1.60677 -2.45484,0.35224 -3.30119,-0.23758 -4.80513,-3.3488 -0.93392,-1.93191 -0.95065,-2.11262 -0.30058,-3.24529 0.65865,-1.14759 0.63751,-1.28625 -0.48813,-3.20701 -0.67747,-1.15608 -1.66131,-2.19026 -2.31954,-2.43832 -0.62867,-0.23692 -1.7862,-1.04343 -2.57231,-1.79224 -1.50653,-1.43514 -5.18884,-6.35503 -5.18884,-6.93275 0,-0.18653 -0.33399,-0.70819 -0.74222,-1.15924 -0.73678,-0.81414 -1.35628,-1.84345 -4.81508,-8.00012 -1.79483,-3.19476 -1.7985,-3.21043 -1.56246,-6.65384 0.20849,-3.04181 0.11477,-3.7144 -0.78935,-5.66585 -0.87261,-1.88344 -1.33131,-2.34472 -3.06978,-3.08711 -1.12409,-0.48004 -2.45353,-1.38335 -2.95424,-2.00736 -0.83844,-1.04492 -1.13724,-1.12784 -3.78149,-1.04947 -1.57913,0.0468 -3.25325,-0.11942 -3.72028,-0.36937 -0.92372,-0.49436 -8.35483,-0.11557 -9.30963,0.47453 -0.7534,0.46562 -0.66774,2.09142 0.36886,7.00227 l 0.8926,4.22836 -1.86081,1.74928 c -1.49488,1.40531 -1.95622,2.20217 -2.34613,4.05254 -0.40734,1.93282 -0.37941,2.46503 0.1736,3.30906 0.79306,1.21032 1.27922,1.23828 3.93257,0.22606 1.12418,-0.42885 3.52553,-1.13795 5.33633,-1.57577 l 3.2924,-0.79603 2.37565,2.32297 c 1.30663,1.27763 2.88113,3.04892 3.49892,3.9362 0.61779,0.88728 2.33154,2.8639 3.80836,4.39249 2.27637,2.35616 2.73101,3.08515 2.98647,4.78859 0.16572,1.10513 0.63086,2.49093 1.03367,3.07957 3.51097,5.13067 3.87053,5.92644 4.00161,8.85532 0.14739,3.29422 -0.52941,5.08122 -2.70877,7.15194 -1.33136,1.265 -1.33883,1.29616 -1.07108,4.48323 0.2304,2.74256 0.13515,3.50943 -0.65506,5.27202 -0.66621,1.48613 -1.27281,2.18399 -2.17035,2.49687 -1.82242,0.6353 -1.62379,1.98058 0.52462,3.55303 2.06814,1.5137 3.54048,3.68117 3.93275,5.78949 0.3832,2.0596 -0.65661,5.3306 -2.21755,6.97581 l -1.25701,1.32486 0.34982,3.84277 c 0.1924,2.11352 0.36348,5.192 0.38017,6.84105 0.0269,2.66297 0.17042,3.1682 1.28273,4.51762 0.77286,0.93763 1.57332,2.73225 2.0906,4.68726 0.46103,1.74236 1.34035,4.85836 1.954,6.92444 0.82589,2.7805 1.00377,3.96575 0.68474,4.5619 -0.72138,1.3479 -0.50337,2.07613 1.30752,4.36707 0.95625,1.20971 2.09748,2.88528 2.5361,3.72346 0.43859,0.8382 1.7541,2.43481 2.92329,3.54804 1.27059,1.20977 2.24315,2.55823 2.41748,3.35184 0.28817,1.31214 2.51548,5.00464 3.38519,5.61217 0.247,0.17254 1.62426,0.31664 3.06055,0.32024 2.58563,0.006 2.62624,0.0256 4.10728,1.92647 l 1.49583,1.91994 -0.54307,2.33615 c -1.33558,5.74543 -2.94788,7.04769 -6.64753,5.36914 -1.10425,-0.50101 -2.81018,-0.8559 -4.14076,-0.86143 -2.38128,-0.01 -3.68619,-0.52893 -6.88599,-2.73904 -1.07388,-0.74174 -3.68176,-1.99207 -5.79529,-2.77848 -2.11352,-0.78642 -5.80425,-2.34948 -8.20158,-3.47348 -3.73872,-1.75289 -4.39792,-2.21606 -4.63374,-3.25585 -1.77729,-7.83687 -2.80522,-11.24613 -3.39082,-11.24613 -0.27771,0 -2.0049,-1.00873 -3.83829,-2.24162 l -3.33339,-2.24161 -3.45871,0.11525 c -3.2626,0.1087 -3.53129,0.0482 -4.73959,-1.06744 -0.70451,-0.65048 -2.0157,-1.73172 -2.91376,-2.40276 l -1.63283,-1.22007 0.10593,-5.61152 c 0.0779,-4.12541 0.31668,-6.23345 0.90173,-7.95988 l 0.79583,-2.34837 -0.91739,-0.7472 c -0.50456,-0.41096 -1.47252,-0.74721 -2.15097,-0.74721 -0.7057,0 -1.23089,-0.22841 -1.22722,-0.53371 0.0106,-0.87385 1.0455,-3.58609 1.6433,-4.30638 0.30563,-0.36825 0.48564,-1.01503 0.40008,-1.43728 -0.13036,-0.64329 -0.51664,-0.74547 -2.38363,-0.63043 -1.40334,0.0865 -2.228,-0.0344 -2.228,-0.3267 0,-0.50493 2.24068,-4.67283 3.49154,-6.4946 0.42801,-0.62334 0.77821,-1.49942 0.77821,-1.94683 0,-0.44743 0.40755,-2.43522 0.90565,-4.41732 0.92061,-3.66332 2.31348,-6.58857 4.05396,-8.51405 0.53068,-0.58709 1.81729,-2.05536 2.85915,-3.26284 l 1.89422,-2.1954 -0.20327,-3.14178 c -0.20466,-3.16309 -1.30846,-7.58683 -2.72495,-10.92069 -1.03235,-2.42972 -2.24171,-2.71067 -5.1415,-1.1944 -2.01584,1.05405 -2.53953,1.13976 -6.14916,1.00648 -2.94707,-0.10882 -4.1464,-0.32756 -4.73887,-0.8643 -0.43624,-0.39523 -1.75644,-0.84638 -2.93374,-1.00256 -2.12382,-0.28174 -2.14611,-0.27234 -2.84835,1.20028 -0.38928,0.81633 -0.93875,2.65836 -1.22111,4.09339 -0.46801,2.37895 -0.43312,2.79549 0.39525,4.72118 1.10954,2.5791 1.12508,4.06476 0.083,7.93136 -1.02012,3.78523 -1.27699,4.43873 -2.29187,5.83098 -0.74844,1.02674 -0.78153,1.39433 -0.3491,3.87774 0.26277,1.50892 0.47779,5.13292 0.47779,8.05333 0,5.07548 0.0512,5.38488 1.16035,7.01011 0.97171,1.42384 1.15932,2.15148 1.15394,4.4756 -0.009,3.64114 -0.81676,9.22626 -1.60525,11.09086 -0.40221,0.95117 -0.55097,2.25416 -0.41434,3.62929 0.18416,1.85384 0.0469,2.39037 -1.00983,3.94861 -0.67267,0.9918 -1.88164,2.28918 -2.68661,2.88308 -1.26185,0.93096 -1.6006,1.59466 -2.4575,4.81485 -0.54661,2.05426 -1.11039,4.5543 -1.25279,5.55563 -0.20768,1.46 -0.4622,1.87163 -1.28511,2.07817 -0.99143,0.24883 -2.27722,2.08034 -2.27722,3.24371 0,0.31171 -0.3471,0.86392 -0.77125,1.22711 -0.66086,0.56584 -0.78307,1.45024 -0.85386,6.17928 -0.0455,3.03541 -0.19812,6.06602 -0.33923,6.73467 -0.41677,1.97427 -5.97842,9.96389 -7.13868,10.2551 -1.04515,0.26234 -1.8637,1.77032 -2.92836,5.39466 -0.5596,1.90507 -0.58291,1.92326 -2.7481,2.14124 -2.31872,0.23348 -3.38522,0.84067 -3.80617,2.16705 -0.36926,1.16339 -4.04401,1.20594 -4.04401,0.0466 z m 3.93917,-3.0726 c 0.76891,-0.46882 1.99893,-0.85311 2.73338,-0.85394 1.62134,-0.005 2.1262,-0.55526 2.65534,-2.91034 0.45443,-2.0225 2.34645,-4.77679 3.28135,-4.77679 0.33582,0 1.91118,-1.95975 3.50081,-4.35492 l 2.89031,-4.35488 0.21349,-6.48991 c 0.16708,-5.08004 0.36054,-6.66158 0.89038,-7.28016 0.37227,-0.43465 0.91462,-1.39214 1.20517,-2.12777 0.29061,-0.73564 1.0908,-1.87638 1.77823,-2.53499 0.68747,-0.65862 1.24992,-1.52235 1.24992,-1.9194 0,-0.39706 0.26686,-1.36984 0.59307,-2.16174 0.32621,-0.79189 0.73337,-2.49658 0.90476,-3.78817 0.26588,-2.00302 0.57107,-2.59568 2.07552,-4.03021 3.52835,-3.36438 4.092,-4.34006 3.82236,-6.61671 -0.17348,-1.46483 0.005,-2.76558 0.62424,-4.56091 0.49722,-1.44039 0.99852,-4.37924 1.17537,-6.89048 0.30005,-4.25964 0.27788,-4.42505 -0.81415,-6.07523 -0.96872,-1.46381 -1.1226,-2.14824 -1.1226,-4.99228 0,-1.81275 -0.2204,-5.92652 -0.48978,-9.14172 -0.46575,-5.55843 -0.44841,-5.90589 0.35242,-7.0674 1.81367,-2.63058 3.29842,-8.31217 2.70911,-10.36689 -0.22057,-0.76907 -0.57475,-1.61986 -0.78704,-1.89065 -0.81014,-1.03319 -0.90954,-2.87926 -0.29726,-5.51944 1.17456,-5.06457 2.53034,-7.14167 4.66163,-7.14167 1.10847,0 3.51878,0.78294 5.43734,1.76617 2.31878,1.18835 6.05143,1.07001 8.57195,-0.27176 2.77034,-1.47477 5.15879,-1.43667 6.69278,0.10674 1.67656,1.68691 3.74004,8.60907 4.0847,13.70233 l 0.26989,3.98867 -1.61947,1.82874 c -2.84898,3.21716 -4.5843,5.50223 -5.51656,7.26417 -0.9048,1.71007 -2.72097,8.20157 -2.72097,9.72546 0,0.44063 -0.48035,1.43092 -1.06745,2.20063 -1.2515,1.64079 -1.36435,2.7348 -0.32023,3.10507 2.12177,0.75247 3.06969,3.61312 1.60117,4.83191 -1.04614,0.86822 -0.76224,2.27603 0.61727,3.06087 1.62852,0.9265 1.99692,2.84339 1.09399,5.69211 -0.37215,1.17419 -0.79003,4.24841 -0.92858,6.8316 l -0.25188,4.69672 2.66676,2.24838 2.66672,2.24837 2.61855,-0.25982 c 3.00132,-0.29782 4.10134,0.033 7.64442,2.29942 1.35526,0.86689 3.08451,1.96691 3.84277,2.44448 0.99357,0.62576 1.4843,1.34136 1.75683,2.56185 1.28532,5.75643 2.46689,9.44783 3.22379,10.0714 1.03841,0.8555 12.45408,5.92579 13.34185,5.92579 0.35473,0 2.22376,1.05676 4.15343,2.34836 3.17558,2.12553 3.72788,2.34836 5.82086,2.34836 1.27183,0 3.08704,0.30993 4.03377,0.68875 2.01207,0.80508 2.74232,0.44004 3.69926,-1.84922 0.85062,-2.03503 0.71655,-3.97027 -0.35409,-5.10989 -0.77526,-0.82525 -1.3615,-0.98821 -3.55483,-0.98821 -2.17965,0 -2.77545,-0.16343 -3.50213,-0.96069 -1.38723,-1.52203 -2.98053,-4.28218 -3.29291,-5.70452 -0.16934,-0.77093 -1.14856,-2.11881 -2.3917,-3.29211 -1.15773,-1.09269 -2.47474,-2.70977 -2.92669,-3.5935 -0.45191,-0.88373 -1.63254,-2.52654 -2.62354,-3.6507 -1.77276,-2.01086 -1.79885,-2.08631 -1.61218,-4.66676 0.15743,-2.17653 -0.11285,-3.65696 -1.58821,-8.69969 -1.20911,-4.13268 -2.14167,-6.5091 -2.91488,-7.42801 -0.94865,-1.12743 -1.13694,-1.76622 -1.13694,-3.85704 0,-1.37821 -0.20982,-4.9608 -0.46622,-7.96131 l -0.46621,-5.45547 1.06782,-0.91853 c 2.17565,-1.87139 2.99531,-4.86125 1.9573,-7.13945 -0.25803,-0.56632 -1.603,-2.02773 -2.98883,-3.24758 -2.14555,-1.88859 -2.51966,-2.43337 -2.51966,-3.66895 0,-1.15538 0.3099,-1.69398 1.52105,-2.64341 2.22706,-1.7458 2.87653,-3.56334 2.53961,-7.1068 l -0.27818,-2.9256 1.66913,-1.98461 c 2.42747,-2.88629 2.7972,-3.7584 2.50306,-5.90429 -0.29407,-2.14542 -2.02173,-6.01698 -3.4471,-7.72473 -0.54533,-0.65336 -1.10766,-2.08143 -1.28058,-3.25228 -0.26396,-1.78729 -0.71767,-2.5348 -3.15531,-5.19855 -1.56589,-1.71109 -3.79396,-4.20024 -4.95137,-5.53143 -3.23838,-3.72471 -3.50421,-3.83839 -6.954,-2.97373 -1.59334,0.39936 -3.60982,1.08957 -4.4811,1.53378 -2.33205,1.18898 -3.61814,1.0289 -5.51715,-0.68674 -1.89445,-1.71149 -1.05929,-1.64204 -13.26628,-1.10325 -7.85108,0.34653 -8.00872,0.37215 -9.37722,1.52364 -1.37225,1.15468 -1.45009,1.16707 -5.52022,0.87851 l -4.12838,-0.29268 -0.8466,1.20479 c -1.13165,1.61044 -2.49533,4.70742 -3.992,9.06604 -1.49911,4.36567 -2.14914,5.16147 -4.21591,5.16147 -1.17802,0 -1.86344,-0.31478 -2.78904,-1.28091 -3.36067,-3.5078 -6.10659,0.0698 -7.53747,9.82041 -0.50404,3.43493 -0.63935,3.74361 -2.52662,5.76416 -1.1092,1.18755 -2.09559,2.70326 -2.22296,3.41579 -0.12587,0.70451 -0.36079,1.69585 -0.52198,2.20297 -0.22386,0.70426 0.0188,1.19994 1.02752,2.0987 0.72632,0.64717 1.32063,1.53521 1.32063,1.97344 0,1.23729 1.08866,1.3662 3.14224,0.37207 3.79768,-1.83842 7.59012,-0.005 8.18408,3.95492 0.40823,2.72231 0.0505,4.24602 -1.97963,8.43289 -0.95864,1.97707 -2.097,4.72613 -2.52969,6.10903 -0.43548,1.39179 -1.3548,3.10744 -2.05917,3.84276 -1.67379,1.74736 -3.4769,5.21295 -3.4769,6.68258 0,0.64389 -0.38009,2.00827 -0.8446,3.03198 -0.46451,1.02369 -0.84823,2.62981 -0.85276,3.56915 -0.005,0.93935 -0.42125,2.48783 -0.92611,3.4411 -1.18651,2.24025 -0.84284,4.4529 0.93803,6.03967 1.49821,1.33489 1.53322,1.96937 0.36489,6.61049 -1.52038,6.0396 -1.58715,6.85535 -0.76672,9.36672 1.22597,3.75293 1.06235,5.09552 -0.91159,7.47933 -2.74387,3.3136 -3.74534,8.32561 -2.95817,14.80462 0.53893,4.43554 0.47886,5.165 -0.81531,9.89966 -0.94502,3.45731 -0.67398,4.4832 1.18439,4.4832 0.6675,0 1.45283,0.2882 1.74517,0.64046 0.7101,0.85565 1.41359,0.8073 3.08523,-0.21186 z m 106.8406,-114.85012 c 1.79132,-0.68106 2.10554,-2.24545 1.03874,-5.1713 -0.66762,-1.83101 -0.83999,-2.98651 -0.63585,-4.26305 0.21302,-1.33204 0.0846,-2.07419 -0.53649,-3.1006 -0.63171,-1.04393 -0.88261,-2.55754 -1.10834,-6.68657 -0.22054,-4.03432 -0.53291,-5.96256 -1.27956,-7.89903 -2.93605,-7.61454 -3.8491,-9.74554 -4.56654,-10.65761 -0.43496,-0.55297 -0.79084,-1.28542 -0.79084,-1.62768 0,-0.34225 -0.38428,-1.11081 -0.85395,-1.70789 -0.46967,-0.59709 -0.85395,-1.29124 -0.85395,-1.54254 0,-0.2513 -0.52039,-1.51793 -1.15642,-2.81473 -1.37583,-2.80532 -2.37714,-3.07051 -3.29539,-0.87276 -1.15843,2.77249 -5.21204,4.18204 -6.84325,2.37959 -0.6475,-0.7155 -0.71057,-1.31124 -0.45024,-4.25223 l 0.30276,-3.42015 -1.59825,-1.46415 c -1.52045,-1.39295 -1.58685,-1.56488 -1.36478,-3.53502 0.18449,-1.63689 0.51045,-2.30213 1.55534,-3.17443 0.72705,-0.60698 1.32191,-1.37985 1.32191,-1.71751 0,-0.97589 -3.73513,-6.36189 -6.19339,-8.93082 -1.69753,-1.77395 -2.47164,-3.02721 -3.16465,-5.12369 -0.5046,-1.52644 -1.16936,-3.10734 -1.47729,-3.51312 -0.74277,-0.97882 -9.94236,-5.02638 -11.42431,-5.02638 -1.48719,0 -2.50489,1.02079 -2.50489,2.51246 0,0.72187 -0.4537,1.60523 -1.18369,2.30458 -1.06514,1.02048 -1.18068,1.41312 -1.15403,3.92146 0.0162,1.5331 0.22429,2.98205 0.46211,3.2199 0.292,0.29197 1.67255,0.0166 4.24959,-0.84761 2.70164,-0.90599 4.64647,-1.28158 6.655,-1.28522 2.71666,-0.005 2.89442,0.0593 4.16301,1.50412 0.7288,0.83009 1.32515,1.7287 1.32515,1.99688 0,0.26819 0.71429,1.52475 1.58733,2.79237 1.52511,2.21435 1.59401,2.47137 1.75798,6.55269 0.15952,3.97191 0.1011,4.35133 -0.89904,5.83902 -0.58829,0.87509 -1.63664,2.16748 -2.32966,2.872 -1.76572,1.79503 -2.69515,3.34166 -2.34012,3.89406 0.16618,0.25851 0.97461,0.81456 1.79654,1.23566 0.82192,0.42111 1.68655,1.02289 1.92138,1.33728 0.23484,0.31439 1.289,1.00538 2.34264,1.53554 1.13405,0.57063 2.44063,1.7204 3.20231,2.81799 1.22473,1.76486 1.28665,2.06273 1.28665,6.19113 l 0,4.33706 2.29589,4.05626 c 5.38987,9.52252 8.95814,14.27423 11.707,15.58974 2.46338,1.17893 4.18017,4.24817 4.05711,7.25341 -0.16562,4.04458 1.70658,5.7341 4.97648,4.49089 z m -134.07577,-8.95814 c 0.74572,-0.46088 2.44661,-1.12207 3.77975,-1.46931 2.52457,-0.65757 5.30717,-2.3354 7.13398,-4.30157 0.93729,-1.00881 1.05471,-1.47995 0.96312,-3.86445 -0.0587,-1.52753 0.089,-2.83502 0.33752,-2.98862 0.24304,-0.15019 0.92141,-1.03279 1.5076,-1.96134 0.58616,-0.92855 1.58712,-1.91284 2.22434,-2.18729 0.63717,-0.27444 2.64297,-1.34712 4.45727,-2.38372 5.47877,-3.13028 6.80961,-6.78287 4.17334,-11.45413 -1.65111,-2.92556 -1.70286,-4.94441 -0.15379,-5.99871 2.68357,-1.82642 3.56959,-2.99703 3.56959,-4.71611 0,-2.03556 1.21081,-3.32275 3.528,-3.75054 1.08349,-0.20002 1.89731,-0.70478 2.49921,-1.55009 0.49094,-0.68941 1.61521,-1.54261 2.49844,-1.89602 1.84112,-0.73666 2.96594,-2.70948 4.90189,-8.59751 0.63624,-1.93495 1.31978,-3.61884 1.519,-3.74197 0.19923,-0.12313 0.58252,-0.89133 0.85173,-1.70713 0.42582,-1.29022 0.34423,-1.85896 -0.62692,-4.37053 -2.43914,-6.3079 -2.62773,-6.5842 -6.12423,-8.97312 -4.10749,-2.80636 -5.00042,-2.87538 -5.65695,-0.43719 -0.26702,0.99164 -0.9469,2.35136 -1.51088,3.02158 -0.56395,0.67023 -1.02535,1.70066 -1.02535,2.28985 0,0.69398 -0.53999,1.54707 -1.53331,2.42234 -0.84327,0.7431 -3.73338,3.55345 -6.42242,6.24524 -5.25324,5.25865 -5.86633,6.4958 -3.3591,6.77869 1.62712,0.18358 2.24619,0.70586 3.01347,2.54222 1.07013,2.56115 0.81342,3.81688 -1.13738,5.56376 -0.96423,0.86344 -2.29354,2.63816 -2.95398,3.94381 -0.66045,1.30565 -1.45667,2.57669 -1.76935,2.82452 -0.31271,0.24783 -3.28138,0.56096 -6.59706,0.69583 l -6.02849,0.24523 -5.7133,2.86725 c -7.63754,3.83292 -8.65804,4.55064 -9.53263,6.70429 -1.38203,3.40324 -2.27802,4.78461 -3.28409,5.06322 -0.55502,0.15369 -2.45017,0.60426 -4.21144,1.00126 -4.5309,1.02128 -7.49171,2.87048 -8.84165,5.52216 -1.12081,2.20158 -1.13831,3.03645 -0.15725,7.50077 0.23222,1.05676 0.4306,3.03491 0.44082,4.3959 0.0154,2.04347 0.20116,2.65707 1.06662,3.52254 1.22363,1.22362 2.22354,1.3061 4.40961,0.3637 0.8731,-0.37639 2.69421,-0.95102 4.04693,-1.27699 1.35272,-0.32596 3.60487,-1.17084 5.00478,-1.87753 2.84569,-1.4365 4.73764,-1.63232 5.61291,-0.58097 0.32233,0.38713 1.17556,1.74234 1.89607,3.01157 1.24715,2.19689 3.83134,4.35153 5.25764,4.38375 0.32455,0.007 1.20023,-0.36376 1.94594,-0.82464 z m 77.22734,-18.21752 c 2.40929,-0.33023 3.51126,-1.30008 3.90173,-3.43393 0.18715,-1.02267 0.87282,-2.22766 1.83151,-3.21859 1.68339,-1.73996 1.81173,-2.63288 0.9384,-6.52859 -0.99536,-4.43993 -0.97969,-5.53972 0.0965,-6.7739 0.97039,-1.11282 1.16824,-1.15237 7.07941,-1.41473 l 6.08115,-0.2699 2.67184,-3.00251 c 5.33112,-5.99088 5.13386,-5.61674 4.92305,-9.33623 -0.16271,-2.87115 -0.38644,-3.61522 -1.7526,-5.82852 -0.86129,-1.39546 -1.56602,-2.72809 -1.56602,-2.9614 0,-0.23332 -0.57454,-1.03923 -1.27673,-1.79093 -1.21372,-1.29931 -1.38746,-1.35288 -3.52254,-1.08583 -1.2352,0.15449 -3.87898,0.77076 -5.87509,1.36948 -1.9961,0.59872 -4.50014,1.34546 -5.56455,1.65942 -3.01128,0.88826 -9.58669,0.3769 -11.51443,-0.89546 -0.82193,-0.54249 -2.26297,-1.18243 -3.20232,-1.42211 -1.94209,-0.4955 -10.8817,-1.28255 -14.09016,-1.2405 -1.17418,0.0154 -3.49855,-0.009 -5.16523,-0.0552 -4.28705,-0.11779 -5.05714,0.35154 -6.81316,4.15221 -0.80852,1.74994 -1.68096,3.97187 -1.93868,4.9376 -0.25776,0.96575 -0.93055,2.77032 -1.49505,4.01017 -1.09813,2.41181 -1.23797,3.36855 -0.63209,4.32563 0.20581,-0.0457 0.49139,3.17371 0.24461,3.94848 -0.17962,0.71575 0.005,1.38777 0.57736,2.09436 0.78781,0.97359 1.09813,1.03823 4.82976,1.00603 2.19333,-0.0189 4.87375,-0.185 5.95647,-0.36906 3.77301,-0.64135 5.57543,1.76854 4.72529,6.31766 -0.26985,1.44392 -0.6125,4.00057 -0.76147,5.68145 l -0.27087,3.05614 2.18619,2.70184 c 1.20237,1.48601 2.18616,2.93525 2.18616,3.22052 0,0.28528 0.33624,0.71452 0.7472,0.95388 0.82197,0.47876 13.31068,0.62483 16.46432,0.19258 z m 6.46251,-46.30901 c 0.82001,-3.23663 0.0903,-3.75332 -2.66056,-1.88402 -1.05882,0.71947 -2.15499,1.06744 -3.36264,1.06744 -1.05962,0 -2.06596,0.27418 -2.46275,0.67096 -0.82598,0.82598 -0.82602,0.82087 0.0158,1.66285 0.54593,0.54594 1.43464,0.66173 4.33033,0.56422 l 3.64342,-0.1227 0.49624,-1.95875 z m -10.22434,-1.4459 c 0.9516,-0.58611 2.37988,-1.05783 3.22546,-1.06525 1.76182,-0.0155 5.52752,-2.20554 5.52752,-3.21472 0,-0.36209 -0.48034,-1.41927 -1.06742,-2.34927 -0.5871,-0.93002 -1.06745,-2.25745 -1.06745,-2.94985 0,-1.9825 -0.93204,-2.60192 -3.46391,-2.30206 -2.11762,0.25081 -2.19948,0.21803 -3.78355,-1.51494 -1.44322,-1.57888 -1.77528,-1.74425 -3.05672,-1.52247 -0.79071,0.13686 -1.97112,0.45017 -2.62311,0.69626 -0.65204,0.24611 -2.04969,0.329 -3.10595,0.18423 -1.82249,-0.2498 -1.9634,-0.19278 -2.76244,1.11769 -0.4631,0.75951 -0.84268,1.68368 -0.84357,2.0537 0,0.37002 -0.50643,1.13858 -1.12345,1.7079 -2.04662,1.88835 -2.29965,3.13493 -1.19024,5.86453 1.16415,2.86428 1.91024,3.48857 4.20834,3.5212 0.95319,0.0136 2.50161,0.18358 3.44096,0.37787 3.41711,0.70681 5.86927,0.51383 7.68553,-0.60482 z"
           style="fill:#000000"
           sodipodi:nodetypes="csccsscscccccssscccscsscscssscsccscsccscccssccsssscssssssscssssssssscsssscsccsccscsccscscsccsccssccssccccsscccsssscsssscsscscsccssssccccscssscscssssssccscsccsscssscscsscsssscscscccccsccsscsssssscsscssscsccsscssssssssccsssscsscccsssscccsscccscscscscccscssccssccsscsscccsscscsssssscsssscsscscccssscsssssccsscscccsssscccsssscsssssssssssscsssssscccssssssssccsscssssssssscssssssssssccssssscsscccsscssccccsscsscsssssssscccssssscscccssccscssssscscssssssssssscscssssscscsscscssssscsscccccssssccsssccsscsccccssssssscsscssssc" />
        <text
           xml:space="preserve"
           style="font-style:normal;font-variant:normal;font-weight:normal;font-stretch:normal;font-size:10.69487667px;line-height:125%;font-family:'Nova Square';-inkscape-font-specification:'Nova Square, Normal';text-align:start;letter-spacing:0px;word-spacing:0px;writing-mode:lr-tb;text-anchor:start;fill:#000000;fill-opacity:1;stroke:none;stroke-width:1px;stroke-linecap:butt;stroke-linejoin:miter;stroke-opacity:1"
           x="411.297"
           y="578.32941"
           id="text4312"
           sodipodi:linespacing="125%"><tspan
             sodipodi:role="line"
             id="tspan4314"
             x="411.297"
             y="578.32941">rechter Arm</tspan></text>
        <text
           sodipodi:linespacing="125%"
           id="text4316"
           y="581.18658"
           x="558.33466"
           style="font-style:normal;font-variant:normal;font-weight:normal;font-stretch:normal;font-size:10.69487667px;line-height:125%;font-family:'Nova Square';-inkscape-font-specification:'Nova Square, Normal';text-align:start;letter-spacing:0px;word-spacing:0px;writing-mode:lr-tb;text-anchor:start;fill:#000000;fill-opacity:1;stroke:none;stroke-width:1px;stroke-linecap:butt;stroke-linejoin:miter;stroke-opacity:1"
           xml:space="preserve"><tspan
             y="581.18658"
             x="558.33466"
             id="tspan4318"
             sodipodi:role="line">linker Arm</tspan></text>
        <text
           sodipodi:linespacing="125%"
           id="text4316-5"
           y="770.88104"
           x="506.30402"
           style="font-style:normal;font-variant:normal;font-weight:normal;font-stretch:normal;font-size:10.69487667px;line-height:125%;font-family:'Nova Square';-inkscape-font-specification:'Nova Square, Normal';text-align:start;letter-spacing:0px;word-spacing:0px;writing-mode:lr-tb;text-anchor:start;fill:#000000;fill-opacity:1;stroke:none;stroke-width:1px;stroke-linecap:butt;stroke-linejoin:miter;stroke-opacity:1"
           xml:space="preserve"><tspan
             y="770.88104"
             x="506.30402"
             id="tspan4318-9"
             sodipodi:role="line">Beine</tspan></text>
        <text
           xml:space="preserve"
           style="font-style:normal;font-variant:normal;font-weight:normal;font-stretch:normal;font-size:10.69487667px;line-height:125%;font-family:'Nova Square';-inkscape-font-specification:'Nova Square, Normal';text-align:start;letter-spacing:0px;word-spacing:0px;writing-mode:lr-tb;text-anchor:start;fill:#000000;fill-opacity:1;stroke:none;stroke-width:1px;stroke-linecap:butt;stroke-linejoin:miter;stroke-opacity:1"
           x="497.74792"
           y="541.70331"
           id="text4338"
           sodipodi:linespacing="125%"><tspan
             sodipodi:role="line"
             id="tspan4340"
             x="497.74792"
             y="541.70331">Rumpf</tspan></text>
        <text
           sodipodi:linespacing="125%"
           id="text4342"
           y="553.19208"
           x="501.11618"
           style="font-style:normal;font-variant:normal;font-weight:normal;font-stretch:normal;font-size:10.69487667px;line-height:125%;font-family:'Nova Square';-inkscape-font-specification:'Nova Square, Normal';text-align:start;letter-spacing:0px;word-spacing:0px;writing-mode:lr-tb;text-anchor:start;fill:#000000;fill-opacity:1;stroke:none;stroke-width:1px;stroke-linecap:butt;stroke-linejoin:miter;stroke-opacity:1"
           xml:space="preserve"><tspan
             y="553.19208"
             x="501.11618"
             id="tspan4344"
             sodipodi:role="line">[1-6]</tspan></text>
        <text
           sodipodi:linespacing="125%"
           id="text4342-9"
           y="587.67712"
           x="427.32886"
           style="font-style:normal;font-variant:normal;font-weight:normal;font-stretch:normal;font-size:10.69487667px;line-height:125%;font-family:'Nova Square';-inkscape-font-specification:'Nova Square, Normal';text-align:start;letter-spacing:0px;word-spacing:0px;writing-mode:lr-tb;text-anchor:start;fill:#000000;fill-opacity:1;stroke:none;stroke-width:1px;stroke-linecap:butt;stroke-linejoin:miter;stroke-opacity:1"
           xml:space="preserve"><tspan
             y="587.67712"
             x="427.32886"
             id="tspan4344-7"
             sodipodi:role="line">[7-8]</tspan></text>
        <text
           sodipodi:linespacing="125%"
           id="text4342-9-9"
           y="590.53424"
           x="567.79187"
           style="font-style:normal;font-variant:normal;font-weight:normal;font-stretch:normal;font-size:10.69487667px;line-height:125%;font-family:'Nova Square';-inkscape-font-specification:'Nova Square, Normal';text-align:start;letter-spacing:0px;word-spacing:0px;writing-mode:lr-tb;text-anchor:start;fill:#000000;fill-opacity:1;stroke:none;stroke-width:1px;stroke-linecap:butt;stroke-linejoin:miter;stroke-opacity:1"
           xml:space="preserve"><tspan
             y="590.53424"
             x="567.79187"
             id="tspan4344-7-4"
             sodipodi:role="line">[9-10]</tspan></text>
        <text
           xml:space="preserve"
           style="font-style:normal;font-variant:normal;font-weight:normal;font-stretch:normal;font-size:10.69487667px;line-height:125%;font-family:'Nova Square';-inkscape-font-specification:'Nova Square, Normal';text-align:start;letter-spacing:0px;word-spacing:0px;writing-mode:lr-tb;text-anchor:start;fill:#000000;fill-opacity:1;stroke:none;stroke-width:1px;stroke-linecap:butt;stroke-linejoin:miter;stroke-opacity:1"
           x="503.69296"
           y="780.22876"
           id="text4382"
           sodipodi:linespacing="125%"><tspan
             sodipodi:role="line"
             id="tspan4384"
             x="503.69296"
             y="780.22876">[11-12]</tspan></text>
      </g>
    </g>
  </g>
</svg>
