<?xml version="1.0" encoding="UTF-8" standalone="no"?>
<svg
   width="55.863846mm"
   height="69.896317mm"
   viewBox="0 0 197.94276 247.66411"
   id="svg2"
   version="1.1"
   inkscape:version="1.3 (0e150ed6c4, 2023-07-21)"
   sodipodi:docname="trefferzonen.svg"
   xmlns:inkscape="http://www.inkscape.org/namespaces/inkscape"
   xmlns:sodipodi="http://sodipodi.sourceforge.net/DTD/sodipodi-0.dtd"
   xmlns="http://www.w3.org/2000/svg"
   xmlns:svg="http://www.w3.org/2000/svg"
   xmlns:rdf="http://www.w3.org/1999/02/22-rdf-syntax-ns#"
   xmlns:cc="http://creativecommons.org/ns#"
   xmlns:dc="http://purl.org/dc/elements/1.1/">
  <defs
     id="defs4" />
  <sodipodi:namedview
     id="base"
     pagecolor="#ffffff"
     bordercolor="#666666"
     borderopacity="1.0"
     inkscape:pageopacity="0.0"
     inkscape:pageshadow="2"
     inkscape:zoom="1.979899"
     inkscape:cx="83.842661"
     inkscape:cy="116.92516"
     inkscape:document-units="px"
     inkscape:current-layer="g1687"
     showgrid="false"
     fit-margin-top="0"
     fit-margin-left="0"
     fit-margin-right="0"
     fit-margin-bottom="0"
     inkscape:window-width="1920"
     inkscape:window-height="1009"
     inkscape:window-x="1912"
     inkscape:window-y="-8"
     inkscape:window-maximized="1"
     inkscape:document-rotation="0"
     inkscape:object-paths="false"
     inkscape:snap-intersection-paths="false"
     inkscape:snap-midpoints="false"
     inkscape:snap-text-baseline="true"
     showguides="true"
     inkscape:guide-bbox="true"
     inkscape:showpageshadow="2"
     inkscape:pagecheckerboard="0"
     inkscape:deskcolor="#d1d1d1" />
  <metadata
     id="metadata7">
    <rdf:RDF>
      <cc:Work
         rdf:about="">
        <dc:format>image/svg+xml</dc:format>
        <dc:type
           rdf:resource="http://purl.org/dc/dcmitype/StillImage" />
        <dc:title />
      </cc:Work>
    </rdf:RDF>
  </metadata>
  <g
     inkscape:label="Ebene 1"
     inkscape:groupmode="layer"
     id="layer1"
     transform="translate(-412.08031,-533.81793)">
    <g
       id="g4386">
      <g
         id="g1699"
         transform="translate(-4.9062909,-0.6166486)">
        <path
           style="font-size:12px;line-height:1.25;font-family:'Nova Round';-inkscape-font-specification:'Nova Round, Normal';letter-spacing:0px;word-spacing:0px;stroke-width:1px"
           d="m 498.51462,543.66589 v -8.78906 l 0.62109,-0.29297 h 2.2207 q 1.33594,0 2.16797,0.84961 0.79102,0.8086 0.79102,2.08008 0,1.27734 -0.79102,2.08008 -0.46875,0.47461 -1.0957,0.68554 l 2.02734,2.9004 -1.03125,0.48632 h -0.0586 l -2.25586,-3.22265 h -1.42383 v 2.69531 l -1.11328,0.52734 z m 1.17187,-4.27734 h 1.66992 q 0.76758,0 1.36524,-0.60352 0.42187,-0.42773 0.42187,-1.27148 0,-0.78516 -0.42187,-1.27148 -0.52149,-0.60352 -1.36524,-0.60352 h -1.66992 z m 11.21485,-2.63672 v 4.45313 q 0,0.96679 -0.72657,1.68164 -0.67968,0.66211 -1.70507,0.66211 -1.01368,0 -1.70508,-0.66211 -0.72656,-0.70313 -0.72656,-1.68164 v -3.92579 l 1.11328,-0.52734 h 0.0586 v 4.45313 q 0,0.67382 0.36328,0.99023 0.36914,0.31055 0.89649,0.31055 0.52734,0 0.89062,-0.31055 0.36914,-0.31641 0.36914,-0.99023 v -3.92579 l 1.11328,-0.52734 z m 1.75781,6.91406 v -4.45312 q 0,-0.9668 0.72656,-1.68164 0.67969,-0.66211 1.70508,-0.66211 0.93164,0 1.61133,0.67969 0.1289,0.1289 0.23437,0.30468 0.10547,-0.16992 0.23438,-0.29882 0.73242,-0.68555 1.61133,-0.68555 1.01367,0 1.70507,0.66211 0.72657,0.70312 0.72657,1.68164 v 3.92578 l -1.11328,0.52734 h -0.0586 v -4.45312 q 0,-0.67383 -0.36914,-0.98438 -0.36328,-0.3164 -0.89062,-0.3164 -0.52735,0 -0.89649,0.3164 -0.36328,0.31055 -0.36328,0.98438 v 3.92578 l -1.11328,0.52734 h -0.0586 v -4.45312 q 0,-0.67383 -0.36915,-0.98438 -0.36328,-0.3164 -0.89062,-0.3164 -0.52734,0 -0.89648,0.3164 -0.36329,0.31055 -0.36329,0.98438 v 3.92578 l -1.11328,0.52734 z m 14.29687,-4.45312 q 0,-0.67383 -0.36914,-0.98438 -0.36328,-0.3164 -0.89062,-0.3164 -0.52735,0 -0.89649,0.3164 -0.36328,0.31055 -0.36328,0.98438 v 1.99219 q 0,0.67382 0.36328,0.99023 0.36914,0.31055 0.89649,0.31055 0.52734,0 0.89062,-0.31055 0.36914,-0.31641 0.36914,-0.99023 z m 1.17188,0 v 1.99219 q 0,0.96679 -0.72656,1.68164 -0.67969,0.66211 -1.70508,0.66211 -0.77344,0 -1.25977,-0.49805 v 2.49023 l -1.11328,0.52735 h -0.0586 v -6.85547 q 0,-0.9668 0.72656,-1.68164 0.67969,-0.66211 1.70508,-0.66211 1.01367,0 1.70508,0.66211 0.72656,0.70312 0.72656,1.68164 z m 2.05078,4.45312 v -5.02734 h -0.87891 v -0.0586 l 0.47461,-1.00782 h 0.4043 v -0.76172 q 0,-0.96679 0.72656,-1.68164 0.67969,-0.66211 1.70508,-0.66211 h 0.79102 v 0.0586 l -0.46875,0.98437 h -0.32227 q -0.52734,0 -0.89648,0.31641 -0.36328,0.31641 -0.36328,0.98437 v 0.76172 h 1.93945 v 0.0586 l -0.47461,1.00781 h -1.46484 v 4.5 l -1.11329,0.52734 z"
           id="text4338"
           aria-label="Rumpf" />
        <path
           style="font-size:12px;line-height:1.25;font-family:'Nova Round';-inkscape-font-specification:'Nova Round, Normal';letter-spacing:0px;word-spacing:0px;stroke-width:1px"
           d="m 502.28806,557.73029 v -11.13282 l 1.11328,-0.52734 h 2.48437 v 0.0586 l -0.35742,0.76172 h -2.06836 v 10.01953 h 2.42578 v 0.0586 l -0.35742,0.76172 z m 5.4375,-1.17188 v -7.6875 l -1.42969,0.78516 v -1.20117 l 2.54297,-1.2129 h 0.0586 v 8.78907 l -1.11328,0.52734 z m 3.51562,-4.125 v -0.0586 l 0.47461,-1.00782 h 4.88086 v 0.0586 l -0.47461,1.00781 z m 13.17188,-2.66016 -1.07813,0.51563 h -0.0586 q 0,-0.7793 -0.42188,-1.27148 -0.52734,-0.60352 -1.24219,-0.60352 -0.84961,0 -1.37109,0.60352 -0.42187,0.48632 -0.42187,1.27148 v 1.08984 q 0.76171,-0.6914 1.7871,-0.6914 1.36524,0 2.16797,0.84961 0.79102,0.83789 0.79102,2.02148 0,1.19531 -0.79102,2.0332 -0.80273,0.84961 -2.16797,0.84961 -1.36523,0 -2.16796,-0.84961 -0.79102,-0.83789 -0.79102,-2.02148 v -3.28125 q 0,-1.24219 0.79102,-2.08008 0.80273,-0.84961 2.16796,-0.84961 1.29493,0 2.05079,0.79102 0.75586,0.78515 0.75586,1.62304 z m -2.80665,1.96875 q -0.83789,0 -1.36523,0.60352 -0.42187,0.48633 -0.42187,1.22461 0,0.7207 0.42187,1.21289 0.51563,0.60352 1.36523,0.60352 0.82618,0 1.36524,-0.60352 0.42187,-0.47461 0.42187,-1.21289 0,-0.73242 -0.42187,-1.22461 -0.51563,-0.60352 -1.36524,-0.60352 z m 4.42383,5.98829 v -0.0586 l 0.35742,-0.76172 h 2.06836 v -10.01953 h -2.42578 v -0.0586 l 0.35742,-0.76172 h 3.24024 v 11.13281 l -1.11328,0.52735 z"
           id="text4342"
           aria-label="[1-6]" />
      </g>
      <g
         id="g1721"
         transform="translate(4.4828979,-5.625)">
        <path
           style="font-size:12px;line-height:1.25;font-family:'Nova Round';-inkscape-font-specification:'Nova Round, Normal';letter-spacing:0px;word-spacing:0px;stroke-width:1px"
           d="m 428.50073,589.6546 v -11.13281 l 1.11328,-0.52734 h 2.48438 v 0.0586 l -0.35742,0.76172 h -2.06836 v 10.01953 h 2.42578 v 0.0586 l -0.35742,0.76172 z m 6.57422,-1.17187 h -0.0586 l -1.05469,-0.49805 2.68359,-7.51758 h -3.96093 v -0.0586 l 0.47461,-1.00781 h 5.07421 v 0.0586 z m 4.33008,-4.125 v -0.0586 l 0.47461,-1.00781 h 4.88086 v 0.0586 l -0.47461,1.00782 z m 7.17187,1.125 q 0,-1.14844 0.89063,-1.98047 0.1875,-0.17578 0.44531,-0.31055 -0.81445,-0.65625 -0.81445,-1.57617 0,-1.17188 0.72656,-1.76953 0.69141,-0.5625 1.70508,-0.5625 1.01367,0 1.70508,0.5625 0.72656,0.5918 0.72656,1.76953 0,0.91992 -0.81445,1.57617 0.25781,0.13477 0.44531,0.31055 0.89062,0.83203 0.89062,1.98047 0,1.19531 -0.78515,2.0332 -0.80274,0.84961 -2.16797,0.84961 -1.37109,0 -2.16797,-0.84961 -0.78516,-0.83789 -0.78516,-2.0332 z m 1.58789,1.22461 q 0.52735,0.60351 1.36524,0.60351 0.83789,0 1.36523,-0.60351 0.41602,-0.47461 0.41602,-1.21289 0,-0.69727 -0.33984,-1.09571 -0.46875,-0.55078 -1.44141,-0.55078 -0.97266,0 -1.44141,0.55078 -0.33984,0.39844 -0.33984,1.09571 0,0.73828 0.41601,1.21289 z m 2.2793,-6.14063 q -0.3457,-0.35742 -0.91406,-0.35742 -0.56836,0 -0.91406,0.35742 -0.34571,0.35742 -0.34571,0.96094 0,0.58008 0.26368,0.87305 0.35156,0.39257 0.99609,0.39257 0.64453,0 0.99609,-0.39257 0.26367,-0.29297 0.26367,-0.87305 0,-0.60352 -0.3457,-0.96094 z m 3.26953,9.08789 v -0.0586 l 0.35742,-0.76172 h 2.06836 v -10.01953 h -2.42578 v -0.0586 l 0.35742,-0.76171 h 3.24024 v 11.13281 l -1.11328,0.52734 z"
           id="text4342-9"
           aria-label="[7-8]" />
        <path
           style="font-size:12px;line-height:1.25;font-family:'Nova Round';-inkscape-font-specification:'Nova Round, Normal';letter-spacing:0px;word-spacing:0px;stroke-width:1px"
           d="m 407.59741,577.99255 v -8.78906 l 0.6211,-0.29297 h 2.2207 q 1.33594,0 2.16797,0.84961 0.79101,0.8086 0.79101,2.08008 0,1.27734 -0.79101,2.08008 -0.46875,0.47461 -1.09571,0.68554 l 2.02735,2.9004 -1.03125,0.48632 h -0.0586 l -2.25585,-3.22265 h -1.42383 v 2.69531 l -1.11328,0.52734 z m 1.17188,-4.27734 h 1.66992 q 0.76758,0 1.36523,-0.60352 0.42188,-0.42773 0.42188,-1.27148 0,-0.78516 -0.42188,-1.27148 -0.52148,-0.60352 -1.36523,-0.60352 h -1.66992 z m 11.09765,1.44727 v 0.36914 q 0,0.96679 -0.72656,1.68164 -0.67969,0.66211 -1.70508,0.66211 -1.01367,0 -1.70508,-0.66211 -0.72656,-0.70313 -0.72656,-1.68164 v -1.99219 q 0,-0.9668 0.72656,-1.68164 0.67969,-0.66211 1.70508,-0.66211 0.9961,0 1.70508,0.66211 0.72656,0.67969 0.72656,1.51172 v 0.0117 l -3.57422,2.80078 q 0.0879,0.19922 0.2461,0.33398 0.36914,0.31641 0.89648,0.31641 0.52735,0 0.89063,-0.31641 0.36914,-0.31641 0.36914,-0.82617 l 1.11328,-0.52734 z m -3.6914,-0.16407 2.44922,-1.98633 q -0.0937,-0.2871 -0.29297,-0.45703 -0.36914,-0.3164 -0.89649,-0.3164 -0.52734,0 -0.89648,0.3164 -0.36328,0.31055 -0.36328,0.98438 z m 10.3125,0.16407 v 0.36914 q 0,0.96679 -0.72657,1.68164 -0.67968,0.66211 -1.70507,0.66211 -1.01368,0 -1.70508,-0.66211 -0.72656,-0.70313 -0.72656,-1.68164 v -1.99219 q 0,-0.97266 0.72656,-1.68164 0.67969,-0.66211 1.70508,-0.66211 1.00195,0 1.70507,0.66211 0.72657,0.68554 0.72657,1.51172 v 0.0117 l -1.11328,0.52734 h -0.0586 v -0.36914 q 0,-0.67383 -0.36914,-0.98438 -0.36328,-0.3164 -0.89062,-0.3164 -0.52735,0 -0.89649,0.3164 -0.36328,0.31055 -0.36328,0.98438 v 1.99219 q 0,0.67382 0.36328,0.99023 0.36914,0.31055 0.89649,0.31055 0.52734,0 0.89062,-0.31641 0.36914,-0.31641 0.36914,-0.82617 l 1.11328,-0.52734 z m 2.05078,2.83007 v -8.78906 l 1.11328,-0.52734 h 0.0586 v 3.01758 q 0.43946,-0.49805 1.25977,-0.49805 1.01367,0 1.70508,0.66211 0.72656,0.70312 0.72656,1.68164 v 3.92578 l -1.11328,0.52734 h -0.0586 v -4.45312 q 0,-0.67383 -0.36914,-0.98438 -0.36328,-0.3164 -0.89062,-0.3164 -0.52734,0 -0.89649,0.3164 -0.36328,0.31055 -0.36328,0.98438 v 3.92578 l -1.11328,0.52734 z m 7.39453,0 v -5.61328 h -1.50586 v -0.0586 l 0.47461,-1.00781 h 1.03125 v -2.10938 l 1.11328,-0.52734 h 0.0586 v 2.63672 h 1.50586 v 0.0586 l -0.47461,1.00781 h -1.03125 v 5.08594 l -1.11328,0.52734 z m 8.56641,-2.83007 v 0.36914 q 0,0.96679 -0.72657,1.68164 -0.67968,0.66211 -1.70507,0.66211 -1.01368,0 -1.70508,-0.66211 -0.72657,-0.70313 -0.72657,-1.68164 v -1.99219 q 0,-0.9668 0.72657,-1.68164 0.67968,-0.66211 1.70508,-0.66211 0.99609,0 1.70507,0.66211 0.72657,0.67969 0.72657,1.51172 v 0.0117 l -3.57422,2.80078 q 0.0879,0.19922 0.24609,0.33398 0.36914,0.31641 0.89649,0.31641 0.52734,0 0.89062,-0.31641 0.36914,-0.31641 0.36914,-0.82617 l 1.11328,-0.52734 z m -3.69141,-0.16407 2.44922,-1.98633 q -0.0937,-0.2871 -0.29297,-0.45703 -0.36914,-0.3164 -0.89648,-0.3164 -0.52735,0 -0.89649,0.3164 -0.36328,0.31055 -0.36328,0.98438 z m 16.10742,-0.006 q 0,1.19532 -0.78515,2.03321 -0.80274,0.84961 -2.16797,0.84961 -1.36524,0 -2.16797,-0.84961 -0.79102,-0.83789 -0.79102,-1.96289 l 1.11328,-0.52735 h 0.0586 v 0.48047 q 0,0.71484 0.42187,1.20117 0.52149,0.60352 1.36524,0.60352 0.83789,0 1.36523,-0.60352 0.41602,-0.47461 0.41602,-1.21289 0,-0.69726 -0.33985,-1.0957 -0.46875,-0.55078 -1.4414,-0.55078 -1.06641,0 -1.84571,-0.70313 -0.58593,-0.52734 -0.58593,-1.52929 0,-1.17774 0.72656,-1.76954 0.6914,-0.5625 1.70508,-0.5625 1.01367,0 1.70507,0.5625 0.72657,0.5918 0.72657,1.62305 l -1.11328,0.52735 h -0.0586 v -0.46875 q 0,-0.66797 -0.38086,-0.9961 -0.36914,-0.32226 -0.8789,-0.32226 -0.56836,0 -0.91407,0.35742 -0.3457,0.35742 -0.3457,0.96094 0,0.58007 0.26367,0.87304 0.35157,0.39258 0.9961,0.39258 1.41797,0 2.16797,0.66797 0.78515,0.69726 0.78515,2.02148 z m 6.68555,0.16993 v 0.36914 q 0,0.96679 -0.72656,1.68164 -0.67969,0.66211 -1.70508,0.66211 -1.01367,0 -1.70508,-0.66211 -0.72656,-0.70313 -0.72656,-1.68164 v -1.99219 q 0,-0.9668 0.72656,-1.68164 0.67969,-0.66211 1.70508,-0.66211 0.99609,0 1.70508,0.66211 0.72656,0.67969 0.72656,1.51172 v 0.0117 l -3.57422,2.80078 q 0.0879,0.19922 0.24609,0.33398 0.36914,0.31641 0.89649,0.31641 0.52734,0 0.89062,-0.31641 0.36914,-0.31641 0.36914,-0.82617 l 1.11328,-0.52734 z m -3.69141,-0.16407 2.44922,-1.98633 q -0.0937,-0.2871 -0.29297,-0.45703 -0.36914,-0.3164 -0.89648,-0.3164 -0.52735,0 -0.89649,0.3164 -0.36328,0.31055 -0.36328,0.98438 z m 5.83008,-4.98047 q -0.20508,-0.21093 -0.20508,-0.5039 0,-0.29883 0.20508,-0.50977 0.20508,-0.21094 0.49805,-0.21094 0.29297,0 0.49804,0.21094 0.20508,0.21094 0.20508,0.50977 0,0.29297 -0.20508,0.5039 -0.20507,0.21094 -0.49804,0.21094 -0.29297,0 -0.49805,-0.21094 z m -0.0879,7.97461 v -6.38672 l 1.11328,-0.52734 h 0.0586 v 6.38672 l -1.11328,0.52734 z m 3.99609,0 v -5.61328 h -1.50586 v -0.0586 l 0.47461,-1.00781 h 1.03125 v -2.10938 l 1.11328,-0.52734 h 0.0586 v 2.63672 h 1.50586 v 0.0586 l -0.47461,1.00781 h -1.03125 v 5.08594 l -1.11328,0.52734 z m 8.56641,-2.83007 v 0.36914 q 0,0.96679 -0.72656,1.68164 -0.67969,0.66211 -1.70508,0.66211 -1.01367,0 -1.70508,-0.66211 -0.72656,-0.70313 -0.72656,-1.68164 v -1.99219 q 0,-0.9668 0.72656,-1.68164 0.67969,-0.66211 1.70508,-0.66211 0.99609,0 1.70508,0.66211 0.72656,0.67969 0.72656,1.51172 v 0.0117 l -3.57422,2.80078 q 0.0879,0.19922 0.24609,0.33398 0.36915,0.31641 0.89649,0.31641 0.52734,0 0.89062,-0.31641 0.36914,-0.31641 0.36914,-0.82617 l 1.11329,-0.52734 z m -3.69141,-0.16407 2.44922,-1.98633 q -0.0937,-0.2871 -0.29297,-0.45703 -0.36914,-0.3164 -0.89648,-0.3164 -0.52734,0 -0.89649,0.3164 -0.36328,0.31055 -0.36328,0.98438 z"
           id="text4312"
           aria-label="Rechte Seite" />
      </g>
      <g
         id="g1693"
         transform="translate(-7.3098154,-8.4821777)">
        <path
           style="font-size:12px;line-height:1.25;font-family:'Nova Round';-inkscape-font-specification:'Nova Round, Normal';letter-spacing:0px;word-spacing:0px;stroke-width:1px"
           d="m 556.19617,580.61536 v -8.55469 l 1.11328,-0.52734 h 0.0586 v 8.01562 h 4.01367 v 0.0586 l -0.47461,1.00782 z m 5.88867,-7.74024 q -0.20508,-0.21094 -0.20508,-0.5039 0,-0.29883 0.20508,-0.50977 0.20508,-0.21094 0.49805,-0.21094 0.29296,0 0.49804,0.21094 0.20508,0.21094 0.20508,0.50977 0,0.29296 -0.20508,0.5039 -0.20508,0.21094 -0.49804,0.21094 -0.29297,0 -0.49805,-0.21094 z m -0.0879,7.97461 v -6.38672 l 1.11328,-0.52734 h 0.0586 v 6.38672 l -1.11328,0.52734 z m 3.22265,0 v -4.45312 q 0,-0.9668 0.72657,-1.68164 0.67968,-0.66211 1.70508,-0.66211 1.01367,0 1.70507,0.66211 0.72657,0.70312 0.72657,1.68164 v 3.92578 l -1.11329,0.52734 h -0.0586 v -4.45312 q 0,-0.67383 -0.36914,-0.98438 -0.36328,-0.3164 -0.89062,-0.3164 -0.52735,0 -0.89649,0.3164 -0.36328,0.31055 -0.36328,0.98438 v 3.92578 l -1.11328,0.52734 z m 6.91407,0 v -8.78906 l 1.11328,-0.52734 h 0.0586 v 4.88085 l 2.44922,-2.47851 h 0.0586 l 1.03125,0.48633 -1.94531,1.78711 q 0.83203,0.11132 1.3711,0.54492 0.72656,0.59765 0.72656,1.68164 v 1.88672 l -1.11328,0.52734 h -0.0586 v -2.41406 q 0,-0.67383 -0.36914,-0.98438 -0.36328,-0.3164 -0.89062,-0.3164 -0.52735,0 -0.89649,0.3164 -0.36328,0.31641 -0.36328,0.98438 v 1.88672 l -1.11328,0.52734 z m 11.48437,-2.83008 v 0.36914 q 0,0.9668 -0.72656,1.68164 -0.67969,0.66211 -1.70508,0.66211 -1.01367,0 -1.70508,-0.66211 -0.72656,-0.70312 -0.72656,-1.68164 v -1.99218 q 0,-0.9668 0.72656,-1.68164 0.67969,-0.66211 1.70508,-0.66211 0.9961,0 1.70508,0.66211 0.72656,0.67968 0.72656,1.51171 v 0.0117 l -3.57422,2.80078 q 0.0879,0.19922 0.2461,0.33399 0.36914,0.31641 0.89648,0.31641 0.52735,0 0.89063,-0.31641 0.36914,-0.31641 0.36914,-0.82617 l 1.11328,-0.52735 z m -3.6914,-0.16406 2.44921,-1.98633 q -0.0937,-0.28711 -0.29296,-0.45703 -0.36914,-0.3164 -0.89649,-0.3164 -0.52734,0 -0.89648,0.3164 -0.36328,0.31055 -0.36328,0.98438 z m 16.10742,-0.006 q 0,1.19531 -0.78516,2.0332 -0.80273,0.84961 -2.16797,0.84961 -1.36523,0 -2.16797,-0.84961 -0.79101,-0.83789 -0.79101,-1.96289 l 1.11328,-0.52734 h 0.0586 v 0.48047 q 0,0.71484 0.42188,1.20117 0.52148,0.60352 1.36523,0.60352 0.83789,0 1.36524,-0.60352 0.41601,-0.47461 0.41601,-1.21289 0,-0.69727 -0.33984,-1.0957 -0.46875,-0.55078 -1.44141,-0.55078 -1.0664,0 -1.8457,-0.70313 -0.58594,-0.52734 -0.58594,-1.5293 0,-1.17773 0.72656,-1.76953 0.69141,-0.5625 1.70508,-0.5625 1.01367,0 1.70508,0.5625 0.72656,0.5918 0.72656,1.62305 l -1.11328,0.52734 h -0.0586 v -0.46875 q 0,-0.66797 -0.38086,-0.99609 -0.36914,-0.32227 -0.87891,-0.32227 -0.56836,0 -0.91406,0.35743 -0.3457,0.35742 -0.3457,0.96093 0,0.58008 0.26367,0.87305 0.35156,0.39258 0.99609,0.39258 1.41797,0 2.16797,0.66797 0.78516,0.69726 0.78516,2.02148 z m 6.68554,0.16992 v 0.36914 q 0,0.9668 -0.72656,1.68164 -0.67969,0.66211 -1.70508,0.66211 -1.01367,0 -1.70507,-0.66211 -0.72657,-0.70312 -0.72657,-1.68164 v -1.99218 q 0,-0.9668 0.72657,-1.68164 0.67968,-0.66211 1.70507,-0.66211 0.9961,0 1.70508,0.66211 0.72656,0.67968 0.72656,1.51171 v 0.0117 l -3.57421,2.80078 q 0.0879,0.19922 0.24609,0.33399 0.36914,0.31641 0.89648,0.31641 0.52735,0 0.89063,-0.31641 0.36914,-0.31641 0.36914,-0.82617 l 1.11328,-0.52735 z m -3.6914,-0.16406 2.44922,-1.98633 q -0.0937,-0.28711 -0.29297,-0.45703 -0.36914,-0.3164 -0.89649,-0.3164 -0.52734,0 -0.89648,0.3164 -0.36328,0.31055 -0.36328,0.98438 z m 5.83008,-4.98047 q -0.20508,-0.21094 -0.20508,-0.5039 0,-0.29883 0.20508,-0.50977 0.20507,-0.21094 0.49804,-0.21094 0.29297,0 0.49805,0.21094 0.20508,0.21094 0.20508,0.50977 0,0.29296 -0.20508,0.5039 -0.20508,0.21094 -0.49805,0.21094 -0.29297,0 -0.49804,-0.21094 z m -0.0879,7.97461 v -6.38672 l 1.11328,-0.52734 h 0.0586 v 6.38672 l -1.11328,0.52734 z m 3.99609,0 v -5.61328 h -1.50586 v -0.0586 l 0.47461,-1.00782 h 1.03125 v -2.10937 l 1.11328,-0.52734 h 0.0586 v 2.63671 h 1.50586 v 0.0586 l -0.47461,1.00781 h -1.03125 v 5.08594 l -1.11328,0.52734 z m 8.56641,-2.83008 v 0.36914 q 0,0.9668 -0.72657,1.68164 -0.67968,0.66211 -1.70507,0.66211 -1.01368,0 -1.70508,-0.66211 -0.72657,-0.70312 -0.72657,-1.68164 v -1.99218 q 0,-0.9668 0.72657,-1.68164 0.67968,-0.66211 1.70508,-0.66211 0.99609,0 1.70507,0.66211 0.72657,0.67968 0.72657,1.51171 v 0.0117 l -3.57422,2.80078 q 0.0879,0.19922 0.24609,0.33399 0.36914,0.31641 0.89649,0.31641 0.52734,0 0.89062,-0.31641 0.36914,-0.31641 0.36914,-0.82617 l 1.11328,-0.52735 z m -3.69141,-0.16406 2.44922,-1.98633 q -0.0937,-0.28711 -0.29297,-0.45703 -0.36914,-0.3164 -0.89648,-0.3164 -0.52735,0 -0.89649,0.3164 -0.36328,0.31055 -0.36328,0.98438 z"
           id="text4316"
           aria-label="Linke Seite" />
        <path
           style="font-size:12px;line-height:1.25;font-family:'Nova Round';-inkscape-font-specification:'Nova Round, Normal';letter-spacing:0px;word-spacing:0px;stroke-width:1px"
           d="m 568.96375,592.51172 v -11.13281 l 1.11328,-0.52735 h 2.48437 v 0.0586 l -0.35742,0.76171 h -2.06836 v 10.01954 h 2.42578 v 0.0586 l -0.35742,0.76172 z m 5.09765,-3.70313 1.07813,-0.51562 h 0.0586 q 0,0.7793 0.42188,1.27148 0.52734,0.60352 1.35937,0.60352 0.84961,0 1.37109,-0.60352 0.42188,-0.48633 0.42188,-1.27148 v -1.08985 q -0.73828,0.69141 -1.78711,0.69141 -1.36523,0 -2.16797,-0.84961 -0.79101,-0.83789 -0.79101,-2.02148 0,-1.19532 0.79101,-2.03321 0.80274,-0.84961 2.16797,-0.84961 1.36523,0 2.16797,0.84961 0.79101,0.83789 0.79101,2.02149 v 3.28125 q 0,1.24219 -0.79101,2.08008 -0.80274,0.84961 -2.16797,0.84961 -1.41211,0 -2.16797,-0.78516 -0.75586,-0.79102 -0.75586,-1.62891 z m 2.92383,-1.96875 q 0.83789,0 1.36523,-0.60351 0.42188,-0.48633 0.42188,-1.22461 0,-0.7207 -0.42188,-1.21289 -0.51562,-0.60352 -1.36523,-0.60352 -0.82617,0 -1.36523,0.60352 -0.42188,0.47461 -0.42188,1.21289 0,0.73242 0.42188,1.22461 0.51562,0.60351 1.36523,0.60351 z m 5.00977,0.375 v -0.0586 l 0.4746,-1.00781 h 4.88086 v 0.0586 l -0.47461,1.00781 z m 7.78125,4.125 v -7.6875 l -1.42969,0.78516 v -1.20117 l 2.54297,-1.21289 h 0.0586 v 8.78906 l -1.11328,0.52734 z m 4.98046,-3.04687 q 0,0.78515 0.42188,1.27148 0.52148,0.60352 1.36523,0.60352 0.84375,0 1.36524,-0.60352 0.42187,-0.48633 0.42187,-1.27148 v -3.22266 q 0,-0.78515 -0.42187,-1.27148 -0.52149,-0.60352 -1.36524,-0.60352 -0.84375,0 -1.36523,0.60352 -0.42188,0.48633 -0.42188,1.27148 z m -1.17187,0 v -3.22266 q 0,-1.27148 0.79101,-2.08008 0.83204,-0.84961 2.16797,-0.84961 1.33594,0 2.16797,0.84961 0.79102,0.80274 0.79102,2.08008 v 3.22266 q 0,1.27148 -0.79102,2.08008 -0.83203,0.84961 -2.16797,0.84961 -1.33593,0 -2.16797,-0.84961 -0.79101,-0.8086 -0.79101,-2.08008 z m 7.38281,4.21875 v -0.0586 l 0.35742,-0.76171 h 2.06836 v -10.01954 h -2.42578 v -0.0586 l 0.35742,-0.76172 h 3.24024 v 11.13281 l -1.11328,0.52735 z"
           id="text4342-9-9"
           aria-label="[9-10]" />
      </g>
      <g
         id="g1687"
         transform="translate(-11.441081,-0.9158379)">
        <path
           style="font-size:12px;line-height:1.25;font-family:'Nova Round';-inkscape-font-specification:'Nova Round, Normal';letter-spacing:0px;word-spacing:0px;stroke-width:1px"
           d="m 495.56894,769.25513 h 1.66992 q 0.88477,0 1.40625,-0.55664 0.38086,-0.4043 0.38086,-1.06641 0,-0.68555 -0.4043,-1.1543 -0.43945,-0.53906 -1.38281,-0.53906 h -1.66992 z m 0,-4.3711 h 1.66992 q 0.58594,0 0.94336,-0.38086 0.31641,-0.33984 0.31641,-0.88476 0,-0.44531 -0.38086,-0.80274 -0.33985,-0.29882 -0.87891,-0.29882 h -1.66992 z m -1.17188,5.42578 v -8.55468 l 0.6211,-0.29297 h 2.2207 q 0.99024,0 1.64649,0.53906 0.77929,0.63281 0.77929,1.62305 0,1.00781 -0.89062,1.67578 0.28711,0.12305 0.56836,0.36914 0.85547,0.7793 0.85547,1.93359 0,1.16016 -0.75,1.9043 -0.80274,0.80273 -2.20899,0.80273 z m 12.59766,-2.5957 v 0.36914 q 0,0.9668 -0.72656,1.68164 -0.67969,0.66211 -1.70508,0.66211 -1.01367,0 -1.70508,-0.66211 -0.72656,-0.70312 -0.72656,-1.68164 v -1.99219 q 0,-0.96679 0.72656,-1.68164 0.67969,-0.66211 1.70508,-0.66211 0.99609,0 1.70508,0.66211 0.72656,0.67969 0.72656,1.51172 v 0.0117 l -3.57422,2.80078 q 0.0879,0.19922 0.2461,0.33399 0.36914,0.3164 0.89648,0.3164 0.52734,0 0.89062,-0.3164 0.36915,-0.31641 0.36915,-0.82617 l 1.11328,-0.52735 z m -3.69141,-0.16406 2.44922,-1.98633 q -0.0937,-0.28711 -0.29297,-0.45703 -0.36914,-0.31641 -0.89648,-0.31641 -0.52734,0 -0.89648,0.31641 -0.36329,0.31055 -0.36329,0.98437 z m 14.00391,-3.91992 v 4.45312 q 0,0.9668 -0.72656,1.68164 -0.67969,0.66211 -1.70508,0.66211 -0.93164,0 -1.61133,-0.67969 -0.1289,-0.1289 -0.23437,-0.30468 -0.10547,0.16992 -0.23438,0.29883 -0.73242,0.68554 -1.61133,0.68554 -1.01367,0 -1.70507,-0.66211 -0.72657,-0.70312 -0.72657,-1.68164 v -3.92578 l 1.11328,-0.52734 h 0.0586 v 4.45312 q 0,0.67383 0.36328,0.99024 0.36914,0.31054 0.89648,0.31054 0.52735,0 0.89063,-0.31054 0.36914,-0.31641 0.36914,-0.99024 v -3.92578 l 1.11328,-0.52734 h 0.0586 v 4.45312 q 0,0.67383 0.36329,0.99024 0.36914,0.31054 0.89648,0.31054 0.52734,0 0.89062,-0.31054 0.36915,-0.31641 0.36915,-0.99024 v -3.92578 l 1.11328,-0.52734 z m 6.62109,4.08398 v 0.36914 q 0,0.9668 -0.72656,1.68164 -0.67969,0.66211 -1.70508,0.66211 -1.01367,0 -1.70507,-0.66211 -0.72657,-0.70312 -0.72657,-1.68164 v -1.99219 q 0,-0.96679 0.72657,-1.68164 0.67968,-0.66211 1.70507,-0.66211 0.9961,0 1.70508,0.66211 0.72656,0.67969 0.72656,1.51172 v 0.0117 l -3.57421,2.80078 q 0.0879,0.19922 0.24609,0.33399 0.36914,0.3164 0.89648,0.3164 0.52735,0 0.89063,-0.3164 0.36914,-0.31641 0.36914,-0.82617 l 1.11328,-0.52735 z m -3.6914,-0.16406 2.44922,-1.98633 q -0.0937,-0.28711 -0.29297,-0.45703 -0.36914,-0.31641 -0.89649,-0.31641 -0.52734,0 -0.89648,0.31641 -0.36328,0.31055 -0.36328,0.98437 z m 6.62109,0.5332 q 0,0.67383 0.36328,0.99024 0.36914,0.31054 0.89649,0.31054 0.52734,0 0.89062,-0.31054 0.36914,-0.31641 0.36914,-0.99024 v -1.99219 q 0,-0.67382 -0.36914,-0.98437 -0.36328,-0.31641 -0.89062,-0.31641 -0.52735,0 -0.89649,0.31641 -0.36328,0.31055 -0.36328,0.98437 z m -1.17187,0 v -1.99219 q 0,-0.96679 0.72656,-1.68164 0.67969,-0.66211 1.70508,-0.66211 1.02539,0 1.70508,0.66211 0.72656,0.70899 0.72656,1.68164 v 4.39454 q 0,0.96679 -0.72656,1.68164 -0.67969,0.66211 -1.70508,0.66211 h -1.80469 v -0.0586 l 0.46875,-0.98437 h 1.33594 q 0.52734,0 0.89062,-0.31641 0.36914,-0.31055 0.36914,-0.98437 v -0.55664 q -0.44531,0.49804 -1.25976,0.49804 -1.01367,0 -1.70508,-0.66211 -0.72656,-0.70312 -0.72656,-1.68164 z m 11.66015,-4.45312 v 4.45312 q 0,0.9668 -0.72656,1.68164 -0.67969,0.66211 -1.70508,0.66211 -1.01367,0 -1.70508,-0.66211 -0.72656,-0.70312 -0.72656,-1.68164 v -3.92578 l 1.11328,-0.52734 h 0.0586 v 4.45312 q 0,0.67383 0.36328,0.99024 0.36914,0.31054 0.89648,0.31054 0.52735,0 0.89063,-0.31054 0.36914,-0.31641 0.36914,-0.99024 v -3.92578 l 1.11328,-0.52734 z m 1.75782,6.91406 v -4.45313 q 0,-0.96679 0.72656,-1.68164 0.67969,-0.66211 1.70508,-0.66211 1.01367,0 1.70507,0.66211 0.72657,0.70313 0.72657,1.68164 v 3.92579 l -1.11328,0.52734 h -0.0586 v -4.45313 q 0,-0.67382 -0.36914,-0.98437 -0.36328,-0.31641 -0.89062,-0.31641 -0.52735,0 -0.89649,0.31641 -0.36328,0.31055 -0.36328,0.98437 v 3.92579 l -1.11328,0.52734 z m 7.79296,-2.46094 q 0,0.67383 0.36329,0.99024 0.36914,0.31054 0.89648,0.31054 0.52734,0 0.89062,-0.31054 0.36915,-0.31641 0.36915,-0.99024 v -1.99219 q 0,-0.67382 -0.36915,-0.98437 -0.36328,-0.31641 -0.89062,-0.31641 -0.52734,0 -0.89648,0.31641 -0.36329,0.31055 -0.36329,0.98437 z m -1.17187,0 v -1.99219 q 0,-0.96679 0.72656,-1.68164 0.67969,-0.66211 1.70508,-0.66211 1.02539,0 1.70508,0.66211 0.72656,0.70899 0.72656,1.68164 v 4.39454 q 0,0.96679 -0.72656,1.68164 -0.67969,0.66211 -1.70508,0.66211 h -1.80469 v -0.0586 l 0.46875,-0.98437 h 1.33594 q 0.52734,0 0.89062,-0.31641 0.36915,-0.31055 0.36915,-0.98437 v -0.55664 q -0.44532,0.49804 -1.25977,0.49804 -1.01367,0 -1.70508,-0.66211 -0.72656,-0.70312 -0.72656,-1.68164 z"
           id="text4316-5"
           aria-label="Bewegung" />
        <path
           style="font-size:12px;line-height:1.25;font-family:'Nova Round';-inkscape-font-specification:'Nova Round, Normal';letter-spacing:0px;word-spacing:0px;stroke-width:1px"
           d="m 504.86484,782.20624 v -11.13281 l 1.11328,-0.52735 h 2.48437 v 0.0586 l -0.35742,0.76171 h -2.06836 v 10.01954 h 2.42578 v 0.0586 l -0.35742,0.76172 z m 5.4375,-1.17188 v -7.6875 l -1.42969,0.78516 v -1.20117 l 2.54297,-1.21289 h 0.0586 v 8.78906 l -1.11328,0.52734 z m 4.18359,0 v -7.6875 l -1.42969,0.78516 v -1.20117 l 2.54297,-1.21289 h 0.0586 v 8.78906 l -1.11328,0.52734 z m 3.51563,-4.125 v -0.0586 l 0.47461,-1.00781 h 4.88086 v 0.0586 l -0.47461,1.00781 z m 7.78125,4.125 v -7.6875 l -1.42969,0.78516 v -1.20117 l 2.54297,-1.21289 h 0.0586 v 8.78906 l -1.11328,0.52734 z m 3.51562,-0.23437 v -0.0586 l 0.47461,-1.00781 2.80664,-2.71875 q 1.48828,-1.37109 1.48828,-2.32617 0,-0.72656 -0.38672,-1.19531 -0.49804,-0.60352 -1.36523,-0.60352 -0.82031,0 -1.36523,0.60352 -0.42188,0.46875 -0.42188,1.17187 0,0.39258 0.22852,0.7793 l -0.98438,0.47461 h -0.0586 q -0.35742,-0.63281 -0.35742,-1.38867 0,-1.00782 0.79101,-1.84571 0.80274,-0.84961 2.16797,-0.84961 1.36523,0 2.16797,0.84961 0.78515,0.83203 0.78515,2.03907 -0.006,1.31836 -1.58203,2.77148 l -2.50195,2.23828 h 4.10742 v 0.0586 l -0.47461,1.00781 z m 7.22461,1.40625 v -0.0586 l 0.35742,-0.76171 h 2.06836 v -10.01954 h -2.42578 v -0.0586 l 0.35742,-0.76172 h 3.24024 v 11.13281 l -1.11328,0.52735 z"
           id="text4382"
           aria-label="[11-12]" />
      </g>
      <g
         id="g938"
         transform="translate(-835.7736)">
        <path
           id="path900"
           style="color:#000000;overflow:visible;fill:#000000;stroke:#000000;stroke-width:2.27026;stroke-miterlimit:4;stroke-dasharray:none"
           d="m 1399.8204,730.35979 c 0,-5.5836 -23.8634,-10.11388 -53.2973,-10.11388 -29.434,0 -53.2973,4.53028 -53.2973,10.11388 l -3.5724,13.65946 c -10e-5,5.95802 25.4622,10.79084 56.8697,10.79084 31.4075,0 56.8697,-4.83282 56.8697,-10.79084 z"
           sodipodi:nodetypes="csccscc" />
        <path
           id="path902"
           style="color:#000000;overflow:visible;fill:#ffffff;stroke:#000000;stroke-width:3.82625;stroke-linecap:round;stroke-linejoin:round;stroke-miterlimit:4;stroke-dasharray:none"
           d="m 1336.822,568.76784 c -2.6203,0 -4.7252,2.10488 -4.7252,4.72517 v 15.10717 h -10.1876 c -2.0148,0 -3.8269,0.78443 -5.201,2.03753 h -2.8753 l 0.1742,-1.03216 c 0.093,-0.55514 -0.328,-1.21265 -0.8512,-1.00537 l -17.3189,6.86324 c -0.5233,0.20718 -1.1455,0.44357 -1.1797,1.00537 l -10.7841,51.96851 c -0.033,0.56179 2.171,6.50455 2.7195,6.6304 l 13.5689,3.1132 c 0.5485,0.12592 2.9685,-6.07523 3.0613,-6.63037 l 7.4598,-35.19581 h 3.492 l 1.875,18.20368 c 0.4393,4.26464 1.5723,7.74126 5.8595,7.74126 h 8.2171 v 7.02407 h -7.8971 c -2.0524,0 -12.5393,12.26434 -12.6658,14.31298 l -4.6782,65.07001 c -0.1267,2.04865 1.426,3.69975 3.4785,3.69975 h 17.3323 c 2.0526,0 3.8078,-1.6511 3.9343,-3.69975 l 3.2842,-51.28156 3.4023,-7.5 h 20.4138 l 3.4023,7.5 3.2842,51.28156 c 0.1266,2.04865 1.8817,3.69975 3.9343,3.69975 h 17.3323 c 2.0526,0 3.605,-1.6511 3.4785,-3.69975 l -4.6782,-65.07001 c -0.1267,-2.04864 -10.62,-14.31298 -12.6725,-14.31298 h -7.8904 v -7.02407 h 8.2104 c 4.2872,0 5.4269,-3.47658 5.8662,-7.74126 l 1.875,-18.20368 h 4.0952 l 7.4597,35.19581 c 0.093,0.55514 2.5128,6.75629 3.0613,6.63037 l 13.5623,-3.1132 c 0.5484,-0.12592 2.7591,-6.06861 2.7262,-6.6304 l -10.7841,-51.96851 c -0.033,-0.5618 -0.6631,-0.79804 -1.1863,-1.00537 l -17.3189,-6.86324 c -0.5232,-0.20717 -0.9375,0.45023 -0.8445,1.00537 l 0.1742,1.03216 h -3.4785 c -1.3741,-1.2531 -3.1929,-2.03753 -5.2077,-2.03753 h -10.181 v -15.10717 c 0,-2.62029 -2.1049,-4.72517 -4.7252,-4.72517 z"
           sodipodi:nodetypes="sscscccssccsscccssccsccssccccccssccsccsscccssccsscccscsss" />
        <path
           style="fill:none;fill-rule:evenodd;stroke:#000000;stroke-width:3.82594;stroke-linecap:butt;stroke-linejoin:miter;stroke-miterlimit:4;stroke-dasharray:none;stroke-opacity:1"
           d="m 1313.8329,590.63773 0.3419,25.71703"
           id="path904"
           sodipodi:nodetypes="cc" />
        <path
           style="fill:none;fill-rule:evenodd;stroke:#000000;stroke-width:3.82594;stroke-linecap:butt;stroke-linejoin:miter;stroke-miterlimit:4;stroke-dasharray:none;stroke-opacity:1"
           d="m 1379.8179,590.63773 -0.9451,25.71703"
           id="path906"
           sodipodi:nodetypes="cc" />
        <path
           style="fill:none;fill-rule:evenodd;stroke:#000000;stroke-width:3.82594;stroke-linecap:butt;stroke-linejoin:miter;stroke-miterlimit:4;stroke-dasharray:none;stroke-opacity:1"
           d="m 1362.9211,649.32373 -6.1905,20.60143"
           id="path908"
           sodipodi:nodetypes="cc" />
        <path
           style="fill:none;fill-rule:evenodd;stroke:#000000;stroke-width:3.82594;stroke-linecap:butt;stroke-linejoin:miter;stroke-miterlimit:4;stroke-dasharray:none;stroke-opacity:1"
           d="m 1330.1263,649.32373 6.1905,20.60143"
           id="path910"
           sodipodi:nodetypes="cc" />
      </g>
    </g>
  </g>
</svg>
