<?xml version="1.0" encoding="UTF-8" standalone="no"?>
<svg
   width="55.863842mm"
   height="70.392334mm"
   viewBox="0 0 197.94275 249.42165"
   id="svg2"
   version="1.1"
   inkscape:version="1.3.2 (091e20e, 2023-11-25, custom)"
   sodipodi:docname="trefferzonen.svg"
   xmlns:inkscape="http://www.inkscape.org/namespaces/inkscape"
   xmlns:sodipodi="http://sodipodi.sourceforge.net/DTD/sodipodi-0.dtd"
   xmlns="http://www.w3.org/2000/svg"
   xmlns:svg="http://www.w3.org/2000/svg"
   xmlns:rdf="http://www.w3.org/1999/02/22-rdf-syntax-ns#"
   xmlns:cc="http://creativecommons.org/ns#"
   xmlns:dc="http://purl.org/dc/elements/1.1/">
  <defs
     id="defs4" />
  <sodipodi:namedview
     id="base"
     pagecolor="#ffffff"
     bordercolor="#666666"
     borderopacity="1.0"
     inkscape:pageopacity="0.0"
     inkscape:pageshadow="2"
     inkscape:zoom="2.8"
     inkscape:cx="61.25"
     inkscape:cy="128.03571"
     inkscape:document-units="px"
     inkscape:current-layer="g1693"
     showgrid="false"
     fit-margin-top="0"
     fit-margin-left="0"
     fit-margin-right="0"
     fit-margin-bottom="0"
     inkscape:window-width="1920"
     inkscape:window-height="1009"
     inkscape:window-x="1912"
     inkscape:window-y="-8"
     inkscape:window-maximized="1"
     inkscape:document-rotation="0"
     inkscape:object-paths="false"
     inkscape:snap-intersection-paths="false"
     inkscape:snap-midpoints="false"
     inkscape:snap-text-baseline="true"
     showguides="true"
     inkscape:guide-bbox="true"
     inkscape:showpageshadow="2"
     inkscape:pagecheckerboard="0"
     inkscape:deskcolor="#d1d1d1" />
  <metadata
     id="metadata7">
    <rdf:RDF>
      <cc:Work
         rdf:about="">
        <dc:format>image/svg+xml</dc:format>
        <dc:type
           rdf:resource="http://purl.org/dc/dcmitype/StillImage" />
      </cc:Work>
    </rdf:RDF>
  </metadata>
  <g
     inkscape:label="Ebene 1"
     inkscape:groupmode="layer"
     id="layer1"
     transform="translate(-412.08031,-533.85001)">
    <g
       id="g1721"
       transform="translate(4.4829,-5.625)">
      <path
         style="font-size:12px;line-height:1.25;font-family:'Nova Round';-inkscape-font-specification:'Nova Round, Normal';letter-spacing:0px;word-spacing:0px;stroke-width:1px"
         d="m 407.59741,576.31152 v -8.78906 l 0.6211,-0.29297 h 2.2207 q 1.33594,0 2.16797,0.84961 0.79101,0.8086 0.79101,2.08008 0,1.27734 -0.79101,2.08008 -0.46875,0.47461 -1.09571,0.68554 l 2.02735,2.9004 -1.03125,0.48632 h -0.0586 l -2.25585,-3.22265 h -1.42383 v 2.69531 l -1.11328,0.52734 z m 1.17188,-4.27734 h 1.66992 q 0.76758,0 1.36523,-0.60352 0.42188,-0.42773 0.42188,-1.27148 0,-0.78516 -0.42188,-1.27148 -0.52148,-0.60352 -1.36523,-0.60352 h -1.66992 z m 11.09765,1.44727 v 0.36914 q 0,0.96679 -0.72656,1.68164 -0.67969,0.66211 -1.70508,0.66211 -1.01367,0 -1.70508,-0.66211 -0.72656,-0.70313 -0.72656,-1.68164 v -1.99219 q 0,-0.9668 0.72656,-1.68164 0.67969,-0.66211 1.70508,-0.66211 0.9961,0 1.70508,0.66211 0.72656,0.67969 0.72656,1.51172 v 0.0117 l -3.57422,2.80078 q 0.0879,0.19922 0.2461,0.33398 0.36914,0.31641 0.89648,0.31641 0.52735,0 0.89063,-0.31641 0.36914,-0.31641 0.36914,-0.82617 l 1.11328,-0.52734 z m -3.6914,-0.16407 2.44922,-1.98633 q -0.0937,-0.2871 -0.29297,-0.45703 -0.36914,-0.3164 -0.89649,-0.3164 -0.52734,0 -0.89648,0.3164 -0.36328,0.31055 -0.36328,0.98438 z m 10.3125,0.16407 v 0.36914 q 0,0.96679 -0.72657,1.68164 -0.67968,0.66211 -1.70507,0.66211 -1.01368,0 -1.70508,-0.66211 -0.72656,-0.70313 -0.72656,-1.68164 v -1.99219 q 0,-0.97266 0.72656,-1.68164 0.67969,-0.66211 1.70508,-0.66211 1.00195,0 1.70507,0.66211 0.72657,0.68554 0.72657,1.51172 v 0.0117 l -1.11328,0.52734 h -0.0586 v -0.36914 q 0,-0.67383 -0.36914,-0.98438 -0.36328,-0.3164 -0.89062,-0.3164 -0.52735,0 -0.89649,0.3164 -0.36328,0.31055 -0.36328,0.98438 v 1.99219 q 0,0.67382 0.36328,0.99023 0.36914,0.31055 0.89649,0.31055 0.52734,0 0.89062,-0.31641 0.36914,-0.31641 0.36914,-0.82617 l 1.11328,-0.52734 z m 2.05078,2.83007 v -8.78906 l 1.11328,-0.52734 h 0.0586 v 3.01758 q 0.43946,-0.49805 1.25977,-0.49805 1.01367,0 1.70508,0.66211 0.72656,0.70312 0.72656,1.68164 v 3.92578 l -1.11328,0.52734 h -0.0586 v -4.45312 q 0,-0.67383 -0.36914,-0.98438 -0.36328,-0.3164 -0.89062,-0.3164 -0.52734,0 -0.89649,0.3164 -0.36328,0.31055 -0.36328,0.98438 v 3.92578 l -1.11328,0.52734 z m 7.39453,0 v -5.61328 h -1.50586 v -0.0586 l 0.47461,-1.00781 h 1.03125 v -2.10938 l 1.11328,-0.52734 h 0.0586 v 2.63672 h 1.50586 v 0.0586 l -0.47461,1.00781 h -1.03125 v 5.08594 l -1.11328,0.52734 z m 8.56641,-2.83007 v 0.36914 q 0,0.96679 -0.72657,1.68164 -0.67968,0.66211 -1.70507,0.66211 -1.01368,0 -1.70508,-0.66211 -0.72657,-0.70313 -0.72657,-1.68164 v -1.99219 q 0,-0.9668 0.72657,-1.68164 0.67968,-0.66211 1.70508,-0.66211 0.99609,0 1.70507,0.66211 0.72657,0.67969 0.72657,1.51172 v 0.0117 l -3.57422,2.80078 q 0.0879,0.19922 0.24609,0.33398 0.36914,0.31641 0.89649,0.31641 0.52734,0 0.89062,-0.31641 0.36914,-0.31641 0.36914,-0.82617 l 1.11328,-0.52734 z m -3.69141,-0.16407 2.44922,-1.98633 q -0.0937,-0.2871 -0.29297,-0.45703 -0.36914,-0.3164 -0.89648,-0.3164 -0.52735,0 -0.89649,0.3164 -0.36328,0.31055 -0.36328,0.98438 z m 16.10742,-0.006 q 0,1.19532 -0.78515,2.03321 -0.80274,0.84961 -2.16797,0.84961 -1.36524,0 -2.16797,-0.84961 -0.79102,-0.83789 -0.79102,-1.96289 l 1.11328,-0.52735 h 0.0586 v 0.48047 q 0,0.71484 0.42187,1.20117 0.52149,0.60352 1.36524,0.60352 0.83789,0 1.36523,-0.60352 0.41602,-0.47461 0.41602,-1.21289 0,-0.69726 -0.33985,-1.0957 -0.46875,-0.55078 -1.4414,-0.55078 -1.06641,0 -1.84571,-0.70313 -0.58593,-0.52734 -0.58593,-1.52929 0,-1.17774 0.72656,-1.76954 0.6914,-0.5625 1.70508,-0.5625 1.01367,0 1.70507,0.5625 0.72657,0.5918 0.72657,1.62305 l -1.11328,0.52735 h -0.0586 v -0.46875 q 0,-0.66797 -0.38086,-0.9961 -0.36914,-0.32226 -0.8789,-0.32226 -0.56836,0 -0.91407,0.35742 -0.3457,0.35742 -0.3457,0.96094 0,0.58007 0.26367,0.87304 0.35157,0.39258 0.9961,0.39258 1.41797,0 2.16797,0.66797 0.78515,0.69726 0.78515,2.02148 z m 6.68555,0.16993 v 0.36914 q 0,0.96679 -0.72656,1.68164 -0.67969,0.66211 -1.70508,0.66211 -1.01367,0 -1.70508,-0.66211 -0.72656,-0.70313 -0.72656,-1.68164 v -1.99219 q 0,-0.9668 0.72656,-1.68164 0.67969,-0.66211 1.70508,-0.66211 0.99609,0 1.70508,0.66211 0.72656,0.67969 0.72656,1.51172 v 0.0117 l -3.57422,2.80078 q 0.0879,0.19922 0.24609,0.33398 0.36914,0.31641 0.89649,0.31641 0.52734,0 0.89062,-0.31641 0.36914,-0.31641 0.36914,-0.82617 l 1.11328,-0.52734 z m -3.69141,-0.16407 2.44922,-1.98633 q -0.0937,-0.2871 -0.29297,-0.45703 -0.36914,-0.3164 -0.89648,-0.3164 -0.52735,0 -0.89649,0.3164 -0.36328,0.31055 -0.36328,0.98438 z m 5.83008,-4.98047 q -0.20508,-0.21093 -0.20508,-0.5039 0,-0.29883 0.20508,-0.50977 0.20508,-0.21094 0.49805,-0.21094 0.29297,0 0.49804,0.21094 0.20508,0.21094 0.20508,0.50977 0,0.29297 -0.20508,0.5039 -0.20507,0.21094 -0.49804,0.21094 -0.29297,0 -0.49805,-0.21094 z m -0.0879,7.97461 v -6.38672 l 1.11328,-0.52734 h 0.0586 v 6.38672 l -1.11328,0.52734 z m 3.99609,0 v -5.61328 h -1.50586 v -0.0586 l 0.47461,-1.00781 h 1.03125 v -2.10938 l 1.11328,-0.52734 h 0.0586 v 2.63672 h 1.50586 v 0.0586 l -0.47461,1.00781 h -1.03125 v 5.08594 l -1.11328,0.52734 z m 8.56641,-2.83007 v 0.36914 q 0,0.96679 -0.72656,1.68164 -0.67969,0.66211 -1.70508,0.66211 -1.01367,0 -1.70508,-0.66211 -0.72656,-0.70313 -0.72656,-1.68164 v -1.99219 q 0,-0.9668 0.72656,-1.68164 0.67969,-0.66211 1.70508,-0.66211 0.99609,0 1.70508,0.66211 0.72656,0.67969 0.72656,1.51172 v 0.0117 l -3.57422,2.80078 q 0.0879,0.19922 0.24609,0.33398 0.36915,0.31641 0.89649,0.31641 0.52734,0 0.89062,-0.31641 0.36914,-0.31641 0.36914,-0.82617 l 1.11329,-0.52734 z m -3.69141,-0.16407 2.44922,-1.98633 q -0.0937,-0.2871 -0.29297,-0.45703 -0.36914,-0.3164 -0.89648,-0.3164 -0.52734,0 -0.89649,0.3164 -0.36328,0.31055 -0.36328,0.98438 z"
         id="text4312"
         aria-label="Rechte Seite" />
      <path
         d="m 427.65026,590.33439 v -11.59668 l 1.15967,-0.54932 h 2.58789 v 0.061 l -0.37232,0.79345 h -2.15454 v 10.43702 h 2.52686 v 0.061 l -0.37232,0.79346 z m 11.27929,-8.28858 -1.12304,0.53711 h -0.061 q 0,-0.81176 -0.43945,-1.32446 -0.54932,-0.62866 -1.29395,-0.62866 -0.88501,0 -1.42822,0.62866 -0.43945,0.50659 -0.43945,1.32446 v 1.13526 q 0.79346,-0.72022 1.86157,-0.72022 1.42212,0 2.2583,0.88501 0.82398,0.8728 0.82398,2.10571 0,1.24512 -0.82398,2.11792 -0.83618,0.88501 -2.2583,0.88501 -1.42212,0 -2.2583,-0.88501 -0.82397,-0.8728 -0.82397,-2.10571 v -3.41797 q 0,-1.29394 0.82397,-2.16674 0.83618,-0.88501 2.2583,-0.88501 1.34888,0 2.13623,0.82397 0.78735,0.81787 0.78735,1.69067 z m -2.92358,2.05079 q -0.8728,0 -1.42212,0.62866 -0.43945,0.50659 -0.43945,1.27563 0,0.75073 0.43945,1.26343 0.53711,0.62866 1.42212,0.62866 0.8606,0 1.42212,-0.62866 0.43945,-0.49439 0.43945,-1.26343 0,-0.76294 -0.43945,-1.27563 -0.53711,-0.62866 -1.42212,-0.62866 z m 5.21851,0.72021 v -0.061 l 0.49438,-1.0498 h 5.08423 v 0.061 l -0.49439,1.0498 z m 9.28955,4.29687 h -0.061 l -1.09863,-0.51879 2.79541,-7.83081 h -4.12598 v -0.061 l 0.49439,-1.0498 h 5.28564 v 0.061 z m 3.90014,1.22071 v -0.061 l 0.37232,-0.79345 h 2.15454 v -10.43702 h -2.52686 v -0.061 l 0.37232,-0.79346 h 3.37525 v 11.59668 l -1.15967,0.54932 z"
         id="text3"
         style="font-size:12.5px;font-family:'Nova Round';-inkscape-font-specification:'Nova Round, Normal';text-align:center;text-anchor:middle;stroke-width:3.56811;stroke-linecap:round"
         aria-label="[6-7]" />
    </g>
    <g
       id="g1693"
       transform="translate(-7.309817,-11.378522)">
      <path
         style="font-size:12px;line-height:1.25;font-family:'Nova Round';-inkscape-font-specification:'Nova Round, Normal';letter-spacing:0px;word-spacing:0px;stroke-width:1px"
         d="m 556.19617,581.83067 v -8.55469 l 1.11328,-0.52734 h 0.0586 v 8.01562 h 4.01367 v 0.0586 l -0.47461,1.00782 z m 5.88867,-7.74024 q -0.20508,-0.21094 -0.20508,-0.5039 0,-0.29883 0.20508,-0.50977 0.20508,-0.21094 0.49805,-0.21094 0.29296,0 0.49804,0.21094 0.20508,0.21094 0.20508,0.50977 0,0.29296 -0.20508,0.5039 -0.20508,0.21094 -0.49804,0.21094 -0.29297,0 -0.49805,-0.21094 z m -0.0879,7.97461 v -6.38672 l 1.11328,-0.52734 h 0.0586 v 6.38672 l -1.11328,0.52734 z m 3.22265,0 v -4.45312 q 0,-0.9668 0.72657,-1.68164 0.67968,-0.66211 1.70508,-0.66211 1.01367,0 1.70507,0.66211 0.72657,0.70312 0.72657,1.68164 v 3.92578 l -1.11329,0.52734 h -0.0586 v -4.45312 q 0,-0.67383 -0.36914,-0.98438 -0.36328,-0.3164 -0.89062,-0.3164 -0.52735,0 -0.89649,0.3164 -0.36328,0.31055 -0.36328,0.98438 v 3.92578 l -1.11328,0.52734 z m 6.91407,0 v -8.78906 l 1.11328,-0.52734 h 0.0586 v 4.88085 l 2.44922,-2.47851 h 0.0586 l 1.03125,0.48633 -1.94531,1.78711 q 0.83203,0.11132 1.3711,0.54492 0.72656,0.59765 0.72656,1.68164 v 1.88672 l -1.11328,0.52734 h -0.0586 v -2.41406 q 0,-0.67383 -0.36914,-0.98438 -0.36328,-0.3164 -0.89062,-0.3164 -0.52735,0 -0.89649,0.3164 -0.36328,0.31641 -0.36328,0.98438 v 1.88672 l -1.11328,0.52734 z m 11.48437,-2.83008 v 0.36914 q 0,0.9668 -0.72656,1.68164 -0.67969,0.66211 -1.70508,0.66211 -1.01367,0 -1.70508,-0.66211 -0.72656,-0.70312 -0.72656,-1.68164 v -1.99218 q 0,-0.9668 0.72656,-1.68164 0.67969,-0.66211 1.70508,-0.66211 0.9961,0 1.70508,0.66211 0.72656,0.67968 0.72656,1.51171 v 0.0117 l -3.57422,2.80078 q 0.0879,0.19922 0.2461,0.33399 0.36914,0.31641 0.89648,0.31641 0.52735,0 0.89063,-0.31641 0.36914,-0.31641 0.36914,-0.82617 l 1.11328,-0.52735 z m -3.6914,-0.16406 2.44921,-1.98633 q -0.0937,-0.28711 -0.29296,-0.45703 -0.36914,-0.3164 -0.89649,-0.3164 -0.52734,0 -0.89648,0.3164 -0.36328,0.31055 -0.36328,0.98438 z m 16.10742,-0.006 q 0,1.19531 -0.78516,2.0332 -0.80273,0.84961 -2.16797,0.84961 -1.36523,0 -2.16797,-0.84961 -0.79101,-0.83789 -0.79101,-1.96289 l 1.11328,-0.52734 h 0.0586 v 0.48047 q 0,0.71484 0.42188,1.20117 0.52148,0.60352 1.36523,0.60352 0.83789,0 1.36524,-0.60352 0.41601,-0.47461 0.41601,-1.21289 0,-0.69727 -0.33984,-1.0957 -0.46875,-0.55078 -1.44141,-0.55078 -1.0664,0 -1.8457,-0.70313 -0.58594,-0.52734 -0.58594,-1.5293 0,-1.17773 0.72656,-1.76953 0.69141,-0.5625 1.70508,-0.5625 1.01367,0 1.70508,0.5625 0.72656,0.5918 0.72656,1.62305 l -1.11328,0.52734 h -0.0586 v -0.46875 q 0,-0.66797 -0.38086,-0.99609 -0.36914,-0.32227 -0.87891,-0.32227 -0.56836,0 -0.91406,0.35743 -0.3457,0.35742 -0.3457,0.96093 0,0.58008 0.26367,0.87305 0.35156,0.39258 0.99609,0.39258 1.41797,0 2.16797,0.66797 0.78516,0.69726 0.78516,2.02148 z m 6.68554,0.16992 v 0.36914 q 0,0.9668 -0.72656,1.68164 -0.67969,0.66211 -1.70508,0.66211 -1.01367,0 -1.70507,-0.66211 -0.72657,-0.70312 -0.72657,-1.68164 v -1.99218 q 0,-0.9668 0.72657,-1.68164 0.67968,-0.66211 1.70507,-0.66211 0.9961,0 1.70508,0.66211 0.72656,0.67968 0.72656,1.51171 v 0.0117 l -3.57421,2.80078 q 0.0879,0.19922 0.24609,0.33399 0.36914,0.31641 0.89648,0.31641 0.52735,0 0.89063,-0.31641 0.36914,-0.31641 0.36914,-0.82617 l 1.11328,-0.52735 z m -3.6914,-0.16406 2.44922,-1.98633 q -0.0937,-0.28711 -0.29297,-0.45703 -0.36914,-0.3164 -0.89649,-0.3164 -0.52734,0 -0.89648,0.3164 -0.36328,0.31055 -0.36328,0.98438 z m 5.83008,-4.98047 q -0.20508,-0.21094 -0.20508,-0.5039 0,-0.29883 0.20508,-0.50977 0.20507,-0.21094 0.49804,-0.21094 0.29297,0 0.49805,0.21094 0.20508,0.21094 0.20508,0.50977 0,0.29296 -0.20508,0.5039 -0.20508,0.21094 -0.49805,0.21094 -0.29297,0 -0.49804,-0.21094 z m -0.0879,7.97461 v -6.38672 l 1.11328,-0.52734 h 0.0586 v 6.38672 l -1.11328,0.52734 z m 3.99609,0 v -5.61328 h -1.50586 v -0.0586 l 0.47461,-1.00782 h 1.03125 v -2.10937 l 1.11328,-0.52734 h 0.0586 v 2.63671 h 1.50586 v 0.0586 l -0.47461,1.00781 h -1.03125 v 5.08594 l -1.11328,0.52734 z m 8.56641,-2.83008 v 0.36914 q 0,0.9668 -0.72657,1.68164 -0.67968,0.66211 -1.70507,0.66211 -1.01368,0 -1.70508,-0.66211 -0.72657,-0.70312 -0.72657,-1.68164 v -1.99218 q 0,-0.9668 0.72657,-1.68164 0.67968,-0.66211 1.70508,-0.66211 0.99609,0 1.70507,0.66211 0.72657,0.67968 0.72657,1.51171 v 0.0117 l -3.57422,2.80078 q 0.0879,0.19922 0.24609,0.33399 0.36914,0.31641 0.89649,0.31641 0.52734,0 0.89062,-0.31641 0.36914,-0.31641 0.36914,-0.82617 l 1.11328,-0.52735 z m -3.69141,-0.16406 2.44922,-1.98633 q -0.0937,-0.28711 -0.29297,-0.45703 -0.36914,-0.3164 -0.89648,-0.3164 -0.52735,0 -0.89649,0.3164 -0.36328,0.31055 -0.36328,0.98438 z"
         id="text4316"
         aria-label="Linke Seite" />
      <path
         d="m 570.65124,596.0879 v -11.59668 l 1.15967,-0.54931 h 2.58789 v 0.061 l -0.37232,0.79346 h -2.15454 v 10.43701 h 2.52686 v 0.061 l -0.37232,0.79345 z m 5.0293,-4.3457 q 0,-1.19629 0.92773,-2.06299 0.19531,-0.1831 0.46387,-0.32348 -0.84839,-0.6836 -0.84839,-1.64185 0,-1.2207 0.75684,-1.84326 0.72021,-0.58594 1.77612,-0.58594 1.05591,0 1.77612,0.58594 0.75684,0.61645 0.75684,1.84326 0,0.95825 -0.84839,1.64185 0.26855,0.14038 0.46387,0.32348 0.92773,0.8667 0.92773,2.06299 0,1.24512 -0.81787,2.11792 -0.83618,0.88501 -2.2583,0.88501 -1.42822,0 -2.2583,-0.88501 -0.81787,-0.8728 -0.81787,-2.11792 z m 1.65405,1.27564 q 0.54932,0.62866 1.42212,0.62866 0.8728,0 1.42212,-0.62866 0.43335,-0.49439 0.43335,-1.26343 0,-0.72632 -0.35401,-1.14136 -0.48828,-0.57373 -1.50146,-0.57373 -1.01319,0 -1.50147,0.57373 -0.354,0.41504 -0.354,1.14136 0,0.76904 0.43335,1.26343 z m 2.37427,-6.39649 q -0.36011,-0.37231 -0.95215,-0.37231 -0.59204,0 -0.95215,0.37231 -0.36011,0.37232 -0.36011,1.00098 0,0.60425 0.27466,0.90942 0.36621,0.40894 1.0376,0.40894 0.67139,0 1.0376,-0.40894 0.27465,-0.30517 0.27465,-0.90942 0,-0.62866 -0.3601,-1.00098 z m 4.01611,3.94898 v -0.061 l 0.49438,-1.0498 h 5.08423 v 0.061 l -0.49438,1.04981 z m 7.75147,1.66015 1.12304,-0.53711 h 0.061 q 0,0.81177 0.43945,1.32447 0.54932,0.62866 1.41602,0.62866 0.88501,0 1.42822,-0.62866 0.43945,-0.5066 0.43945,-1.32447 v -1.13525 q -0.76904,0.72021 -1.86157,0.72021 -1.42212,0 -2.2583,-0.88501 -0.82398,-0.8728 -0.82398,-2.10571 0,-1.24512 0.82398,-2.11792 0.83618,-0.88501 2.2583,-0.88501 1.42212,0 2.2583,0.88501 0.82397,0.8728 0.82397,2.10571 v 3.41797 q 0,1.29395 -0.82397,2.16675 -0.83618,0.88501 -2.2583,0.88501 -1.47095,0 -2.2583,-0.81787 -0.78735,-0.82398 -0.78735,-1.69678 z m 3.04565,-2.05078 q 0.8728,0 1.42212,-0.62866 0.43945,-0.50659 0.43945,-1.27564 0,-0.75073 -0.43945,-1.26342 -0.53711,-0.62867 -1.42212,-0.62867 -0.8606,0 -1.42212,0.62867 -0.43945,0.49438 -0.43945,1.26342 0,0.76294 0.43945,1.27564 0.53711,0.62866 1.42212,0.62866 z m 4.60815,5.9082 v -0.061 l 0.37232,-0.79346 h 2.15454 v -10.43701 h -2.52686 v -0.061 l 0.37232,-0.79345 h 3.37524 v 11.59668 l -1.15967,0.54931 z"
         id="text4"
         style="font-size:12.5px;font-family:'Nova Round';-inkscape-font-specification:'Nova Round, Normal';text-align:center;text-anchor:middle;stroke-width:3.56811;stroke-linecap:round"
         aria-label="[8-9]" />
    </g>
    <g
       id="g1687"
       transform="translate(-11.441081,-0.91582958)">
      <path
         style="font-size:12px;line-height:1.25;font-family:'Nova Round';-inkscape-font-specification:'Nova Round, Normal';letter-spacing:0px;word-spacing:0px;stroke-width:1px"
         d="m 495.56894,768.46532 h 1.66992 q 0.88477,0 1.40625,-0.55664 0.38086,-0.4043 0.38086,-1.06641 0,-0.68555 -0.4043,-1.1543 -0.43945,-0.53906 -1.38281,-0.53906 h -1.66992 z m 0,-4.3711 h 1.66992 q 0.58594,0 0.94336,-0.38086 0.31641,-0.33984 0.31641,-0.88476 0,-0.44531 -0.38086,-0.80274 -0.33985,-0.29882 -0.87891,-0.29882 h -1.66992 z m -1.17188,5.42578 v -8.55468 l 0.6211,-0.29297 h 2.2207 q 0.99024,0 1.64649,0.53906 0.77929,0.63281 0.77929,1.62305 0,1.00781 -0.89062,1.67578 0.28711,0.12305 0.56836,0.36914 0.85547,0.7793 0.85547,1.93359 0,1.16016 -0.75,1.9043 -0.80274,0.80273 -2.20899,0.80273 z m 12.59766,-2.5957 v 0.36914 q 0,0.9668 -0.72656,1.68164 -0.67969,0.66211 -1.70508,0.66211 -1.01367,0 -1.70508,-0.66211 -0.72656,-0.70312 -0.72656,-1.68164 v -1.99219 q 0,-0.96679 0.72656,-1.68164 0.67969,-0.66211 1.70508,-0.66211 0.99609,0 1.70508,0.66211 0.72656,0.67969 0.72656,1.51172 v 0.0117 l -3.57422,2.80078 q 0.0879,0.19922 0.2461,0.33399 0.36914,0.3164 0.89648,0.3164 0.52734,0 0.89062,-0.3164 0.36915,-0.31641 0.36915,-0.82617 l 1.11328,-0.52735 z m -3.69141,-0.16406 2.44922,-1.98633 q -0.0937,-0.28711 -0.29297,-0.45703 -0.36914,-0.31641 -0.89648,-0.31641 -0.52734,0 -0.89648,0.31641 -0.36329,0.31055 -0.36329,0.98437 z m 14.00391,-3.91992 v 4.45312 q 0,0.9668 -0.72656,1.68164 -0.67969,0.66211 -1.70508,0.66211 -0.93164,0 -1.61133,-0.67969 -0.1289,-0.1289 -0.23437,-0.30468 -0.10547,0.16992 -0.23438,0.29883 -0.73242,0.68554 -1.61133,0.68554 -1.01367,0 -1.70507,-0.66211 -0.72657,-0.70312 -0.72657,-1.68164 v -3.92578 l 1.11328,-0.52734 h 0.0586 v 4.45312 q 0,0.67383 0.36328,0.99024 0.36914,0.31054 0.89648,0.31054 0.52735,0 0.89063,-0.31054 0.36914,-0.31641 0.36914,-0.99024 v -3.92578 l 1.11328,-0.52734 h 0.0586 v 4.45312 q 0,0.67383 0.36329,0.99024 0.36914,0.31054 0.89648,0.31054 0.52734,0 0.89062,-0.31054 0.36915,-0.31641 0.36915,-0.99024 v -3.92578 l 1.11328,-0.52734 z m 6.62109,4.08398 v 0.36914 q 0,0.9668 -0.72656,1.68164 -0.67969,0.66211 -1.70508,0.66211 -1.01367,0 -1.70507,-0.66211 -0.72657,-0.70312 -0.72657,-1.68164 v -1.99219 q 0,-0.96679 0.72657,-1.68164 0.67968,-0.66211 1.70507,-0.66211 0.9961,0 1.70508,0.66211 0.72656,0.67969 0.72656,1.51172 v 0.0117 l -3.57421,2.80078 q 0.0879,0.19922 0.24609,0.33399 0.36914,0.3164 0.89648,0.3164 0.52735,0 0.89063,-0.3164 0.36914,-0.31641 0.36914,-0.82617 l 1.11328,-0.52735 z m -3.6914,-0.16406 2.44922,-1.98633 q -0.0937,-0.28711 -0.29297,-0.45703 -0.36914,-0.31641 -0.89649,-0.31641 -0.52734,0 -0.89648,0.31641 -0.36328,0.31055 -0.36328,0.98437 z m 6.62109,0.5332 q 0,0.67383 0.36328,0.99024 0.36914,0.31054 0.89649,0.31054 0.52734,0 0.89062,-0.31054 0.36914,-0.31641 0.36914,-0.99024 v -1.99219 q 0,-0.67382 -0.36914,-0.98437 -0.36328,-0.31641 -0.89062,-0.31641 -0.52735,0 -0.89649,0.31641 -0.36328,0.31055 -0.36328,0.98437 z m -1.17187,0 v -1.99219 q 0,-0.96679 0.72656,-1.68164 0.67969,-0.66211 1.70508,-0.66211 1.02539,0 1.70508,0.66211 0.72656,0.70899 0.72656,1.68164 v 4.39454 q 0,0.96679 -0.72656,1.68164 -0.67969,0.66211 -1.70508,0.66211 h -1.80469 v -0.0586 l 0.46875,-0.98437 h 1.33594 q 0.52734,0 0.89062,-0.31641 0.36914,-0.31055 0.36914,-0.98437 v -0.55664 q -0.44531,0.49804 -1.25976,0.49804 -1.01367,0 -1.70508,-0.66211 -0.72656,-0.70312 -0.72656,-1.68164 z m 11.66015,-4.45312 v 4.45312 q 0,0.9668 -0.72656,1.68164 -0.67969,0.66211 -1.70508,0.66211 -1.01367,0 -1.70508,-0.66211 -0.72656,-0.70312 -0.72656,-1.68164 v -3.92578 l 1.11328,-0.52734 h 0.0586 v 4.45312 q 0,0.67383 0.36328,0.99024 0.36914,0.31054 0.89648,0.31054 0.52735,0 0.89063,-0.31054 0.36914,-0.31641 0.36914,-0.99024 v -3.92578 l 1.11328,-0.52734 z m 1.75782,6.91406 v -4.45313 q 0,-0.96679 0.72656,-1.68164 0.67969,-0.66211 1.70508,-0.66211 1.01367,0 1.70507,0.66211 0.72657,0.70313 0.72657,1.68164 v 3.92579 l -1.11328,0.52734 h -0.0586 v -4.45313 q 0,-0.67382 -0.36914,-0.98437 -0.36328,-0.31641 -0.89062,-0.31641 -0.52735,0 -0.89649,0.31641 -0.36328,0.31055 -0.36328,0.98437 v 3.92579 l -1.11328,0.52734 z m 7.79296,-2.46094 q 0,0.67383 0.36329,0.99024 0.36914,0.31054 0.89648,0.31054 0.52734,0 0.89062,-0.31054 0.36915,-0.31641 0.36915,-0.99024 v -1.99219 q 0,-0.67382 -0.36915,-0.98437 -0.36328,-0.31641 -0.89062,-0.31641 -0.52734,0 -0.89648,0.31641 -0.36329,0.31055 -0.36329,0.98437 z m -1.17187,0 v -1.99219 q 0,-0.96679 0.72656,-1.68164 0.67969,-0.66211 1.70508,-0.66211 1.02539,0 1.70508,0.66211 0.72656,0.70899 0.72656,1.68164 v 4.39454 q 0,0.96679 -0.72656,1.68164 -0.67969,0.66211 -1.70508,0.66211 h -1.80469 v -0.0586 l 0.46875,-0.98437 h 1.33594 q 0.52734,0 0.89062,-0.31641 0.36915,-0.31055 0.36915,-0.98437 v -0.55664 q -0.44532,0.49804 -1.25977,0.49804 -1.01367,0 -1.70508,-0.66211 -0.72656,-0.70312 -0.72656,-1.68164 z"
         id="text4316-5"
         aria-label="Bewegung" />
      <path
         d="m 502.00631,784.18742 v -11.59668 l 1.15967,-0.54932 h 2.58789 v 0.061 l -0.37232,0.79346 h -2.15454 v 10.43701 h 2.52686 v 0.061 l -0.37232,0.79346 z m 5.66406,-1.22071 v -8.00781 l -1.48926,0.81787 v -1.25122 l 2.64893,-1.26343 h 0.061 v 9.15528 l -1.15967,0.54931 z m 5.188,-3.17383 q 0,0.81788 0.43944,1.32447 0.54322,0.62866 1.42212,0.62866 0.87891,0 1.42212,-0.62866 0.43946,-0.50659 0.43946,-1.32447 v -3.35693 q 0,-0.81787 -0.43946,-1.32446 -0.54321,-0.62866 -1.42212,-0.62866 -0.8789,0 -1.42212,0.62866 -0.43944,0.50659 -0.43944,1.32446 z m -1.2207,0 v -3.35693 q 0,-1.32446 0.82397,-2.16675 0.8667,-0.88501 2.2583,-0.88501 1.39159,0 2.2583,0.88501 0.82397,0.83618 0.82397,2.16675 v 3.35693 q 0,1.32447 -0.82397,2.16675 -0.86671,0.88501 -2.2583,0.88501 -1.39161,0 -2.2583,-0.88501 -0.82397,-0.84228 -0.82397,-2.16675 z m 8.30077,-1.12304 v -0.061 l 0.49439,-1.0498 h 5.08423 v 0.061 l -0.49438,1.04981 z m 8.10547,4.29687 v -8.00781 l -1.48925,0.81787 v -1.25122 l 2.64892,-1.26343 h 0.061 v 9.15528 l -1.15967,0.54931 z m 3.66211,-0.24414 v -0.061 l 0.49439,-1.04981 2.92358,-2.83203 q 1.5503,-1.42822 1.5503,-2.42309 0,-0.75684 -0.40283,-1.24512 -0.51881,-0.62866 -1.42212,-0.62866 -0.8545,0 -1.42212,0.62866 -0.43945,0.48828 -0.43945,1.2207 0,0.40894 0.23803,0.81177 l -1.02539,0.49438 h -0.061 q -0.37232,-0.65918 -0.37232,-1.44653 0,-1.0498 0.82398,-1.92261 0.83618,-0.88501 2.2583,-0.88501 1.42211,0 2.25829,0.88501 0.81788,0.8667 0.81788,2.12403 -0.006,1.37329 -1.64795,2.88696 l -2.6062,2.33154 h 4.27856 v 0.061 l -0.49439,1.0498 z m 7.52564,1.46485 v -0.061 l 0.37231,-0.79346 h 2.15454 v -10.43701 h -2.52686 v -0.061 l 0.37232,-0.79346 h 3.37524 v 11.59668 l -1.15967,0.54932 z"
         id="text1"
         style="font-size:12.5px;font-family:'Nova Round';-inkscape-font-specification:'Nova Round, Normal';text-align:center;text-anchor:middle;stroke-width:3.56811;stroke-linecap:round"
         aria-label="[10-12]" />
    </g>
    <g
       id="g938"
       transform="translate(-835.7736)">
      <path
         id="path900"
         style="color:#000000;overflow:visible;fill:#000000;stroke:#000000;stroke-width:2.27026;stroke-miterlimit:4;stroke-dasharray:none"
         d="m 1399.8204,730.35979 c 0,-5.5836 -23.8634,-10.11388 -53.2973,-10.11388 -29.434,0 -53.2973,4.53028 -53.2973,10.11388 l -3.5724,13.65946 c -10e-5,5.95802 25.4622,10.79084 56.8697,10.79084 31.4075,0 56.8697,-4.83282 56.8697,-10.79084 z"
         sodipodi:nodetypes="csccscc" />
      <path
         id="path902"
         style="color:#000000;overflow:visible;fill:#ffffff;stroke:#000000;stroke-width:3.82625;stroke-linecap:round;stroke-linejoin:round;stroke-miterlimit:4;stroke-dasharray:none"
         d="m 1336.822,568.76784 c -2.6203,0 -4.7252,2.10488 -4.7252,4.72517 v 15.10717 h -10.1876 c -2.0148,0 -3.8269,0.78443 -5.201,2.03753 h -2.8753 l 0.1742,-1.03216 c 0.093,-0.55514 -0.328,-1.21265 -0.8512,-1.00537 l -17.3189,6.86324 c -0.5233,0.20718 -1.1455,0.44357 -1.1797,1.00537 l -10.7841,51.96851 c -0.033,0.56179 2.171,6.50455 2.7195,6.6304 l 13.5689,3.1132 c 0.5485,0.12592 2.9685,-6.07523 3.0613,-6.63037 l 7.4598,-35.19581 h 3.492 l 1.875,18.20368 c 0.4393,4.26464 1.5723,7.74126 5.8595,7.74126 h 8.2171 v 7.02407 h -7.8971 c -2.0524,0 -12.5393,12.26434 -12.6658,14.31298 l -4.6782,65.07001 c -0.1267,2.04865 1.426,3.69975 3.4785,3.69975 h 17.3323 c 2.0526,0 3.8078,-1.6511 3.9343,-3.69975 l 3.2842,-51.28156 3.4023,-7.5 h 20.4138 l 3.4023,7.5 3.2842,51.28156 c 0.1266,2.04865 1.8817,3.69975 3.9343,3.69975 h 17.3323 c 2.0526,0 3.605,-1.6511 3.4785,-3.69975 l -4.6782,-65.07001 c -0.1267,-2.04864 -10.62,-14.31298 -12.6725,-14.31298 h -7.8904 v -7.02407 h 8.2104 c 4.2872,0 5.4269,-3.47658 5.8662,-7.74126 l 1.875,-18.20368 h 4.0952 l 7.4597,35.19581 c 0.093,0.55514 2.5128,6.75629 3.0613,6.63037 l 13.5623,-3.1132 c 0.5484,-0.12592 2.7591,-6.06861 2.7262,-6.6304 l -10.7841,-51.96851 c -0.033,-0.5618 -0.6631,-0.79804 -1.1863,-1.00537 l -17.3189,-6.86324 c -0.5232,-0.20717 -0.9375,0.45023 -0.8445,1.00537 l 0.1742,1.03216 h -3.4785 c -1.3741,-1.2531 -3.1929,-2.03753 -5.2077,-2.03753 h -10.181 v -15.10717 c 0,-2.62029 -2.1049,-4.72517 -4.7252,-4.72517 z"
         sodipodi:nodetypes="sscscccssccsscccssccsccssccccccssccsccsscccssccsscccscsss" />
      <path
         style="fill:none;fill-rule:evenodd;stroke:#000000;stroke-width:3.82594;stroke-linecap:butt;stroke-linejoin:miter;stroke-miterlimit:4;stroke-dasharray:none;stroke-opacity:1"
         d="m 1313.8329,590.63773 0.3419,25.71703"
         id="path904"
         sodipodi:nodetypes="cc" />
      <path
         style="fill:none;fill-rule:evenodd;stroke:#000000;stroke-width:3.82594;stroke-linecap:butt;stroke-linejoin:miter;stroke-miterlimit:4;stroke-dasharray:none;stroke-opacity:1"
         d="m 1379.8179,590.63773 -0.9451,25.71703"
         id="path906"
         sodipodi:nodetypes="cc" />
      <path
         style="fill:none;fill-rule:evenodd;stroke:#000000;stroke-width:3.82594;stroke-linecap:butt;stroke-linejoin:miter;stroke-miterlimit:4;stroke-dasharray:none;stroke-opacity:1"
         d="m 1362.9211,649.32373 -6.1905,20.60143"
         id="path908"
         sodipodi:nodetypes="cc" />
      <path
         style="fill:none;fill-rule:evenodd;stroke:#000000;stroke-width:3.82594;stroke-linecap:butt;stroke-linejoin:miter;stroke-miterlimit:4;stroke-dasharray:none;stroke-opacity:1"
         d="m 1330.1263,649.32373 6.1905,20.60143"
         id="path910"
         sodipodi:nodetypes="cc" />
    </g>
    <g
       id="g4"
       transform="translate(0,-2.21795)">
      <path
         style="font-size:12px;line-height:1.25;font-family:'Nova Round';-inkscape-font-specification:'Nova Round, Normal';letter-spacing:0px;word-spacing:0px;stroke-width:1px"
         d="m 493.60833,545.26719 v -8.78906 l 0.62109,-0.29297 h 2.2207 q 1.33594,0 2.16797,0.84961 0.79102,0.8086 0.79102,2.08008 0,1.27734 -0.79102,2.08008 -0.46875,0.47461 -1.0957,0.68554 l 2.02734,2.9004 -1.03125,0.48632 h -0.0586 l -2.25586,-3.22265 h -1.42383 v 2.69531 l -1.11328,0.52734 z m 1.17187,-4.27734 h 1.66992 q 0.76758,0 1.36524,-0.60352 0.42187,-0.42773 0.42187,-1.27148 0,-0.78516 -0.42187,-1.27148 -0.52149,-0.60352 -1.36524,-0.60352 h -1.66992 z m 11.21485,-2.63672 v 4.45313 q 0,0.96679 -0.72657,1.68164 -0.67968,0.66211 -1.70507,0.66211 -1.01368,0 -1.70508,-0.66211 -0.72656,-0.70313 -0.72656,-1.68164 v -3.92579 l 1.11328,-0.52734 h 0.0586 v 4.45313 q 0,0.67382 0.36328,0.99023 0.36914,0.31055 0.89649,0.31055 0.52734,0 0.89062,-0.31055 0.36914,-0.31641 0.36914,-0.99023 v -3.92579 l 1.11328,-0.52734 z m 1.75781,6.91406 v -4.45312 q 0,-0.9668 0.72656,-1.68164 0.67969,-0.66211 1.70508,-0.66211 0.93164,0 1.61133,0.67969 0.1289,0.1289 0.23437,0.30468 0.10547,-0.16992 0.23438,-0.29882 0.73242,-0.68555 1.61133,-0.68555 1.01367,0 1.70507,0.66211 0.72657,0.70312 0.72657,1.68164 v 3.92578 l -1.11328,0.52734 h -0.0586 v -4.45312 q 0,-0.67383 -0.36914,-0.98438 -0.36328,-0.3164 -0.89062,-0.3164 -0.52735,0 -0.89649,0.3164 -0.36328,0.31055 -0.36328,0.98438 v 3.92578 l -1.11328,0.52734 h -0.0586 v -4.45312 q 0,-0.67383 -0.36915,-0.98438 -0.36328,-0.3164 -0.89062,-0.3164 -0.52734,0 -0.89648,0.3164 -0.36329,0.31055 -0.36329,0.98438 v 3.92578 l -1.11328,0.52734 z m 14.29687,-4.45312 q 0,-0.67383 -0.36914,-0.98438 -0.36328,-0.3164 -0.89062,-0.3164 -0.52735,0 -0.89649,0.3164 -0.36328,0.31055 -0.36328,0.98438 v 1.99219 q 0,0.67382 0.36328,0.99023 0.36914,0.31055 0.89649,0.31055 0.52734,0 0.89062,-0.31055 0.36914,-0.31641 0.36914,-0.99023 z m 1.17188,0 v 1.99219 q 0,0.96679 -0.72656,1.68164 -0.67969,0.66211 -1.70508,0.66211 -0.77344,0 -1.25977,-0.49805 v 2.49023 l -1.11328,0.52735 h -0.0586 v -6.85547 q 0,-0.9668 0.72656,-1.68164 0.67969,-0.66211 1.70508,-0.66211 1.01367,0 1.70508,0.66211 0.72656,0.70312 0.72656,1.68164 z m 2.05078,4.45312 v -5.02734 h -0.87891 v -0.0586 l 0.47461,-1.00782 h 0.4043 v -0.76172 q 0,-0.96679 0.72656,-1.68164 0.67969,-0.66211 1.70508,-0.66211 h 0.79102 v 0.0586 l -0.46875,0.98437 h -0.32227 q -0.52734,0 -0.89648,0.31641 -0.36328,0.31641 -0.36328,0.98437 v 0.76172 h 1.93945 v 0.0586 l -0.47461,1.00781 h -1.46484 v 4.5 l -1.11329,0.52734 z"
         id="text4338"
         aria-label="Rumpf" />
      <path
         d="m 497.05633,559.81741 v -11.59668 l 1.15967,-0.54932 h 2.58789 v 0.061 l -0.37231,0.79346 h -2.15454 v 10.43701 h 2.52685 v 0.061 l -0.37231,0.79346 z m 5.66406,-1.2207 v -8.00782 l -1.48925,0.81787 v -1.25122 l 2.64892,-1.26342 h 0.061 v 9.15527 l -1.15967,0.54932 z m 3.66211,-4.29688 v -0.061 l 0.49439,-1.04981 h 5.08423 v 0.061 l -0.49439,1.0498 z m 7.47681,1.12305 q 0,0 1.15967,-0.54932 h 0.061 v 0.54932 q 0,0.80566 0.43946,1.32446 0.531,0.62866 1.42212,0.62866 0.8728,0 1.42211,-0.62866 0.43335,-0.49438 0.43335,-1.26343 0,-0.67138 -0.40283,-1.14135 -0.50049,-0.57373 -1.46484,-0.57373 -0.83618,0 -1.35498,0.26855 l -1.27564,-0.61646 1.01929,-4.28466 h 4.22974 v 0.061 l -0.49439,1.04981 h -2.80761 l -0.74463,2.72216 q 0.67749,-0.32959 1.42822,-0.32959 1.3855,0 2.22168,0.72632 0.8667,0.75074 0.8667,2.10572 0,1.24511 -0.81787,2.11792 -0.83619,0.88501 -2.2583,0.88501 -1.42212,0 -2.2583,-0.88501 -0.82398,-0.87281 -0.82398,-2.16675 z m 7.44019,4.39453 v -0.061 l 0.37231,-0.79345 h 2.15454 v -10.43701 h -2.52685 v -0.061 l 0.37231,-0.79346 h 3.37524 v 11.59668 l -1.15966,0.54932 z"
         id="text2"
         style="font-size:12.5px;font-family:'Nova Round';-inkscape-font-specification:'Nova Round, Normal';text-align:center;text-anchor:middle;stroke-width:3.56811;stroke-linecap:round"
         aria-label="[1-5]" />
    </g>
  </g>
</svg>
