<?xml version="1.0" encoding="UTF-8" standalone="no"?>
<!-- Created with Inkscape (http://www.inkscape.org/) -->

<svg
   width="40mm"
   height="40mm"
   viewBox="0 0 141.73229 141.73229"
   id="svg5723"
   version="1.1"
   inkscape:version="1.4.3 (0d15f75, 2025-12-25)"
   sodipodi:docname="w12_weiß.svg"
   xmlns:inkscape="http://www.inkscape.org/namespaces/inkscape"
   xmlns:sodipodi="http://sodipodi.sourceforge.net/DTD/sodipodi-0.dtd"
   xmlns="http://www.w3.org/2000/svg"
   xmlns:svg="http://www.w3.org/2000/svg"
   xmlns:rdf="http://www.w3.org/1999/02/22-rdf-syntax-ns#"
   xmlns:cc="http://creativecommons.org/ns#"
   xmlns:dc="http://purl.org/dc/elements/1.1/">
  <defs
     id="defs5725" />
  <sodipodi:namedview
     id="base"
     pagecolor="#ffffff"
     bordercolor="#666666"
     borderopacity="1.0"
     inkscape:pageopacity="0.0"
     inkscape:pageshadow="2"
     inkscape:zoom="2.8"
     inkscape:cx="155.17857"
     inkscape:cy="64.107143"
     inkscape:document-units="px"
     inkscape:current-layer="g921"
     showgrid="false"
     fit-margin-top="0"
     fit-margin-left="0"
     fit-margin-right="0"
     fit-margin-bottom="0"
     inkscape:window-width="2560"
     inkscape:window-height="1369"
     inkscape:window-x="2552"
     inkscape:window-y="-8"
     inkscape:window-maximized="1"
     inkscape:pagecheckerboard="0"
     width="50mm"
     inkscape:showpageshadow="2"
     inkscape:deskcolor="#d1d1d1"
     showguides="true" />
  <metadata
     id="metadata5728">
    <rdf:RDF>
      <cc:Work
         rdf:about="">
        <dc:format>image/svg+xml</dc:format>
        <dc:type
           rdf:resource="http://purl.org/dc/dcmitype/StillImage" />
      </cc:Work>
    </rdf:RDF>
  </metadata>
  <g
     inkscape:label="Ebene 1"
     inkscape:groupmode="layer"
     id="layer1"
     transform="translate(167.74007,-469.156)">
    <g
       id="g4565">
      <g
         id="g921"
         transform="matrix(0.98354137,0,0,0.98354137,0.61256966,7.8306911)">
        <path
           id="path2784"
           style="fill:#ffffff;fill-opacity:1;stroke:#000000;stroke-width:4.25197;stroke-miterlimit:4;stroke-dasharray:none;paint-order:fill markers stroke;stop-color:#000000"
           d="m -98.483151,610.91389 -41.158449,-12.96074 -25.67976,-34.67779 -0.39227,-43.14911 25.04506,-35.13894 40.916029,-13.70686 41.15846,12.96074 25.67976,34.67779 0.39227,43.14911 -25.04506,35.13893 z" />
        <path
           id="path2786"
           style="fill-opacity:0;stroke:#000000;stroke-width:4.25197;stroke-miterlimit:4;stroke-dasharray:none;paint-order:stroke fill markers;stop-color:#000000"
           inkscape:transform-center-y="-1.4019236e-06"
           d="m -74.007031,579.54994 15.35884,-47.60679 -40.53059,-29.31843 -40.408129,29.48698 15.55699,47.5424 z" />
        <path
           style="fill:none;stroke:#000000;stroke-width:4.25197;stroke-linecap:butt;stroke-linejoin:miter;stroke-miterlimit:4;stroke-dasharray:none;stroke-opacity:1"
           d="m -99.178781,502.62472 -0.57376,-31.34427"
           id="path3231" />
        <path
           style="fill:none;stroke:#000000;stroke-width:4.25197;stroke-linecap:butt;stroke-linejoin:miter;stroke-miterlimit:4;stroke-dasharray:none;stroke-opacity:1"
           d="m -58.648191,531.94315 25.73387,-13.02417"
           id="path3233" />
        <path
           style="fill:none;stroke:#000000;stroke-width:4.25197;stroke-linecap:butt;stroke-linejoin:miter;stroke-miterlimit:4;stroke-dasharray:none;stroke-opacity:1"
           d="m -74.007031,579.54994 16.43992,17.65708"
           id="path3235" />
        <path
           style="fill:none;stroke:#000000;stroke-width:4.25197;stroke-linecap:butt;stroke-linejoin:miter;stroke-miterlimit:4;stroke-dasharray:none;stroke-opacity:1"
           d="m -124.02992,579.6541 -15.61169,18.29905"
           id="path3237" />
        <path
           style="fill:none;stroke:#000000;stroke-width:4.25197;stroke-linecap:butt;stroke-linejoin:miter;stroke-miterlimit:4;stroke-dasharray:none;stroke-opacity:1"
           d="m -139.58692,532.1117 -26.12671,-11.98545"
           id="path3239" />
        <path
           d="m -113.0144,565.2129 v -30.17761 l -5.6123,3.08217 v -4.71525 l 9.98253,-4.76125 h 0.23001 v 34.50183 l -4.37023,2.07011 z m 9.87518,-0.92005 v -0.23002 l 1.8631,-3.95621 11.017581,-10.67256 q 5.980317,-5.81931 5.980317,-8.07343 v -4.66925 q 0,-1.58708 -2.783147,-2.69114 -1.932103,-0.75904 -4.232225,-0.75904 -2.300122,0 -4.232224,0.75904 -2.783148,1.10406 -2.783148,2.69114 v 3.45019 l -4.370234,2.07011 h -0.23001 v -5.5203 q 0,-4.20922 5.221277,-6.37134 2.921155,-1.21906 6.394339,-1.21906 3.473185,0 6.394339,1.21906 5.221277,2.16212 5.221277,6.37134 v 4.89926 q 0,4.18622 -6.23333,9.72952 l -9.821521,8.78646 h 16.123855 v 0.23002 l -1.863099,3.95621 z"
           id="text2"
           style="font-size:47.1065px;line-height:1;font-family:'Nova Flat';-inkscape-font-specification:'Nova Flat, Normal';text-align:center;letter-spacing:-3.92555px;word-spacing:7.85108px;text-anchor:middle;stroke-width:4.55728;stroke-linecap:round;stroke-linejoin:round;paint-order:markers stroke fill"
           aria-label="12" />
      </g>
    </g>
  </g>
</svg>
