<?xml version="1.0" encoding="UTF-8" standalone="no"?>
<!-- Created with Inkscape (http://www.inkscape.org/) -->

<svg
   xmlns:dc="http://purl.org/dc/elements/1.1/"
   xmlns:cc="http://creativecommons.org/ns#"
   xmlns:rdf="http://www.w3.org/1999/02/22-rdf-syntax-ns#"
   xmlns:svg="http://www.w3.org/2000/svg"
   xmlns="http://www.w3.org/2000/svg"
   xmlns:sodipodi="http://sodipodi.sourceforge.net/DTD/sodipodi-0.dtd"
   xmlns:inkscape="http://www.inkscape.org/namespaces/inkscape"
   width="33.8731mm"
   height="33.223717mm"
   viewBox="0 0 120.0228 117.72183"
   id="svg5723"
   version="1.1"
   inkscape:version="0.91 r13725"
   sodipodi:docname="W12_weiss.svg">
  <defs
     id="defs5725" />
  <sodipodi:namedview
     id="base"
     pagecolor="#ffffff"
     bordercolor="#666666"
     borderopacity="1.0"
     inkscape:pageopacity="0.0"
     inkscape:pageshadow="2"
     inkscape:zoom="1.979899"
     inkscape:cx="43.738047"
     inkscape:cy="135.28753"
     inkscape:document-units="px"
     inkscape:current-layer="layer1"
     showgrid="false"
     fit-margin-top="0"
     fit-margin-left="0"
     fit-margin-right="0"
     fit-margin-bottom="0"
     inkscape:window-width="1403"
     inkscape:window-height="681"
     inkscape:window-x="458"
     inkscape:window-y="183"
     inkscape:window-maximized="0" />
  <metadata
     id="metadata5728">
    <rdf:RDF>
      <cc:Work
         rdf:about="">
        <dc:format>image/svg+xml</dc:format>
        <dc:type
           rdf:resource="http://purl.org/dc/dcmitype/StillImage" />
        <dc:title></dc:title>
      </cc:Work>
    </rdf:RDF>
  </metadata>
  <g
     inkscape:label="Ebene 1"
     inkscape:groupmode="layer"
     id="layer1"
     transform="translate(-5.6306966,-482.1453)">
    <g
       transform="translate(5.6379855,482.16113)"
       id="g4258">
      <path
         inkscape:connector-curvature="0"
         style="fill:#ffffff;fill-rule:evenodd"
         sodipodi:nodetypes="cccccc"
         d="m 92.7125,48.7278 24.02,-12.085 -25.754,-26.705 -39.278,-9.413 -4.605,22.1 45.617,26.103 z"
         id="path8751" />
      <path
         d="m 92.7285,48.7008 -10.727,50.683 -50.235,4.64 -20.944,-46.264 36.277,-35.162 45.629,26.103 z"
         inkscape:connector-curvature="0"
         sodipodi:nodetypes="cccccc"
         style="fill:#ffffff;fill-rule:evenodd"
         id="path7961" />
      <path
         inkscape:connector-curvature="0"
         style="fill:#ffffff;fill-rule:evenodd"
         sodipodi:nodetypes="cccccc"
         d="m 51.7025,0.5228 -27.918,18.335 -23.212,31.511 10.25,7.409 36.277,-35.162 4.603,-22.093 z"
         id="path7963" />
      <path
         d="m 92.7105,48.7358 -10.744,50.638 19.296,9.57 18.24,-35.96 -2.7,-36.341 -24.092,12.093 z"
         inkscape:connector-curvature="0"
         sodipodi:nodetypes="cccccc"
         style="fill:#ffffff;fill-rule:evenodd"
         id="path8781" />
      <path
         d="m 101.2625,108.9338 -19.258,-9.5431 -50.235,4.6321 -1.5234,10.614 39.051,2.5687 31.965,-8.272 z"
         inkscape:connector-curvature="0"
         sodipodi:nodetypes="cccccc"
         style="fill:#ffffff;fill-rule:evenodd"
         id="path8791" />
      <path
         inkscape:connector-curvature="0"
         style="fill:#ffffff;fill-rule:evenodd"
         sodipodi:nodetypes="cccccc"
         d="m 12.3455,83.8168 17.899,30.827 2.076,-11.73 -21.498,-45.154 -10.266,-7.391 11.789,33.448 z"
         id="path8801" />
      <path
         d="m 51.7005,0.5248 -4.408,21.169"
         inkscape:connector-curvature="0"
         style="fill:none;stroke:#aeaeae;stroke-width:1px;stroke-linecap:round;stroke-linejoin:round"
         id="path4132" />
      <path
         d="m 46.0545,24.1688 -33.941,32.526"
         inkscape:connector-curvature="0"
         style="fill:none;stroke:#aeaeae;stroke-width:1px;stroke-linecap:round;stroke-linejoin:round"
         id="path4134" />
      <path
         d="m 49.2365,24.1688 39.598,22.981"
         inkscape:connector-curvature="0"
         style="fill:none;stroke:#aeaeae;stroke-width:1px;stroke-linecap:round;stroke-linejoin:round"
         id="path4136" />
      <path
         d="m 114.6425,38.3108 -18.913,9.369"
         inkscape:connector-curvature="0"
         style="fill:none;stroke:#aeaeae;stroke-width:1px;stroke-linecap:round;stroke-linejoin:round"
         id="path4138" />
      <path
         d="m 92.5475,51.3918 -10.43,46.312"
         inkscape:connector-curvature="0"
         style="fill:none;stroke:#aeaeae;stroke-width:1px;stroke-linecap:round;stroke-linejoin:round"
         id="path4140" />
      <path
         d="m 79.6425,99.8238 -45.608,4.0659"
         inkscape:connector-curvature="0"
         style="fill:none;stroke:#aeaeae;stroke-width:1px;stroke-linecap:round;stroke-linejoin:round"
         id="path4144" />
      <path
         d="m 11.4065,59.8768 19.976,41.187"
         inkscape:connector-curvature="0"
         style="fill:none;stroke:#aeaeae;stroke-width:1px;stroke-linecap:round;stroke-linejoin:round"
         id="path4146" />
      <path
         d="m 2.2142,51.0388 6.7175,5.4801"
         inkscape:connector-curvature="0"
         style="fill:none;stroke:#aeaeae;stroke-width:1px;stroke-linecap:round;stroke-linejoin:round"
         id="path4148" />
      <path
         d="M 32.2665,105.8438 30.322,113.622"
         inkscape:connector-curvature="0"
         style="fill:none;stroke:#aeaeae;stroke-width:1px;stroke-linecap:round;stroke-linejoin:round"
         id="path4150" />
      <path
         d="m 83.7085,100.5338 15.91,7.2478"
         inkscape:connector-curvature="0"
         style="fill:none;stroke:#aeaeae;stroke-width:1px;stroke-linecap:round;stroke-linejoin:round"
         id="path4152" />
      <path
         d="m 90.9785,9.9378 25.751,26.705 2.7768,36.341 -18.248,35.946 -31.965,8.272 -39.055,-2.57 -17.897,-30.817 -11.789,-33.448 23.228,-31.511 27.918,-18.335 z"
         inkscape:connector-curvature="0"
         style="fill:none;stroke:#000000"
         id="path3362-4" />
      <g
         id="text4249"
         style="fill:#000000"
         transform="matrix(0.92881,-0.1522,0.13403,1.0547,0,0)">
        <path
           style="fill:#000000"
           id="path4283"
           d="m 36.977,86.564 -7.0178,0 0,-26.448 c -2.5641,2.3976 -5.586,4.1708 -9.0658,5.3196 l 0,-6.3685 c 1.8315,-0.59936 3.8211,-1.7315 5.9689,-3.3965 2.1478,-1.6816 3.6213,-3.6379 4.4205,-5.869 l 5.6942,0 0,36.762"
           inkscape:connector-curvature="0" />
        <path
           style="fill:#000000"
           id="path4285"
           d="m 71.192,80.046 0,6.5184 -24.6,0 c 0.26639,-2.4642 1.0656,-4.7951 2.3976,-6.9929 1.332,-2.2144 3.9626,-5.1447 7.8919,-8.791 3.1634,-2.947 5.1031,-4.9449 5.8191,-5.9939 0.96566,-1.4485 1.4485,-2.8804 1.4485,-4.2956 -1.9e-5,-1.565 -0.42458,-2.7638 -1.2737,-3.5963 -0.8325,-0.8491 -1.9897,-1.2737 -3.4715,-1.2737 -1.4652,3.1e-5 -2.6307,0.44125 -3.4964,1.3236 -0.86579,0.88246 -1.3653,2.3476 -1.4985,4.3955 l -6.9929,-0.69929 c 0.41624,-3.8627 1.7232,-6.6349 3.921,-8.3165 2.1978,-1.6816 4.9449,-2.5224 8.2416,-2.5224 3.613,3.7e-5 6.4517,0.97404 8.5163,2.922 2.0645,1.948 3.0968,4.3706 3.0968,7.2676 -2.6e-5,1.6483 -0.29972,3.2217 -0.89908,4.7202 -0.58276,1.4818 -1.5151,3.0386 -2.7971,4.6702 -0.84916,1.0822 -2.3809,2.639 -4.5953,4.6702 -2.2144,2.0313 -3.6213,3.3799 -4.2207,4.0459 -0.58275,0.666 -1.0573,1.3153 -1.4235,1.948 l 13.936,0"
           inkscape:connector-curvature="0" />
      </g>
      <g
         id="text4253"
         inkscape:transform-center-x="2.1213203"
         style="fill:#666666"
         inkscape:transform-center-y="3.5355339"
         transform="matrix(-0.14267,1.3007,-0.75517,-0.12413,0,0)">
        <path
           style="fill:#666666"
           id="path4280"
           d="m 33.229,-138.01 4.9954,-0.60607 c 0.15916,1.2734 0.58769,2.2467 1.2856,2.9201 0.69788,0.67341 1.5427,1.0101 2.5344,1.0101 1.0652,0 1.959,-0.40404 2.6814,-1.2121 0.73461,-0.80807 1.1019,-1.8978 1.1019,-3.269 -1.4e-5,-1.2978 -0.34896,-2.3263 -1.0468,-3.0854 -0.6979,-0.75909 -1.5488,-1.1386 -2.5528,-1.1387 -0.66117,1e-5 -1.4509,0.12857 -2.3691,0.38568 l 0.56933,-4.2057 c 1.3958,0.0368 2.461,-0.26322 3.1956,-0.89991 0.73461,-0.64889 1.1019,-1.506 1.1019,-2.5712 -1.3e-5,-0.90601 -0.26937,-1.6284 -0.80808,-2.1671 -0.53873,-0.5387 -1.255,-0.80806 -2.1488,-0.80808 -0.88155,2e-5 -1.6345,0.30611 -2.259,0.91827 -0.62443,0.61221 -1.004,1.506 -1.1387,2.6814 l -4.7567,-0.80808 c 0.33058,-1.6284 0.82644,-2.9262 1.4876,-3.8935 0.6734,-0.97946 1.6039,-1.7447 2.7916,-2.2957 1.1999,-0.56318 2.5405,-0.84479 4.022,-0.84481 2.5344,2e-5 4.5669,0.8081 6.0973,2.4242 1.2611,1.3223 1.8916,2.8161 1.8916,4.4812 -1.8e-5,2.363 -1.2917,4.2486 -3.8751,5.6566 1.5427,0.33059 2.7732,1.0713 3.6915,2.2222 0.9305,1.1509 1.3958,2.5406 1.3958,4.169 -2e-5,2.363 -0.8632,4.3771 -2.5895,6.0422 -1.7264,1.6651 -3.8751,2.4977 -6.4463,2.4977 -2.4365,0 -4.4567,-0.69789 -6.0606,-2.0937 -1.6039,-1.408 -2.5344,-3.2446 -2.7916,-5.5096"
           inkscape:connector-curvature="0" />
      </g>
      <g
         id="text4257"
         inkscape:transform-center-x="4.1132762"
         style="fill:#666666"
         inkscape:transform-center-y="-0.23709948"
         transform="matrix(-2.0897,0.22244,-0.19788,-0.45746,0,0)">
        <path
           style="fill:#666666"
           id="path4277"
           d="m -9.8119,-243.36 c -0.83477,-0.35228 -1.4436,-0.83475 -1.8265,-1.4474 -0.37526,-0.62032 -0.56289,-1.2981 -0.56289,-2.0333 -10e-7,-1.256 0.43653,-2.2937 1.3096,-3.1131 0.88071,-0.81943 2.129,-1.2292 3.745,-1.2292 1.6006,1e-5 2.8413,0.40974 3.722,1.2292 0.88836,0.81946 1.3325,1.8572 1.3326,3.1131 -1.15e-5,0.78117 -0.20296,1.4781 -0.60884,2.0907 -0.40591,0.60503 -0.97645,1.0684 -1.7116,1.39 0.93431,0.37527 1.6427,0.92284 2.1252,1.6427 0.49012,0.7199 0.73519,1.5508 0.73521,2.4928 -1.2e-5,1.5547 -0.49781,2.8183 -1.4934,3.7909 -0.98794,0.97262 -2.3052,1.4589 -3.9517,1.4589 -1.5317,0 -2.8068,-0.40206 -3.8254,-1.2062 -1.2024,-0.94964 -1.8036,-2.2516 -1.8036,-3.9058 -10e-7,-0.91134 0.22592,-1.7461 0.67777,-2.5043 0.45184,-0.76583 1.1641,-1.3555 2.1367,-1.7691 m 0.66628,-3.251 c -4.4e-6,0.64332 0.17997,1.1449 0.53992,1.5049 0.3676,0.35995 0.8539,0.53992 1.4589,0.53991 0.61266,1e-5 1.1028,-0.17996 1.4704,-0.53991 0.36759,-0.36759 0.5514,-0.87305 0.5514,-1.5164 -8.4e-6,-0.605 -0.18381,-1.0875 -0.5514,-1.4474 -0.35995,-0.36759 -0.8386,-0.55139 -1.4359,-0.5514 -0.62034,1e-5 -1.1143,0.18381 -1.4819,0.5514 -0.36761,0.36762 -0.55141,0.85393 -0.5514,1.4589 m -0.29868,7.2142 c -4.2e-6,0.88837 0.22592,1.5815 0.67777,2.0792 0.4595,0.4978 1.03,0.74669 1.7116,0.74669 0.66627,0 1.2177,-0.23741 1.6542,-0.71223 0.43652,-0.48247 0.65478,-1.1756 0.65479,-2.0792 -8.8e-6,-0.78881 -0.2221,-1.4206 -0.66628,-1.8954 -0.44419,-0.48247 -1.0071,-0.72371 -1.6887,-0.72372 -0.78882,1e-5 -1.3785,0.27188 -1.7691,0.81562 -0.38292,0.54375 -0.57438,1.1334 -0.57438,1.7691"
           inkscape:connector-curvature="0" />
      </g>
      <g
         id="text4245"
         inkscape:transform-center-x="0.81496198"
         style="fill:#666666"
         inkscape:transform-center-y="-2.9269908"
         transform="matrix(-0.87922,-1.7042,0.45579,-0.25392,0,0)">
        <path
           style="fill:#666666"
           id="path4274"
           d="m -43.266,-35.438 0,-2.8463 -5.7891,0 0,-2.3735 6.1365,-8.9828 2.2771,0 0,8.9731 1.756,0 0,2.3832 -1.756,0 0,2.8463 -2.6244,0 m 0,-5.2295 0,-4.8339 -3.2516,4.8339 3.2516,0"
           inkscape:connector-curvature="0" />
      </g>
      <g
         id="text4261"
         style="fill:#666666"
         transform="matrix(1.0395,0.66915,-0.72752,0.49366,0,0)">
        <path
           style="fill:#666666"
           id="path4269"
           d="m 51.524,-18.556 -4.15,0 0,-15.64 c -1.5163,1.4178 -3.3033,2.4664 -5.3611,3.1457 l 0,-3.766 c 1.083,-0.35443 2.2596,-1.0239 3.5297,-2.0086 1.2701,-0.99441 2.1415,-2.1513 2.6141,-3.4707 l 3.3673,0 0,21.74"
           inkscape:connector-curvature="0" />
        <path
           style="fill:#666666"
           id="path4271"
           d="m 66.706,-18.556 -4.15,0 0,-15.64 c -1.5163,1.4178 -3.3033,2.4664 -5.3611,3.1457 l 0,-3.766 c 1.083,-0.35443 2.2596,-1.0239 3.5297,-2.0086 1.2701,-0.99441 2.1415,-2.1513 2.6141,-3.4707 l 3.3673,0 0,21.74"
           inkscape:connector-curvature="0" />
      </g>
      <g
         id="text4192"
         inkscape:transform-center-x="-5.7936809"
         style="fill:#666666"
         inkscape:transform-center-y="-4.5342157"
         transform="matrix(0.36931,0.5908,-0.88158,1.2975,0,0)">
        <path
           style="fill:#666666"
           id="path4266"
           d="m 54.869,-8.5621 0,-2.875 10.586,0 0,2.2471 c -0.8739,0.85921 -1.7625,2.0929 -2.6657,3.7012 -0.90327,1.6083 -1.5936,3.3193 -2.0709,5.1332 -0.47,1.8064 -0.701,3.422 -0.694,4.8466 l -2.9852,0 c 0.0514,-2.2324 0.51038,-4.509 1.3769,-6.8295 0.87388,-2.3206 2.0378,-4.3951 3.4919,-6.2237 l -7.0388,0"
           inkscape:connector-curvature="0" />
      </g>
    </g>
  </g>
</svg>
