<?xml version="1.0" encoding="UTF-8" standalone="no"?>
<!-- Created with Inkscape (http://www.inkscape.org/) -->

<svg
   width="40mm"
   height="40mm"
   viewBox="0 0 141.73229 141.73229"
   id="svg5723"
   version="1.1"
   inkscape:version="1.3.2 (091e20e, 2023-11-25, custom)"
   sodipodi:docname="w12_weiß.svg"
   xmlns:inkscape="http://www.inkscape.org/namespaces/inkscape"
   xmlns:sodipodi="http://sodipodi.sourceforge.net/DTD/sodipodi-0.dtd"
   xmlns="http://www.w3.org/2000/svg"
   xmlns:svg="http://www.w3.org/2000/svg"
   xmlns:rdf="http://www.w3.org/1999/02/22-rdf-syntax-ns#"
   xmlns:cc="http://creativecommons.org/ns#"
   xmlns:dc="http://purl.org/dc/elements/1.1/">
  <defs
     id="defs5725" />
  <sodipodi:namedview
     id="base"
     pagecolor="#ffffff"
     bordercolor="#666666"
     borderopacity="1.0"
     inkscape:pageopacity="0.0"
     inkscape:pageshadow="2"
     inkscape:zoom="3.959798"
     inkscape:cx="95.838222"
     inkscape:cy="102.15168"
     inkscape:document-units="px"
     inkscape:current-layer="g921"
     showgrid="false"
     fit-margin-top="0"
     fit-margin-left="0"
     fit-margin-right="0"
     fit-margin-bottom="0"
     inkscape:window-width="1920"
     inkscape:window-height="1009"
     inkscape:window-x="1912"
     inkscape:window-y="-8"
     inkscape:window-maximized="1"
     inkscape:pagecheckerboard="0"
     width="50mm"
     inkscape:showpageshadow="2"
     inkscape:deskcolor="#d1d1d1" />
  <metadata
     id="metadata5728">
    <rdf:RDF>
      <cc:Work
         rdf:about="">
        <dc:format>image/svg+xml</dc:format>
        <dc:type
           rdf:resource="http://purl.org/dc/dcmitype/StillImage" />
      </cc:Work>
    </rdf:RDF>
  </metadata>
  <g
     inkscape:label="Ebene 1"
     inkscape:groupmode="layer"
     id="layer1"
     transform="translate(167.74007,-469.156)">
    <g
       id="g4565">
      <g
         id="g921"
         transform="matrix(0.98354137,0,0,0.98354137,0.61256966,7.8306911)">
        <path
           id="path2784"
           style="fill:#ffffff;fill-opacity:1;stroke:#000000;stroke-width:4.25197;stroke-miterlimit:4;stroke-dasharray:none;paint-order:fill markers stroke;stop-color:#000000"
           d="m -98.483151,610.91389 -41.158449,-12.96074 -25.67976,-34.67779 -0.39227,-43.14911 25.04506,-35.13894 40.916029,-13.70686 41.15846,12.96074 25.67976,34.67779 0.39227,43.14911 -25.04506,35.13893 z" />
        <path
           id="path2786"
           style="fill-opacity:0;stroke:#000000;stroke-width:4.25197;stroke-miterlimit:4;stroke-dasharray:none;paint-order:stroke fill markers;stop-color:#000000"
           inkscape:transform-center-y="-1.4019236e-06"
           d="m -74.007031,579.54994 15.35884,-47.60679 -40.53059,-29.31843 -40.408129,29.48698 15.55699,47.5424 z" />
        <path
           style="fill:none;stroke:#000000;stroke-width:4.25197;stroke-linecap:butt;stroke-linejoin:miter;stroke-miterlimit:4;stroke-dasharray:none;stroke-opacity:1"
           d="m -99.178781,502.62472 -0.57376,-31.34427"
           id="path3231" />
        <path
           style="fill:none;stroke:#000000;stroke-width:4.25197;stroke-linecap:butt;stroke-linejoin:miter;stroke-miterlimit:4;stroke-dasharray:none;stroke-opacity:1"
           d="m -58.648191,531.94315 25.73387,-13.02417"
           id="path3233" />
        <path
           style="fill:none;stroke:#000000;stroke-width:4.25197;stroke-linecap:butt;stroke-linejoin:miter;stroke-miterlimit:4;stroke-dasharray:none;stroke-opacity:1"
           d="m -74.007031,579.54994 16.43992,17.65708"
           id="path3235" />
        <path
           style="fill:none;stroke:#000000;stroke-width:4.25197;stroke-linecap:butt;stroke-linejoin:miter;stroke-miterlimit:4;stroke-dasharray:none;stroke-opacity:1"
           d="m -124.02992,579.6541 -15.61169,18.29905"
           id="path3237" />
        <path
           style="fill:none;stroke:#000000;stroke-width:4.25197;stroke-linecap:butt;stroke-linejoin:miter;stroke-miterlimit:4;stroke-dasharray:none;stroke-opacity:1"
           d="m -139.58692,532.1117 -26.12671,-11.98545"
           id="path3239" />
        <path
           d="m -114.97858,565.23615 v -30.17773 l -5.61232,3.08218 v -4.71527 l 9.98257,-4.76127 h 0.23002 v 34.50198 l -4.37025,2.07011 z m 13.80079,-0.92005 v -0.23001 l 1.86311,-3.95623 11.017631,-10.67261 q 5.842335,-5.38231 5.842335,-9.13152 0,-2.85217 -1.518087,-4.69227 -1.955112,-2.36914 -5.359307,-2.36914 -3.220185,0 -5.359307,2.36914 -1.656095,1.8401 -1.656095,4.60026 0,1.54109 0.897051,3.05918 l -3.864221,1.8631 h -0.230014 q -1.403076,-2.48414 -1.403076,-5.45131 0,-3.95623 3.105174,-7.24542 3.151181,-3.33519 8.510488,-3.33519 5.359307,0 8.510488,3.33519 3.082177,3.26619 3.082177,8.00446 -0.023,5.1753 -6.210356,10.87963 l -9.821564,8.7865 h 16.123925 v 0.23001 l -1.863107,3.95623 z"
           id="text4111"
           style="stroke-width:4.25197;"
           aria-label="12" />
      </g>
    </g>
  </g>
</svg>
