<?xml version="1.0" encoding="UTF-8" standalone="no"?>
<!-- Created with Inkscape (http://www.inkscape.org/) -->

<svg
   width="40mm"
   height="40mm"
   viewBox="0 0 141.73228 141.73228"
   id="svg4467"
   version="1.1"
   inkscape:version="1.4.3 (0d15f75, 2025-12-25)"
   sodipodi:docname="w6_rot.svg"
   xmlns:inkscape="http://www.inkscape.org/namespaces/inkscape"
   xmlns:sodipodi="http://sodipodi.sourceforge.net/DTD/sodipodi-0.dtd"
   xmlns="http://www.w3.org/2000/svg"
   xmlns:svg="http://www.w3.org/2000/svg"
   xmlns:rdf="http://www.w3.org/1999/02/22-rdf-syntax-ns#"
   xmlns:cc="http://creativecommons.org/ns#"
   xmlns:dc="http://purl.org/dc/elements/1.1/">
  <defs
     id="defs4469" />
  <sodipodi:namedview
     id="base"
     pagecolor="#ffffff"
     bordercolor="#666666"
     borderopacity="1.0"
     inkscape:pageopacity="0.0"
     inkscape:pageshadow="2"
     inkscape:zoom="1.979899"
     inkscape:cx="17.425131"
     inkscape:cy="20.455589"
     inkscape:document-units="px"
     inkscape:current-layer="g4485"
     showgrid="false"
     fit-margin-top="0"
     fit-margin-left="0"
     fit-margin-right="0"
     fit-margin-bottom="0"
     inkscape:window-width="2560"
     inkscape:window-height="1369"
     inkscape:window-x="2552"
     inkscape:window-y="-8"
     inkscape:window-maximized="1"
     inkscape:pagecheckerboard="0"
     inkscape:showpageshadow="2"
     inkscape:deskcolor="#d1d1d1" />
  <metadata
     id="metadata4472">
    <rdf:RDF>
      <cc:Work
         rdf:about="">
        <dc:format>image/svg+xml</dc:format>
        <dc:type
           rdf:resource="http://purl.org/dc/dcmitype/StillImage" />
      </cc:Work>
    </rdf:RDF>
  </metadata>
  <g
     inkscape:label="Ebene 1"
     inkscape:groupmode="layer"
     id="layer1"
     transform="translate(71.064942,-471.94726)">
    <g
       id="g4485"
       transform="matrix(1.3609821,0,0,1.3622523,25.728672,-170.95455)">
      <rect
         style="fill:#cc0000;fill-opacity:1;stroke:#000000;stroke-width:4.25197;stroke-miterlimit:4;stroke-dasharray:none;paint-order:fill markers stroke;stop-color:#000000"
         id="rect890"
         width="99.776787"
         height="99.776787"
         x="-68.938957"
         y="474.07324"
         ry="4.3526788" />
      <path
         d="m -7.8829855,515.33495 -4.3749275,2.07041 h -0.23026 v -3.68072 q 0,-1.5873 -2.786142,-2.69152 -1.934174,-0.75915 -4.121638,-0.75915 -1.957205,0 -3.891389,0.75915 -2.786132,1.10422 -2.786132,2.69152 v 6.97035 q 0.299329,-0.13802 0.621698,-0.27605 2.855212,-1.21924 6.401212,-1.21924 3.47692,0 6.401212,1.21924 5.2268855,2.18543 5.2268855,6.37225 v 7.40744 q 0,4.1868 -5.2268855,6.37222 -2.924292,1.21925 -6.401212,1.21925 -3.47692,0 -6.401212,-1.21925 -5.226885,-2.16241 -5.226885,-6.37222 v -20.47399 q 0,-4.23282 5.226885,-6.37224 2.924292,-1.21923 6.055823,-1.21923 3.36179,0 6.286082,1.21923 5.2268855,2.16242 5.2268855,6.37224 z m -18.1904885,18.86368 q 0,1.58729 2.786132,2.69151 1.934184,0.75915 4.236778,0.75915 2.302593,0 4.236768,-0.75915 2.786142,-1.10422 2.786142,-2.69151 v -7.40744 q 0,-1.58732 -2.786142,-2.69153 -1.934175,-0.75916 -4.236768,-0.75916 -2.302594,0 -4.236778,0.75916 -2.786132,1.10421 -2.786132,2.69153 z"
         id="text1"
         style="font-size:47.132px;line-height:1;font-family:'Nova Flat';-inkscape-font-specification:'Nova Flat, Normal';text-align:center;letter-spacing:-3.92766px;word-spacing:7.85531px;text-anchor:middle;stroke-width:3.29188;stroke-linecap:round;stroke-linejoin:round;paint-order:markers stroke fill"
         aria-label="6" />
    </g>
  </g>
</svg>
