<?xml version="1.0" encoding="UTF-8" standalone="no"?>
<!-- Created with Inkscape (http://www.inkscape.org/) -->

<svg
   width="40mm"
   height="40mm"
   viewBox="0 0 141.73228 141.73228"
   id="svg5060"
   version="1.1"
   inkscape:version="1.3 (0e150ed6c4, 2023-07-21)"
   sodipodi:docname="w6_weiß.svg"
   xmlns:inkscape="http://www.inkscape.org/namespaces/inkscape"
   xmlns:sodipodi="http://sodipodi.sourceforge.net/DTD/sodipodi-0.dtd"
   xmlns="http://www.w3.org/2000/svg"
   xmlns:svg="http://www.w3.org/2000/svg"
   xmlns:rdf="http://www.w3.org/1999/02/22-rdf-syntax-ns#"
   xmlns:cc="http://creativecommons.org/ns#"
   xmlns:dc="http://purl.org/dc/elements/1.1/">
  <defs
     id="defs5062" />
  <sodipodi:namedview
     id="base"
     pagecolor="#ffffff"
     bordercolor="#666666"
     borderopacity="1.0"
     inkscape:pageopacity="0.0"
     inkscape:pageshadow="2"
     inkscape:zoom="2.8"
     inkscape:cx="100"
     inkscape:cy="91.607143"
     inkscape:document-units="px"
     inkscape:current-layer="g3368"
     showgrid="false"
     fit-margin-top="0"
     fit-margin-left="0"
     fit-margin-right="0"
     fit-margin-bottom="0"
     inkscape:window-width="1920"
     inkscape:window-height="1009"
     inkscape:window-x="1912"
     inkscape:window-y="-8"
     inkscape:window-maximized="1"
     inkscape:pagecheckerboard="0"
     inkscape:showpageshadow="2"
     inkscape:deskcolor="#d1d1d1" />
  <metadata
     id="metadata5065">
    <rdf:RDF>
      <cc:Work
         rdf:about="">
        <dc:format>image/svg+xml</dc:format>
        <dc:type
           rdf:resource="http://purl.org/dc/dcmitype/StillImage" />
      </cc:Work>
    </rdf:RDF>
  </metadata>
  <g
     inkscape:label="Ebene 1"
     inkscape:groupmode="layer"
     id="layer1"
     transform="translate(-123.73417,-604.60351)">
    <g
       id="g3368"
       transform="matrix(1.3609782,0,0,1.3624375,-44.589633,-219.13118)">
      <rect
         style="fill:#ffffff;fill-opacity:1;stroke:#000000;stroke-width:4.25197;stroke-miterlimit:4;stroke-dasharray:none;paint-order:fill markers stroke;stop-color:#000000"
         id="rect890"
         width="99.776787"
         height="99.776787"
         x="125.86015"
         y="606.72949"
         ry="4.3526788" />
      <path
         d="m 186.76618,648.26841 -4.23224,2.02412 h -0.23001 q 0,-3.05918 -1.6561,-4.99129 -2.07011,-2.36913 -4.87628,-2.36913 -3.33519,0 -5.3823,2.36913 -1.6561,1.90911 -1.6561,4.99129 v 4.27824 q 2.99017,-2.71415 7.0154,-2.71415 5.35931,0 8.51049,3.33519 3.10518,3.28919 3.10518,7.93545 0,4.69227 -3.10518,7.98146 -3.15118,3.33519 -8.51049,3.33519 -5.3593,0 -8.51048,-3.33519 -3.10518,-3.28919 -3.10518,-7.93545 v -12.88074 q 0,-4.87628 3.10518,-8.16547 3.15118,-3.33519 8.51048,-3.33519 5.08329,0 8.05046,3.10518 2.96717,3.08217 2.96717,6.37136 z m -11.01763,7.72845 q -3.28919,0 -5.3593,2.36913 -1.6561,1.90911 -1.6561,4.80728 0,2.82916 1.6561,4.76127 2.02411,2.36914 5.3593,2.36914 3.24319,0 5.35931,-2.36914 1.6561,-1.86311 1.6561,-4.76127 0,-2.87517 -1.6561,-4.80728 -2.02412,-2.36913 -5.35931,-2.36913 z"
         id="text4111"
         style="font-size:47.1067px;line-height:1.25;font-family:'Nova Round';-inkscape-font-specification:'Nova Round, Normal';letter-spacing:0px;word-spacing:0px;stroke-width:4.25197"
         aria-label="6" />
    </g>
  </g>
</svg>
