<?xml version="1.0" encoding="UTF-8" standalone="no"?>
<svg
   xmlns:dc="http://purl.org/dc/elements/1.1/"
   xmlns:cc="http://creativecommons.org/ns#"
   xmlns:rdf="http://www.w3.org/1999/02/22-rdf-syntax-ns#"
   xmlns:svg="http://www.w3.org/2000/svg"
   xmlns="http://www.w3.org/2000/svg"
   xmlns:sodipodi="http://sodipodi.sourceforge.net/DTD/sodipodi-0.dtd"
   xmlns:inkscape="http://www.inkscape.org/namespaces/inkscape"
   inkscape:export-ydpi="159.92"
   inkscape:export-xdpi="159.92"
   inkscape:export-filename="C:\Users\Charon\Dropbox\Projekt Tesserakt\Regelbuch\Abbildungen\Wahrnehmungsbereich.png"
   sodipodi:docname="wahrnehmungsbereich.svg"
   inkscape:version="1.0.1 (3bc2e813f5, 2020-09-07)"
   version="1.1"
   id="svg2"
   viewBox="0 0 380.33794 136.27341"
   height="38.459385mm"
   width="107.33983mm">
  <defs
     id="defs4">
    <marker
       inkscape:stockid="Arrow2Lstart"
       orient="auto"
       refY="0"
       refX="0"
       id="Arrow2Lstart"
       style="overflow:visible"
       inkscape:isstock="true">
      <path
         id="path4231"
         style="fill:#000000;fill-opacity:1;fill-rule:evenodd;stroke:#000000;stroke-width:0.625;stroke-linejoin:round;stroke-opacity:1"
         d="M 8.7185878,4.0337352 -2.2072895,0.01601326 8.7185884,-4.0017078 c -1.7454984,2.3720609 -1.7354408,5.6174519 -6e-7,8.035443 z"
         transform="matrix(1.1,0,0,1.1,1.1,0)"
         inkscape:connector-curvature="0" />
    </marker>
    <marker
       inkscape:stockid="Arrow2Lend"
       orient="auto"
       refY="0"
       refX="0"
       id="Arrow2Lend-0"
       style="overflow:visible"
       inkscape:isstock="true">
      <path
         id="path4831-9"
         style="fill:#000000;fill-opacity:1;fill-rule:evenodd;stroke:#000000;stroke-width:0.625;stroke-linejoin:round;stroke-opacity:1"
         d="M 8.7185878,4.0337352 -2.2072895,0.01601326 8.7185884,-4.0017078 c -1.7454984,2.3720609 -1.7354408,5.6174519 -6e-7,8.035443 z"
         transform="matrix(-1.1,0,0,-1.1,-1.1,0)"
         inkscape:connector-curvature="0" />
    </marker>
  </defs>
  <sodipodi:namedview
     inkscape:document-rotation="0"
     fit-margin-bottom="0"
     fit-margin-right="0"
     fit-margin-left="0"
     fit-margin-top="0"
     inkscape:window-maximized="1"
     inkscape:window-y="-8"
     inkscape:window-x="1912"
     inkscape:window-height="1057"
     inkscape:window-width="1920"
     showgrid="false"
     inkscape:current-layer="g5659"
     inkscape:document-units="mm"
     inkscape:cy="81.576953"
     inkscape:cx="187.19419"
     inkscape:zoom="0.98994949"
     inkscape:pageshadow="2"
     inkscape:pageopacity="0.0"
     borderopacity="1.0"
     bordercolor="#666666"
     pagecolor="#ffffff"
     id="base"
     showguides="true"
     inkscape:guide-bbox="true" />
  <metadata
     id="metadata7">
    <rdf:RDF>
      <cc:Work
         rdf:about="">
        <dc:format>image/svg+xml</dc:format>
        <dc:type
           rdf:resource="http://purl.org/dc/dcmitype/StillImage" />
        <dc:title />
      </cc:Work>
    </rdf:RDF>
  </metadata>
  <g
     transform="translate(-496.97355,-867.17317)"
     id="layer1"
     inkscape:groupmode="layer"
     inkscape:label="Ebene 1">
    <g
       inkscape:export-ydpi="28"
       inkscape:export-xdpi="28"
       transform="translate(29.294424,43.436559)"
       id="g5659">
      <g
         id="g2267"
         transform="translate(-400.44641,649.55354)">
        <path
           style="fill:none;stroke:#000000;stroke-width:1.29225;stroke-linecap:butt;stroke-linejoin:miter;stroke-miterlimit:4;stroke-dasharray:5.16902, 5.16902;stroke-dashoffset:0;stroke-opacity:1"
           d="m 1057.7934,174.18307 v 57.25445"
           id="path2069" />
        <g
           id="g1945"
           transform="translate(936.02603,-615.51593)">
          <path
             id="path1941"
             style="color:#000000;overflow:visible;fill:#000000;stroke:#000000;stroke-width:0.620223;stroke-miterlimit:4;stroke-dasharray:none"
             d="m 136.32791,845.05058 c 0,-1.52541 -6.51936,-2.76306 -14.56055,-2.76306 -8.04119,0 -14.56055,1.23765 -14.56055,2.76306 l -0.97595,3.73169 c -1e-5,1.6277 6.95614,2.948 15.5365,2.948 8.58036,0 15.5365,-1.3203 15.53649,-2.948 z"
             sodipodi:nodetypes="csccscc" />
          <path
             style="fill:#ffffff;fill-opacity:1;stroke:#000000;stroke-width:0.8025;stroke-linecap:round;stroke-linejoin:round;stroke-miterlimit:4;stroke-dasharray:none;stroke-opacity:1"
             d="m 121.76748,812.08265 a 3.3525246,3.3525246 0 0 0 -3.35258,3.35258 3.3525246,3.3525246 0 0 0 3.35258,3.35259 3.3525246,3.3525246 0 0 0 3.35259,-3.35259 3.3525246,3.3525246 0 0 0 -3.35259,-3.35258 z m -4.45563,7.81415 v 0.03 c -1.31578,0.19435 -2.31923,1.32264 -2.31923,2.69412 v 9.21942 c 0,1.37151 1.00345,2.49951 2.31923,2.69385 v 10.78594 h 8.91127 v -10.78594 c 1.31578,-0.19434 2.31923,-1.32234 2.31923,-2.69385 v -9.21943 c 0,-1.37148 -1.00345,-2.49976 -2.31923,-2.69412 v -0.03 h -0.4046 -8.10207 z"
             id="path1943"
             inkscape:connector-curvature="0" />
        </g>
        <path
           style="fill:none;fill-opacity:1;stroke:#000000;stroke-width:0.875;stroke-miterlimit:4;stroke-dasharray:none;stroke-dashoffset:0;stroke-opacity:1"
           d="m 1248.2941,310.0531 -185.2573,-77.79128 m -10.3035,0.19184 -184.4381,77.59944"
           id="path1947"
           inkscape:connector-curvature="0"
           sodipodi:nodetypes="cccc" />
        <path
           id="path1949"
           style="fill:none;fill-opacity:1;stroke:#000000;stroke-width:0.875;stroke-miterlimit:4;stroke-dasharray:none;stroke-dashoffset:0;stroke-opacity:1"
           d="m 1188.5729,285.19688 c -72.0442,30.25231 -188.85088,30.25231 -260.89506,0"
           sodipodi:nodetypes="cc" />
        <path
           id="path1951"
           style="fill:none;fill-opacity:1;stroke:#000000;stroke-width:0.875;stroke-miterlimit:4;stroke-dasharray:none;stroke-dashoffset:0;stroke-opacity:1"
           d="m 1164.9063,275.18317 c -58.9735,24.76376 -154.5884,24.76376 -213.5619,0"
           sodipodi:nodetypes="cc" />
        <path
           id="path1953"
           style="fill:none;fill-opacity:1;stroke:#000000;stroke-width:0.875;stroke-miterlimit:4;stroke-dasharray:none;stroke-dashoffset:0;stroke-opacity:1"
           d="m 1141.1772,265.18046 c -45.8682,19.26071 -120.2354,19.26071 -166.10368,0"
           sodipodi:nodetypes="cc" />
        <path
           id="path1955"
           style="fill:none;fill-opacity:1;stroke:#000000;stroke-width:0.875;stroke-miterlimit:4;stroke-dasharray:none;stroke-dashoffset:0;stroke-opacity:1"
           d="m 1117.4481,255.17774 c -32.763,13.75765 -85.8824,13.75765 -118.64547,0"
           sodipodi:nodetypes="cc" />
        <path
           id="path1957"
           style="fill:none;fill-opacity:1;stroke:#000000;stroke-width:0.875;stroke-miterlimit:4;stroke-dasharray:none;stroke-dashoffset:0;stroke-opacity:1"
           d="m 1093.719,245.17503 c -19.6578,8.2546 -51.5295,8.2546 -71.1873,0"
           sodipodi:nodetypes="cc" />
        <path
           id="path1959"
           style="fill:none;fill-opacity:1;stroke:#000000;stroke-width:0.875;stroke-miterlimit:4;stroke-dasharray:none;stroke-dashoffset:0;stroke-opacity:1"
           d="m 1075.5955,237.53532 c -9.6485,4.05155 -25.2918,4.05155 -34.9403,0"
           sodipodi:nodetypes="cc" />
        <path
           inkscape:connector-curvature="0"
           id="path4804-4"
           d="m 1056.2915,182.33715 -127.1184,52.6997"
           style="fill:none;fill-rule:evenodd;stroke:#000000;stroke-width:0.966384;stroke-linecap:butt;stroke-linejoin:miter;stroke-miterlimit:4;stroke-dasharray:none;stroke-opacity:1;marker-start:url(#Arrow2Lstart);marker-end:url(#Arrow2Lend-0)"
           sodipodi:nodetypes="cc" />
        <path
           style="fill:none;stroke:#000000;stroke-width:1.29225;stroke-linecap:butt;stroke-linejoin:miter;stroke-miterlimit:4;stroke-dasharray:5.16902, 5.16902;stroke-dashoffset:0;stroke-opacity:1"
           d="m 927.67784,227.94243 v 57.25445"
           id="path2071" />
        <g
           aria-label="WN * 5cm"
           transform="skewY(-22.697987)"
           id="text2111"
           style="font-style:normal;font-variant:normal;font-weight:normal;font-stretch:normal;font-size:8.407px;line-height:5.25435px;font-family:'Nova Round';-inkscape-font-specification:'Nova Round, Normal';font-variant-ligatures:normal;font-variant-caps:normal;font-variant-numeric:normal;font-variant-east-asian:normal;letter-spacing:0px;word-spacing:0px;fill:#000000;fill-opacity:1;stroke:none;stroke-width:0.210174">
          <path
             d="m 979.0976,625.36946 v 4.39233 q 0,0.88667 -0.55417,1.45727 -0.58291,0.59522 -1.51884,0.59522 -0.84563,0 -1.44085,-0.59522 -0.14778,-0.14778 -0.22167,-0.28735 -0.0944,0.14367 -0.22988,0.27503 -0.61985,0.60754 -1.43264,0.60754 -0.91951,0 -1.51884,-0.59522 -0.55417,-0.55007 -0.55417,-1.45727 v -4.02288 l 0.77994,-0.36945 h 0.0411 v 4.39233 q 0,0.55006 0.29556,0.89078 0.36535,0.42281 0.95646,0.42281 0.59112,0 0.95646,-0.42281 0.29556,-0.34072 0.29556,-0.89078 v -4.02288 l 0.77995,-0.36945 h 0.041 v 4.39233 q 0,0.55006 0.29556,0.89078 0.36534,0.42281 0.95646,0.42281 0.59111,0 0.95646,-0.42281 0.29556,-0.34072 0.29556,-0.89078 v -4.02288 l 0.77994,-0.36945 z"
             style="font-style:normal;font-variant:normal;font-weight:normal;font-stretch:normal;font-size:8.407px;font-family:'Nova Round';-inkscape-font-specification:'Nova Round, Normal';font-variant-ligatures:normal;font-variant-caps:normal;font-variant-numeric:normal;font-variant-east-asian:normal;stroke-width:0.210174"
             id="path2208" />
          <path
             d="m 980.73959,631.89638 v -4.39233 q 0,-0.88668 0.55418,-1.45727 0.5829,-0.59522 1.51884,-0.59522 0.92362,0 1.51884,0.59522 0.55417,0.55007 0.55417,1.45727 v 4.02288 l -0.77994,0.36945 h -0.0411 v -4.39233 q 0,-0.55007 -0.29556,-0.89078 -0.36534,-0.42282 -0.95646,-0.42282 -0.59112,0 -0.95646,0.42282 -0.29556,0.34071 -0.29556,0.89078 v 4.02288 l -0.77995,0.36945 z"
             style="font-style:normal;font-variant:normal;font-weight:normal;font-stretch:normal;font-size:8.407px;font-family:'Nova Round';-inkscape-font-specification:'Nova Round, Normal';font-variant-ligatures:normal;font-variant-caps:normal;font-variant-numeric:normal;font-variant-east-asian:normal;stroke-width:0.210174"
             id="path2210" />
          <path
             d="m 991.7902,625.36946 v 1.30949 l 0.77584,-0.52955 0.64448,0.44745 0.0205,0.0328 -1.1494,0.61574 1.1494,0.61575 -0.0205,0.0328 -0.64448,0.44744 -0.77584,-0.52954 v 0.97699 l -0.70606,0.3325 h -0.0411 v -1.30949 l -0.77584,0.52954 -0.64037,-0.44744 -0.0205,-0.0328 1.14529,-0.61575 -1.14529,-0.61574 0.0205,-0.0328 0.64037,-0.44745 0.77584,0.52955 v -0.97699 l 0.70606,-0.3325 z"
             style="font-style:normal;font-variant:normal;font-weight:normal;font-stretch:normal;font-size:8.407px;font-family:'Nova Round';-inkscape-font-specification:'Nova Round, Normal';font-variant-ligatures:normal;font-variant-caps:normal;font-variant-numeric:normal;font-variant-east-asian:normal;stroke-width:0.210174"
             id="path2212" />
          <path
             d="m 997.79168,629.76179 q 0,0 0.77995,-0.36945 h 0.041 v 0.36945 q 0,0.54185 0.29556,0.89078 0.35713,0.42281 0.95646,0.42281 0.58705,0 0.95655,-0.42281 0.2914,-0.33251 0.2914,-0.84973 0,-0.45155 -0.2709,-0.76763 -0.3366,-0.38587 -0.98526,-0.38587 -0.56239,0 -0.91131,0.18062 l -0.85794,-0.41461 0.68553,-2.88169 h 2.84478 v 0.041 l -0.3325,0.70605 h -1.88832 l -0.50081,1.83083 q 0.45565,-0.22167 0.96057,-0.22167 0.93186,0 1.49416,0.48849 0.5829,0.50491 0.5829,1.41622 0,0.83741 -0.5501,1.42443 -0.5623,0.59522 -1.51875,0.59522 -0.95646,0 -1.51885,-0.59522 -0.55417,-0.58702 -0.55417,-1.45727 z"
             style="font-style:normal;font-variant:normal;font-weight:normal;font-stretch:normal;font-size:8.407px;font-family:'Nova Round';-inkscape-font-specification:'Nova Round, Normal';font-variant-ligatures:normal;font-variant-caps:normal;font-variant-numeric:normal;font-variant-east-asian:normal;stroke-width:0.210174"
             id="path2214" />
          <path
             d="m 1006.6133,629.91367 v 0.25862 q 0,0.67732 -0.509,1.17812 -0.4762,0.46387 -1.1946,0.46387 -0.7101,0 -1.1945,-0.46387 -0.509,-0.49259 -0.509,-1.17812 v -1.3957 q 0,-0.68142 0.509,-1.17813 0.4761,-0.46386 1.1945,-0.46386 0.702,0 1.1946,0.46386 0.509,0.48029 0.509,1.05909 v 0.008 l -0.78,0.36945 h -0.041 v -0.25862 q 0,-0.47207 -0.2586,-0.68963 -0.2545,-0.22167 -0.624,-0.22167 -0.3694,0 -0.628,0.22167 -0.2546,0.21756 -0.2546,0.68963 v 1.3957 q 0,0.47207 0.2546,0.69374 0.2586,0.21756 0.628,0.21756 0.3695,0 0.624,-0.22167 0.2586,-0.22167 0.2586,-0.5788 l 0.7799,-0.36945 z"
             style="font-style:normal;font-variant:normal;font-weight:normal;font-stretch:normal;font-size:8.407px;font-family:'Nova Round';-inkscape-font-specification:'Nova Round, Normal';font-variant-ligatures:normal;font-variant-caps:normal;font-variant-numeric:normal;font-variant-east-asian:normal;stroke-width:0.210174"
             id="path2216" />
          <path
             d="m 1007.8448,631.89638 v -3.11979 q 0,-0.67732 0.509,-1.17813 0.4762,-0.46386 1.1945,-0.46386 0.6527,0 1.1289,0.47618 0.09,0.0903 0.1642,0.21346 0.074,-0.11905 0.1642,-0.20936 0.5131,-0.48028 1.1289,-0.48028 0.7101,0 1.1945,0.46386 0.509,0.4926 0.509,1.17813 v 2.75034 l -0.7799,0.36945 h -0.041 v -3.11979 q 0,-0.47207 -0.2587,-0.68963 -0.2545,-0.22167 -0.6239,-0.22167 -0.3695,0 -0.6281,0.22167 -0.2545,0.21756 -0.2545,0.68963 v 2.75034 l -0.7799,0.36945 h -0.041 v -3.11979 q 0,-0.47207 -0.2586,-0.68963 -0.2545,-0.22167 -0.624,-0.22167 -0.3694,0 -0.628,0.22167 -0.2545,0.21756 -0.2545,0.68963 v 2.75034 l -0.78,0.36945 z"
             style="font-style:normal;font-variant:normal;font-weight:normal;font-stretch:normal;font-size:8.407px;font-family:'Nova Round';-inkscape-font-specification:'Nova Round, Normal';font-variant-ligatures:normal;font-variant-caps:normal;font-variant-numeric:normal;font-variant-east-asian:normal;stroke-width:0.210174"
             id="path2218" />
        </g>
      </g>
    </g>
  </g>
</svg>
