<?xml version="1.0" encoding="UTF-8" standalone="no"?>
<!-- Created with Inkscape (http://www.inkscape.org/) -->

<svg
   width="39.182598mm"
   height="36.281345mm"
   viewBox="0 0 39.182598 36.281345"
   version="1.1"
   id="svg7860"
   xml:space="preserve"
   inkscape:version="1.3.2 (091e20e, 2023-11-25, custom)"
   sodipodi:docname="wahrnehmungsbereich.svg"
   xmlns:inkscape="http://www.inkscape.org/namespaces/inkscape"
   xmlns:sodipodi="http://sodipodi.sourceforge.net/DTD/sodipodi-0.dtd"
   xmlns="http://www.w3.org/2000/svg"
   xmlns:svg="http://www.w3.org/2000/svg"><sodipodi:namedview
     id="namedview7862"
     pagecolor="#ffffff"
     bordercolor="#666666"
     borderopacity="1.0"
     inkscape:showpageshadow="2"
     inkscape:pageopacity="0.0"
     inkscape:pagecheckerboard="0"
     inkscape:deskcolor="#d1d1d1"
     inkscape:document-units="mm"
     showgrid="false"
     inkscape:zoom="4.5506011"
     inkscape:cx="69.111749"
     inkscape:cy="80.538811"
     inkscape:window-width="1920"
     inkscape:window-height="1009"
     inkscape:window-x="1912"
     inkscape:window-y="-8"
     inkscape:window-maximized="1"
     inkscape:current-layer="g13989"
     showguides="true" /><defs
     id="defs7857" /><g
     inkscape:label="Ebene 1"
     inkscape:groupmode="layer"
     id="layer1"
     transform="translate(-109.39054,-206.22105)"><g
       id="g13922"
       transform="matrix(0.185678,-0.69295971,0.69295971,0.185678,-238.73583,306.06079)" /><g
       id="g13989"><path
         style="fill:#000000;fill-opacity:1;stroke-width:0.0388611"
         d="m 125.80295,239.48177 c 0.2801,-0.30715 -0.11615,-0.21008 0.13125,-0.47024 -0.18571,-0.14399 0.12273,-0.38346 -0.25474,-0.39436 0.16839,-0.47796 -0.19516,0.23467 -0.1032,-0.27445 0.29892,-0.12971 0.13559,-0.18579 0.2966,-0.35993 0.15616,-0.1334 0.34017,0.0881 0.64546,0.18507 -0.005,0.14921 -0.17047,0.73413 0.21227,0.54666 0.46882,0.0659 -0.22442,-0.33262 -0.15208,-0.26051 0.60893,0.23163 0.14869,-0.31955 0.11727,-0.32314 -0.2684,-0.0355 -0.30395,-0.36807 -0.0559,-0.54835 0.0775,-0.41011 -0.12513,-0.68995 -0.28554,-0.52417 -0.0387,-0.14199 -0.23879,0.21763 -0.41852,0.11191 0.25184,0.19843 0.35148,0.16837 0.33123,0.0745 0.34079,0.12931 -0.0547,0.277 -0.16904,0.47025 -0.21826,0.38918 -0.14309,-0.51278 -0.44361,-0.0631 -0.10785,0.0916 -0.12833,-0.55724 -0.30435,-0.52643 0.0669,-0.32133 0.0156,-0.30639 -0.0651,-0.66908 0.0377,-0.29108 0.20863,-0.25851 0.0153,-0.3557 -0.10998,-0.15395 0.20949,-0.32317 0.0466,-0.0326 0.2326,-0.37329 0.32776,0.36956 0.5667,0.18764 0.36479,0.11672 -0.27433,-0.27644 0.16062,-0.15582 -0.0823,-0.0519 -0.0806,-0.44958 0.0145,-0.23892 0.22313,-0.0381 0.11761,0.52739 0.29934,0.16787 0.25945,-0.0487 0.26962,0.24892 0.49095,0.0702 0.26595,0.0153 0.1534,-0.21964 0.2939,-0.31667 -0.25063,-0.27764 -0.46716,-0.43679 -0.60915,-0.8413 -0.0986,-0.31891 -0.43446,-0.54146 -0.41522,-0.23337 -0.2961,0.0399 -0.28482,0.64043 -0.37792,0.0559 -0.36355,-0.0713 -0.14783,-0.36316 -0.25552,-0.61025 0.15631,-0.16408 0.45866,0.39191 0.5055,0.39592 -0.0401,0.20486 0.2191,-0.20068 0.40849,-0.14807 0.14608,-0.17755 0.59097,0.10182 0.28593,-0.31212 -0.0929,-0.0194 0.0175,-0.46992 -0.36313,-0.27227 0.12,0.22748 -0.2424,0.23865 -0.25276,-0.0137 -0.0309,0.344 -0.14738,-0.5633 -0.52978,-0.34653 -0.50069,-0.0862 0.53353,-0.35681 0.0184,-0.42432 -0.34481,-0.37945 0.28249,-0.52066 0.46384,-0.30929 -0.15638,-0.25168 0.23972,0.11855 -0.007,-0.24054 -0.13957,0.20409 0.12306,-0.7155 -0.26562,-0.32921 -0.21415,-0.0858 0.36974,0.36961 -0.0575,0.21572 -0.15231,-0.31252 -0.35325,-0.15158 0.0176,-0.35884 0.24115,-0.24586 -0.0798,0.24547 0.22213,-0.0417 0.20468,-0.0621 -0.10559,-0.13106 0.26735,-0.34569 -0.0292,-0.29212 0.40067,-0.62827 0.42111,-0.26075 0.18895,-0.21811 -0.29546,-0.40459 -0.23986,-0.70047 -0.18207,0.004 0.59737,-0.7439 -0.0503,-0.5636 0.14807,0.15035 -0.1464,0.19463 -0.20795,0.14718 -0.15764,0.27688 -0.1937,-0.32863 -0.25479,-0.001 -0.1051,-0.2204 0.059,-0.638 -0.20729,-0.38948 -0.10393,0.26493 0.0148,-0.51338 0.0206,-0.38682 0.39068,0.28377 0.58014,-0.14565 0.8833,-0.16181 -0.0591,-0.40495 0.47802,-0.0424 0.58028,-0.33078 0.20996,0.10751 0.13715,-0.33802 0.35175,0.0935 0.0524,-0.0837 0.45787,0.12321 0.44531,-0.0591 0.20071,-0.14898 0.21551,0.19641 0.52309,0.006 0.12697,-0.0452 0.17106,-0.18914 0.18264,-0.36718 0.28737,0.19241 0.14797,-0.096 0.0975,-0.11085 0.27795,-0.0617 0.32605,0.23589 0.17302,0.24156 0.0839,0.20975 -0.31511,-0.0461 0.13661,0.2046 -0.26756,0.053 0.32985,0.34165 0.30566,-0.0221 0.19497,0.1846 0.57007,0.40014 0.33954,0.45501 -0.1619,-0.2247 -0.0928,0.10692 -0.39571,0.10549 0.15228,0.23633 0.42467,-0.048 0.50906,0.0608 0.0968,-0.1522 0.19311,-0.23811 0.42545,-0.019 0.37796,0.006 0.33194,-0.19385 0.52355,-0.36567 0.19349,-0.003 -0.0146,-0.15673 0.0246,-0.19498 0.43051,-0.26194 0.42767,-0.4161 0.75088,-0.58673 0.18239,0.13418 0.4551,0.18128 0.17655,0.43432 -0.23065,0.41264 0.0395,0.37317 0.25579,0.19167 -0.0795,-0.0927 0.41913,-0.24157 0.43713,0.039 -0.14316,0.3774 0.30919,0.30009 0.0954,-0.0599 0.3395,-0.3018 0.30385,0.20016 0.2919,0.28935 -0.1641,-0.0818 -0.0726,0.2372 0.10273,0.10875 -0.0943,0.0805 -0.0266,0.29955 -0.32785,0.14382 0.14638,-0.24635 -0.47014,0.2559 -0.35403,-0.0966 -0.53377,0.39625 0.50179,0.39965 0.15799,0.7247 0.17182,0.0338 0.22438,-0.0517 0.36892,0.19452 -0.008,-0.38151 0.33524,0.4456 0.44648,0.004 0.27205,-0.21328 0.25685,0.35172 0.51302,-0.0196 -0.18613,0.65274 0.32777,0.20898 0.2971,0.20861 0.003,0.13676 0.19301,0.30538 0.40386,0.21732 -0.0702,0.39017 -0.001,0.55494 0.18668,0.34485 -0.17833,-0.0878 0.36767,-0.25876 0.088,-0.48418 -0.008,-0.28345 -0.38427,-0.20449 -0.0371,-0.42816 -0.0254,-0.27231 -0.21357,-0.0779 -0.26465,-0.39987 -0.27752,-0.027 -0.55418,0.36541 -0.23352,0.40123 0.11843,0.0579 -0.18414,0.27603 -0.19883,-0.0945 -0.12077,0.0491 -0.32181,0.2303 -0.12397,0.0105 -0.24398,-0.19451 -0.40065,-0.20308 -0.561,-0.13836 -0.23745,-0.34306 0.52253,-0.64447 0.25915,-0.83395 0.13352,-0.27141 0.41502,-0.3174 0.52369,-0.33986 0.20667,-0.37742 0.37594,0.35365 0.48769,0.21582 -0.17387,0.10821 0.21384,0.42772 -0.12824,0.38555 0.0252,0.54328 0.45994,0.2821 0.42701,-0.034 -0.26663,-0.38326 -0.12293,-0.41162 0.11869,-0.16096 0.11552,0.0578 0.48039,0.37643 0.1846,0.39839 -0.23551,0.22363 -0.18388,-0.18258 -0.0864,-0.04 -0.0205,-0.54388 -0.34908,0.21481 -0.10402,0.2812 -0.42185,0.0635 0.0123,0.14676 -0.0646,0.38907 0.39739,0.14901 0.33695,-0.30943 0.49639,0.1757 -0.008,0.14131 -0.19432,-0.19269 -0.19757,-0.005 -0.19601,-0.0439 -0.0397,0.51112 0.18258,0.35486 -0.17357,-0.27217 0.52876,-0.24431 0.11472,-0.0136 0.18541,0.23151 -0.12036,0.34314 -0.0758,0.15473 -0.68469,0.0726 0.16023,0.79469 0.10884,0.31322 0.11832,0.18523 0.2572,-0.47179 0.49554,0.0174 -0.17439,0.0727 0.20181,0.0342 0.2281,0.35271 0.24736,0.0826 0.30966,0.19971 0.62872,0.13467 0.16394,0.30488 -0.21255,0.005 -0.0149,0.34112 -0.19129,0.34008 0.16916,0.36904 0.31544,0.18822 0.007,0.0688 0.32763,-0.34607 0.0741,0.0929 -0.0325,0.23045 -0.38636,0.25704 -0.28092,0.69877 -0.0565,0.10936 -0.1006,0.26394 0.11968,0.25701 -0.5122,0.58029 0.19325,0.44412 0.4612,0.18841 -0.26335,-0.17714 0.60493,-0.61838 0.53019,-0.35484 0.19168,-0.48466 0.47872,0.12161 0.63934,0.0905 0.14042,-0.27385 0.42422,0.081 0.49822,-0.068 0.34423,0.28591 -0.11974,0.26034 0.11602,0.47761 0.11342,0.097 -0.21687,0.23376 0.0443,0.39201 -0.35923,0.32192 0.1962,-0.067 -0.055,0.35582 -0.0902,0.19378 -0.0621,0.11311 0.063,0.27068 -0.37945,0.0887 -0.34459,0.093 -0.13306,0.21802 -0.16692,0.22878 -0.39906,-0.14297 -0.31615,-0.16138 -0.20306,-0.10764 0.2592,-0.28304 0.0355,-0.44119 0.0813,-0.35907 -0.42882,-0.068 -0.41153,-0.18898 -0.26252,0.0975 0.33077,0.22229 -0.0591,0.1972 -0.48741,-0.0506 -0.0295,-0.62372 -0.40323,-0.4977 -0.30381,0.18944 0.27886,0.41921 -0.32146,0.2197 -0.19359,-0.14226 -0.75584,-0.0632 -0.36349,0.17603 0.0622,-0.17071 0.0303,0.39683 0.26758,0.22943 -0.15347,0.22252 -0.0573,0.2633 0.046,0.34229 -0.16643,0.24056 0.0222,0.29812 -0.19606,0.60057 -0.27232,0.42837 0.19872,0.11803 0.22815,0.21652 0.0144,0.23249 0.33243,-0.0335 0.21718,0.39201 0.29222,-0.08 0.59645,-0.0571 0.78572,0.31537 0.0186,0.11902 -0.0536,0.38546 0.0432,0.59224 -0.32638,-0.31776 -0.49197,0.64998 -0.11403,0.26745 0.14881,-0.19401 0.15413,0.47015 0.30549,0.55249 0.11075,0.27178 -0.67037,-0.11653 -0.37986,0.39626 -0.13246,0.40434 -0.32784,0.20451 -0.34102,-0.0573 -0.0724,-0.25727 -0.11133,-0.72077 -0.45197,-0.33988 0.43754,-0.008 -0.28833,0.4675 0.13195,0.49242 -0.47233,0.27276 0.30825,0.15832 -0.26589,0.29959 -0.29576,0.33007 0.10643,0.0236 0.0966,0.10898 0.29358,-0.0349 0.0291,0.42645 0.0107,0.4691 -0.25689,0.10182 0.091,0.50154 -0.18561,0.64347 0.37547,0.26528 -0.30413,-0.20529 -0.24472,0.0319 -0.31764,-0.13048 -0.26616,0.0463 -0.50722,-0.19866 0.0753,0.0575 -0.0204,0.41281 0.15048,0.47516 0.0105,0.009 -0.40542,-0.0257 -0.15757,0.29593 -0.0874,0.0671 0.20623,0.28364 -0.0143,0.46087 0.1579,0.0454 -0.18276,0.79449 -0.44871,0.33801 -0.51108,-0.40793 0.047,0.0779 -0.072,0.4184 0.32321,0.10364 0.23384,-0.30385 0.40186,-0.0335 -0.2942,0.13094 0.10937,0.53023 -0.19553,0.21002 -0.11082,0.32538 -0.0631,0.61696 -0.29049,0.34562 -0.0501,0.0862 -0.0891,0.24672 -0.31373,0.16882 -0.15223,-0.32174 -0.0924,0.3264 -0.4011,0.13149 -0.0345,0.37539 -0.22753,-0.49541 -0.39148,-0.016 -0.17899,0.0114 -0.24935,-0.1395 -0.44017,-0.33748 0.19054,0.0489 0.32347,-0.39758 0.1085,-0.32815 -0.13564,-0.0226 -0.19742,0.0417 -0.44231,-0.15866 -0.16534,0.35713 -0.1386,0.10355 -0.33138,0.0412 0.004,0.44345 -0.11175,0.5031 -0.41679,0.43249 -0.19434,-0.004 -0.4829,0.34409 -0.68905,0.0983 -0.25981,-0.12562 -0.41393,0.21185 -0.44795,-0.28359 -0.37044,-0.15518 0.0943,-0.21516 0.24815,0.0377 0.089,-0.2983 0.2109,-0.44281 -0.12195,-0.46641 0.021,-0.015 -0.32807,0.25383 -0.32929,-0.11644 0.0197,-0.15467 -0.44696,0.23046 -0.57741,-0.12022 0.22825,-0.16994 -0.30153,-0.32509 -0.25716,-0.26807 -0.1726,-0.43677 0.4087,-0.0226 -0.0862,-0.36709 -0.4057,0.01 0.0111,0.34671 -9.2e-4,0.59315 -0.4592,0.38132 -0.0671,-0.25464 -0.51063,-0.0455 -0.34127,-0.56851 -0.17216,0.36703 -0.23187,0.29631 -0.24432,0.46535 -0.37849,-0.16414 -0.36988,-0.52483 -0.16959,0.30272 0.0269,0.0738 -0.17373,-0.13627 -0.44466,-0.19387 -0.5152,0.73666 -0.10661,0.29028 0.32646,-0.30411 -0.23502,0.23563 0.11844,0.19014 -0.10852,0.3415 -0.5976,0.49436 -0.006,0.50608 0.14536,-0.0752 0.23605,0.17077 0.16225,-0.016 0.19945,0.089 0.0717,0.0975 0.27005,0.0719 0.0997,0.67501 -0.69561,-0.21431 -0.57065,0.20917 -0.24806,-0.0504 -0.16822,-0.0659 -0.45674,0.0105 0.0963,0.30043 -0.2476,-0.34685 -0.20809,0.05 -0.36129,0.0738 -0.34391,0.35184 -0.59106,-0.0829 -0.23414,0.001 -0.0608,-0.16022 -0.41056,-0.22165 -0.0619,0.41036 0.041,-0.4557 -0.0265,-0.19693 0.12144,-0.46689 -0.18769,0.10634 -0.35132,-0.30205 -0.46802,0.32669 -0.29349,-0.32951 -0.47081,-0.19741 0.15407,-0.0882 0.10404,-0.51663 0.22605,-0.34997 0.0587,0.0926 0.68419,0.138 0.50181,-0.22304 0.076,-0.29348 -0.20199,0.028 -0.35435,-0.25226 0.037,0.3003 -0.20978,-0.10255 -0.24909,-0.14903 -0.13763,-8.4e-4 0.12614,-0.85337 0.21446,-0.52084 0.48533,0.068 0.0462,-0.33282 0.0815,-0.45869 -0.10308,0.24283 0.1661,-0.73648 -0.24373,-0.1948 0.12514,0.4273 -0.5118,0.41333 -0.45549,0.24318 -0.0271,0.018 -0.32521,-0.47708 -0.36217,0.0138 -0.35715,0.23292 -0.30836,0.53689 0.002,0.43809 0.0983,0.24393 -0.28381,0.40162 -0.33629,0.27694 -0.40411,-0.12934 0.22142,-0.55784 -0.1773,-0.3835 -0.0388,-0.19522 -0.50048,0.31267 -0.46493,0.0302 z"
         id="path13914" /><path
         style="fill:#000000;fill-opacity:1;stroke-width:0.0277656"
         d="m 109.69541,233.36429 c 0.27676,0.0123 0.10697,-0.12223 0.3221,-0.14482 0.0518,-0.12072 0.25518,-0.0674 0.12142,-0.27854 0.33708,-0.0761 -0.22427,-0.0619 0.14203,-0.16248 0.17305,0.1504 0.22055,-0.0966 0.36768,0.0813 -0.0113,-0.0118 0.19075,0.3848 0.0324,0.44366 -0.21138,-0.0347 -0.30361,0.27738 -0.1519,0.35148 0.32777,0.19945 -0.11934,-0.62716 0.15429,-0.0852 0.17567,0.0862 0.12379,-0.23097 0.17783,-0.34015 -0.13247,-0.16426 0.30194,-0.11347 0.43744,-0.24396 0.26001,-0.16325 0.0407,-0.23499 0.0171,-0.27565 0.063,-0.0804 -0.22536,-0.0555 -0.24016,-0.20302 -0.008,0.23039 0.051,0.27635 0.0964,0.22686 0.0729,0.26828 -0.24961,0.0698 -0.44438,0.0734 0.0672,-0.0527 0.14084,-0.32383 -0.0835,-0.32114 0.20023,-0.006 0.16246,-0.33326 0.24216,-0.34383 0.19897,-0.0622 0.16099,-0.23251 0.41133,-0.34223 0.1867,0.004 0.0606,-0.0308 0.18214,-0.16299 0.12152,0.017 0.004,0.12506 0.10613,0.15195 -0.0512,0.10281 -0.10219,0.37654 0.0617,0.41728 -0.0174,-0.34382 0.13153,0.10665 0.14751,-0.13134 0.1089,-0.20767 0.22071,0.12806 0.007,0.14503 -0.0216,0.19091 0.22674,0.007 0.17308,0.23728 -0.0491,0.10985 0.18287,0.30618 0.30668,0.21626 0.11434,0.11916 0.20668,-0.29585 0.14669,-0.29347 0.0394,-0.29884 0.31538,-0.43851 0.30071,-0.76053 -0.117,-0.002 -0.14177,0.0393 -0.32452,-0.0694 -0.29583,0.23001 0.032,-0.2611 -0.006,-0.3 0.10672,-0.13816 0.38645,-0.37134 0.27019,0.0331 0.0274,0.17994 -0.25504,0.28593 0.0648,0.24809 0.0533,0.15258 0.27475,0.23244 0.34983,0.33677 0.0217,-0.24083 0.356,-0.2405 0.0884,-0.47267 -0.12695,0.18017 -0.16772,-0.0835 -0.11968,-0.15147 -0.12619,0.0949 0.27987,-0.39107 -0.0492,-0.4951 0.0257,-0.26898 0.43153,0.21134 0.29783,-0.12474 0.0762,-0.3597 0.41628,-0.041 0.3722,0.15062 0.0347,-0.13642 0.13987,0.11988 0.0921,-0.12226 -0.007,0.0255 0.45498,-0.22132 0.12057,-0.27032 -0.0346,-0.14736 -0.0716,0.39097 -0.16044,0.0168 0.0803,-0.27999 0.0517,-0.14742 0.31644,-0.058 -0.24328,2.3e-4 0.23951,0.1805 0.10466,0.0578 0.25785,0.0543 0.54061,-0.10178 0.64384,0.086 -0.21891,0.26684 0.15293,-0.0103 0.0666,-0.0863 0.063,-0.35882 0.2356,-0.26391 0.53103,-0.32397 0.0602,-0.35543 -0.2067,0.0544 -0.16544,-0.22301 -0.15674,0.0799 -0.18913,-0.0759 -0.11994,-0.214 -0.19806,0.0852 0.16657,-0.10706 0.0954,-0.16006 0.31304,-0.0925 -0.3798,-0.0343 0.048,-0.15612 0.21661,-0.23417 0.0953,0.12998 0.32715,0.23571 0.16931,0.094 0.31137,0.10911 0.49206,0.1731 0.0771,0.175 0.27703,0.28366 0.37631,0.26142 -0.12333,0.23829 0.0893,0.39657 0.19989,0.47056 0.0533,0.002 0.0917,0.29686 0.26548,0.2813 0.0507,0.0877 0.28682,-0.21248 0.2065,0.0737 0.19936,0.008 -0.003,-0.23647 0.15084,-0.0125 0.0585,0.21984 -0.15171,0.0277 -0.16413,0.1286 -0.0665,-0.22735 -0.002,0.22834 -0.0629,0.12291 -0.0661,0.24151 0.39522,0.1508 0.14561,0.47556 0.0638,0.15048 -0.0831,0.15316 -0.0672,-0.0284 -0.0506,0.0972 -0.35285,-0.18104 -0.20588,0.0857 0.18611,0.0918 0.10332,0.17058 0.27287,0.19388 0.0946,-0.0232 0.0751,0.37457 0.27071,0.37292 0.10399,-0.0798 0.39135,0.11714 0.31723,-0.066 0.34016,0.1481 0.44825,0.0869 0.66621,0.20564 0.0391,0.13269 0.0973,0.33518 -0.1126,0.29453 -0.29457,0.0516 -0.33998,0.0667 -0.0519,0.2638 0.0144,-0.1781 0.26392,0.0831 0.20387,0.21914 -0.33403,0.15021 -0.0479,0.20219 0.0828,0.10387 0.29211,-0.003 -0.13891,0.36878 -0.12023,0.18738 -0.1198,0.10775 0.0685,0.12481 -0.0576,0.17025 -0.26542,0.0255 0.0402,-0.2639 -0.22398,-0.24678 -0.0877,-0.11811 -0.005,-0.2827 -0.258,-0.078 -0.0102,0.11773 0.13442,0.36059 -0.10846,0.3104 0.0991,0.0903 0.0509,0.17045 0.0698,0.30511 0.14985,-0.1587 -0.1195,0.3889 0.15799,0.25939 0.23504,0.073 -0.0924,0.29654 0.22665,0.29649 -0.30652,0.10366 -0.21344,0.30713 0.0785,0.23717 -0.30993,0.0561 0.0182,0.28861 -0.0979,0.40314 -0.25004,0.0497 -0.1851,0.20692 -0.0495,0.1987 -0.0422,-0.15335 0.32906,0.13334 0.31455,-0.14425 0.16039,-0.12243 -0.0453,-0.30985 0.22988,-0.19555 0.11503,-0.13028 0.007,-0.1717 0.094,-0.34007 -0.0909,-0.23003 -0.49606,-0.0611 -0.25862,0.0573 -0.31022,0.12818 0.0481,-0.30303 -0.17919,-0.22969 -0.11539,0.0173 0.12918,-0.0609 0.0245,-0.26313 -0.0694,-0.0395 -0.25996,-0.21878 0.0167,-0.23769 0.20645,0.0124 0.39479,-0.0141 0.5069,-0.0765 0.25114,-0.0281 0.23312,0.1973 0.43046,0.15303 0.12062,0.15454 -0.0906,0.33149 -0.006,0.3924 -0.13963,-0.008 -0.16069,0.23833 -0.30038,0.0918 -0.33429,0.4093 0.34276,0.32491 0.33626,-0.001 0.10656,0.0439 -0.0156,0.4186 0.001,0.53448 -0.18464,0.0938 -0.28275,-0.21111 -0.14503,-0.1363 -0.1405,0.17535 0.33321,-0.22932 -0.0109,-0.0729 -0.23005,0.002 -0.13242,0.28505 -0.3221,0.0446 -0.002,0.18469 -0.20976,0.31126 0.0599,0.44733 0.0708,-0.08 -0.1644,0.37669 -0.0984,0.0182 -0.0205,0.0246 -0.23104,-0.0497 -0.23417,0.18401 -0.009,0.0867 0.35024,0.0317 0.22745,0.16041 -0.10297,-0.0334 -0.30083,0.21399 -0.25661,0.0482 0.0386,-0.2456 -0.52116,-0.0591 -0.19939,0.20063 0.0798,-0.0225 0.10832,-0.0512 0.11701,0.0295 0.29175,-0.20311 0.17936,0.38094 0.13205,0.17963 0.0411,0.1727 -0.0576,0.29613 -0.0365,0.48503 -0.0157,0.0382 0.28144,0.42464 0.0556,0.31462 0.0173,-0.0644 -0.44557,0.25436 -0.19443,0.27279 0.1335,0.0706 0.11625,0.13798 0.2248,0.0928 0.0533,0.15286 -0.29601,0.0753 -0.36551,0.0538 -0.13659,0.0785 -0.55669,0.11328 -0.35609,0.28443 -0.56477,-0.0546 -0.21554,0.2971 0.0635,0.3627 0.0851,-0.24965 0.54529,0.18442 0.49277,0.16881 0.33515,0.0924 -0.0597,0.42765 0.29882,0.51006 0.0513,0.12593 0.12816,0.30596 10e-4,0.34998 -0.10974,-0.14587 -0.15311,0.29249 -0.22115,0.10386 -0.12609,0.23059 -0.30764,0.10464 -0.20239,0.23464 -0.19839,0.0747 -0.27205,0.0151 -0.26536,0.19459 -0.20757,-0.18705 -0.19938,-0.1688 -0.18072,0.009 -0.2023,-0.008 -0.0846,-0.29478 -0.0402,-0.25309 0.0197,-0.1253 0.27733,-0.011 0.32499,-0.20915 0.10077,-0.0761 -0.23139,-0.3181 -0.11158,-0.23913 -0.22186,-0.1527 0.0269,0.30594 -0.17306,-0.0401 -0.0821,-0.29553 0.4121,-0.21544 0.0981,-0.41269 -0.20059,0.0368 -0.0765,0.28523 -0.21813,-0.0768 0.0254,-0.31127 -0.36808,-0.30871 -0.22043,-0.18096 -0.0237,0.13229 -0.1972,0.17251 -0.0527,0.2882 -0.19502,-0.003 -0.17456,0.0768 -0.17729,0.16594 -0.20691,-10e-4 -0.1632,0.13423 -0.42659,0.12712 -0.36052,0.0128 0.0158,0.16539 -0.0284,0.22319 -0.12814,0.10271 0.15925,0.18183 -0.13379,0.28799 0.21474,0.13213 0.24542,0.41345 0.14675,0.64933 -0.25027,-0.0852 -0.29643,0.42238 -0.36709,0.06 -0.35562,-0.11888 -0.31528,0.2921 -0.0788,0.18617 -0.11307,0.15954 -0.23812,0.36841 -0.32175,0.44413 -0.13772,-0.31849 -0.25232,-0.13791 -0.49469,-0.073 -0.16307,-0.0657 0.0497,-0.24271 0.1262,-0.35233 0.33897,-0.12492 -0.0994,-0.43793 -0.0399,-0.20849 -0.1342,0.17901 -0.32379,-0.0969 -0.25231,0.18136 -0.35458,-0.16854 0.0387,0.2472 -0.2833,-0.0364 -0.26908,-0.0743 -0.0438,0.10723 -0.005,0.0772 0.10446,0.18361 -0.21006,0.20615 -0.28119,0.22056 -0.16407,-0.11181 -0.25103,0.25842 -0.44669,0.15074 0.006,0.33018 -0.0103,-0.26298 -0.12098,-0.13256 -0.0575,-0.23881 -0.13827,-0.14089 -0.099,-0.38167 9.8e-4,0.0871 -0.29242,0.14838 -0.19999,0.33086 -0.15774,-0.38718 -0.2641,0.12003 -0.43722,0.13447 0.003,0.0816 -0.5278,0.25655 -0.44606,-0.0333 0.0122,-0.22529 -0.0354,-0.44625 -0.10077,-0.0769 -0.24396,0.0763 -0.17443,0.26464 -0.0197,0.26054 -0.01,-0.15643 0.15852,0.24027 -0.10147,0.0584 -0.12463,0.22998 -0.0598,0.0797 -0.1191,-0.005 -0.22434,0.14303 -0.32615,0.1753 -0.27843,-0.0239 -0.15773,0.0666 -0.21133,-0.0869 -0.25409,-0.24732 -0.11583,0.20115 -0.27506,-0.10397 -0.29995,-0.0703 0.29137,-0.31221 -0.31627,-0.18569 -0.0834,-0.42585 -0.0973,-0.33439 0.19081,0.003 0.30655,-0.22258 -0.13627,-0.0468 -0.094,-0.18949 -0.18531,-0.36565 -0.30804,0.13272 0.0567,-0.35935 -0.2492,-0.071 -0.26815,0.0265 -0.17104,-0.0554 -0.35499,-0.24627 -0.20304,-0.0404 -0.32589,-0.22526 -0.34687,-0.47499 -0.23198,0.0667 0.0818,-0.27963 0.0416,-0.36478 0.14035,0.0773 -0.015,0.45021 0.28912,0.24713 0.10857,0.0105 0.003,-0.34302 -0.0919,-0.20528 -0.15749,-0.19456 0.20808,-0.30786 -0.11156,-0.34987 -0.18997,-0.32636 0.12644,-0.17463 0.0614,-0.52974 -0.17576,0.13841 0.13545,-0.28054 0.12199,0.008 0.0488,-0.40797 -0.24667,-0.31493 -0.2933,-0.0219 -0.15417,0.17072 -0.31229,-0.18785 -0.13711,-0.10932 -0.0238,-0.11365 -0.13395,-0.27204 -0.0942,-0.35065 -0.27923,0.0899 -0.16677,0.23199 -0.39038,0.15077 -0.33503,0.0133 0.3918,-0.44722 0.1782,-0.41023 -0.1379,0.0912 0.24333,-0.1816 -0.0178,-0.26499 -0.26154,-0.21032 -0.39352,0.25513 0.008,0.17856 -0.16524,0.0803 -0.18964,-0.0549 -0.20648,0.14247 -0.32016,-0.0347 -0.46154,-0.064 -0.2181,0.22566 -0.0689,0.19933 0.1406,-0.0463 0.0295,0.15968 0.21964,0.005 -0.19935,0.31219 -0.1451,0.001 -0.1527,-0.11672 0.0627,-0.33893 -0.17217,-0.1871 0.0539,-0.28386 -0.34647,-0.13027 -0.17335,-0.38395 -0.12198,0.0362 -0.49249,-0.11814 -0.31404,-0.24492 -0.0577,-0.25056 0.0527,-0.2261 -0.051,-0.43329 -0.12346,0.18701 0.0398,-0.28019 0.18457,-0.0714 -0.10307,-0.12667 0.18574,-0.11114 -0.0501,-0.15639 0.12971,-0.21723 -0.30189,-0.32034 -0.0937,-0.48966 0.10812,-0.0346 -0.0331,-0.11325 0.18345,-0.0705 0.0503,-0.20234 0.20269,0.002 0.12863,0.031 0.0813,0.42254 0.55039,0.1354 0.34183,-0.0388 0.0436,-0.22388 -0.21601,0.0203 -0.0385,-0.26361 -0.09,-0.12843 0.33954,-0.29314 0.45987,-0.19171 -0.0568,0.1993 0.1416,0.19604 0.19322,-0.0474 0.11672,-0.0522 -0.14399,-0.0869 0.14712,-0.0879 0.2617,-0.38544 -0.53365,0.11285 -0.47075,-0.33929 0.12276,0.0162 0.004,-0.15989 0.0577,-0.26622 -0.2771,0.0247 -0.69622,-0.036 -0.42344,0.22044 -0.10063,0.15815 -0.3492,-0.007 -0.30005,-0.0875 -0.0964,-0.29218 0.41345,-0.0943 0.14522,-0.2606 0.0953,-0.10249 -0.39409,-0.17415 -0.20797,-0.26173 z"
         id="path13916" /><path
         style="fill:#000000;fill-opacity:1;stroke-width:0.0277656"
         d="m 135.21529,216.08076 c 0.27676,0.0123 0.10697,-0.12223 0.3221,-0.14482 0.0518,-0.12072 0.25518,-0.0674 0.12143,-0.27854 0.33707,-0.0761 -0.22428,-0.0619 0.14202,-0.16248 0.17305,0.1504 0.22055,-0.0966 0.36768,0.0813 -0.0113,-0.0118 0.19075,0.38479 0.0324,0.44365 -0.21138,-0.0347 -0.30361,0.27738 -0.15189,0.35148 0.32776,0.19945 -0.11935,-0.62716 0.15428,-0.0852 0.17567,0.0862 0.1238,-0.23097 0.17784,-0.34015 -0.13248,-0.16426 0.30193,-0.11347 0.43743,-0.24396 0.26001,-0.16325 0.0407,-0.23499 0.0171,-0.27565 0.063,-0.0804 -0.22536,-0.0555 -0.24016,-0.20302 -0.008,0.23039 0.051,0.27635 0.0964,0.22686 0.0729,0.26828 -0.24961,0.0698 -0.44438,0.0734 0.0672,-0.0527 0.14084,-0.32383 -0.0835,-0.32114 0.20023,-0.006 0.16246,-0.33326 0.24215,-0.34383 0.19897,-0.0622 0.16099,-0.23251 0.41134,-0.34223 0.18669,0.004 0.0606,-0.0308 0.18213,-0.16299 0.12152,0.017 0.004,0.12506 0.10613,0.15195 -0.0512,0.10281 -0.10219,0.37654 0.0617,0.41728 -0.0173,-0.34382 0.13153,0.10665 0.14751,-0.13134 0.1089,-0.20767 0.22071,0.12806 0.007,0.14503 -0.0216,0.19091 0.22674,0.007 0.17308,0.23728 -0.0491,0.10985 0.18287,0.30618 0.30668,0.21626 0.11434,0.11916 0.20668,-0.29585 0.14669,-0.29347 0.0394,-0.29883 0.31539,-0.43851 0.30072,-0.76053 -0.117,-0.002 -0.14177,0.0393 -0.32453,-0.0694 -0.29583,0.23001 0.032,-0.2611 -0.006,-0.3 0.10672,-0.13816 0.38645,-0.37134 0.27019,0.0331 0.0275,0.17994 -0.25503,0.28593 0.0648,0.24809 0.0533,0.15258 0.27475,0.23244 0.34983,0.33677 0.0217,-0.24083 0.35601,-0.2405 0.0884,-0.47268 -0.12695,0.18018 -0.16771,-0.0835 -0.11968,-0.15146 -0.12619,0.0949 0.27987,-0.39107 -0.0492,-0.4951 0.0257,-0.26897 0.43153,0.21134 0.29783,-0.12474 0.0762,-0.3597 0.41628,-0.041 0.37221,0.15062 0.0347,-0.13642 0.13986,0.11988 0.0921,-0.12226 -0.007,0.0255 0.45497,-0.22132 0.12056,-0.27032 -0.0346,-0.14736 -0.0716,0.39097 -0.16043,0.0168 0.0803,-0.27998 0.0517,-0.14741 0.31643,-0.058 -0.24327,2.3e-4 0.23951,0.1805 0.10466,0.0578 0.25785,0.0543 0.54061,-0.10178 0.64384,0.086 -0.21891,0.26684 0.15293,-0.0103 0.0666,-0.0863 0.063,-0.35882 0.2356,-0.26391 0.53103,-0.32397 0.0602,-0.35543 -0.2067,0.0544 -0.16543,-0.22301 -0.15675,0.0799 -0.18914,-0.0759 -0.11995,-0.214 -0.19806,0.0852 0.16657,-0.10706 0.0954,-0.16006 0.31304,-0.0925 -0.37979,-0.0343 0.048,-0.15612 0.21661,-0.23417 0.0953,0.12998 0.32715,0.23571 0.16932,0.0941 0.31137,0.10911 0.49206,0.1731 0.0771,0.175 0.27703,0.28366 0.37631,0.26143 -0.12333,0.23828 0.0893,0.39656 0.19989,0.47054 0.0533,0.002 0.0917,0.29687 0.26548,0.28131 0.0507,0.0877 0.28682,-0.21248 0.2065,0.0737 0.19936,0.008 -0.003,-0.23647 0.15084,-0.0125 0.0585,0.21984 -0.15171,0.0277 -0.16413,0.1286 -0.0665,-0.22735 -0.002,0.22834 -0.0629,0.12291 -0.0661,0.24151 0.39522,0.1508 0.14561,0.47556 0.0638,0.15048 -0.083,0.15316 -0.0672,-0.0284 -0.0506,0.0972 -0.35285,-0.18104 -0.20587,0.0857 0.1861,0.0918 0.10331,0.17058 0.27286,0.19388 0.0946,-0.0232 0.0751,0.37457 0.27071,0.37292 0.10399,-0.0798 0.39136,0.11714 0.31723,-0.066 0.34016,0.1481 0.44826,0.0869 0.66621,0.20564 0.0391,0.13269 0.0973,0.33518 -0.1126,0.29453 -0.29457,0.0516 -0.33997,0.0667 -0.0519,0.2638 0.0144,-0.1781 0.26392,0.0831 0.20386,0.21914 -0.33402,0.15021 -0.0479,0.20219 0.0828,0.10387 0.29212,-0.003 -0.13891,0.36878 -0.12023,0.18738 -0.1198,0.10775 0.0685,0.12481 -0.0575,0.17025 -0.26542,0.0255 0.0402,-0.2639 -0.22397,-0.24678 -0.0877,-0.11811 -0.005,-0.2827 -0.25801,-0.078 -0.0102,0.11773 0.13443,0.36059 -0.10846,0.3104 0.0991,0.0903 0.0509,0.17045 0.0698,0.30511 0.14986,-0.1587 -0.1195,0.3889 0.15799,0.25939 0.23504,0.073 -0.0924,0.29654 0.22665,0.29649 -0.30651,0.10366 -0.21344,0.30713 0.0785,0.23717 -0.30993,0.0561 0.0182,0.28861 -0.0979,0.40314 -0.25005,0.0497 -0.1851,0.20692 -0.0495,0.1987 -0.0422,-0.15334 0.32907,0.13334 0.31455,-0.14425 0.16039,-0.12243 -0.0453,-0.30985 0.22988,-0.19555 0.11504,-0.13028 0.007,-0.1717 0.094,-0.34007 -0.0909,-0.23003 -0.49606,-0.0611 -0.25862,0.0573 -0.31022,0.12818 0.0481,-0.30303 -0.17919,-0.22969 -0.11539,0.0173 0.12918,-0.0609 0.0245,-0.26313 -0.0694,-0.0395 -0.25997,-0.21878 0.0167,-0.23769 0.20644,0.0124 0.39478,-0.0141 0.50689,-0.0765 0.25114,-0.0281 0.23312,0.1973 0.43046,0.15303 0.12062,0.15454 -0.0906,0.33149 -0.006,0.3924 -0.13962,-0.008 -0.16069,0.23833 -0.30038,0.0918 -0.33429,0.4093 0.34276,0.32491 0.33627,-0.001 0.10656,0.0439 -0.0156,0.4186 0.001,0.53448 -0.18464,0.0938 -0.28274,-0.21111 -0.14503,-0.1363 -0.1405,0.17535 0.33321,-0.22932 -0.0109,-0.073 -0.23005,0.002 -0.13242,0.28505 -0.3221,0.0446 -0.002,0.18469 -0.20975,0.31126 0.0599,0.44733 0.0709,-0.08 -0.16439,0.37669 -0.0984,0.0182 -0.0205,0.0246 -0.23105,-0.0497 -0.23418,0.18402 -0.009,0.0867 0.35025,0.0317 0.22745,0.16041 -0.10296,-0.0334 -0.30083,0.21398 -0.25661,0.0482 0.0386,-0.2456 -0.52116,-0.0591 -0.19939,0.20063 0.0798,-0.0225 0.10833,-0.0512 0.11701,0.0295 0.29175,-0.20311 0.17936,0.38095 0.13205,0.17963 0.0411,0.1727 -0.0576,0.29613 -0.0365,0.48503 -0.0157,0.0382 0.28145,0.42464 0.0556,0.31462 0.0173,-0.0644 -0.44557,0.25436 -0.19442,0.27279 0.13349,0.0706 0.11624,0.13798 0.2248,0.0928 0.0533,0.15286 -0.29601,0.0753 -0.36552,0.0538 -0.13658,0.0785 -0.55669,0.11328 -0.35608,0.28443 -0.56477,-0.0546 -0.21554,0.2971 0.0635,0.3627 0.0851,-0.24965 0.5453,0.18442 0.49277,0.16881 0.33515,0.0924 -0.0597,0.42765 0.29882,0.51006 0.0513,0.12593 0.12816,0.30596 0.001,0.34998 -0.10973,-0.14587 -0.15311,0.2925 -0.22115,0.10386 -0.12609,0.23059 -0.30764,0.10464 -0.20238,0.23464 -0.1984,0.0747 -0.27206,0.0151 -0.26537,0.19459 -0.20756,-0.18705 -0.19937,-0.1688 -0.18072,0.009 -0.2023,-0.008 -0.0846,-0.29478 -0.0402,-0.25308 0.0197,-0.12531 0.27733,-0.011 0.32499,-0.20916 0.10077,-0.0761 -0.23139,-0.3181 -0.11158,-0.23913 -0.22186,-0.1527 0.0269,0.30594 -0.17306,-0.0401 -0.0821,-0.29552 0.4121,-0.21544 0.0981,-0.41269 -0.20059,0.0368 -0.0764,0.28523 -0.21813,-0.0768 0.0254,-0.31126 -0.36808,-0.30871 -0.22043,-0.18096 -0.0238,0.13229 -0.1972,0.17251 -0.0527,0.2882 -0.19501,-0.003 -0.17456,0.0768 -0.17729,0.16594 -0.20691,-0.001 -0.1632,0.13423 -0.42659,0.12712 -0.36052,0.0128 0.0158,0.16539 -0.0283,0.22319 -0.12815,0.10271 0.15924,0.18183 -0.1338,0.28799 0.21474,0.13213 0.24542,0.41345 0.14676,0.64933 -0.25027,-0.0852 -0.29644,0.42238 -0.36709,0.06 -0.35563,-0.11888 -0.31529,0.2921 -0.0789,0.18617 -0.11307,0.15954 -0.23812,0.36841 -0.32174,0.44413 -0.13772,-0.31849 -0.25233,-0.13791 -0.4947,-0.073 -0.16307,-0.0657 0.0497,-0.24271 0.1262,-0.35233 0.33897,-0.12492 -0.0994,-0.43793 -0.0399,-0.20849 -0.1342,0.17901 -0.32379,-0.0969 -0.25231,0.18136 -0.35458,-0.16854 0.0387,0.2472 -0.2833,-0.0364 -0.26908,-0.0743 -0.0438,0.10723 -0.005,0.0772 0.10445,0.1836 -0.21007,0.20614 -0.2812,0.22055 -0.16407,-0.11181 -0.25103,0.25842 -0.44669,0.15074 0.006,0.33018 -0.0103,-0.26298 -0.12098,-0.13256 -0.0575,-0.23881 -0.13827,-0.14089 -0.099,-0.38167 9.7e-4,0.0871 -0.29243,0.14838 -0.2,0.33086 -0.15773,-0.38718 -0.2641,0.12003 -0.43722,0.13447 0.003,0.0816 -0.5278,0.25655 -0.44606,-0.0333 0.0121,-0.22529 -0.0354,-0.44625 -0.10076,-0.0769 -0.24396,0.0763 -0.17444,0.26464 -0.0197,0.26054 -0.01,-0.15643 0.15852,0.24027 -0.10146,0.0584 -0.12464,0.22998 -0.0599,0.0797 -0.1191,-0.005 -0.22435,0.14303 -0.32616,0.1753 -0.27843,-0.0239 -0.15774,0.0666 -0.21133,-0.0869 -0.25409,-0.24733 -0.11584,0.20115 -0.27507,-0.10397 -0.29996,-0.0703 0.29137,-0.31221 -0.31627,-0.18569 -0.0834,-0.42585 -0.0973,-0.33439 0.19081,0.003 0.30656,-0.22258 -0.13627,-0.0468 -0.094,-0.18949 -0.18532,-0.36565 -0.30803,0.13272 0.0567,-0.35935 -0.2492,-0.071 -0.26815,0.0265 -0.17103,-0.0554 -0.35499,-0.24627 -0.20304,-0.0404 -0.32588,-0.22526 -0.34687,-0.47499 -0.23198,0.0667 0.0818,-0.27963 0.0416,-0.36478 0.14036,0.0773 -0.015,0.45021 0.28913,0.24713 0.10856,0.0105 0.003,-0.34302 -0.0919,-0.20528 -0.15749,-0.19456 0.20809,-0.30786 -0.11156,-0.34987 -0.18997,-0.32636 0.12644,-0.17463 0.0614,-0.52974 -0.17577,0.13841 0.13544,-0.28054 0.12198,0.008 0.0488,-0.40797 -0.24667,-0.31493 -0.2933,-0.0219 -0.15417,0.17072 -0.31229,-0.18785 -0.13711,-0.10932 -0.0238,-0.11364 -0.13394,-0.27204 -0.0942,-0.35065 -0.27924,0.0899 -0.16678,0.23199 -0.39039,0.15077 -0.33503,0.0133 0.39181,-0.44722 0.1782,-0.41023 -0.1379,0.0912 0.24333,-0.1816 -0.0178,-0.26499 -0.26153,-0.21032 -0.39352,0.25513 0.008,0.17856 -0.16525,0.0803 -0.18965,-0.0549 -0.20649,0.14247 -0.32016,-0.0347 -0.46153,-0.064 -0.2181,0.22566 -0.0689,0.19934 0.14061,-0.0463 0.0295,0.15968 0.21965,0.005 -0.19934,0.31219 -0.1451,0.001 -0.1527,-0.11672 0.0627,-0.33893 -0.17216,-0.1871 0.0539,-0.28386 -0.34648,-0.13027 -0.17335,-0.38395 -0.12198,0.0362 -0.4925,-0.11814 -0.31404,-0.24492 -0.0577,-0.25056 0.0527,-0.2261 -0.051,-0.43329 -0.12347,0.18701 0.0397,-0.28019 0.18456,-0.0714 -0.10307,-0.12667 0.18574,-0.11114 -0.0501,-0.15639 0.12972,-0.21723 -0.30189,-0.32033 -0.0937,-0.48966 0.10812,-0.0346 -0.0331,-0.11325 0.18345,-0.0705 0.0503,-0.20233 0.20269,0.002 0.12863,0.031 0.0813,0.42254 0.55039,0.1354 0.34183,-0.0388 0.0436,-0.22388 -0.21601,0.0203 -0.0385,-0.26361 -0.09,-0.12843 0.33954,-0.29314 0.45988,-0.19171 -0.0568,0.1993 0.1416,0.19604 0.19322,-0.0474 0.11671,-0.0522 -0.144,-0.0869 0.14711,-0.0879 0.2617,-0.38544 -0.53365,0.11285 -0.47074,-0.33929 0.12276,0.0162 0.004,-0.15989 0.0576,-0.26622 -0.2771,0.0247 -0.69621,-0.036 -0.42344,0.22044 -0.10062,0.15815 -0.34919,-0.007 -0.30005,-0.0875 -0.0964,-0.29218 0.41346,-0.0943 0.14523,-0.2606 0.0953,-0.10249 -0.3941,-0.17415 -0.20798,-0.26173 z"
         id="path13918" /><path
         style="fill:#000000;fill-opacity:1;stroke-width:0.0395487"
         d="m 123.88393,224.91895 c -0.30939,-0.29149 -0.20737,0.12134 -0.47008,-0.13585 -0.1445,0.19205 -0.3851,-0.12694 -0.39433,0.26377 -0.47897,-0.17473 0.23536,0.20146 -0.27446,0.10686 -0.12915,-0.30902 -0.18605,-0.14099 -0.35985,-0.30687 -0.13257,-0.1616 0.0883,-0.35476 0.18495,-0.66856 0.14998,0.006 0.73538,0.17447 0.54666,-0.21991 0.0632,-0.48901 -0.33332,0.24007 -0.26048,0.15749 0.23428,-0.62868 -0.32004,-0.15534 -0.32324,-0.12123 -0.0327,0.27635 -0.36979,0.31486 -0.54821,0.0577 -0.41613,-0.0805 -0.6884,0.13153 -0.52412,0.29569 -0.13969,0.0418 0.21737,0.24955 0.11194,0.43354 0.19896,-0.26123 0.16769,-0.36372 0.0745,-0.34309 0.1277,-0.35269 0.27705,0.0554 0.47037,0.17522 0.38983,0.22656 -0.51215,0.1465 -0.0629,0.45951 0.0947,0.11068 -0.55872,0.13298 -0.52646,0.31518 -0.32339,-0.0694 -0.30281,-0.0172 -0.66892,0.0672 -0.37443,-0.0892 -0.18253,-0.16546 -0.45529,0.0217 -0.23021,-0.22817 0.16737,0.006 -0.0304,-0.31643 0.13033,0.0519 0.41786,-0.31259 0.30862,-0.5004 -0.29434,0.39393 -0.0858,-0.20642 -0.30375,0.032 -0.29771,0.15185 -0.15069,-0.32998 0.11109,-0.17431 0.18191,-0.20485 -0.25879,-0.1946 -0.006,-0.41854 0.11174,-0.11902 0.0806,-0.28984 -0.076,-0.5052 -0.11386,0.0881 -0.26298,-0.31139 -0.36087,0.11426 -0.21048,0.0265 -0.3931,0.37288 -0.70306,0.4229 -0.32276,0.1051 -0.53955,0.4495 -0.23329,0.42971 0.0339,0.30272 0.64367,0.29619 0.0558,0.39144 -0.0698,0.37391 -0.36139,0.15481 -0.61027,0.26469 -0.16608,-0.15894 0.39276,-0.47624 0.39589,-0.52352 0.20382,0.042 -0.20136,-0.22901 -0.14833,-0.42317 -0.17972,-0.14893 0.105,-0.61061 -0.31212,-0.29617 -0.0206,0.0952 -0.4722,-0.0153 -0.27253,0.37608 0.17114,-0.16678 0.31134,0.28931 -0.0182,0.22243 0.35747,0.10432 -0.62782,0.2094 -0.31732,0.6688 -0.25962,0.29145 -0.33116,-0.5999 -0.44893,-0.0998 -0.38455,0.35546 -0.51808,-0.29391 -0.30924,-0.48079 -0.252,0.16167 0.11875,-0.24777 -0.24055,0.007 0.2041,0.14318 -0.71751,-0.12518 -0.32947,0.27531 -0.0869,0.22298 0.3685,-0.38295 0.21542,0.0595 -0.31244,0.16041 -0.1528,0.36377 -0.35903,-0.0183 -0.24491,-0.24884 0.24485,0.0815 -0.0417,-0.23007 -0.061,-0.21124 -0.13291,0.10798 -0.34563,-0.27697 -0.29236,0.0288 -0.62858,-0.41322 -0.26053,-0.43631 -0.21949,-0.19535 -0.40395,0.3064 -0.7005,0.24848 0.004,0.18713 -0.746,-0.61697 -0.56342,0.0524 0.18154,-0.17019 0.13082,0.16048 0.1712,0.19127 0.22228,0.18434 -0.32558,0.22113 -0.0251,0.28837 -0.22426,0.1088 -0.63655,-0.0612 -0.38945,0.21435 0.27819,0.16319 -0.46245,-0.1071 -0.38002,0.0414 0.22973,-0.42342 -0.0795,-0.64749 -0.16697,-0.94666 -0.35856,0.004 -0.087,-0.46563 -0.31686,-0.62667 0.0636,-0.21121 -0.33945,-0.16437 0.10432,-0.3883 -0.14579,-0.0595 0.1126,-0.46065 -0.0859,-0.44288 -0.14807,-0.20701 0.1961,-0.22589 0.006,-0.54179 -0.0454,-0.13078 -0.18704,-0.17734 -0.36698,-0.18914 0.23302,-0.23501 -0.14395,-0.23997 -0.0623,-0.0762 -0.19997,-0.22793 0.20385,-0.41097 0.193,-0.20401 0.22683,-0.14236 -0.0593,0.34961 0.17577,-0.0793 0.0525,0.13703 0.38924,-0.30775 0.007,-0.37887 0.19048,-0.22556 0.34337,-0.49102 0.45837,-0.41389 -0.19755,0.22853 0.0519,0.21781 0.16418,0.45675 0.10067,-0.21569 -0.0824,-0.41078 -0.001,-0.51148 -0.15367,-0.10143 -0.23719,-0.20077 -0.019,-0.44062 0.007,-0.38662 -0.19165,-0.34541 -0.3657,-0.54226 -0.004,-0.20121 -0.15655,0.0163 -0.19499,-0.0255 -0.26127,-0.4459 -0.41474,-0.44057 -0.58666,-0.7777 0.13389,-0.18694 0.18067,-0.47273 0.43431,-0.18317 0.42013,0.24195 0.36793,-0.0473 0.19154,-0.2646 -0.092,0.082 -0.24248,-0.43321 0.039,-0.4527 0.37439,0.14925 0.30343,-0.31993 -0.0599,-0.0989 -0.30067,-0.34567 0.19426,-0.31725 0.2893,-0.30239 -0.08,0.17155 0.23735,0.072 0.10883,-0.10638 0.0805,0.097 0.29884,0.029 0.14359,0.33954 -0.24423,-0.14891 0.25513,0.488 -0.0968,0.36652 0.39979,0.5502 0.39768,-0.51936 0.72469,-0.1637 -0.0417,-0.18688 0.0809,-0.24039 0.16944,-0.4125 -0.35397,0.0896 0.48814,-0.36123 0.0245,-0.36106 -0.21094,-0.33171 0.33633,-0.32438 -0.0149,-0.6023 0.44177,0.1324 0.50022,-0.18321 0.10345,-0.34106 0.33982,0.14519 0.2998,-0.23499 0.37985,-0.39819 0.3346,0.0753 0.51201,0.0637 0.27512,-0.20947 -0.0203,0.28068 -0.25681,-0.37552 -0.47194,-0.0618 -0.28726,0.0106 -0.202,0.39763 -0.42817,0.0384 -0.27481,0.0284 -0.0758,0.21977 -0.39989,0.2741 -0.0297,0.28128 0.36274,0.57566 0.40119,0.24187 0.0562,-0.12274 0.27765,0.19028 -0.0945,0.20592 0.0495,0.12448 0.22943,0.33425 0.0103,0.12908 -0.19247,0.2504 -0.20415,0.41471 -0.13814,0.58116 -0.34328,0.24586 -0.64321,-0.54034 -0.83411,-0.2685 -0.2738,-0.14105 -0.3165,-0.42947 -0.33988,-0.54235 -0.3786,-0.21334 0.35311,-0.38887 0.21583,-0.50502 0.10758,0.18112 0.42801,-0.22243 0.38528,0.13278 0.54664,-0.0284 0.27901,-0.47581 -0.034,-0.44226 -0.27145,0.2443 -0.55395,0.15029 -0.12839,-0.0715 -0.12942,-0.16253 0.36389,-0.4404 0.32519,-0.32312 0.39277,0.27053 -0.2417,0.31014 0.0533,0.19054 -0.60737,-0.0709 0.12751,0.36839 0.22852,0.0869 0.0627,0.43502 0.14451,-0.009 0.38909,0.0669 0.15821,-0.41806 -0.31572,-0.34171 0.17589,-0.51408 0.13974,0.0105 -0.19249,0.20061 -0.005,0.20442 -0.0431,0.2045 0.51284,0.0377 0.35505,-0.18911 -0.27406,0.17727 -0.24408,-0.54682 -0.0137,-0.11882 0.2379,-0.19015 0.32585,0.10656 0.15469,0.0786 0.0684,0.70566 0.79681,-0.16077 0.31313,-0.11267 0.18385,-0.12238 -0.47177,-0.2684 0.0174,-0.51332 0.0736,0.18054 0.032,-0.20811 0.35245,-0.23638 0.0827,-0.25435 0.19954,-0.32427 0.13462,-0.65122 0.3061,-0.16982 0.004,0.22056 0.34112,0.0155 0.41561,0.20382 0.26852,-0.21294 0.22527,-0.34252 -0.13873,-0.0201 -0.26837,-0.33029 0.11031,-0.0512 0.0481,0.17687 0.48303,0.31601 0.73231,0.30322 0.19188,0.22057 0.0502,-0.37089 0.36924,-0.0206 0.47002,0.36928 0.0838,-0.86356 -0.12532,-0.51245 -0.25356,-0.32076 -0.35052,-0.60546 -0.32108,-0.69226 -0.46385,-0.3496 0.49847,-0.42365 0.0571,-0.71113 0.047,-0.26113 0.0787,-0.57264 0.30086,-0.53605 0.008,0.25996 0.41843,-0.21457 0.34303,0.0616 0.33603,-0.16353 0.44307,0.13041 0.42764,-0.10591 0.2994,0.0479 0.32666,0.21336 0.46961,-0.008 0.0876,0.38794 0.0932,0.36035 0.21798,0.13784 0.22863,0.1757 -0.14394,0.41251 -0.16136,0.32743 -0.1063,0.21041 -0.28504,-0.26854 -0.44119,-0.0365 -0.36083,-0.0821 -0.0669,0.4462 -0.18896,0.42609 0.0978,0.27193 0.22254,-0.34304 0.19716,0.0615 -0.0486,0.50332 -0.62874,0.0324 -0.49777,0.41782 0.19277,0.31146 0.41855,-0.28617 0.21957,0.33292 -0.13983,0.19485 -0.0673,0.78262 0.17619,0.37654 -0.16963,-0.0638 0.39821,-0.0335 0.22945,-0.27713 0.22491,0.16293 0.2653,0.0542 0.34254,-0.0476 0.23952,0.17192 0.29999,-0.0224 0.60039,0.20335 0.42951,0.28176 0.11761,-0.20566 0.21662,-0.23656 0.23375,-0.0144 -0.0364,-0.34223 0.3921,-0.22489 -0.0792,-0.30125 -0.0591,-0.61559 0.31536,-0.8138 0.1182,-0.0199 0.38467,0.0562 0.59218,-0.0448 -0.31774,0.34034 0.65169,0.50781 0.26757,0.11817 -0.19445,-0.15414 0.47157,-0.15991 0.55285,-0.31652 0.2745,-0.11704 -0.12153,0.68989 0.39623,0.39349 0.43185,0.15334 0.16774,0.33471 -0.0935,0.37583 -0.28241,0.002 -0.66447,0.19252 -0.28989,0.42651 -0.0367,-0.43204 0.47813,0.32919 0.44548,-0.11829 0.19366,0.15657 0.22834,0.23455 0.25758,0.0229 -0.039,0.43842 0.4943,0.37543 0.10147,0.18487 0.16174,-0.3226 0.24047,-0.034 0.56375,-0.11145 -0.02,0.37634 0.45714,-0.009 0.61456,0.2228 0.18274,-0.1649 0.0798,-0.0394 -0.0502,0.28145 0.20726,-0.1358 -0.0372,0.3587 0.0571,0.36695 -0.38686,0.37751 0.095,-0.0528 0.25057,0.15797 0.18671,-0.48852 -0.0711,0.37987 0.36374,0.0182 0.0648,0.0931 0.28227,-0.21481 0.46086,0.0148 0.043,-0.16545 0.79504,0.19144 0.33798,0.46473 -0.40532,0.52718 0.0697,-0.044 0.41834,0.0746 0.10427,-0.3341 -0.30425,-0.24232 -0.0334,-0.41616 0.13129,0.30466 0.53104,-0.11409 0.21001,0.20259 0.33225,0.11458 0.61336,0.0686 0.34564,0.30124 0.0852,-0.0111 0.26789,0.21528 0.15906,0.29873 -0.30021,0.25635 0.35731,0.074 0.1411,0.44157 0.37567,0.0348 -0.49536,0.23636 -0.0161,0.4058 0.0123,0.18516 -0.13691,0.25476 -0.33771,0.45585 0.05,-0.19531 -0.39716,-0.33669 -0.32838,-0.11252 -0.0221,0.14098 0.0409,0.20528 -0.15849,0.45806 0.35661,0.17141 0.10406,0.14351 0.0411,0.34334 0.44942,-0.003 0.50092,0.1193 0.4325,0.43175 0.0241,0.22763 0.32932,0.51 0.0939,0.76052 -0.0518,0.25045 0.13457,0.39505 -0.33156,0.44301 -0.0924,0.38016 -0.15059,-0.18585 0.0901,-0.28268 -0.30373,-0.0955 -0.44253,-0.21512 -0.46637,0.12635 -0.0138,-0.0186 0.254,0.33768 -0.11627,0.34093 -0.15351,-0.0162 0.23097,0.46309 -0.12047,0.598 -0.0856,-0.25587 -0.4341,0.29917 -0.22178,0.25446 -0.48488,0.22127 -0.0774,-0.4169 -0.41324,0.10111 0.008,0.41929 0.34591,-0.0101 0.59312,9.7e-4 0.38143,0.47501 -0.2552,0.0708 -0.0459,0.52889 -0.5715,0.35386 0.37416,0.17758 0.29625,0.24014 0.46337,0.24957 -0.1541,0.39183 -0.52476,0.38306 0.30306,0.1747 0.071,-0.0266 -0.13643,0.17993 -0.19884,0.45519 0.73831,0.53472 0.29025,0.1104 -0.30332,-0.33851 0.23803,0.24467 0.19017,-0.12293 0.3441,0.16176 0.54435,0.58446 0.4787,-0.0266 0.19765,-0.26802 -0.103,-0.027 0.0766,-0.27912 0.0869,0.0541 -0.14609,-0.25002 0.22328,-0.0991 0.23327,0.15872 -0.42488,0.65198 0.0242,0.59526 -0.16548,0.17577 -0.0672,0.25836 0.0207,0.41737 0.1715,-0.0213 -0.35516,0.2536 0.008,0.23078 0.0728,0.37092 0.3515,0.35697 -0.0829,0.61216 0.002,0.24058 -0.16378,0.0673 -0.22165,0.42525 0.40963,0.0656 -0.45744,-0.0439 -0.19684,0.0274 -0.46495,-0.12442 0.10476,0.19674 -0.30194,0.3639 0.32867,0.4813 -0.33081,0.30574 -0.19689,0.48783 -0.0885,-0.15889 -0.518,-0.10905 -0.35003,-0.23413 0.0895,-0.0558 0.14361,-0.70523 -0.2231,-0.51973 -0.29285,-0.0787 0.0268,0.21229 -0.25193,0.36716 0.29857,-0.0386 -0.0985,0.21538 -0.14907,0.25813 -7e-5,0.1425 -0.85452,-0.13074 -0.52082,-0.22196 0.0694,-0.49902 -0.32565,-0.0536 -0.45832,-0.0844 0.24073,0.10533 -0.73767,-0.16999 -0.19461,0.25263 0.43528,-0.12511 0.40853,0.53506 0.243,0.47175 0.02,0.026 -0.47745,0.33618 0.0138,0.37505 0.23206,0.36946 0.5386,0.3197 0.43801,-0.002 0.2475,-0.10162 0.39981,0.29629 0.27701,0.34833 -0.0745,0.45323 -0.61037,-0.26702 -0.34442,0.17039 -0.299,3.8e-4 0.29487,0.54313 -0.009,0.49192 z"
         id="path13920" /><path
         id="path13924"
         style="fill:#000000;fill-opacity:0.5;stroke:none;stroke-width:1.2401;stroke-linecap:round;stroke-linejoin:round;stop-color:#000000"
         d="m 130.56361,206.22152 c -2.16769,-0.0157 -4.32064,0.35784 -6.35672,1.10278 l 2.78329,7.6264 v 5.2e-4 l -0.18552,0.69091 c -0.20749,0.0847 -0.41192,0.17675 -0.61288,0.27596 l 0.49558,0.98857 v 5.1e-4 0.7059 l -0.17829,0.66456 0.003,0.003 c -0.33736,0.21448 -0.65642,0.45646 -0.95394,0.72347 l 1.15342,1.27331 v 0.70745 0.43615 l 0.12919,0.22324 c -0.31854,0.41711 -0.56212,0.88644 -0.71986,1.387 l -0.89607,0.24029 -0.78289,-0.16691 c -0.11862,0.57014 -0.15533,1.15428 -0.10904,1.73478 l -0.51108,0.29507 -5.2e-4,5.2e-4 -11.41325,1.29604 c 0.13511,1.19203 0.38783,2.36773 0.75447,3.50986 l 2.36782,-0.76171 c 0.0775,0.1473 0.15937,0.28371 0.19585,0.28371 0.0792,0 0.56637,0.15193 0.56637,0.15193 l 0.3545,0.3545 0.11886,0.44235 0.20309,0.1173 h 0.51211 l -0.13229,0.49299 v 0.42892 l 0.21291,0.36845 0.33021,0.19069 h 0.41186 l 0.462,0.43057 0.075,1.12095 0.64091,0.14627 0.27984,0.86266 -0.77628,1.14946 0.0597,0.89133 6.7173,-7.21194 0.60048,-0.16639 0.34623,-0.35915 0.30334,0.004 0.40928,-0.11369 0.28267,0.0786 h 0.56637 c 0,0 0.20516,-0.004 0.20516,-0.0574 0,-0.0531 0.25218,-0.45165 0.25218,-0.45165 h 0.15606 c 0.0986,0.0424 0.19874,0.081 0.30024,0.11575 l 0.0119,0.0455 v 0.47025 l 0.31988,-0.0584 0.27646,0.077 0.1385,0.24856 0.32297,0.0816 0.31781,-0.0884 v -0.24598 l 0.41962,-0.2036 0.1111,-0.19947 c 0.23582,-0.0385 0.46798,-0.0967 0.69402,-0.17415 l 0.23151,0.41547 h 0.39636 0.29455 l 0.60462,0.62581 0.22117,-0.39688 0.16433,-0.29507 0.93689,-0.2372 8.74882,8.57674 c 3.77977,-3.86546 5.64201,-9.21671 5.0798,-14.59704 l -10.47947,1.09761 -0.31212,-0.31213 -0.22118,-0.22117 -0.17311,-0.29921 v -0.43512 l 0.0139,-0.25786 -0.44545,-0.25735 -0.0129,-0.004 c -0.11183,-0.27698 -0.24146,-0.54643 -0.38809,-0.80667 l 0.0134,-5.1e-4 0.1974,-0.34158 -0.0816,-0.30541 -0.2036,-0.20361 -0.28474,-0.28473 h -0.40204 l -0.015,0.0139 c -0.26533,-0.30498 -0.55687,-0.58614 -0.87126,-0.84026 v -0.41961 l 0.1018,-0.37931 -0.12041,-0.37724 0.40928,-0.709 c 0,0 -0.13404,-0.43318 -0.21963,-0.75551 l 4.43539,-7.79229 c -2.69824,-1.53968 -5.74608,-2.35996 -8.85165,-2.38228 z"
         sodipodi:nodetypes="cccccccccccccccccccccccccscccccccccccccccccccccccscccccccccccccccccccccccccccccccccccccccccccccccc" /><g
         id="g13930"
         transform="matrix(0.37723853,0,0,0.37723853,69.391807,179.04537)"><path
           id="path13926"
           style="color:#000000;overflow:visible;fill:#000000;stroke:#000000;stroke-width:0.175041;stroke-miterlimit:4;stroke-dasharray:none"
           d="m 165.9199,123.82991 c 0,-0.43051 -1.83991,-0.7798 -4.10931,-0.7798 -2.26941,0 -4.10931,0.34929 -4.10931,0.7798 l -0.27544,1.05317 c 0,0.45937 1.96318,0.83199 4.38475,0.83199 2.42156,0 4.38474,-0.37262 4.38474,-0.83199 z"
           sodipodi:nodetypes="csccscc" /><path
           style="fill:#ffffff;fill-opacity:1;stroke:#000000;stroke-width:0.226483;stroke-linecap:round;stroke-linejoin:round;stroke-miterlimit:4;stroke-dasharray:none;stroke-opacity:1"
           d="m 161.81062,114.52562 a 0.94615697,0.94615697 0 0 0 -0.94617,0.94618 0.94615697,0.94615697 0 0 0 0.94617,0.94618 0.94615697,0.94615697 0 0 0 0.94618,-0.94618 0.94615697,0.94615697 0 0 0 -0.94618,-0.94618 z m -1.25748,2.20533 v 0.008 c -0.37134,0.0549 -0.65454,0.37328 -0.65454,0.76034 v 2.60193 c 0,0.38707 0.2832,0.70541 0.65454,0.76026 v 3.04403 h 2.51496 v -3.04403 c 0.37134,-0.0548 0.65454,-0.37319 0.65454,-0.76026 v -2.60193 c 0,-0.38707 -0.2832,-0.70549 -0.65454,-0.76034 v -0.008 h -0.11419 -2.28658 z"
           id="path13928"
           inkscape:connector-curvature="0" /></g></g></g></svg>
