<?xml version="1.0" encoding="UTF-8" standalone="no"?>
<svg
   sodipodi:docname="brennen.svg"
   inkscape:version="1.1 (c68e22c387, 2021-05-23)"
   id="svg8138"
   version="1.1"
   viewBox="0 0 10 10"
   height="10mm"
   width="10mm"
   xmlns:inkscape="http://www.inkscape.org/namespaces/inkscape"
   xmlns:sodipodi="http://sodipodi.sourceforge.net/DTD/sodipodi-0.dtd"
   xmlns="http://www.w3.org/2000/svg"
   xmlns:svg="http://www.w3.org/2000/svg"
   xmlns:rdf="http://www.w3.org/1999/02/22-rdf-syntax-ns#"
   xmlns:cc="http://creativecommons.org/ns#"
   xmlns:dc="http://purl.org/dc/elements/1.1/">
  <defs
     id="defs8132" />
  <sodipodi:namedview
     inkscape:document-rotation="0"
     fit-margin-bottom="0"
     fit-margin-right="0"
     fit-margin-left="0"
     fit-margin-top="0"
     inkscape:window-maximized="1"
     inkscape:window-y="-8"
     inkscape:window-x="-8"
     inkscape:window-height="1057"
     inkscape:window-width="1920"
     showgrid="false"
     inkscape:current-layer="layer1"
     inkscape:document-units="mm"
     inkscape:cy="15.848214"
     inkscape:cx="19.598214"
     inkscape:zoom="11.2"
     inkscape:pageshadow="2"
     inkscape:pageopacity="0.0"
     borderopacity="1.0"
     bordercolor="#666666"
     pagecolor="#ffffff"
     id="base"
     inkscape:pagecheckerboard="0" />
  <metadata
     id="metadata8135">
    <rdf:RDF>
      <cc:Work
         rdf:about="">
        <dc:format>image/svg+xml</dc:format>
        <dc:type
           rdf:resource="http://purl.org/dc/dcmitype/StillImage" />
      </cc:Work>
    </rdf:RDF>
  </metadata>
  <g
     transform="translate(-165.31852,-138.69041)"
     id="layer1"
     inkscape:groupmode="layer"
     inkscape:label="Ebene 1">
    <circle
       r="5"
       cy="143.69041"
       cx="170.31853"
       id="circle1426"
       style="opacity:0.997;fill:#000000;fill-opacity:1;stroke:none;stroke-width:0.314416;stroke-miterlimit:4;stroke-dasharray:none" />
    <path
       style="fill:#ff0000;stroke-width:0.235272"
       d="m 168.23241,146.81412 c -0.6328,-0.57228 -0.73735,-1.95224 -0.60423,-2.46089 0.13311,-0.50863 0.21033,-0.83163 0.6223,-1.42016 0.41198,-0.58852 1.01977,-1.04365 1.25667,-1.62007 0.23692,-0.57642 0.0933,-1.09594 -0.23715,-1.53543 0.0389,0 0.31598,0.08 0.87704,0.41546 0.56106,0.33547 1.5348,1.13878 2.03795,1.89134 0.50315,0.75255 0.78795,1.59252 0.86349,2.52824 0.0755,0.93571 -0.23667,1.68814 -0.77717,2.20151 -0.5405,0.51336 -1.08793,0.75907 -1.7456,0.78913 0.39314,-0.21938 0.81222,-0.45765 1.00999,-0.85078 0.19778,-0.39312 0.014,-1.04436 -0.12147,-1.25296 -0.13544,-0.20861 -0.14155,-0.17842 -0.38685,-0.42422 -0.24528,-0.2458 -0.40674,-0.42137 -0.47631,-0.58368 -0.1157,-0.33549 -0.0714,-0.70734 0.0743,-1.02583 -0.60915,0.3578 -1.08022,0.85899 -1.43734,1.46531 -0.2799,0.54152 -0.42325,1.40641 -0.21968,1.82233 0.20358,0.41592 0.61689,0.66685 1.01269,0.84717 -0.66886,-0.006 -1.11587,-0.2142 -1.74867,-0.78647 z"
       id="path4058"
       sodipodi:nodetypes="czzzczzzzczzzccczcz"
       inkscape:connector-curvature="0" />
  </g>
</svg>
