<?xml version="1.0" encoding="UTF-8" standalone="no"?>
<svg
   sodipodi:docname="gift.svg"
   inkscape:version="1.1 (c68e22c387, 2021-05-23)"
   id="svg8138"
   version="1.1"
   viewBox="0 0 10 10"
   height="10mm"
   width="10mm"
   xmlns:inkscape="http://www.inkscape.org/namespaces/inkscape"
   xmlns:sodipodi="http://sodipodi.sourceforge.net/DTD/sodipodi-0.dtd"
   xmlns="http://www.w3.org/2000/svg"
   xmlns:svg="http://www.w3.org/2000/svg"
   xmlns:rdf="http://www.w3.org/1999/02/22-rdf-syntax-ns#"
   xmlns:cc="http://creativecommons.org/ns#"
   xmlns:dc="http://purl.org/dc/elements/1.1/">
  <defs
     id="defs8132" />
  <sodipodi:namedview
     inkscape:document-rotation="0"
     fit-margin-bottom="0"
     fit-margin-right="0"
     fit-margin-left="0"
     fit-margin-top="0"
     inkscape:window-maximized="1"
     inkscape:window-y="-8"
     inkscape:window-x="-8"
     inkscape:window-height="1057"
     inkscape:window-width="1920"
     showgrid="false"
     inkscape:current-layer="g890"
     inkscape:document-units="mm"
     inkscape:cy="19.792676"
     inkscape:cx="13.226685"
     inkscape:zoom="15.839192"
     inkscape:pageshadow="2"
     inkscape:pageopacity="0.0"
     borderopacity="1.0"
     bordercolor="#666666"
     pagecolor="#ffffff"
     id="base"
     inkscape:pagecheckerboard="0" />
  <metadata
     id="metadata8135">
    <rdf:RDF>
      <cc:Work
         rdf:about="">
        <dc:format>image/svg+xml</dc:format>
        <dc:type
           rdf:resource="http://purl.org/dc/dcmitype/StillImage" />
      </cc:Work>
    </rdf:RDF>
  </metadata>
  <g
     transform="translate(-165.31852,-138.69041)"
     id="layer1"
     inkscape:groupmode="layer"
     inkscape:label="Ebene 1">
    <circle
       r="5"
       cy="143.69041"
       cx="170.31853"
       id="circle1426"
       style="opacity:0.997;fill:#3a6351;fill-opacity:1;stroke:none;stroke-width:0.314416;stroke-miterlimit:4;stroke-dasharray:none" />
    <g
       id="g890"
       transform="matrix(0.77067971,0,0,0.77067971,39.057495,32.951128)">
      <path
         id="rect1681"
         style="opacity:0.993012;fill:#000000;stroke:none;stroke-width:0.358327"
         d="m 168.91528,139.36377 c -0.028,0 -0.0505,0.0224 -0.0505,0.0505 v 0.7403 c 0,0.028 0.0225,0.0505 0.0505,0.0505 h 0.38575 v 0.81134 h -0.96538 c -0.23304,0 -0.42094,0.1879 -0.42094,0.42094 v 6.15944 c 0,0.23304 0.1879,0.42027 0.42094,0.42027 h 3.96576 c 0.23304,1e-5 0.42094,-0.18723 0.42094,-0.42027 v -6.15944 c 0,-0.23304 -0.1879,-0.42094 -0.42094,-0.42094 h -0.96538 v -0.81134 h 0.38575 c 0.028,0 0.0505,-0.0224 0.0505,-0.0505 v -0.7403 c 0,-0.028 -0.0225,-0.0505 -0.0505,-0.0505 h -0.80603 -1.19444 z" />
      <path
         style="opacity:0.997;fill:#3a6351;stroke:none;stroke-width:0.0551174;stroke-miterlimit:4;stroke-dasharray:none;stroke-opacity:1;fill-opacity:1"
         d="m 170.74607,145.90358 c -0.0564,-0.0274 -0.12083,-0.0776 -0.14312,-0.11162 l -0.0405,-0.0618 0.0268,-0.0268 c 0.0147,-0.0147 0.0268,-0.0368 0.0268,-0.049 v -0.0222 l -0.0584,0.0147 -0.0584,0.0147 -0.0303,-0.0365 c -0.0398,-0.0479 -0.0731,-0.0461 -0.11125,0.006 l -0.0311,0.0425 -0.047,-0.0425 c -0.0865,-0.0782 -0.11404,-0.0518 -0.13427,0.12892 l -0.007,0.0612 -0.0674,0.008 -0.0674,0.008 v -0.0745 -0.0745 l -0.0888,0.1156 -0.10878,0.10521 c -0.0668,0.0427 -0.0709,-0.22727 -0.14249,-0.19744 h -0.0242 l 0.0145,-0.0895 0.0145,-0.0895 -0.0283,0.0175 -0.0283,0.0175 v -0.0323 c 0,-0.0178 -0.0235,-0.047 -0.0523,-0.0649 l -0.0523,-0.0327 -0.0181,0.0294 -0.0182,0.0294 -0.0154,-0.0249 c -0.008,-0.0137 -0.009,-0.041 -0.002,-0.0607 l 0.0137,-0.0358 -0.0374,-0.0143 c -0.0206,-0.008 -0.0426,-0.006 -0.049,0.004 -0.0125,0.0202 -0.0793,0.0158 -0.26958,-0.0177 l -0.12041,-0.0212 -0.0344,-0.0461 c -0.0189,-0.0254 -0.0419,-0.0443 -0.0511,-0.042 -0.009,0.002 -0.0177,-0.0331 -0.0188,-0.0786 -0.003,-0.24905 -0.0135,-0.25204 -0.0143,-0.47235 -8.4e-4,-0.2203 -0.0303,-0.34074 -0.0254,-0.39098 0.005,-0.0502 0.0137,-0.094 0.0137,-0.094 0.008,-0.0253 0.0213,-0.079 0.0305,-0.11941 0.009,-0.0404 0.0248,-0.0845 0.0345,-0.098 0.01,-0.0135 0.0253,-0.0576 0.0346,-0.098 0.0449,-0.1963 0.31885,-0.48913 0.59006,-0.63081 0.46505,-0.24296 0.97137,-0.23484 1.50467,0.0241 l 0.18196,0.0883 0.16731,0.16435 0.16731,0.16435 0.0846,0.18304 c 0.11462,0.24808 0.13425,0.34934 0.13423,0.69247 l -1e-5,0.29394 -0.0581,0.26603 -0.0581,0.26602 -0.0427,0.0402 c -0.0235,0.0221 -0.035,0.0264 -0.0256,0.01 l 0.0171,-0.0306 h -0.0259 c -0.0143,0 -0.0456,0.0197 -0.0697,0.0438 l -0.0438,0.0438 -0.0603,-0.0168 c -0.0332,-0.009 -0.10165,-0.0179 -0.15213,-0.0193 l -0.0918,-0.003 -0.0981,0.0886 -0.0981,0.0886 v 0.0584 c 0,0.0321 -0.011,0.0584 -0.0245,0.0584 -0.0135,0 -0.0245,0.0267 -0.0245,0.0592 0,0.0806 -0.024,0.13697 -0.0577,0.1355 -0.0154,-8.4e-4 -0.0742,-0.0236 -0.13061,-0.051 z m -0.44057,-0.66703 c 0.0519,-0.0363 0.12991,-0.0274 0.12991,0.0149 0,0.0341 0.0213,0.0276 0.0734,-0.0105 l 0.0469,-0.0343 1.8e-4,-0.12763 c -0.003,-0.0713 -0.0221,-0.15466 -0.0422,-0.18533 -0.0105,-0.10624 -0.0365,-0.2003 -0.0893,-0.28248 -0.036,-2.8e-4 -0.0853,-0.004 -0.10933,-0.008 -0.0706,0.1106 -0.081,0.2007 -0.10105,0.30314 0.003,0.0135 -0.0379,0.15631 -0.0213,0.21162 l 0.0264,0.0871 c 0.10826,0.0979 -0.0361,0.0813 0.0864,0.0313 z m 0.99581,-0.3215 c 0.0865,-0.0447 0.10021,-0.0851 0.0873,-0.25747 -0.0126,-0.16836 -0.0237,-0.19437 -0.1139,-0.26595 l -0.0727,-0.0577 -0.16111,-0.0368 -0.1611,-0.0367 -0.0597,0.0272 -0.0597,0.0272 -0.0355,0.0849 c -0.0195,0.0467 -0.0355,0.14189 -0.0355,0.21157 v 0.12668 l 0.0429,0.0337 c 0.0604,0.0476 0.19537,0.1078 0.32455,0.14491 0.14476,0.0416 0.16131,0.0415 0.24443,-0.001 z m -1.54317,-0.0745 c 0.0879,-0.0341 0.1826,-0.0811 0.21054,-0.10454 l 0.0508,-0.0425 0.0299,-0.1518 0.0299,-0.15181 -0.0383,-0.074 -0.0382,-0.074 -0.0645,-0.0162 c -0.0355,-0.009 -0.0987,-0.005 -0.1404,0.01 -0.0418,0.0142 -0.12,0.0331 -0.17389,0.042 -0.12595,0.0208 -0.27143,0.11585 -0.28904,0.18875 -0.008,0.0313 -0.0253,0.10096 -0.0395,0.15485 l -0.0258,0.098 0.0265,0.0661 0.0265,0.0661 0.0649,0.0238 c 0.10788,0.0395 0.20289,0.0307 0.37055,-0.0344 z"
         id="path1695"
         inkscape:connector-curvature="0"
         sodipodi:nodetypes="cccsscccccccccccccccccccccscccccccccscscczzccsssscccssccccccsccsccccsssccccsscccccccccccssccccccsccsccsccccccccscscccss" />
      <g
         id="g1756"
         transform="matrix(0.29797778,0,0,0.29797778,142.05367,-106.76251)"
         style="opacity:0.997;fill:#3a6351;fill-opacity:1">
        <path
           id="rect1715"
           style="opacity:0.996;fill:#3a6351;stroke:none;stroke-width:0.908252;fill-opacity:1"
           d="m 89.847963,846.71857 c -0.347851,-0.12042 -0.67076,0.15044 -0.845201,0.41058 -0.154948,0.23109 0.03529,0.57965 -0.05235,0.83301 -0.08768,0.25335 -0.452688,0.40974 -0.473732,0.68717 -0.02374,0.31231 0.06273,0.72481 0.410586,0.8452 0.34785,0.12042 0.724818,-0.0628 0.845201,-0.41058 l 0.0965,-0.27884 9.719958,3.36399 -0.0965,0.27883 c -0.120387,0.34784 0.06273,0.72481 0.410579,0.8452 0.347856,0.12042 0.670756,-0.15044 0.845206,-0.41058 0.1549,-0.2311 -0.0353,-0.57964 0.0526,-0.83299 0.0877,-0.25335 0.45269,-0.40974 0.47374,-0.68717 0.0233,-0.31235 -0.0627,-0.72481 -0.4106,-0.8452 -0.34784,-0.12042 -0.72481,0.0627 -0.845184,0.41058 l -0.09723,0.28091 -9.719957,-3.36399 0.09721,-0.2809 c 0.120388,-0.34785 -0.06273,-0.72482 -0.410586,-0.8452 z" />
        <path
           id="path1747"
           style="opacity:0.996;fill:#3a6351;stroke:none;stroke-width:0.908252;fill-opacity:1"
           d="m 99.863161,846.71857 c 0.347849,-0.12042 0.670759,0.15044 0.845199,0.41058 0.15495,0.23109 -0.0353,0.57965 0.0524,0.83301 0.0877,0.25335 0.45269,0.40974 0.47373,0.68717 0.0237,0.31231 -0.0627,0.72481 -0.41058,0.8452 -0.34785,0.12042 -0.72482,-0.0628 -0.845203,-0.41058 l -0.0965,-0.27884 -9.719958,3.36399 0.0965,0.27883 c 0.120387,0.34784 -0.06273,0.72481 -0.410579,0.8452 -0.347856,0.12042 -0.670756,-0.15044 -0.845206,-0.41058 -0.1549,-0.2311 0.0353,-0.57964 -0.0526,-0.83299 -0.0877,-0.25335 -0.45269,-0.40974 -0.47374,-0.68717 -0.0233,-0.31235 0.0627,-0.72481 0.4106,-0.8452 0.34784,-0.12042 0.72481,0.0627 0.845184,0.41058 l 0.09723,0.28091 9.719957,-3.36399 -0.09721,-0.2809 c -0.120388,-0.34785 0.06273,-0.72482 0.410586,-0.8452 z" />
      </g>
    </g>
  </g>
</svg>
