<?xml version="1.0" encoding="UTF-8" standalone="no"?>
<svg
   xmlns:dc="http://purl.org/dc/elements/1.1/"
   xmlns:cc="http://creativecommons.org/ns#"
   xmlns:rdf="http://www.w3.org/1999/02/22-rdf-syntax-ns#"
   xmlns:svg="http://www.w3.org/2000/svg"
   xmlns="http://www.w3.org/2000/svg"
   xmlns:sodipodi="http://sodipodi.sourceforge.net/DTD/sodipodi-0.dtd"
   xmlns:inkscape="http://www.inkscape.org/namespaces/inkscape"
   width="10mm"
   height="10mm"
   viewBox="0 0 10 10"
   version="1.1"
   id="svg8138"
   inkscape:version="1.0 (4035a4fb49, 2020-05-01)"
   sodipodi:docname="nachladen.svg">
  <defs
     id="defs8132" />
  <sodipodi:namedview
     id="base"
     pagecolor="#ffffff"
     bordercolor="#666666"
     borderopacity="1.0"
     inkscape:pageopacity="0.0"
     inkscape:pageshadow="2"
     inkscape:zoom="3.959798"
     inkscape:cx="3.6647771"
     inkscape:cy="15.323989"
     inkscape:document-units="mm"
     inkscape:current-layer="layer1"
     showgrid="false"
     inkscape:window-width="1920"
     inkscape:window-height="1027"
     inkscape:window-x="-8"
     inkscape:window-y="-8"
     inkscape:window-maximized="1"
     fit-margin-top="0"
     fit-margin-left="0"
     fit-margin-right="0"
     fit-margin-bottom="0"
     inkscape:document-rotation="0" />
  <metadata
     id="metadata8135">
    <rdf:RDF>
      <cc:Work
         rdf:about="">
        <dc:format>image/svg+xml</dc:format>
        <dc:type
           rdf:resource="http://purl.org/dc/dcmitype/StillImage" />
        <dc:title />
      </cc:Work>
    </rdf:RDF>
  </metadata>
  <g
     inkscape:label="Ebene 1"
     inkscape:groupmode="layer"
     id="layer1"
     transform="translate(-165.31852,-138.69041)">
    <circle
       style="opacity:0.997;fill:#000000;fill-opacity:1;stroke:none;stroke-width:0.314416;stroke-miterlimit:4;stroke-dasharray:none"
       id="circle1426"
       cx="170.31853"
       cy="143.69041"
       r="5" />
    <g
       transform="matrix(0.28505068,0,0,0.28505068,-71.777715,59.195111)"
       id="g2344">
      <g
         transform="matrix(0.70060503,0.70060503,-0.70060503,0.70060503,1280.6865,-574.95115)"
         inkscape:export-ydpi="381"
         inkscape:export-xdpi="381"
         id="g2310">
        <rect
           y="-319.92889"
           x="912.01575"
           height="11.834723"
           width="35.433071"
           id="rect2294"
           style="fill:none"
           transform="rotate(90)" />
        <g
           id="g2308"
           transform="matrix(0.11877878,0,0,0.11877878,330.63805,853.15764)"
           style="fill:#ffffff;stroke:#ffffff">
          <path
             sodipodi:nodetypes="zccz"
             inkscape:connector-curvature="0"
             id="path2296"
             d="m -139.97262,522.0181 c -7.28822,0 -16.1923,44.00733 -16.1923,64.50927 h 32.3846 c 0,-20.42089 -8.90408,-64.50927 -16.1923,-64.50927 z"
             style="fill:#ffffff;fill-opacity:1;stroke:#ffffff;stroke-width:0.8;stroke-miterlimit:4;stroke-dasharray:none;stroke-opacity:1" />
          <path
             sodipodi:nodetypes="cscccc"
             inkscape:connector-curvature="0"
             id="path2298"
             d="m -123.78032,587.1453 c 0,-2.15489 -2.82477,-3.89524 -16.1923,-3.89524 -13.36752,0 -16.2084,1.74035 -16.2084,3.89524 0.0398,18.28498 0.0161,5.43511 0.0161,23.72016 h 32.38461 c 0,-18.28507 0,-5.43509 -1e-5,-23.72016 z"
             style="fill:#ffffff;fill-opacity:1;stroke:#ffffff;stroke-width:0.8;stroke-miterlimit:4;stroke-dasharray:none;stroke-opacity:1" />
          <path
             sodipodi:nodetypes="cscccc"
             inkscape:connector-curvature="0"
             id="path2300"
             d="m -123.78032,605.11762 c 0,-2.15489 -2.82477,-3.89524 -16.1923,-3.89524 -13.36752,0 -16.2084,1.74035 -16.2084,3.89524 0.0128,5.87833 -7.9839,9.70938 -7.9839,20.36722 h 48.38461 c 0,-10.65786 -8.00001,-14.59077 -8.00001,-20.36722 z"
             style="fill:#ffffff;fill-opacity:1;stroke:#ffffff;stroke-width:0.8;stroke-miterlimit:4;stroke-dasharray:none;stroke-opacity:1" />
          <path
             style="fill:#ffffff;fill-opacity:1;stroke:#ffffff;stroke-width:0.8;stroke-miterlimit:4;stroke-dasharray:none;stroke-opacity:1"
             d="m -115.78032,625.11762 c 0,-2.15489 -10.82477,-3.89524 -24.1923,-3.89524 -13.36752,0 -24.2084,1.74035 -24.2084,3.89524 0.0398,18.28498 0.0161,116.08217 0.0161,134.36722 h 48.38461 c 0,-18.28507 0,-116.08215 0,-134.36722 z"
             id="path2302"
             inkscape:connector-curvature="0"
             sodipodi:nodetypes="csccccc" />
          <path
             sodipodi:nodetypes="cscccc"
             inkscape:connector-curvature="0"
             id="path2304"
             d="m -115.78032,756.98392 c 0,-2.15489 -10.82477,-3.89524 -24.1923,-3.89524 -13.36752,0 -24.2084,1.74035 -24.2084,3.89524 0.0398,18.28498 0.0161,-10.52217 0.0161,7.76287 h 48.38461 c 0,-18.28506 0,10.52219 0,-7.76287 z"
             style="fill:#ffffff;fill-opacity:1;stroke:#ffffff;stroke-width:0.8;stroke-miterlimit:4;stroke-dasharray:none;stroke-opacity:1" />
          <ellipse
             ry="7.5761442"
             rx="45.456863"
             cy="367.81265"
             cx="135.36044"
             transform="matrix(0.53246171,0,0,0.51500572,-212.05286,575.63519)"
             id="ellipse2306"
             style="fill:#ffffff;fill-opacity:1;stroke:#ffffff;stroke-width:1.52771;stroke-miterlimit:4;stroke-dasharray:none;stroke-opacity:1" />
        </g>
      </g>
      <g
         transform="rotate(15,849.30948,296.42202)"
         id="g2327">
        <path
           sodipodi:nodetypes="cccc"
           d="m 847.14276,280.81444 4.31554,3.33673 -4.31554,3.33673 z"
           style="color:#000000;overflow:visible;fill:#ffffff;stroke:none;stroke-width:3.13874;stroke-linecap:round;stroke-linejoin:miter;stroke-miterlimit:4;stroke-dasharray:none"
           id="path2312" />
        <g
           style="stroke:#ffffff"
           transform="translate(59.402189)"
           id="g2318">
          <path
             inkscape:transform-center-y="-2.375265"
             inkscape:transform-center-x="6.1411046"
             sodipodi:arc-type="arc"
             sodipodi:open="true"
             sodipodi:end="4.71166"
             sodipodi:start="2.6179939"
             sodipodi:ry="12.270857"
             sodipodi:rx="12.270857"
             sodipodi:cy="296.42203"
             sodipodi:cx="789.90729"
             sodipodi:type="arc"
             id="path2314"
             style="color:#000000;overflow:visible;fill:none;stroke:#ffffff;stroke-width:1.95077;stroke-linecap:round;stroke-linejoin:miter;stroke-miterlimit:4;stroke-dasharray:none"
             d="m 779.28041,302.55746 a 12.270857,12.270857 0 0 1 -0.002,-12.26699 12.270857,12.270857 0 0 1 10.62016,-6.1393" />
          <path
             inkscape:transform-center-y="2.6872077"
             inkscape:transform-center-x="-6.1342249"
             sodipodi:arc-type="arc"
             sodipodi:open="true"
             sodipodi:end="1.5707963"
             sodipodi:start="5.7595865"
             sodipodi:ry="12.270857"
             sodipodi:rx="12.270857"
             sodipodi:cy="296.42203"
             sodipodi:cx="789.90729"
             sodipodi:type="arc"
             id="path2316"
             style="color:#000000;overflow:visible;fill:none;stroke:#ffffff;stroke-width:1.95077;stroke-linecap:round;stroke-linejoin:miter;stroke-miterlimit:4;stroke-dasharray:none"
             d="m 800.53416,290.2866 a 12.270857,12.270857 0 0 1 0,12.27086 12.270857,12.270857 0 0 1 -10.62687,6.13542" />
        </g>
        <path
           sodipodi:nodetypes="cccc"
           d="m 851.46725,312.02961 -4.31554,-3.33673 4.31554,-3.33673 z"
           style="color:#000000;overflow:visible;fill:#ffffff;stroke:none;stroke-width:3.13874;stroke-linecap:round;stroke-linejoin:miter;stroke-miterlimit:4;stroke-dasharray:none"
           id="path2320" />
      </g>
    </g>
  </g>
</svg>
