<?xml version="1.0" encoding="UTF-8" standalone="no"?>
<svg
   width="10mm"
   height="10mm"
   viewBox="0 0 10 10"
   version="1.1"
   id="svg8138"
   inkscape:version="1.1 (c68e22c387, 2021-05-23)"
   sodipodi:docname="nachladen.svg"
   xmlns:inkscape="http://www.inkscape.org/namespaces/inkscape"
   xmlns:sodipodi="http://sodipodi.sourceforge.net/DTD/sodipodi-0.dtd"
   xmlns="http://www.w3.org/2000/svg"
   xmlns:svg="http://www.w3.org/2000/svg"
   xmlns:rdf="http://www.w3.org/1999/02/22-rdf-syntax-ns#"
   xmlns:cc="http://creativecommons.org/ns#"
   xmlns:dc="http://purl.org/dc/elements/1.1/">
  <defs
     id="defs8132" />
  <sodipodi:namedview
     id="base"
     pagecolor="#ffffff"
     bordercolor="#666666"
     borderopacity="1.0"
     inkscape:pageopacity="0.0"
     inkscape:pageshadow="2"
     inkscape:zoom="11.2"
     inkscape:cx="16.428571"
     inkscape:cy="18.080357"
     inkscape:document-units="mm"
     inkscape:current-layer="g2327"
     showgrid="false"
     inkscape:window-width="1347"
     inkscape:window-height="1041"
     inkscape:window-x="490"
     inkscape:window-y="-56"
     inkscape:window-maximized="0"
     fit-margin-top="0"
     fit-margin-left="0"
     fit-margin-right="0"
     fit-margin-bottom="0"
     inkscape:document-rotation="0"
     inkscape:pagecheckerboard="0" />
  <metadata
     id="metadata8135">
    <rdf:RDF>
      <cc:Work
         rdf:about="">
        <dc:format>image/svg+xml</dc:format>
        <dc:type
           rdf:resource="http://purl.org/dc/dcmitype/StillImage" />
      </cc:Work>
    </rdf:RDF>
  </metadata>
  <g
     inkscape:label="Ebene 1"
     inkscape:groupmode="layer"
     id="layer1"
     transform="translate(-165.31852,-138.69041)">
    <circle
       style="opacity:0.997;fill:#000000;fill-opacity:1;stroke:none;stroke-width:0.314416;stroke-miterlimit:4;stroke-dasharray:none"
       id="circle1426"
       cx="170.31853"
       cy="143.69041"
       r="5" />
    <g
       transform="matrix(0.26487395,0,0,0.26487395,-54.641425,65.175939)"
       id="g2344"
       style="stroke-width:1.07617">
      <g
         transform="matrix(0.70060503,0.70060503,-0.70060503,0.70060503,1280.6865,-574.95115)"
         inkscape:export-ydpi="381"
         inkscape:export-xdpi="381"
         id="g2310"
         style="stroke-width:1.07617">
        <rect
           y="-319.92889"
           x="912.01575"
           height="11.834723"
           width="35.433071"
           id="rect2294"
           style="fill:none;stroke-width:1.07617"
           transform="rotate(90)" />
        <g
           id="g2308"
           transform="matrix(0.11877878,0,0,0.11877878,330.63805,853.15764)"
           style="fill:#f57900;stroke:#ffffff;stroke-width:1.07617">
          <g
             id="path2296"
             transform="matrix(6.0017946,-6.0017946,6.0017946,6.0017946,-366.81842,644.68289)"
             style="fill:#f57900">
            <path
               id="path1492"
               style="color:#000000;stroke:none;stroke-width:0.101432;-inkscape-stroke:none;fill:#f57900"
               d="M 28.857422 8.5449219 C 28.582882 8.5436062 28.193339 8.6812809 27.720703 8.9023438 C 27.180548 9.1549873 26.539023 9.523247 25.878906 9.9472656 C 24.558673 10.795303 23.164856 11.864441 22.359375 12.669922 L 22.322266 12.705078 L 22.324219 12.707031 C 22.318319 12.711731 22.312361 12.71303 22.306641 12.71875 C 21.166658 13.863706 21.242085 13.788003 20.826172 14.203125 L 20.824219 14.205078 C 20.821719 14.206878 20.817859 14.209484 20.818359 14.208984 C 20.814359 14.211784 20.809194 14.216297 20.808594 14.216797 C 20.583869 14.442502 20.235176 14.483503 19.822266 14.568359 C 19.418855 14.651269 18.957994 14.794448 18.519531 15.199219 C 18.518551 15.199184 18.514919 15.200972 18.511719 15.201172 C 18.503819 15.208572 18.496201 15.205371 18.488281 15.212891 L 18.492188 15.208984 C 18.491842 15.209247 18.508252 15.201072 18.507812 15.201172 C 18.507315 15.201239 18.494561 15.204878 18.494141 15.205078 C 18.493723 15.205246 18.476872 15.216487 18.476562 15.216797 C 16.987124 16.712734 9.2518753 24.443587 7.5058594 26.189453 C 7.5040094 26.1902 7.5020431 26.191306 7.5019531 26.191406 C 7.5018767 26.191446 7.5002069 26.193713 7.4980469 26.195312 C 7.4942169 26.198112 7.4903344 26.201072 7.4902344 26.201172 C 7.4083534 26.283412 7.4370404 26.256032 7.3769531 26.316406 L 7.375 26.318359 C 7.375 26.318359 7.375 26.320312 7.375 26.320312 C 7.375 26.320312 7.3730469 26.320312 7.3730469 26.320312 C 7.3711869 26.322212 7.3683412 26.324978 7.3632812 26.330078 C 7.2647143 26.429128 7.2146572 26.478335 7.1679688 26.525391 C 7.1131608 26.580161 7.059046 26.634477 7.0195312 26.673828 C 6.9997743 26.693508 6.9827682 26.710713 6.9726562 26.720703 C 6.9724015 26.720969 6.9670269 26.726263 6.9667969 26.726562 C 6.9655369 26.727762 6.9635306 26.729869 6.9628906 26.730469 C 6.9628906 26.730469 6.9609375 26.732422 6.9609375 26.732422 L 6.9589844 26.734375 C 6.9589041 26.734465 6.9551081 26.740134 6.9550781 26.740234 C 6.8963001 26.799004 6.9243981 26.770914 6.8457031 26.849609 L 6.8359375 26.859375 L 6.8320312 26.859375 L 6.8183594 26.875 L 6.8085938 26.884766 L 6.8144531 26.890625 C 6.7862621 26.927135 6.7733669 26.971125 6.7792969 27.021484 C 6.7859269 27.077824 6.8070398 27.141582 6.8398438 27.214844 C 6.9054507 27.361368 7.0176362 27.546218 7.171875 27.759766 C 7.4803526 28.186861 7.9511646 28.728526 8.5097656 29.287109 C 9.0670166 29.844292 9.6066415 30.312745 10.033203 30.621094 C 10.246484 30.775268 10.431505 30.889089 10.578125 30.955078 C 10.651435 30.988068 10.715081 31.010578 10.771484 31.017578 C 10.823344 31.023978 10.870944 31.013975 10.908203 30.984375 L 10.912109 30.988281 L 10.919922 30.980469 L 10.923828 30.974609 L 10.927734 30.970703 L 11.384766 30.513672 L 11.59375 30.304688 L 22.578125 19.318359 C 22.578198 19.318286 22.579931 19.3155 22.582031 19.3125 L 22.583984 19.310547 C 22.585584 19.308447 22.587891 19.306741 22.587891 19.306641 C 22.587974 19.306479 22.588741 19.301428 22.589844 19.298828 C 22.592344 19.296228 22.59125 19.293616 22.59375 19.291016 L 22.59375 19.289062 C 23.006007 18.847763 23.148486 18.380518 23.232422 17.972656 C 23.317862 17.557491 23.357116 17.207338 23.578125 16.986328 L 25.076172 15.488281 C 25.081872 15.482581 25.083171 15.476583 25.087891 15.470703 L 25.091797 15.474609 L 25.126953 15.4375 C 25.982778 14.581675 27.142203 13.053325 28.013672 11.658203 C 28.449406 10.960642 28.813342 10.296044 29.03125 9.765625 C 29.140204 9.5004155 29.211922 9.2693288 29.238281 9.0800781 C 29.264641 8.8908274 29.246284 8.7385047 29.152344 8.6445312 C 29.105734 8.5979233 29.04246 8.5675395 28.96875 8.5546875 C 28.934357 8.5486909 28.896642 8.5451098 28.857422 8.5449219 z " />
          </g>
        </g>
      </g>
      <g
         transform="rotate(15,849.30948,296.42202)"
         id="g2327"
         style="stroke-width:1.07617">
        <path
           sodipodi:nodetypes="cccc"
           d="m 847.14276,280.81444 4.31554,3.33673 -4.31554,3.33673 z"
           style="color:#000000;overflow:visible;fill:#f57900;stroke:none;stroke-width:3.37783;stroke-linecap:round;stroke-linejoin:miter;stroke-miterlimit:4;stroke-dasharray:none"
           id="path2312" />
        <g
           style="stroke:#f57900;stroke-width:1.07617"
           transform="translate(59.402189)"
           id="g2318">
          <path
             inkscape:transform-center-y="-2.375265"
             inkscape:transform-center-x="6.1411046"
             sodipodi:arc-type="arc"
             sodipodi:open="true"
             sodipodi:end="4.71166"
             sodipodi:start="2.6179939"
             sodipodi:ry="12.270857"
             sodipodi:rx="12.270857"
             sodipodi:cy="296.42203"
             sodipodi:cx="789.90729"
             sodipodi:type="arc"
             id="path2314"
             style="color:#000000;overflow:visible;fill:none;stroke:#f57900;stroke-width:2.09937;stroke-linecap:round;stroke-linejoin:miter;stroke-miterlimit:4;stroke-dasharray:none"
             d="m 779.28041,302.55746 a 12.270857,12.270857 0 0 1 -0.002,-12.26699 12.270857,12.270857 0 0 1 10.62016,-6.1393" />
          <path
             inkscape:transform-center-y="2.6872077"
             inkscape:transform-center-x="-6.1342249"
             sodipodi:arc-type="arc"
             sodipodi:open="true"
             sodipodi:end="1.5707963"
             sodipodi:start="5.7595865"
             sodipodi:ry="12.270857"
             sodipodi:rx="12.270857"
             sodipodi:cy="296.42203"
             sodipodi:cx="789.90729"
             sodipodi:type="arc"
             id="path2316"
             style="color:#000000;overflow:visible;fill:none;stroke:#f57900;stroke-width:2.09937;stroke-linecap:round;stroke-linejoin:miter;stroke-miterlimit:4;stroke-dasharray:none"
             d="m 800.53416,290.2866 a 12.270857,12.270857 0 0 1 0,12.27086 12.270857,12.270857 0 0 1 -10.62687,6.13542" />
        </g>
        <path
           sodipodi:nodetypes="cccc"
           d="m 851.46725,312.02961 -4.31554,-3.33673 4.31554,-3.33673 z"
           style="color:#000000;overflow:visible;fill:#f57900;stroke:none;stroke-width:3.37783;stroke-linecap:round;stroke-linejoin:miter;stroke-miterlimit:4;stroke-dasharray:none"
           id="path2320" />
      </g>
    </g>
  </g>
</svg>
