<?xml version="1.0" encoding="UTF-8" standalone="no"?>
<svg
   xmlns:dc="http://purl.org/dc/elements/1.1/"
   xmlns:cc="http://creativecommons.org/ns#"
   xmlns:rdf="http://www.w3.org/1999/02/22-rdf-syntax-ns#"
   xmlns:svg="http://www.w3.org/2000/svg"
   xmlns="http://www.w3.org/2000/svg"
   xmlns:sodipodi="http://sodipodi.sourceforge.net/DTD/sodipodi-0.dtd"
   xmlns:inkscape="http://www.inkscape.org/namespaces/inkscape"
   sodipodi:docname="tarnung.svg"
   inkscape:version="1.0 (4035a4fb49, 2020-05-01)"
   id="svg8138"
   version="1.1"
   viewBox="0 0 10 10"
   height="10mm"
   width="10mm">
  <defs
     id="defs8132" />
  <sodipodi:namedview
     inkscape:document-rotation="0"
     fit-margin-bottom="0"
     fit-margin-right="0"
     fit-margin-left="0"
     fit-margin-top="0"
     inkscape:window-maximized="1"
     inkscape:window-y="-8"
     inkscape:window-x="-8"
     inkscape:window-height="1057"
     inkscape:window-width="1920"
     showgrid="false"
     inkscape:current-layer="layer1"
     inkscape:document-units="mm"
     inkscape:cy="13.886799"
     inkscape:cx="13.259855"
     inkscape:zoom="11.2"
     inkscape:pageshadow="2"
     inkscape:pageopacity="0.0"
     borderopacity="1.0"
     bordercolor="#666666"
     pagecolor="#ffffff"
     id="base" />
  <metadata
     id="metadata8135">
    <rdf:RDF>
      <cc:Work
         rdf:about="">
        <dc:format>image/svg+xml</dc:format>
        <dc:type
           rdf:resource="http://purl.org/dc/dcmitype/StillImage" />
        <dc:title />
      </cc:Work>
    </rdf:RDF>
  </metadata>
  <g
     transform="translate(-165.31852,-138.69041)"
     id="layer1"
     inkscape:groupmode="layer"
     inkscape:label="Ebene 1">
    <g
       id="g858">
      <circle
         r="5"
         cy="143.69041"
         cx="170.31853"
         id="circle1426"
         style="fill:#000000;fill-opacity:1;stroke:none;stroke-width:0.314416;stroke-miterlimit:4;stroke-dasharray:none" />
      <g
         id="g851">
        <path
           transform="matrix(0.26458333,0,0,0.26458333,165.31852,138.69041)"
           d="M 18.898438 9.2246094 C 16.074299 9.2246094 13.27024 9.8768977 10.488281 11.183594 C 8.3806655 12.237364 6.4848376 13.629233 4.7988281 15.357422 C 3.534236 16.66408 2.8375517 17.844667 2.7109375 18.898438 C 2.7109375 19.699282 3.407773 20.877954 4.7988281 22.4375 C 6.3583746 24.081443 8.2542781 25.473275 10.488281 26.611328 C 13.143777 27.87592 15.947836 28.529935 18.898438 28.572266 C 21.722538 28.572266 24.524644 27.918062 27.306641 26.611328 C 29.414181 25.557596 31.312 24.165727 32.998047 22.4375 C 34.262563 21.130842 34.95737 19.952208 35.083984 18.898438 C 35.083984 18.097593 34.389026 16.917006 32.998047 15.357422 C 31.438463 13.713516 29.540644 12.321647 27.306641 11.183594 C 24.651107 9.9190772 21.848963 9.2665621 18.898438 9.2246094 z M 18.898438 10.669922 A 8.2279019 8.2279019 0 0 1 27.125 18.898438 A 8.2279019 8.2279019 0 0 1 18.898438 27.125 A 8.2279019 8.2279019 0 0 1 10.669922 18.898438 A 8.2279019 8.2279019 0 0 1 18.898438 10.669922 z "
           style="fill:#ffffff;stroke-width:0.960132"
           id="path1597" />
        <text
           xml:space="preserve"
           style="font-style:normal;font-variant:normal;font-weight:normal;font-stretch:normal;font-size:4.24128px;line-height:1.25;font-family:'Nova Round';-inkscape-font-specification:'Nova Round, Normal';font-variant-ligatures:normal;font-variant-caps:normal;font-variant-numeric:normal;font-feature-settings:normal;text-align:start;letter-spacing:0px;word-spacing:0px;writing-mode:lr-tb;text-anchor:start;fill:#ffffff;fill-opacity:1;stroke:none;stroke-width:0.254035"
           x="168.97241"
           y="145.25397"
           id="text1601"><tspan
             sodipodi:role="line"
             id="tspan1599"
             x="168.97241"
             y="145.25397"
             style="fill:#ffffff;stroke-width:0.254035">?</tspan></text>
      </g>
    </g>
  </g>
</svg>
