<?xml version="1.0" encoding="UTF-8" standalone="no"?>
<!-- Created with Inkscape (http://www.inkscape.org/) -->

<svg
   xmlns:dc="http://purl.org/dc/elements/1.1/"
   xmlns:cc="http://creativecommons.org/ns#"
   xmlns:rdf="http://www.w3.org/1999/02/22-rdf-syntax-ns#"
   xmlns:svg="http://www.w3.org/2000/svg"
   xmlns="http://www.w3.org/2000/svg"
   xmlns:sodipodi="http://sodipodi.sourceforge.net/DTD/sodipodi-0.dtd"
   xmlns:inkscape="http://www.inkscape.org/namespaces/inkscape"
   width="109.32648mm"
   height="77.339973mm"
   viewBox="0 0 387.37728 274.03927"
   id="svg2"
   version="1.1"
   inkscape:version="0.91 r13725"
   sodipodi:docname="Maßband.svg">
  <defs
     id="defs4" />
  <sodipodi:namedview
     id="base"
     pagecolor="#ffffff"
     bordercolor="#666666"
     borderopacity="1.0"
     inkscape:pageopacity="0.0"
     inkscape:pageshadow="2"
     inkscape:zoom="0.7"
     inkscape:cx="249.46127"
     inkscape:cy="182.57522"
     inkscape:document-units="px"
     inkscape:current-layer="layer1"
     showgrid="false"
     fit-margin-top="0"
     fit-margin-left="0"
     fit-margin-right="0"
     fit-margin-bottom="0"
     inkscape:window-width="1920"
     inkscape:window-height="1028"
     inkscape:window-x="-8"
     inkscape:window-y="-8"
     inkscape:window-maximized="1" />
  <metadata
     id="metadata7">
    <rdf:RDF>
      <cc:Work
         rdf:about="">
        <dc:format>image/svg+xml</dc:format>
        <dc:type
           rdf:resource="http://purl.org/dc/dcmitype/StillImage" />
        <dc:title></dc:title>
      </cc:Work>
    </rdf:RDF>
  </metadata>
  <g
     inkscape:label="Ebene 1"
     inkscape:groupmode="layer"
     id="layer1"
     transform="translate(-160.62668,-373.75898)">
    <g
       id="g4567">
      <path
         sodipodi:nodetypes="csssszccccscccssssssscssssssscssssssscssssscscscssssssssssssssssscc"
         inkscape:connector-curvature="0"
         id="path4161-3"
         d="m 257.82611,373.75898 c -7.72185,0.002 -22.51075,1.6504 -29.66992,3.30664 -6.63787,1.53565 -15.44268,5.43311 -25.98633,11.50196 -11.96904,6.88927 -18.79425,12.32602 -24.71875,19.6914 -5.78131,7.18737 -9.25757,13.82416 -12.02344,22.95313 -4.45285,14.69695 -5.04841,15.48075 -4.72851,41.41406 0.3199,25.93331 8.56028,43.49787 20.37109,56.24023 18.76387,20.48914 41.22724,30.63827 57.26563,35.74805 22.45148,7.15429 53.77669,20.03992 79.54296,24.61719 1.92901,0.15571 3.14555,0.0255 4.47657,-0.47656 1.00492,-0.37904 2.80357,-1.03349 3.99804,-1.45508 2.22554,-0.7855 5.96623,-2.81565 14.39258,-7.8125 l 4.78907,-2.8418 5.9707,1.35156 c 3.28363,0.74299 6.97488,1.57113 8.20312,1.83985 2.98787,0.65369 25.5576,5.9809 32.68555,7.71484 3.12644,0.76054 6.5068,1.56757 7.51172,1.79492 1.00493,0.22735 9.31863,2.25229 18.47461,4.49805 9.15599,2.24577 19.66293,4.81315 23.34765,5.70508 9.72565,2.35418 27.98391,6.90808 38.97852,9.72265 8.92361,2.2844 23.62217,5.73352 33.90234,7.95508 4.66119,1.0073 8.14122,2.33113 8.48633,3.23047 0.11122,0.28982 -0.0585,5.83563 -0.37695,12.32227 -0.59598,12.14107 -0.51348,13.45253 0.91992,14.54101 0.96676,0.73414 2.14529,0.62313 3.74414,-0.35156 2.28233,-1.39135 6.14251,-4.91257 7.18164,-6.55078 0.67657,-1.06663 1.25839,-1.52344 1.93945,-1.52344 1.24605,0 7.00052,-4.81591 8.28321,-6.93164 1.32695,-2.18873 1.93258,-6.30444 2.72461,-18.51758 0.66853,-10.30931 0.66622,-10.67703 -0.0684,-12.17578 -0.958,-1.95462 -2.83247,-3.21137 -5.31446,-3.5625 -1.06667,-0.1509 -2.66922,-0.52212 -3.5625,-0.82422 -0.89327,-0.30209 -3.08651,-0.84439 -4.87304,-1.20508 -1.78654,-0.36068 -4.09653,-0.84432 -5.13281,-1.07617 -1.03628,-0.23186 -3.22758,-0.67738 -4.8711,-0.99023 -1.64352,-0.31285 -3.81147,-0.76657 -4.8164,-1.00781 -1.00492,-0.24124 -2.28351,-0.51598 -2.8418,-0.60938 -0.55829,-0.0934 -2.2942,-0.4337 -3.85742,-0.75781 -1.56321,-0.32409 -4.76064,-0.96723 -7.10547,-1.42774 -2.34482,-0.46051 -5.54225,-1.12522 -7.10547,-1.47851 -1.56322,-0.35329 -4.12038,-0.91478 -5.68359,-1.2461 -4.8127,-1.02005 -8.00731,-1.71128 -10.75977,-2.33007 -1.45155,-0.32633 -4.19361,-0.8887 -6.0918,-1.25 -1.89819,-0.36131 -4.08949,-0.83396 -4.87109,-1.04883 -0.78161,-0.21486 -2.60899,-0.66073 -4.06055,-0.99219 -6.76407,-1.54454 -10.04477,-2.33222 -11.16601,-2.67773 -1.0843,-0.33411 -6.13607,-1.55774 -16.85157,-4.08399 -1.89819,-0.44752 -4.08948,-0.98716 -4.87109,-1.19922 -0.78161,-0.21205 -2.97486,-0.7576 -4.87305,-1.21289 -1.8982,-0.45528 -3.81704,-0.92426 -4.26367,-1.04297 -0.44664,-0.11871 -1.99961,-0.48753 -3.45117,-0.81836 -6.19409,-1.41168 -7.13676,-1.63946 -7.71484,-1.86914 -0.65,-0.25826 -4.57697,-1.22441 -7.91602,-1.94726 -1.8795,-0.40688 -3.00893,-0.68012 -9.13672,-2.21485 -1.22824,-0.30762 -3.511,-0.86402 -5.07422,-1.23437 -3.73246,-0.8843 -8.33938,-2.01469 -15.02343,-3.68945 -1.3399,-0.33573 -3.89902,-0.95387 -5.68555,-1.37305 -1.78654,-0.41919 -3.97783,-0.96825 -4.87109,-1.2207 -0.89327,-0.25245 -2.40051,-0.64573 -3.34961,-0.87305 -0.94909,-0.22731 -1.72623,-0.53615 -1.72657,-0.68555 -3.4e-4,-0.1494 -0.18746,-4.10722 -0.41601,-8.79687 -0.74164,-15.21816 -2.66685,-32.39638 -5.8711,-52.37891 -0.53714,-3.34975 -1.09726,-7.55136 -1.24414,-9.33789 -0.24384,-2.96569 -1.18443,-6.97078 -6.48047,-27.61133 -4.77346,-18.60389 -9.40849,-29.93806 -16.83203,-41.1582 -18.17942,-27.47687 -43.34814,-42.2863 -71.85156,-42.2793 z"
         style="fill:#000000;stroke:none" />
      <path
         sodipodi:nodetypes="cssssssssssssssc"
         inkscape:connector-curvature="0"
         id="path4189"
         d="m 213.16685,413.86856 c -7.70387,-0.099 -14.0675,1.80446 -20.76172,6.16797 -16.49989,10.75518 -23.59456,34.15543 -18.25781,60.22462 0.90281,4.4101 4.21731,14.17028 6.42383,18.91797 6.2668,13.48398 16.88846,26.26742 27.79687,33.45117 5.0526,3.3274 10.59695,5.82016 20.16211,9.06836 45.91085,15.59073 47.77979,16.18326 51.18164,16.20899 2.03416,0.0154 2.77975,-0.18564 4.31641,-1.16016 1.38762,-0.88 2.15004,-1.77797 3.02148,-3.55274 1.13856,-2.31875 1.16515,-2.51295 1.07032,-8.20703 -0.1736,-10.42231 -3.4619,-32.65107 -7.39649,-49.99609 -0.43059,-1.89819 -1.3608,-6.01029 -2.0664,-9.13672 -7.08346,-31.38624 -18.01464,-49.99451 -36.73438,-62.53907 -9.17373,-6.14754 -17.25811,-8.94206 -27.19726,-9.40039 -0.52601,-0.0243 -1.04501,-0.0403 -1.5586,-0.0469 z"
         style="fill:#666666;stroke:none" />
      <path
         sodipodi:nodetypes="ccccc"
         inkscape:connector-curvature="0"
         id="path4549"
         d="m 373.33196,559.40991 -7.3236,6.81853 2.30217,0.66832 7.29428,-6.87849 z"
         style="fill:#ffffff;fill-rule:evenodd;stroke:none;stroke-width:1px;stroke-linecap:butt;stroke-linejoin:miter;stroke-opacity:1" />
      <path
         style="fill:#ffffff;fill-rule:evenodd;stroke:none;stroke-width:1px;stroke-linecap:butt;stroke-linejoin:miter;stroke-opacity:1"
         d="m 394.37368,564.49446 -7.3236,6.81853 2.30217,0.66832 7.29428,-6.87849 z"
         id="path4551"
         inkscape:connector-curvature="0"
         sodipodi:nodetypes="ccccc" />
      <path
         sodipodi:nodetypes="ccccc"
         inkscape:connector-curvature="0"
         id="path4553"
         d="m 413.45823,569.34678 -7.3236,6.81853 2.30217,0.66832 7.29428,-6.87849 z"
         style="fill:#ffffff;fill-rule:evenodd;stroke:none;stroke-width:1px;stroke-linecap:butt;stroke-linejoin:miter;stroke-opacity:1" />
      <path
         style="fill:#ffffff;fill-rule:evenodd;stroke:none;stroke-width:1px;stroke-linecap:butt;stroke-linejoin:miter;stroke-opacity:1"
         d="m 434.53152,574.46289 -7.3236,6.81853 2.30217,0.66832 7.29428,-6.87849 z"
         id="path4555"
         inkscape:connector-curvature="0"
         sodipodi:nodetypes="ccccc" />
      <path
         sodipodi:nodetypes="ccccc"
         inkscape:connector-curvature="0"
         id="path4557"
         d="m 453.7739,579.09424 -7.3236,6.81853 2.30217,0.66832 7.29428,-6.87849 z"
         style="fill:#ffffff;fill-rule:evenodd;stroke:none;stroke-width:1px;stroke-linecap:butt;stroke-linejoin:miter;stroke-opacity:1" />
      <path
         style="fill:#ffffff;fill-rule:evenodd;stroke:none;stroke-width:1px;stroke-linecap:butt;stroke-linejoin:miter;stroke-opacity:1"
         d="m 473.07942,583.78872 -7.3236,6.81853 2.30217,0.66832 7.29428,-6.87849 z"
         id="path4559"
         inkscape:connector-curvature="0"
         sodipodi:nodetypes="ccccc" />
      <path
         sodipodi:nodetypes="ccccc"
         inkscape:connector-curvature="0"
         id="path4561"
         d="m 494.53152,588.46289 -7.3236,6.81853 2.30217,0.66832 7.29428,-6.87849 z"
         style="fill:#ffffff;fill-rule:evenodd;stroke:none;stroke-width:1px;stroke-linecap:butt;stroke-linejoin:miter;stroke-opacity:1" />
      <path
         style="fill:#ffffff;fill-rule:evenodd;stroke:none;stroke-width:1px;stroke-linecap:butt;stroke-linejoin:miter;stroke-opacity:1"
         d="m 514.08957,592.6523 -7.3236,6.81853 2.30217,0.66832 7.29428,-6.87849 z"
         id="path4563"
         inkscape:connector-curvature="0"
         sodipodi:nodetypes="ccccc" />
      <path
         sodipodi:nodetypes="ccccc"
         inkscape:connector-curvature="0"
         id="path4565"
         d="m 533.83704,596.90483 -7.3236,6.81853 2.30217,0.66832 7.29428,-6.87849 z"
         style="fill:#ffffff;fill-rule:evenodd;stroke:none;stroke-width:1px;stroke-linecap:butt;stroke-linejoin:miter;stroke-opacity:1" />
    </g>
  </g>
</svg>
