<?xml version="1.0" encoding="UTF-8" standalone="no"?>
<svg
   xmlns:dc="http://purl.org/dc/elements/1.1/"
   xmlns:cc="http://creativecommons.org/ns#"
   xmlns:rdf="http://www.w3.org/1999/02/22-rdf-syntax-ns#"
   xmlns:svg="http://www.w3.org/2000/svg"
   xmlns="http://www.w3.org/2000/svg"
   xmlns:sodipodi="http://sodipodi.sourceforge.net/DTD/sodipodi-0.dtd"
   xmlns:inkscape="http://www.inkscape.org/namespaces/inkscape"
   width="9.375mm"
   height="9.375mm"
   viewBox="0 0 9.375 9.375"
   version="1.1"
   id="svg8640"
   inkscape:version="1.0.2-2 (e86c870879, 2021-01-15)"
   sodipodi:docname="brand.svg">
  <defs
     id="defs8634" />
  <sodipodi:namedview
     id="base"
     pagecolor="#ffffff"
     bordercolor="#666666"
     borderopacity="1.0"
     inkscape:pageopacity="0.0"
     inkscape:pageshadow="2"
     inkscape:zoom="1.4"
     inkscape:cx="12.953408"
     inkscape:cy="36.407386"
     inkscape:document-units="mm"
     inkscape:current-layer="layer1"
     inkscape:document-rotation="0"
     showgrid="false"
     fit-margin-top="0"
     fit-margin-left="0"
     fit-margin-right="0"
     fit-margin-bottom="0"
     inkscape:window-width="1920"
     inkscape:window-height="1057"
     inkscape:window-x="-8"
     inkscape:window-y="-8"
     inkscape:window-maximized="1" />
  <metadata
     id="metadata8637">
    <rdf:RDF>
      <cc:Work
         rdf:about="">
        <dc:format>image/svg+xml</dc:format>
        <dc:type
           rdf:resource="http://purl.org/dc/dcmitype/StillImage" />
        <dc:title></dc:title>
      </cc:Work>
    </rdf:RDF>
  </metadata>
  <g
     inkscape:label="Ebene 1"
     inkscape:groupmode="layer"
     id="layer1"
     transform="translate(-68.63988,-117.77679)">
    <g
       id="g4078"
       transform="matrix(0.26458333,0,0,0.26458333,-19.168543,59.390767)"
       inkscape:export-filename="C:\Dokumente und Einstellungen\Charon\Eigene Dateien\Dropbox\Projekt Tesserakt\Schadenssymbole\effekt_hitze.png"
       inkscape:export-xdpi="381"
       inkscape:export-ydpi="381">
      <rect
         y="220.67157"
         x="331.87436"
         height="35.433071"
         width="35.433071"
         id="rect4076"
         style="fill:none" />
      <path
         style="fill:#000000"
         d="m 340.72403,251.66507 c -2.68964,-2.43242 -3.13398,-8.2978 -2.56821,-10.4597 0.56576,-2.16191 0.89397,-3.53479 2.64503,-6.03625 1.75106,-2.50146 4.33441,-4.43592 5.34136,-6.88594 1.00695,-2.45003 0.39665,-4.65817 -1.00801,-6.52617 0.16534,0 1.34305,0.33998 3.72777,1.76585 2.38472,1.42589 6.52346,4.84026 8.66207,8.03892 2.1386,3.19865 3.3491,6.76888 3.67016,10.74602 0.32108,3.97714 -1.00592,7.17527 -3.30326,9.35727 -2.29733,2.18198 -4.62409,3.22637 -7.41947,3.35413 1.67098,-0.93244 3.45223,-1.94518 4.29285,-3.61613 0.84064,-1.67093 0.0594,-4.43894 -0.51628,-5.32561 -0.57569,-0.88667 -0.60167,-0.75836 -1.64427,-1.80309 -1.04258,-1.04474 -1.72882,-1.79097 -2.02454,-2.48085 -0.49174,-1.42597 -0.30368,-3.0065 0.31599,-4.36017 -2.58912,1.52078 -4.59134,3.65104 -6.10928,6.22815 -1.18966,2.30166 -1.79894,5.97775 -0.93367,7.74558 0.86527,1.76783 2.62201,2.83436 4.3043,3.6008 -2.84293,-0.0258 -4.7429,-0.91041 -7.43254,-3.34281 z"
         id="path4058"
         sodipodi:nodetypes="czzzczzzzczzzccczcz"
         inkscape:connector-curvature="0" />
    </g>
  </g>
</svg>
