<?xml version="1.0" encoding="UTF-8" standalone="no"?>
<svg
   xmlns:dc="http://purl.org/dc/elements/1.1/"
   xmlns:cc="http://creativecommons.org/ns#"
   xmlns:rdf="http://www.w3.org/1999/02/22-rdf-syntax-ns#"
   xmlns:svg="http://www.w3.org/2000/svg"
   xmlns="http://www.w3.org/2000/svg"
   xmlns:sodipodi="http://sodipodi.sourceforge.net/DTD/sodipodi-0.dtd"
   xmlns:inkscape="http://www.inkscape.org/namespaces/inkscape"
   width="9.375mm"
   height="9.375mm"
   viewBox="0 0 9.375 9.375"
   version="1.1"
   id="svg1837"
   inkscape:version="1.0.2-2 (e86c870879, 2021-01-15)"
   sodipodi:docname="giftig.svg">
  <defs
     id="defs1831" />
  <sodipodi:namedview
     id="base"
     pagecolor="#ffffff"
     bordercolor="#666666"
     borderopacity="1.0"
     inkscape:pageopacity="0.0"
     inkscape:pageshadow="2"
     inkscape:zoom="0.35"
     inkscape:cx="-19.426321"
     inkscape:cy="37.716539"
     inkscape:document-units="mm"
     inkscape:current-layer="layer1"
     inkscape:document-rotation="0"
     showgrid="false"
     fit-margin-top="0"
     fit-margin-left="0"
     fit-margin-right="0"
     fit-margin-bottom="0"
     inkscape:window-width="1920"
     inkscape:window-height="1057"
     inkscape:window-x="-8"
     inkscape:window-y="-8"
     inkscape:window-maximized="1" />
  <metadata
     id="metadata1834">
    <rdf:RDF>
      <cc:Work
         rdf:about="">
        <dc:format>image/svg+xml</dc:format>
        <dc:type
           rdf:resource="http://purl.org/dc/dcmitype/StillImage" />
        <dc:title></dc:title>
      </cc:Work>
    </rdf:RDF>
  </metadata>
  <g
     inkscape:label="Ebene 1"
     inkscape:groupmode="layer"
     id="layer1"
     transform="translate(-110.97321,-138.1875)">
    <g
       id="g1772"
       transform="matrix(0.26458333,0,0,0.26458333,90.614115,-78.971772)"
       inkscape:export-filename="C:\Users\Charon\Source\Repos\Universalis\Regeln\Grafiken\Effekt\effekt_gift.png"
       inkscape:export-xdpi="406.39999"
       inkscape:export-ydpi="406.39999">
      <rect
         y="820.75946"
         x="76.947777"
         height="35.433071"
         width="35.433071"
         id="rect1666"
         style="fill:none" />
      <g
         id="g1763"
         transform="matrix(1.0565335,0,0,1.0565335,-5.3517035,-47.401982)">
        <path
           id="rect1681"
           style="opacity:0.996;fill:#000000;stroke:none;stroke-width:1.28184"
           d="m 89.644474,822.99846 c -0.100168,0 -0.180511,0.0803 -0.180511,0.1805 v 2.64828 c 0,0.10019 0.08034,0.18051 0.180511,0.18051 h 1.379951 v 2.90241 h -3.45344 c -0.833663,-10e-6 -1.505833,0.67217 -1.505833,1.50583 v 22.03409 c 0,0.83366 0.67217,1.50345 1.505833,1.50345 h 14.186655 c 0.83366,10e-6 1.50583,-0.66979 1.50583,-1.50345 v -22.03409 c 0,-0.83366 -0.67217,-1.50583 -1.50583,-1.50583 h -3.453439 v -2.90241 h 1.37995 c 0.100169,0 0.180511,-0.0803 0.180511,-0.18051 v -2.64828 c 0,-0.1002 -0.08034,-0.1805 -0.180511,-0.1805 h -2.883408 -4.27286 z" />
        <path
           style="fill:#ffffff;stroke:none;stroke-width:0.197171;stroke-miterlimit:4;stroke-dasharray:none;stroke-opacity:1"
           d="m 96.193762,846.39327 c -0.20187,-0.0979 -0.432271,-0.27764 -0.512001,-0.39931 l -0.14495,-0.22123 0.09578,-0.0958 c 0.05268,-0.0527 0.09578,-0.13161 0.09578,-0.17539 v -0.0796 l -0.209038,0.0525 -0.209037,0.0525 -0.108372,-0.13059 c -0.142305,-0.17146 -0.261508,-0.165 -0.397941,0.0216 l -0.111283,0.15218 -0.168151,-0.15218 c -0.309299,-0.27991 -0.407947,-0.18519 -0.480326,0.46119 l -0.02451,0.21906 -0.240967,0.0277 -0.240969,0.0277 v -0.26667 -0.26667 l -0.31784,0.41353 -0.389147,0.37635 c -0.239011,0.15272 -0.253463,-0.81301 -0.5097,-0.7063 h -0.08667 l 0.05198,-0.32031 0.05198,-0.32031 -0.10129,0.0626 -0.101306,0.0626 v -0.11553 c 0,-0.0636 -0.08414,-0.16809 -0.186991,-0.23232 l -0.186994,-0.11677 -0.06493,0.10505 -0.06493,0.10506 -0.05504,-0.0891 c -0.0303,-0.049 -0.03295,-0.14669 -0.006,-0.21711 l 0.04913,-0.12804 -0.133666,-0.0513 c -0.07352,-0.0282 -0.152367,-0.021 -0.175239,0.016 -0.04468,0.0723 -0.283509,0.0566 -0.964355,-0.0633 l -0.43075,-0.0759 -0.123087,-0.16503 c -0.0677,-0.0908 -0.149978,-0.15842 -0.18285,-0.15035 -0.03287,0.008 -0.06313,-0.11846 -0.06725,-0.28118 -0.0095,-0.89091 -0.04844,-0.90162 -0.05124,-1.68971 -0.003,-0.78808 -0.108372,-1.21893 -0.09103,-1.39864 0.01735,-0.17971 0.04905,-0.33634 0.04905,-0.33634 0.02698,-0.0904 0.07606,-0.28261 0.109088,-0.42719 0.03304,-0.14458 0.08862,-0.30231 0.123518,-0.3505 0.0349,-0.0482 0.09054,-0.20592 0.12364,-0.3505 0.160767,-0.70223 1.140612,-1.74977 2.110789,-2.2566 1.663629,-0.86911 3.474886,-0.84009 5.382658,0.0862 l 0.650921,0.31605 0.598517,0.58793 0.598516,0.58792 0.302533,0.6548 c 0.410034,0.88745 0.480246,1.24968 0.480194,2.47717 l -5.3e-5,1.0515 -0.207776,0.95165 -0.207772,0.95165 -0.15288,0.14366 c -0.08408,0.079 -0.125279,0.0944 -0.09154,0.0341 l 0.06132,-0.10953 h -0.09279 c -0.05103,0 -0.163235,0.0704 -0.249336,0.15653 l -0.156531,0.15655 -0.215876,-0.0602 c -0.11872,-0.0331 -0.363617,-0.0641 -0.544199,-0.0689 l -0.328343,-0.009 -0.350751,0.31688 -0.350751,0.31688 v 0.20887 c 0,0.11488 -0.03943,0.20886 -0.08763,0.20886 -0.04819,0 -0.08762,0.0954 -0.08762,0.2119 0,0.2885 -0.08585,0.49 -0.206534,0.48474 -0.05508,-0.003 -0.26533,-0.0845 -0.467207,-0.18246 z m -1.576078,-2.38616 c 0.185614,-0.13001 0.464739,-0.0981 0.464739,0.0532 0,0.12187 0.0762,0.0989 0.262613,-0.0374 l 0.167625,-0.12257 6.57e-4,-0.4566 c -0.01111,-0.25491 -0.07898,-0.55324 -0.150879,-0.66297 -0.03773,-0.38006 -0.130681,-0.71653 -0.31944,-1.01052 -0.128973,-10e-4 -0.304961,-0.014 -0.391089,-0.028 -0.252695,0.39567 -0.289651,0.71798 -0.361497,1.08444 0.01219,0.0482 -0.135594,0.55915 -0.07613,0.75702 l 0.09436,0.31159 c 0.387277,0.35018 -0.129222,0.291 0.309224,0.11181 z m 3.562318,-1.15011 c 0.309516,-0.16006 0.358464,-0.3044 0.312329,-0.92102 -0.04506,-0.60228 -0.08492,-0.69535 -0.407438,-0.9514 l -0.260226,-0.2066 -0.576328,-0.13146 -0.576315,-0.13146 -0.213507,0.0973 -0.213507,0.0973 -0.126889,0.30368 c -0.06979,0.16702 -0.126883,0.5076 -0.126883,0.75686 v 0.45318 l 0.153346,0.12065 c 0.216205,0.17011 0.69892,0.38563 1.161026,0.51838 0.517854,0.14876 0.577028,0.1484 0.874392,-0.005 z m -5.520359,-0.26659 c 0.314281,-0.12199 0.653205,-0.29028 0.753168,-0.37398 l 0.181762,-0.15217 0.106837,-0.54305 0.106844,-0.54306 -0.136853,-0.26463 -0.136844,-0.26463 -0.2307,-0.0579 c -0.126879,-0.0318 -0.352893,-0.0164 -0.502244,0.0342 -0.149347,0.0507 -0.429274,0.11824 -0.622052,0.15015 -0.450552,0.0746 -0.971002,0.41444 -1.033979,0.6752 -0.02705,0.11191 -0.09062,0.36119 -0.141329,0.55397 l -0.0922,0.3505 0.09493,0.2366 0.09492,0.23661 0.232146,0.0851 c 0.385933,0.14142 0.725823,0.10991 1.325598,-0.12291 z"
           id="path1695"
           inkscape:connector-curvature="0"
           sodipodi:nodetypes="cccsscccccccccccccccccccccscccccccccscscczzccsssscccssccccccsccsccccsssccccsscccccccccccssccccccsccsccsccccccccscscccss" />
        <g
           id="g1756"
           transform="matrix(1.0659532,0,0,1.0659532,-6.4472986,-57.466826)">
          <path
             id="rect1715"
             style="opacity:0.996;fill:#ffffff;stroke:none;stroke-width:0.908252"
             d="m 89.847963,846.71857 c -0.347851,-0.12042 -0.67076,0.15044 -0.845201,0.41058 -0.154948,0.23109 0.03529,0.57965 -0.05235,0.83301 -0.08768,0.25335 -0.452688,0.40974 -0.473732,0.68717 -0.02374,0.31231 0.06273,0.72481 0.410586,0.8452 0.34785,0.12042 0.724818,-0.0628 0.845201,-0.41058 l 0.0965,-0.27884 9.719958,3.36399 -0.0965,0.27883 c -0.120387,0.34784 0.06273,0.72481 0.410579,0.8452 0.347856,0.12042 0.670756,-0.15044 0.845206,-0.41058 0.1549,-0.2311 -0.0353,-0.57964 0.0526,-0.83299 0.0877,-0.25335 0.45269,-0.40974 0.47374,-0.68717 0.0233,-0.31235 -0.0627,-0.72481 -0.4106,-0.8452 -0.34784,-0.12042 -0.72481,0.0627 -0.845184,0.41058 l -0.09723,0.28091 -9.719957,-3.36399 0.09721,-0.2809 c 0.120388,-0.34785 -0.06273,-0.72482 -0.410586,-0.8452 z" />
          <path
             id="path1747"
             style="opacity:0.996;fill:#ffffff;stroke:none;stroke-width:0.908252"
             d="m 99.863161,846.71857 c 0.347849,-0.12042 0.670759,0.15044 0.845199,0.41058 0.15495,0.23109 -0.0353,0.57965 0.0524,0.83301 0.0877,0.25335 0.45269,0.40974 0.47373,0.68717 0.0237,0.31231 -0.0627,0.72481 -0.41058,0.8452 -0.34785,0.12042 -0.72482,-0.0628 -0.845203,-0.41058 l -0.0965,-0.27884 -9.719958,3.36399 0.0965,0.27883 c 0.120387,0.34784 -0.06273,0.72481 -0.410579,0.8452 -0.347856,0.12042 -0.670756,-0.15044 -0.845206,-0.41058 -0.1549,-0.2311 0.0353,-0.57964 -0.0526,-0.83299 -0.0877,-0.25335 -0.45269,-0.40974 -0.47374,-0.68717 -0.0233,-0.31235 0.0627,-0.72481 0.4106,-0.8452 0.34784,-0.12042 0.72481,0.0627 0.845184,0.41058 l 0.09723,0.28091 9.719957,-3.36399 -0.09721,-0.2809 c -0.120388,-0.34785 0.06273,-0.72482 0.410586,-0.8452 z" />
        </g>
      </g>
    </g>
  </g>
</svg>
