<?xml version="1.0" encoding="UTF-8" standalone="no"?>
<svg
   width="9.375mm"
   height="9.375mm"
   viewBox="0 0 9.375 9.375"
   version="1.1"
   id="svg1837"
   inkscape:version="1.3.1 (91b66b0783, 2023-11-16)"
   sodipodi:docname="giftig.svg"
   inkscape:export-filename="giftig.png"
   inkscape:export-xdpi="406.39999"
   inkscape:export-ydpi="406.39999"
   xmlns:inkscape="http://www.inkscape.org/namespaces/inkscape"
   xmlns:sodipodi="http://sodipodi.sourceforge.net/DTD/sodipodi-0.dtd"
   xmlns="http://www.w3.org/2000/svg"
   xmlns:svg="http://www.w3.org/2000/svg"
   xmlns:rdf="http://www.w3.org/1999/02/22-rdf-syntax-ns#"
   xmlns:cc="http://creativecommons.org/ns#"
   xmlns:dc="http://purl.org/dc/elements/1.1/">
  <defs
     id="defs1831" />
  <sodipodi:namedview
     id="base"
     pagecolor="#ffffff"
     bordercolor="#666666"
     borderopacity="1.0"
     inkscape:pageopacity="0.0"
     inkscape:pageshadow="2"
     inkscape:zoom="11.313709"
     inkscape:cx="21.434174"
     inkscape:cy="21.434174"
     inkscape:document-units="mm"
     inkscape:current-layer="g112"
     inkscape:document-rotation="0"
     showgrid="false"
     fit-margin-top="0"
     fit-margin-left="0"
     fit-margin-right="0"
     fit-margin-bottom="0"
     inkscape:window-width="1920"
     inkscape:window-height="1009"
     inkscape:window-x="1912"
     inkscape:window-y="-8"
     inkscape:window-maximized="1"
     inkscape:showpageshadow="2"
     inkscape:pagecheckerboard="0"
     inkscape:deskcolor="#d1d1d1" />
  <metadata
     id="metadata1834">
    <rdf:RDF>
      <cc:Work
         rdf:about="">
        <dc:format>image/svg+xml</dc:format>
        <dc:type
           rdf:resource="http://purl.org/dc/dcmitype/StillImage" />
        <dc:title />
      </cc:Work>
    </rdf:RDF>
  </metadata>
  <g
     inkscape:label="Ebene 1"
     inkscape:groupmode="layer"
     id="layer1"
     transform="translate(-110.97321,-138.1875)">
    <g
       id="g114"
       transform="matrix(0.26458333,0,0,0.26458333,-11.044849,49.249366)">
      <rect
         y="336.14413"
         x="461.17062"
         height="35.433071"
         width="35.433071"
         id="rect100"
         style="fill:none" />
      <g
         id="g113">
        <path
           id="path100"
           style="opacity:0.996;fill:#000000;stroke:none;stroke-width:1.35431"
           d="m 473.58355,337.50813 c -0.10583,0 -0.19072,0.0848 -0.19072,0.19071 v 2.79799 c 0,0.10586 0.0849,0.19072 0.19072,0.19072 h 1.45796 v 3.06649 h -3.64867 c -0.88079,-10e-6 -1.59096,0.71017 -1.59096,1.59096 v 23.27976 c 0,0.88079 0.71017,1.58844 1.59096,1.58844 h 14.98868 c 0.88079,1e-5 1.59096,-0.70765 1.59096,-1.58844 V 345.345 c 0,-0.88079 -0.71017,-1.59096 -1.59096,-1.59096 h -3.64868 v -3.06649 h 1.45796 c 0.10584,0 0.19072,-0.0848 0.19072,-0.19072 v -2.79799 c 0,-0.10587 -0.0849,-0.19071 -0.19072,-0.19071 h -3.04641 -4.51442 z" />
        <g
           id="g103"
           transform="matrix(1.1262153,0,0,1.1262153,372.05937,-592.73294)">
          <path
             id="path102"
             style="opacity:0.996;fill:#ffffff;stroke:none;stroke-width:0.908252"
             d="m 89.847963,846.71857 c -0.347851,-0.12042 -0.67076,0.15044 -0.845201,0.41058 -0.154948,0.23109 0.03529,0.57965 -0.05235,0.83301 -0.08768,0.25335 -0.452688,0.40974 -0.473732,0.68717 -0.02374,0.31231 0.06273,0.72481 0.410586,0.8452 0.34785,0.12042 0.724818,-0.0628 0.845201,-0.41058 l 0.0965,-0.27884 9.719958,3.36399 -0.0965,0.27883 c -0.120387,0.34784 0.06273,0.72481 0.410579,0.8452 0.347856,0.12042 0.670756,-0.15044 0.845206,-0.41058 0.1549,-0.2311 -0.0353,-0.57964 0.0526,-0.83299 0.0877,-0.25335 0.45269,-0.40974 0.47374,-0.68717 0.0233,-0.31235 -0.0627,-0.72481 -0.4106,-0.8452 -0.34784,-0.12042 -0.72481,0.0627 -0.845184,0.41058 l -0.09723,0.28091 -9.719957,-3.36399 0.09721,-0.2809 c 0.120388,-0.34785 -0.06273,-0.72482 -0.410586,-0.8452 z" />
          <path
             id="path103"
             style="opacity:0.996;fill:#ffffff;stroke:none;stroke-width:0.908252"
             d="m 99.863161,846.71857 c 0.347849,-0.12042 0.670759,0.15044 0.845199,0.41058 0.15495,0.23109 -0.0353,0.57965 0.0524,0.83301 0.0877,0.25335 0.45269,0.40974 0.47373,0.68717 0.0237,0.31231 -0.0627,0.72481 -0.41058,0.8452 -0.34785,0.12042 -0.72482,-0.0628 -0.845203,-0.41058 l -0.0965,-0.27884 -9.719958,3.36399 0.0965,0.27883 c 0.120387,0.34784 -0.06273,0.72481 -0.410579,0.8452 -0.347856,0.12042 -0.670756,-0.15044 -0.845206,-0.41058 -0.1549,-0.2311 0.0353,-0.57964 -0.0526,-0.83299 -0.0877,-0.25335 -0.45269,-0.40974 -0.47374,-0.68717 -0.0233,-0.31235 0.0627,-0.72481 0.4106,-0.8452 0.34784,-0.12042 0.72481,0.0627 0.845184,0.41058 l 0.09723,0.28091 9.719957,-3.36399 -0.09721,-0.2809 c -0.120388,-0.34785 0.06273,-0.72482 0.410586,-0.8452 z" />
        </g>
        <g
           id="g112"
           transform="matrix(0.34494066,0,0,0.34494066,318.78305,55.047448)">
          <path
             id="path105"
             style="fill:#ffffff;stroke-width:1.30687;stroke-linecap:round;stroke-linejoin:round;stroke-dashoffset:6.38929"
             d="M 464.15047 859.57098 C 455.05607 859.57098 447.68478 866.09207 447.68478 874.13418 L 447.68478 879.40003 C 447.68478 882.92835 448.89261 885.76435 452.88268 885.76435 L 455.20985 885.76435 L 455.20985 888.65207 L 455.20985 890.38471 C 455.20985 890.77014 455.52086 891.08116 455.9063 891.08116 L 458.15419 891.08116 C 458.53963 891.08116 458.84498 890.77014 458.84498 890.38471 L 458.84498 888.65207 L 459.96044 888.65207 L 459.96044 890.38471 C 459.96044 890.77014 460.27145 891.08116 460.65689 891.08116 L 462.89912 891.08116 C 463.28456 891.08116 463.59557 890.77014 463.59557 890.38471 L 463.59557 888.65207 L 464.70537 888.65207 L 464.70537 890.38471 C 464.70537 890.77014 465.01638 891.08116 465.40182 891.08116 L 467.64405 891.08116 C 468.02949 891.08116 468.3405 890.77014 468.3405 890.38471 L 468.3405 888.65207 L 469.4503 888.65207 L 469.4503 890.38471 C 469.4503 890.77014 469.76131 891.08116 470.14675 891.08116 L 472.38898 891.08116 C 472.77442 891.08116 473.08543 890.77014 473.08543 890.38471 L 473.08543 888.65207 L 473.08543 887.20255 C 473.08543 887.17846 473.0878 887.15805 473.08543 887.1346 L 473.08543 885.76435 L 475.4126 885.76435 C 479.40263 885.76435 480.61617 882.92835 480.61617 879.40003 L 480.61617 874.13418 C 480.61617 866.09207 473.24487 859.57098 464.15047 859.57098 z M 457.91638 871.98254 A 3.2018232 4.5654852 60.880703 0 1 460.76447 873.26786 A 3.2018232 4.5654852 60.880703 0 1 458.45995 878.30156 A 3.2018232 4.5654852 60.880703 0 1 452.86003 877.83726 A 3.2018232 4.5654852 60.880703 0 1 455.17021 872.80356 A 3.2018232 4.5654852 60.880703 0 1 457.91638 871.98254 z M 470.38456 871.98254 A 4.5654852 3.2018232 29.119297 0 1 473.13073 872.80356 A 4.5654852 3.2018232 29.119297 0 1 475.44091 877.83726 A 4.5654852 3.2018232 29.119297 0 1 469.84099 878.30156 A 4.5654852 3.2018232 29.119297 0 1 467.53081 873.26786 A 4.5654852 3.2018232 29.119297 0 1 470.38456 871.98254 z M 464.15047 876.14992 C 464.57603 876.14992 464.99921 877.03133 465.54337 878.78851 C 466.63169 882.30287 466.32711 883.29562 464.15047 883.29562 C 461.97383 883.29562 461.66359 882.30287 462.75191 878.78851 C 463.29606 877.03133 463.72491 876.14992 464.15047 876.14992 z " />
        </g>
      </g>
    </g>
  </g>
</svg>
