<?xml version="1.0" encoding="UTF-8" standalone="no"?>
<svg
   xmlns:dc="http://purl.org/dc/elements/1.1/"
   xmlns:cc="http://creativecommons.org/ns#"
   xmlns:rdf="http://www.w3.org/1999/02/22-rdf-syntax-ns#"
   xmlns:svg="http://www.w3.org/2000/svg"
   xmlns="http://www.w3.org/2000/svg"
   xmlns:sodipodi="http://sodipodi.sourceforge.net/DTD/sodipodi-0.dtd"
   xmlns:inkscape="http://www.inkscape.org/namespaces/inkscape"
   width="9.375mm"
   height="9.375mm"
   viewBox="0 0 9.375 9.375"
   version="1.1"
   id="svg2457"
   inkscape:version="1.0.2-2 (e86c870879, 2021-01-15)"
   sodipodi:docname="panzerbrechend.svg">
  <defs
     id="defs2451" />
  <sodipodi:namedview
     id="base"
     pagecolor="#ffffff"
     bordercolor="#666666"
     borderopacity="1.0"
     inkscape:pageopacity="0.0"
     inkscape:pageshadow="2"
     inkscape:zoom="0.35"
     inkscape:cx="29.145091"
     inkscape:cy="94.859394"
     inkscape:document-units="mm"
     inkscape:current-layer="layer1"
     inkscape:document-rotation="0"
     showgrid="false"
     fit-margin-top="0"
     fit-margin-left="0"
     fit-margin-right="0"
     fit-margin-bottom="0"
     inkscape:window-width="1920"
     inkscape:window-height="1057"
     inkscape:window-x="-8"
     inkscape:window-y="-8"
     inkscape:window-maximized="1" />
  <metadata
     id="metadata2454">
    <rdf:RDF>
      <cc:Work
         rdf:about="">
        <dc:format>image/svg+xml</dc:format>
        <dc:type
           rdf:resource="http://purl.org/dc/dcmitype/StillImage" />
        <dc:title></dc:title>
      </cc:Work>
    </rdf:RDF>
  </metadata>
  <g
     inkscape:label="Ebene 1"
     inkscape:groupmode="layer"
     id="layer1"
     transform="translate(-98.122028,-123.06845)">
    <g
       id="g2874"
       transform="matrix(0.26458333,0,0,0.26458333,-129.6687,15.613352)"
       inkscape:export-filename="/home/charon/Projekte/Universalis/Regeln/Grafiken/Effekt/effekt_panzerbrechend.png"
       inkscape:export-xdpi="406"
       inkscape:export-ydpi="406">
      <rect
         y="406.12952"
         x="860.94135"
         height="35.433071"
         width="35.433071"
         id="rect2788"
         style="fill:none" />
      <g
         id="g2862">
        <path
           style="fill:#000000;fill-opacity:1;stroke:none;stroke-width:1.3847;stroke-miterlimit:4;stroke-opacity:1"
           d="m 891.00023,408.47496 -24.68473,-7e-5 v 20.99032 c 2e-5,5.24349 12.34237,9.75198 12.34237,9.75198 0,0 12.34237,-4.50847 12.34236,-9.75198 z"
           id="path2800"
           inkscape:connector-curvature="0"
           sodipodi:nodetypes="cccccc" />
        <g
           id="g2852"
           transform="matrix(1.3527553,0,0,1.3527553,-310.01545,-148.54504)">
          <circle
             style="color:#000000;overflow:visible;fill:#ffffff;stroke:none;stroke-width:0.700062;stroke-linecap:round;stroke-linejoin:miter;stroke-miterlimit:4;stroke-dasharray:none"
             id="path2802"
             cx="878.65784"
             cy="421.05966"
             r="3.8291512" />
          <path
             style="fill:#ffffff;fill-rule:evenodd;stroke:none;stroke-width:1px;stroke-linecap:butt;stroke-linejoin:miter;stroke-opacity:1"
             d="m 876.82419,417.84965 -0.15431,-1.64094 -0.82078,-0.24689 -0.73479,-1.22539 1.13432,0.8827 0.90921,0.15906 0.31623,1.03231 1.30003,0.64924 z"
             id="path2804" />
          <path
             style="fill:#ffffff;fill-rule:evenodd;stroke:none;stroke-width:1px;stroke-linecap:butt;stroke-linejoin:miter;stroke-opacity:1"
             d="m 880.70417,417.92535 1.27025,0.52392 0.46501,-0.0436 0.46106,0.0248 0.6989,-0.61793 -0.49829,0.76203 -0.5917,0.25952 -0.10784,0.24267 -0.0221,0.40855 -0.23548,0.54671 z"
             id="path2806"
             sodipodi:nodetypes="ccccccccccc" />
          <path
             style="fill:#ffffff;fill-rule:evenodd;stroke:none;stroke-width:1px;stroke-linecap:butt;stroke-linejoin:miter;stroke-opacity:1"
             d="m 882.31704,421.45979 0.62957,0.73699 0.63761,-0.0221 0.5776,0.53757 0.61095,0.14506 0.19234,0.35509 -0.5434,-0.041 -0.5277,0.21626 -0.73583,-0.39177 -0.59132,0.4151 -0.63261,0.12677 -0.28588,0.19204 -0.59452,-0.0477 z"
             id="path2808" />
          <path
             style="fill:#ffffff;fill-rule:evenodd;stroke:none;stroke-width:1px;stroke-linecap:butt;stroke-linejoin:miter;stroke-opacity:1"
             d="m 879.2963,424.64879 -0.3755,0.51357 0.10537,0.52113 -0.13146,0.37742 0.11049,0.37908 -0.36363,0.60822 -0.43034,0.41412 0.15935,-0.5554 0.33118,-0.47931 -0.32752,-0.62161 -0.0218,-0.40205 -0.32918,-0.29224 -0.45934,-0.72126 z"
             id="path2810" />
          <path
             style="fill:#ffffff;fill-rule:evenodd;stroke:none;stroke-width:1px;stroke-linecap:butt;stroke-linejoin:miter;stroke-opacity:1"
             d="m 875.32994,422.74096 -0.677,-0.73339 -0.66329,-0.1547 -0.52362,0.11021 -0.43474,0.23575 -0.21425,0.72099 -0.10233,-0.81133 0.24165,-0.34129 0.32957,-0.36552 -0.0882,-0.62716 -0.42261,-0.36867 0.57842,0.29733 0.329,0.38579 0.58616,0.0518 0.31608,0.16621 0.17727,-0.33642 0.45289,-0.37783 z"
             id="path2812" />
        </g>
      </g>
    </g>
  </g>
</svg>
