<?xml version="1.0" encoding="UTF-8" standalone="no"?>
<svg
   xmlns:dc="http://purl.org/dc/elements/1.1/"
   xmlns:cc="http://creativecommons.org/ns#"
   xmlns:rdf="http://www.w3.org/1999/02/22-rdf-syntax-ns#"
   xmlns:svg="http://www.w3.org/2000/svg"
   xmlns="http://www.w3.org/2000/svg"
   xmlns:sodipodi="http://sodipodi.sourceforge.net/DTD/sodipodi-0.dtd"
   xmlns:inkscape="http://www.inkscape.org/namespaces/inkscape"
   width="9.375mm"
   height="9.375mm"
   viewBox="0 0 9.375 9.375"
   version="1.1"
   id="svg3707"
   inkscape:version="1.0.2-2 (e86c870879, 2021-01-15)"
   sodipodi:docname="schrapnell.svg">
  <defs
     id="defs3701" />
  <sodipodi:namedview
     id="base"
     pagecolor="#ffffff"
     bordercolor="#666666"
     borderopacity="1.0"
     inkscape:pageopacity="0.0"
     inkscape:pageshadow="2"
     inkscape:zoom="0.35"
     inkscape:cx="63.430822"
     inkscape:cy="54.859391"
     inkscape:document-units="mm"
     inkscape:current-layer="layer1"
     inkscape:document-rotation="0"
     showgrid="false"
     fit-margin-top="0"
     fit-margin-left="0"
     fit-margin-right="0"
     fit-margin-bottom="0"
     inkscape:window-width="1920"
     inkscape:window-height="1057"
     inkscape:window-x="-8"
     inkscape:window-y="-8"
     inkscape:window-maximized="1" />
  <metadata
     id="metadata3704">
    <rdf:RDF>
      <cc:Work
         rdf:about="">
        <dc:format>image/svg+xml</dc:format>
        <dc:type
           rdf:resource="http://purl.org/dc/dcmitype/StillImage" />
        <dc:title></dc:title>
      </cc:Work>
    </rdf:RDF>
  </metadata>
  <g
     inkscape:label="Ebene 1"
     inkscape:groupmode="layer"
     id="layer1"
     transform="translate(-89.050595,-133.65179)">
    <g
       id="g1806"
       inkscape:export-filename="/home/charon/Projekte/Universalis/Regeln/Grafiken/Effekt/schrapnell.png"
       inkscape:export-xdpi="381"
       inkscape:export-ydpi="381"
       transform="matrix(0.26458333,0,0,0.26458333,-99.132522,72.176316)">
      <rect
         style="fill:none"
         id="rect1750"
         width="35.433071"
         height="35.433071"
         x="711.24329"
         y="232.34824" />
      <g
         id="g1798"
         transform="translate(-0.09487312,-81.473732)">
        <path
           id="path1740"
           d="m 724.22872,341.97246 a 5.6079905,5.6079905 0 0 1 -5.60799,5.608 5.6079905,5.6079905 0 0 1 -5.60799,-5.608 5.6079905,5.6079905 0 0 1 5.60799,-5.60799 5.6079905,5.6079905 0 0 1 5.60799,5.60799 z"
           style="fill:#000000;fill-opacity:1;stroke:none;stroke-width:0.433006"
           inkscape:connector-curvature="0" />
        <path
           id="path1742"
           style="color:#000000;overflow:visible;fill:#000000;stroke:none;stroke-width:1.63618;stroke-linecap:round"
           d="m 727.08152,318.64678 c -0.37552,1.40143 -6.66674,16.63019 -6.66674,16.63019 0,0 2.16602,-16.3341 2.54154,-17.73554 0.37551,-1.40143 1.60339,-2.29008 2.74252,-1.98485 1.13914,0.30523 1.75819,1.68878 1.38268,3.0902 z"
           sodipodi:nodetypes="scsss"
           inkscape:transform-center-y="-16.585707"
           inkscape:transform-center-x="-5.1823019" />
        <path
           id="path1748"
           style="color:#000000;overflow:visible;fill:#000000;stroke:none;stroke-width:1.63618;stroke-linecap:round"
           d="m 737.61083,326.00222 c -1.02592,1.02592 -14.08866,11.0688 -14.08866,11.0688 0,0 10.04288,-13.06273 11.06881,-14.08866 1.02591,-1.02592 2.53362,-1.18157 3.36752,-0.34767 0.8339,0.83391 0.67824,2.34162 -0.34767,3.36753 z"
           sodipodi:nodetypes="scsss"
           inkscape:transform-center-y="-12.387776"
           inkscape:transform-center-x="-12.387769" />
        <path
           id="path1750"
           style="color:#000000;overflow:visible;fill:#000000;stroke:none;stroke-width:1.63618;stroke-linecap:round"
           d="m 743.05176,337.63688 c -1.40143,0.37551 -17.73554,2.54153 -17.73554,2.54153 0,0 15.22876,-6.29122 16.6302,-6.66673 1.40143,-0.37552 2.78497,0.24354 3.0902,1.38267 0.30522,1.13913 -0.58344,2.36702 -1.98486,2.74253 z"
           sodipodi:nodetypes="scsss"
           inkscape:transform-center-y="-5.1823045"
           inkscape:transform-center-x="-16.585705" />
      </g>
    </g>
  </g>
</svg>
