<?xml version="1.0" encoding="UTF-8" standalone="no"?>
<svg
   width="9.375mm"
   height="9.375mm"
   viewBox="0 0 9.375 9.375"
   version="1.1"
   id="svg3707"
   inkscape:version="1.2.1 (9c6d41e410, 2022-07-14)"
   sodipodi:docname="schrapnell.svg"
   xmlns:inkscape="http://www.inkscape.org/namespaces/inkscape"
   xmlns:sodipodi="http://sodipodi.sourceforge.net/DTD/sodipodi-0.dtd"
   xmlns="http://www.w3.org/2000/svg"
   xmlns:svg="http://www.w3.org/2000/svg"
   xmlns:rdf="http://www.w3.org/1999/02/22-rdf-syntax-ns#"
   xmlns:cc="http://creativecommons.org/ns#"
   xmlns:dc="http://purl.org/dc/elements/1.1/">
  <defs
     id="defs3701" />
  <sodipodi:namedview
     id="base"
     pagecolor="#ffffff"
     bordercolor="#666666"
     borderopacity="1.0"
     inkscape:pageopacity="0.0"
     inkscape:pageshadow="2"
     inkscape:zoom="7.9195959"
     inkscape:cx="5.2401663"
     inkscape:cy="9.5964492"
     inkscape:document-units="mm"
     inkscape:current-layer="layer1"
     inkscape:document-rotation="0"
     showgrid="false"
     fit-margin-top="0"
     fit-margin-left="0"
     fit-margin-right="0"
     fit-margin-bottom="0"
     inkscape:window-width="1346"
     inkscape:window-height="1041"
     inkscape:window-x="586"
     inkscape:window-y="71"
     inkscape:window-maximized="0"
     inkscape:showpageshadow="2"
     inkscape:pagecheckerboard="0"
     inkscape:deskcolor="#d1d1d1" />
  <metadata
     id="metadata3704">
    <rdf:RDF>
      <cc:Work
         rdf:about="">
        <dc:format>image/svg+xml</dc:format>
        <dc:type
           rdf:resource="http://purl.org/dc/dcmitype/StillImage" />
        <dc:title />
      </cc:Work>
    </rdf:RDF>
  </metadata>
  <g
     inkscape:label="Ebene 1"
     inkscape:groupmode="layer"
     id="layer1"
     transform="translate(-89.050595,-133.65179)">
    <g
       id="g1571"
       transform="matrix(0.26458333,0,0,0.26458333,-167.50246,87.840738)">
      <rect
         style="fill:none"
         id="rect1534"
         width="35.433071"
         height="35.433071"
         x="969.64935"
         y="173.14413" />
      <g
         id="g1560"
         transform="matrix(1.2338254,0,0,1.2338254,-339.39689,-48.073927)"
         style="stroke-width:0.810487">
        <path
           id="path1542"
           style="color:#000000;overflow:visible;fill:#000000;stroke:none;stroke-width:1.3261;stroke-linecap:round"
           d="m 1080.5553,184.1927 c -1.0259,1.02591 -14.0887,11.06875 -14.0887,11.06875 0,0 10.0429,-13.06271 11.0689,-14.08862 1.0259,-1.02591 2.5335,-1.18159 3.3674,-0.3477 0.8339,0.8339 0.6783,2.34167 -0.3476,3.36757 z"
           sodipodi:nodetypes="scsss"
           inkscape:transform-center-y="-12.387794"
           inkscape:transform-center-x="-12.387749" />
        <path
           id="path1544"
           style="color:#000000;overflow:visible;fill:#000000;stroke:none;stroke-width:1.3261;stroke-linecap:round"
           d="m 1087.8052,191.44267 c -1.0259,1.02591 -14.0886,11.06881 -14.0886,11.06881 0,0 10.043,-13.0627 11.0688,-14.08868 1.0259,-1.02592 2.5337,-1.18152 3.3676,-0.34763 0.8338,0.83389 0.6781,2.34159 -0.3478,3.3675 z"
           sodipodi:nodetypes="scsss"
           inkscape:transform-center-y="-12.387771"
           inkscape:transform-center-x="-12.387736" />
        <path
           id="path1546"
           style="color:#000000;overflow:visible;fill:#000000;stroke:none;stroke-width:1.3261;stroke-linecap:round"
           d="m 1076.0485,195.94941 c -1.0259,1.02591 -14.0886,11.06875 -14.0886,11.06875 0,0 10.0429,-13.06271 11.0688,-14.08862 1.0259,-1.02591 2.5336,-1.18159 3.3675,-0.3477 0.8339,0.83389 0.6782,2.34166 -0.3477,3.36757 z"
           sodipodi:nodetypes="scsss"
           inkscape:transform-center-y="-12.387787"
           inkscape:transform-center-x="-12.387775" />
        <path
           id="path1548"
           style="color:#000000;overflow:visible;fill:#000000;stroke:none;stroke-width:1.3261;stroke-linecap:round"
           d="m 1080.5553,184.1927 c -1.0259,1.02591 -14.0887,11.06875 -14.0887,11.06875 0,0 10.0429,-13.06271 11.0689,-14.08862 1.0259,-1.02591 2.5335,-1.18159 3.3674,-0.3477 0.8339,0.8339 0.6783,2.34167 -0.3476,3.36757 z"
           sodipodi:nodetypes="scsss"
           inkscape:transform-center-y="-12.387794"
           inkscape:transform-center-x="-12.387749" />
        <path
           id="path1550"
           style="color:#000000;overflow:visible;fill:#000000;stroke:none;stroke-width:1.3261;stroke-linecap:round"
           d="m 1087.8052,191.44267 c -1.0259,1.02591 -14.0886,11.06881 -14.0886,11.06881 0,0 10.043,-13.0627 11.0688,-14.08868 1.0259,-1.02592 2.5337,-1.18152 3.3676,-0.34763 0.8338,0.83389 0.6781,2.34159 -0.3478,3.3675 z"
           sodipodi:nodetypes="scsss"
           inkscape:transform-center-y="-12.387771"
           inkscape:transform-center-x="-12.387736" />
        <path
           id="path1552"
           style="color:#000000;overflow:visible;fill:#000000;stroke:none;stroke-width:1.3261;stroke-linecap:round"
           d="m 1076.0485,195.94941 c -1.0259,1.02591 -14.0886,11.06875 -14.0886,11.06875 0,0 10.0429,-13.06271 11.0688,-14.08862 1.0259,-1.02591 2.5336,-1.18159 3.3675,-0.3477 0.8339,0.83389 0.6782,2.34166 -0.3477,3.36757 z"
           sodipodi:nodetypes="scsss"
           inkscape:transform-center-y="-12.387787"
           inkscape:transform-center-x="-12.387775" />
      </g>
    </g>
  </g>
</svg>
