<?xml version="1.0" encoding="UTF-8" standalone="no"?>
<svg
   width="9.375mm"
   height="9.375mm"
   viewBox="0 0 9.375 9.375"
   version="1.1"
   id="svg4934"
   inkscape:version="1.3.1 (91b66b0783, 2023-11-16)"
   sodipodi:docname="strukturverstärkt.svg"
   xmlns:inkscape="http://www.inkscape.org/namespaces/inkscape"
   xmlns:sodipodi="http://sodipodi.sourceforge.net/DTD/sodipodi-0.dtd"
   xmlns="http://www.w3.org/2000/svg"
   xmlns:svg="http://www.w3.org/2000/svg"
   xmlns:rdf="http://www.w3.org/1999/02/22-rdf-syntax-ns#"
   xmlns:cc="http://creativecommons.org/ns#"
   xmlns:dc="http://purl.org/dc/elements/1.1/">
  <defs
     id="defs4928" />
  <sodipodi:namedview
     id="base"
     pagecolor="#ffffff"
     bordercolor="#666666"
     borderopacity="1.0"
     inkscape:pageopacity="0.0"
     inkscape:pageshadow="2"
     inkscape:zoom="3.959798"
     inkscape:cx="32.451151"
     inkscape:cy="34.218918"
     inkscape:document-units="mm"
     inkscape:current-layer="g5535"
     inkscape:document-rotation="0"
     showgrid="false"
     fit-margin-top="0"
     fit-margin-left="0"
     fit-margin-right="0"
     fit-margin-bottom="0"
     inkscape:window-width="1920"
     inkscape:window-height="1009"
     inkscape:window-x="1912"
     inkscape:window-y="-8"
     inkscape:window-maximized="1"
     inkscape:showpageshadow="2"
     inkscape:pagecheckerboard="0"
     inkscape:deskcolor="#d1d1d1" />
  <metadata
     id="metadata4931">
    <rdf:RDF>
      <cc:Work
         rdf:about="">
        <dc:format>image/svg+xml</dc:format>
        <dc:type
           rdf:resource="http://purl.org/dc/dcmitype/StillImage" />
        <dc:title />
      </cc:Work>
    </rdf:RDF>
  </metadata>
  <g
     inkscape:label="Ebene 1"
     inkscape:groupmode="layer"
     id="layer1"
     transform="translate(-105.68155,-141.96726)">
    <g
       id="g7073"
       transform="matrix(0.26458333,0,0,0.26458333,-57.889231,25.210186)"
       inkscape:export-filename="/home/charon/Projekte/Universalis/Regeln/Grafiken/Effekt/effekt_strukturverstärkt.png"
       inkscape:export-xdpi="406.39999"
       inkscape:export-ydpi="406.39999">
      <g
         id="g5535">
        <g
           id="g56"
           transform="translate(303.66242,209.89245)">
          <rect
             y="231.39413"
             x="314.55786"
             height="35.433071"
             width="35.433071"
             id="rect30"
             style="fill:none;fill-opacity:1" />
          <path
             id="path31"
             style="color:#000000;fill:#000000;-inkscape-stroke:none"
             d="m 316.83203,233.77344 v 0.12109 2.83985 2.8164 3.20313 0.002 h 9.32422 v 0.46289 2.83984 2.81641 2.83984 2.81836 0.93164 h -1.9082 -2.81641 -4.59961 v 0.002 1.05468 2.83985 2.8164 2.26954 h 13.58203 2.81641 14.48633 v -0.5293 -4.79492 -2.81836 -0.83789 -0.002 h -9.32422 v -0.01 -2.81836 -2.83789 -2.81836 -2.83985 -1.38476 h 9.32422 v -0.002 -0.60157 -2.81836 -2.83984 -2.7207 z m 3.75195,1.05664 h 2.83985 l 13.91211,13.91211 v 2.83789 z m 5.65821,0 h 2.83984 l 8.25391,8.2539 v 2.83985 z m 5.65625,0 h 2.83984 l 6.86719,6.86719 h -2.83985 z m 5.65625,0 h 2.83984 l 6.26563,6.26562 v 0.60157 h -2.23828 z m 5.6582,0 h 2.83984 l 0.60743,0.60742 v 2.83984 z m -25.32422,0.12109 6.7461,6.7461 h -2.83985 l -3.90625,-3.90625 z m 0,5.65625 1.08985,1.08985 h -1.08985 z m 9.32422,3.66797 10.12305,10.12305 v 2.125 h 2.125 l 6.86718,6.86718 h -2.83984 l -16.27539,-16.27539 z m 0,5.65625 13.45899,13.45898 h -2.83985 l -10.61914,-10.61914 z m 0,5.6582 7.80078,7.80078 h -2.83984 l -6.86719,-6.86718 h 1.90625 z m -7.5625,0.9336 h 2.83984 l 6.86719,6.86718 h -2.83984 z m 22.62891,0 h 2.83789 l 1.54297,1.54297 v 2.83789 z m -24.39063,1.05468 5.8125,5.8125 h -2.83984 l -2.97266,-2.97265 z m 0,5.65626 0.15625,0.15624 h -0.15625 z" />
          <rect
             style="fill:none;fill-opacity:1"
             id="rect31"
             width="35.433071"
             height="35.433071"
             x="314.55786"
             y="231.39413" />
        </g>
      </g>
    </g>
  </g>
</svg>
