<?xml version="1.0" encoding="UTF-8" standalone="no"?>
<svg
   width="9.375mm"
   height="9.375mm"
   viewBox="0 0 9.375 9.375"
   version="1.1"
   id="svg4321"
   inkscape:version="1.3.1 (91b66b0783, 2023-11-16)"
   sodipodi:docname="strukturschädigend.svg"
   xmlns:inkscape="http://www.inkscape.org/namespaces/inkscape"
   xmlns:sodipodi="http://sodipodi.sourceforge.net/DTD/sodipodi-0.dtd"
   xmlns="http://www.w3.org/2000/svg"
   xmlns:svg="http://www.w3.org/2000/svg"
   xmlns:rdf="http://www.w3.org/1999/02/22-rdf-syntax-ns#"
   xmlns:cc="http://creativecommons.org/ns#"
   xmlns:dc="http://purl.org/dc/elements/1.1/">
  <defs
     id="defs4315" />
  <sodipodi:namedview
     id="base"
     pagecolor="#ffffff"
     bordercolor="#666666"
     borderopacity="1.0"
     inkscape:pageopacity="0.0"
     inkscape:pageshadow="2"
     inkscape:zoom="5.6"
     inkscape:cx="-4.375"
     inkscape:cy="11.696429"
     inkscape:document-units="mm"
     inkscape:current-layer="g2669"
     inkscape:document-rotation="0"
     showgrid="false"
     fit-margin-top="0"
     fit-margin-left="0"
     fit-margin-right="0"
     fit-margin-bottom="0"
     inkscape:window-width="1920"
     inkscape:window-height="1009"
     inkscape:window-x="1912"
     inkscape:window-y="-8"
     inkscape:window-maximized="1"
     inkscape:showpageshadow="2"
     inkscape:pagecheckerboard="0"
     inkscape:deskcolor="#d1d1d1" />
  <metadata
     id="metadata4318">
    <rdf:RDF>
      <cc:Work
         rdf:about="">
        <dc:format>image/svg+xml</dc:format>
        <dc:type
           rdf:resource="http://purl.org/dc/dcmitype/StillImage" />
        <dc:title />
      </cc:Work>
    </rdf:RDF>
  </metadata>
  <g
     inkscape:label="Ebene 1"
     inkscape:groupmode="layer"
     id="layer1"
     transform="translate(-101.90179,-132.89583)">
    <g
       id="g2669"
       transform="matrix(0.26458333,0,0,0.26458333,-90.487373,58.790821)"
       inkscape:export-filename="/home/charon/Projekte/Universalis/Regeln/Grafiken/Effekt/effekt_strukturschädigend.png"
       inkscape:export-xdpi="406.39999"
       inkscape:export-ydpi="406.39999">
      <g
         id="g62"
         transform="translate(502.33229,6.0846129)">
        <rect
           y="273.99731"
           x="224.80786"
           height="35.433071"
           width="35.433071"
           id="rect58"
           style="fill:none;fill-opacity:1" />
        <path
           id="path58"
           style="color:#000000;fill:#000000;-inkscape-stroke:none"
           d="m 227.08203,276.37695 v 0.1211 2.83984 2.81641 3.20312 h 9.32422 v 4.81055 h 0.002 l 0.79883,-0.32617 0.26953,-0.10938 2.01953,-0.82031 2.00391,-0.81445 0.10742,-0.0449 0.60742,0.76172 2.36524,2.97071 h 0.002 l 0.38281,-0.22266 1.79297,-1.04492 0.48828,-0.2832 1.39649,-0.8125 0.002,-0.002 v -4.06054 h 0.002 v -0.002 h 9.32032 v -0.60156 -2.81836 -2.83984 -2.72071 z m 3.75195,1.05664 h 2.83985 l 12.31055,12.31055 -1.14649,0.66797 -2.89453,-3.63672 -1.25586,0.50977 z m 5.65821,0 h 2.83984 l 8.25391,8.25391 v 2.83984 z m 5.65625,0 h 2.83984 l 6.86719,6.86719 h -2.83985 z m 5.65625,0 h 2.83984 l 6.26563,6.26563 v 0.60156 h -2.23828 z m 5.6582,0 h 2.83984 l 0.60743,0.60743 v 2.83984 z m -25.32422,0.1211 6.7461,6.74609 h -2.83985 l -3.90625,-3.90625 z m 0,5.65625 1.08985,1.08984 h -1.08985 z m 9.32617,3.66992 1.22071,1.2207 -1.22071,0.4961 z m 3.2461,6.58398 -1.76953,0.54883 -1.47852,0.45899 -1.05469,0.32617 h -0.002 v 3.26953 h -9.32422 v 0.002 1.05469 2.83984 2.81641 2.26953 h 13.58203 2.81641 14.48633 v -0.5293 -4.79492 -2.81836 -0.83789 -0.002 h -9.32032 -0.002 v -3.4707 l -0.002,0.002 -3.7793,1.86133 -2.36328,-1.70508 -0.006,-0.006 -1.78125,-1.28516 z m -0.92578,1.39258 11.13672,11.13672 h -2.83985 l -10.46289,-10.46289 z m 7.33007,1.67383 0.47071,0.4707 v 2.12305 0.002 h 2.125 l 6.86718,6.86719 h -2.83984 l -8.52539,-8.52539 z m -9.65039,1.66406 7.79883,7.79883 h -2.83984 l -6.86719,-6.86719 h 1.90625 v -0.004 l 0.002,0.002 z m -7.56445,0.93164 h 2.83984 l 6.86719,6.86719 h -2.83984 z m 22.62891,0 h 2.83789 l 1.54297,1.54297 v 2.83789 z m -24.39063,1.05469 5.8125,5.8125 h -2.83984 l -2.97266,-2.97266 z m 0,5.65625 0.15625,0.15625 h -0.15625 z" />
        <rect
           style="fill:none;fill-opacity:1"
           id="rect59"
           width="35.433071"
           height="35.433071"
           x="224.80786"
           y="273.99731" />
      </g>
    </g>
  </g>
</svg>
