<?xml version="1.0" encoding="UTF-8" standalone="no"?>
<svg
   width="9.375mm"
   height="9.375mm"
   viewBox="0 0 9.375 9.375"
   version="1.1"
   id="svg5552"
   inkscape:version="1.3.2 (091e20e, 2023-11-25, custom)"
   sodipodi:docname="trauma.svg"
   xmlns:inkscape="http://www.inkscape.org/namespaces/inkscape"
   xmlns:sodipodi="http://sodipodi.sourceforge.net/DTD/sodipodi-0.dtd"
   xmlns="http://www.w3.org/2000/svg"
   xmlns:svg="http://www.w3.org/2000/svg"
   xmlns:rdf="http://www.w3.org/1999/02/22-rdf-syntax-ns#"
   xmlns:cc="http://creativecommons.org/ns#"
   xmlns:dc="http://purl.org/dc/elements/1.1/">
  <defs
     id="defs5546" />
  <sodipodi:namedview
     id="base"
     pagecolor="#ffffff"
     bordercolor="#666666"
     borderopacity="1.0"
     inkscape:pageopacity="0.0"
     inkscape:pageshadow="2"
     inkscape:zoom="5.6"
     inkscape:cx="-23.571429"
     inkscape:cy="0.625"
     inkscape:document-units="mm"
     inkscape:current-layer="g1717"
     inkscape:document-rotation="0"
     showgrid="false"
     fit-margin-top="0"
     fit-margin-left="0"
     fit-margin-right="0"
     fit-margin-bottom="0"
     inkscape:window-width="1920"
     inkscape:window-height="1009"
     inkscape:window-x="1912"
     inkscape:window-y="-8"
     inkscape:window-maximized="1"
     inkscape:showpageshadow="2"
     inkscape:pagecheckerboard="0"
     inkscape:deskcolor="#d1d1d1" />
  <metadata
     id="metadata5549">
    <rdf:RDF>
      <cc:Work
         rdf:about="">
        <dc:format>image/svg+xml</dc:format>
        <dc:type
           rdf:resource="http://purl.org/dc/dcmitype/StillImage" />
        <dc:title />
      </cc:Work>
    </rdf:RDF>
  </metadata>
  <g
     inkscape:label="Ebene 1"
     inkscape:groupmode="layer"
     id="layer1"
     transform="translate(-87.538691,-127.60417)">
    <g
       id="g1730"
       transform="matrix(0.26458333,0,0,0.26458333,-63.575549,52.769742)"
       inkscape:export-filename="C:\Users\lobedama\privat\repos\realms\Regeln\Grafiken\Effekt\effekt_paralyse.png"
       inkscape:export-xdpi="406.39999"
       inkscape:export-ydpi="406.39999">
      <rect
         y="282.83878"
         x="571.14044"
         height="35.433071"
         width="35.433071"
         id="rect1656"
         style="fill:none" />
      <g
         transform="matrix(1.1543643,0,0,1.1543643,-90.898462,-46.394998)"
         id="g1717">
        <g
           id="g1706"
           transform="matrix(0.73306585,0,0,0.73306585,157.18603,69.463106)">
          <path
             inkscape:connector-curvature="0"
             d="m 571.99886,323.91174 q 0.19756,-1.6463 2.17312,-3.68771 2.63407,-2.69992 5.92667,-4.34622 4.34622,-2.04141 8.7583,-2.04141 4.60963,0.0659 8.7583,2.04141 3.49016,1.778 5.92667,4.34622 2.17312,2.43652 2.17312,3.68771 -0.19756,1.6463 -2.17312,3.68771 -2.63407,2.69992 -5.92667,4.34622 -4.34622,2.04141 -8.7583,2.04141 -4.60963,-0.0658 -8.7583,-2.04141 -3.49016,-1.778 -5.92667,-4.34622 -2.17312,-2.43652 -2.17312,-3.68771 z m 8.89001,0 q 0,3.16089 2.33776,5.36691 2.33776,2.20603 5.63035,2.20603 3.2926,0 5.63036,-2.20603 2.33776,-2.20602 2.33776,-5.36691 0,-3.16089 -2.33776,-5.36691 -2.33776,-2.20603 -5.63036,-2.20603 -3.29259,0 -5.63035,2.20603 -2.33776,2.20602 -2.33776,5.36691 z m 2.89749,-0.0329 q 0,-2.0085 1.48168,-3.4243 1.48169,-1.41579 3.58894,-1.41579 2.10726,0 3.58895,1.41579 1.48168,1.4158 1.48168,3.4243 0,2.0085 -1.48168,3.45721 -1.48169,1.44871 -3.58895,1.44874 -2.10725,3e-5 -3.58894,-1.44874 -1.48168,-1.44878 -1.48168,-3.45721 z"
             id="path1643" />
          <path
             sodipodi:nodetypes="cccccccc"
             id="path1652"
             d="m 571.99886,323.91174 c 0,0 0.85608,-2.32677 2.17312,-3.68771 1.75605,-1.79995 3.7316,-3.24869 5.92667,-4.34622 2.89748,-1.36094 5.81691,-2.04141 8.7583,-2.04141 3.07309,0.0439 5.99252,0.7244 8.7583,2.04141 2.32677,1.18533 4.30233,2.63407 5.92667,4.34622 1.44875,1.62435 2.17312,3.68771 2.17312,3.68771 -5.61037,-2.55946 -27.32813,-2.55965 -33.71618,0 z"
             inkscape:connector-curvature="0" />
        </g>
        <g
           id="g2"
           transform="translate(0.98285068)">
          <path
             style="stroke-width:0.164035;"
             d="m 584.39194,297.94128 v -0.0486 l 3.14246,-6.40149 h -3.09389 v -0.0486 l 0.39341,-0.83539 h 4.20614 v 0.0486 l -3.15703,6.40149 h 3.2056 v 0.0486 l -0.39342,0.8354 z"
             id="text1660"
             aria-label="Z" />
          <path
             style="stroke-width:0.164035;"
             d="m 593.07221,296.00797 v -0.0629 l 4.07118,-8.29336 h -4.00825 v -0.0629 l 0.50968,-1.08229 h 5.4492 v 0.0629 l -4.09004,8.29336 h 4.15297 v 0.0629 l -0.50968,1.08229 z"
             id="text1664"
             aria-label="Z" />
          <path
             style="stroke-width:0.118297;"
             d="m 576.59125,299.94058 v -0.035 l 2.26566,-4.61536 h -2.23064 v -0.035 l 0.28364,-0.6023 h 3.03255 v 0.035 l -2.27616,4.61537 h 2.31118 v 0.035 l -0.28364,0.60231 z"
             id="text1670"
             aria-label="Z" />
        </g>
      </g>
    </g>
  </g>
</svg>
