<?xml version="1.0" encoding="UTF-8" standalone="no"?>
<svg
   xmlns:dc="http://purl.org/dc/elements/1.1/"
   xmlns:cc="http://creativecommons.org/ns#"
   xmlns:rdf="http://www.w3.org/1999/02/22-rdf-syntax-ns#"
   xmlns:svg="http://www.w3.org/2000/svg"
   xmlns="http://www.w3.org/2000/svg"
   xmlns:sodipodi="http://sodipodi.sourceforge.net/DTD/sodipodi-0.dtd"
   xmlns:inkscape="http://www.inkscape.org/namespaces/inkscape"
   width="9.375mm"
   height="9.375mm"
   viewBox="0 0 9.375 9.375"
   version="1.1"
   id="svg5552"
   inkscape:version="1.0.2-2 (e86c870879, 2021-01-15)"
   sodipodi:docname="trauma.svg">
  <defs
     id="defs5546" />
  <sodipodi:namedview
     id="base"
     pagecolor="#ffffff"
     bordercolor="#666666"
     borderopacity="1.0"
     inkscape:pageopacity="0.0"
     inkscape:pageshadow="2"
     inkscape:zoom="1.4"
     inkscape:cx="150.42635"
     inkscape:cy="34.518342"
     inkscape:document-units="mm"
     inkscape:current-layer="layer1"
     inkscape:document-rotation="0"
     showgrid="false"
     fit-margin-top="0"
     fit-margin-left="0"
     fit-margin-right="0"
     fit-margin-bottom="0"
     inkscape:window-width="1920"
     inkscape:window-height="1057"
     inkscape:window-x="-8"
     inkscape:window-y="-8"
     inkscape:window-maximized="1" />
  <metadata
     id="metadata5549">
    <rdf:RDF>
      <cc:Work
         rdf:about="">
        <dc:format>image/svg+xml</dc:format>
        <dc:type
           rdf:resource="http://purl.org/dc/dcmitype/StillImage" />
        <dc:title></dc:title>
      </cc:Work>
    </rdf:RDF>
  </metadata>
  <g
     inkscape:label="Ebene 1"
     inkscape:groupmode="layer"
     id="layer1"
     transform="translate(-87.538691,-127.60417)">
    <g
       id="g1730"
       transform="matrix(0.26458333,0,0,0.26458333,-63.575549,52.769742)"
       inkscape:export-filename="C:\Users\lobedama\privat\repos\realms\Regeln\Grafiken\Effekt\effekt_paralyse.png"
       inkscape:export-xdpi="406.39999"
       inkscape:export-ydpi="406.39999">
      <rect
         y="282.83878"
         x="571.14044"
         height="35.433071"
         width="35.433071"
         id="rect1656"
         style="fill:none" />
      <g
         transform="matrix(1.1543643,0,0,1.1543643,-90.898462,-46.394998)"
         id="g1717">
        <g
           id="g1706"
           transform="matrix(0.73306585,0,0,0.73306585,157.18603,69.463106)">
          <path
             inkscape:connector-curvature="0"
             d="m 571.99886,323.91174 q 0.19756,-1.6463 2.17312,-3.68771 2.63407,-2.69992 5.92667,-4.34622 4.34622,-2.04141 8.7583,-2.04141 4.60963,0.0659 8.7583,2.04141 3.49016,1.778 5.92667,4.34622 2.17312,2.43652 2.17312,3.68771 -0.19756,1.6463 -2.17312,3.68771 -2.63407,2.69992 -5.92667,4.34622 -4.34622,2.04141 -8.7583,2.04141 -4.60963,-0.0658 -8.7583,-2.04141 -3.49016,-1.778 -5.92667,-4.34622 -2.17312,-2.43652 -2.17312,-3.68771 z m 8.89001,0 q 0,3.16089 2.33776,5.36691 2.33776,2.20603 5.63035,2.20603 3.2926,0 5.63036,-2.20603 2.33776,-2.20602 2.33776,-5.36691 0,-3.16089 -2.33776,-5.36691 -2.33776,-2.20603 -5.63036,-2.20603 -3.29259,0 -5.63035,2.20603 -2.33776,2.20602 -2.33776,5.36691 z m 2.89749,-0.0329 q 0,-2.0085 1.48168,-3.4243 1.48169,-1.41579 3.58894,-1.41579 2.10726,0 3.58895,1.41579 1.48168,1.4158 1.48168,3.4243 0,2.0085 -1.48168,3.45721 -1.48169,1.44871 -3.58895,1.44874 -2.10725,3e-5 -3.58894,-1.44874 -1.48168,-1.44878 -1.48168,-3.45721 z"
             id="path1643" />
          <path
             sodipodi:nodetypes="cccccccc"
             id="path1652"
             d="m 571.99886,323.91174 c 0,0 0.85608,-2.32677 2.17312,-3.68771 1.75605,-1.79995 3.7316,-3.24869 5.92667,-4.34622 2.89748,-1.36094 5.81691,-2.04141 8.7583,-2.04141 3.07309,0.0439 5.99252,0.7244 8.7583,2.04141 2.32677,1.18533 4.30233,2.63407 5.92667,4.34622 1.44875,1.62435 2.17312,3.68771 2.17312,3.68771 -5.61037,-2.55946 -27.32813,-2.55965 -33.71618,0 z"
             inkscape:connector-curvature="0" />
        </g>
        <text
           xml:space="preserve"
           style="font-style:normal;font-weight:normal;font-size:1.96842px;line-height:0%;font-family:'Bitstream Vera Sans';letter-spacing:0px;word-spacing:0px;fill:#000000;fill-opacity:1;stroke:none;stroke-width:0.164035"
           x="594.3111"
           y="299.98895"
           id="text1660"><tspan
             sodipodi:role="line"
             id="tspan1658"
             x="594.3111"
             y="299.98895"
             style="font-size:10.2716px;line-height:1.25;stroke-width:0.164035">Z</tspan></text>
        <text
           id="text1664"
           y="296.48975"
           x="582.48181"
           style="font-style:normal;font-weight:normal;font-size:1.96842px;line-height:0%;font-family:'Bitstream Vera Sans';letter-spacing:0px;word-spacing:0px;fill:#000000;fill-opacity:1;stroke:none;stroke-width:0.164035"
           xml:space="preserve"><tspan
             y="296.48975"
             x="582.48181"
             id="tspan1662"
             sodipodi:role="line"
             style="font-size:13.3096px;line-height:1.25;stroke-width:0.164035">Z</tspan></text>
        <text
           id="text1670"
           y="299.36395"
           x="576.4873"
           style="font-style:normal;font-weight:normal;font-size:1.41957px;line-height:0%;font-family:'Bitstream Vera Sans';letter-spacing:0px;word-spacing:0px;fill:#000000;fill-opacity:1;stroke:none;stroke-width:0.118297"
           xml:space="preserve"><tspan
             style="font-size:7.40756px;line-height:1.25;stroke-width:0.118297"
             y="299.36395"
             x="576.4873"
             id="tspan1668"
             sodipodi:role="line">Z</tspan></text>
      </g>
    </g>
  </g>
</svg>
