<?xml version="1.0" encoding="UTF-8" standalone="no"?>
<!-- Created with Inkscape (http://www.inkscape.org/) -->

<svg
   width="100mm"
   height="100mm"
   viewBox="0 0 100 100"
   version="1.1"
   id="svg8"
   inkscape:version="1.4.3 (0d15f75, 2025-12-25)"
   sodipodi:docname="logo.svg"
   inkscape:export-filename="logo.png"
   inkscape:export-xdpi="93.980003"
   inkscape:export-ydpi="93.980003"
   xml:space="preserve"
   xmlns:inkscape="http://www.inkscape.org/namespaces/inkscape"
   xmlns:sodipodi="http://sodipodi.sourceforge.net/DTD/sodipodi-0.dtd"
   xmlns="http://www.w3.org/2000/svg"
   xmlns:svg="http://www.w3.org/2000/svg"
   xmlns:rdf="http://www.w3.org/1999/02/22-rdf-syntax-ns#"
   xmlns:cc="http://creativecommons.org/ns#"
   xmlns:dc="http://purl.org/dc/elements/1.1/"><defs
     id="defs2" /><sodipodi:namedview
     id="base"
     pagecolor="#ffffff"
     bordercolor="#666666"
     borderopacity="1.0"
     inkscape:pageopacity="0.0"
     inkscape:pageshadow="2"
     inkscape:zoom="1.979899"
     inkscape:cx="220.46579"
     inkscape:cy="244.70945"
     inkscape:document-units="mm"
     inkscape:current-layer="layer1"
     showgrid="false"
     inkscape:window-width="2560"
     inkscape:window-height="1369"
     inkscape:window-x="-8"
     inkscape:window-y="-8"
     inkscape:window-maximized="1"
     inkscape:showpageshadow="2"
     inkscape:pagecheckerboard="0"
     inkscape:deskcolor="#d1d1d1" /><metadata
     id="metadata5"><rdf:RDF><cc:Work
         rdf:about=""><dc:format>image/svg+xml</dc:format><dc:type
           rdf:resource="http://purl.org/dc/dcmitype/StillImage" /><dc:title /></cc:Work></rdf:RDF></metadata><g
     inkscape:label="Ebene 1"
     inkscape:groupmode="layer"
     id="layer1"
     transform="translate(0,-197)"><rect
       y="197"
       x="0"
       height="100"
       width="100"
       id="rect815"
       style="fill:#495664;fill-opacity:1;stroke:none;stroke-width:0.446;stroke-miterlimit:4;stroke-dasharray:none;stroke-opacity:1" /><rect
       y="204.76117"
       x="7.2886887"
       height="84.477676"
       width="85.422623"
       id="rect828"
       style="fill:none;fill-opacity:1;stroke:#f8fceb;stroke-width:1.646;stroke-miterlimit:4;stroke-dasharray:none;stroke-opacity:1" /><path
       inkscape:connector-curvature="0"
       id="path830"
       d="M 11.446428,271.86458 H 88.553571"
       style="fill:none;stroke:#f8fceb;stroke-width:1.646;stroke-linecap:butt;stroke-linejoin:miter;stroke-miterlimit:4;stroke-dasharray:none;stroke-opacity:1" /><g
       id="g38"
       transform="translate(-2.0662104)"><ellipse
         style="fill:none;stroke:#f8fceb;stroke-width:2.20001;stroke-dasharray:none;stroke-opacity:1;paint-order:stroke markers fill"
         id="path6"
         cx="-74.773117"
         cy="234.29942"
         rx="36.043022"
         ry="15.250302"
         transform="matrix(0.86503018,-0.50171983,0.49828212,0.86701495,0,0)" /><circle
         style="fill:#f8fceb;fill-opacity:1;stroke:#495664;stroke-width:4;stroke-dasharray:none;stroke-opacity:1;paint-order:stroke fill markers"
         id="path7"
         cx="76.2677"
         cy="240.85196"
         r="4.9136906" /><circle
         style="fill:#f8fceb;fill-opacity:1;stroke:none;stroke-width:2.2;stroke-dasharray:none;paint-order:stroke markers fill"
         id="circle7"
         cx="30.994049"
         cy="255.7753"
         r="0.94494057" /><circle
         style="fill:#f8fceb;fill-opacity:1;stroke:none;stroke-width:2.2;stroke-dasharray:none;paint-order:stroke markers fill"
         id="circle10"
         cx="21.166666"
         cy="237.44345"
         r="0.94494057" /><circle
         style="fill:#f8fceb;fill-opacity:1;stroke:none;stroke-width:2.2;stroke-dasharray:none;paint-order:stroke markers fill"
         id="circle11"
         cx="27.970236"
         cy="227.42708"
         r="1.5119048" /><circle
         style="fill:#f8fceb;fill-opacity:1;stroke:none;stroke-width:2.2;stroke-dasharray:none;paint-order:stroke markers fill"
         id="circle12"
         cx="72.63105"
         cy="225.08968"
         r="0.94494057" /><circle
         style="fill:#f8fceb;fill-opacity:1;stroke:none;stroke-width:2.2;stroke-dasharray:none;paint-order:stroke markers fill"
         id="circle11-8"
         cx="54.167393"
         cy="265.3259"
         r="1.1778179" /><circle
         style="fill:#f8fceb;fill-opacity:1;stroke:none;stroke-width:2.2;stroke-dasharray:none;paint-order:stroke markers fill"
         id="circle11-7"
         cx="62.328274"
         cy="213.32857"
         r="1.5119048" /><circle
         style="fill:#f8fceb;fill-opacity:1;stroke:none;stroke-width:2.2;stroke-dasharray:none;paint-order:stroke markers fill"
         id="circle11-7-9"
         cx="53.839027"
         cy="226.38237"
         r="0.56696439" /><circle
         style="fill:#f8fceb;fill-opacity:1;stroke:none;stroke-width:2.2;stroke-dasharray:none;paint-order:stroke markers fill"
         id="circle19"
         cx="45.677799"
         cy="231.98483"
         r="0.56696439" /><circle
         style="fill:#f8fceb;fill-opacity:1;stroke:none;stroke-width:2.2;stroke-dasharray:none;paint-order:stroke markers fill"
         id="circle26"
         cx="76.743958"
         cy="232.00508"
         r="0.56696439" /><ellipse
         style="fill:#f8fceb;fill-opacity:1;stroke:none;stroke-width:2.20001;stroke-dasharray:none;paint-order:stroke markers fill"
         id="ellipse32"
         cx="-74.773125"
         cy="234.29942"
         rx="5.9401488"
         ry="2.5133591"
         transform="matrix(0.86503017,-0.50171984,0.49828214,0.86701494,0,0)" /><path
         id="path32"
         style="fill:#f8fceb;fill-opacity:1;stroke-width:2.2;paint-order:stroke markers fill"
         d="m 47.34735,241.50462 c 0.67588,-0.94225 3.62438,0.43988 2.53391,0.72901 -1.09051,0.28914 -0.72287,2.08481 -1.26824,2.11461 -4.56226,0.24927 -5.20887,-6.17738 5.3738,-11.05217 4.6045,-2.12101 11.19713,-2.4849 13.62931,-0.78685 4.9531,3.45805 -0.19662,14.68497 -28.98761,23.9956 34.87164,-15.95749 25.26041,-23.84241 15.15199,-20.53266 -3.23775,1.06012 -5.49527,2.63764 -6.20518,3.97047 -1.01865,1.91249 -0.53075,1.98409 -0.22798,1.56199 z"
         sodipodi:nodetypes="ssssscsss" /><path
         id="use32"
         style="fill:#f8fceb;fill-opacity:1;stroke-width:2.2;paint-order:stroke markers fill"
         d="m 56.78507,239.8079 c -0.67588,0.94225 -3.62438,-0.43988 -2.53391,-0.72901 1.09051,-0.28914 0.72287,-2.08481 1.26824,-2.11461 4.56226,-0.24927 5.20887,6.17738 -5.3738,11.05217 -4.6045,2.12101 -11.19713,2.4849 -13.62931,0.78685 -4.9531,-3.45805 0.19662,-14.68497 28.98761,-23.9956 -34.87164,15.95749 -25.26041,23.84241 -15.15199,20.53266 3.23775,-1.06012 5.49527,-2.63764 6.20518,-3.97047 1.01865,-1.91249 0.53075,-1.98409 0.22798,-1.56199 z"
         sodipodi:nodetypes="ssssscsss" /><ellipse
         style="fill:#495664;fill-opacity:1;stroke:none;stroke-width:0.446001;stroke-dasharray:none;stroke-opacity:1;paint-order:stroke fill markers"
         id="path33"
         cx="37.853462"
         cy="245.62291"
         rx="0.69153416"
         ry="0.65588826" /><ellipse
         style="fill:#495664;fill-opacity:1;stroke:none;stroke-width:0.446001;stroke-dasharray:none;stroke-opacity:1;paint-order:stroke fill markers"
         id="ellipse33"
         cx="41.461601"
         cy="247.34346"
         rx="0.30733421"
         ry="0.29149234" /><ellipse
         style="fill:#495664;fill-opacity:1;stroke:none;stroke-width:0.446001;stroke-dasharray:none;stroke-opacity:1;paint-order:stroke fill markers"
         id="ellipse34"
         cx="63.661674"
         cy="233.82965"
         rx="0.69153416"
         ry="0.65588826" /><ellipse
         style="fill:#495664;fill-opacity:1;stroke:none;stroke-width:0.446001;stroke-dasharray:none;stroke-opacity:1;paint-order:stroke fill markers"
         id="ellipse35"
         cx="66.885612"
         cy="235.9344"
         rx="0.30733421"
         ry="0.29149234" /><ellipse
         style="fill:#495664;fill-opacity:1;stroke:none;stroke-width:0.446001;stroke-dasharray:none;stroke-opacity:1;paint-order:stroke fill markers"
         id="ellipse35-2"
         cx="60.51775"
         cy="233.39561"
         rx="0.30733421"
         ry="0.29149234" /><g
         id="g36"
         style="fill:#f8fceb;fill-opacity:1;stroke-width:7.20405"
         transform="matrix(0.13881081,0,0,0.13881081,57.998026,247.30229)"><path
           sodipodi:type="star"
           style="fill:#f8fceb;fill-opacity:1;stroke:none;stroke-width:3.21301;stroke-dasharray:none;stroke-opacity:1;paint-order:stroke fill markers"
           id="path35"
           inkscape:flatsided="false"
           sodipodi:sides="4"
           sodipodi:cx="155.56349"
           sodipodi:cy="-345.47217"
           sodipodi:r1="142.4315"
           sodipodi:r2="35.523888"
           sodipodi:arg1="-1.5707963"
           sodipodi:arg2="-0.78539814"
           inkscape:rounded="0"
           inkscape:randomized="0"
           d="m 155.5635,-487.90367 25.11917,117.31232 117.31233,25.11919 -117.31233,25.11917 -25.11918,117.31233 -25.11918,-117.31233 -117.312321,-25.11918 117.312321,-25.11918 z"
           transform="matrix(0.26458333,0,0,0.26458333,0,197)"
           inkscape:transform-center-y="1.1515739e-06" /><path
           sodipodi:type="star"
           style="fill:#f8fceb;fill-opacity:1;stroke:none;stroke-width:5.3657;stroke-dasharray:none;stroke-opacity:1;paint-order:stroke fill markers"
           id="path36"
           inkscape:flatsided="false"
           sodipodi:sides="4"
           sodipodi:cx="155.56349"
           sodipodi:cy="-345.47217"
           sodipodi:r1="142.4315"
           sodipodi:r2="45.523888"
           sodipodi:arg1="-1.5707963"
           sodipodi:arg2="-0.78539814"
           inkscape:rounded="0"
           inkscape:randomized="0"
           d="m 155.5635,-487.90367 32.19024,110.24125 110.24126,32.19026 -110.24126,32.19024 -32.19025,110.24126 -32.19025,-110.24126 -110.241251,-32.19025 110.241251,-32.19025 z"
           transform="matrix(0.11202957,0.11202957,-0.11202957,0.11202957,-14.971304,126.86921)"
           inkscape:transform-center-x="1.6917465e-06" /></g><path
         id="path38"
         style="fill:#f8fceb;fill-opacity:1;stroke-width:0.446001;paint-order:stroke fill markers"
         d="m 39.936134,213.95579 c 0.792007,-0.79201 1.524384,-4.58953 1.524384,-4.58953 0,0 0.732377,3.79752 1.524377,4.58953 0.792006,0.792 4.589528,1.52438 4.589528,1.52438 0,0 -3.797522,0.73238 -4.589528,1.52438 -0.792,0.79199 -1.524377,4.58952 -1.524377,4.58952 0,0 -0.732377,-3.79753 -1.524384,-4.58952 -0.792,-0.792 -4.589523,-1.52438 -4.589523,-1.52438 0,0 3.797523,-0.73238 4.589523,-1.52438 z"
         sodipodi:nodetypes="ccccccccc" /></g><g
       id="g39" /><path
       d="m 17.953726,276.6041 0.981905,-0.46511 h 0.05168 v 6.40822 q 0,0.35658 0.625319,0.60464 0.434105,0.17054 0.950897,0.17054 0.516792,0 0.950897,-0.17054 0.625319,-0.24806 0.625319,-0.60464 v -5.94311 l 0.981905,-0.46511 h 0.05168 v 6.40822 q 0,0.94573 -1.173118,1.43151 -0.656326,0.2739 -1.436682,0.2739 -0.780356,0 -1.436682,-0.2739 -1.173118,-0.48578 -1.173118,-1.43151 z m 7.286768,7.75188 v -6.40822 q 0,-0.94573 1.173118,-1.43152 0.656326,-0.2739 1.436682,-0.2739 0.780355,0 1.436681,0.2739 1.173118,0.48579 1.173118,1.43152 v 5.94311 l -0.981905,0.46511 h -0.05168 v -6.40822 q 0,-0.35659 -0.625318,-0.60465 -0.434105,-0.17054 -0.950897,-0.17054 -0.516792,0 -0.950898,0.17054 -0.625318,0.24806 -0.625318,0.60465 v 5.94311 l -0.981905,0.46511 z m 7.286767,0 v -7.75188 l 0.981905,-0.46511 h 0.05168 v 7.75188 l -0.981904,0.46511 z m 4.728648,0 -2.635639,-7.79323 0.89405,-0.42376 h 0.05168 l 2.139519,6.4909 2.020657,-6.4909 h 0.05168 l 0.89405,0.42376 -2.470266,7.36946 -0.89405,0.42377 z m 4.475419,-0.20672 v -7.54516 l 0.547799,-0.2584 h 3.276462 v 0.0517 l -0.418602,0.88888 h -2.372075 v 2.49094 h 2.790677 v 0.0517 l -0.418602,0.88888 h -2.372075 v 2.49094 h 3.653719 v 0.0517 l -0.418601,0.88888 z m 7.012868,-3.56586 h 1.472857 q 0.516792,0 0.950897,-0.17054 0.625319,-0.24806 0.625319,-0.60465 v -1.75709 q 0,-0.36176 -0.625319,-0.60465 -0.434105,-0.17054 -0.950897,-0.17054 h -1.472857 z m -1.033584,3.77258 v -7.75188 l 0.547799,-0.2584 h 1.958642 q 0.780356,0 1.436682,0.2739 1.173118,0.48579 1.173118,1.43152 v 1.75709 q 0,0.9509 -1.173118,1.43151 -0.227389,0.093 -0.470281,0.15504 l 1.767429,2.53228 -0.909554,0.42894 h -0.05168 l -1.989649,-2.84236 h -1.255805 v 2.37725 l -0.981905,0.46511 z m 6.842325,-2.58396 0.981905,-0.46511 h 0.05168 v 1.2403 q 0,0.35658 0.625318,0.60464 0.434106,0.17054 0.950898,0.17054 0.516792,0 0.950897,-0.17054 0.625318,-0.24806 0.625318,-0.60464 v -1.50387 q 0,-0.36175 -0.625318,-0.60465 -0.434105,-0.17054 -0.950897,-0.17054 -0.656326,0 -1.178286,-0.20155 -0.966401,-0.38242 -0.966401,-1.06459 v -1.49353 q 0,-0.6925 0.966401,-1.06459 0.52196,-0.20155 1.178286,-0.20155 0.656325,0 1.178285,0.20155 0.966401,0.38243 0.966401,1.06459 v 0.6615 l -0.981904,0.46511 h -0.05168 v -0.94573 q 0,-0.25839 -0.325579,-0.38759 -0.320411,-0.1292 -0.785523,-0.1292 -0.465113,0 -0.790692,0.1292 -0.320411,0.1292 -0.320411,0.38759 v 1.13178 q 0,0.25839 0.320411,0.38759 0.325579,0.1292 0.790692,0.1292 0.780355,0 1.436681,0.2739 1.173118,0.48578 1.173118,1.43151 v 1.50387 q 0,0.94056 -1.173118,1.43151 -0.656326,0.2739 -1.436681,0.2739 -0.780356,0 -1.436682,-0.2739 -1.173118,-0.48578 -1.173118,-1.43151 z m 7.08005,2.58396 v -6.40822 q 0,-0.94573 1.173118,-1.43152 0.656325,-0.2739 1.436681,-0.2739 0.780356,0 1.436682,0.2739 1.173118,0.48579 1.173118,1.43152 0,0 0,5.94311 l -0.981905,0.46511 h -0.05168 v -3.63822 h -3.152431 v 3.17311 l -0.981905,0.46511 z m 1.033584,-4.57878 h 3.152431 v -1.82944 q 0,-0.35659 -0.625318,-0.60465 -0.434106,-0.17054 -0.950898,-0.17054 -0.516792,0 -0.950897,0.17054 -0.625318,0.24806 -0.625318,0.60465 z m 6.253185,4.37206 v -7.54516 l 0.981905,-0.46511 h 0.05168 v 7.06971 h 3.540025 v 0.0517 l -0.418602,0.88888 z m 5.012883,0.20672 v -7.75188 l 0.981905,-0.46511 h 0.05168 v 7.75188 l -0.981905,0.46511 z m 2.894037,-2.58396 0.981905,-0.46511 h 0.05168 v 1.2403 q 0,0.35658 0.625318,0.60464 0.434105,0.17054 0.950897,0.17054 0.516792,0 0.950898,-0.17054 0.625318,-0.24806 0.625318,-0.60464 v -1.50387 q 0,-0.36175 -0.625318,-0.60465 -0.434106,-0.17054 -0.950898,-0.17054 -0.656325,0 -1.178285,-0.20155 -0.966401,-0.38242 -0.966401,-1.06459 v -1.49353 q 0,-0.6925 0.966401,-1.06459 0.52196,-0.20155 1.178285,-0.20155 0.656326,0 1.178286,0.20155 0.966401,0.38243 0.966401,1.06459 v 0.6615 l -0.981905,0.46511 h -0.05168 v -0.94573 q 0,-0.25839 -0.325579,-0.38759 -0.320411,-0.1292 -0.785524,-0.1292 -0.465112,0 -0.790691,0.1292 -0.320411,0.1292 -0.320411,0.38759 v 1.13178 q 0,0.25839 0.320411,0.38759 0.325579,0.1292 0.790691,0.1292 0.780356,0 1.436682,0.2739 1.173118,0.48578 1.173118,1.43151 v 1.50387 q 0,0.94056 -1.173118,1.43151 -0.656326,0.2739 -1.436682,0.2739 -0.780356,0 -1.436681,-0.2739 -1.173118,-0.48578 -1.173118,-1.43151 z"
       id="text1"
       style="font-size:10.5839px;line-height:1;font-family:'Nova Flat';-inkscape-font-specification:'Nova Flat, Normal';text-align:center;letter-spacing:0px;word-spacing:1.76477px;text-anchor:middle;fill:#f8fceb;stroke-width:1.265;stroke-linecap:round;stroke-linejoin:round;paint-order:markers stroke fill"
       aria-label="UNIVERSALIS" /></g></svg>
