<?xml version="1.0" encoding="UTF-8" standalone="no"?>
<!-- Created with Inkscape (http://www.inkscape.org/) -->

<svg
   width="100mm"
   height="100mm"
   viewBox="0 0 100 100"
   version="1.1"
   id="svg8"
   inkscape:version="1.3.2 (091e20e, 2023-11-25, custom)"
   sodipodi:docname="logo.svg"
   inkscape:export-filename="C:\Users\lobedama\privat\repos\universalis\Grafiken\Logo.png"
   inkscape:export-xdpi="93.980003"
   inkscape:export-ydpi="93.980003"
   xml:space="preserve"
   xmlns:inkscape="http://www.inkscape.org/namespaces/inkscape"
   xmlns:sodipodi="http://sodipodi.sourceforge.net/DTD/sodipodi-0.dtd"
   xmlns="http://www.w3.org/2000/svg"
   xmlns:svg="http://www.w3.org/2000/svg"
   xmlns:rdf="http://www.w3.org/1999/02/22-rdf-syntax-ns#"
   xmlns:cc="http://creativecommons.org/ns#"
   xmlns:dc="http://purl.org/dc/elements/1.1/"><defs
     id="defs2" /><sodipodi:namedview
     id="base"
     pagecolor="#ffffff"
     bordercolor="#666666"
     borderopacity="1.0"
     inkscape:pageopacity="0.0"
     inkscape:pageshadow="2"
     inkscape:zoom="1.979899"
     inkscape:cx="121.47084"
     inkscape:cy="199.75766"
     inkscape:document-units="mm"
     inkscape:current-layer="g38"
     showgrid="false"
     inkscape:window-width="2560"
     inkscape:window-height="1369"
     inkscape:window-x="2552"
     inkscape:window-y="-8"
     inkscape:window-maximized="1"
     inkscape:showpageshadow="2"
     inkscape:pagecheckerboard="0"
     inkscape:deskcolor="#d1d1d1" /><metadata
     id="metadata5"><rdf:RDF><cc:Work
         rdf:about=""><dc:format>image/svg+xml</dc:format><dc:type
           rdf:resource="http://purl.org/dc/dcmitype/StillImage" /><dc:title /></cc:Work></rdf:RDF></metadata><g
     inkscape:label="Ebene 1"
     inkscape:groupmode="layer"
     id="layer1"
     transform="translate(0,-197)"><rect
       y="197"
       x="0"
       height="100"
       width="100"
       id="rect815"
       style="fill:#495664;fill-opacity:1;stroke:none;stroke-width:0.446;stroke-miterlimit:4;stroke-dasharray:none;stroke-opacity:1" /><rect
       y="204.76117"
       x="7.2886887"
       height="84.477676"
       width="85.422623"
       id="rect828"
       style="fill:none;fill-opacity:1;stroke:#f8fceb;stroke-width:1.646;stroke-miterlimit:4;stroke-dasharray:none;stroke-opacity:1" /><path
       inkscape:connector-curvature="0"
       id="path830"
       d="M 11.446428,271.86458 H 88.553571"
       style="fill:none;stroke:#f8fceb;stroke-width:1.646;stroke-linecap:butt;stroke-linejoin:miter;stroke-miterlimit:4;stroke-dasharray:none;stroke-opacity:1" /><path
       style="fill:#f8fceb;stroke-width:0.264583"
       d="m 23.156658,276.13898 v 5.52936 q 0,1.11621 -0.69763,1.83451 -0.733803,0.74931 -1.912022,0.74931 -1.162716,0 -1.912021,-0.74931 -0.69763,-0.69246 -0.69763,-1.83451 v -5.06427 l 0.981849,-0.46509 h 0.05168 v 5.52936 q 0,0.69246 0.372069,1.12138 0.459919,0.53226 1.204057,0.53226 0.744139,0 1.204057,-0.53226 0.37207,-0.42892 0.37207,-1.12138 v -5.06427 l 0.981849,-0.46509 z m 2.067051,8.21653 v -5.52936 q 0,-1.11621 0.697629,-1.83451 0.733803,-0.74931 1.912022,-0.74931 1.162716,0 1.912022,0.74931 0.69763,0.69246 0.69763,1.83451 v 5.06427 l -0.98185,0.46509 h -0.05168 v -5.52936 q 0,-0.69246 -0.372069,-1.12138 -0.459919,-0.53226 -1.204057,-0.53226 -0.744138,0 -1.204057,0.53226 -0.372069,0.42892 -0.372069,1.12138 v 5.06427 l -0.981849,0.46509 z m 7.286353,0 v -7.75144 l 0.981849,-0.46509 h 0.05168 v 7.75144 l -0.981849,0.46509 z m 4.728378,0 -2.63549,-7.79278 0.894,-0.42375 h 0.05168 l 2.139398,6.49054 2.020542,-6.49054 h 0.05168 l 0.893999,0.42375 -2.470125,7.36903 -0.894,0.42375 z m 4.475166,-0.20671 v -7.54473 l 0.547768,-0.25838 h 3.276276 v 0.0517 l -0.418578,0.88884 h -2.371941 v 2.49079 h 2.790519 v 0.0517 l -0.418578,0.88883 h -2.371941 v 2.4908 h 3.653512 v 0.0517 l -0.418578,0.88883 z m 5.978945,0.20671 v -7.75144 l 0.547768,-0.25838 h 1.958531 q 1.178218,0 1.912021,0.7493 0.69763,0.71314 0.69763,1.83451 0,1.12654 -0.69763,1.83451 -0.41341,0.41858 -0.966346,0.60461 l 1.787999,2.55798 -0.909502,0.42891 h -0.05168 l -1.989537,-2.8422 h -1.255733 v 2.37711 l -0.981849,0.46509 z m 1.033525,-3.77237 h 1.472774 q 0.676959,0 1.204057,-0.53226 0.372069,-0.37724 0.372069,-1.12138 0,-0.69246 -0.372069,-1.12137 -0.459919,-0.53227 -1.204057,-0.53227 h -1.472774 z m 11.022546,1.12654 q 0,1.0542 -0.692462,1.79317 -0.707965,0.74931 -1.912022,0.74931 -1.204057,0 -1.912022,-0.74931 -0.697629,-0.73897 -0.697629,-1.73115 l 0.981849,-0.46509 h 0.05168 v 0.42374 q 0,0.63045 0.372069,1.05937 0.459919,0.53226 1.204057,0.53226 0.738971,0 1.204057,-0.53226 0.366902,-0.41858 0.366902,-1.0697 0,-0.61495 -0.299723,-0.96635 -0.41341,-0.48575 -1.271236,-0.48575 -0.940508,0 -1.627802,-0.62012 -0.516763,-0.46509 -0.516763,-1.34875 0,-1.03869 0.640786,-1.56062 0.60978,-0.4961 1.503779,-0.4961 0.894,0 1.50378,0.4961 0.640785,0.52193 0.640785,1.43143 l -0.981849,0.46509 h -0.05168 v -0.41341 q 0,-0.58911 -0.335896,-0.8785 -0.32556,-0.28422 -0.775144,-0.28422 -0.50126,0 -0.80615,0.31523 -0.30489,0.31522 -0.30489,0.84749 0,0.51159 0.232544,0.76997 0.310057,0.34623 0.878496,0.34623 1.250566,0 1.912022,0.58911 0.692462,0.61495 0.692462,1.78283 z m 1.865514,2.64583 v -5.52936 q 0,-1.11621 0.697629,-1.83451 0.733803,-0.74931 1.912022,-0.74931 1.157549,0 1.912022,0.74931 0.69763,0.69246 0.69763,1.83451 v 5.06427 l -0.981849,0.46509 h -0.05168 v -3.63801 h -3.152252 v 3.17292 l -0.981849,0.46509 z m 1.033525,-4.57852 h 3.152252 v -0.95084 q 0,-0.69246 -0.372069,-1.12138 -0.459919,-0.53226 -1.204057,-0.53226 -0.744138,0 -1.204057,0.53226 -0.372069,0.42892 -0.372069,1.12138 z m 6.252829,4.37181 v -7.54473 l 0.981849,-0.46509 h 0.05168 v 7.06932 h 3.539824 v 0.0517 l -0.418577,0.88883 z m 5.0126,0.20671 v -7.75144 l 0.981849,-0.46509 h 0.05168 v 7.75144 l -0.981849,0.46509 z m 8.108004,-2.64583 q 0,1.0542 -0.692462,1.79317 -0.707964,0.74931 -1.912021,0.74931 -1.204057,0 -1.912022,-0.74931 -0.69763,-0.73897 -0.69763,-1.73115 l 0.981849,-0.46509 h 0.05168 v 0.42374 q 0,0.63045 0.37207,1.05937 0.459918,0.53226 1.204057,0.53226 0.73897,0 1.204057,-0.53226 0.366901,-0.41858 0.366901,-1.0697 0,-0.61495 -0.299722,-0.96635 -0.41341,-0.48575 -1.271236,-0.48575 -0.940508,0 -1.627803,-0.62012 -0.516763,-0.46509 -0.516763,-1.34875 0,-1.03869 0.640786,-1.56062 0.60978,-0.4961 1.50378,-0.4961 0.893999,0 1.503779,0.4961 0.640786,0.52193 0.640786,1.43143 l -0.981849,0.46509 h -0.05168 v -0.41341 q 0,-0.58911 -0.335895,-0.8785 -0.325561,-0.28422 -0.775144,-0.28422 -0.50126,0 -0.80615,0.31523 -0.30489,0.31522 -0.30489,0.84749 0,0.51159 0.232543,0.76997 0.310058,0.34623 0.878497,0.34623 1.250565,0 1.912021,0.58911 0.692462,0.61495 0.692462,1.78283 z"
       id="text834"
       aria-label="UNIVERSALIS" /><g
       id="g38"
       transform="translate(-2.0662104)"><ellipse
         style="fill:none;stroke:#f8fceb;stroke-width:2.20001;stroke-dasharray:none;stroke-opacity:1;paint-order:stroke markers fill"
         id="path6"
         cx="-74.773117"
         cy="234.29942"
         rx="36.043022"
         ry="15.250302"
         transform="matrix(0.86503018,-0.50171983,0.49828212,0.86701495,0,0)" /><circle
         style="fill:#f8fceb;fill-opacity:1;stroke:#495664;stroke-width:4;stroke-dasharray:none;stroke-opacity:1;paint-order:stroke fill markers"
         id="path7"
         cx="76.2677"
         cy="240.85196"
         r="4.9136906" /><circle
         style="fill:#f8fceb;fill-opacity:1;stroke:none;stroke-width:2.2;stroke-dasharray:none;paint-order:stroke markers fill"
         id="circle7"
         cx="30.994049"
         cy="255.7753"
         r="0.94494057" /><circle
         style="fill:#f8fceb;fill-opacity:1;stroke:none;stroke-width:2.2;stroke-dasharray:none;paint-order:stroke markers fill"
         id="circle10"
         cx="21.166666"
         cy="237.44345"
         r="0.94494057" /><circle
         style="fill:#f8fceb;fill-opacity:1;stroke:none;stroke-width:2.2;stroke-dasharray:none;paint-order:stroke markers fill"
         id="circle11"
         cx="27.970236"
         cy="227.42708"
         r="1.5119048" /><circle
         style="fill:#f8fceb;fill-opacity:1;stroke:none;stroke-width:2.2;stroke-dasharray:none;paint-order:stroke markers fill"
         id="circle12"
         cx="72.63105"
         cy="225.08968"
         r="0.94494057" /><circle
         style="fill:#f8fceb;fill-opacity:1;stroke:none;stroke-width:2.2;stroke-dasharray:none;paint-order:stroke markers fill"
         id="circle11-8"
         cx="54.167393"
         cy="265.3259"
         r="1.1778179" /><circle
         style="fill:#f8fceb;fill-opacity:1;stroke:none;stroke-width:2.2;stroke-dasharray:none;paint-order:stroke markers fill"
         id="circle11-7"
         cx="62.328274"
         cy="213.32857"
         r="1.5119048" /><circle
         style="fill:#f8fceb;fill-opacity:1;stroke:none;stroke-width:2.2;stroke-dasharray:none;paint-order:stroke markers fill"
         id="circle11-7-9"
         cx="53.839027"
         cy="226.38237"
         r="0.56696439" /><circle
         style="fill:#f8fceb;fill-opacity:1;stroke:none;stroke-width:2.2;stroke-dasharray:none;paint-order:stroke markers fill"
         id="circle19"
         cx="45.677799"
         cy="231.98483"
         r="0.56696439" /><circle
         style="fill:#f8fceb;fill-opacity:1;stroke:none;stroke-width:2.2;stroke-dasharray:none;paint-order:stroke markers fill"
         id="circle26"
         cx="76.743958"
         cy="232.00508"
         r="0.56696439" /><ellipse
         style="fill:#f8fceb;fill-opacity:1;stroke:none;stroke-width:2.20001;stroke-dasharray:none;paint-order:stroke markers fill"
         id="ellipse32"
         cx="-74.773125"
         cy="234.29942"
         rx="5.9401488"
         ry="2.5133591"
         transform="matrix(0.86503017,-0.50171984,0.49828214,0.86701494,0,0)" /><path
         id="path32"
         style="fill:#f8fceb;fill-opacity:1;stroke-width:2.2;paint-order:stroke markers fill"
         d="m 47.34735,241.50462 c 0.67588,-0.94225 3.62438,0.43988 2.53391,0.72901 -1.09051,0.28914 -0.72287,2.08481 -1.26824,2.11461 -4.56226,0.24927 -5.20887,-6.17738 5.3738,-11.05217 4.6045,-2.12101 11.19713,-2.4849 13.62931,-0.78685 4.9531,3.45805 -0.19662,14.68497 -28.98761,23.9956 34.87164,-15.95749 25.26041,-23.84241 15.15199,-20.53266 -3.23775,1.06012 -5.49527,2.63764 -6.20518,3.97047 -1.01865,1.91249 -0.53075,1.98409 -0.22798,1.56199 z"
         sodipodi:nodetypes="ssssscsss" /><path
         id="use32"
         style="fill:#f8fceb;fill-opacity:1;stroke-width:2.2;paint-order:stroke markers fill"
         d="m 56.78507,239.8079 c -0.67588,0.94225 -3.62438,-0.43988 -2.53391,-0.72901 1.09051,-0.28914 0.72287,-2.08481 1.26824,-2.11461 4.56226,-0.24927 5.20887,6.17738 -5.3738,11.05217 -4.6045,2.12101 -11.19713,2.4849 -13.62931,0.78685 -4.9531,-3.45805 0.19662,-14.68497 28.98761,-23.9956 -34.87164,15.95749 -25.26041,23.84241 -15.15199,20.53266 3.23775,-1.06012 5.49527,-2.63764 6.20518,-3.97047 1.01865,-1.91249 0.53075,-1.98409 0.22798,-1.56199 z"
         sodipodi:nodetypes="ssssscsss" /><ellipse
         style="fill:#495664;fill-opacity:1;stroke:none;stroke-width:0.446001;stroke-dasharray:none;stroke-opacity:1;paint-order:stroke fill markers"
         id="path33"
         cx="37.853462"
         cy="245.62291"
         rx="0.69153416"
         ry="0.65588826" /><ellipse
         style="fill:#495664;fill-opacity:1;stroke:none;stroke-width:0.446001;stroke-dasharray:none;stroke-opacity:1;paint-order:stroke fill markers"
         id="ellipse33"
         cx="41.461601"
         cy="247.34346"
         rx="0.30733421"
         ry="0.29149234" /><ellipse
         style="fill:#495664;fill-opacity:1;stroke:none;stroke-width:0.446001;stroke-dasharray:none;stroke-opacity:1;paint-order:stroke fill markers"
         id="ellipse34"
         cx="63.661674"
         cy="233.82965"
         rx="0.69153416"
         ry="0.65588826" /><ellipse
         style="fill:#495664;fill-opacity:1;stroke:none;stroke-width:0.446001;stroke-dasharray:none;stroke-opacity:1;paint-order:stroke fill markers"
         id="ellipse35"
         cx="66.885612"
         cy="235.9344"
         rx="0.30733421"
         ry="0.29149234" /><ellipse
         style="fill:#495664;fill-opacity:1;stroke:none;stroke-width:0.446001;stroke-dasharray:none;stroke-opacity:1;paint-order:stroke fill markers"
         id="ellipse35-2"
         cx="60.51775"
         cy="233.39561"
         rx="0.30733421"
         ry="0.29149234" /><g
         id="g36"
         style="fill:#f8fceb;fill-opacity:1;stroke-width:7.20405"
         transform="matrix(0.13881081,0,0,0.13881081,57.998026,247.30229)"><path
           sodipodi:type="star"
           style="fill:#f8fceb;fill-opacity:1;stroke:none;stroke-width:3.21301;stroke-dasharray:none;stroke-opacity:1;paint-order:stroke fill markers"
           id="path35"
           inkscape:flatsided="false"
           sodipodi:sides="4"
           sodipodi:cx="155.56349"
           sodipodi:cy="-345.47217"
           sodipodi:r1="142.4315"
           sodipodi:r2="35.523888"
           sodipodi:arg1="-1.5707963"
           sodipodi:arg2="-0.78539814"
           inkscape:rounded="0"
           inkscape:randomized="0"
           d="m 155.5635,-487.90367 25.11917,117.31232 117.31233,25.11919 -117.31233,25.11917 -25.11918,117.31233 -25.11918,-117.31233 -117.312321,-25.11918 117.312321,-25.11918 z"
           transform="matrix(0.26458333,0,0,0.26458333,0,197)"
           inkscape:transform-center-y="1.1515739e-06" /><path
           sodipodi:type="star"
           style="fill:#f8fceb;fill-opacity:1;stroke:none;stroke-width:5.3657;stroke-dasharray:none;stroke-opacity:1;paint-order:stroke fill markers"
           id="path36"
           inkscape:flatsided="false"
           sodipodi:sides="4"
           sodipodi:cx="155.56349"
           sodipodi:cy="-345.47217"
           sodipodi:r1="142.4315"
           sodipodi:r2="45.523888"
           sodipodi:arg1="-1.5707963"
           sodipodi:arg2="-0.78539814"
           inkscape:rounded="0"
           inkscape:randomized="0"
           d="m 155.5635,-487.90367 32.19024,110.24125 110.24126,32.19026 -110.24126,32.19024 -32.19025,110.24126 -32.19025,-110.24126 -110.241251,-32.19025 110.241251,-32.19025 z"
           transform="matrix(0.11202957,0.11202957,-0.11202957,0.11202957,-14.971304,126.86921)"
           inkscape:transform-center-x="1.6917465e-06" /></g><path
         id="path38"
         style="fill:#f8fceb;fill-opacity:1;stroke-width:0.446001;paint-order:stroke fill markers"
         d="m 39.936134,213.95579 c 0.792007,-0.79201 1.524384,-4.58953 1.524384,-4.58953 0,0 0.732377,3.79752 1.524377,4.58953 0.792006,0.792 4.589528,1.52438 4.589528,1.52438 0,0 -3.797522,0.73238 -4.589528,1.52438 -0.792,0.79199 -1.524377,4.58952 -1.524377,4.58952 0,0 -0.732377,-3.79753 -1.524384,-4.58952 -0.792,-0.792 -4.589523,-1.52438 -4.589523,-1.52438 0,0 3.797523,-0.73238 4.589523,-1.52438 z"
         sodipodi:nodetypes="ccccccccc" /></g><g
       id="g39" /></g></svg>
