<?xml version="1.0" encoding="UTF-8" standalone="no"?>
<svg
   width="9.375mm"
   height="9.375mm"
   viewBox="0 0 9.375 9.375"
   version="1.1"
   id="svg7359"
   inkscape:version="1.4.2 (f4327f4, 2025-05-13)"
   sodipodi:docname="bedingung.svg"
   xmlns:inkscape="http://www.inkscape.org/namespaces/inkscape"
   xmlns:sodipodi="http://sodipodi.sourceforge.net/DTD/sodipodi-0.dtd"
   xmlns="http://www.w3.org/2000/svg"
   xmlns:svg="http://www.w3.org/2000/svg"
   xmlns:rdf="http://www.w3.org/1999/02/22-rdf-syntax-ns#"
   xmlns:cc="http://creativecommons.org/ns#"
   xmlns:dc="http://purl.org/dc/elements/1.1/">
  <defs
     id="defs7353" />
  <sodipodi:namedview
     id="base"
     pagecolor="#ffffff"
     bordercolor="#666666"
     borderopacity="1.0"
     inkscape:pageopacity="0.0"
     inkscape:pageshadow="2"
     inkscape:zoom="7.9195959"
     inkscape:cx="-3.1567267"
     inkscape:cy="8.0812204"
     inkscape:document-units="mm"
     inkscape:current-layer="layer1"
     inkscape:document-rotation="0"
     showgrid="false"
     fit-margin-top="0"
     fit-margin-left="0"
     fit-margin-right="0"
     fit-margin-bottom="0"
     inkscape:window-width="1797"
     inkscape:window-height="1186"
     inkscape:window-x="527"
     inkscape:window-y="105"
     inkscape:window-maximized="0"
     inkscape:showpageshadow="2"
     inkscape:pagecheckerboard="0"
     inkscape:deskcolor="#d1d1d1"
     showguides="true" />
  <metadata
     id="metadata7356">
    <rdf:RDF>
      <cc:Work
         rdf:about="">
        <dc:format>image/svg+xml</dc:format>
        <dc:type
           rdf:resource="http://purl.org/dc/dcmitype/StillImage" />
        <dc:title />
      </cc:Work>
    </rdf:RDF>
  </metadata>
  <g
     inkscape:label="Ebene 1"
     inkscape:groupmode="layer"
     id="layer1"
     transform="translate(-114.75297,-157.08631)">
    <g
       id="g8">
      <rect
         style="fill:none;stroke-width:0.264583"
         id="rect2411"
         width="9.375"
         height="9.375"
         x="114.75298"
         y="157.08632" />
      <g
         id="g7">
        <path
           style="baseline-shift:baseline;display:inline;overflow:visible;vector-effect:none;stroke-width:0.947453;stroke-dasharray:1.28747, 0.643739;enable-background:accumulate;stop-color:#000000"
           d="m 119.44162,157.5135 -0.11103,0.002 -0.10919,0.004 -0.10732,0.008 -0.10918,0.009 -0.10548,0.013 -0.10733,0.0148 -0.10548,0.0167 -0.10362,0.0204 -0.10363,0.0222 -0.10362,0.0259 -0.10179,0.0278 -0.0833,0.0241 0.1832,0.61806 0.0777,-0.0241 0.0851,-0.0222 0.087,-0.0222 0.0888,-0.0185 0.087,-0.0167 0.0907,-0.0148 0.0888,-0.013 0.0926,-0.0111 0.0907,-0.008 0.0926,-0.006 0.0926,-0.004 0.0944,-0.002 0.0926,0.002 h 0.006 l 0.0241,-0.64397 h -0.013 z m 0.81052,0.0777 -0.12029,0.63287 0.0388,0.008 0.087,0.0185 0.087,0.0222 0.087,0.0222 0.0851,0.0259 0.0833,0.0278 0.0814,0.0278 0.16655,0.0666 0.16099,0.0722 0.15545,0.0796 0.0685,0.0388 0.32013,-0.55699 -0.0814,-0.0481 -0.18319,-0.0944 -0.18875,-0.0851 -0.19245,-0.0759 -0.0999,-0.0351 -0.0999,-0.0315 -0.0999,-0.0296 -0.10178,-0.0278 -0.10362,-0.0259 -0.10364,-0.0222 z m -2.71283,0.37195 -0.12953,0.0648 -0.17765,0.10363 -0.17395,0.11102 -0.16654,0.11842 -0.16099,0.12585 -0.1536,0.13323 -0.14803,0.14249 -0.0148,0.0148 0.46633,0.44412 0.004,-0.004 0.12583,-0.12028 0.13139,-0.11474 0.13693,-0.10732 0.14064,-0.0999 0.14804,-0.0944 0.14989,-0.087 0.11473,-0.0592 z m 4.58367,0.50149 -0.39786,0.50703 0.0148,0.0111 0.13139,0.11475 0.12583,0.12028 0.12029,0.12397 0.11288,0.13139 0.10732,0.13694 0.10178,0.14249 0.0629,0.0981 0.54219,-0.3479 -0.0722,-0.11102 -0.11843,-0.16655 -0.12583,-0.161 -0.13509,-0.15543 -0.14064,-0.1462 -0.14804,-0.14248 -0.15359,-0.13323 z m -6.15289,0.84012 -0.061,0.087 -0.11103,0.17209 -0.10178,0.17949 -0.0944,0.1832 -0.0851,0.18875 -0.0759,0.19245 -0.0352,0.0999 -0.0333,0.0999 -0.013,0.0425 0.61807,0.1832 0.009,-0.0351 0.0278,-0.0851 0.0296,-0.0814 0.0648,-0.16469 0.0722,-0.16099 0.0796,-0.15544 0.087,-0.15175 0.0944,-0.14619 0.0536,-0.074 z m 7.40012,0.82347 -0.59771,0.23686 0.0648,0.16655 0.0296,0.0814 0.0278,0.0851 0.0241,0.0852 0.0241,0.087 0.0204,0.087 0.0204,0.087 0.0167,0.0888 0.0148,0.0888 0.013,0.0907 0.009,0.0907 0.009,0.0926 v 0.0186 l 0.64397,-0.0407 -0.002,-0.0278 -0.0111,-0.10733 -0.0111,-0.10733 -0.0148,-0.10548 -0.0185,-0.10547 -0.0185,-0.10548 -0.0241,-0.10177 -0.0241,-0.10364 -0.0278,-0.10177 -0.0296,-0.0999 -0.0333,-0.0999 -0.0352,-0.0999 z m -8.15327,1.09919 -0.002,0.004 -0.0111,0.10732 -0.0111,0.10733 -0.006,0.10919 -0.006,0.10917 v 0.10919 0.11102 l 0.006,0.10734 0.006,0.10917 0.0111,0.10733 0.0111,0.10733 0.0148,0.10732 0.0185,0.10364 0.0167,0.087 0.63103,-0.12213 -0.0148,-0.0777 -0.0148,-0.0888 -0.013,-0.0907 -0.009,-0.0907 -0.009,-0.0907 -0.006,-0.0926 -0.004,-0.0925 v -0.0944 -0.0926 l 0.004,-0.0944 0.006,-0.0907 0.009,-0.0926 0.009,-0.087 z m 7.83869,0.5422 v 0.0981 l -0.004,0.0925 -0.006,0.0926 -0.009,0.0907 -0.009,0.0907 -0.013,0.0907 -0.0148,0.0888 -0.0167,0.0888 -0.0204,0.0888 -0.0204,0.087 -0.0241,0.0851 -0.0241,0.0851 -0.0278,0.0833 0.60697,0.2128 0.002,-0.006 0.0333,-0.0981 0.0296,-0.10178 0.0278,-0.10177 0.0241,-0.10178 0.0241,-0.10362 0.0185,-0.10548 0.0185,-0.10364 0.0148,-0.10732 0.0111,-0.10733 0.0111,-0.10732 0.006,-0.10918 0.006,-0.10734 v -0.10732 z m -6.99672,1.28238 -0.59956,0.23688 0.0573,0.14248 0.0851,0.18875 0.0944,0.1832 0.10178,0.1795 0.11103,0.17208 0.11843,0.1684 0.12583,0.15914 0.006,0.008 0.48668,-0.42191 -0.10178,-0.13138 -0.10178,-0.1425 -0.0944,-0.14618 -0.087,-0.15174 -0.0796,-0.15545 -0.0722,-0.15913 z m 6.56926,0.42931 -0.008,0.0148 -0.087,0.15174 -0.0944,0.14619 -0.10178,0.14249 -0.10733,0.13693 -0.11287,0.13139 -0.12029,0.12585 -0.0851,0.0814 0.44411,0.46633 0.0962,-0.0926 0.14064,-0.14805 0.13508,-0.15544 0.12584,-0.15914 0.11843,-0.16838 0.11103,-0.1721 0.10178,-0.17949 0.0167,-0.0278 z m -5.56628,1.01407 -0.42192,0.48669 0.0907,0.0777 0.16099,0.12768 0.16654,0.11843 0.17395,0.11103 0.17765,0.10178 0.18505,0.0944 0.18875,0.0852 0.0388,0.0167 0.23687,-0.59955 -0.0259,-0.009 -0.15914,-0.074 -0.1573,-0.0796 -0.14988,-0.087 -0.14804,-0.0944 -0.14064,-0.0999 -0.13694,-0.10733 z m 4.39492,0.27943 -0.14064,0.0907 -0.15174,0.087 -0.15545,0.0796 -0.16099,0.074 -0.16654,0.0648 -0.0814,0.0278 -0.0833,0.0278 -0.0851,0.0259 -0.0518,0.013 0.1684,0.62177 0.0592,-0.0148 0.0999,-0.0315 0.0999,-0.0314 0.0999,-0.0352 0.19246,-0.0759 0.18875,-0.0852 0.18319,-0.0944 0.17765,-0.10178 0.15545,-0.0999 z m -2.83496,0.52184 -0.13694,0.62917 0.0981,0.0204 0.10362,0.0204 0.10548,0.0167 0.10733,0.0148 0.10548,0.013 0.10918,0.009 0.10732,0.008 0.10919,0.004 0.11103,0.002 0.10918,-0.002 0.10918,-0.004 0.10733,-0.008 0.0926,-0.008 -0.0555,-0.64213 -0.0851,0.008 -0.0926,0.008 -0.0926,0.002 -0.0926,0.002 -0.0944,-0.002 -0.0926,-0.002 -0.0926,-0.008 -0.0907,-0.008 -0.0926,-0.0111 -0.0888,-0.0111 -0.0907,-0.0148 -0.087,-0.0185 z"
           id="circle2" />
        <g
           id="g6">
          <g
             id="g4"
             transform="matrix(0.89409929,0,0,0.89409929,12.591441,17.03078)">
            <rect
               style="fill:#000000;stroke-width:1.0641;stroke-dasharray:2.12821, 1.0641"
               id="rect2"
               width="4.4277406"
               height="2.9645352"
               x="117.29079"
               y="161.10934"
               ry="0.6288408" />
            <path
               id="path3"
               style="fill:none;stroke:#000000;stroke-width:0.671274;stroke-linecap:round;stroke-linejoin:round"
               d="m 118.22533,161.86814 v -1.09288 c 0,-0.6711 0.54403,-1.21514 1.21513,-1.21514 0.6711,0 1.21514,0.54404 1.21514,1.21514 v 1.09288"
               sodipodi:nodetypes="ccccc" />
          </g>
          <g
             id="g5">
            <circle
               style="fill:#ffffff;stroke:none;stroke-width:0.810892;stroke-linecap:round;stroke-linejoin:round;stroke-dasharray:none"
               id="path4"
               cx="119.44047"
               cy="162.10487"
               r="0.2710768" />
            <path
               id="rect5"
               style="fill:#ffffff;stroke-width:0.656958;stroke-linecap:round;stroke-linejoin:round"
               d="m 119.28089,162.3174 h 0.31921 l 0.0602,0.63842 h -0.4396 z"
               sodipodi:nodetypes="ccccc" />
          </g>
        </g>
      </g>
    </g>
  </g>
</svg>
