<?xml version="1.0" encoding="UTF-8" standalone="no"?>
<svg
   width="10mm"
   height="5mm"
   viewBox="0 0 10 5"
   version="1.1"
   id="svg8640"
   inkscape:version="1.3.2 (091e20e, 2023-11-25, custom)"
   sodipodi:docname="reaktion.svg"
   xmlns:inkscape="http://www.inkscape.org/namespaces/inkscape"
   xmlns:sodipodi="http://sodipodi.sourceforge.net/DTD/sodipodi-0.dtd"
   xmlns="http://www.w3.org/2000/svg"
   xmlns:svg="http://www.w3.org/2000/svg"
   xmlns:rdf="http://www.w3.org/1999/02/22-rdf-syntax-ns#"
   xmlns:cc="http://creativecommons.org/ns#"
   xmlns:dc="http://purl.org/dc/elements/1.1/">
  <defs
     id="defs8634" />
  <sodipodi:namedview
     id="base"
     pagecolor="#ffffff"
     bordercolor="#666666"
     borderopacity="1.0"
     inkscape:pageopacity="0.0"
     inkscape:pageshadow="2"
     inkscape:zoom="11.2"
     inkscape:cx="9.0178571"
     inkscape:cy="17.098214"
     inkscape:document-units="mm"
     inkscape:current-layer="layer1"
     inkscape:document-rotation="0"
     showgrid="false"
     fit-margin-top="0"
     fit-margin-left="0"
     fit-margin-right="0"
     fit-margin-bottom="0"
     inkscape:window-width="1920"
     inkscape:window-height="1009"
     inkscape:window-x="-8"
     inkscape:window-y="-8"
     inkscape:window-maximized="1"
     inkscape:showpageshadow="2"
     inkscape:pagecheckerboard="0"
     inkscape:deskcolor="#d1d1d1"
     showguides="true" />
  <metadata
     id="metadata8637">
    <rdf:RDF>
      <cc:Work
         rdf:about="">
        <dc:format>image/svg+xml</dc:format>
        <dc:type
           rdf:resource="http://purl.org/dc/dcmitype/StillImage" />
      </cc:Work>
    </rdf:RDF>
  </metadata>
  <g
     inkscape:label="Ebene 1"
     inkscape:groupmode="layer"
     id="layer1"
     transform="translate(-109.29027,-156.14002)">
    <g
       id="g3">
      <rect
         y="156.14001"
         x="-119.29027"
         height="5"
         width="10"
         id="rect1"
         style="fill:none;stroke-width:0.199561"
         transform="scale(-1,1)" />
      <g
         id="g1"
         transform="translate(0.707395)">
        <path
           sodipodi:nodetypes="ccccc"
           d="m 115.11423,156.36452 -6.42066,2.29173 6.42066,2.25927 -0.85465,-2.2755 z"
           style="fill:#000000;stroke:none;stroke-width:0.624244;stroke-linecap:butt;stroke-linejoin:miter;stroke-miterlimit:4;stroke-dasharray:1.87272, 0.624244;stroke-dashoffset:0;paint-order:markers fill stroke"
           id="path2020" />
        <path
           id="path11"
           style="fill:#000000;stroke:none;stroke-width:1.5814;stroke-linecap:round;stroke-dasharray:none"
           d="m 116.79321,156.96125 a 1.678876,1.678876 0 0 0 -1.67898,1.67897 1.678876,1.678876 0 0 0 1.67898,1.6785 1.678876,1.678876 0 0 0 1.67897,-1.6785 1.678876,1.678876 0 0 0 -1.67897,-1.67897 z m 0,0.59486 a 1.0838499,1.0838499 0 0 1 1.08411,1.08411 1.0838499,1.0838499 0 0 1 -1.08411,1.08364 1.0838499,1.0838499 0 0 1 -1.08364,-1.08364 1.0838499,1.0838499 0 0 1 1.08364,-1.08411 z" />
      </g>
    </g>
  </g>
</svg>
