<?xml version="1.0" encoding="UTF-8" standalone="no"?>
<!-- Created with Inkscape (http://www.inkscape.org/) -->

<svg
   width="70.555557mm"
   height="70.555557mm"
   viewBox="0 0 250.00001 250"
   id="svg2"
   version="1.1"
   inkscape:version="1.3.2 (091e20e, 2023-11-25, custom)"
   sodipodi:docname="Begleiter.svg"
   inkscape:export-filename="Begleiter.png"
   inkscape:export-xdpi="96"
   inkscape:export-ydpi="96"
   xmlns:inkscape="http://www.inkscape.org/namespaces/inkscape"
   xmlns:sodipodi="http://sodipodi.sourceforge.net/DTD/sodipodi-0.dtd"
   xmlns="http://www.w3.org/2000/svg"
   xmlns:svg="http://www.w3.org/2000/svg"
   xmlns:rdf="http://www.w3.org/1999/02/22-rdf-syntax-ns#"
   xmlns:cc="http://creativecommons.org/ns#"
   xmlns:dc="http://purl.org/dc/elements/1.1/">
  <sodipodi:namedview
     id="base"
     pagecolor="#ffffff"
     bordercolor="#666666"
     borderopacity="1.0"
     inkscape:pageopacity="0.0"
     inkscape:pageshadow="2"
     inkscape:zoom="1.4"
     inkscape:cx="-26.428572"
     inkscape:cy="241.78572"
     inkscape:document-units="px"
     inkscape:current-layer="g64"
     showgrid="false"
     inkscape:window-width="2560"
     inkscape:window-height="1369"
     inkscape:window-x="2552"
     inkscape:window-y="-8"
     inkscape:window-maximized="1"
     fit-margin-top="0"
     fit-margin-left="0"
     fit-margin-right="0"
     fit-margin-bottom="0"
     inkscape:snap-bbox="true"
     inkscape:bbox-paths="true"
     inkscape:bbox-nodes="true"
     inkscape:showpageshadow="2"
     inkscape:pagecheckerboard="0"
     inkscape:deskcolor="#d1d1d1" />
  <defs
     id="defs4" />
  <metadata
     id="metadata7">
    <rdf:RDF>
      <cc:Work
         rdf:about="">
        <dc:format>image/svg+xml</dc:format>
        <dc:type
           rdf:resource="http://purl.org/dc/dcmitype/StillImage" />
      </cc:Work>
    </rdf:RDF>
  </metadata>
  <g
     id="layer1"
     inkscape:groupmode="layer"
     inkscape:label="Ebene 1"
     transform="translate(-601.37636,417.63781)">
    <g
       id="g65"
       transform="matrix(7.0555639,0,0,7.0555639,-2001.1477,-6131.7045)">
      <g
         id="g64"
         transform="matrix(0.49339809,0.49339809,-0.49339809,0.49339809,525.11078,210.6478)">
        <g
           id="g47">
          <g
             id="g46"
             transform="matrix(0.65568179,0,0,0.65568179,256.34538,205.11374)">
            <path
               id="path43"
               style="fill:#000000;fill-opacity:1;stroke:none;stroke-width:0.478218;stroke-linecap:round;stroke-linejoin:round;stroke-miterlimit:4;stroke-dasharray:none;stroke-opacity:1"
               d="m 321.17674,835.1878 c -2.60973,2.60946 -2.60984,6.84048 -2.6e-4,9.45008 2.6096,2.60958 6.84062,2.60947 9.45008,-2.6e-4 2.60948,-2.6095 2.60948,-6.84032 0,-9.44982 -2.6095,-2.60948 -6.84032,-2.60948 -9.44982,0 z m 4.73306,17.29249 0.0426,0.0421 c -1.58053,2.1283 -1.40482,5.13254 0.52808,7.06554 l 12.99364,12.99363 c 1.93295,1.9329 4.93694,2.10832 7.06527,0.52783 l 15.20145,15.20144 8.49989,-8.49989 -5.2e-4,-5.2e-4 -11.04276,-11.04487 c -2.48012,0.71138 -5.26736,0.0903 -7.1994,-1.84173 l -10.64643,-10.64643 c -2.56878,-2.5689 -2.82976,-6.65342 -0.70719,-9.51162 l 0.0158,0.19303 c 0.0559,-0.1889 0.13115,-0.37151 0.2246,-0.54492 l 0.29481,-0.29481 c -1.52527,-0.32076 -3.00029,-0.9163 -4.17368,-2.08973 -0.45466,-0.45465 -0.8384,-0.95414 -1.16505,-1.48012 l -9.36093,9.36093 z"
               sodipodi:nodetypes="ccccccccccccccccccccsccc" />
            <path
               style="fill:#000000;fill-opacity:1;stroke:none;stroke-width:0.391812;stroke-linecap:round;stroke-linejoin:round;stroke-miterlimit:4;stroke-dasharray:none;stroke-opacity:1"
               d="m 339.02568,834.26628 a 5.4747261,5.4747261 45 0 0 0,7.74255 5.4747261,5.4747261 45 0 0 7.74257,0 5.4747261,5.4747261 45 0 0 3e-5,-7.74263 5.4747261,5.4747261 45 0 0 -7.7426,8e-5 z m 3.87815,14.16804 0.0347,0.0344 c -1.29496,1.74376 -1.15081,4.20531 0.43286,5.78905 l 10.64582,10.6458 c 1.5837,1.58366 4.04493,1.72753 5.78871,0.4326 l 12.45469,12.45461 10.28997,-10.28997 -12.45468,-12.45469 c 1.29498,-1.74375 1.15115,-4.20498 -0.43255,-5.78872 l -10.64582,-10.6458 c -1.58367,-1.58366 -4.04524,-1.72786 -5.78902,-0.43284 l -0.0347,-0.0344 -0.46738,0.46742 -9.3556,9.35554 z"
               id="path44"
               inkscape:connector-curvature="0" />
          </g>
          <rect
             y="858.76251"
             x="-223.92694"
             height="50.780422"
             width="50.780422"
             id="rect4-4"
             style="fill:none;stroke-width:1.43313"
             transform="rotate(-45)" />
        </g>
      </g>
    </g>
  </g>
</svg>
