<?xml version="1.0" encoding="UTF-8" standalone="no"?>
<!-- Created with Inkscape (http://www.inkscape.org/) -->

<svg
   xmlns:dc="http://purl.org/dc/elements/1.1/"
   xmlns:cc="http://creativecommons.org/ns#"
   xmlns:rdf="http://www.w3.org/1999/02/22-rdf-syntax-ns#"
   xmlns:svg="http://www.w3.org/2000/svg"
   xmlns="http://www.w3.org/2000/svg"
   xmlns:sodipodi="http://sodipodi.sourceforge.net/DTD/sodipodi-0.dtd"
   xmlns:inkscape="http://www.inkscape.org/namespaces/inkscape"
   width="70.555557mm"
   height="70.555557mm"
   viewBox="0 0 250.00001 250"
   id="svg2"
   version="1.1"
   inkscape:version="0.91 r13725"
   sodipodi:docname="Infanterie.svg">
  <sodipodi:namedview
     id="base"
     pagecolor="#ffffff"
     bordercolor="#666666"
     borderopacity="1.0"
     inkscape:pageopacity="0.0"
     inkscape:pageshadow="2"
     inkscape:zoom="0.35"
     inkscape:cx="-277.49089"
     inkscape:cy="-165.63365"
     inkscape:document-units="px"
     inkscape:current-layer="layer1"
     showgrid="false"
     inkscape:window-width="1920"
     inkscape:window-height="1016"
     inkscape:window-x="0"
     inkscape:window-y="27"
     inkscape:window-maximized="1"
     fit-margin-top="0"
     fit-margin-left="0"
     fit-margin-right="0"
     fit-margin-bottom="0" />
  <defs
     id="defs4" />
  <metadata
     id="metadata7">
    <rdf:RDF>
      <cc:Work
         rdf:about="">
        <dc:format>image/svg+xml</dc:format>
        <dc:type
           rdf:resource="http://purl.org/dc/dcmitype/StillImage" />
        <dc:title></dc:title>
      </cc:Work>
    </rdf:RDF>
  </metadata>
  <g
     id="layer1"
     inkscape:groupmode="layer"
     inkscape:label="Ebene 1"
     transform="translate(-11.893578,-13.428813)">
    <g
       id="g4177"
       transform="translate(-103.03556,-21.213204)">
      <rect
         y="34.642017"
         x="114.92914"
         height="250"
         width="250"
         id="rect4992"
         style="fill:none;fill-opacity:1;stroke:none;stroke-width:6.44478273;stroke-linecap:round;stroke-linejoin:round;stroke-miterlimit:4;stroke-dasharray:none;stroke-opacity:1" />
      <path
         style="fill:#000000;fill-opacity:1;stroke:none;stroke-width:1.39999998;stroke-linecap:round;stroke-linejoin:round;stroke-miterlimit:4;stroke-dasharray:none;stroke-opacity:1"
         d="m 239.92914,62.672149 a 19.561898,19.561898 0 0 0 -19.56229,19.562281 19.561898,19.561898 0 0 0 19.56229,19.56229 19.561898,19.561898 0 0 0 19.56229,-19.56229 19.561898,19.561898 0 0 0 -19.56229,-19.562281 z m -25.99848,45.595431 0,0.17493 c -7.67761,1.13401 -13.53269,7.71748 -13.53269,15.7201 l 0,53.79512 c 0,8.00263 5.85508,14.58451 13.53269,15.71853 l 0,62.93563 51.99696,0 0,-62.93563 c 7.67762,-1.13402 13.53269,-7.7159 13.53269,-15.71853 l 0,-53.79512 c 0,-8.00262 -5.85507,-14.58609 -13.53269,-15.7201 l 0,-0.17493 -2.36077,0 -47.27542,0 -2.36077,0 z"
         id="path4136"
         inkscape:connector-curvature="0" />
    </g>
  </g>
</svg>
