<?xml version="1.0" encoding="UTF-8" standalone="no"?>
<svg
   width="70.555557mm"
   height="70.555557mm"
   viewBox="0 0 250.00001 250"
   id="svg2"
   version="1.1"
   inkscape:version="1.3.1 (91b66b0783, 2023-11-16)"
   sodipodi:docname="Koloss.svg"
   inkscape:export-filename="Koloss.png"
   inkscape:export-xdpi="96"
   inkscape:export-ydpi="96"
   xmlns:inkscape="http://www.inkscape.org/namespaces/inkscape"
   xmlns:sodipodi="http://sodipodi.sourceforge.net/DTD/sodipodi-0.dtd"
   xmlns="http://www.w3.org/2000/svg"
   xmlns:svg="http://www.w3.org/2000/svg"
   xmlns:rdf="http://www.w3.org/1999/02/22-rdf-syntax-ns#"
   xmlns:cc="http://creativecommons.org/ns#"
   xmlns:dc="http://purl.org/dc/elements/1.1/">
  <sodipodi:namedview
     id="base"
     pagecolor="#ffffff"
     bordercolor="#666666"
     borderopacity="1.0"
     inkscape:pageopacity="0.0"
     inkscape:pageshadow="2"
     inkscape:zoom="1.4"
     inkscape:cx="208.57143"
     inkscape:cy="44.642857"
     inkscape:document-units="px"
     inkscape:current-layer="g939"
     showgrid="false"
     inkscape:window-width="1920"
     inkscape:window-height="1009"
     inkscape:window-x="1912"
     inkscape:window-y="-8"
     inkscape:window-maximized="1"
     fit-margin-top="0"
     fit-margin-left="0"
     fit-margin-right="0"
     fit-margin-bottom="0"
     inkscape:snap-bbox="true"
     inkscape:bbox-paths="true"
     inkscape:bbox-nodes="true"
     inkscape:snap-bbox-edge-midpoints="true"
     inkscape:snap-bbox-midpoints="true"
     inkscape:snap-center="true"
     inkscape:document-rotation="0"
     inkscape:showpageshadow="2"
     inkscape:pagecheckerboard="0"
     inkscape:deskcolor="#d1d1d1" />
  <defs
     id="defs4" />
  <metadata
     id="metadata7">
    <rdf:RDF>
      <cc:Work
         rdf:about="">
        <dc:format>image/svg+xml</dc:format>
        <dc:type
           rdf:resource="http://purl.org/dc/dcmitype/StillImage" />
      </cc:Work>
    </rdf:RDF>
  </metadata>
  <g
     id="layer1"
     inkscape:groupmode="layer"
     inkscape:label="Ebene 1"
     transform="translate(-601.37636,417.63781)">
    <g
       id="g939"
       transform="matrix(1.370839,0,0,1.3683135,-269.36867,122.57779)"
       style="stroke-width:0.730153">
      <path
         id="path902"
         style="color:#000000;overflow:visible;fill:#000000;stroke:#000000;stroke-width:2.62339;stroke-linecap:round;stroke-linejoin:round;stroke-miterlimit:4;stroke-dasharray:none"
         d="m 716.98305,-380.28064 c -2.46051,0 -4.43706,1.97652 -4.43706,4.43703 v 14.18594 h -9.56636 c -1.89194,0 -3.59354,0.7366 -4.88385,1.91328 h -2.69996 l 0.16358,-0.96922 c 0.0873,-0.52128 -0.308,-1.1387 -0.7993,-0.94406 l -16.2628,6.44472 c -0.49139,0.19455 -1.07564,0.41652 -1.10776,0.94406 l -10.12649,48.79949 c -0.031,0.52754 2.03861,6.10791 2.55367,6.22608 l 12.74147,2.92336 c 0.51505,0.11824 2.78748,-5.70476 2.87462,-6.22605 l 7.00491,-33.04958 h 3.27906 l 1.76066,17.09362 c 0.41251,4.00459 1.47642,7.2692 5.50219,7.2692 h 7.71602 v 6.59575 h -7.41553 c -1.92725,0 -11.77466,11.51646 -11.89345,13.44018 l -4.39292,61.10206 c -0.11898,1.92373 1.33904,3.47414 3.26638,3.47414 h 16.27538 c 1.92743,0 3.5756,-1.55041 3.69439,-3.47414 l 3.08393,-48.15443 3.19483,-7.04265 h 19.16897 l 3.19483,7.04265 3.08393,48.15443 c 0.11888,1.92373 1.76696,3.47414 3.69439,3.47414 h 16.27538 c 1.92744,0 3.38517,-1.55041 3.26638,-3.47414 l -4.39292,-61.10206 c -0.11897,-1.92372 -9.9724,-13.44018 -11.89974,-13.44018 h -7.40924 v -6.59575 h 7.70973 c 4.02577,0 5.09597,-3.26457 5.50848,-7.2692 l 1.76067,-17.09362 h 3.84547 l 7.00481,33.04958 c 0.0873,0.52129 2.35957,6.34429 2.87462,6.22605 l 12.73528,-2.92336 c 0.51496,-0.11824 2.59085,-5.69854 2.55996,-6.22608 l -10.12649,-48.79949 c -0.031,-0.52754 -0.62267,-0.74937 -1.11396,-0.94406 l -16.2628,-6.44472 c -0.4913,-0.19454 -0.88033,0.42278 -0.793,0.94406 l 0.16357,0.96922 h -3.26638 c -1.29031,-1.17668 -2.9982,-1.91328 -4.89014,-1.91328 h -9.56016 v -14.18594 c 0,-2.46051 -1.97655,-4.43703 -4.43706,-4.43703 z"
         sodipodi:nodetypes="sscscccssccsscccssccsccssccccccssccsccsscccssccsscccscsss" />
    </g>
  </g>
</svg>
