<?xml version="1.0" encoding="UTF-8" standalone="no"?>
<!-- Created with Inkscape (http://www.inkscape.org/) -->

<svg
   xmlns:dc="http://purl.org/dc/elements/1.1/"
   xmlns:cc="http://creativecommons.org/ns#"
   xmlns:rdf="http://www.w3.org/1999/02/22-rdf-syntax-ns#"
   xmlns:svg="http://www.w3.org/2000/svg"
   xmlns="http://www.w3.org/2000/svg"
   xmlns:sodipodi="http://sodipodi.sourceforge.net/DTD/sodipodi-0.dtd"
   xmlns:inkscape="http://www.inkscape.org/namespaces/inkscape"
   width="70.555557mm"
   height="70.555557mm"
   viewBox="0 0 250.00001 250"
   id="svg2"
   version="1.1"
   inkscape:version="0.92.4 (5da689c313, 2019-01-14)"
   sodipodi:docname="Koloss.svg">
  <sodipodi:namedview
     id="base"
     pagecolor="#ffffff"
     bordercolor="#666666"
     borderopacity="1.0"
     inkscape:pageopacity="0.0"
     inkscape:pageshadow="2"
     inkscape:zoom="1.4"
     inkscape:cx="140.39478"
     inkscape:cy="195.32365"
     inkscape:document-units="px"
     inkscape:current-layer="layer1"
     showgrid="false"
     inkscape:window-width="1920"
     inkscape:window-height="1057"
     inkscape:window-x="1912"
     inkscape:window-y="-8"
     inkscape:window-maximized="1"
     fit-margin-top="0"
     fit-margin-left="0"
     fit-margin-right="0"
     fit-margin-bottom="0" />
  <defs
     id="defs4" />
  <metadata
     id="metadata7">
    <rdf:RDF>
      <cc:Work
         rdf:about="">
        <dc:format>image/svg+xml</dc:format>
        <dc:type
           rdf:resource="http://purl.org/dc/dcmitype/StillImage" />
        <dc:title />
      </cc:Work>
    </rdf:RDF>
  </metadata>
  <g
     id="layer1"
     inkscape:groupmode="layer"
     inkscape:label="Ebene 1"
     transform="translate(-601.37636,417.63781)">
    <g
       id="g948">
      <rect
         y="-417.63782"
         x="601.37634"
         height="250"
         width="250"
         id="rect4315"
         style="fill:none;fill-opacity:1;stroke:none;stroke-width:6.44478273;stroke-linecap:round;stroke-linejoin:round;stroke-miterlimit:4;stroke-dasharray:none;stroke-opacity:1" />
      <g
         transform="matrix(0.33953518,-0.33953518,0.33953518,0.33953518,814.0648,-702.42884)"
         id="g4756">
        <g
           id="g4726">
          <path
             inkscape:connector-curvature="0"
             style="color:#000000;font-style:normal;font-variant:normal;font-weight:normal;font-stretch:normal;font-size:medium;line-height:normal;font-family:sans-serif;font-variant-ligatures:normal;font-variant-position:normal;font-variant-caps:normal;font-variant-numeric:normal;font-variant-alternates:normal;font-feature-settings:normal;text-indent:0;text-align:start;text-decoration:none;text-decoration-line:none;text-decoration-style:solid;text-decoration-color:#000000;letter-spacing:normal;word-spacing:normal;text-transform:none;writing-mode:lr-tb;direction:ltr;text-orientation:mixed;dominant-baseline:auto;baseline-shift:baseline;text-anchor:start;white-space:normal;shape-padding:0;clip-rule:nonzero;display:inline;overflow:visible;visibility:visible;opacity:1;isolation:auto;mix-blend-mode:normal;color-interpolation:sRGB;color-interpolation-filters:linearRGB;solid-color:#000000;solid-opacity:1;vector-effect:none;fill:#000000;fill-opacity:1;fill-rule:nonzero;stroke:none;stroke-width:10;stroke-linecap:round;stroke-linejoin:miter;stroke-miterlimit:4;stroke-dasharray:none;stroke-dashoffset:0;stroke-opacity:1;color-rendering:auto;image-rendering:auto;shape-rendering:auto;text-rendering:auto;enable-background:accumulate"
             d="m -781.42969,395.67188 c -0.66809,0 -1.33586,0.0223 -2.0039,0.0312 v 40.02735 c 18.76236,-0.34004 37.59849,4.082 54.45703,13.29297 18.27082,9.98259 36.15289,39.18645 54.07422,72.02929 17.92132,32.84284 35.88058,69.32467 70.00781,87.97071 17.55985,9.59414 35.17032,7.76922 49.83398,6.29687 14.66366,-1.47236 26.57812,-4.42773 26.57813,-4.42773 a 20.002,20.002 0 1 0 -9.55664,-38.8418 c 0,0 -9.47623,2.30989 -21.01758,3.46875 -11.54137,1.15885 -24.95477,-0.66695 -26.6582,-1.59765 -18.27082,-9.9826 -36.1529,-39.18645 -54.07422,-72.0293 -17.92134,-32.84284 -35.88253,-69.32468 -70.00977,-87.9707 -22.26824,-12.16667 -46.94945,-18.25 -71.63086,-18.25 z"
             transform="scale(0.9375)"
             id="path4721" />
          <path
             style="color:#000000;font-style:normal;font-variant:normal;font-weight:normal;font-stretch:normal;font-size:medium;line-height:normal;font-family:sans-serif;font-variant-ligatures:normal;font-variant-position:normal;font-variant-caps:normal;font-variant-numeric:normal;font-variant-alternates:normal;font-feature-settings:normal;text-indent:0;text-align:start;text-decoration:none;text-decoration-line:none;text-decoration-style:solid;text-decoration-color:#000000;letter-spacing:normal;word-spacing:normal;text-transform:none;writing-mode:lr-tb;direction:ltr;text-orientation:mixed;dominant-baseline:auto;baseline-shift:baseline;text-anchor:start;white-space:normal;shape-padding:0;clip-rule:nonzero;display:inline;overflow:visible;visibility:visible;opacity:1;isolation:auto;mix-blend-mode:normal;color-interpolation:sRGB;color-interpolation-filters:linearRGB;solid-color:#000000;solid-opacity:1;vector-effect:none;fill:#ffffff;fill-opacity:1;fill-rule:nonzero;stroke:none;stroke-width:9.375;stroke-linecap:round;stroke-linejoin:miter;stroke-miterlimit:4;stroke-dasharray:none;stroke-dashoffset:0;stroke-opacity:1;color-rendering:auto;image-rendering:auto;shape-rendering:auto;text-rendering:auto;enable-background:accumulate"
             d="m -732.59033,366.25305 c -0.6263,0 -1.2524,0.0212 -1.87866,0.0293 v 9.375 c 0.62631,-0.009 1.25229,-0.0293 1.87866,-0.0293 22.36858,0 44.73273,5.51356 64.90723,16.53625 30.34388,16.57894 46.895,49.68938 63.76464,80.60487 16.86963,30.91549 33.1871,58.80916 52.56226,69.39513 1.0524,0.57502 1.52685,0.62692 2.21191,0.79651 0.68506,0.1696 1.44363,0.31981 2.31262,0.46692 1.738,0.29424 3.90194,0.56792 6.36292,0.7782 4.92195,0.42057 10.98874,0.59283 16.8219,0.007 11.18235,-1.12281 20.34485,-3.36182 20.34485,-3.36182 l 0.0366,-0.009 0.0366,-0.011 c 7.6472,-1.99695 15.32368,2.57364 17.21191,10.24841 1.88823,7.67476 -2.78932,15.28631 -10.49011,17.06543 l -0.0385,0.007 -0.0366,0.009 c 0,0 -10.87796,2.69237 -24.25599,4.03565 -13.7593,1.38153 -28.91649,2.89011 -44.00206,-5.35217 -30.3439,-16.57894 -46.89503,-49.68754 -63.76466,-80.60304 -16.86963,-30.91549 -33.18891,-58.81099 -52.56409,-69.39696 -16.5128,-9.02208 -34.94006,-13.36119 -53.30016,-13.04261 v 9.38599 c 16.8193,-0.31902 33.70804,3.63507 48.80493,11.88354 14.88263,8.13138 32.09588,34.99495 48.82873,65.6598 16.73285,30.66482 33.85534,65.95781 67.5,84.3402 17.83914,9.74673 35.69976,7.83175 49.43481,6.45264 14.05918,-1.41167 25.42346,-4.22698 25.51575,-4.24988 12.67496,-2.93651 20.57886,-15.79698 17.4701,-28.43262 -3.10374,-12.6152 -16.03521,-20.33715 -28.60657,-17.09839 0,0 -8.60543,2.09022 -19.06311,3.14026 -4.98688,0.50072 -10.61799,0.36359 -15.08789,-0.0183 -2.23494,-0.19095 -4.18857,-0.44476 -5.5957,-0.68298 -0.70356,-0.1191 -1.27357,-0.23547 -1.62415,-0.32227 -0.08,-0.0198 -0.1032,-0.0355 -0.16479,-0.0586 -14.8382,-8.25746 -31.97062,-34.99046 -48.63099,-65.52246 -16.73285,-30.66484 -33.85531,-65.95968 -67.5,-84.34205 -21.57848,-11.78979 -45.49341,-17.68432 -69.40246,-17.68432 z"
             id="path4724"
             inkscape:connector-curvature="0" />
        </g>
        <rect
           y="389.41577"
           x="-518.50879"
           height="162.72322"
           width="20.49971"
           id="rect4728"
           style="opacity:1;fill:#000000;fill-opacity:1;stroke:none;stroke-width:11.62742424;stroke-linecap:round;stroke-miterlimit:4;stroke-dasharray:none;stroke-opacity:1" />
        <rect
           style="opacity:1;fill:#000000;fill-opacity:1;stroke:none;stroke-width:11.62742424;stroke-linecap:round;stroke-miterlimit:4;stroke-dasharray:none;stroke-opacity:1"
           id="rect4730"
           width="20.49971"
           height="162.72322"
           x="-556.00879"
           y="389.41577" />
        <rect
           y="416.87112"
           x="-593.50879"
           height="114.50894"
           width="20.49971"
           id="rect4732"
           style="opacity:1;fill:#000000;fill-opacity:1;stroke:none;stroke-width:9.75390339;stroke-linecap:round;stroke-miterlimit:4;stroke-dasharray:none;stroke-opacity:1" />
        <rect
           style="opacity:1;fill:#000000;fill-opacity:1;stroke:none;stroke-width:9.75390339;stroke-linecap:round;stroke-miterlimit:4;stroke-dasharray:none;stroke-opacity:1"
           id="rect4734"
           width="20.49971"
           height="114.50894"
           x="-668.50879"
           y="416.87112" />
        <rect
           y="398.12112"
           x="-706.00879"
           height="152.00894"
           width="20.49971"
           id="rect4736"
           style="opacity:1;fill:#000000;fill-opacity:1;stroke:none;stroke-width:11.2381115;stroke-linecap:round;stroke-miterlimit:4;stroke-dasharray:none;stroke-opacity:1" />
        <path
           style="color:#000000;font-style:normal;font-variant:normal;font-weight:normal;font-stretch:normal;font-size:medium;line-height:normal;font-family:sans-serif;font-variant-ligatures:normal;font-variant-position:normal;font-variant-caps:normal;font-variant-numeric:normal;font-variant-alternates:normal;font-feature-settings:normal;text-indent:0;text-align:start;text-decoration:none;text-decoration-line:none;text-decoration-style:solid;text-decoration-color:#000000;letter-spacing:normal;word-spacing:normal;text-transform:none;writing-mode:lr-tb;direction:ltr;text-orientation:mixed;dominant-baseline:auto;baseline-shift:baseline;text-anchor:start;white-space:normal;shape-padding:0;clip-rule:nonzero;display:inline;overflow:visible;visibility:visible;opacity:1;isolation:auto;mix-blend-mode:normal;color-interpolation:sRGB;color-interpolation-filters:linearRGB;solid-color:#000000;solid-opacity:1;vector-effect:none;fill:#000000;fill-opacity:1;fill-rule:nonzero;stroke:#ffffff;stroke-width:9.375;stroke-linecap:round;stroke-linejoin:miter;stroke-miterlimit:4;stroke-dasharray:none;stroke-dashoffset:0;stroke-opacity:1;color-rendering:auto;image-rendering:auto;shape-rendering:auto;text-rendering:auto;enable-background:accumulate"
           d="m -922.46875,370.85799 c -7.9032,-0.52376 -15.46625,0.24928 -22.33984,0.93945 -13.74718,1.38034 -24.91602,4.15039 -24.91602,4.15039 a 18.751875,18.751875 0 1 0 8.95899,36.41406 c 0,0 8.88309,-2.16553 19.70312,-3.25195 10.82003,-1.08642 23.39327,0.62552 24.99023,1.49805 17.12889,9.35868 33.89408,36.73717 50.69532,67.52734 16.80124,30.79017 33.63852,64.992 65.63281,82.47266 41.75296,22.81249 92.55563,22.81249 134.30859,0 31.99429,-17.48066 48.83157,-51.68249 65.63282,-82.47266 16.80124,-30.79017 33.56642,-58.16866 50.69531,-67.52734 1.59697,-0.87254 14.17216,-2.58447 24.99219,-1.49805 10.82002,1.08642 19.70312,3.25195 19.70312,3.25195 a 18.751875,18.751875 0 1 0 8.95899,-36.41406 c 0,0 -11.16884,-2.77005 -24.91602,-4.15039 -13.74718,-1.38034 -30.25639,-3.09216 -46.71875,5.90234 -31.99428,17.48066 -48.83157,51.68249 -65.63281,82.47266 -16.80124,30.79017 -33.56642,58.16867 -50.69532,67.52735 -30.48436,16.65569 -67.86329,16.65569 -98.34765,0 -17.1289,-9.35868 -33.89407,-36.73718 -50.69531,-67.52735 -16.80125,-30.79017 -33.63854,-64.992 -65.63282,-82.47266 -8.23118,-4.49725 -16.47375,-6.31804 -24.37695,-6.84179 z"
           id="path4738"
           inkscape:connector-curvature="0" />
        <rect
           y="398.12112"
           x="-781.00879"
           height="152.00894"
           width="20.49971"
           id="rect4740"
           style="opacity:1;fill:#000000;fill-opacity:1;stroke:none;stroke-width:11.2381115;stroke-linecap:round;stroke-miterlimit:4;stroke-dasharray:none;stroke-opacity:1" />
        <rect
           style="opacity:1;fill:#000000;fill-opacity:1;stroke:none;stroke-width:10.0072937;stroke-linecap:round;stroke-miterlimit:4;stroke-dasharray:none;stroke-opacity:1"
           id="rect4742"
           width="20.49971"
           height="120.53573"
           x="-818.50879"
           y="414.19257" />
        <rect
           y="416.20151"
           x="-893.50879"
           height="115.17858"
           width="20.49971"
           id="rect4744"
           style="opacity:1;fill:#000000;fill-opacity:1;stroke:none;stroke-width:9.78238201;stroke-linecap:round;stroke-miterlimit:4;stroke-dasharray:none;stroke-opacity:1" />
        <rect
           style="opacity:1;fill:#000000;fill-opacity:1;stroke:none;stroke-width:11.03830624;stroke-linecap:round;stroke-miterlimit:4;stroke-dasharray:none;stroke-opacity:1"
           id="rect4746"
           width="20.49971"
           height="146.65179"
           x="-931.00879"
           y="398.12115" />
        <rect
           y="398.12115"
           x="-968.50879"
           height="146.65179"
           width="20.49971"
           id="rect4748"
           style="opacity:1;fill:#000000;fill-opacity:1;stroke:none;stroke-width:11.03830624;stroke-linecap:round;stroke-miterlimit:4;stroke-dasharray:none;stroke-opacity:1" />
        <path
           inkscape:connector-curvature="0"
           id="path4750"
           transform="scale(0.9375)"
           d="m -783.43359,395.70312 c -24.01162,0.32042 -47.96148,6.38142 -69.62696,18.21876 -34.12724,18.64602 -52.08649,55.12786 -70.00781,87.9707 -17.92132,32.84285 -35.80536,62.0467 -54.07617,72.0293 -1.70343,0.93069 -15.11489,2.7565 -26.65627,1.59765 -11.5413,-1.15886 -21.0156,-3.46875 -21.0156,-3.46875 a 20.002,20.002 0 1 0 -9.5566,38.8418 c 0,0 11.9144,2.95537 26.5781,4.42773 14.66364,1.47235 32.27021,3.29727 49.83006,-6.29687 34.12723,-18.64604 52.08648,-55.12787 70.00781,-87.97071 17.92132,-32.84284 35.80534,-62.0467 54.07617,-72.02929 15.65812,-8.5551 33.02089,-12.97714 50.44727,-13.29297 z"
           style="color:#000000;font-style:normal;font-variant:normal;font-weight:normal;font-stretch:normal;font-size:medium;line-height:normal;font-family:sans-serif;font-variant-ligatures:normal;font-variant-position:normal;font-variant-caps:normal;font-variant-numeric:normal;font-variant-alternates:normal;font-feature-settings:normal;text-indent:0;text-align:start;text-decoration:none;text-decoration-line:none;text-decoration-style:solid;text-decoration-color:#000000;letter-spacing:normal;word-spacing:normal;text-transform:none;writing-mode:lr-tb;direction:ltr;text-orientation:mixed;dominant-baseline:auto;baseline-shift:baseline;text-anchor:start;white-space:normal;shape-padding:0;clip-rule:nonzero;display:inline;overflow:visible;visibility:visible;opacity:1;isolation:auto;mix-blend-mode:normal;color-interpolation:sRGB;color-interpolation-filters:linearRGB;solid-color:#000000;solid-opacity:1;vector-effect:none;fill:#000000;fill-opacity:1;fill-rule:nonzero;stroke:none;stroke-width:10;stroke-linecap:round;stroke-linejoin:miter;stroke-miterlimit:4;stroke-dasharray:none;stroke-dashoffset:0;stroke-opacity:1;color-rendering:auto;image-rendering:auto;shape-rendering:auto;text-rendering:auto;enable-background:accumulate" />
        <path
           inkscape:connector-curvature="0"
           id="path4752"
           d="m -734.46899,366.28235 c -23.28151,0.30069 -46.51058,6.17406 -67.5238,17.65502 -33.64469,18.38237 -50.76716,53.67721 -67.5,84.34205 -16.66036,30.532 -33.79279,57.265 -48.63099,65.52246 -0.0616,0.0231 -0.083,0.0388 -0.16296,0.0586 -0.35053,0.0868 -0.92251,0.20682 -1.62598,0.32593 -1.40693,0.2382 -3.36102,0.48837 -5.5957,0.67932 -4.46938,0.38194 -10.09916,0.51907 -15.08608,0.0183 -10.45772,-1.05004 -19.06125,-3.14026 -19.06125,-3.14026 l 0.0732,0.0183 c -12.59494,-3.28899 -25.57172,4.43975 -28.6816,17.08008 -3.10875,12.63564 4.79691,25.49611 17.47191,28.43262 0.0923,0.0229 11.45653,2.83821 25.51575,4.24988 13.73498,1.37911 31.59397,3.29402 49.43296,-6.45264 33.64468,-18.38239 50.76714,-53.67538 67.5,-84.3402 16.73286,-30.66485 33.94611,-57.52842 48.82874,-65.6598 13.9726,-7.63419 29.47902,-11.58828 45.04578,-11.88354 v -9.38599 c -17.10771,0.29684 -34.15644,4.63596 -49.54285,13.04261 -19.37517,10.58597 -35.69263,38.48147 -52.56225,69.39696 -16.86965,30.9155 -33.42261,64.0241 -63.76649,80.60304 -15.08572,8.24236 -30.23906,6.73371 -43.99839,5.35217 -13.37803,-1.34328 -24.25603,-4.03565 -24.25603,-4.03565 l -0.0384,-0.009 -0.0366,-0.007 c -7.70081,-1.77912 -12.37838,-9.39067 -10.49016,-17.06543 1.88822,-7.67477 9.56288,-12.24536 17.21007,-10.24841 l 0.0384,0.011 0.0367,0.009 c 0,0 9.16069,2.23901 20.343,3.36182 5.83314,0.58569 11.90225,0.41342 16.82375,-0.007 2.46074,-0.21029 4.62509,-0.48396 6.36291,-0.7782 0.86891,-0.14711 1.6258,-0.29731 2.31079,-0.46692 0.68501,-0.16959 1.15786,-0.22159 2.21009,-0.79651 19.37515,-10.58597 35.69262,-38.47964 52.56225,-69.39513 16.86963,-30.91549 33.42259,-64.02593 63.76648,-80.60487 19.60956,-10.71404 41.28646,-16.20688 63.02674,-16.50695 z"
           style="color:#000000;font-style:normal;font-variant:normal;font-weight:normal;font-stretch:normal;font-size:medium;line-height:normal;font-family:sans-serif;font-variant-ligatures:normal;font-variant-position:normal;font-variant-caps:normal;font-variant-numeric:normal;font-variant-alternates:normal;font-feature-settings:normal;text-indent:0;text-align:start;text-decoration:none;text-decoration-line:none;text-decoration-style:solid;text-decoration-color:#000000;letter-spacing:normal;word-spacing:normal;text-transform:none;writing-mode:lr-tb;direction:ltr;text-orientation:mixed;dominant-baseline:auto;baseline-shift:baseline;text-anchor:start;white-space:normal;shape-padding:0;clip-rule:nonzero;display:inline;overflow:visible;visibility:visible;opacity:1;isolation:auto;mix-blend-mode:normal;color-interpolation:sRGB;color-interpolation-filters:linearRGB;solid-color:#000000;solid-opacity:1;vector-effect:none;fill:#ffffff;fill-opacity:1;fill-rule:nonzero;stroke:none;stroke-width:9.375;stroke-linecap:round;stroke-linejoin:miter;stroke-miterlimit:4;stroke-dasharray:none;stroke-dashoffset:0;stroke-opacity:1;color-rendering:auto;image-rendering:auto;shape-rendering:auto;text-rendering:auto;enable-background:accumulate" />
        <rect
           style="opacity:1;fill:#000000;fill-opacity:1;stroke:none;stroke-width:11.2381115;stroke-linecap:round;stroke-miterlimit:4;stroke-dasharray:none;stroke-opacity:1"
           id="rect4754"
           width="20.49971"
           height="152.00894"
           x="-743.50879"
           y="398.12112" />
      </g>
    </g>
  </g>
</svg>
