<?xml version="1.0" encoding="UTF-8" standalone="no"?>
<svg
   xmlns:dc="http://purl.org/dc/elements/1.1/"
   xmlns:cc="http://creativecommons.org/ns#"
   xmlns:rdf="http://www.w3.org/1999/02/22-rdf-syntax-ns#"
   xmlns:svg="http://www.w3.org/2000/svg"
   xmlns="http://www.w3.org/2000/svg"
   xmlns:sodipodi="http://sodipodi.sourceforge.net/DTD/sodipodi-0.dtd"
   xmlns:inkscape="http://www.inkscape.org/namespaces/inkscape"
   width="70.555557mm"
   height="70.555557mm"
   viewBox="0 0 250.00001 250"
   id="svg2"
   version="1.1"
   inkscape:version="1.0.1 (3bc2e813f5, 2020-09-07)"
   sodipodi:docname="Koloss.svg">
  <sodipodi:namedview
     id="base"
     pagecolor="#ffffff"
     bordercolor="#666666"
     borderopacity="1.0"
     inkscape:pageopacity="0.0"
     inkscape:pageshadow="2"
     inkscape:zoom="1.4"
     inkscape:cx="250.07791"
     inkscape:cy="60.428863"
     inkscape:document-units="px"
     inkscape:current-layer="layer1"
     showgrid="false"
     inkscape:window-width="1920"
     inkscape:window-height="1057"
     inkscape:window-x="-8"
     inkscape:window-y="-8"
     inkscape:window-maximized="1"
     fit-margin-top="0"
     fit-margin-left="0"
     fit-margin-right="0"
     fit-margin-bottom="0"
     inkscape:snap-bbox="true"
     inkscape:bbox-paths="true"
     inkscape:bbox-nodes="true"
     inkscape:snap-bbox-edge-midpoints="true"
     inkscape:snap-bbox-midpoints="true"
     inkscape:snap-center="true"
     inkscape:document-rotation="0" />
  <defs
     id="defs4" />
  <metadata
     id="metadata7">
    <rdf:RDF>
      <cc:Work
         rdf:about="">
        <dc:format>image/svg+xml</dc:format>
        <dc:type
           rdf:resource="http://purl.org/dc/dcmitype/StillImage" />
        <dc:title></dc:title>
      </cc:Work>
    </rdf:RDF>
  </metadata>
  <g
     id="layer1"
     inkscape:groupmode="layer"
     inkscape:label="Ebene 1"
     transform="translate(-601.37636,417.63781)">
    <g
       id="g939"
       transform="matrix(1.370839,0,0,1.3683135,-269.36867,122.57779)"
       style="stroke-width:0.730153">
      <path
         id="path902"
         style="color:#000000;overflow:visible;fill:#000000;stroke:#000000;stroke-width:2.79375;stroke-linecap:round;stroke-linejoin:round;stroke-miterlimit:4;stroke-dasharray:none"
         d="m 716.37307,-385.26994 c -2.6203,0 -4.7252,2.10488 -4.7252,4.72517 v 15.10717 h -10.1876 c -2.0148,0 -3.8269,0.78443 -5.201,2.03753 h -2.8753 l 0.1742,-1.03216 c 0.093,-0.55514 -0.328,-1.21265 -0.8512,-1.00537 l -17.3189,6.86324 c -0.5233,0.20718 -1.1455,0.44357 -1.1797,1.00537 l -10.7841,51.96851 c -0.033,0.56179 2.171,6.50455 2.7195,6.6304 l 13.5689,3.1132 c 0.5485,0.12592 2.9685,-6.07523 3.0613,-6.63037 l 7.4598,-35.19581 h 3.492 l 1.875,18.20368 c 0.4393,4.26464 1.5723,7.74126 5.8595,7.74126 h 8.2171 v 7.02407 h -7.8971 c -2.0524,0 -12.5393,12.26434 -12.6658,14.31298 l -4.6782,65.07001 c -0.1267,2.04865 1.426,3.69975 3.4785,3.69975 h 17.3323 c 2.0526,0 3.8078,-1.6511 3.9343,-3.69975 l 3.2842,-51.28156 3.4023,-7.5 h 20.4138 l 3.4023,7.5 3.2842,51.28156 c 0.1266,2.04865 1.8817,3.69975 3.9343,3.69975 h 17.3323 c 2.0526,0 3.605,-1.6511 3.4785,-3.69975 l -4.6782,-65.07001 c -0.1267,-2.04864 -10.62,-14.31298 -12.6725,-14.31298 h -7.8904 v -7.02407 h 8.2104 c 4.2872,0 5.4269,-3.47658 5.8662,-7.74126 l 1.875,-18.20368 h 4.0952 l 7.4597,35.19581 c 0.093,0.55514 2.5128,6.75629 3.0613,6.63037 l 13.5623,-3.1132 c 0.5484,-0.12592 2.7591,-6.06861 2.7262,-6.6304 l -10.7841,-51.96851 c -0.033,-0.5618 -0.6631,-0.79804 -1.1863,-1.00537 l -17.3189,-6.86324 c -0.5232,-0.20717 -0.9375,0.45023 -0.8445,1.00537 l 0.1742,1.03216 h -3.4785 c -1.3741,-1.2531 -3.1929,-2.03753 -5.2077,-2.03753 h -10.181 v -15.10717 c 0,-2.62029 -2.1049,-4.72517 -4.7252,-4.72517 z"
         sodipodi:nodetypes="sscscccssccsscccssccsccssccccccssccsccsscccssccsscccscsss" />
      <path
         style="fill:#000000;fill-rule:evenodd;stroke:#000000;stroke-width:2.79352;stroke-linecap:butt;stroke-linejoin:miter;stroke-miterlimit:4;stroke-dasharray:none;stroke-opacity:1"
         d="m 693.38397,-363.40005 0.3419,25.71703"
         id="path904"
         sodipodi:nodetypes="cc" />
      <path
         style="fill:#000000;fill-rule:evenodd;stroke:#000000;stroke-width:2.79352;stroke-linecap:butt;stroke-linejoin:miter;stroke-miterlimit:4;stroke-dasharray:none;stroke-opacity:1"
         d="m 759.36897,-363.40005 -0.9451,25.71703"
         id="path906"
         sodipodi:nodetypes="cc" />
      <path
         style="fill:#000000;fill-rule:evenodd;stroke:#000000;stroke-width:2.79352;stroke-linecap:butt;stroke-linejoin:miter;stroke-miterlimit:4;stroke-dasharray:none;stroke-opacity:1"
         d="m 742.47217,-304.71405 -6.1905,20.60143"
         id="path908"
         sodipodi:nodetypes="cc" />
      <path
         style="fill:#000000;fill-rule:evenodd;stroke:#000000;stroke-width:2.79352;stroke-linecap:butt;stroke-linejoin:miter;stroke-miterlimit:4;stroke-dasharray:none;stroke-opacity:1"
         d="m 709.67737,-304.71405 6.1905,20.60143"
         id="path910"
         sodipodi:nodetypes="cc" />
    </g>
  </g>
</svg>
