<?xml version="1.0" encoding="UTF-8" standalone="no"?>
<!-- Created with Inkscape (http://www.inkscape.org/) -->

<svg
   xmlns:dc="http://purl.org/dc/elements/1.1/"
   xmlns:cc="http://creativecommons.org/ns#"
   xmlns:rdf="http://www.w3.org/1999/02/22-rdf-syntax-ns#"
   xmlns:svg="http://www.w3.org/2000/svg"
   xmlns="http://www.w3.org/2000/svg"
   xmlns:sodipodi="http://sodipodi.sourceforge.net/DTD/sodipodi-0.dtd"
   xmlns:inkscape="http://www.inkscape.org/namespaces/inkscape"
   width="70.555557mm"
   height="70.555557mm"
   viewBox="0 0 250.00001 250"
   id="svg2"
   version="1.1"
   inkscape:version="0.92.4 (5da689c313, 2019-01-14)"
   sodipodi:docname="MIKe.svg">
  <sodipodi:namedview
     id="base"
     pagecolor="#ffffff"
     bordercolor="#666666"
     borderopacity="1.0"
     inkscape:pageopacity="0.0"
     inkscape:pageshadow="2"
     inkscape:zoom="1.4"
     inkscape:cx="46.523"
     inkscape:cy="98.073289"
     inkscape:document-units="px"
     inkscape:current-layer="layer1"
     showgrid="false"
     inkscape:window-width="1920"
     inkscape:window-height="1057"
     inkscape:window-x="1912"
     inkscape:window-y="-8"
     inkscape:window-maximized="1"
     fit-margin-top="0"
     fit-margin-left="0"
     fit-margin-right="0"
     fit-margin-bottom="0" />
  <defs
     id="defs4" />
  <metadata
     id="metadata7">
    <rdf:RDF>
      <cc:Work
         rdf:about="">
        <dc:format>image/svg+xml</dc:format>
        <dc:type
           rdf:resource="http://purl.org/dc/dcmitype/StillImage" />
        <dc:title />
      </cc:Work>
    </rdf:RDF>
  </metadata>
  <g
     id="layer1"
     inkscape:groupmode="layer"
     inkscape:label="Ebene 1"
     transform="translate(-601.37636,417.63781)">
    <g
       id="g891">
      <rect
         y="-417.63782"
         x="601.37634"
         height="250"
         width="250"
         id="rect4315"
         style="fill:none;fill-opacity:1;stroke:none;stroke-width:6.44478273;stroke-linecap:round;stroke-linejoin:round;stroke-miterlimit:4;stroke-dasharray:none;stroke-opacity:1" />
      <g
         transform="matrix(1.4114931,0,0,1.4114931,71.467462,41.856182)"
         id="g885">
        <path
           inkscape:connector-curvature="0"
           id="path4799"
           d="m 461.10682,-314.72705 -3.90192,8.92465 -0.55542,4.25262 0.50585,4.44581 -9.87301,1.96362 -1.23539,-4.30091 -2.13907,-3.71628 -7.02093,-6.75132 -5.31525,2.2013 -0.18937,9.73807 1.11464,4.14077 2.1683,3.91455 -8.36943,5.5922 -2.78728,-3.50021 -3.39861,-2.61563 -9.06975,-3.55106 -4.06842,4.06834 3.55113,9.06955 2.61569,3.39854 3.5003,2.7872 -5.59234,8.36925 -3.91464,-2.16825 -4.14087,-1.11463 -9.73828,0.18938 -2.20135,5.31513 6.75148,7.02077 3.71635,2.13902 4.30103,1.23537 -1.96369,9.87279 -4.4459,-0.50584 -4.25272,0.5554 -8.92486,3.90184 v 5.75235 l 8.92486,3.90183 4.25272,0.55541 4.4459,-0.50583 1.96369,9.87278 -4.30103,1.23537 -3.71635,2.13903 -6.75148,7.02075 2.20135,5.31514 9.73828,0.18937 4.14087,-1.11462 3.91464,-2.16826 5.59234,8.37052 -3.5003,2.78594 -2.61569,3.39854 -3.55113,9.06954 4.06842,4.06834 9.06975,-3.55106 3.39861,-2.61563 2.78728,-3.50021 8.36943,5.5922 -2.1683,3.91455 -1.11464,4.14078 0.18937,9.73807 5.31525,2.20256 7.02093,-6.75259 2.13907,-3.71629 1.23539,-4.3009 9.87301,1.96362 -0.50585,4.4458 0.55542,4.25264 3.90192,8.92464 h 5.75249 l 3.90192,-8.92464 0.55542,-4.25264 -0.50585,-4.4458 9.87301,-1.96362 1.2354,4.3009 2.13906,3.71629 7.02093,6.75259 5.31526,-2.20256 0.18937,-9.73807 -1.11465,-4.14078 -2.1683,-3.91455 8.37071,-5.5922 2.786,3.50021 3.39862,2.61563 9.06977,3.55106 4.06839,-4.06834 -3.55112,-9.06954 -2.61567,-3.39854 -3.50029,-2.78594 5.59231,-8.37052 3.91462,2.16826 4.14089,1.11462 9.73828,-0.18937 2.20264,-5.31514 -6.75279,-7.02075 -3.71634,-2.13903 -4.30103,-1.23537 1.96369,-9.87278 4.44589,0.50583 4.25275,-0.55541 8.92484,-3.90183 v -5.75235 l -8.92484,-3.90184 -4.25275,-0.5554 -4.44589,0.50584 -1.96369,-9.87279 4.30103,-1.23537 3.71634,-2.13902 6.75279,-7.02077 -2.20264,-5.31513 -9.73828,-0.18938 -4.14089,1.11463 -3.91462,2.16825 -5.59231,-8.36925 3.50029,-2.7872 2.61567,-3.39854 3.55112,-9.06955 -4.06839,-4.06834 -9.06977,3.55106 -3.39862,2.61563 -2.786,3.50021 -8.37071,-5.5922 2.1683,-3.91455 1.11465,-4.14077 -0.18937,-9.73807 -5.31526,-2.2013 -7.02093,6.75132 -2.13906,3.71628 -1.2354,4.30091 -9.87301,-1.96362 0.50585,-4.44581 -0.55542,-4.25262 -3.90192,-8.92465 z m 2.87625,37.01152 a 40.737581,40.736662 0 0 1 4.06715,0.20335 40.737581,40.736662 0 0 1 4.02648,0.60878 40.737581,40.736662 0 0 1 3.94514,1.00787 40.737581,40.736662 0 0 1 3.82566,1.39552 40.737581,40.736662 0 0 1 3.6668,1.77171 40.737581,40.736662 0 0 1 3.47105,2.12758 40.737581,40.736662 0 0 1 3.24229,2.46439 40.737581,40.736662 0 0 1 2.9792,2.77576 40.737581,40.736662 0 0 1 2.68685,3.0592 40.737581,40.736662 0 0 1 2.36911,3.31211 40.737581,40.736662 0 0 1 2.02595,3.53199 40.737581,40.736662 0 0 1 1.66373,3.71754 40.737581,40.736662 0 0 1 1.2837,3.86371 40.737581,40.736662 0 0 1 0.89222,3.97301 40.737581,40.736662 0 0 1 0.4906,4.04291 40.737581,40.736662 0 0 1 0.10168,2.88126 40.737581,40.736662 0 0 1 -0.20336,4.06706 40.737581,40.736662 0 0 1 -0.60879,4.02639 40.737581,40.736662 0 0 1 -1.0079,3.94505 40.737581,40.736662 0 0 1 -1.39554,3.82558 40.737581,40.736662 0 0 1 -1.77175,3.66671 40.737581,40.736662 0 0 1 -2.12763,3.47098 40.737581,40.736662 0 0 1 -2.46445,3.24222 40.737581,40.736662 0 0 1 -2.77583,2.97911 40.737581,40.736662 0 0 1 -3.05925,2.6868 40.737581,40.736662 0 0 1 -3.31219,2.36907 40.737581,40.736662 0 0 1 -3.53207,2.0259 40.737581,40.736662 0 0 1 -3.71763,1.66368 40.737581,40.736662 0 0 1 -3.86379,1.28367 40.737581,40.736662 0 0 1 -3.97311,0.89222 40.737581,40.736662 0 0 1 -4.043,0.49058 40.737581,40.736662 0 0 1 -2.88132,0.10168 40.737581,40.736662 0 0 1 -4.06715,-0.20336 40.737581,40.736662 0 0 1 -4.02648,-0.60878 40.737581,40.736662 0 0 1 -3.94514,-1.00787 40.737581,40.736662 0 0 1 -3.82566,-1.39552 40.737581,40.736662 0 0 1 -3.66553,-1.7717 40.737581,40.736662 0 0 1 -3.47233,-2.12758 40.737581,40.736662 0 0 1 -3.24101,-2.46439 40.737581,40.736662 0 0 1 -2.98046,-2.77577 40.737581,40.736662 0 0 1 -2.68686,-3.05919 40.737581,40.736662 0 0 1 -2.36912,-3.31211 40.737581,40.736662 0 0 1 -2.02596,-3.53199 40.737581,40.736662 0 0 1 -1.6637,-3.71755 40.737581,40.736662 0 0 1 -1.28371,-3.86371 40.737581,40.736662 0 0 1 -0.89222,-3.97301 40.737581,40.736662 0 0 1 -0.49061,-4.04291 40.737581,40.736662 0 0 1 -0.10168,-2.88126 40.737581,40.736662 0 0 1 0.20335,-4.06706 40.737581,40.736662 0 0 1 0.60881,-4.02639 40.737581,40.736662 0 0 1 1.00789,-3.94505 40.737581,40.736662 0 0 1 1.39555,-3.82558 40.737581,40.736662 0 0 1 1.77175,-3.66543 40.737581,40.736662 0 0 1 2.12763,-3.47226 40.737581,40.736662 0 0 1 2.46444,-3.24094 40.737581,40.736662 0 0 1 2.77583,-2.98039 40.737581,40.736662 0 0 1 3.05926,-2.6868 40.737581,40.736662 0 0 1 3.31219,-2.36907 40.737581,40.736662 0 0 1 3.53206,-2.0259 40.737581,40.736662 0 0 1 3.71763,-1.66368 40.737581,40.736662 0 0 1 3.8638,-1.28367 40.737581,40.736662 0 0 1 3.9731,-0.89221 40.737581,40.736662 0 0 1 4.043,-0.49058 40.737581,40.736662 0 0 1 2.88133,-0.10168 z"
           style="fill:#000000;stroke:#000000;stroke-width:0.72907072" />
        <ellipse
           style="fill:none;fill-opacity:1;stroke:#000000;stroke-width:4.50344753;stroke-linecap:round;stroke-linejoin:round;stroke-miterlimit:4;stroke-dasharray:none;stroke-opacity:1"
           id="path4967"
           cx="463.98306"
           cy="-236.97885"
           rx="30.633177"
           ry="30.632486" />
      </g>
    </g>
  </g>
</svg>
