<?xml version="1.0" encoding="UTF-8" standalone="no"?>
<!-- Created with Inkscape (http://www.inkscape.org/) -->

<svg
   width="70.555557mm"
   height="70.555557mm"
   viewBox="0 0 250.00001 250"
   id="svg2"
   version="1.1"
   inkscape:version="1.3.1 (91b66b0783, 2023-11-16)"
   sodipodi:docname="Telematon.svg"
   inkscape:export-filename="Telematon.png"
   inkscape:export-xdpi="96"
   inkscape:export-ydpi="96"
   xmlns:inkscape="http://www.inkscape.org/namespaces/inkscape"
   xmlns:sodipodi="http://sodipodi.sourceforge.net/DTD/sodipodi-0.dtd"
   xmlns="http://www.w3.org/2000/svg"
   xmlns:svg="http://www.w3.org/2000/svg"
   xmlns:rdf="http://www.w3.org/1999/02/22-rdf-syntax-ns#"
   xmlns:cc="http://creativecommons.org/ns#"
   xmlns:dc="http://purl.org/dc/elements/1.1/">
  <sodipodi:namedview
     id="base"
     pagecolor="#ffffff"
     bordercolor="#666666"
     borderopacity="1.0"
     inkscape:pageopacity="0.0"
     inkscape:pageshadow="2"
     inkscape:zoom="0.24748737"
     inkscape:cx="-234.35539"
     inkscape:cy="264.65997"
     inkscape:document-units="px"
     inkscape:current-layer="g64"
     showgrid="false"
     inkscape:window-width="1920"
     inkscape:window-height="1009"
     inkscape:window-x="1912"
     inkscape:window-y="-8"
     inkscape:window-maximized="1"
     fit-margin-top="0"
     fit-margin-left="0"
     fit-margin-right="0"
     fit-margin-bottom="0"
     inkscape:snap-bbox="true"
     inkscape:bbox-paths="true"
     inkscape:bbox-nodes="true"
     inkscape:showpageshadow="2"
     inkscape:pagecheckerboard="0"
     inkscape:deskcolor="#d1d1d1" />
  <defs
     id="defs4" />
  <metadata
     id="metadata7">
    <rdf:RDF>
      <cc:Work
         rdf:about="">
        <dc:format>image/svg+xml</dc:format>
        <dc:type
           rdf:resource="http://purl.org/dc/dcmitype/StillImage" />
      </cc:Work>
    </rdf:RDF>
  </metadata>
  <g
     id="layer1"
     inkscape:groupmode="layer"
     inkscape:label="Ebene 1"
     transform="translate(-601.37636,417.63781)">
    <g
       id="g65"
       transform="matrix(7.0555639,0,0,7.0555639,-2001.1477,-6131.7045)">
      <rect
         y="809.86676"
         x="368.86124"
         height="35.433071"
         width="35.433071"
         id="rect10"
         style="fill:none" />
      <g
         id="g64"
         transform="matrix(0.49339809,0.49339809,-0.49339809,0.49339809,525.11078,210.6478)">
        <g
           id="g6"
           transform="rotate(45,484.80344,765.5765)">
          <path
             id="path50"
             style="color:#000000;fill:#000000;stroke-width:0.978345;stroke-linecap:round;stroke-linejoin:round;stroke-dashoffset:6.38929;-inkscape-stroke:none"
             d="m 474.25591,770.23769 c -0.191,0.19104 -0.28771,0.43972 -0.28771,0.69009 l -2.7e-4,2.6e-4 c 0,0.25037 0.0967,0.50168 0.28772,0.69272 8.06132,8.06132 4.18137,4.19136 12.25068,12.24542 4.57204,4.57207 12.01503,4.56946 16.58715,-0.003 4.57204,-4.57208 4.57204,-12.01219 0,-16.58426 -8.05482,-8.06865 -4.18527,-4.18828 -12.24516,-12.25094 -0.3821,-0.38201 -1.00098,-0.38175 -1.38307,2.6e-4 z m 6.07642,-0.46734 8.66584,-8.66584 c 0.5761,-0.5761 1.50365,-0.5761 2.07974,0 0.5761,0.5761 0.5761,1.50364 0,2.07974 l -8.66584,8.66584 c -0.5761,0.5761 -1.50364,0.5761 -2.07974,0 -0.57609,-0.5761 -0.57609,-1.50364 0,-2.07974 z m 4.42484,4.42484 8.66584,-8.66584 c 0.5761,-0.5761 1.5039,-0.57584 2.08,2.6e-4 0.5761,0.5761 0.5761,1.50364 0,2.07974 l -8.66584,8.66584 c -0.5761,0.57609 -1.50364,0.57609 -2.07974,0 -0.57609,-0.5761 -0.57636,-1.50391 -2.6e-4,-2.08 z m 11.3381,-1.99138 c 0.8235,-0.82496 2.15994,-0.82456 2.98364,2.7e-4 0.82304,0.82317 0.82306,2.15757 0,2.98075 -0.35852,0.35869 -0.83409,0.5762 -1.33994,0.6125 -0.61078,0.0443 -1.21083,-0.17909 -1.6437,-0.61224 -0.82302,-0.82318 -0.82305,-2.1581 0,-2.98128 z m -4.66416,4.66574 c 0.82321,-0.82303 2.15805,-0.82304 2.98127,0 0.82303,0.82318 0.82276,2.15781 -2.6e-4,2.98101 -0.35856,0.35869 -0.83432,0.57595 -1.3402,0.61225 -0.60979,0.0434 -1.20835,-0.17988 -1.64055,-0.61225 -0.82305,-0.82321 -0.82329,-2.15781 -2.6e-4,-2.98101 z" />
          <g
             id="g63"
             transform="matrix(0.69179463,-0.69179463,0.69179463,0.69179463,-378.09795,573.44402)">
            <path
               style="color:#000000;fill:#000000;stroke-linecap:round;stroke-linejoin:round;stroke-dashoffset:6.38929;-inkscape-stroke:none"
               d="m 484.80273,739.32617 c -4.57036,0 -9.14045,1.55851 -12.85546,4.67578 a 1,1 0 0 0 -0.12305,1.40821 1,1 0 0 0 1.4082,0.12304 c 6.6967,-5.61919 16.44393,-5.61919 23.14063,0 a 1,1 0 0 0 1.41015,-0.12304 1,1 0 0 0 -0.125,-1.40821 c -3.71501,-3.11727 -8.2851,-4.67578 -12.85547,-4.67578 z"
               id="path59" />
            <path
               style="color:#000000;fill:#000000;stroke-linecap:round;stroke-linejoin:round;stroke-dashoffset:6.38929;-inkscape-stroke:none"
               d="m 484.80273,743.32617 c -3.65654,0 -7.31169,1.24685 -10.2832,3.74024 a 1,1 0 0 0 -0.125,1.4082 1,1 0 0 0 1.41016,0.12305 c 5.20967,-4.37144 12.78837,-4.37144 17.99804,0 a 1,1 0 0 0 1.40821,-0.12305 1,1 0 0 0 -0.12305,-1.4082 c -2.97151,-2.49339 -6.62861,-3.74024 -10.28516,-3.74024 z"
               id="path60" />
            <path
               style="color:#000000;fill:#000000;stroke-linecap:round;stroke-linejoin:round;stroke-dashoffset:6.38929;-inkscape-stroke:none"
               d="m 484.80273,747.32617 c -2.74272,0 -5.48489,0.93323 -7.71289,2.80274 a 1,1 0 0 0 -0.12304,1.41015 1,1 0 0 0 1.4082,0.12305 c 3.72265,-3.12367 9.13282,-3.12367 12.85547,0 a 1,1 0 0 0 1.41015,-0.12305 1,1 0 0 0 -0.12304,-1.41015 c -2.228,-1.86951 -4.97212,-2.80274 -7.71485,-2.80274 z"
               id="path61" />
            <path
               style="color:#000000;fill:#000000;stroke-linecap:round;stroke-linejoin:round;stroke-dashoffset:6.38929;-inkscape-stroke:none"
               d="m 484.80273,751.32617 c -1.8289,0 -3.65809,0.62156 -5.14257,1.86719 a 1,1 0 0 0 -0.12305,1.41016 1,1 0 0 0 1.41016,0.12304 c 2.23562,-1.87591 5.47726,-1.87591 7.71289,0 a 1,1 0 0 0 1.4082,-0.12304 1,1 0 0 0 -0.12305,-1.41016 c -1.48448,-1.24563 -3.31367,-1.86719 -5.14258,-1.86719 z"
               id="path62" />
          </g>
        </g>
      </g>
    </g>
  </g>
</svg>
