<?xml version="1.0" encoding="UTF-8" standalone="no"?>
<svg
   xmlns:dc="http://purl.org/dc/elements/1.1/"
   xmlns:cc="http://creativecommons.org/ns#"
   xmlns:rdf="http://www.w3.org/1999/02/22-rdf-syntax-ns#"
   xmlns:svg="http://www.w3.org/2000/svg"
   xmlns="http://www.w3.org/2000/svg"
   xmlns:sodipodi="http://sodipodi.sourceforge.net/DTD/sodipodi-0.dtd"
   xmlns:inkscape="http://www.inkscape.org/namespaces/inkscape"
   width="9.375mm"
   height="9.375mm"
   viewBox="0 0 9.375 9.375"
   version="1.1"
   id="svg2478"
   inkscape:version="1.0.2-2 (e86c870879, 2021-01-15)"
   sodipodi:docname="wahrnehmungsbereich.svg">
  <defs
     id="defs2472" />
  <sodipodi:namedview
     id="base"
     pagecolor="#ffffff"
     bordercolor="#666666"
     borderopacity="1.0"
     inkscape:pageopacity="0.0"
     inkscape:pageshadow="2"
     inkscape:zoom="2.8"
     inkscape:cx="0.43936584"
     inkscape:cy="34.168185"
     inkscape:document-units="mm"
     inkscape:current-layer="layer1"
     inkscape:document-rotation="0"
     showgrid="false"
     fit-margin-top="0"
     fit-margin-left="0"
     fit-margin-right="0"
     fit-margin-bottom="0"
     inkscape:window-width="1920"
     inkscape:window-height="1057"
     inkscape:window-x="-8"
     inkscape:window-y="-8"
     inkscape:window-maximized="1" />
  <metadata
     id="metadata2475">
    <rdf:RDF>
      <cc:Work
         rdf:about="">
        <dc:format>image/svg+xml</dc:format>
        <dc:type
           rdf:resource="http://purl.org/dc/dcmitype/StillImage" />
        <dc:title></dc:title>
      </cc:Work>
    </rdf:RDF>
  </metadata>
  <g
     inkscape:label="Ebene 1"
     inkscape:groupmode="layer"
     id="layer1"
     transform="translate(-101.14583,-143.47917)">
    <g
       id="g3212"
       transform="matrix(0.26458333,0,0,0.26458333,18.877996,64.903828)"
       inkscape:export-filename="C:\Dokumente und Einstellungen\Charon\Eigene Dateien\Dropbox\Projekt Tesserakt\Symbole\eye.png"
       inkscape:export-xdpi="381"
       inkscape:export-ydpi="381">
      <rect
         y="296.97766"
         x="310.93356"
         height="35.433071"
         width="35.433071"
         id="rect3239"
         style="fill:none" />
      <path
         inkscape:connector-curvature="0"
         d="m 311.792,314.69421 q 0.19756,-1.6463 2.17312,-3.68771 2.63407,-2.69992 5.92667,-4.34622 4.34622,-2.04141 8.7583,-2.04141 4.60963,0.0659 8.7583,2.04141 3.49016,1.778 5.92667,4.34622 2.17312,2.43652 2.17312,3.68771 -0.19756,1.6463 -2.17312,3.68771 -2.63407,2.69992 -5.92667,4.34622 -4.34622,2.04141 -8.7583,2.04141 -4.60963,-0.0658 -8.7583,-2.04141 -3.49016,-1.778 -5.92667,-4.34622 -2.17312,-2.43652 -2.17312,-3.68771 z m 8.89001,0 q 0,3.16089 2.33776,5.36691 2.33776,2.20603 5.63035,2.20603 3.2926,0 5.63036,-2.20603 2.33776,-2.20602 2.33776,-5.36691 0,-3.16089 -2.33776,-5.36691 -2.33776,-2.20603 -5.63036,-2.20603 -3.29259,0 -5.63035,2.20603 -2.33776,2.20602 -2.33776,5.36691 z m 2.89749,-0.0329 q 0,-2.0085 1.48168,-3.4243 1.48169,-1.41579 3.58894,-1.41579 2.10726,0 3.58895,1.41579 1.48168,1.4158 1.48168,3.4243 0,2.0085 -1.48168,3.45721 -1.48169,1.44871 -3.58895,1.44874 -2.10725,3e-5 -3.58894,-1.44874 -1.48168,-1.44878 -1.48168,-3.45721 z"
         id="path3203" />
    </g>
  </g>
</svg>
