<?xml version="1.0" encoding="UTF-8" standalone="no"?>
<svg
   width="50mm"
   height="50mm"
   viewBox="0 0 50 50"
   version="1.1"
   id="svg8"
   inkscape:version="1.3 (0e150ed6c4, 2023-07-21)"
   sodipodi:docname="klein.svg"
   xmlns:inkscape="http://www.inkscape.org/namespaces/inkscape"
   xmlns:sodipodi="http://sodipodi.sourceforge.net/DTD/sodipodi-0.dtd"
   xmlns="http://www.w3.org/2000/svg"
   xmlns:svg="http://www.w3.org/2000/svg"
   xmlns:rdf="http://www.w3.org/1999/02/22-rdf-syntax-ns#"
   xmlns:cc="http://creativecommons.org/ns#"
   xmlns:dc="http://purl.org/dc/elements/1.1/">
  <defs
     id="defs2" />
  <sodipodi:namedview
     id="base"
     pagecolor="#ffffff"
     bordercolor="#666666"
     borderopacity="1.0"
     inkscape:pageopacity="0.0"
     inkscape:pageshadow="2"
     inkscape:zoom="0.98994949"
     inkscape:cx="-166.67517"
     inkscape:cy="100.51018"
     inkscape:document-units="mm"
     inkscape:current-layer="layer1"
     showgrid="false"
     inkscape:window-width="1920"
     inkscape:window-height="1009"
     inkscape:window-x="1912"
     inkscape:window-y="-8"
     inkscape:window-maximized="1"
     inkscape:document-rotation="0"
     inkscape:showpageshadow="2"
     inkscape:pagecheckerboard="0"
     inkscape:deskcolor="#d1d1d1" />
  <metadata
     id="metadata5">
    <rdf:RDF>
      <cc:Work
         rdf:about="">
        <dc:format>image/svg+xml</dc:format>
        <dc:type
           rdf:resource="http://purl.org/dc/dcmitype/StillImage" />
        <dc:title />
      </cc:Work>
    </rdf:RDF>
  </metadata>
  <g
     inkscape:label="Ebene 1"
     inkscape:groupmode="layer"
     id="layer1"
     transform="translate(0,-247)">
    <circle
       style="opacity:1;fill:none;fill-opacity:1;stroke:#000000;stroke-width:4.03575516;stroke-miterlimit:4;stroke-dasharray:none;stroke-opacity:1"
       id="path815"
       cx="25"
       cy="271.99997"
       r="22.982122" />
    <path
       style="font-size:28.2222px;line-height:1.25;font-family:'Nova Round';-inkscape-font-specification:'Nova Round, Normal';letter-spacing:0px;word-spacing:0px;stroke-width:0.264583"
       d="m 31.952192,275.89984 q 0,2.8112 -1.84657,4.78179 -1.887911,1.99815 -5.098738,1.99815 -3.210826,0 -5.098737,-1.99815 -1.86035,-1.97059 -1.86035,-4.61643 l 2.61827,-1.24023 h 0.137804 v 1.12999 q 0,1.68121 0.992187,2.82498 1.226453,1.41938 3.210826,1.41938 1.970593,0 3.210827,-1.41938 0.978406,-1.11621 0.978406,-2.85254 0,-1.63986 -0.799261,-2.57693 -1.10243,-1.29535 -3.389972,-1.29535 -2.508027,0 -4.340817,-1.65365 -1.378037,-1.24023 -1.378037,-3.59668 0,-2.76985 1.708766,-4.16167 1.626084,-1.32291 4.010088,-1.32291 2.384005,0 4.010088,1.32291 1.708766,1.39182 1.708766,3.81717 l -2.61827,1.24023 h -0.137804 v -1.10243 q 0,-1.57096 -0.895724,-2.34266 -0.868163,-0.75792 -2.067056,-0.75792 -1.336696,0 -2.149738,0.8406 -0.813041,0.8406 -0.813041,2.25998 0,1.36426 0.620116,2.05327 0.826823,0.92329 2.342663,0.92329 3.33485,0 5.098738,1.57096 1.84657,1.63987 1.84657,4.75423 z"
       id="text819"
       aria-label="S" />
  </g>
</svg>
