<?xml version="1.0" encoding="UTF-8" standalone="no"?>
<svg
   width="50mm"
   height="50mm"
   viewBox="0 0 50 50"
   version="1.1"
   id="svg8"
   inkscape:version="1.4.3 (0d15f75, 2025-12-25)"
   sodipodi:docname="klein.svg"
   inkscape:export-filename="klein.png"
   inkscape:export-xdpi="96"
   inkscape:export-ydpi="96"
   xmlns:inkscape="http://www.inkscape.org/namespaces/inkscape"
   xmlns:sodipodi="http://sodipodi.sourceforge.net/DTD/sodipodi-0.dtd"
   xmlns="http://www.w3.org/2000/svg"
   xmlns:svg="http://www.w3.org/2000/svg"
   xmlns:rdf="http://www.w3.org/1999/02/22-rdf-syntax-ns#"
   xmlns:cc="http://creativecommons.org/ns#"
   xmlns:dc="http://purl.org/dc/elements/1.1/">
  <defs
     id="defs2" />
  <sodipodi:namedview
     id="base"
     pagecolor="#ffffff"
     bordercolor="#666666"
     borderopacity="1.0"
     inkscape:pageopacity="0.0"
     inkscape:pageshadow="2"
     inkscape:zoom="1.979899"
     inkscape:cx="18.94036"
     inkscape:cy="86.62058"
     inkscape:document-units="mm"
     inkscape:current-layer="layer1"
     showgrid="false"
     inkscape:window-width="2560"
     inkscape:window-height="1369"
     inkscape:window-x="2552"
     inkscape:window-y="-8"
     inkscape:window-maximized="1"
     inkscape:document-rotation="0"
     inkscape:showpageshadow="2"
     inkscape:pagecheckerboard="0"
     inkscape:deskcolor="#d1d1d1" />
  <metadata
     id="metadata5">
    <rdf:RDF>
      <cc:Work
         rdf:about="">
        <dc:format>image/svg+xml</dc:format>
        <dc:type
           rdf:resource="http://purl.org/dc/dcmitype/StillImage" />
        <dc:title />
      </cc:Work>
    </rdf:RDF>
  </metadata>
  <g
     inkscape:label="Ebene 1"
     inkscape:groupmode="layer"
     id="layer1"
     transform="translate(0,-247)">
    <rect
       style="fill:#000000;stroke:none;stroke-width:1;stroke-linecap:round;stroke-linejoin:round;paint-order:markers stroke fill"
       id="rect1"
       width="41.577381"
       height="41.577381"
       x="4.2113094"
       y="251.2113"
       ry="4.3467264" />
    <path
       d="m 16.854829,276.75807 3.06452,-1.45162 h 0.16129 v 3.87097 q 0,1.11291 1.951615,1.8871 1.354841,0.53226 2.967746,0.53226 1.612905,0 2.967746,-0.53226 1.951615,-0.77419 1.951615,-1.8871 v -4.69355 q 0,-1.12903 -1.951615,-1.8871 Q 26.612905,272.06451 25,272.06451 q -2.04839,0 -3.677424,-0.62903 -3.016133,-1.19355 -3.016133,-3.32259 v -4.66129 q 0,-2.1613 3.016133,-3.32259 1.629034,-0.62903 3.677424,-0.62903 2.04839,0 3.677424,0.62903 3.016133,1.19355 3.016133,3.32259 v 2.06452 l -3.06452,1.45161 h -0.161291 v -2.95162 q 0,-0.80645 -1.01613,-1.20968 Q 26.451615,262.40321 25,262.40321 q -1.451615,0 -2.467745,0.40322 -1.000001,0.40323 -1.000001,1.20968 v 3.53227 q 0,0.80645 1.000001,1.20968 1.01613,0.40322 2.467745,0.40322 2.435487,0 4.483877,0.85484 3.661294,1.51613 3.661294,4.46775 v 4.69355 q 0,2.93549 -3.661294,4.46775 -2.04839,0.85484 -4.483877,0.85484 -2.435487,0 -4.483877,-0.85484 -3.661294,-1.51613 -3.661294,-4.46775 z"
       id="text1"
       style="font-size:33.0323px;line-height:1;font-family:'Nova Flat';-inkscape-font-specification:'Nova Flat, Normal';text-align:center;letter-spacing:-2.75269px;word-spacing:5.50536px;text-anchor:middle;fill:#ffffff;stroke-width:1.265;stroke-linecap:round;stroke-linejoin:round;paint-order:markers stroke fill"
       aria-label="S" />
  </g>
</svg>
