<?xml version="1.0" encoding="UTF-8" standalone="no"?>
<svg
   width="50mm"
   height="50mm"
   viewBox="0 0 50 50"
   version="1.1"
   id="svg8"
   inkscape:version="1.3.2 (091e20e, 2023-11-25, custom)"
   sodipodi:docname="klein.svg"
   inkscape:export-filename="klein.png"
   inkscape:export-xdpi="96"
   inkscape:export-ydpi="96"
   xmlns:inkscape="http://www.inkscape.org/namespaces/inkscape"
   xmlns:sodipodi="http://sodipodi.sourceforge.net/DTD/sodipodi-0.dtd"
   xmlns="http://www.w3.org/2000/svg"
   xmlns:svg="http://www.w3.org/2000/svg"
   xmlns:rdf="http://www.w3.org/1999/02/22-rdf-syntax-ns#"
   xmlns:cc="http://creativecommons.org/ns#"
   xmlns:dc="http://purl.org/dc/elements/1.1/">
  <defs
     id="defs2" />
  <sodipodi:namedview
     id="base"
     pagecolor="#ffffff"
     bordercolor="#666666"
     borderopacity="1.0"
     inkscape:pageopacity="0.0"
     inkscape:pageshadow="2"
     inkscape:zoom="1.979899"
     inkscape:cx="17.677669"
     inkscape:cy="86.62058"
     inkscape:document-units="mm"
     inkscape:current-layer="layer1"
     showgrid="false"
     inkscape:window-width="2560"
     inkscape:window-height="1369"
     inkscape:window-x="2552"
     inkscape:window-y="-8"
     inkscape:window-maximized="1"
     inkscape:document-rotation="0"
     inkscape:showpageshadow="2"
     inkscape:pagecheckerboard="0"
     inkscape:deskcolor="#d1d1d1" />
  <metadata
     id="metadata5">
    <rdf:RDF>
      <cc:Work
         rdf:about="">
        <dc:format>image/svg+xml</dc:format>
        <dc:type
           rdf:resource="http://purl.org/dc/dcmitype/StillImage" />
        <dc:title />
      </cc:Work>
    </rdf:RDF>
  </metadata>
  <g
     inkscape:label="Ebene 1"
     inkscape:groupmode="layer"
     id="layer1"
     transform="translate(0,-247)">
    <rect
       style="fill:#000000;stroke:none;stroke-width:1;stroke-linecap:round;stroke-linejoin:round;paint-order:markers stroke fill"
       id="rect1"
       width="41.577381"
       height="41.577381"
       x="4.2113094"
       y="251.2113"
       ry="4.3467264" />
    <path
       style="fill:#ffffff;stroke-width:0.309677"
       d="m 33.137099,276.56452 q 0,3.29033 -2.161291,5.59677 Q 28.76613,284.5 25.008064,284.5 q -3.758065,0 -5.967743,-2.33871 -2.17742,-2.30644 -2.17742,-5.40323 l 3.064516,-1.45161 h 0.161291 v 1.32258 q 0,1.96775 1.161291,3.30646 1.435484,1.66129 3.758065,1.66129 2.306452,0 3.758066,-1.66129 1.145161,-1.30645 1.145161,-3.33872 0,-1.91935 -0.935483,-3.01613 -1.290324,-1.51612 -3.967744,-1.51612 -2.935484,0 -5.080647,-1.93549 -1.612903,-1.45161 -1.612903,-4.20968 0,-3.24193 2,-4.87097 1.903227,-1.54838 4.69355,-1.54838 2.790324,0 4.693549,1.54838 2.000001,1.62904 2.000001,4.46775 l -3.064516,1.45161 h -0.161291 v -1.29032 q 0,-1.83871 -1.048387,-2.74193 -1.016129,-0.8871 -2.419356,-0.8871 -1.564517,0 -2.51613,0.98387 -0.951612,0.98387 -0.951612,2.64516 0,1.59678 0.725806,2.40322 0.967743,1.08065 2.741936,1.08065 3.903227,0 5.967744,1.83871 2.161291,1.91936 2.161291,5.56452 z"
       id="text819"
       aria-label="S" />
  </g>
</svg>
