<?xml version="1.0" encoding="UTF-8" standalone="no"?>
<svg
   width="50mm"
   height="50mm"
   viewBox="0 0 50 50"
   version="1.1"
   id="svg8"
   inkscape:version="1.4.3 (0d15f75, 2025-12-25)"
   sodipodi:docname="mittel.svg"
   inkscape:export-filename="mittel.png"
   inkscape:export-xdpi="96"
   inkscape:export-ydpi="96"
   xmlns:inkscape="http://www.inkscape.org/namespaces/inkscape"
   xmlns:sodipodi="http://sodipodi.sourceforge.net/DTD/sodipodi-0.dtd"
   xmlns="http://www.w3.org/2000/svg"
   xmlns:svg="http://www.w3.org/2000/svg"
   xmlns:rdf="http://www.w3.org/1999/02/22-rdf-syntax-ns#"
   xmlns:cc="http://creativecommons.org/ns#"
   xmlns:dc="http://purl.org/dc/elements/1.1/">
  <defs
     id="defs2" />
  <sodipodi:namedview
     id="base"
     pagecolor="#ffffff"
     bordercolor="#666666"
     borderopacity="1.0"
     inkscape:pageopacity="0.0"
     inkscape:pageshadow="2"
     inkscape:zoom="2.8"
     inkscape:cx="3.75"
     inkscape:cy="151.60714"
     inkscape:document-units="mm"
     inkscape:current-layer="layer1"
     showgrid="false"
     inkscape:window-width="2560"
     inkscape:window-height="1369"
     inkscape:window-x="-8"
     inkscape:window-y="-8"
     inkscape:window-maximized="1"
     inkscape:document-rotation="0"
     inkscape:showpageshadow="2"
     inkscape:pagecheckerboard="0"
     inkscape:deskcolor="#d1d1d1" />
  <metadata
     id="metadata5">
    <rdf:RDF>
      <cc:Work
         rdf:about="">
        <dc:format>image/svg+xml</dc:format>
        <dc:type
           rdf:resource="http://purl.org/dc/dcmitype/StillImage" />
        <dc:title />
      </cc:Work>
    </rdf:RDF>
  </metadata>
  <g
     inkscape:label="Ebene 1"
     inkscape:groupmode="layer"
     id="layer1"
     transform="translate(0,-247)">
    <rect
       style="fill:#000000;stroke:none;stroke-width:1;stroke-linecap:round;stroke-linejoin:round;paint-order:markers stroke fill"
       id="rect1"
       width="41.577381"
       height="41.577381"
       x="4.2113094"
       y="251.2113"
       ry="4.3467264" />
    <path
       d="m 10.509539,284.50001 v -19.74524 q 0,-2.91402 3.614653,-4.41084 2.022295,-0.84395 4.426757,-0.84395 2.420384,0 4.426756,0.84395 1.210192,0.50956 2.022295,1.16243 0.812103,-0.65287 2.022295,-1.16243 2.006372,-0.84395 4.426756,-0.84395 2.404462,0 4.426757,0.84395 3.614653,1.49682 3.614653,4.41084 v 18.31212 l -3.025481,1.43312 h -0.159235 v -19.74524 q 0,-1.09873 -1.926754,-1.86306 -1.337581,-0.52548 -2.92994,-0.52548 -1.592358,0 -2.929939,0.52548 -1.926754,0.76433 -1.926754,1.86306 v 18.31212 l -3.025481,1.43312 h -0.159235 v -19.74524 q 0,-1.09873 -1.926754,-1.86306 -1.337581,-0.52548 -2.929939,-0.52548 -1.592359,0 -2.92994,0.52548 -1.926754,0.76433 -1.926754,1.86306 v 18.31212 l -3.02548,1.43312 z"
       id="text1"
       style="font-size:32.6115px;line-height:1;font-family:'Nova Flat';-inkscape-font-specification:'Nova Flat, Normal';text-align:center;letter-spacing:-2.71762px;word-spacing:5.43523px;text-anchor:middle;fill:#ffffff;stroke-width:1.265;stroke-linecap:round;stroke-linejoin:round;paint-order:markers stroke fill"
       aria-label="M" />
  </g>
</svg>
