<?xml version="1.0" encoding="UTF-8" standalone="no"?>
<svg
   width="50mm"
   height="50mm"
   viewBox="0 0 50 50"
   version="1.1"
   id="svg8"
   inkscape:version="1.3.2 (091e20e, 2023-11-25, custom)"
   sodipodi:docname="mittel.svg"
   inkscape:export-filename="mittel.png"
   inkscape:export-xdpi="96"
   inkscape:export-ydpi="96"
   xmlns:inkscape="http://www.inkscape.org/namespaces/inkscape"
   xmlns:sodipodi="http://sodipodi.sourceforge.net/DTD/sodipodi-0.dtd"
   xmlns="http://www.w3.org/2000/svg"
   xmlns:svg="http://www.w3.org/2000/svg"
   xmlns:rdf="http://www.w3.org/1999/02/22-rdf-syntax-ns#"
   xmlns:cc="http://creativecommons.org/ns#"
   xmlns:dc="http://purl.org/dc/elements/1.1/">
  <defs
     id="defs2" />
  <sodipodi:namedview
     id="base"
     pagecolor="#ffffff"
     bordercolor="#666666"
     borderopacity="1.0"
     inkscape:pageopacity="0.0"
     inkscape:pageshadow="2"
     inkscape:zoom="2.8"
     inkscape:cx="3.9285714"
     inkscape:cy="151.60714"
     inkscape:document-units="mm"
     inkscape:current-layer="layer1"
     showgrid="false"
     inkscape:window-width="2560"
     inkscape:window-height="1369"
     inkscape:window-x="2552"
     inkscape:window-y="-8"
     inkscape:window-maximized="1"
     inkscape:document-rotation="0"
     inkscape:showpageshadow="2"
     inkscape:pagecheckerboard="0"
     inkscape:deskcolor="#d1d1d1" />
  <metadata
     id="metadata5">
    <rdf:RDF>
      <cc:Work
         rdf:about="">
        <dc:format>image/svg+xml</dc:format>
        <dc:type
           rdf:resource="http://purl.org/dc/dcmitype/StillImage" />
        <dc:title />
      </cc:Work>
    </rdf:RDF>
  </metadata>
  <g
     inkscape:label="Ebene 1"
     inkscape:groupmode="layer"
     id="layer1"
     transform="translate(0,-247)">
    <path
       style="color:#000000;fill:#000000;-inkscape-stroke:none"
       d="m 25,247 c -13.783204,0 -25,11.2168 -25,25 0,13.7832 11.216796,25 25,25 13.783204,0 25,-11.2168 25,-25 0,-13.7832 -11.216796,-25 -25,-25 z"
       id="path815"
       sodipodi:nodetypes="sssss" />
    <path
       style="fill:#ffffff;stroke-width:0.305732"
       d="m 10.509553,284.5 v -17.03821 q 0,-3.43949 2.149682,-5.65288 2.261146,-2.30891 5.89172,-2.30891 3.280256,0 5.589171,2.30891 0.57325,0.57326 0.859874,1.11466 0.366241,-0.55732 0.891719,-1.06689 2.40446,-2.35668 5.557326,-2.35668 3.566879,0 5.89172,2.30891 2.149682,2.13376 2.149682,5.65288 v 15.60509 L 36.464969,284.5 h -0.159236 v -17.03821 q 0,-2.13376 -1.146497,-3.45543 -1.417198,-1.64011 -3.710191,-1.64011 -2.292995,0 -3.710192,1.64011 -1.146496,1.32167 -1.146496,3.45543 v 15.60509 L 23.566878,284.5 h -0.159236 v -17.03821 q 0,-2.13376 -1.146496,-3.45543 -1.417198,-1.64011 -3.710192,-1.64011 -2.292994,0 -3.710191,1.64011 -1.146497,1.32167 -1.146497,3.45543 v 15.60509 L 10.668787,284.5 Z"
       id="text819"
       aria-label="M" />
  </g>
</svg>
