<?xml version="1.0" encoding="UTF-8" standalone="no"?>
<svg
   width="50mm"
   height="50mm"
   viewBox="0 0 50 50"
   version="1.1"
   id="svg8"
   inkscape:version="1.3 (0e150ed6c4, 2023-07-21)"
   sodipodi:docname="mittel.svg"
   xmlns:inkscape="http://www.inkscape.org/namespaces/inkscape"
   xmlns:sodipodi="http://sodipodi.sourceforge.net/DTD/sodipodi-0.dtd"
   xmlns="http://www.w3.org/2000/svg"
   xmlns:svg="http://www.w3.org/2000/svg"
   xmlns:rdf="http://www.w3.org/1999/02/22-rdf-syntax-ns#"
   xmlns:cc="http://creativecommons.org/ns#"
   xmlns:dc="http://purl.org/dc/elements/1.1/">
  <defs
     id="defs2" />
  <sodipodi:namedview
     id="base"
     pagecolor="#ffffff"
     bordercolor="#666666"
     borderopacity="1.0"
     inkscape:pageopacity="0.0"
     inkscape:pageshadow="2"
     inkscape:zoom="0.98994949"
     inkscape:cx="-166.67517"
     inkscape:cy="100.51018"
     inkscape:document-units="mm"
     inkscape:current-layer="layer1"
     showgrid="false"
     inkscape:window-width="1920"
     inkscape:window-height="1009"
     inkscape:window-x="1912"
     inkscape:window-y="-8"
     inkscape:window-maximized="1"
     inkscape:document-rotation="0"
     inkscape:showpageshadow="2"
     inkscape:pagecheckerboard="0"
     inkscape:deskcolor="#d1d1d1" />
  <metadata
     id="metadata5">
    <rdf:RDF>
      <cc:Work
         rdf:about="">
        <dc:format>image/svg+xml</dc:format>
        <dc:type
           rdf:resource="http://purl.org/dc/dcmitype/StillImage" />
        <dc:title />
      </cc:Work>
    </rdf:RDF>
  </metadata>
  <g
     inkscape:label="Ebene 1"
     inkscape:groupmode="layer"
     id="layer1"
     transform="translate(0,-247)">
    <circle
       style="opacity:1;fill:none;fill-opacity:1;stroke:#000000;stroke-width:4.03575516;stroke-miterlimit:4;stroke-dasharray:none;stroke-opacity:1"
       id="path815"
       cx="25"
       cy="271.99997"
       r="22.982122" />
    <path
       style="font-size:28.2222px;line-height:1.25;font-family:'Nova Round';-inkscape-font-specification:'Nova Round, Normal';letter-spacing:0px;word-spacing:0px;stroke-width:0.264583"
       d="m 12.459851,282.8176 v -14.74499 q 0,-2.97656 1.86035,-4.89204 1.956812,-1.99815 5.098737,-1.99815 2.838757,0 4.83691,1.99815 0.496094,0.4961 0.74414,0.96463 0.316949,-0.48231 0.771701,-0.92329 2.080836,-2.03949 4.80935,-2.03949 3.086803,0 5.098737,1.99815 1.86035,1.84657 1.86035,4.89204 v 13.50476 l -2.61827,1.24023 h -0.137804 v -14.74499 q 0,-1.84657 -0.992187,-2.99035 -1.226453,-1.41937 -3.210826,-1.41937 -1.984374,0 -3.210827,1.41937 -0.992186,1.14378 -0.992186,2.99035 v 13.50476 l -2.618271,1.24023 h -0.137804 v -14.74499 q 0,-1.84657 -0.992186,-2.99035 -1.226453,-1.41937 -3.210827,-1.41937 -1.984373,0 -3.210826,1.41937 -0.992187,1.14378 -0.992187,2.99035 v 13.50476 l -2.618271,1.24023 z"
       id="text819"
       aria-label="M" />
  </g>
</svg>
