<?xml version="1.0" encoding="UTF-8" standalone="no"?>
<svg
   width="50mm"
   height="50mm"
   viewBox="0 0 50 50"
   version="1.1"
   id="svg8"
   inkscape:version="1.3.2 (091e20e, 2023-11-25, custom)"
   sodipodi:docname="riesig.svg"
   inkscape:export-filename="riesig.png"
   inkscape:export-xdpi="96"
   inkscape:export-ydpi="96"
   xmlns:inkscape="http://www.inkscape.org/namespaces/inkscape"
   xmlns:sodipodi="http://sodipodi.sourceforge.net/DTD/sodipodi-0.dtd"
   xmlns="http://www.w3.org/2000/svg"
   xmlns:svg="http://www.w3.org/2000/svg"
   xmlns:rdf="http://www.w3.org/1999/02/22-rdf-syntax-ns#"
   xmlns:cc="http://creativecommons.org/ns#"
   xmlns:dc="http://purl.org/dc/elements/1.1/">
  <defs
     id="defs2" />
  <sodipodi:namedview
     id="base"
     pagecolor="#ffffff"
     bordercolor="#666666"
     borderopacity="1.0"
     inkscape:pageopacity="0.0"
     inkscape:pageshadow="2"
     inkscape:zoom="1.979899"
     inkscape:cx="145.96704"
     inkscape:cy="56.316004"
     inkscape:document-units="mm"
     inkscape:current-layer="layer1"
     showgrid="false"
     inkscape:window-width="2560"
     inkscape:window-height="1369"
     inkscape:window-x="2552"
     inkscape:window-y="-8"
     inkscape:window-maximized="1"
     inkscape:document-rotation="0"
     inkscape:showpageshadow="2"
     inkscape:pagecheckerboard="0"
     inkscape:deskcolor="#d1d1d1" />
  <metadata
     id="metadata5">
    <rdf:RDF>
      <cc:Work
         rdf:about="">
        <dc:format>image/svg+xml</dc:format>
        <dc:type
           rdf:resource="http://purl.org/dc/dcmitype/StillImage" />
        <dc:title />
      </cc:Work>
    </rdf:RDF>
  </metadata>
  <g
     inkscape:label="Ebene 1"
     inkscape:groupmode="layer"
     id="layer1"
     transform="translate(0,-247)">
    <path
       style="color:#000000;fill:#000000;-inkscape-stroke:none"
       d="m 25,247 c -13.783204,0 -25,11.2168 -25,25 0,13.7832 11.216796,25 25,25 13.783204,0 25,-11.2168 25,-25 0,-13.7832 -11.216796,-25 -25,-25 z"
       id="path815"
       sodipodi:nodetypes="sssss" />
    <path
       style="fill:#ffffff;stroke-width:0.301887"
       d="M 10.338051,284.5 7.602201,283.21069 14.237422,272.00001 7.602201,260.80503 10.353773,259.5 h 0.157233 l 5.566038,9.71698 5.566038,-9.71698 h 0.157232 l 2.751573,1.30503 -6.63522,11.19498 6.63522,11.21068 L 21.816038,284.5 H 21.658805 L 16.077044,274.78302 10.495282,284.5 Z m 18.144655,-0.62894 V 260.91509 L 31.470126,259.5 h 0.157233 v 21.50944 h 10.77044 v 0.15723 l -1.273584,2.70439 z"
       id="text819"
       aria-label="XL" />
  </g>
</svg>
