<?xml version="1.0" encoding="UTF-8" standalone="no"?>
<svg
   sodipodi:docname="gift.svg"
   inkscape:version="1.3.1 (91b66b0783, 2023-11-16)"
   id="svg8138"
   version="1.1"
   viewBox="0 0 10 10"
   height="10mm"
   width="10mm"
   xmlns:inkscape="http://www.inkscape.org/namespaces/inkscape"
   xmlns:sodipodi="http://sodipodi.sourceforge.net/DTD/sodipodi-0.dtd"
   xmlns="http://www.w3.org/2000/svg"
   xmlns:svg="http://www.w3.org/2000/svg"
   xmlns:rdf="http://www.w3.org/1999/02/22-rdf-syntax-ns#"
   xmlns:cc="http://creativecommons.org/ns#"
   xmlns:dc="http://purl.org/dc/elements/1.1/">
  <defs
     id="defs8132" />
  <sodipodi:namedview
     inkscape:document-rotation="0"
     fit-margin-bottom="0"
     fit-margin-right="0"
     fit-margin-left="0"
     fit-margin-top="0"
     inkscape:window-maximized="1"
     inkscape:window-y="-8"
     inkscape:window-x="1912"
     inkscape:window-height="1009"
     inkscape:window-width="1920"
     showgrid="false"
     inkscape:current-layer="layer1"
     inkscape:document-units="mm"
     inkscape:cy="30.223214"
     inkscape:cx="-2.6339286"
     inkscape:zoom="11.2"
     inkscape:pageshadow="2"
     inkscape:pageopacity="0.0"
     borderopacity="1.0"
     bordercolor="#666666"
     pagecolor="#ffffff"
     id="base"
     inkscape:pagecheckerboard="0"
     inkscape:showpageshadow="2"
     inkscape:deskcolor="#d1d1d1" />
  <metadata
     id="metadata8135">
    <rdf:RDF>
      <cc:Work
         rdf:about="">
        <dc:format>image/svg+xml</dc:format>
        <dc:type
           rdf:resource="http://purl.org/dc/dcmitype/StillImage" />
      </cc:Work>
    </rdf:RDF>
  </metadata>
  <g
     transform="translate(-165.31852,-138.69041)"
     id="layer1"
     inkscape:groupmode="layer"
     inkscape:label="Ebene 1">
    <rect
       style="fill:#3a6351;fill-opacity:1;stroke:none;stroke-width:0.0529167;stroke-linecap:round"
       id="rect3112"
       width="10"
       height="10"
       x="165.31853"
       y="138.69041" />
    <path
       id="path100"
       style="opacity:0.996;fill:#000000;stroke:none;stroke-width:0.317632"
       d="m 169.07462,139.85521 c -0.0248,0 -0.0449,0.0195 -0.0449,0.0444 v 0.65643 c 0,0.0248 0.0201,0.0449 0.0449,0.0449 h 0.34172 v 0.71917 h -0.85568 c -0.20658,-1e-5 -0.37288,0.16632 -0.37288,0.37288 v 5.45979 c 0,0.20658 0.1663,0.37288 0.37288,0.37288 h 3.51572 c 0.20658,0 0.37288,-0.1663 0.37288,-0.37288 v -5.45973 c 0,-0.20656 -0.1663,-0.37287 -0.37288,-0.37287 h -0.85614 V 140.601 h 0.34218 c 0.0248,0 0.0448,-0.02 0.0448,-0.0449 v -0.65642 c 0,-0.0248 -0.02,-0.0444 -0.0448,-0.0444 h -0.7146 -1.0586 z m 1.24367,3.2931 c 0.73575,0 1.33255,0.52711 1.33255,1.17771 v 0.42602 c 0,0.28545 -0.0982,0.51533 -0.42098,0.51533 h -0.18827 v 0.11589 0.25744 c 0,0.0312 -0.0252,0.0564 -0.0564,0.0564 h -0.1814 c -0.0312,0 -0.0564,-0.0252 -0.0564,-0.0564 v -0.13971 h -0.0898 v 0.13971 c 0,0.0312 -0.0251,0.0564 -0.0564,0.0564 h -0.18186 c -0.0311,0 -0.0559,-0.0252 -0.0559,-0.0564 v -0.13971 h -0.0902 v 0.13971 c 0,0.0312 -0.0252,0.0564 -0.0564,0.0564 h -0.1814 c -0.0313,0 -0.0564,-0.0252 -0.0564,-0.0564 v -0.13971 h -0.0898 v 0.13971 c 0,0.0312 -0.0251,0.0564 -0.0564,0.0564 h -0.1814 c -0.0311,0 -0.0564,-0.0252 -0.0564,-0.0564 v -0.13971 -0.23362 h -0.18827 c -0.32279,0 -0.42098,-0.22988 -0.42098,-0.51533 v -0.42602 c 0,-0.6506 0.59635,-1.17771 1.33209,-1.17771 z m -0.50435,1.00364 a 0.25902928,0.36935024 60.880708 0 0 -0.22216,0.0664 0.25902928,0.36935024 60.880708 0 0 -0.18644,0.40722 0.25902928,0.36935024 60.880708 0 0 0.45259,0.0376 0.25902928,0.36935024 60.880708 0 0 0.18688,-0.40678 0.25902928,0.36935024 60.880708 0 0 -0.23087,-0.10444 z m 1.00916,0 a 0.36935024,0.25902928 29.119292 0 0 -0.23087,0.10445 0.36935024,0.25902928 29.119292 0 0 0.18643,0.40678 0.36935024,0.25902928 29.119292 0 0 0.45304,-0.0376 0.36935024,0.25902928 29.119292 0 0 -0.18644,-0.40722 0.36935024,0.25902928 29.119292 0 0 -0.22216,-0.0664 z m -0.50802,0.3376 c -0.0333,0.004 -0.0669,0.0753 -0.10948,0.21302 -0.088,0.28431 -0.0634,0.36462 0.11269,0.36462 0.17609,0 0.20119,-0.0803 0.11315,-0.36462 -0.0454,-0.14661 -0.0808,-0.21759 -0.11636,-0.21302 z m -1.3701,0.83325 c 0.0166,-6e-4 0.0336,0.002 0.0508,0.008 0.0919,0.0318 0.14039,0.13121 0.10857,0.22309 l -0.0256,0.0742 1.23954,0.42922 1.24001,-0.42922 -0.0256,-0.0742 c -0.0319,-0.0919 0.0167,-0.1913 0.10857,-0.22309 0.0919,-0.0318 0.17701,0.0398 0.22308,0.10858 0.0409,0.061 -0.01,0.15294 0.0137,0.21986 0.0231,0.067 0.11996,0.10812 0.12552,0.18141 0.006,0.0825 -0.0167,0.19174 -0.10857,0.22353 -0.0919,0.0319 -0.19173,-0.0167 -0.22354,-0.10855 l -0.0252,-0.0738 -0.91753,0.31746 0.91706,0.31745 0.0261,-0.0742 c 0.0318,-0.0919 0.13121,-0.14039 0.22308,-0.10857 0.0919,0.0318 0.11478,0.14102 0.10858,0.22354 -0.005,0.0733 -0.10193,0.11448 -0.12507,0.1814 -0.0232,0.067 0.0268,0.1588 -0.0141,0.21987 -0.0461,0.0687 -0.13119,0.1404 -0.22308,0.10857 -0.0919,-0.0319 -0.14039,-0.1312 -0.10856,-0.22309 l 0.0256,-0.0738 -1.23954,-0.4292 -1.24002,0.4292 0.0256,0.0738 c 0.0318,0.0919 -0.0167,0.1913 -0.10857,0.22309 -0.0919,0.0318 -0.17746,-0.0398 -0.22354,-0.10857 -0.0409,-0.0611 0.01,-0.15294 -0.0137,-0.21987 -0.0231,-0.067 -0.11951,-0.10811 -0.12507,-0.1814 -0.006,-0.0825 0.0167,-0.19173 0.10858,-0.22354 0.0919,-0.0318 0.19129,0.0167 0.22307,0.10857 l 0.0256,0.0742 0.91706,-0.31745 -0.91706,-0.31746 -0.0256,0.0738 c -0.0318,0.0919 -0.1312,0.14038 -0.22307,0.10855 -0.0919,-0.0318 -0.11478,-0.141 -0.10858,-0.22353 0.005,-0.0733 0.10192,-0.11448 0.12507,-0.18141 0.0231,-0.067 -0.0268,-0.15879 0.0141,-0.21986 0.0374,-0.0559 0.10051,-0.11376 0.17223,-0.11636 z" />
  </g>
</svg>
