<?xml version="1.0" encoding="UTF-8" standalone="no"?>
<svg
   sodipodi:docname="panik.svg"
   inkscape:version="1.3 (0e150ed6c4, 2023-07-21)"
   id="svg7547"
   version="1.1"
   viewBox="0 0 10 10"
   height="10mm"
   width="10mm"
   xmlns:inkscape="http://www.inkscape.org/namespaces/inkscape"
   xmlns:sodipodi="http://sodipodi.sourceforge.net/DTD/sodipodi-0.dtd"
   xmlns="http://www.w3.org/2000/svg"
   xmlns:svg="http://www.w3.org/2000/svg"
   xmlns:rdf="http://www.w3.org/1999/02/22-rdf-syntax-ns#"
   xmlns:cc="http://creativecommons.org/ns#"
   xmlns:dc="http://purl.org/dc/elements/1.1/">
  <defs
     id="defs7541" />
  <sodipodi:namedview
     inkscape:document-rotation="0"
     inkscape:window-maximized="1"
     inkscape:window-y="-8"
     inkscape:window-x="1912"
     inkscape:window-height="1009"
     inkscape:window-width="1920"
     fit-margin-bottom="0"
     fit-margin-right="0"
     fit-margin-left="0"
     fit-margin-top="0"
     showgrid="false"
     inkscape:current-layer="g32"
     inkscape:document-units="mm"
     inkscape:cy="46.625"
     inkscape:cx="65"
     inkscape:zoom="4"
     inkscape:pageshadow="2"
     inkscape:pageopacity="0.0"
     borderopacity="1.0"
     bordercolor="#666666"
     pagecolor="#ffffff"
     id="base"
     inkscape:pagecheckerboard="0"
     inkscape:showpageshadow="2"
     inkscape:deskcolor="#d1d1d1" />
  <metadata
     id="metadata7544">
    <rdf:RDF>
      <cc:Work
         rdf:about="">
        <dc:format>image/svg+xml</dc:format>
        <dc:type
           rdf:resource="http://purl.org/dc/dcmitype/StillImage" />
      </cc:Work>
    </rdf:RDF>
  </metadata>
  <g
     transform="translate(218.70529,132.31852)"
     id="layer1"
     inkscape:groupmode="layer"
     inkscape:label="Ebene 1">
    <g
       id="g213"
       transform="translate(-30.813246,0.13355977)">
      <rect
         style="fill:#000000;stroke:none;stroke-width:0.0529167;stroke-linecap:round"
         id="rect3112"
         width="10"
         height="10"
         x="-187.89204"
         y="-132.45207" />
      <g
         id="g33"
         transform="translate(-0.48543773,-19.008489)">
        <g
           id="g32"
           style="fill:#ff0000;fill-opacity:1"
           transform="matrix(0.87958497,0,0,0.87958497,-33.70118,-5.4691492)">
          <path
             style="fill:#ff0000;fill-opacity:1;stroke:none;stroke-width:0.0525;stroke-linecap:round;stroke-linejoin:round;stroke-miterlimit:4;stroke-dasharray:none;stroke-opacity:1"
             d="m -166.68071,-120.35994 c -0.39135,-0.10486 -0.79359,0.12737 -0.89845,0.51872 -0.10487,0.39134 0.12737,0.79359 0.51872,0.89846 0.39134,0.10487 0.79361,-0.12738 0.89846,-0.51873 0.10486,-0.39135 -0.12738,-0.7936 -0.51873,-0.89845 z"
             id="path18"
             inkscape:connector-curvature="0"
             sodipodi:nodetypes="ccccc" />
          <path
             id="path19"
             style="fill:#ff0000;fill-opacity:1;stroke:none;stroke-width:0.0323649;stroke-linecap:round;stroke-linejoin:round;stroke-miterlimit:4;stroke-dasharray:none;stroke-opacity:1"
             d="M -167.959 -118.9144 C -168.06349 -118.91617 -168.16998 -118.89077 -168.26745 -118.8345 L -168.50774 -118.69585 C -169.22987 -118.27893 -169.27656 -118.23779 -169.50063 -117.40156 L -169.59228 -117.05963 C -169.66998 -116.76976 -169.52153 -116.47434 -169.25446 -116.35874 L -169.14166 -116.32877 L -168.73628 -117.84337 L -168.01012 -118.26227 L -168.55885 -116.21362 L -168.87845 -115.01921 L -169.95125 -114.39998 L -169.58053 -113.75842 L -169.14988 -114.00694 C -168.27426 -114.51249 -168.23655 -114.55292 -167.97134 -115.54269 L -167.85854 -115.96569 L -167.11651 -115.22426 L -167.66995 -114.26603 L -167.02839 -113.89531 L -166.57424 -114.6814 C -166.22586 -115.28481 -166.23355 -115.38941 -166.73287 -115.88873 L -167.03133 -116.18718 L -166.57013 -117.908 L -165.94678 -117.28406 C -165.68036 -117.01764 -165.38264 -117.01205 -165.16657 -117.38629 L -164.84755 -117.93855 C -164.69749 -118.19845 -164.76399 -118.52213 -164.99208 -118.7029 L -165.09372 -118.76165 L -165.62365 -117.84396 L -166.14184 -118.36214 C -166.21832 -118.43863 -166.31036 -118.48914 -166.40739 -118.51548 L -166.40739 -118.51666 L -166.4726 -118.53369 L -167.77394 -118.88268 L -167.79861 -118.88914 C -167.8058 -118.89129 -167.81309 -118.89314 -167.82035 -118.89501 L -167.83915 -118.9003 L -167.83915 -118.89971 C -167.87844 -118.90851 -167.9185 -118.91372 -167.959 -118.9144 z " />
        </g>
        <path
           style="fill:none;stroke:#ff0000;stroke-width:0.396054;stroke-linecap:round;stroke-linejoin:miter;stroke-miterlimit:4;stroke-dasharray:none;stroke-opacity:1"
           d="m -181.81418,-110.6032 h -1.64944"
           id="path28" />
        <path
           style="fill:none;stroke:#ff0000;stroke-width:0.396054;stroke-linecap:round;stroke-linejoin:miter;stroke-miterlimit:4;stroke-dasharray:none;stroke-opacity:1"
           d="m -183.2133,-109.58168 h -2.19299"
           id="path29"
           sodipodi:nodetypes="cc" />
        <path
           style="fill:none;stroke:#ff0000;stroke-width:0.396054;stroke-linecap:round;stroke-linejoin:miter;stroke-miterlimit:4;stroke-dasharray:none;stroke-opacity:1"
           d="m -183.56942,-108.56016 h -2.41792"
           id="path30"
           sodipodi:nodetypes="cc" />
        <path
           style="fill:none;stroke:#ff0000;stroke-width:0.396054;stroke-linecap:round;stroke-linejoin:miter;stroke-miterlimit:4;stroke-dasharray:none;stroke-opacity:1"
           d="m -183.23981,-107.53864 h -1.85561"
           id="path31"
           sodipodi:nodetypes="cc" />
        <path
           style="fill:none;stroke:#ff0000;stroke-width:0.396054;stroke-linecap:round;stroke-linejoin:miter;stroke-miterlimit:4;stroke-dasharray:none;stroke-opacity:1"
           d="m -183.70833,-106.50059 h -0.99341"
           id="path32"
           sodipodi:nodetypes="cc" />
      </g>
    </g>
  </g>
</svg>
