<?xml version="1.0" encoding="UTF-8" standalone="no"?>
<svg
   sodipodi:docname="tarnung.svg"
   inkscape:version="1.2.2 (732a01da63, 2022-12-09)"
   id="svg8138"
   version="1.1"
   viewBox="0 0 10 10"
   height="10mm"
   width="10mm"
   xmlns:inkscape="http://www.inkscape.org/namespaces/inkscape"
   xmlns:sodipodi="http://sodipodi.sourceforge.net/DTD/sodipodi-0.dtd"
   xmlns="http://www.w3.org/2000/svg"
   xmlns:svg="http://www.w3.org/2000/svg"
   xmlns:rdf="http://www.w3.org/1999/02/22-rdf-syntax-ns#"
   xmlns:cc="http://creativecommons.org/ns#"
   xmlns:dc="http://purl.org/dc/elements/1.1/">
  <defs
     id="defs8132" />
  <sodipodi:namedview
     inkscape:document-rotation="0"
     fit-margin-bottom="0"
     fit-margin-right="0"
     fit-margin-left="0"
     fit-margin-top="0"
     inkscape:window-maximized="1"
     inkscape:window-y="-8"
     inkscape:window-x="-8"
     inkscape:window-height="1009"
     inkscape:window-width="1920"
     showgrid="false"
     inkscape:current-layer="g858"
     inkscape:document-units="mm"
     inkscape:cy="17.930208"
     inkscape:cx="6.1240498"
     inkscape:zoom="7.919596"
     inkscape:pageshadow="2"
     inkscape:pageopacity="0.0"
     borderopacity="1.0"
     bordercolor="#666666"
     pagecolor="#ffffff"
     id="base"
     inkscape:pagecheckerboard="0"
     inkscape:showpageshadow="2"
     inkscape:deskcolor="#d1d1d1" />
  <metadata
     id="metadata8135">
    <rdf:RDF>
      <cc:Work
         rdf:about="">
        <dc:format>image/svg+xml</dc:format>
        <dc:type
           rdf:resource="http://purl.org/dc/dcmitype/StillImage" />
      </cc:Work>
    </rdf:RDF>
  </metadata>
  <g
     transform="translate(-165.31852,-138.69041)"
     id="layer1"
     inkscape:groupmode="layer"
     inkscape:label="Ebene 1">
    <g
       id="g858">
      <rect
         style="fill:#7d4a9a;fill-opacity:1;stroke:none;stroke-width:0.0529167;stroke-linecap:round"
         id="rect3112"
         width="10"
         height="10"
         x="165.31853"
         y="138.69041" />
      <g
         id="g851">
        <path
           transform="matrix(0.26458333,0,0,0.26458333,165.31852,138.69041)"
           d="M 18.898438 9.2246094 C 16.074299 9.2246094 13.27024 9.8768977 10.488281 11.183594 C 8.3806655 12.237364 6.4848376 13.629233 4.7988281 15.357422 C 3.534236 16.66408 2.8375517 17.844667 2.7109375 18.898438 C 2.7109375 19.699282 3.407773 20.877954 4.7988281 22.4375 C 6.3583746 24.081443 8.2542781 25.473275 10.488281 26.611328 C 13.143777 27.87592 15.947836 28.529935 18.898438 28.572266 C 21.722538 28.572266 24.524644 27.918062 27.306641 26.611328 C 29.414181 25.557596 31.312 24.165727 32.998047 22.4375 C 34.262563 21.130842 34.95737 19.952208 35.083984 18.898438 C 35.083984 18.097593 34.389026 16.917006 32.998047 15.357422 C 31.438463 13.713516 29.540644 12.321647 27.306641 11.183594 C 24.651107 9.9190772 21.848963 9.2665621 18.898438 9.2246094 z M 18.898438 10.669922 A 8.2279019 8.2279019 0 0 1 27.125 18.898438 A 8.2279019 8.2279019 0 0 1 18.898438 27.125 A 8.2279019 8.2279019 0 0 1 10.669922 18.898438 A 8.2279019 8.2279019 0 0 1 18.898438 10.669922 z "
           style="fill:#ffffff;stroke-width:0.960132"
           id="path1597" />
        <g
           aria-label="?"
           id="text1601"
           style="font-style:normal;font-variant:normal;font-weight:normal;font-stretch:normal;font-size:4.24128px;line-height:1.25;font-family:'Nova Round';-inkscape-font-specification:'Nova Round, Normal';font-variant-ligatures:normal;font-variant-caps:normal;font-variant-numeric:normal;font-feature-settings:normal;text-align:start;letter-spacing:0px;word-spacing:0px;writing-mode:lr-tb;text-anchor:start;fill:#ffffff;fill-opacity:1;stroke:none;stroke-width:0.254035">
          <path
             d="m 170.13214,145.22083 q -0.0725,-0.0746 -0.0725,-0.1781 0,-0.10562 0.0725,-0.18017 0.0725,-0.0745 0.17603,-0.0745 0.10354,0 0.17603,0.0745 0.0725,0.0745 0.0725,0.18017 0,0.10355 -0.0725,0.1781 -0.0725,0.0746 -0.17603,0.0746 -0.10355,0 -0.17603,-0.0746 z m -0.72276,-1.69195 q -0.12633,-0.22366 -0.12633,-0.49082 0,-0.35413 0.27958,-0.65234 0.28372,-0.30029 0.76625,-0.30029 0.48874,0 0.76624,0.30029 0.25887,0.27958 0.25887,0.69376 0,0.49082 -0.68134,0.95056 -0.18017,0.12219 -0.18638,0.28372 l -0.39969,0.1926 h -0.0207 q 0.002,-0.51774 0.36241,-0.74761 0.51566,-0.32721 0.51566,-0.68134 0,-0.24644 -0.13254,-0.4059 -0.17603,-0.21331 -0.48252,-0.21331 -0.28994,0 -0.48253,0.21331 -0.14911,0.16567 -0.14911,0.41419 0,0.13875 0.0808,0.27543 l -0.34792,0.16775 z"
             style="fill:#ffffff;stroke-width:0.254035"
             id="path836" />
        </g>
      </g>
    </g>
  </g>
</svg>
