<?xml version="1.0" encoding="UTF-8" standalone="no"?>
<svg
   sodipodi:docname="tarnung.svg"
   inkscape:version="1.3.2 (091e20e, 2023-11-25, custom)"
   id="svg8138"
   version="1.1"
   viewBox="0 0 10 10"
   height="10mm"
   width="10mm"
   xmlns:inkscape="http://www.inkscape.org/namespaces/inkscape"
   xmlns:sodipodi="http://sodipodi.sourceforge.net/DTD/sodipodi-0.dtd"
   xmlns="http://www.w3.org/2000/svg"
   xmlns:svg="http://www.w3.org/2000/svg"
   xmlns:rdf="http://www.w3.org/1999/02/22-rdf-syntax-ns#"
   xmlns:cc="http://creativecommons.org/ns#"
   xmlns:dc="http://purl.org/dc/elements/1.1/">
  <defs
     id="defs8132" />
  <sodipodi:namedview
     inkscape:document-rotation="0"
     fit-margin-bottom="0"
     fit-margin-right="0"
     fit-margin-left="0"
     fit-margin-top="0"
     inkscape:window-maximized="1"
     inkscape:window-y="-8"
     inkscape:window-x="1912"
     inkscape:window-height="1009"
     inkscape:window-width="1920"
     showgrid="false"
     inkscape:current-layer="g858"
     inkscape:document-units="mm"
     inkscape:cy="17.993342"
     inkscape:cx="6.1871843"
     inkscape:zoom="7.919596"
     inkscape:pageshadow="2"
     inkscape:pageopacity="0.0"
     borderopacity="1.0"
     bordercolor="#666666"
     pagecolor="#ffffff"
     id="base"
     inkscape:pagecheckerboard="0"
     inkscape:showpageshadow="2"
     inkscape:deskcolor="#d1d1d1" />
  <metadata
     id="metadata8135">
    <rdf:RDF>
      <cc:Work
         rdf:about="">
        <dc:format>image/svg+xml</dc:format>
        <dc:type
           rdf:resource="http://purl.org/dc/dcmitype/StillImage" />
      </cc:Work>
    </rdf:RDF>
  </metadata>
  <g
     transform="translate(-165.31852,-138.69041)"
     id="layer1"
     inkscape:groupmode="layer"
     inkscape:label="Ebene 1">
    <g
       id="g858">
      <rect
         style="fill:#7d4a9a;fill-opacity:1;stroke:none;stroke-width:0.0529167;stroke-linecap:round"
         id="rect3112"
         width="10"
         height="10"
         x="165.31853"
         y="138.69041" />
      <g
         id="g1">
        <path
           d="m 170.31873,141.13109 c -0.74722,0 -1.48913,0.17258 -2.22519,0.51831 -0.55764,0.27881 -1.05924,0.64708 -1.50533,1.10433 -0.33459,0.34572 -0.51892,0.65808 -0.55242,0.93689 0,0.21189 0.18437,0.52375 0.55242,0.93638 0.41263,0.43496 0.91425,0.80321 1.50533,1.10432 0.7026,0.33459 1.44451,0.50764 2.22519,0.51884 0.74721,0 1.4886,-0.1731 2.22467,-0.51884 0.55762,-0.2788 1.05975,-0.64706 1.50585,-1.10432 0.33457,-0.34572 0.51841,-0.65757 0.55191,-0.93638 0,-0.21189 -0.18388,-0.52425 -0.55191,-0.93689 -0.41264,-0.43495 -0.91477,-0.80322 -1.50585,-1.10433 -0.70261,-0.33457 -1.44401,-0.50721 -2.22467,-0.51831 z m 0,0.3824 a 2.1769657,2.1769657 0 0 1 2.17661,2.17713 2.1769657,2.1769657 0 0 1 -2.17661,2.17661 2.1769657,2.1769657 0 0 1 -2.17713,-2.17661 2.1769657,2.1769657 0 0 1 2.17713,-2.17713 z"
           style="fill:#ffffff;"
           id="path1597" />
        <g
           aria-label="?"
           id="text1601"
           style="fill:#ffffff;">
          <path
             d="m 170.13214,145.22083 q -0.0725,-0.0746 -0.0725,-0.1781 0,-0.10562 0.0725,-0.18017 0.0725,-0.0745 0.17603,-0.0745 0.10354,0 0.17603,0.0745 0.0725,0.0745 0.0725,0.18017 0,0.10355 -0.0725,0.1781 -0.0725,0.0746 -0.17603,0.0746 -0.10355,0 -0.17603,-0.0746 z m -0.72276,-1.69195 q -0.12633,-0.22366 -0.12633,-0.49082 0,-0.35413 0.27958,-0.65234 0.28372,-0.30029 0.76625,-0.30029 0.48874,0 0.76624,0.30029 0.25887,0.27958 0.25887,0.69376 0,0.49082 -0.68134,0.95056 -0.18017,0.12219 -0.18638,0.28372 l -0.39969,0.1926 h -0.0207 q 0.002,-0.51774 0.36241,-0.74761 0.51566,-0.32721 0.51566,-0.68134 0,-0.24644 -0.13254,-0.4059 -0.17603,-0.21331 -0.48252,-0.21331 -0.28994,0 -0.48253,0.21331 -0.14911,0.16567 -0.14911,0.41419 0,0.13875 0.0808,0.27543 l -0.34792,0.16775 z"
             style="fill:#ffffff;stroke-width:0.254035"
             id="path836" />
        </g>
      </g>
    </g>
  </g>
</svg>
