<?xml version="1.0" encoding="UTF-8" standalone="no"?>
<svg
   xmlns:dc="http://purl.org/dc/elements/1.1/"
   xmlns:cc="http://creativecommons.org/ns#"
   xmlns:rdf="http://www.w3.org/1999/02/22-rdf-syntax-ns#"
   xmlns:svg="http://www.w3.org/2000/svg"
   xmlns="http://www.w3.org/2000/svg"
   xmlns:sodipodi="http://sodipodi.sourceforge.net/DTD/sodipodi-0.dtd"
   xmlns:inkscape="http://www.inkscape.org/namespaces/inkscape"
   width="9.4397535mm"
   height="9.4397535mm"
   viewBox="0 0 9.4397535 9.4397535"
   version="1.1"
   id="svg6191"
   inkscape:version="1.0.2-2 (e86c870879, 2021-01-15)"
   sodipodi:docname="nachladen.svg">
  <defs
     id="defs6185" />
  <sodipodi:namedview
     id="base"
     pagecolor="#ffffff"
     bordercolor="#666666"
     borderopacity="1.0"
     inkscape:pageopacity="0.0"
     inkscape:pageshadow="2"
     inkscape:zoom="0.35"
     inkscape:cx="80.696032"
     inkscape:cy="166.41033"
     inkscape:document-units="mm"
     inkscape:current-layer="layer1"
     inkscape:document-rotation="0"
     showgrid="false"
     fit-margin-top="0"
     fit-margin-left="0"
     fit-margin-right="0"
     fit-margin-bottom="0"
     inkscape:window-width="1920"
     inkscape:window-height="1057"
     inkscape:window-x="-8"
     inkscape:window-y="-8"
     inkscape:window-maximized="1" />
  <metadata
     id="metadata6188">
    <rdf:RDF>
      <cc:Work
         rdf:about="">
        <dc:format>image/svg+xml</dc:format>
        <dc:type
           rdf:resource="http://purl.org/dc/dcmitype/StillImage" />
        <dc:title></dc:title>
      </cc:Work>
    </rdf:RDF>
  </metadata>
  <g
     inkscape:label="Ebene 1"
     inkscape:groupmode="layer"
     id="layer1"
     transform="translate(-84.482508,-104.13727)">
    <g
       id="g2363"
       transform="matrix(0.26458333,0,0,0.26458333,-135.51073,30.428795)"
       inkscape:export-filename="/home/charon/Projekte/Universalis/Regeln/Grafiken/Waffe/nachladen.png"
       inkscape:export-xdpi="403.60999"
       inkscape:export-ydpi="403.60999">
      <rect
         style="fill:none"
         id="rect2292"
         width="35.433071"
         height="35.433071"
         x="831.59296"
         y="278.70435" />
      <g
         id="g2344"
         transform="matrix(1.0773569,0,0,1.0773569,-65.699969,-22.930206)">
        <g
           id="g2310"
           inkscape:export-xdpi="381"
           inkscape:export-ydpi="381"
           transform="matrix(0.70060503,0.70060503,-0.70060503,0.70060503,1280.6865,-574.95115)">
          <rect
             transform="rotate(90)"
             style="fill:none"
             id="rect2294"
             width="35.433071"
             height="11.834723"
             x="912.01575"
             y="-319.92889" />
          <g
             style="fill:#000000"
             transform="matrix(0.11877878,0,0,0.11877878,330.63805,853.15764)"
             id="g2308">
            <path
               style="fill:#000000;fill-opacity:1;stroke:#000000;stroke-width:0.8;stroke-miterlimit:4;stroke-dasharray:none;stroke-opacity:1"
               d="m -139.97262,522.0181 c -7.28822,0 -16.1923,44.00733 -16.1923,64.50927 h 32.3846 c 0,-20.42089 -8.90408,-64.50927 -16.1923,-64.50927 z"
               id="path2296"
               inkscape:connector-curvature="0"
               sodipodi:nodetypes="zccz" />
            <path
               style="fill:#000000;fill-opacity:1;stroke:#000000;stroke-width:0.8;stroke-miterlimit:4;stroke-dasharray:none;stroke-opacity:1"
               d="m -123.78032,587.1453 c 0,-2.15489 -2.82477,-3.89524 -16.1923,-3.89524 -13.36752,0 -16.2084,1.74035 -16.2084,3.89524 0.0398,18.28498 0.0161,5.43511 0.0161,23.72016 h 32.38461 c 0,-18.28507 0,-5.43509 -1e-5,-23.72016 z"
               id="path2298"
               inkscape:connector-curvature="0"
               sodipodi:nodetypes="cscccc" />
            <path
               style="fill:#000000;fill-opacity:1;stroke:#000000;stroke-width:0.8;stroke-miterlimit:4;stroke-dasharray:none;stroke-opacity:1"
               d="m -123.78032,605.11762 c 0,-2.15489 -2.82477,-3.89524 -16.1923,-3.89524 -13.36752,0 -16.2084,1.74035 -16.2084,3.89524 0.0128,5.87833 -7.9839,9.70938 -7.9839,20.36722 h 48.38461 c 0,-10.65786 -8.00001,-14.59077 -8.00001,-20.36722 z"
               id="path2300"
               inkscape:connector-curvature="0"
               sodipodi:nodetypes="cscccc" />
            <path
               sodipodi:nodetypes="csccccc"
               inkscape:connector-curvature="0"
               id="path2302"
               d="m -115.78032,625.11762 c 0,-2.15489 -10.82477,-3.89524 -24.1923,-3.89524 -13.36752,0 -24.2084,1.74035 -24.2084,3.89524 0.0398,18.28498 0.0161,116.08217 0.0161,134.36722 h 48.38461 c 0,-18.28507 0,-116.08215 0,-134.36722 z"
               style="fill:#000000;fill-opacity:1;stroke:#000000;stroke-width:0.8;stroke-miterlimit:4;stroke-dasharray:none;stroke-opacity:1" />
            <path
               style="fill:#000000;fill-opacity:1;stroke:#000000;stroke-width:0.8;stroke-miterlimit:4;stroke-dasharray:none;stroke-opacity:1"
               d="m -115.78032,756.98392 c 0,-2.15489 -10.82477,-3.89524 -24.1923,-3.89524 -13.36752,0 -24.2084,1.74035 -24.2084,3.89524 0.0398,18.28498 0.0161,-10.52217 0.0161,7.76287 h 48.38461 c 0,-18.28506 0,10.52219 0,-7.76287 z"
               id="path2304"
               inkscape:connector-curvature="0"
               sodipodi:nodetypes="cscccc" />
            <ellipse
               style="fill:#000000;fill-opacity:1;stroke:#000000;stroke-width:1.52771;stroke-miterlimit:4;stroke-dasharray:none;stroke-opacity:1"
               id="ellipse2306"
               transform="matrix(0.53246171,0,0,0.51500572,-212.05286,575.63519)"
               cx="135.36044"
               cy="367.81265"
               rx="45.456863"
               ry="7.5761442" />
          </g>
        </g>
        <g
           id="g2327"
           transform="rotate(15,849.30948,296.42202)">
          <path
             id="path2312"
             style="color:#000000;overflow:visible;fill:#000000;stroke:none;stroke-width:3.13874;stroke-linecap:round;stroke-linejoin:miter;stroke-miterlimit:4;stroke-dasharray:none"
             d="m 847.14276,280.81444 4.31554,3.33673 -4.31554,3.33673 z"
             sodipodi:nodetypes="cccc" />
          <g
             id="g2318"
             transform="translate(59.402189)">
            <path
               style="color:#000000;overflow:visible;fill:none;stroke:#000000;stroke-width:1.95077;stroke-linecap:round;stroke-linejoin:miter;stroke-miterlimit:4;stroke-dasharray:none"
               id="path2314"
               sodipodi:type="arc"
               sodipodi:cx="789.90729"
               sodipodi:cy="296.42203"
               sodipodi:rx="12.270857"
               sodipodi:ry="12.270857"
               sodipodi:start="2.6179939"
               sodipodi:end="4.71166"
               sodipodi:open="true"
               sodipodi:arc-type="arc"
               inkscape:transform-center-x="6.1411046"
               inkscape:transform-center-y="-2.375265"
               d="m 779.28041,302.55746 a 12.270857,12.270857 0 0 1 -0.002,-12.26699 12.270857,12.270857 0 0 1 10.62016,-6.1393" />
            <path
               style="color:#000000;overflow:visible;fill:none;stroke:#000000;stroke-width:1.95077;stroke-linecap:round;stroke-linejoin:miter;stroke-miterlimit:4;stroke-dasharray:none"
               id="path2316"
               sodipodi:type="arc"
               sodipodi:cx="789.90729"
               sodipodi:cy="296.42203"
               sodipodi:rx="12.270857"
               sodipodi:ry="12.270857"
               sodipodi:start="5.7595865"
               sodipodi:end="1.5707963"
               sodipodi:open="true"
               sodipodi:arc-type="arc"
               inkscape:transform-center-x="-6.1342249"
               inkscape:transform-center-y="2.6872077"
               d="m 800.53416,290.2866 a 12.270857,12.270857 0 0 1 0,12.27086 12.270857,12.270857 0 0 1 -10.62687,6.13542" />
          </g>
          <path
             id="path2320"
             style="color:#000000;overflow:visible;fill:#000000;stroke:none;stroke-width:3.13874;stroke-linecap:round;stroke-linejoin:miter;stroke-miterlimit:4;stroke-dasharray:none"
             d="m 851.46725,312.02961 -4.31554,-3.33673 4.31554,-3.33673 z"
             sodipodi:nodetypes="cccc" />
        </g>
      </g>
    </g>
  </g>
</svg>
