<?xml version="1.0" encoding="UTF-8" standalone="no"?>
<svg
   xmlns:dc="http://purl.org/dc/elements/1.1/"
   xmlns:cc="http://creativecommons.org/ns#"
   xmlns:rdf="http://www.w3.org/1999/02/22-rdf-syntax-ns#"
   xmlns:svg="http://www.w3.org/2000/svg"
   xmlns="http://www.w3.org/2000/svg"
   xmlns:sodipodi="http://sodipodi.sourceforge.net/DTD/sodipodi-0.dtd"
   xmlns:inkscape="http://www.inkscape.org/namespaces/inkscape"
   width="9.375mm"
   height="9.375mm"
   viewBox="0 0 9.375 9.375"
   version="1.1"
   id="svg6144"
   inkscape:version="1.0.2-2 (e86c870879, 2021-01-15)"
   sodipodi:docname="schaden.svg">
  <defs
     id="defs6138" />
  <sodipodi:namedview
     id="base"
     pagecolor="#ffffff"
     bordercolor="#666666"
     borderopacity="1.0"
     inkscape:pageopacity="0.0"
     inkscape:pageshadow="2"
     inkscape:zoom="0.35"
     inkscape:cx="97.716534"
     inkscape:cy="54.859393"
     inkscape:document-units="mm"
     inkscape:current-layer="layer1"
     inkscape:document-rotation="0"
     showgrid="false"
     fit-margin-top="0"
     fit-margin-left="0"
     fit-margin-right="0"
     fit-margin-bottom="0"
     inkscape:window-width="1920"
     inkscape:window-height="1057"
     inkscape:window-x="-8"
     inkscape:window-y="-8"
     inkscape:window-maximized="1" />
  <metadata
     id="metadata6141">
    <rdf:RDF>
      <cc:Work
         rdf:about="">
        <dc:format>image/svg+xml</dc:format>
        <dc:type
           rdf:resource="http://purl.org/dc/dcmitype/StillImage" />
        <dc:title></dc:title>
      </cc:Work>
    </rdf:RDF>
  </metadata>
  <g
     inkscape:label="Ebene 1"
     inkscape:groupmode="layer"
     id="layer1"
     transform="translate(-79.979167,-133.65179)">
    <g
       id="g4775"
       transform="matrix(0.26458333,0,0,0.26458333,-47.2721,4.7057255)"
       inkscape:export-xdpi="381"
       inkscape:export-ydpi="381">
      <rect
         y="487.35519"
         x="480.94968"
         height="35.433071"
         width="35.433071"
         id="rect4758"
         style="fill:none" />
      <g
         id="g3419"
         transform="matrix(0.95375537,0,0,0.95375537,177.77726,43.396419)">
        <g
           transform="matrix(1.0643227,0,0,1.0643227,-71.132468,7.732829)"
           id="g4771">
          <ellipse
             style="fill:#ffffff;stroke:none"
             id="path3421"
             cx="383.65625"
             cy="141.34448"
             rx="13.34375"
             ry="8.9375"
             transform="translate(-0.4375,307.3927)" />
          <path
             style="fill:#000000;stroke:none;stroke-width:0.6;stroke-miterlimit:4;stroke-dasharray:none;stroke-opacity:1"
             d="m 387.60223,462.63777 c -0.6143,-0.29806 -1.31542,-0.84487 -1.55804,-1.21512 l -0.44109,-0.6732 0.29147,-0.29147 c 0.16031,-0.16031 0.29147,-0.40047 0.29147,-0.5337 v -0.24222 l -0.63611,0.15966 -0.63611,0.15965 -0.32978,-0.39739 c -0.43304,-0.52176 -0.79578,-0.50208 -1.21095,0.0657 l -0.33864,0.46309 -0.51169,-0.46309 c -0.94121,-0.85177 -1.2414,-0.56354 -1.46165,1.40343 l -0.0746,0.66662 -0.73327,0.0844 -0.73328,0.0844 v -0.8115 -0.8115 l -0.9672,1.25841 -1.18419,1.14523 c -0.72732,0.46474 -0.7713,-2.47402 -1.55104,-2.14929 h -0.26373 l 0.15817,-0.97472 0.15817,-0.97471 -0.30823,0.19052 -0.30828,0.19052 v -0.35157 c 0,-0.19336 -0.25605,-0.51148 -0.56902,-0.70694 l -0.56903,-0.35535 -0.19758,0.31968 -0.19759,0.3197 -0.16749,-0.27105 c -0.0922,-0.14908 -0.10027,-0.44639 -0.0182,-0.66067 l 0.14951,-0.38963 -0.40675,-0.15609 c -0.22371,-0.0858 -0.46366,-0.0639 -0.53326,0.0486 -0.13596,0.22002 -0.86273,0.17231 -2.93457,-0.19261 l -1.31079,-0.23088 -0.37456,-0.50219 c -0.20601,-0.27621 -0.45639,-0.48209 -0.55642,-0.45753 -0.10001,0.0246 -0.19212,-0.36047 -0.20465,-0.85565 -0.029,-2.71105 -0.14741,-2.74365 -0.15593,-5.14183 -0.009,-2.39818 -0.32978,-3.70926 -0.27702,-4.25612 0.0528,-0.54687 0.14925,-1.02351 0.14925,-1.02351 0.0821,-0.27501 0.23144,-0.85999 0.33196,-1.29996 0.10053,-0.43997 0.26967,-0.91993 0.37587,-1.06658 0.10621,-0.14666 0.27552,-0.62662 0.37624,-1.06658 0.48922,-2.13693 3.47093,-5.32462 6.42322,-6.86693 5.06249,-2.64473 10.57422,-2.55643 16.37965,0.26236 l 1.98078,0.96175 1.82131,1.78909 1.82131,1.78908 0.92062,1.99257 c 1.24775,2.70057 1.46141,3.80285 1.46125,7.53815 l -1.6e-4,3.19976 -0.63227,2.8959 -0.63226,2.8959 -0.46522,0.43716 c -0.25585,0.24044 -0.38123,0.28719 -0.27857,0.10387 l 0.18659,-0.33331 h -0.28237 c -0.1553,0 -0.49673,0.21435 -0.75874,0.47635 l -0.47633,0.47637 -0.65692,-0.18314 c -0.36127,-0.10072 -1.1065,-0.19509 -1.65602,-0.20971 l -0.99916,-0.0266 -1.06735,0.96428 -1.06735,0.96429 v 0.63559 c 0,0.34958 -0.12,0.63558 -0.26665,0.63558 -0.14666,0 -0.26664,0.29017 -0.26664,0.64481 0,0.87793 -0.26125,1.49109 -0.62849,1.47508 -0.16761,-0.008 -0.80741,-0.25716 -1.42173,-0.55522 z m -4.79607,-7.26117 c 0.56483,-0.39563 1.41422,-0.29845 1.41422,0.16179 0,0.37086 0.23188,0.30086 0.79914,-0.11393 l 0.51009,-0.37299 0.002,-1.38944 c -0.0338,-0.77571 -0.24035,-1.68355 -0.45913,-2.01744 -0.11482,-1.15654 -0.39767,-2.18045 -0.97207,-3.07505 -0.39247,-0.004 -0.92801,-0.0426 -1.1901,-0.0851 -0.76896,1.20405 -0.88142,2.18484 -1.10005,3.29999 0.0371,0.14665 -0.41262,1.70154 -0.23168,2.30366 l 0.28714,0.94817 c 1.1785,1.06561 -0.39323,0.88552 0.94098,0.34025 z m 10.84028,-3.49984 c 0.94187,-0.48706 1.09082,-0.92631 0.95043,-2.80271 -0.13711,-1.83275 -0.25841,-2.11598 -1.23985,-2.89515 l -0.79188,-0.62867 -1.75379,-0.40004 -1.75375,-0.40004 -0.64971,0.29603 -0.64971,0.29601 -0.38613,0.92411 c -0.21236,0.50825 -0.38611,1.54467 -0.38611,2.30316 v 1.37906 l 0.46664,0.36713 c 0.65792,0.51765 2.12684,1.1735 3.53305,1.57746 1.57585,0.45269 1.75592,0.45158 2.66081,-0.0164 z m -16.79868,-0.81123 c 0.95637,-0.37123 1.98773,-0.88335 2.29192,-1.13804 l 0.55311,-0.46306 0.32511,-1.65254 0.32513,-1.65253 -0.41645,-0.80528 -0.41642,-0.80528 -0.70203,-0.1762 c -0.3861,-0.0969 -1.07387,-0.0499 -1.52835,0.10417 -0.45447,0.1542 -1.3063,0.3598 -1.89293,0.4569 -1.37105,0.22695 -2.9548,1.26115 -3.14644,2.05465 -0.0823,0.34056 -0.27576,1.09914 -0.43007,1.68576 l -0.28057,1.06658 0.28886,0.72001 0.28885,0.72 0.70643,0.25887 c 1.17441,0.43036 2.20871,0.33445 4.03385,-0.37401 z"
             id="path3423"
             inkscape:connector-curvature="0"
             sodipodi:nodetypes="cccsscccccccccccccccccccccscccccccccscscczzccsssscccssccccccsccsccccsssccccsscccccccccccssccccccsccsccsccccccccscscccss" />
        </g>
      </g>
    </g>
  </g>
</svg>
