<?xml version="1.0" encoding="UTF-8" standalone="no"?>
<svg
   width="9.375mm"
   height="9.375mm"
   viewBox="0 0 9.375 9.375"
   version="1.1"
   id="svg6144"
   inkscape:version="1.3.1 (91b66b0783, 2023-11-16)"
   sodipodi:docname="schaden.svg"
   xmlns:inkscape="http://www.inkscape.org/namespaces/inkscape"
   xmlns:sodipodi="http://sodipodi.sourceforge.net/DTD/sodipodi-0.dtd"
   xmlns="http://www.w3.org/2000/svg"
   xmlns:svg="http://www.w3.org/2000/svg"
   xmlns:rdf="http://www.w3.org/1999/02/22-rdf-syntax-ns#"
   xmlns:cc="http://creativecommons.org/ns#"
   xmlns:dc="http://purl.org/dc/elements/1.1/">
  <defs
     id="defs6138" />
  <sodipodi:namedview
     id="base"
     pagecolor="#ffffff"
     bordercolor="#666666"
     borderopacity="1.0"
     inkscape:pageopacity="0.0"
     inkscape:pageshadow="2"
     inkscape:zoom="15.839192"
     inkscape:cx="12.532205"
     inkscape:cy="19.98208"
     inkscape:document-units="mm"
     inkscape:current-layer="layer1"
     inkscape:document-rotation="0"
     showgrid="false"
     fit-margin-top="0"
     fit-margin-left="0"
     fit-margin-right="0"
     fit-margin-bottom="0"
     inkscape:window-width="1920"
     inkscape:window-height="1009"
     inkscape:window-x="1912"
     inkscape:window-y="-8"
     inkscape:window-maximized="1"
     inkscape:showpageshadow="2"
     inkscape:pagecheckerboard="0"
     inkscape:deskcolor="#d1d1d1" />
  <metadata
     id="metadata6141">
    <rdf:RDF>
      <cc:Work
         rdf:about="">
        <dc:format>image/svg+xml</dc:format>
        <dc:type
           rdf:resource="http://purl.org/dc/dcmitype/StillImage" />
        <dc:title />
      </cc:Work>
    </rdf:RDF>
  </metadata>
  <g
     inkscape:label="Ebene 1"
     inkscape:groupmode="layer"
     id="layer1"
     transform="translate(-79.979167,-133.65179)">
    <rect
       y="133.65179"
       x="79.979164"
       height="9.375"
       width="9.375"
       id="rect99"
       style="fill:none;stroke-width:0.264583" />
    <path
       id="path92"
       style="fill:#000000;stroke-width:0.345776;stroke-linecap:round;stroke-linejoin:round;stroke-dashoffset:6.38929"
       d="M 84.666736 134.17114 C 82.260511 134.17114 80.309896 135.89636 80.309896 138.02413 L 80.309896 139.41681 C 80.309896 140.35035 80.630338 141.10146 81.68604 141.10146 L 82.302023 141.10146 L 82.302023 141.86576 L 82.302023 142.3231 C 82.302023 142.42508 82.38401 142.50758 82.485991 142.50758 L 83.079753 142.50758 C 83.181733 142.50758 83.263721 142.42508 83.263721 142.3231 L 83.263721 141.86576 L 83.55776 141.86576 L 83.55776 142.3231 C 83.55776 142.42508 83.639748 142.50758 83.741728 142.50758 L 84.33549 142.50758 C 84.437471 142.50758 84.519458 142.42508 84.519458 142.3231 L 84.519458 141.86576 L 84.813497 141.86576 L 84.813497 142.3231 C 84.813497 142.42508 84.896002 142.50758 84.997982 142.50758 L 85.591228 142.50758 C 85.693208 142.50758 85.775712 142.42508 85.775712 142.3231 L 85.775712 141.86576 L 86.069751 141.86576 L 86.069751 142.3231 C 86.069751 142.42508 86.151739 142.50758 86.253719 142.50758 L 86.847482 142.50758 C 86.949462 142.50758 87.03145 142.42508 87.03145 142.3231 L 87.03145 141.86576 L 87.03145 141.48129 L 87.03145 141.10146 L 87.647433 141.10146 C 88.703135 141.10146 89.023576 140.35035 89.023576 139.41681 L 89.023576 138.02413 C 89.023576 135.89636 87.072966 134.17114 84.666736 134.17114 z M 83.017224 137.45466 A 0.84714904 1.2079513 60.880703 0 1 83.7717 137.79521 A 0.84714904 1.2079513 60.880703 0 1 83.160885 139.12587 A 0.84714904 1.2079513 60.880703 0 1 81.679838 139.00288 A 0.84714904 1.2079513 60.880703 0 1 82.290137 137.67222 A 0.84714904 1.2079513 60.880703 0 1 83.017224 137.45466 z M 86.316248 137.45466 A 1.2079513 0.84714904 29.119297 0 1 87.042819 137.67222 A 1.2079513 0.84714904 29.119297 0 1 87.653634 139.00288 A 1.2079513 0.84714904 29.119297 0 1 86.172587 139.12587 A 1.2079513 0.84714904 29.119297 0 1 85.561772 137.79521 A 1.2079513 0.84714904 29.119297 0 1 86.316248 137.45466 z M 84.666736 138.55743 C 84.779332 138.55743 84.891731 138.79015 85.035706 139.25507 C 85.323658 140.1849 85.242638 140.44724 84.666736 140.44724 C 84.090834 140.44724 84.009298 140.1849 84.29725 139.25507 C 84.441225 138.79015 84.55414 138.55743 84.666736 138.55743 z " />
  </g>
</svg>
