<?xml version="1.0" encoding="UTF-8" standalone="no"?>
<!-- Created with Inkscape (http://www.inkscape.org/) -->

<svg
   width="9.375mm"
   height="9.375mm"
   viewBox="0 0 9.375 9.375"
   version="1.1"
   id="svg9738"
   inkscape:version="1.4.3 (0d15f75, 2025-12-25)"
   sodipodi:docname="DauerPermanent.svg"
   inkscape:export-filename="DauerPermanent.png"
   inkscape:export-xdpi="406.39999"
   inkscape:export-ydpi="406.39999"
   xmlns:inkscape="http://www.inkscape.org/namespaces/inkscape"
   xmlns:sodipodi="http://sodipodi.sourceforge.net/DTD/sodipodi-0.dtd"
   xmlns="http://www.w3.org/2000/svg"
   xmlns:svg="http://www.w3.org/2000/svg">
  <sodipodi:namedview
     id="namedview9740"
     pagecolor="#ffffff"
     bordercolor="#666666"
     borderopacity="1.0"
     inkscape:pageshadow="2"
     inkscape:pageopacity="0.0"
     inkscape:pagecheckerboard="0"
     inkscape:document-units="mm"
     showgrid="false"
     fit-margin-top="0"
     fit-margin-left="0"
     fit-margin-right="0"
     fit-margin-bottom="0"
     inkscape:zoom="18.101617"
     inkscape:cx="44.112082"
     inkscape:cy="25.992153"
     inkscape:window-width="2560"
     inkscape:window-height="1369"
     inkscape:window-x="2552"
     inkscape:window-y="-8"
     inkscape:window-maximized="1"
     inkscape:current-layer="layer1"
     inkscape:showpageshadow="2"
     inkscape:deskcolor="#d1d1d1" />
  <defs
     id="defs9735" />
  <g
     inkscape:label="Ebene 1"
     inkscape:groupmode="layer"
     id="layer1"
     transform="translate(-158.36484,-103.79357)">
    <g
       id="g4"
       transform="matrix(0.5306275,1.278271e-8,-1.2642861e-8,0.53649707,67.205989,38.266435)"
       style="stroke-width:1.72103;stroke-dasharray:none">
      <path
         id="path3"
         style="fill:none;stroke:#000000;stroke-width:1.72103;stroke-linecap:round;stroke-dasharray:none;paint-order:markers stroke fill"
         d="m 173.87826,133.30241 c -1.34003,-1.34003 -1.34003,-3.51266 0,-4.85269 1.34003,-1.34004 3.51266,-1.34004 4.8527,0 0.67002,0.67002 1.89736,2.42635 1.89736,2.42635 0,0 -1.22735,1.75633 -1.89737,2.42635 -1.34003,1.34003 -3.51265,1.34003 -4.85269,-1e-5 z"
         sodipodi:nodetypes="ssscss" />
      <path
         id="path4"
         style="fill:none;stroke:#000000;stroke-width:1.72103;stroke-linecap:round;stroke-dasharray:none;paint-order:markers stroke fill"
         d="m 187.37838,133.30241 c 1.34003,-1.34003 1.34003,-3.51266 0,-4.85269 -1.34003,-1.34004 -3.51266,-1.34004 -4.8527,0 -0.67002,0.67002 -1.89736,2.42635 -1.89736,2.42635 0,0 1.22735,1.75633 1.89737,2.42635 1.34003,1.34003 3.51265,1.34003 4.85269,-1e-5 z"
         sodipodi:nodetypes="ssscss" />
    </g>
  </g>
</svg>
