<?xml version="1.0" encoding="UTF-8" standalone="no"?>
<!-- Created with Inkscape (http://www.inkscape.org/) -->

<svg
   width="9.375mm"
   height="9.375mm"
   viewBox="0 0 9.375 9.375"
   version="1.1"
   id="svg9630"
   inkscape:version="1.1.1 (3bf5ae0d25, 2021-09-20)"
   sodipodi:docname="ReichweiteBerührung.svg"
   xmlns:inkscape="http://www.inkscape.org/namespaces/inkscape"
   xmlns:sodipodi="http://sodipodi.sourceforge.net/DTD/sodipodi-0.dtd"
   xmlns="http://www.w3.org/2000/svg"
   xmlns:svg="http://www.w3.org/2000/svg">
  <sodipodi:namedview
     id="namedview9632"
     pagecolor="#ffffff"
     bordercolor="#666666"
     borderopacity="1.0"
     inkscape:pageshadow="2"
     inkscape:pageopacity="0.0"
     inkscape:pagecheckerboard="0"
     inkscape:document-units="mm"
     showgrid="false"
     fit-margin-top="0"
     fit-margin-left="0"
     fit-margin-right="0"
     fit-margin-bottom="0"
     inkscape:zoom="1.599972"
     inkscape:cx="77.188851"
     inkscape:cy="55.313468"
     inkscape:window-width="1920"
     inkscape:window-height="1027"
     inkscape:window-x="-8"
     inkscape:window-y="-8"
     inkscape:window-maximized="1"
     inkscape:current-layer="layer1" />
  <defs
     id="defs9627" />
  <g
     inkscape:label="Ebene 1"
     inkscape:groupmode="layer"
     id="layer1"
     transform="translate(-94.863725,-83.949471)">
    <g
       id="g2260"
       transform="matrix(0.26458333,0,0,0.26458333,5.8120074,-79.790452)">
      <rect
         y="618.85956"
         x="336.57343"
         height="35.433071"
         width="35.433071"
         id="rect2254"
         style="fill:none" />
      <g
         id="g15347"
         transform="translate(28.8489,-111.47885)">
        <path
           id="path15049"
           style="color:#000000;fill:#000000;stroke:none;stroke-width:0.4;stroke-linecap:round;stroke-miterlimit:4;stroke-dasharray:none"
           d="m 316.84145,738.71262 a 1.5205456,1.5199077 0 0 0 -0.76026,0.20484 1.5205456,1.5199077 0 0 0 -0.55684,2.07651 l 5.36943,9.29607 a 1.5205456,1.5199077 0 0 0 0.0237,0.0312 c 0.0152,0.0285 0.0282,0.0578 0.0446,0.0861 l 0.45883,0.7941 -2.90596,-1.67724 a 1.5205456,1.5199077 0 0 0 -2.0774,0.5566 1.5205456,1.5199077 0 0 0 0.55685,2.07652 l 7.48839,4.32224 a 1.5205456,1.5199077 0 0 0 0.16482,0.0727 c 0.94434,0.9124 2.40716,1.12998 3.60387,0.43934 l 5.79857,-3.34705 c 1.44864,-0.83602 1.94114,-2.67383 1.10477,-4.12186 l -3.12573,-5.4117 v -0.002 l -0.0387,-0.0668 -2.04918,-3.54893 a 1.5205456,1.5199077 0 0 0 -2.07738,-0.55661 1.5205456,1.5199077 0 0 0 -0.55683,2.07652 l 0.53902,0.93362 -0.16335,0.095 -0.95479,-1.65054 a 1.5205456,1.5199077 0 0 0 -0.92213,-0.708 1.5205456,1.5199077 0 0 0 -1.15377,0.1514 1.5205456,1.5199077 0 0 0 -0.55685,2.07652 l 0.95332,1.65052 -0.16482,0.095 -1.1716,-2.02903 a 1.5205456,1.5199077 0 0 0 -0.92361,-0.708 1.5205456,1.5199077 0 0 0 -1.15377,0.15288 1.5205456,1.5199077 0 0 0 -0.55684,2.07503 l 1.17307,2.0305 -0.16482,0.095 -3.92758,-6.79951 a 1.5205456,1.5199077 0 0 0 -0.92362,-0.70949 1.5205456,1.5199077 0 0 0 -0.3935,-0.052 z" />
        <rect
           style="fill:none;stroke:#000000;stroke-width:2.89;stroke-linecap:round;stroke-miterlimit:4;stroke-dasharray:none;paint-order:stroke fill markers;stop-color:#000000"
           id="rect15225"
           width="30.110001"
           height="30.110001"
           x="310.38605"
           y="732.99994"
           ry="2.7954218" />
      </g>
    </g>
  </g>
</svg>
