<?xml version="1.0" encoding="UTF-8" standalone="no"?>
<!-- Created with Inkscape (http://www.inkscape.org/) -->

<svg
   width="9.375mm"
   height="9.375mm"
   viewBox="0 0 9.375 9.375"
   version="1.1"
   id="svg9630"
   inkscape:version="1.3.1 (91b66b0783, 2023-11-16)"
   sodipodi:docname="SchadenMisserfolg.svg"
   xmlns:inkscape="http://www.inkscape.org/namespaces/inkscape"
   xmlns:sodipodi="http://sodipodi.sourceforge.net/DTD/sodipodi-0.dtd"
   xmlns="http://www.w3.org/2000/svg"
   xmlns:svg="http://www.w3.org/2000/svg">
  <sodipodi:namedview
     id="namedview9632"
     pagecolor="#ffffff"
     bordercolor="#666666"
     borderopacity="1.0"
     inkscape:pageshadow="2"
     inkscape:pageopacity="0.0"
     inkscape:pagecheckerboard="0"
     inkscape:document-units="mm"
     showgrid="false"
     fit-margin-top="0"
     fit-margin-left="0"
     fit-margin-right="0"
     fit-margin-bottom="0"
     inkscape:zoom="22.627417"
     inkscape:cx="16.484427"
     inkscape:cy="14.650369"
     inkscape:window-width="1920"
     inkscape:window-height="1009"
     inkscape:window-x="1912"
     inkscape:window-y="-8"
     inkscape:window-maximized="1"
     inkscape:current-layer="g2693"
     inkscape:showpageshadow="2"
     inkscape:deskcolor="#d1d1d1"
     showguides="true" />
  <defs
     id="defs9627" />
  <g
     inkscape:label="Ebene 1"
     inkscape:groupmode="layer"
     id="layer1"
     transform="translate(-94.863725,-83.949471)">
    <g
       id="g2700">
      <g
         id="g2693">
        <path
           id="path3800-6"
           style="color:#000000;fill:#000000;-inkscape-stroke:none"
           d="M 99.970907 84.402157 L 99.267591 86.23822 L 96.853268 85.345768 L 97.654252 87.142558 L 95.316411 88.216911 L 97.152474 88.921777 L 96.260022 91.334033 L 98.056812 90.533048 L 99.132715 92.87089 L 99.836031 91.035343 L 102.24829 91.927795 L 101.4473 90.131006 L 103.78514 89.056653 L 101.94908 88.353337 L 102.84205 85.93953 L 101.04474 86.739998 L 99.970907 84.402157 z M 99.988994 84.916854 L 100.93829 86.980294 L 100.94501 87.004065 L 100.94811 87.003031 L 100.94862 87.003548 L 101.66589 86.683154 L 102.49013 86.316252 L 101.70103 88.449455 L 101.69225 88.467541 L 101.69535 88.468575 L 101.69432 88.470642 L 103.27045 89.074223 L 103.23789 89.089209 L 101.18479 90.03127 L 101.18582 90.033337 L 101.18479 90.033854 L 101.87208 91.574845 L 99.720793 90.776444 L 99.116695 92.354126 L 98.157064 90.269499 L 96.615556 90.957312 L 97.411373 88.804472 L 95.833175 88.200374 L 97.918836 87.242293 L 97.232056 85.698201 L 99.383863 86.495569 L 99.384896 86.493502 L 99.38593 86.494019 L 99.833964 85.323547 L 99.988994 84.916854 z " />
        <rect
           y="83.949471"
           x="94.863724"
           height="9.375"
           width="9.375"
           id="rect3798-9"
           style="fill:none;stroke-width:0.264583" />
        <path
           style="font-size:4.30328px;line-height:1.25;font-family:'Nova Round';-inkscape-font-specification:'Nova Round, Normal';letter-spacing:0px;word-spacing:0px;fill:#000000;stroke-width:0.324031"
           d="m 98.465078,89.207556 q 0,0 0.40907,-0.19377 h 0.0215 v 0.19377 q 0,0.28419 0.15501,0.46719 0.18731,0.22176 0.50165,0.22176 0.30787,0 0.501642,-0.22176 0.15286,-0.17439 0.15286,-0.44566 0,-0.23683 -0.1421,-0.40261 -0.176542,-0.20238 -0.516712,-0.20238 -0.29496,0 -0.47796,0.0947 l -0.44996,-0.21745 0.35954,-1.51139 h 1.492012 v 0.0215 l -0.17439,0.37031 h -0.990372 l -0.26267,0.96023 q 0.23898,-0.11626 0.5038,-0.11626 0.488732,0 0.783682,0.2562 0.30572,0.26482 0.30572,0.74278 0,0.43921 -0.2885,0.74708 -0.29495,0.31218 -0.796602,0.31218 -0.50164,0 -0.7966,-0.31218 -0.29065,-0.30787 -0.29065,-0.7643 z"
           id="text2042-0"
           aria-label="5" />
        <rect
           y="83.949471"
           x="94.863724"
           height="9.375"
           width="9.375"
           id="rect2462-9"
           style="fill:none;stroke-width:0.264583" />
      </g>
    </g>
  </g>
</svg>
