<?xml version="1.0" encoding="UTF-8" standalone="no"?>
<!-- Created with Inkscape (http://www.inkscape.org/) -->

<svg
   width="9.375mm"
   height="9.375mm"
   viewBox="0 0 9.375 9.375"
   version="1.1"
   id="svg9630"
   inkscape:version="1.3.2 (091e20e, 2023-11-25, custom)"
   sodipodi:docname="SchadenMisserfolg.svg"
   xmlns:inkscape="http://www.inkscape.org/namespaces/inkscape"
   xmlns:sodipodi="http://sodipodi.sourceforge.net/DTD/sodipodi-0.dtd"
   xmlns="http://www.w3.org/2000/svg"
   xmlns:svg="http://www.w3.org/2000/svg">
  <sodipodi:namedview
     id="namedview9632"
     pagecolor="#ffffff"
     bordercolor="#666666"
     borderopacity="1.0"
     inkscape:pageshadow="2"
     inkscape:pageopacity="0.0"
     inkscape:pagecheckerboard="0"
     inkscape:document-units="mm"
     showgrid="false"
     fit-margin-top="0"
     fit-margin-left="0"
     fit-margin-right="0"
     fit-margin-bottom="0"
     inkscape:zoom="8"
     inkscape:cx="14.4375"
     inkscape:cy="24.1875"
     inkscape:window-width="1920"
     inkscape:window-height="1009"
     inkscape:window-x="1912"
     inkscape:window-y="-8"
     inkscape:window-maximized="1"
     inkscape:current-layer="g2693"
     inkscape:showpageshadow="2"
     inkscape:deskcolor="#d1d1d1"
     showguides="true" />
  <defs
     id="defs9627" />
  <g
     inkscape:label="Ebene 1"
     inkscape:groupmode="layer"
     id="layer1"
     transform="translate(-94.863725,-83.949471)">
    <g
       id="g2700">
      <g
         id="g2693">
        <g
           id="g16"
           transform="matrix(0.26458333,0,0,0.26458333,-56.925151,-135.3614)">
          <rect
             y="828.89148"
             x="573.69025"
             height="35.433071"
             width="35.433071"
             id="rect15"
             style="fill:none" />
          <path
             id="path16"
             style="fill:none;stroke:#000000;stroke-width:1.25483;stroke-linecap:round;stroke-linejoin:round;stroke-dashoffset:6.38929"
             d="m 591.40679,831.48245 c -8.73222,0 -15.81102,6.25889 -15.81102,13.98069 v 5.05405 c 0,3.38784 1.16287,6.1155 4.99405,6.1155 h 2.2354 v 2.77175 1.66156 c 0,0.37009 0.29754,0.66762 0.66762,0.66762 h 2.15477 c 0.37009,0 0.66763,-0.29753 0.66763,-0.66762 v -1.66156 h 1.06707 v 1.66156 c -10e-6,0.37009 0.29941,0.66762 0.6695,0.66762 h 2.15289 c 0.37009,0 0.66762,-0.29753 0.66762,-0.66762 v -1.66156 h 1.06895 v 1.66156 c 0,0.37009 0.29754,0.66762 0.66762,0.66762 h 2.15478 c 0.37008,0 0.66762,-0.29753 0.66762,-0.66762 v -1.66156 h 1.06707 v 1.66156 c 0,0.37009 0.29753,0.66762 0.66762,0.66762 h 2.15477 c 0.37009,0 0.66762,-0.29753 0.66762,-0.66762 v -1.66156 -1.39337 -1.37838 h 2.23541 c 3.83114,0 4.99404,-2.72766 4.99404,-6.1155 v -5.05405 c 0,-7.7218 -7.0788,-13.98069 -15.81103,-13.98069 z"
             sodipodi:nodetypes="ssssccssssccssssccssssccsssscccssss" />
          <path
             style="stroke-width:1.74112;"
             d="m 585.57053,849.67396 q 0,0 2.19806,-1.04119 h 0.11559 v 1.04119 q 0,1.52704 0.83292,2.51037 1.00647,1.19159 2.69553,1.19159 1.65428,0 2.69548,-1.19159 0.82136,-0.93705 0.82136,-2.39468 0,-1.27256 -0.76355,-2.16335 -0.94861,-1.08745 -2.77645,-1.08745 -1.58492,0 -2.56824,0.50885 l -2.41777,-1.16843 1.93192,-8.12118 h 8.01706 v 0.11558 l -0.93705,1.9898 h -5.32159 l -1.41141,5.15962 q 1.28411,-0.62471 2.70708,-0.62471 2.6261,0 4.21096,1.37665 1.64274,1.42296 1.64274,3.9912 0,2.36001 -1.5502,4.0143 -1.58486,1.67745 -4.2804,1.67745 -2.69547,0 -4.28038,-1.67745 -1.56176,-1.65428 -1.56176,-4.10684 z"
             id="text2042-0-7"
             aria-label="5" />
        </g>
      </g>
    </g>
  </g>
</svg>
