<?xml version="1.0" encoding="UTF-8" standalone="no"?>
<!-- Created with Inkscape (http://www.inkscape.org/) -->

<svg
   width="9.375mm"
   height="9.375mm"
   viewBox="0 0 9.375 9.375"
   version="1.1"
   id="svg9630"
   inkscape:version="1.3 (0e150ed6c4, 2023-07-21)"
   sodipodi:docname="SchadenMisserfolg.svg"
   xmlns:inkscape="http://www.inkscape.org/namespaces/inkscape"
   xmlns:sodipodi="http://sodipodi.sourceforge.net/DTD/sodipodi-0.dtd"
   xmlns="http://www.w3.org/2000/svg"
   xmlns:svg="http://www.w3.org/2000/svg">
  <sodipodi:namedview
     id="namedview9632"
     pagecolor="#ffffff"
     bordercolor="#666666"
     borderopacity="1.0"
     inkscape:pageshadow="2"
     inkscape:pageopacity="0.0"
     inkscape:pagecheckerboard="0"
     inkscape:document-units="mm"
     showgrid="false"
     fit-margin-top="0"
     fit-margin-left="0"
     fit-margin-right="0"
     fit-margin-bottom="0"
     inkscape:zoom="18.101616"
     inkscape:cx="9.4466703"
     inkscape:cy="16.158778"
     inkscape:window-width="1920"
     inkscape:window-height="1009"
     inkscape:window-x="1912"
     inkscape:window-y="-8"
     inkscape:window-maximized="1"
     inkscape:current-layer="g2693"
     inkscape:showpageshadow="2"
     inkscape:deskcolor="#d1d1d1" />
  <defs
     id="defs9627" />
  <g
     inkscape:label="Ebene 1"
     inkscape:groupmode="layer"
     id="layer1"
     transform="translate(-94.863725,-83.949471)">
    <g
       id="g2700">
      <g
         id="g2693">
        <g
           id="g1">
          <path
             style="color:#000000;fill:#000000;-inkscape-stroke:none"
             d="m 99.970703,84.402344 -0.703125,1.835937 -2.414062,-0.892578 0.800781,1.796875 -2.337891,1.074219 1.835938,0.705078 -0.892578,2.412109 1.796875,-0.800781 1.076171,2.337891 0.703125,-1.835938 2.412113,0.892578 -0.80078,-1.796875 2.33789,-1.074218 -1.83594,-0.703125 0.89258,-2.414063 -1.79688,0.800781 z m 0.03516,1.058593 0.83594,1.820313 1.27539,-0.568359 -0.69336,1.878906 1.30273,0.498047 -1.82031,0.83789 0.57031,1.275391 -1.878901,-0.693359 -0.5,1.302734 -0.83789,-1.820313 -1.275391,0.56836 0.695312,-1.876953 -1.304687,-0.5 1.820312,-0.837891 -0.568359,-1.275391 1.878906,0.695313 z"
             id="path3800-6"
             sodipodi:nodetypes="cccccccccccccccccccccccccccccccccc" />
          <rect
             y="83.949471"
             x="94.863724"
             height="9.375"
             width="9.375"
             id="rect3798-9"
             style="fill:none;stroke-width:0.264583" />
          <path
             style="font-size:4.30328px;line-height:1.25;font-family:'Nova Round';-inkscape-font-specification:'Nova Round, Normal';letter-spacing:0px;word-spacing:0px;fill:#000000;stroke-width:0.324031"
             d="m 98.465078,89.207556 q 0,0 0.40907,-0.19377 h 0.0215 v 0.19377 q 0,0.28419 0.15501,0.46719 0.18731,0.22176 0.50165,0.22176 0.30787,0 0.501642,-0.22176 0.15286,-0.17439 0.15286,-0.44566 0,-0.23683 -0.1421,-0.40261 -0.176542,-0.20238 -0.516712,-0.20238 -0.29496,0 -0.47796,0.0947 l -0.44996,-0.21745 0.35954,-1.51139 h 1.492012 v 0.0215 l -0.17439,0.37031 h -0.990372 l -0.26267,0.96023 q 0.23898,-0.11626 0.5038,-0.11626 0.488732,0 0.783682,0.2562 0.30572,0.26482 0.30572,0.74278 0,0.43921 -0.2885,0.74708 -0.29495,0.31218 -0.796602,0.31218 -0.50164,0 -0.7966,-0.31218 -0.29065,-0.30787 -0.29065,-0.7643 z"
             id="text2042-0"
             aria-label="5" />
          <rect
             y="83.949471"
             x="94.863724"
             height="9.375"
             width="9.375"
             id="rect2462-9"
             style="fill:none;stroke-width:0.264583" />
        </g>
      </g>
    </g>
  </g>
</svg>
