<?xml version="1.0" encoding="UTF-8" standalone="no"?>
<!-- Created with Inkscape (http://www.inkscape.org/) -->

<svg
   width="9.375mm"
   height="9.375mm"
   viewBox="0 0 9.375 9.375"
   version="1.1"
   id="svg15686"
   inkscape:version="1.4.3 (0d15f75, 2025-12-25)"
   sodipodi:docname="SchadenAutomatisch.svg"
   xmlns:inkscape="http://www.inkscape.org/namespaces/inkscape"
   xmlns:sodipodi="http://sodipodi.sourceforge.net/DTD/sodipodi-0.dtd"
   xmlns="http://www.w3.org/2000/svg"
   xmlns:svg="http://www.w3.org/2000/svg">
  <sodipodi:namedview
     id="namedview15688"
     pagecolor="#ffffff"
     bordercolor="#666666"
     borderopacity="1.0"
     inkscape:pageshadow="2"
     inkscape:pageopacity="0.0"
     inkscape:pagecheckerboard="0"
     inkscape:document-units="mm"
     showgrid="false"
     fit-margin-top="0"
     fit-margin-left="0"
     fit-margin-right="0"
     fit-margin-bottom="0"
     inkscape:zoom="12.799775"
     inkscape:cx="12.148651"
     inkscape:cy="24.101985"
     inkscape:window-width="2560"
     inkscape:window-height="1369"
     inkscape:window-x="2552"
     inkscape:window-y="-8"
     inkscape:window-maximized="1"
     inkscape:current-layer="g974"
     inkscape:showpageshadow="2"
     inkscape:deskcolor="#d1d1d1" />
  <defs
     id="defs15683" />
  <g
     inkscape:label="Ebene 1"
     inkscape:groupmode="layer"
     id="layer1"
     transform="translate(-100.32085,-143.97787)">
    <g
       id="g981">
      <rect
         y="143.97787"
         x="100.32085"
         height="9.375"
         width="9.375"
         id="rect3798"
         style="fill:none;stroke-width:0.264583" />
      <g
         id="g974">
        <g
           id="g1">
          <rect
             y="143.97787"
             x="100.32085"
             height="9.375"
             width="9.375"
             id="rect12"
             style="fill:none;stroke-width:0.264583" />
          <path
             id="path15"
             style="fill:#000000;stroke-width:0.345776;stroke-linecap:round;stroke-linejoin:round;stroke-dashoffset:6.38929"
             d="m 105.00834,144.49749 c -2.40623,0 -4.35684,1.72468 -4.35684,3.85248 v 1.39268 c 0,0.93355 0.32043,1.68517 1.37614,1.68517 h 0.61598 v 0.76378 0.45785 c 0,0.10198 0.082,0.18397 0.18397,0.18397 h 0.59376 c 0.10198,0 0.18397,-0.082 0.18397,-0.18397 v -0.45785 h 0.29404 v 0.45785 c 0,0.10198 0.0825,0.18397 0.18448,0.18397 h 0.59325 c 0.10198,0 0.18397,-0.082 0.18397,-0.18397 v -0.45785 h 0.29455 v 0.45785 c 0,0.10198 0.082,0.18397 0.18397,0.18397 h 0.59377 c 0.10197,0 0.18396,-0.082 0.18396,-0.18397 v -0.45785 h 0.29404 v 0.45785 c 0,0.10198 0.082,0.18397 0.18397,0.18397 h 0.59376 c 0.10198,0 0.18397,-0.082 0.18397,-0.18397 v -0.45785 -0.38396 -0.37982 h 0.61598 c 1.0557,0 1.37615,-0.75162 1.37615,-1.68517 v -1.39268 c 0,-2.1278 -1.95062,-3.85248 -4.35684,-3.85248 z"
             sodipodi:nodetypes="ssssccssssccssssccssssccsssscccssss" />
          <path
             d="m 103.46265,149.53769 0.58155,-0.27547 h 0.0306 v 0.73458 q 0,0.2112 0.37035,0.35812 0.25711,0.101 0.56319,0.101 0.30608,0 0.56318,-0.101 0.37036,-0.14692 0.37036,-0.35812 v -0.89068 q 0,-0.21426 -0.37036,-0.35812 -0.2571,-0.101 -0.56318,-0.101 -0.42239,0 -0.68256,0.13467 l -0.6397,-0.30914 0.51115,-2.14867 h 2.12112 v 0.0306 l -0.24792,0.52645 h -1.40796 l -0.37342,1.36511 q 0.28159,-0.14997 0.71929,-0.14997 0.46218,0 0.8509,0.16222 0.69479,0.28771 0.69479,0.84784 v 0.89068 q 0,0.55707 -0.69479,0.84784 -0.38872,0.16222 -0.8509,0.16222 -0.46218,0 -0.8509,-0.16222 -0.6948,-0.28771 -0.6948,-0.84784 z"
             id="text1"
             style="font-size:6.26849px;line-height:1;font-family:'Nova Flat';-inkscape-font-specification:'Nova Flat, Normal';text-align:center;letter-spacing:-0.522374px;word-spacing:1.04474px;text-anchor:middle;fill:#ffffff;stroke-width:1.265;stroke-linecap:round;stroke-linejoin:round;paint-order:markers stroke fill"
             aria-label="5" />
        </g>
      </g>
    </g>
  </g>
</svg>
