<?xml version="1.0" encoding="UTF-8" standalone="no"?>
<!-- Created with Inkscape (http://www.inkscape.org/) -->

<svg
   width="9.375mm"
   height="9.375mm"
   viewBox="0 0 9.375 9.375"
   version="1.1"
   id="svg9630"
   inkscape:version="1.3 (0e150ed6c4, 2023-07-21)"
   sodipodi:docname="SchadenMisserfolg.svg"
   xmlns:inkscape="http://www.inkscape.org/namespaces/inkscape"
   xmlns:sodipodi="http://sodipodi.sourceforge.net/DTD/sodipodi-0.dtd"
   xmlns="http://www.w3.org/2000/svg"
   xmlns:svg="http://www.w3.org/2000/svg">
  <sodipodi:namedview
     id="namedview9632"
     pagecolor="#ffffff"
     bordercolor="#666666"
     borderopacity="1.0"
     inkscape:pageshadow="2"
     inkscape:pageopacity="0.0"
     inkscape:pagecheckerboard="0"
     inkscape:document-units="mm"
     showgrid="false"
     fit-margin-top="0"
     fit-margin-left="0"
     fit-margin-right="0"
     fit-margin-bottom="0"
     inkscape:zoom="9.0508081"
     inkscape:cx="32.151825"
     inkscape:cy="41.377521"
     inkscape:window-width="1920"
     inkscape:window-height="1009"
     inkscape:window-x="1912"
     inkscape:window-y="-8"
     inkscape:window-maximized="1"
     inkscape:current-layer="g2693"
     inkscape:showpageshadow="2"
     inkscape:deskcolor="#d1d1d1" />
  <defs
     id="defs9627" />
  <g
     inkscape:label="Ebene 1"
     inkscape:groupmode="layer"
     id="layer1"
     transform="translate(-94.863725,-83.949471)">
    <g
       id="g2700">
      <g
         id="g2693">
        <g
           id="g2">
          <rect
             y="83.949471"
             x="94.863724"
             height="9.375"
             width="9.375"
             id="rect3798"
             style="fill:none;stroke-width:0.264583" />
          <g
             id="g1">
            <path
               style="color:#000000;fill:#000000;-inkscape-stroke:none"
               d="m 36.708984,179.83398 -1.148437,7.2793 -9.921875,-1.44726 4.335937,5.95898 -8.039062,5.99219 7.279297,1.14843 -1.447266,9.92188 5.958984,-4.33594 5.994141,8.03906 1.146484,-7.27929 9.921875,1.44726 -4.335937,-5.95898 8.039062,-5.99219 -7.279296,-1.14844 1.447265,-9.92187 -5.958984,4.33594 z m 0.65625,2.65821 5.111328,6.85937 4.767579,-3.46875 -1.234375,8.46289 5.826171,0.91797 -6.861328,5.11133 0.310547,0.42578 3.160156,4.3418 -8.464843,-1.23438 -0.916016,5.82227 -5.113281,-6.85742 -4.767578,3.4707 1.236328,-8.46484 -5.824219,-0.91797 6.857422,-5.11133 -3.46875,-4.76758 8.462891,1.23438 z"
               id="path3800"
               transform="matrix(0.2595344,0.05520118,-0.05520118,0.2595344,100.51098,35.664372)" />
            <path
               style="font-size:4.30328px;line-height:1.25;font-family:'Nova Round';-inkscape-font-specification:'Nova Round, Normal';letter-spacing:0px;word-spacing:0px;fill:#000000;stroke-width:0.324031"
               d="m 98.465056,89.207517 q 0,0 0.409065,-0.193767 h 0.02153 v 0.193767 q 0,0.284194 0.155016,0.467196 0.187308,0.221756 0.501642,0.221756 0.307876,0 0.501641,-0.221756 0.15286,-0.174391 0.15286,-0.445666 0,-0.236827 -0.1421,-0.402606 -0.176536,-0.20238 -0.516707,-0.20238 -0.294958,0 -0.477961,0.09473 L 98.62007,88.50134 98.979618,86.989951 h 1.492012 v 0.02153 l -0.17439,0.370312 h -0.990369 l -0.262664,0.960227 q 0.23898,-0.116261 0.503796,-0.116261 0.488727,0 0.783677,0.256205 0.30572,0.264816 0.30572,0.742777 0,0.439206 -0.2885,0.747082 -0.29495,0.312181 -0.796591,0.312181 -0.501642,0 -0.796601,-0.312181 -0.290652,-0.307876 -0.290652,-0.764306 z"
               id="text2042"
               aria-label="5" />
          </g>
          <rect
             y="83.949471"
             x="94.863724"
             height="9.375"
             width="9.375"
             id="rect2462"
             style="fill:none;stroke-width:0.264583" />
        </g>
      </g>
    </g>
  </g>
</svg>
