<?xml version="1.0" encoding="UTF-8" standalone="no"?>
<!-- Created with Inkscape (http://www.inkscape.org/) -->

<svg
   width="9.375mm"
   height="9.375mm"
   viewBox="0 0 9.375 9.375"
   version="1.1"
   id="svg15686"
   inkscape:version="1.3.1 (91b66b0783, 2023-11-16)"
   sodipodi:docname="SchadenAutomatisch.svg"
   xmlns:inkscape="http://www.inkscape.org/namespaces/inkscape"
   xmlns:sodipodi="http://sodipodi.sourceforge.net/DTD/sodipodi-0.dtd"
   xmlns="http://www.w3.org/2000/svg"
   xmlns:svg="http://www.w3.org/2000/svg">
  <sodipodi:namedview
     id="namedview15688"
     pagecolor="#ffffff"
     bordercolor="#666666"
     borderopacity="1.0"
     inkscape:pageshadow="2"
     inkscape:pageopacity="0.0"
     inkscape:pagecheckerboard="0"
     inkscape:document-units="mm"
     showgrid="false"
     fit-margin-top="0"
     fit-margin-left="0"
     fit-margin-right="0"
     fit-margin-bottom="0"
     inkscape:zoom="4.525404"
     inkscape:cx="-1.4363358"
     inkscape:cy="21.545038"
     inkscape:window-width="1920"
     inkscape:window-height="1009"
     inkscape:window-x="1912"
     inkscape:window-y="-8"
     inkscape:window-maximized="1"
     inkscape:current-layer="g974"
     inkscape:showpageshadow="2"
     inkscape:deskcolor="#d1d1d1" />
  <defs
     id="defs15683" />
  <g
     inkscape:label="Ebene 1"
     inkscape:groupmode="layer"
     id="layer1"
     transform="translate(-100.32085,-143.97787)">
    <g
       id="g981">
      <rect
         y="143.97787"
         x="100.32085"
         height="9.375"
         width="9.375"
         id="rect3798"
         style="fill:none;stroke-width:0.264583" />
      <g
         id="g974">
        <g
           id="g15"
           transform="matrix(0.26458333,0,0,0.26458333,-51.468042,-75.332917)">
          <rect
             y="828.89117"
             x="573.69031"
             height="35.433071"
             width="35.433071"
             id="rect12"
             style="fill:none" />
          <path
             id="path15"
             style="fill:#000000;stroke-width:1.30687;stroke-linecap:round;stroke-linejoin:round;stroke-dashoffset:6.38929"
             d="m 591.40679,830.8551 c -9.0944,0 -16.4668,6.51848 -16.4668,14.56055 v 5.26367 c 0,3.52836 1.21111,6.36914 5.20118,6.36914 h 2.32812 v 2.88672 1.73047 c 0,0.38544 0.30988,0.69531 0.69531,0.69531 h 2.24414 c 0.38544,0 0.69532,-0.30987 0.69532,-0.69531 v -1.73047 h 1.11133 v 1.73047 c -10e-6,0.38544 0.31182,0.69531 0.69726,0.69531 h 2.24219 c 0.38544,0 0.69531,-0.30987 0.69531,-0.69531 v -1.73047 h 1.11328 v 1.73047 c 0,0.38544 0.30988,0.69531 0.69531,0.69531 h 2.24415 c 0.38543,0 0.69531,-0.30987 0.69531,-0.69531 v -1.73047 h 1.11133 v 1.73047 c 0,0.38544 0.30987,0.69531 0.69531,0.69531 h 2.24414 c 0.38544,0 0.69531,-0.30987 0.69531,-0.69531 v -1.73047 -1.45117 -1.43555 h 2.32813 c 3.99003,0 5.20117,-2.84078 5.20117,-6.36914 v -5.26367 c 0,-8.04207 -7.3724,-14.56055 -16.4668,-14.56055 z"
             sodipodi:nodetypes="ssssccssssccssssccssssccsssscccssss" />
          <path
             style="font-size:4.30328px;line-height:1.25;font-family:'Nova Round';-inkscape-font-specification:'Nova Round, Normal';letter-spacing:0px;word-spacing:0px;fill:#ffffff;stroke-width:1.74113"
             d="m 585.57046,849.67398 q 0,0 2.19809,-1.04119 h 0.11557 v 1.04119 q 0,1.52707 0.83293,2.51039 1.00648,1.1916 2.69555,1.1916 1.65429,0 2.69555,-1.1916 0.82137,-0.93707 0.82137,-2.39469 0,-1.27257 -0.76355,-2.16338 -0.94868,-1.08745 -2.77654,-1.08745 -1.58492,0 -2.56823,0.50885 l -2.41781,-1.16843 1.93194,-8.12124 h 8.01716 v 0.11558 l -0.93707,1.98982 h -5.32166 l -1.41142,5.15964 q 1.28412,-0.62469 2.70709,-0.62469 2.62619,0 4.21106,1.37665 1.64273,1.42298 1.64273,3.99122 0,2.36002 -1.5502,4.01433 -1.58487,1.67745 -4.28048,1.67745 -2.69549,0 -4.2804,-1.67745 -1.56178,-1.65431 -1.56178,-4.10685 z"
             id="text2042-0-2"
             aria-label="5" />
        </g>
      </g>
    </g>
  </g>
</svg>
