<?xml version="1.0" encoding="UTF-8" standalone="no"?>
<!-- Created with Inkscape (http://www.inkscape.org/) -->

<svg
   width="9.375mm"
   height="9.375mm"
   viewBox="0 0 9.375 9.375"
   version="1.1"
   id="svg15686"
   inkscape:version="1.3 (0e150ed6c4, 2023-07-21)"
   sodipodi:docname="SchadenAutomatisch.svg"
   xmlns:inkscape="http://www.inkscape.org/namespaces/inkscape"
   xmlns:sodipodi="http://sodipodi.sourceforge.net/DTD/sodipodi-0.dtd"
   xmlns="http://www.w3.org/2000/svg"
   xmlns:svg="http://www.w3.org/2000/svg">
  <sodipodi:namedview
     id="namedview15688"
     pagecolor="#ffffff"
     bordercolor="#666666"
     borderopacity="1.0"
     inkscape:pageshadow="2"
     inkscape:pageopacity="0.0"
     inkscape:pagecheckerboard="0"
     inkscape:document-units="mm"
     showgrid="false"
     fit-margin-top="0"
     fit-margin-left="0"
     fit-margin-right="0"
     fit-margin-bottom="0"
     inkscape:zoom="6.3998877"
     inkscape:cx="15.000263"
     inkscape:cy="8.6720272"
     inkscape:window-width="1920"
     inkscape:window-height="1009"
     inkscape:window-x="1912"
     inkscape:window-y="-8"
     inkscape:window-maximized="1"
     inkscape:current-layer="g974"
     inkscape:showpageshadow="2"
     inkscape:deskcolor="#d1d1d1" />
  <defs
     id="defs15683" />
  <g
     inkscape:label="Ebene 1"
     inkscape:groupmode="layer"
     id="layer1"
     transform="translate(-100.32085,-143.97787)">
    <g
       id="g981">
      <rect
         y="143.97787"
         x="100.32085"
         height="9.375"
         width="9.375"
         id="rect3798"
         style="fill:none;stroke-width:0.264583" />
      <g
         id="g974">
        <path
           transform="matrix(0.2915935,0.06201993,-0.06201993,0.2915935,105.98205,89.079488)"
           inkscape:transform-center-y="-1.0345173"
           inkscape:transform-center-x="1.5502266"
           inkscape:randomized="0"
           inkscape:rounded="0"
           inkscape:flatsided="false"
           sodipodi:arg2="0.70681145"
           sodipodi:arg1="0.52807446"
           sodipodi:r2="14.994771"
           sodipodi:r1="8.6827774"
           sodipodi:cy="196.1122"
           sodipodi:cx="38.214287"
           sodipodi:sides="8"
           id="path3800"
           style="fill:#d40000;fill-opacity:1;stroke:none;stroke-width:2.087;stroke-linejoin:round;stroke-miterlimit:4;stroke-dasharray:none;stroke-opacity:1"
           sodipodi:type="star"
           d="m 45.714287,200.4872 3.90257,5.36279 -9.192862,-1.3409 -1.032531,6.5516 -5.552177,-7.44849 -5.36279,3.90257 1.340897,-9.19286 -6.551599,-1.03253 7.448492,-5.55218 -3.90257,-5.36279 9.192861,1.34089 1.032532,-6.55159 5.552177,7.44849 5.36279,-3.90257 -1.340897,9.19286 6.551599,1.03253 z" />
        <path
           d="m 103.90217,149.1914 q 0,0 0.39923,-0.18911 h 0.021 v 0.18911 q 0,0.27736 0.15129,0.45596 0.1828,0.21643 0.48958,0.21643 0.30047,0 0.48958,-0.21643 0.14919,-0.17019 0.14919,-0.43495 0,-0.23113 -0.13868,-0.39292 -0.1723,-0.19752 -0.50429,-0.19752 -0.28787,0 -0.46647,0.0925 l -0.43915,-0.21223 0.3509,-1.47505 h 1.45614 v 0.021 l -0.1702,0.3614 h -0.96656 l -0.25635,0.93714 q 0.23324,-0.11346 0.49169,-0.11346 0.47697,0 0.76484,0.25004 0.29837,0.25845 0.29837,0.72492 0,0.42865 -0.28156,0.72912 -0.28787,0.30468 -0.77745,0.30468 -0.48958,0 -0.77745,-0.30468 -0.28366,-0.30047 -0.28366,-0.74593 z"
           id="text2042"
           style="font-size:4.30328px;line-height:1.25;font-family:'Nova Round';-inkscape-font-specification:'Nova Round, Normal';letter-spacing:0px;word-spacing:0px;fill:#ffffff;stroke-width:0.264583"
           aria-label="5" />
      </g>
    </g>
  </g>
</svg>
