<?xml version="1.0" encoding="UTF-8" standalone="no"?>
<!-- Created with Inkscape (http://www.inkscape.org/) -->

<svg
   width="9.375mm"
   height="9.375mm"
   viewBox="0 0 9.375 9.375"
   version="1.1"
   id="svg15686"
   inkscape:version="1.3 (0e150ed6c4, 2023-07-21)"
   sodipodi:docname="SchadenAutomatisch.svg"
   xmlns:inkscape="http://www.inkscape.org/namespaces/inkscape"
   xmlns:sodipodi="http://sodipodi.sourceforge.net/DTD/sodipodi-0.dtd"
   xmlns="http://www.w3.org/2000/svg"
   xmlns:svg="http://www.w3.org/2000/svg">
  <sodipodi:namedview
     id="namedview15688"
     pagecolor="#ffffff"
     bordercolor="#666666"
     borderopacity="1.0"
     inkscape:pageshadow="2"
     inkscape:pageopacity="0.0"
     inkscape:pagecheckerboard="0"
     inkscape:document-units="mm"
     showgrid="false"
     fit-margin-top="0"
     fit-margin-left="0"
     fit-margin-right="0"
     fit-margin-bottom="0"
     inkscape:zoom="18.101616"
     inkscape:cx="10.385813"
     inkscape:cy="19.694374"
     inkscape:window-width="1920"
     inkscape:window-height="1009"
     inkscape:window-x="1912"
     inkscape:window-y="-8"
     inkscape:window-maximized="1"
     inkscape:current-layer="g974"
     inkscape:showpageshadow="2"
     inkscape:deskcolor="#d1d1d1" />
  <defs
     id="defs15683" />
  <g
     inkscape:label="Ebene 1"
     inkscape:groupmode="layer"
     id="layer1"
     transform="translate(-100.32085,-143.97787)">
    <g
       id="g981">
      <rect
         y="143.97787"
         x="100.32085"
         height="9.375"
         width="9.375"
         id="rect3798"
         style="fill:none;stroke-width:0.264583" />
      <g
         id="g974">
        <g
           id="g1">
          <path
             style="color:#000000;fill:#000000;-inkscape-stroke:none"
             d="m 36.708984,179.83398 -1.148437,7.2793 -9.921875,-1.44726 4.335937,5.95898 -8.039062,5.99219 7.279297,1.14843 -1.447266,9.92188 5.958984,-4.33594 5.994141,8.03906 1.146484,-7.27929 9.921875,1.44726 -4.335937,-5.95898 8.039062,-5.99219 -7.279296,-1.14844 1.447265,-9.92187 -5.958984,4.33594 z m 2.355469,29.89649 -9.880859,-3.38672 z"
             id="path3800"
             transform="matrix(0.2595344,0.05520118,-0.05520118,0.2595344,105.91605,95.658035)"
             sodipodi:nodetypes="cccccccccccccccccccc" />
          <rect
             y="143.97787"
             x="100.32085"
             height="9.375"
             width="9.375"
             id="rect3798-9"
             style="fill:none;stroke-width:0.264583" />
          <path
             style="font-size:4.30328px;line-height:1.25;font-family:'Nova Round';-inkscape-font-specification:'Nova Round, Normal';letter-spacing:0px;word-spacing:0px;fill:#ffffff;stroke-width:0.324031"
             d="m 103.9222,149.23596 q 0,0 0.40907,-0.19377 h 0.0215 v 0.19377 q 0,0.28419 0.15501,0.46719 0.18731,0.22176 0.50165,0.22176 0.30787,0 0.50164,-0.22176 0.15286,-0.17439 0.15286,-0.44566 0,-0.23683 -0.1421,-0.40261 -0.17654,-0.20238 -0.51671,-0.20238 -0.29496,0 -0.47796,0.0947 l -0.44996,-0.21745 0.35954,-1.51139 h 1.49201 v 0.0215 l -0.17439,0.37031 h -0.99037 l -0.26267,0.96023 q 0.23898,-0.11626 0.5038,-0.11626 0.48873,0 0.78368,0.2562 0.30572,0.26482 0.30572,0.74278 0,0.43921 -0.2885,0.74708 -0.29495,0.31218 -0.7966,0.31218 -0.50164,0 -0.7966,-0.31218 -0.29065,-0.30787 -0.29065,-0.7643 z"
             id="text2042"
             aria-label="5" />
          <rect
             y="143.97787"
             x="100.32085"
             height="9.375"
             width="9.375"
             id="rect2462"
             style="fill:none;stroke-width:0.264583" />
        </g>
      </g>
    </g>
  </g>
</svg>
