<?xml version="1.0" encoding="UTF-8" standalone="no"?>
<!-- Created with Inkscape (http://www.inkscape.org/) -->

<svg
   width="9.375mm"
   height="9.375mm"
   viewBox="0 0 9.375 9.375"
   version="1.1"
   id="svg15686"
   inkscape:version="1.3 (0e150ed6c4, 2023-07-21)"
   sodipodi:docname="SchadenAutomatisch.svg"
   xmlns:inkscape="http://www.inkscape.org/namespaces/inkscape"
   xmlns:sodipodi="http://sodipodi.sourceforge.net/DTD/sodipodi-0.dtd"
   xmlns="http://www.w3.org/2000/svg"
   xmlns:svg="http://www.w3.org/2000/svg">
  <sodipodi:namedview
     id="namedview15688"
     pagecolor="#ffffff"
     bordercolor="#666666"
     borderopacity="1.0"
     inkscape:pageshadow="2"
     inkscape:pageopacity="0.0"
     inkscape:pagecheckerboard="0"
     inkscape:document-units="mm"
     showgrid="false"
     fit-margin-top="0"
     fit-margin-left="0"
     fit-margin-right="0"
     fit-margin-bottom="0"
     inkscape:zoom="25.599551"
     inkscape:cx="15.664337"
     inkscape:cy="13.965089"
     inkscape:window-width="1920"
     inkscape:window-height="1009"
     inkscape:window-x="1912"
     inkscape:window-y="-8"
     inkscape:window-maximized="1"
     inkscape:current-layer="g974"
     inkscape:showpageshadow="2"
     inkscape:deskcolor="#d1d1d1" />
  <defs
     id="defs15683" />
  <g
     inkscape:label="Ebene 1"
     inkscape:groupmode="layer"
     id="layer1"
     transform="translate(-100.32085,-143.97787)">
    <g
       id="g981">
      <rect
         y="143.97787"
         x="100.32085"
         height="9.375"
         width="9.375"
         id="rect3798"
         style="fill:none;stroke-width:0.264583" />
      <g
         id="g974">
        <g
           id="g1">
          <path
             style="color:#000000;fill:#000000;-inkscape-stroke:none"
             d="m 105.42783,144.43074 -0.70313,1.83594 -2.41406,-0.89258 0.80078,1.79688 -2.33789,1.07422 1.83594,0.70507 -0.89258,2.41211 1.79688,-0.80078 1.07617,2.33789 0.70312,-1.83594 2.41212,0.89258 -0.80078,-1.79687 2.33789,-1.07422 -1.83594,-0.70313 0.89258,-2.41406 -1.79688,0.80078 z"
             id="path3800-6"
             sodipodi:nodetypes="ccccccccccccccccc" />
          <rect
             y="143.97787"
             x="100.32085"
             height="9.375"
             width="9.375"
             id="rect3798-9"
             style="fill:none;stroke-width:0.264583" />
          <path
             style="font-size:4.30328px;line-height:1.25;font-family:'Nova Round';-inkscape-font-specification:'Nova Round, Normal';letter-spacing:0px;word-spacing:0px;fill:#ffffff;stroke-width:0.324031"
             d="m 103.9222,149.23595 q 0,0 0.40907,-0.19377 h 0.0215 v 0.19377 q 0,0.28419 0.15501,0.46719 0.18731,0.22176 0.50165,0.22176 0.30787,0 0.50165,-0.22176 0.15286,-0.17439 0.15286,-0.44566 0,-0.23683 -0.1421,-0.40261 -0.17655,-0.20238 -0.51672,-0.20238 -0.29496,0 -0.47796,0.0947 l -0.44996,-0.21745 0.35954,-1.51139 h 1.49202 v 0.0215 l -0.17439,0.37031 h -0.99038 l -0.26267,0.96023 q 0.23898,-0.11626 0.5038,-0.11626 0.48874,0 0.78369,0.2562 0.30572,0.26482 0.30572,0.74278 0,0.43921 -0.2885,0.74708 -0.29495,0.31218 -0.79661,0.31218 -0.50164,0 -0.7966,-0.31218 -0.29065,-0.30787 -0.29065,-0.7643 z"
             id="text2042-0"
             aria-label="5" />
          <rect
             y="143.97787"
             x="100.32085"
             height="9.375"
             width="9.375"
             id="rect2462-9"
             style="fill:none;stroke-width:0.264583" />
        </g>
      </g>
    </g>
  </g>
</svg>
