<?xml version="1.0" encoding="UTF-8" standalone="no"?>
<!-- Created with Inkscape (http://www.inkscape.org/) -->

<svg
   width="9.375mm"
   height="9.375mm"
   viewBox="0 0 9.375 9.375"
   version="1.1"
   id="svg9630"
   inkscape:version="1.4.3 (0d15f75, 2025-12-25)"
   sodipodi:docname="SchadenMisserfolg.svg"
   xmlns:inkscape="http://www.inkscape.org/namespaces/inkscape"
   xmlns:sodipodi="http://sodipodi.sourceforge.net/DTD/sodipodi-0.dtd"
   xmlns="http://www.w3.org/2000/svg"
   xmlns:svg="http://www.w3.org/2000/svg">
  <sodipodi:namedview
     id="namedview9632"
     pagecolor="#ffffff"
     bordercolor="#666666"
     borderopacity="1.0"
     inkscape:pageshadow="2"
     inkscape:pageopacity="0.0"
     inkscape:pagecheckerboard="0"
     inkscape:document-units="mm"
     showgrid="false"
     fit-margin-top="0"
     fit-margin-left="0"
     fit-margin-right="0"
     fit-margin-bottom="0"
     inkscape:zoom="8"
     inkscape:cx="14.4375"
     inkscape:cy="24.1875"
     inkscape:window-width="2560"
     inkscape:window-height="1369"
     inkscape:window-x="2552"
     inkscape:window-y="-8"
     inkscape:window-maximized="1"
     inkscape:current-layer="g2693"
     inkscape:showpageshadow="2"
     inkscape:deskcolor="#d1d1d1"
     showguides="true" />
  <defs
     id="defs9627" />
  <g
     inkscape:label="Ebene 1"
     inkscape:groupmode="layer"
     id="layer1"
     transform="translate(-94.863725,-83.949471)">
    <g
       id="g2700">
      <g
         id="g2693">
        <g
           id="g1">
          <rect
             y="83.949471"
             x="94.863724"
             height="9.375"
             width="9.375"
             id="rect15"
             style="fill:none;stroke-width:0.264583" />
          <path
             id="path16"
             style="fill:none;stroke:#000000;stroke-width:0.332007;stroke-linecap:round;stroke-linejoin:round;stroke-dashoffset:6.38929"
             d="m 99.551227,84.634995 c -2.3104,0 -4.183332,1.655998 -4.183332,3.699058 v 1.337217 c 0,0.896366 0.307676,1.61806 1.321342,1.61806 h 0.59145 v 0.733359 0.439621 c 0,0.09792 0.07872,0.176641 0.176641,0.176641 h 0.570116 c 0.09792,0 0.176644,-0.07872 0.176644,-0.176641 v -0.439621 h 0.282329 v 0.439621 c -3e-6,0.09792 0.07922,0.176641 0.177138,0.176641 h 0.569619 c 0.09792,0 0.176641,-0.07872 0.176641,-0.176641 v -0.439621 h 0.282826 v 0.439621 c 0,0.09792 0.07873,0.176641 0.176642,0.176641 h 0.570117 c 0.0979,0 0.17664,-0.07872 0.17664,-0.176641 v -0.439621 h 0.28233 v 0.439621 c 0,0.09792 0.0787,0.176641 0.17664,0.176641 h 0.57012 c 0.0979,0 0.17664,-0.07872 0.17664,-0.176641 V 92.022689 91.654026 91.28933 h 0.59145 c 1.01366,0 1.32134,-0.721694 1.32134,-1.61806 v -1.337217 c 0,-2.04306 -1.87293,-3.699058 -4.183333,-3.699058 z"
             sodipodi:nodetypes="ssssccssssccssssccssssccsssscccssss" />
          <path
             d="m 98.005527,89.509298 0.581549,-0.275471 h 0.03061 v 0.734589 q 0,0.211194 0.370355,0.358112 0.257106,0.101005 0.563185,0.101005 0.306078,0 0.563186,-0.101005 0.37035,-0.146918 0.37035,-0.358112 v -0.890689 q 0,-0.214255 -0.37035,-0.358112 -0.257108,-0.101006 -0.563186,-0.101006 -0.422389,0 -0.682556,0.134674 l -0.639704,-0.309139 0.511151,-2.148672 h 2.121125 v 0.03061 l -0.24792,0.526455 h -1.407965 l -0.373416,1.365111 q 0.281592,-0.149979 0.719285,-0.149979 0.462176,0 0.850896,0.162222 0.6948,0.287714 0.6948,0.847838 v 0.890689 q 0,0.557063 -0.6948,0.847837 -0.38872,0.162222 -0.850896,0.162222 -0.462179,0 -0.850899,-0.162222 -0.694798,-0.287714 -0.694798,-0.847837 z"
             id="text1"
             style="font-size:6.26849px;line-height:1;font-family:'Nova Flat';-inkscape-font-specification:'Nova Flat, Normal';text-align:center;letter-spacing:-0.522374px;word-spacing:1.04475px;text-anchor:middle;stroke-width:1.265;stroke-linecap:round;stroke-linejoin:round;paint-order:markers stroke fill"
             aria-label="5" />
        </g>
      </g>
    </g>
  </g>
</svg>
