<?xml version="1.0" encoding="UTF-8" standalone="no"?>
<!-- Created with Inkscape (http://www.inkscape.org/) -->

<svg
   width="9.375mm"
   height="9.375mm"
   viewBox="0 0 9.375 9.375"
   version="1.1"
   id="svg9630"
   inkscape:version="1.3 (0e150ed6c4, 2023-07-21)"
   sodipodi:docname="WirkungsabstandBerührung.svg"
   xmlns:inkscape="http://www.inkscape.org/namespaces/inkscape"
   xmlns:sodipodi="http://sodipodi.sourceforge.net/DTD/sodipodi-0.dtd"
   xmlns="http://www.w3.org/2000/svg"
   xmlns:svg="http://www.w3.org/2000/svg">
  <sodipodi:namedview
     id="namedview9632"
     pagecolor="#ffffff"
     bordercolor="#666666"
     borderopacity="1.0"
     inkscape:pageshadow="2"
     inkscape:pageopacity="0.0"
     inkscape:pagecheckerboard="0"
     inkscape:document-units="mm"
     showgrid="false"
     fit-margin-top="0"
     fit-margin-left="0"
     fit-margin-right="0"
     fit-margin-bottom="0"
     inkscape:zoom="9.0508084"
     inkscape:cx="14.142383"
     inkscape:cy="18.617122"
     inkscape:window-width="1920"
     inkscape:window-height="1009"
     inkscape:window-x="1912"
     inkscape:window-y="-8"
     inkscape:window-maximized="1"
     inkscape:current-layer="layer1"
     inkscape:showpageshadow="2"
     inkscape:deskcolor="#d1d1d1" />
  <defs
     id="defs9627" />
  <g
     inkscape:label="Ebene 1"
     inkscape:groupmode="layer"
     id="layer1"
     transform="translate(-94.863725,-83.949471)">
    <g
       id="g1">
      <rect
         y="83.949471"
         x="94.863724"
         height="9.375"
         width="9.375"
         id="rect2254"
         style="fill:none;stroke-width:0.264583" />
      <path
         id="path15049"
         style="color:#000000;fill:#000000;stroke:none;stroke-width:0.152048;stroke-linecap:round;stroke-miterlimit:4;stroke-dasharray:none"
         d="m 96.282302,85.085728 a 0.57798994,0.57774746 0 0 0 -0.28899,0.07787 0.57798994,0.57774746 0 0 0 -0.211666,0.789324 l 2.041028,3.533622 a 0.57798994,0.57774746 0 0 0 0.0091,0.01192 c 0.0057,0.01078 0.01077,0.02197 0.01695,0.03273 l 0.174411,0.301853 -1.104614,-0.637552 a 0.57798994,0.57774746 0 0 0 -0.789661,0.211575 0.57798994,0.57774746 0 0 0 0.211669,0.789326 l 2.846487,1.642971 a 0.57798994,0.57774746 0 0 0 0.06265,0.02763 c 0.358962,0.346822 0.915004,0.429528 1.369894,0.167002 l 2.20416,-1.27228 c 0.55066,-0.317788 0.73786,-1.016377 0.41994,-1.566803 l -1.18814,-2.057095 v -7.61e-4 l -0.0147,-0.02539 -0.77893,-1.349019 a 0.57798994,0.57774746 0 0 0 -0.78966,-0.211579 0.57798994,0.57774746 0 0 0 -0.21166,0.789326 l 0.2049,0.354889 -0.0621,0.0361 -0.36294,-0.627403 a 0.57798994,0.57774746 0 0 0 -0.350516,-0.269125 0.57798994,0.57774746 0 0 0 -0.438571,0.05755 0.57798994,0.57774746 0 0 0 -0.21167,0.789326 l 0.362376,0.627396 -0.06265,0.03612 -0.445349,-0.771276 a 0.57798994,0.57774746 0 0 0 -0.351083,-0.269125 0.57798994,0.57774746 0 0 0 -0.43857,0.05811 0.57798994,0.57774746 0 0 0 -0.211667,0.78876 l 0.445908,0.771834 -0.06265,0.03612 -1.492952,-2.58463 a 0.57798994,0.57774746 0 0 0 -0.351085,-0.269691 0.57798994,0.57774746 0 0 0 -0.149578,-0.01977 z" />
    </g>
  </g>
</svg>
