<?xml version="1.0" encoding="UTF-8" standalone="no"?>
<!-- Created with Inkscape (http://www.inkscape.org/) -->

<svg
   width="9.375mm"
   height="9.375mm"
   viewBox="0 0 9.375 9.375"
   version="1.1"
   id="svg9630"
   inkscape:version="1.3 (0e150ed6c4, 2023-07-21)"
   sodipodi:docname="ZielBereich.svg"
   xmlns:inkscape="http://www.inkscape.org/namespaces/inkscape"
   xmlns:sodipodi="http://sodipodi.sourceforge.net/DTD/sodipodi-0.dtd"
   xmlns="http://www.w3.org/2000/svg"
   xmlns:svg="http://www.w3.org/2000/svg">
  <sodipodi:namedview
     id="namedview9632"
     pagecolor="#ffffff"
     bordercolor="#666666"
     borderopacity="1.0"
     inkscape:pageshadow="2"
     inkscape:pageopacity="0.0"
     inkscape:pagecheckerboard="0"
     inkscape:document-units="mm"
     showgrid="false"
     fit-margin-top="0"
     fit-margin-left="0"
     fit-margin-right="0"
     fit-margin-bottom="0"
     inkscape:zoom="18.101616"
     inkscape:cx="18.340904"
     inkscape:cy="21.185954"
     inkscape:window-width="1920"
     inkscape:window-height="1009"
     inkscape:window-x="1912"
     inkscape:window-y="-8"
     inkscape:window-maximized="1"
     inkscape:current-layer="layer1"
     inkscape:showpageshadow="2"
     inkscape:deskcolor="#d1d1d1" />
  <defs
     id="defs9627" />
  <g
     inkscape:label="Ebene 1"
     inkscape:groupmode="layer"
     id="layer1"
     transform="translate(-94.863725,-83.949471)">
    <g
       id="g2">
      <rect
         y="83.949471"
         x="94.863724"
         height="9.375"
         width="9.375"
         id="rect2462"
         style="fill:none;stroke-width:0.264583" />
      <g
         id="g1"
         transform="matrix(1.4246666,0,0,1.4246666,-42.276077,-37.64116)">
        <path
           id="path7100"
           style="stroke-width:0.764646;stroke-linecap:round;paint-order:stroke fill markers;stop-color:#000000"
           d="m 101.38261,87.508334 c 0,1.011444 -1.831385,4.08867 -1.831385,4.08867 0,0 -1.831379,-3.077226 -1.831379,-4.08867 0,-1.011447 0.819935,-1.83138 1.831379,-1.831382 1.011445,0 1.831385,0.819935 1.831385,1.831382 z"
           sodipodi:nodetypes="scsss" />
        <path
           id="path7300"
           style="fill:#ffffff;stroke-width:0.764646;stroke-linecap:round;paint-order:stroke fill markers;stop-color:#000000"
           d="m 100.27526,87.508337 a 0.72403416,0.72403416 0 0 1 -0.724035,0.724035 0.72403416,0.72403416 0 0 1 -0.724032,-0.724035 0.72403416,0.72403416 0 0 1 0.724032,-0.724035 0.72403416,0.72403416 0 0 1 0.724035,0.724035 z" />
      </g>
    </g>
  </g>
</svg>
