<?xml version="1.0" encoding="UTF-8" standalone="no"?>
<!-- Created with Inkscape (http://www.inkscape.org/) -->

<svg
   width="9.375mm"
   height="9.375mm"
   viewBox="0 0 9.375 9.375"
   version="1.1"
   id="svg9630"
   inkscape:version="1.1.1 (3bf5ae0d25, 2021-09-20)"
   sodipodi:docname="ZielGegner.svg"
   xmlns:inkscape="http://www.inkscape.org/namespaces/inkscape"
   xmlns:sodipodi="http://sodipodi.sourceforge.net/DTD/sodipodi-0.dtd"
   xmlns="http://www.w3.org/2000/svg"
   xmlns:svg="http://www.w3.org/2000/svg">
  <sodipodi:namedview
     id="namedview9632"
     pagecolor="#ffffff"
     bordercolor="#666666"
     borderopacity="1.0"
     inkscape:pageshadow="2"
     inkscape:pageopacity="0.0"
     inkscape:pagecheckerboard="0"
     inkscape:document-units="mm"
     showgrid="false"
     fit-margin-top="0"
     fit-margin-left="0"
     fit-margin-right="0"
     fit-margin-bottom="0"
     inkscape:zoom="6.3998878"
     inkscape:cx="18.828455"
     inkscape:cy="14.453378"
     inkscape:window-width="1920"
     inkscape:window-height="1027"
     inkscape:window-x="-8"
     inkscape:window-y="-8"
     inkscape:window-maximized="1"
     inkscape:current-layer="layer1" />
  <defs
     id="defs9627" />
  <g
     inkscape:label="Ebene 1"
     inkscape:groupmode="layer"
     id="layer1"
     transform="translate(-94.863725,-83.949471)">
    <g
       id="g2448"
       transform="matrix(0.26458333,0,0,0.26458333,16.326651,-79.790452)">
      <rect
         y="618.85956"
         x="296.83304"
         height="35.433071"
         width="35.433071"
         id="rect2438"
         style="fill:none" />
      <g
         id="g13935"
         transform="translate(36.108544,-111.47885)">
        <rect
           style="fill:none;stroke:#000000;stroke-width:2.89;stroke-linecap:round;stroke-miterlimit:4;stroke-dasharray:none;paint-order:stroke fill markers;stop-color:#000000"
           id="rect11750"
           width="30.110001"
           height="30.110001"
           x="263.38602"
           y="732.99994"
           ry="2.7954218" />
        <g
           id="g13927">
          <g
             id="g11756"
             transform="translate(-57.965012,0.51726183)">
            <path
               id="circle11752"
               style="stroke-width:2.89;stroke-linecap:round;paint-order:stroke fill markers;stop-color:#000000"
               d="m 408.44141,740.61914 a 3.0052035,3.0052035 0 0 0 -0.95313,2.18359 3.0052035,3.0052035 0 0 0 3.00586,3.00586 3.0052035,3.0052035 0 0 0 2.91406,-2.32031 z"
               transform="translate(-80.274353,-0.51726183)" />
            <path
               id="circle11754"
               style="stroke-width:2.89;stroke-linecap:round;paint-order:stroke fill markers;stop-color:#000000"
               d="m 424.92773,740.61523 -4.97656,2.87305 a 3.0052035,3.0052035 0 0 0 2.91602,2.32031 3.0052035,3.0052035 0 0 0 3.00586,-3.00586 3.0052035,3.0052035 0 0 0 -0.94532,-2.1875 z"
               transform="translate(-80.274353,-0.51726183)" />
          </g>
          <path
             style="fill:none;stroke:#000000;stroke-width:2.89;stroke-linecap:butt;stroke-linejoin:miter;stroke-miterlimit:4;stroke-dasharray:none;stroke-opacity:1"
             d="m 269.86734,755.03763 c 0,0 5.71578,-3.0494 8.57367,-3.0494 2.85789,0 8.57367,3.0494 8.57367,3.0494"
             id="path11758"
             sodipodi:nodetypes="csc" />
        </g>
      </g>
    </g>
  </g>
</svg>
