<?xml version="1.0" encoding="UTF-8" standalone="no"?>
<!-- Created with Inkscape (http://www.inkscape.org/) -->

<svg
   width="9.375mm"
   height="9.375mm"
   viewBox="0 0 9.375 9.375"
   version="1.1"
   id="svg9630"
   inkscape:version="1.3.1 (91b66b0783, 2023-11-16)"
   sodipodi:docname="ZielNutzer.svg"
   xmlns:inkscape="http://www.inkscape.org/namespaces/inkscape"
   xmlns:sodipodi="http://sodipodi.sourceforge.net/DTD/sodipodi-0.dtd"
   xmlns="http://www.w3.org/2000/svg"
   xmlns:svg="http://www.w3.org/2000/svg">
  <sodipodi:namedview
     id="namedview9632"
     pagecolor="#ffffff"
     bordercolor="#666666"
     borderopacity="1.0"
     inkscape:pageshadow="2"
     inkscape:pageopacity="0.0"
     inkscape:pagecheckerboard="0"
     inkscape:document-units="mm"
     showgrid="false"
     fit-margin-top="0"
     fit-margin-left="0"
     fit-margin-right="0"
     fit-margin-bottom="0"
     inkscape:zoom="12.799776"
     inkscape:cx="27.617671"
     inkscape:cy="17.461243"
     inkscape:window-width="1920"
     inkscape:window-height="1009"
     inkscape:window-x="1912"
     inkscape:window-y="-8"
     inkscape:window-maximized="1"
     inkscape:current-layer="g1"
     inkscape:showpageshadow="2"
     inkscape:deskcolor="#d1d1d1" />
  <defs
     id="defs9627" />
  <g
     inkscape:label="Ebene 1"
     inkscape:groupmode="layer"
     id="layer1"
     transform="translate(-94.863725,-83.949471)">
    <g
       id="g1">
      <g
         id="g25"
         transform="matrix(0.26458333,0,0,0.26458333,-21.939585,-130.497)">
        <rect
           y="810.50635"
           x="441.46133"
           height="35.433071"
           width="35.433071"
           id="rect24"
           style="fill:none" />
        <g
           id="g24"
           transform="matrix(0.70400039,0,0,0.70400039,116.29874,297.11371)">
          <circle
             style="fill:#000000;stroke:none;stroke-width:6.02442;stroke-linecap:round;stroke-miterlimit:4;stroke-dasharray:none;paint-order:stroke fill markers;stop-color:#000000"
             id="circle20"
             cx="487.04388"
             cy="754.41541"
             r="8.8594551" />
          <path
             id="circle21"
             style="color:#000000;fill:#000000;stroke-linecap:round;-inkscape-stroke:none;paint-order:stroke fill markers"
             d="m 487.04297,731.74023 c -0.4937,8.1e-4 -0.89373,0.40084 -0.89453,0.89454 v 3.90625 c -9.16188,0.45268 -16.52496,7.81678 -16.97852,16.97851 h -3.92383 c -0.49523,-2.7e-4 -0.89675,0.40126 -0.89648,0.89649 8.1e-4,0.49446 0.40202,0.8948 0.89648,0.89453 h 3.92383 c 0.45261,9.16251 7.81599,16.5259 16.97852,16.97851 v 3.90625 c -2.7e-4,0.49446 0.40007,0.89568 0.89453,0.89649 0.49523,2.7e-4 0.89675,-0.40126 0.89648,-0.89649 v -3.90625 c 9.16174,-0.45355 16.52583,-7.81664 16.97852,-16.97851 h 3.92383 c 0.49446,2.7e-4 0.89567,-0.40007 0.89648,-0.89453 2.7e-4,-0.49523 -0.40125,-0.89676 -0.89648,-0.89649 h -3.92383 c -0.45363,-9.16108 -7.81743,-16.52488 -16.97852,-16.97851 v -3.90625 c -8.1e-4,-0.49446 -0.40202,-0.89481 -0.89648,-0.89454 z m 0,6.57032 c 8.90513,0 16.10547,7.20033 16.10547,16.10547 0,8.90513 -7.20034,16.10351 -16.10547,16.10351 -8.90513,0 -16.10352,-7.19838 -16.10352,-16.10351 0,-8.90514 7.19839,-16.10547 16.10352,-16.10547 z" />
        </g>
      </g>
    </g>
  </g>
</svg>
