<?xml version="1.0" encoding="UTF-8" standalone="no"?>
<!-- Created with Inkscape (http://www.inkscape.org/) -->

<svg
   width="9.375mm"
   height="9.375mm"
   viewBox="0 0 9.375 9.375"
   version="1.1"
   id="svg9630"
   inkscape:version="1.3 (0e150ed6c4, 2023-07-21)"
   sodipodi:docname="ZielModell.svg"
   xmlns:inkscape="http://www.inkscape.org/namespaces/inkscape"
   xmlns:sodipodi="http://sodipodi.sourceforge.net/DTD/sodipodi-0.dtd"
   xmlns="http://www.w3.org/2000/svg"
   xmlns:svg="http://www.w3.org/2000/svg">
  <sodipodi:namedview
     id="namedview9632"
     pagecolor="#ffffff"
     bordercolor="#666666"
     borderopacity="1.0"
     inkscape:pageshadow="2"
     inkscape:pageopacity="0.0"
     inkscape:pagecheckerboard="0"
     inkscape:document-units="mm"
     showgrid="false"
     fit-margin-top="0"
     fit-margin-left="0"
     fit-margin-right="0"
     fit-margin-bottom="0"
     inkscape:zoom="12.799776"
     inkscape:cx="13.437735"
     inkscape:cy="19.726908"
     inkscape:window-width="1920"
     inkscape:window-height="1009"
     inkscape:window-x="1912"
     inkscape:window-y="-8"
     inkscape:window-maximized="1"
     inkscape:current-layer="layer1"
     inkscape:showpageshadow="2"
     inkscape:deskcolor="#d1d1d1" />
  <defs
     id="defs9627" />
  <g
     inkscape:label="Ebene 1"
     inkscape:groupmode="layer"
     id="layer1"
     transform="translate(-94.863725,-83.949471)">
    <g
       id="g1">
      <path
         style="fill:#000000;fill-opacity:1;stroke:none;stroke-width:0.0622365;stroke-linecap:round;stroke-linejoin:round;stroke-miterlimit:4;stroke-dasharray:none;stroke-opacity:1"
         d="m 99.55122,84.326198 a 0.86961979,0.86961979 0 0 0 -0.869636,0.869636 0.86961979,0.86961979 0 0 0 0.869636,0.869634 0.86961979,0.86961979 0 0 0 0.86964,-0.869634 0.86961979,0.86961979 0 0 0 -0.86964,-0.869636 z m -1.155754,2.026932 v 0.0078 c -0.341306,0.05041 -0.601594,0.343079 -0.601594,0.698831 v 2.391449 c 0,0.355757 0.260288,0.648353 0.601594,0.698766 v 2.797787 h 2.311514 v -2.797787 c 0.34131,-0.05041 0.6016,-0.343009 0.6016,-0.698766 v -2.391449 c 0,-0.355752 -0.26029,-0.648423 -0.6016,-0.698831 v -0.0078 h -0.10499 -2.101619 z"
         id="path3"
         inkscape:connector-curvature="0" />
      <rect
         y="83.949471"
         x="94.863724"
         height="9.375"
         width="9.375"
         id="rect4"
         style="fill:none;stroke-width:0.264583" />
    </g>
  </g>
</svg>
