<?xml version="1.0" encoding="UTF-8" standalone="no"?>
<!-- Created with Inkscape (http://www.inkscape.org/) -->

<svg
   width="9.375mm"
   height="9.375mm"
   viewBox="0 0 9.375 9.375"
   version="1.1"
   id="svg9630"
   inkscape:version="1.3 (0e150ed6c4, 2023-07-21)"
   sodipodi:docname="ZielModell.svg"
   xmlns:inkscape="http://www.inkscape.org/namespaces/inkscape"
   xmlns:sodipodi="http://sodipodi.sourceforge.net/DTD/sodipodi-0.dtd"
   xmlns="http://www.w3.org/2000/svg"
   xmlns:svg="http://www.w3.org/2000/svg">
  <sodipodi:namedview
     id="namedview9632"
     pagecolor="#ffffff"
     bordercolor="#666666"
     borderopacity="1.0"
     inkscape:pageshadow="2"
     inkscape:pageopacity="0.0"
     inkscape:pagecheckerboard="0"
     inkscape:document-units="mm"
     showgrid="false"
     fit-margin-top="0"
     fit-margin-left="0"
     fit-margin-right="0"
     fit-margin-bottom="0"
     inkscape:zoom="6.399888"
     inkscape:cx="7.1876258"
     inkscape:cy="19.765971"
     inkscape:window-width="1920"
     inkscape:window-height="1009"
     inkscape:window-x="1912"
     inkscape:window-y="-8"
     inkscape:window-maximized="1"
     inkscape:current-layer="layer1"
     inkscape:showpageshadow="2"
     inkscape:deskcolor="#d1d1d1" />
  <defs
     id="defs9627" />
  <g
     inkscape:label="Ebene 1"
     inkscape:groupmode="layer"
     id="layer1"
     transform="translate(-94.863725,-83.949471)">
    <g
       id="g7"
       transform="matrix(0.26458333,0,0,0.26458333,22.065892,-104.86032)">
      <path
         style="fill:#000000;fill-opacity:1;stroke:none;stroke-width:0.174316;stroke-linecap:round;stroke-linejoin:round;stroke-miterlimit:4;stroke-dasharray:none;stroke-opacity:1"
         d="m 292.85794,719.25449 a 2.4356859,2.4356859 0 0 0 -2.43573,2.43573 2.4356859,2.4356859 0 0 0 2.43573,2.43573 2.4356859,2.4356859 0 0 0 2.43574,-2.43573 2.4356859,2.4356859 0 0 0 -2.43574,-2.43573 z m -3.23711,5.67716 v 0.0218 c -0.95595,0.14119 -1.68498,0.96092 -1.68498,1.95733 v 6.69812 c 0,0.99643 0.72903,1.81595 1.68498,1.95715 v 7.83622 h 6.47423 v -7.83622 c 0.95595,-0.1412 1.68498,-0.96072 1.68498,-1.95715 v -6.69812 c 0,-0.99641 -0.72903,-1.81614 -1.68498,-1.95733 v -0.0218 h -0.29394 -5.88635 z"
         id="path3"
         inkscape:connector-curvature="0" />
      <rect
         y="713.61182"
         x="275.14142"
         height="35.433071"
         width="35.433071"
         id="rect4"
         style="fill:none" />
      <rect
         style="fill:none;stroke:#000000;stroke-width:2.89;stroke-linecap:round;stroke-miterlimit:4;stroke-dasharray:none;paint-order:stroke fill markers;stop-color:#000000"
         id="rect5"
         width="30.110001"
         height="30.110001"
         x="277.80295"
         y="716.27338"
         ry="2.7954218" />
    </g>
  </g>
</svg>
