<?xml version="1.0" encoding="UTF-8" standalone="no"?>
<svg
   xmlns:dc="http://purl.org/dc/elements/1.1/"
   xmlns:cc="http://creativecommons.org/ns#"
   xmlns:rdf="http://www.w3.org/1999/02/22-rdf-syntax-ns#"
   xmlns:svg="http://www.w3.org/2000/svg"
   xmlns="http://www.w3.org/2000/svg"
   xmlns:sodipodi="http://sodipodi.sourceforge.net/DTD/sodipodi-0.dtd"
   xmlns:inkscape="http://www.inkscape.org/namespaces/inkscape"
   sodipodi:docname="beine.svg"
   inkscape:version="1.0 (4035a4fb49, 2020-05-01)"
   id="svg1623"
   version="1.1"
   viewBox="0 0 11.527487 9.3749809"
   height="9.3749809mm"
   width="11.527487mm">
  <defs
     id="defs1617" />
  <sodipodi:namedview
     inkscape:window-maximized="1"
     inkscape:window-y="-8"
     inkscape:window-x="-8"
     inkscape:window-height="1027"
     inkscape:window-width="1920"
     fit-margin-bottom="0"
     fit-margin-right="0"
     fit-margin-left="0"
     fit-margin-top="0"
     showgrid="false"
     inkscape:document-rotation="0"
     inkscape:current-layer="layer1"
     inkscape:document-units="mm"
     inkscape:cy="0.31822008"
     inkscape:cx="1.5408437"
     inkscape:zoom="3.959798"
     inkscape:pageshadow="2"
     inkscape:pageopacity="0.0"
     borderopacity="1.0"
     bordercolor="#666666"
     pagecolor="#ffffff"
     id="base" />
  <metadata
     id="metadata1620">
    <rdf:RDF>
      <cc:Work
         rdf:about="">
        <dc:format>image/svg+xml</dc:format>
        <dc:type
           rdf:resource="http://purl.org/dc/dcmitype/StillImage" />
        <dc:title></dc:title>
      </cc:Work>
    </rdf:RDF>
  </metadata>
  <g
     transform="translate(-98.557686,-73.175604)"
     id="layer1"
     inkscape:groupmode="layer"
     inkscape:label="Ebene 1">
    <g
       style="fill:#808080"
       id="g2026"
       transform="matrix(0.08802799,0,0,0.08802799,74.129921,-28.804822)">
      <path
         sodipodi:nodetypes="ccccccc"
         d="m 277.49997,1158.5 h 35 l 20,53.25 -20,53.25 h -35 l 20,-53.25 z"
         style="fill:#808080;stroke:none;stroke-width:14.6082;stroke-linecap:butt;stroke-linejoin:miter;stroke-miterlimit:4;stroke-dasharray:43.8247, 14.6082;stroke-dashoffset:0;paint-order:markers fill stroke"
         id="path2018" />
      <path
         id="path2020"
         style="fill:#808080;stroke:none;stroke-width:14.6082;stroke-linecap:butt;stroke-linejoin:miter;stroke-miterlimit:4;stroke-dasharray:43.8247, 14.6082;stroke-dashoffset:0;paint-order:markers fill stroke"
         d="m 324.49997,1158.5 h 15 l 20,53.25 -20,53.25 h -15 l 20,-53.25 z"
         sodipodi:nodetypes="ccccccc" />
      <path
         sodipodi:nodetypes="ccccccc"
         d="m 354.99997,1158.5 h 15 l 20,53.25 -20,53.25 h -15 l 20,-53.25 z"
         style="fill:#808080;stroke:none;stroke-width:14.6082;stroke-linecap:butt;stroke-linejoin:miter;stroke-miterlimit:4;stroke-dasharray:43.8247, 14.6082;stroke-dashoffset:0;paint-order:markers fill stroke"
         id="path2022" />
      <path
         id="path2024"
         style="fill:#808080;stroke:none;stroke-width:14.6082;stroke-linecap:butt;stroke-linejoin:miter;stroke-miterlimit:4;stroke-dasharray:43.8247, 14.6082;stroke-dashoffset:0;paint-order:markers fill stroke"
         d="m 354.99997,1158.5 h 15 l 20,53.25 -20,53.25 h -15 l 20,-53.25 z"
         sodipodi:nodetypes="ccccccc" />
    </g>
    <g
       id="g2486"
       transform="matrix(0.26923902,0,0,0.26923902,-26.157313,-299.40482)">
      <path
         sodipodi:nodetypes="ccssccccsccscccscccccsscsssccscccc"
         d="m 489.60427,1386.4355 c -1.72038,3.4565 -2.78569,4.5767 -3.98174,7.2245 -1.04392,1.8243 -1.67567,2.5393 -3.4187,3.8727 -1.4319,1.0953 -2.35097,1.964 -3.20579,3.0245 -0.44777,0.5556 -1.06138,1.8627 -1.35129,2.3349 l -1.02579,1.6714 -0.35366,-0.1547 -0.19002,0.2322 c -0.10478,0.1286 -0.38914,0.5715 -0.6299,0.9853 l -0.43811,0.7531 0.70379,0.4592 c 0.39247,0.2432 1.69015,0.9527 2.80992,1.7085 1.11981,0.7556 2.59466,1.51 3.12134,1.8193 l 0.95716,0.5631 0.27096,-0.072 c 0.14796,-0.04 0.41512,-0.1872 0.59471,-0.3273 0.40076,-0.3124 0.6116,-0.7417 1.51316,-0.01 0.82684,0.675 1.24057,1.0785 2.16594,2.1096 1.5358,1.6938 3.54201,2.3849 5.74123,3.4723 1.19763,0.5809 4.71175,0.4401 7.0626,0.4593 2.09892,-0.1015 3.98301,0.082 4.41809,-0.4452 0.13802,-0.1641 0.17067,-0.2677 0.17067,-0.5524 0,-0.3059 0.0416,-0.4831 -0.21113,-0.5807 -0.23158,-0.089 -0.34497,-0.1086 -0.43636,-0.1161 l -0.12492,-2.5055 c -0.0617,-1.2385 -1.23179,-1.8785 -2.69555,-2.3014 -0.91273,-0.2638 -3.04791,-0.078 -3.44157,-0.3643 -1.28725,-0.9346 -1.95354,-2.1675 -2.50552,-4.2959 0,0 -0.15762,-0.2885 -0.25512,-0.8621 l -0.26393,-0.8657 c -0.252,-0.8274 -0.27651,-0.8732 -0.31319,-1.4375 0.98105,-3.5003 3.90305,-7.4446 5.02863,-11.1887 -4.00501,-1.9761 -7.08009,-3.8118 -9.71591,-4.6115 z"
         style="fill:#000000;stroke:#ffffff;stroke-width:2.94812;stroke-miterlimit:4;stroke-dasharray:none"
         id="path2482" />
      <path
         id="path2465"
         style="fill:#000000;stroke-width:0.900861"
         d="m 489.60427,1386.4355 c -1.72038,3.4565 -2.78569,4.5767 -3.98174,7.2245 -1.04392,1.8243 -1.67567,2.5393 -3.4187,3.8727 -1.4319,1.0953 -2.35097,1.964 -3.20579,3.0245 -0.44777,0.5556 -1.06138,1.8627 -1.35129,2.3349 l -1.02579,1.6714 -0.35366,-0.1547 -0.19002,0.2322 c -0.10478,0.1286 -0.38914,0.5715 -0.6299,0.9853 l -0.43811,0.7531 0.70379,0.4592 c 0.39247,0.2432 1.69015,0.9527 2.80992,1.7085 1.11981,0.7556 2.59466,1.51 3.12134,1.8193 l 0.95716,0.5631 0.27096,-0.072 c 0.14796,-0.04 0.41512,-0.1872 0.59471,-0.3273 0.40076,-0.3124 0.6116,-0.7417 1.51316,-0.01 0.82684,0.675 1.24057,1.0785 2.16594,2.1096 1.5358,1.6938 3.54201,2.3849 5.74123,3.4723 1.19763,0.5809 4.71175,0.4401 7.0626,0.4593 2.09892,-0.1015 3.98301,0.082 4.41809,-0.4452 0.13802,-0.1641 0.17067,-0.2677 0.17067,-0.5524 0,-0.3059 0.0416,-0.4831 -0.21113,-0.5807 -0.23158,-0.089 -0.34497,-0.1086 -0.43636,-0.1161 l -0.12492,-2.5055 c -0.0617,-1.2385 -1.23179,-1.8785 -2.69555,-2.3014 -0.91273,-0.2638 -3.04791,-0.078 -3.44157,-0.3643 -1.28725,-0.9346 -1.95354,-2.1675 -2.50552,-4.2959 0,0 -0.15762,-0.2885 -0.25512,-0.8621 l -0.26393,-0.8657 c -0.252,-0.8274 -0.27651,-0.8732 -0.31319,-1.4375 0.98105,-3.5003 3.90305,-7.4446 5.02863,-11.1887 -4.00501,-1.9761 -7.08009,-3.8118 -9.71591,-4.6115 z"
         sodipodi:nodetypes="ccssccccsccscccscccccsscsssccscccc" />
    </g>
  </g>
</svg>
