<?xml version="1.0" encoding="UTF-8" standalone="no"?>
<svg
   xmlns:dc="http://purl.org/dc/elements/1.1/"
   xmlns:cc="http://creativecommons.org/ns#"
   xmlns:rdf="http://www.w3.org/1999/02/22-rdf-syntax-ns#"
   xmlns:svg="http://www.w3.org/2000/svg"
   xmlns="http://www.w3.org/2000/svg"
   xmlns:sodipodi="http://sodipodi.sourceforge.net/DTD/sodipodi-0.dtd"
   xmlns:inkscape="http://www.inkscape.org/namespaces/inkscape"
   sodipodi:docname="flug.svg"
   inkscape:version="1.0 (4035a4fb49, 2020-05-01)"
   id="svg3473"
   version="1.1"
   viewBox="0 0 11.485722 9.3749809"
   height="9.3749809mm"
   width="11.485722mm">
  <defs
     id="defs3467" />
  <sodipodi:namedview
     inkscape:window-maximized="1"
     inkscape:window-y="-8"
     inkscape:window-x="-8"
     inkscape:window-height="1027"
     inkscape:window-width="1920"
     fit-margin-bottom="0"
     fit-margin-right="0"
     fit-margin-left="0"
     fit-margin-top="0"
     showgrid="false"
     inkscape:document-rotation="0"
     inkscape:current-layer="layer1"
     inkscape:document-units="mm"
     inkscape:cy="33.146045"
     inkscape:cx="40.090509"
     inkscape:zoom="3.959798"
     inkscape:pageshadow="2"
     inkscape:pageopacity="0.0"
     borderopacity="1.0"
     bordercolor="#666666"
     pagecolor="#ffffff"
     id="base" />
  <metadata
     id="metadata3470">
    <rdf:RDF>
      <cc:Work
         rdf:about="">
        <dc:format>image/svg+xml</dc:format>
        <dc:type
           rdf:resource="http://purl.org/dc/dcmitype/StillImage" />
        <dc:title></dc:title>
      </cc:Work>
    </rdf:RDF>
  </metadata>
  <g
     transform="translate(-125.79285,-107.94941)"
     id="layer1"
     inkscape:groupmode="layer"
     inkscape:label="Ebene 1">
    <g
       style="fill:#808080"
       transform="matrix(0.08802799,0,0,0.08802799,101.36509,5.9689879)"
       id="g2758">
      <path
         id="path2750"
         style="fill:#808080;stroke:none;stroke-width:14.6082;stroke-linecap:butt;stroke-linejoin:miter;stroke-miterlimit:4;stroke-dasharray:43.8247, 14.6082;stroke-dashoffset:0;paint-order:markers fill stroke"
         d="m 277.49997,1158.5 h 35 l 20,53.25 -20,53.25 h -35 l 20,-53.25 z"
         sodipodi:nodetypes="ccccccc" />
      <path
         sodipodi:nodetypes="ccccccc"
         d="m 324.49997,1158.5 h 15 l 20,53.25 -20,53.25 h -15 l 20,-53.25 z"
         style="fill:#808080;stroke:none;stroke-width:14.6082;stroke-linecap:butt;stroke-linejoin:miter;stroke-miterlimit:4;stroke-dasharray:43.8247, 14.6082;stroke-dashoffset:0;paint-order:markers fill stroke"
         id="path2752" />
      <path
         id="path2754"
         style="fill:#808080;stroke:none;stroke-width:14.6082;stroke-linecap:butt;stroke-linejoin:miter;stroke-miterlimit:4;stroke-dasharray:43.8247, 14.6082;stroke-dashoffset:0;paint-order:markers fill stroke"
         d="m 354.99997,1158.5 h 15 l 20,53.25 -20,53.25 h -15 l 20,-53.25 z"
         sodipodi:nodetypes="ccccccc" />
      <path
         sodipodi:nodetypes="ccccccc"
         d="m 354.99997,1158.5 h 15 l 20,53.25 -20,53.25 h -15 l 20,-53.25 z"
         style="fill:#808080;stroke:none;stroke-width:14.6082;stroke-linecap:butt;stroke-linejoin:miter;stroke-miterlimit:4;stroke-dasharray:43.8247, 14.6082;stroke-dashoffset:0;paint-order:markers fill stroke"
         id="path2756" />
    </g>
    <g
       id="g1944"
       transform="matrix(0.26458333,0,0,0.23519552,-14.331146,-247.20089)">
      <g
         id="g1932"
         transform="matrix(0.2969629,0,0,0.43623059,340.30878,813.1446)"
         style="stroke:#ffffff;stroke-width:8.33512;stroke-miterlimit:4;stroke-dasharray:none">
        <path
           id="path1924"
           style="fill:#000000;stroke:#ffffff;stroke-width:8.33512;stroke-linecap:butt;stroke-linejoin:miter;stroke-miterlimit:4;stroke-dasharray:none;stroke-opacity:1"
           d="m 674.38086,1608.1816 c 1.7875,8.6115 6.1707,16.64 17.19922,20.8809 25.38737,9.7624 75.12748,28.8892 75.12748,28.8892 1.65423,0.6362 2.43655,1.8301 2.8608,3.8432 l 3.36794,15.98 5.20097,0.9751 -4.10407,-17.9805 c -1.41068,-6.1804 -3.37967,-7.7248 -5.09765,-8.5254 z"
           sodipodi:nodetypes="csssccssc" />
        <path
           sodipodi:nodetypes="cccsc"
           id="path1926"
           d="m 684.27282,1628.1591 83.5541,32.1077 1.08231,5.1564 -65.78672,-20.4931 c -14.6587,-4.5663 -18.00153,-12.0653 -18.84969,-16.771 z"
           style="fill:#000000;stroke:#ffffff;stroke-width:8.33512;stroke-linecap:butt;stroke-linejoin:miter;stroke-miterlimit:4;stroke-dasharray:none;stroke-opacity:1" />
        <path
           style="fill:#000000;stroke:#ffffff;stroke-width:8.33512;stroke-linecap:butt;stroke-linejoin:miter;stroke-miterlimit:4;stroke-dasharray:none;stroke-opacity:1"
           d="m 691.71255,1643.1842 77.57762,24.1187 0.84508,4.0636 -59.91833,-14.7353 c -14.94429,-3.6752 -18.00632,-9.4791 -18.50437,-13.447 z"
           id="path1928"
           sodipodi:nodetypes="cccsc" />
        <path
           sodipodi:nodetypes="cccsc"
           id="path1930"
           d="m 697.78018,1655.5307 72.77888,17.8737 0.84932,4.084 -55.6766,-10.441 c -12.95041,-2.4286 -16.2812,-7.2376 -17.9516,-11.5167 z"
           style="fill:#000000;stroke:#ffffff;stroke-width:8.33512;stroke-linecap:butt;stroke-linejoin:miter;stroke-miterlimit:4;stroke-dasharray:none;stroke-opacity:1" />
      </g>
      <g
         id="g1892"
         transform="matrix(0.2969629,0,0,0.43623059,340.30878,813.1446)">
        <path
           id="path1884"
           style="fill:#000000;stroke:none;stroke-width:1.20465px;stroke-linecap:butt;stroke-linejoin:miter;stroke-opacity:1"
           d="m 674.38086,1608.1816 c 1.7875,8.6115 6.1707,16.64 17.19922,20.8809 25.38737,9.7624 75.12748,28.8892 75.12748,28.8892 1.65423,0.6362 2.43655,1.8301 2.8608,3.8432 l 3.36794,15.98 5.20097,0.9751 -4.10407,-17.9805 c -1.41068,-6.1804 -3.37967,-7.7248 -5.09765,-8.5254 z"
           sodipodi:nodetypes="csssccssc" />
        <path
           sodipodi:nodetypes="cccsc"
           id="path1886"
           d="m 684.27282,1628.1591 83.5541,32.1077 1.08231,5.1564 -65.78672,-20.4931 c -14.6587,-4.5663 -18.00153,-12.0653 -18.84969,-16.771 z"
           style="fill:#000000;stroke:none;stroke-width:1.20465px;stroke-linecap:butt;stroke-linejoin:miter;stroke-opacity:1" />
        <path
           style="fill:#000000;stroke:none;stroke-width:1.20465px;stroke-linecap:butt;stroke-linejoin:miter;stroke-opacity:1"
           d="m 691.71255,1643.1842 77.57762,24.1187 0.84508,4.0636 -59.91833,-14.7353 c -14.94429,-3.6752 -18.00632,-9.4791 -18.50437,-13.447 z"
           id="path1888"
           sodipodi:nodetypes="cccsc" />
        <path
           sodipodi:nodetypes="cccsc"
           id="path1890"
           d="m 697.78018,1655.5307 72.77888,17.8737 0.84932,4.084 -55.6766,-10.441 c -12.95041,-2.4286 -16.2812,-7.2376 -17.9516,-11.5167 z"
           style="fill:#000000;stroke:none;stroke-width:1.20465px;stroke-linecap:butt;stroke-linejoin:miter;stroke-opacity:1" />
      </g>
    </g>
  </g>
</svg>
