<?xml version="1.0" encoding="UTF-8" standalone="no"?>
<svg
   xmlns:dc="http://purl.org/dc/elements/1.1/"
   xmlns:cc="http://creativecommons.org/ns#"
   xmlns:rdf="http://www.w3.org/1999/02/22-rdf-syntax-ns#"
   xmlns:svg="http://www.w3.org/2000/svg"
   xmlns="http://www.w3.org/2000/svg"
   xmlns:sodipodi="http://sodipodi.sourceforge.net/DTD/sodipodi-0.dtd"
   xmlns:inkscape="http://www.inkscape.org/namespaces/inkscape"
   sodipodi:docname="rad.svg"
   inkscape:version="1.0 (4035a4fb49, 2020-05-01)"
   id="svg2229"
   version="1.1"
   viewBox="0 0 11.489355 9.3749809"
   height="9.3749809mm"
   width="11.489355mm">
  <defs
     id="defs2223" />
  <sodipodi:namedview
     inkscape:window-maximized="1"
     inkscape:window-y="-8"
     inkscape:window-x="-8"
     inkscape:window-height="1027"
     inkscape:window-width="1920"
     fit-margin-bottom="0"
     fit-margin-right="0"
     fit-margin-left="0"
     fit-margin-top="0"
     showgrid="false"
     inkscape:document-rotation="0"
     inkscape:current-layer="layer1"
     inkscape:document-units="mm"
     inkscape:cy="137.55711"
     inkscape:cx="72.733742"
     inkscape:zoom="1.979899"
     inkscape:pageshadow="2"
     inkscape:pageopacity="0.0"
     borderopacity="1.0"
     bordercolor="#666666"
     pagecolor="#ffffff"
     id="base" />
  <metadata
     id="metadata2226">
    <rdf:RDF>
      <cc:Work
         rdf:about="">
        <dc:format>image/svg+xml</dc:format>
        <dc:type
           rdf:resource="http://purl.org/dc/dcmitype/StillImage" />
        <dc:title></dc:title>
      </cc:Work>
    </rdf:RDF>
  </metadata>
  <g
     transform="translate(-94.041037,-104.16965)"
     id="layer1"
     inkscape:groupmode="layer"
     inkscape:label="Ebene 1">
    <g
       transform="matrix(0.08802799,0,0,0.08802799,69.613272,2.189226)"
       id="g2040"
       style="fill:#808080">
      <path
         id="path2032"
         style="fill:#808080;stroke:none;stroke-width:14.6082;stroke-linecap:butt;stroke-linejoin:miter;stroke-miterlimit:4;stroke-dasharray:43.8247, 14.6082;stroke-dashoffset:0;paint-order:markers fill stroke"
         d="m 277.49997,1158.5 h 35 l 20,53.25 -20,53.25 h -35 l 20,-53.25 z"
         sodipodi:nodetypes="ccccccc" />
      <path
         sodipodi:nodetypes="ccccccc"
         d="m 324.49997,1158.5 h 15 l 20,53.25 -20,53.25 h -15 l 20,-53.25 z"
         style="fill:#808080;stroke:none;stroke-width:14.6082;stroke-linecap:butt;stroke-linejoin:miter;stroke-miterlimit:4;stroke-dasharray:43.8247, 14.6082;stroke-dashoffset:0;paint-order:markers fill stroke"
         id="path2034" />
      <path
         id="path2036"
         style="fill:#808080;stroke:none;stroke-width:14.6082;stroke-linecap:butt;stroke-linejoin:miter;stroke-miterlimit:4;stroke-dasharray:43.8247, 14.6082;stroke-dashoffset:0;paint-order:markers fill stroke"
         d="m 354.99997,1158.5 h 15 l 20,53.25 -20,53.25 h -15 l 20,-53.25 z"
         sodipodi:nodetypes="ccccccc" />
      <path
         sodipodi:nodetypes="ccccccc"
         d="m 354.99997,1158.5 h 15 l 20,53.25 -20,53.25 h -15 l 20,-53.25 z"
         style="fill:#808080;stroke:none;stroke-width:14.6082;stroke-linecap:butt;stroke-linejoin:miter;stroke-miterlimit:4;stroke-dasharray:43.8247, 14.6082;stroke-dashoffset:0;paint-order:markers fill stroke"
         id="path2038" />
    </g>
    <g
       id="g2480"
       transform="matrix(0.23810786,0,0,0.23810786,-15.991862,-235.06213)">
      <rect
         y="1426.6418"
         x="471.21359"
         height="35.433071"
         width="35.433071"
         id="rect1976"
         style="fill:none" />
      <path
         style="fill:#000000;stroke:#ffffff;stroke-width:3.33357;stroke-miterlimit:4;stroke-dasharray:none"
         d="m 491.53933,1427.6256 c -1.30438,0.01 -2.54629,0.1088 -3.30933,0.2991 -3.14547,0.7843 -5.92304,2.3138 -8.08237,4.4612 -3.53516,3.5156 -5.21107,7.8639 -4.96398,12.8554 0.14077,2.8438 1.10261,6.1265 2.23379,7.6178 0.21562,0.2843 0.50483,0.7221 0.63641,0.9737 0.13157,0.2516 0.86467,1.1398 1.6292,1.9729 2.46538,2.6863 5.97316,4.5907 9.52066,5.1676 1.60717,0.2614 5.66331,0.066 7.15958,-0.3437 2.95744,-0.8107 5.43134,-2.2939 7.64326,-4.5885 3.35434,-3.4795 4.8705,-7.507 4.67759,-12.3908 -0.17575,-4.4492 -1.75095,-8.0469 -4.91306,-11.2071 -2.16794,-2.1667 -4.64825,-3.5737 -7.796,-4.4294 -0.98057,-0.2666 -2.75872,-0.4014 -4.43575,-0.3882 z m 0.21637,6.7713 c 0.83945,-0.016 1.68999,0.079 2.52653,0.2928 3.06591,0.7841 5.30274,2.6298 6.76501,5.5876 0.95702,1.9358 1.11452,5.1717 0.3564,7.3378 -0.97519,2.7862 -3.64667,5.4161 -6.3959,6.3005 -1.12975,0.3634 -4.5032,0.4655 -5.5431,0.1654 -4.26722,-1.2312 -7.1885,-4.7928 -7.46506,-9.1006 -0.11771,-1.8332 0.16402,-3.2099 1.01188,-4.9767 1.63574,-3.4086 5.10665,-5.5391 8.74424,-5.6068 z m 0.07,0.5283 c -0.42707,0.01 -0.8597,0.049 -1.29827,0.1209 -5.55619,0.9075 -9.04018,6.1163 -7.75144,11.5826 0.41626,1.7656 0.97224,2.7782 2.31016,4.1812 1.30727,1.3708 2.39694,2.0647 4.06028,2.5965 4.62329,1.4783 9.94733,-1.1126 11.65262,-5.6704 2.35451,-6.293 -2.56711,-12.9482 -8.97335,-12.8108 z m -1.14553,1.0946 -0.13364,1.9156 c -0.11827,1.7177 -0.18639,1.9629 -0.6555,2.3737 -0.28774,0.2521 -0.68212,0.4488 -0.87188,0.4392 -0.42474,-0.022 -2.99802,-1.2352 -3.33478,-1.5719 -0.58116,-0.5812 2.4199,-2.7383 4.21302,-3.0293 z m 2.51381,0 0.78278,0.1273 c 1.76492,0.2863 4.57964,2.1572 4.30848,2.8638 -0.0748,0.1949 -0.8147,0.6713 -1.6483,1.0564 -1.78275,0.8237 -2.14003,0.8565 -2.71746,0.2418 -0.34813,-0.3705 -0.4626,-0.8302 -0.57912,-2.3738 z m -1.29191,4.964 c 1.07025,-0.023 2.12356,0.485 2.84474,1.451 0.42692,0.5718 0.67229,2.0806 0.47094,2.8829 -0.16409,0.6538 -1.04802,1.7004 -1.73102,2.0492 -1.12288,0.5735 -2.09249,0.554 -3.25841,-0.07 -2.31331,-1.238 -2.17457,-4.7145 0.23547,-5.9441 0.46626,-0.2378 0.95181,-0.3588 1.43828,-0.3691 z m -7.73871,0.63 c 0.41685,-0.08 2.89151,1.6433 3.20749,2.2338 0.3823,0.7143 0.0465,1.2825 -1.35554,2.291 -0.74398,0.5352 -1.46596,1.0163 -1.60375,1.0692 -0.52475,0.2014 -0.82761,-0.5858 -0.89734,-2.3483 -0.0799,-2.0188 0.14792,-3.1492 0.64914,-3.2457 z m 15.55379,0.01 c 0.18515,0.036 0.41776,0.3385 0.51549,0.6746 0.27064,0.9305 0.25136,3.3681 -0.0318,4.2257 -0.13868,0.4201 -0.3587,0.7614 -0.49003,0.7573 -0.45472,-0.014 -3.07447,-2.0128 -3.24568,-2.4756 -0.0994,-0.2685 -0.0879,-0.6487 0.0254,-0.8973 0.26013,-0.5709 2.79803,-2.3673 3.22659,-2.2847 z m -7.85963,0.1718 c -0.66122,0 -1.30343,0.3126 -1.83922,0.9228 -0.49207,0.5604 -0.62937,0.8977 -0.62367,1.5719 0.004,0.4722 0.11852,1.0557 0.25456,1.2983 0.30491,0.5438 1.12995,1.2053 1.67375,1.3428 0.22351,0.056 0.45313,0.1149 0.50913,0.1273 0.43403,0.096 1.69907,-0.5114 2.1256,-1.0183 0.40885,-0.4858 0.52185,-0.841 0.52185,-1.6419 0,-0.8883 -0.0901,-1.1084 -0.68095,-1.6992 -0.60368,-0.6037 -1.27983,-0.9075 -1.94105,-0.9037 z m 0.0954,0.6173 c 0.48053,-0.03 0.90535,0.1608 1.32372,0.5792 0.78024,0.7802 0.8013,1.7707 0.0636,2.6474 -0.44065,0.5237 -0.66893,0.63 -1.41283,0.63 -0.70855,0 -0.99462,-0.1158 -1.40646,-0.56 -0.88887,-0.9586 -0.64899,-2.4115 0.4964,-3.0038 0.33993,-0.1758 0.6472,-0.2747 0.93552,-0.2928 z m -2.95293,5.5877 c 0.18796,0 0.34314,0.072 0.57276,0.1909 0.74188,0.3836 0.88488,0.8369 0.91642,2.9147 0.0131,0.8671 -0.0696,1.5616 -0.18455,1.5974 -0.31721,0.099 -2.25836,-0.6512 -2.99748,-1.1582 -1.00682,-0.6907 -1.78831,-1.4536 -1.78831,-1.7502 0,-0.1459 0.77087,-0.6369 1.71194,-1.0946 1.04257,-0.5071 1.45594,-0.7023 1.76922,-0.7 z m 5.75948,0.1018 c 0.72249,0 3.58934,1.3677 3.58934,1.7119 0,0.4159 -1.5282,1.6686 -2.74291,2.2529 -1.34156,0.6454 -2.06216,0.8138 -2.24652,0.5155 -0.0806,-0.1305 -0.0795,-1.0193 0,-1.9728 0.15741,-1.8901 0.50057,-2.5075 1.40009,-2.5075 z"
         id="path2475"
         inkscape:connector-curvature="0" />
      <path
         inkscape:connector-curvature="0"
         id="path2469"
         d="m 491.53933,1427.6256 c -1.30438,0.01 -2.54629,0.1088 -3.30933,0.2991 -3.14547,0.7843 -5.92304,2.3138 -8.08237,4.4612 -3.53516,3.5156 -5.21107,7.8639 -4.96398,12.8554 0.14077,2.8438 1.10261,6.1265 2.23379,7.6178 0.21562,0.2843 0.50483,0.7221 0.63641,0.9737 0.13157,0.2516 0.86467,1.1398 1.6292,1.9729 2.46538,2.6863 5.97316,4.5907 9.52066,5.1676 1.60717,0.2614 5.66331,0.066 7.15958,-0.3437 2.95744,-0.8107 5.43134,-2.2939 7.64326,-4.5885 3.35434,-3.4795 4.8705,-7.507 4.67759,-12.3908 -0.17575,-4.4492 -1.75095,-8.0469 -4.91306,-11.2071 -2.16794,-2.1667 -4.64825,-3.5737 -7.796,-4.4294 -0.98057,-0.2666 -2.75872,-0.4014 -4.43575,-0.3882 z m 0.21637,6.7713 c 0.83945,-0.016 1.68999,0.079 2.52653,0.2928 3.06591,0.7841 5.30274,2.6298 6.76501,5.5876 0.95702,1.9358 1.11452,5.1717 0.3564,7.3378 -0.97519,2.7862 -3.64667,5.4161 -6.3959,6.3005 -1.12975,0.3634 -4.5032,0.4655 -5.5431,0.1654 -4.26722,-1.2312 -7.1885,-4.7928 -7.46506,-9.1006 -0.11771,-1.8332 0.16402,-3.2099 1.01188,-4.9767 1.63574,-3.4086 5.10665,-5.5391 8.74424,-5.6068 z m 0.07,0.5283 c -0.42707,0.01 -0.8597,0.049 -1.29827,0.1209 -5.55619,0.9075 -9.04018,6.1163 -7.75144,11.5826 0.41626,1.7656 0.97224,2.7782 2.31016,4.1812 1.30727,1.3708 2.39694,2.0647 4.06028,2.5965 4.62329,1.4783 9.94733,-1.1126 11.65262,-5.6704 2.35451,-6.293 -2.56711,-12.9482 -8.97335,-12.8108 z m -1.14553,1.0946 -0.13364,1.9156 c -0.11827,1.7177 -0.18639,1.9629 -0.6555,2.3737 -0.28774,0.2521 -0.68212,0.4488 -0.87188,0.4392 -0.42474,-0.022 -2.99802,-1.2352 -3.33478,-1.5719 -0.58116,-0.5812 2.4199,-2.7383 4.21302,-3.0293 z m 2.51381,0 0.78278,0.1273 c 1.76492,0.2863 4.57964,2.1572 4.30848,2.8638 -0.0748,0.1949 -0.8147,0.6713 -1.6483,1.0564 -1.78275,0.8237 -2.14003,0.8565 -2.71746,0.2418 -0.34813,-0.3705 -0.4626,-0.8302 -0.57912,-2.3738 z m -1.29191,4.964 c 1.07025,-0.023 2.12356,0.485 2.84474,1.451 0.42692,0.5718 0.67229,2.0806 0.47094,2.8829 -0.16409,0.6538 -1.04802,1.7004 -1.73102,2.0492 -1.12288,0.5735 -2.09249,0.554 -3.25841,-0.07 -2.31331,-1.238 -2.17457,-4.7145 0.23547,-5.9441 0.46626,-0.2378 0.95181,-0.3588 1.43828,-0.3691 z m -7.73871,0.63 c 0.41685,-0.08 2.89151,1.6433 3.20749,2.2338 0.3823,0.7143 0.0465,1.2825 -1.35554,2.291 -0.74398,0.5352 -1.46596,1.0163 -1.60375,1.0692 -0.52475,0.2014 -0.82761,-0.5858 -0.89734,-2.3483 -0.0799,-2.0188 0.14792,-3.1492 0.64914,-3.2457 z m 15.55379,0.01 c 0.18515,0.036 0.41776,0.3385 0.51549,0.6746 0.27064,0.9305 0.25136,3.3681 -0.0318,4.2257 -0.13868,0.4201 -0.3587,0.7614 -0.49003,0.7573 -0.45472,-0.014 -3.07447,-2.0128 -3.24568,-2.4756 -0.0994,-0.2685 -0.0879,-0.6487 0.0254,-0.8973 0.26013,-0.5709 2.79803,-2.3673 3.22659,-2.2847 z m -7.85963,0.1718 c -0.66122,0 -1.30343,0.3126 -1.83922,0.9228 -0.49207,0.5604 -0.62937,0.8977 -0.62367,1.5719 0.004,0.4722 0.11852,1.0557 0.25456,1.2983 0.30491,0.5438 1.12995,1.2053 1.67375,1.3428 0.22351,0.056 0.45313,0.1149 0.50913,0.1273 0.43403,0.096 1.69907,-0.5114 2.1256,-1.0183 0.40885,-0.4858 0.52185,-0.841 0.52185,-1.6419 0,-0.8883 -0.0901,-1.1084 -0.68095,-1.6992 -0.60368,-0.6037 -1.27983,-0.9075 -1.94105,-0.9037 z m 0.0954,0.6173 c 0.48053,-0.03 0.90535,0.1608 1.32372,0.5792 0.78024,0.7802 0.8013,1.7707 0.0636,2.6474 -0.44065,0.5237 -0.66893,0.63 -1.41283,0.63 -0.70855,0 -0.99462,-0.1158 -1.40646,-0.56 -0.88887,-0.9586 -0.64899,-2.4115 0.4964,-3.0038 0.33993,-0.1758 0.6472,-0.2747 0.93552,-0.2928 z m -2.95293,5.5877 c 0.18796,0 0.34314,0.072 0.57276,0.1909 0.74188,0.3836 0.88488,0.8369 0.91642,2.9147 0.0131,0.8671 -0.0696,1.5616 -0.18455,1.5974 -0.31721,0.099 -2.25836,-0.6512 -2.99748,-1.1582 -1.00682,-0.6907 -1.78831,-1.4536 -1.78831,-1.7502 0,-0.1459 0.77087,-0.6369 1.71194,-1.0946 1.04257,-0.5071 1.45594,-0.7023 1.76922,-0.7 z m 5.75948,0.1018 c 0.72249,0 3.58934,1.3677 3.58934,1.7119 0,0.4159 -1.5282,1.6686 -2.74291,2.2529 -1.34156,0.6454 -2.06216,0.8138 -2.24652,0.5155 -0.0806,-0.1305 -0.0795,-1.0193 0,-1.9728 0.15741,-1.8901 0.50057,-2.5075 1.40009,-2.5075 z"
         style="fill:#000000" />
    </g>
  </g>
</svg>
