<?xml version="1.0" encoding="UTF-8" standalone="no"?>
<svg
   xmlns:dc="http://purl.org/dc/elements/1.1/"
   xmlns:cc="http://creativecommons.org/ns#"
   xmlns:rdf="http://www.w3.org/1999/02/22-rdf-syntax-ns#"
   xmlns:svg="http://www.w3.org/2000/svg"
   xmlns="http://www.w3.org/2000/svg"
   xmlns:sodipodi="http://sodipodi.sourceforge.net/DTD/sodipodi-0.dtd"
   xmlns:inkscape="http://www.inkscape.org/namespaces/inkscape"
   sodipodi:docname="schweben.svg"
   inkscape:version="1.0 (4035a4fb49, 2020-05-01)"
   id="svg4112"
   version="1.1"
   viewBox="0 0 11.483338 9.3749809"
   height="9.3749809mm"
   width="11.483338mm">
  <defs
     id="defs4106" />
  <sodipodi:namedview
     inkscape:window-maximized="1"
     inkscape:window-y="-8"
     inkscape:window-x="-8"
     inkscape:window-height="1027"
     inkscape:window-width="1920"
     fit-margin-bottom="0"
     fit-margin-right="0"
     fit-margin-left="0"
     fit-margin-top="0"
     showgrid="false"
     inkscape:document-rotation="0"
     inkscape:current-layer="layer1"
     inkscape:document-units="mm"
     inkscape:cy="43.338582"
     inkscape:cx="42.825978"
     inkscape:zoom="3.959798"
     inkscape:pageshadow="2"
     inkscape:pageopacity="0.0"
     borderopacity="1.0"
     bordercolor="#666666"
     pagecolor="#ffffff"
     id="base" />
  <metadata
     id="metadata4109">
    <rdf:RDF>
      <cc:Work
         rdf:about="">
        <dc:format>image/svg+xml</dc:format>
        <dc:type
           rdf:resource="http://purl.org/dc/dcmitype/StillImage" />
        <dc:title></dc:title>
      </cc:Work>
    </rdf:RDF>
  </metadata>
  <g
     transform="translate(-96.311902,-93.586319)"
     id="layer1"
     inkscape:groupmode="layer"
     inkscape:label="Ebene 1">
    <g
       style="fill:#808080"
       id="g2082"
       transform="matrix(0.08802799,0,0,0.08802799,71.884137,-8.3941074)">
      <path
         sodipodi:nodetypes="ccccccc"
         d="m 277.49997,1158.5 h 35 l 20,53.25 -20,53.25 h -35 l 20,-53.25 z"
         style="fill:#808080;stroke:none;stroke-width:14.6082;stroke-linecap:butt;stroke-linejoin:miter;stroke-miterlimit:4;stroke-dasharray:43.8247, 14.6082;stroke-dashoffset:0;paint-order:markers fill stroke"
         id="path2074" />
      <path
         id="path2076"
         style="fill:#808080;stroke:none;stroke-width:14.6082;stroke-linecap:butt;stroke-linejoin:miter;stroke-miterlimit:4;stroke-dasharray:43.8247, 14.6082;stroke-dashoffset:0;paint-order:markers fill stroke"
         d="m 324.49997,1158.5 h 15 l 20,53.25 -20,53.25 h -15 l 20,-53.25 z"
         sodipodi:nodetypes="ccccccc" />
      <path
         sodipodi:nodetypes="ccccccc"
         d="m 354.99997,1158.5 h 15 l 20,53.25 -20,53.25 h -15 l 20,-53.25 z"
         style="fill:#808080;stroke:none;stroke-width:14.6082;stroke-linecap:butt;stroke-linejoin:miter;stroke-miterlimit:4;stroke-dasharray:43.8247, 14.6082;stroke-dashoffset:0;paint-order:markers fill stroke"
         id="path2078" />
      <path
         id="path2080"
         style="fill:#808080;stroke:none;stroke-width:14.6082;stroke-linecap:butt;stroke-linejoin:miter;stroke-miterlimit:4;stroke-dasharray:43.8247, 14.6082;stroke-dashoffset:0;paint-order:markers fill stroke"
         d="m 354.99997,1158.5 h 15 l 20,53.25 -20,53.25 h -15 l 20,-53.25 z"
         sodipodi:nodetypes="ccccccc" />
    </g>
    <g
       transform="matrix(0.26458333,0,0,0.26458333,-41.755233,-318.08992)"
       id="g2161">
      <g
         transform="translate(-348.99998,-270.49998)"
         id="g2109"
         style="stroke:#ffffff;stroke-width:3;stroke-miterlimit:4;stroke-dasharray:none">
        <path
           id="path2101"
           style="fill:#000000;fill-opacity:1;stroke:#ffffff;stroke-width:3;stroke-linecap:butt;stroke-linejoin:round;stroke-miterlimit:4;stroke-dasharray:none;stroke-dashoffset:0;stroke-opacity:1"
           d="m 890.1811,1832.5195 h 21.08852 c 0.80911,0 1.4605,0.8796 1.4605,1.9722 v 5.4 c 0,1.0926 -0.65139,1.9722 -1.4605,1.9722 0,0 -7.02951,2.2483 -10.54425,2.2483 -3.51477,0 -10.54427,-2.2483 -10.54427,-2.2483 -0.80911,0 -1.4605,-0.8796 -1.4605,-1.9722 v -5.4 c 0,-1.0926 0.65139,-1.9722 1.4605,-1.9722 z"
           sodipodi:nodetypes="ssssszssss" />
        <path
           id="path2103"
           d="m 892.73633,1843.7988 a 1,1 0 0 0 -0.76367,0.4141 1,1 0 0 0 0.22461,1.3965 c 0,0 0.82834,0.5884 2.26562,1.125 1.43728,0.5366 3.54417,1.0625 6.26172,1.0625 2.71755,0 4.82639,-0.5259 6.26367,-1.0625 1.43728,-0.5366 2.26563,-1.125 2.26563,-1.125 a 1,1 0 0 0 0.22461,-1.3965 1,1 0 0 0 -1.39649,-0.2246 c 0,0 -0.55558,0.4103 -1.79492,0.873 -1.23934,0.4627 -3.10228,0.9356 -5.5625,0.9356 -2.46021,0 -4.32316,-0.4729 -5.5625,-0.9356 -1.23934,-0.4627 -1.79297,-0.873 -1.79297,-0.873 a 1,1 0 0 0 -0.63281,-0.1895 z"
           style="color:#000000;font-style:normal;font-variant:normal;font-weight:normal;font-stretch:normal;font-size:medium;line-height:normal;font-family:sans-serif;font-variant-ligatures:normal;font-variant-position:normal;font-variant-caps:normal;font-variant-numeric:normal;font-variant-alternates:normal;font-variant-east-asian:normal;font-feature-settings:normal;font-variation-settings:normal;text-indent:0;text-align:start;text-decoration:none;text-decoration-line:none;text-decoration-style:solid;text-decoration-color:#000000;letter-spacing:normal;word-spacing:normal;text-transform:none;writing-mode:lr-tb;direction:ltr;text-orientation:mixed;dominant-baseline:auto;baseline-shift:baseline;text-anchor:start;white-space:normal;shape-padding:0;shape-margin:0;inline-size:0;clip-rule:nonzero;display:inline;overflow:visible;visibility:visible;opacity:1;isolation:auto;mix-blend-mode:normal;color-interpolation:sRGB;color-interpolation-filters:linearRGB;solid-color:#000000;solid-opacity:1;vector-effect:none;fill:#000000;fill-opacity:1;fill-rule:nonzero;stroke:#ffffff;stroke-width:3;stroke-linecap:round;stroke-linejoin:miter;stroke-miterlimit:4;stroke-dasharray:none;stroke-dashoffset:0;stroke-opacity:1;color-rendering:auto;image-rendering:auto;shape-rendering:auto;text-rendering:auto;enable-background:accumulate;stop-color:#000000;stop-opacity:1" />
        <path
           id="path2105"
           d="m 891.41211,1847.7988 a 1,1 0 0 0 -0.84766,0.5606 1,1 0 0 0 0.45703,1.3379 c 0,0 4.26804,2.0996 9.70313,2.0996 5.4351,0 9.70312,-2.0996 9.70312,-2.0996 a 1,1 0 0 0 0.45899,-1.3379 1,1 0 0 0 -1.33789,-0.459 c 0,0 -3.90378,1.8965 -8.82422,1.8965 -4.92043,0 -8.82422,-1.8965 -8.82422,-1.8965 a 1,1 0 0 0 -0.48828,-0.1016 z"
           style="color:#000000;font-style:normal;font-variant:normal;font-weight:normal;font-stretch:normal;font-size:medium;line-height:normal;font-family:sans-serif;font-variant-ligatures:normal;font-variant-position:normal;font-variant-caps:normal;font-variant-numeric:normal;font-variant-alternates:normal;font-variant-east-asian:normal;font-feature-settings:normal;font-variation-settings:normal;text-indent:0;text-align:start;text-decoration:none;text-decoration-line:none;text-decoration-style:solid;text-decoration-color:#000000;letter-spacing:normal;word-spacing:normal;text-transform:none;writing-mode:lr-tb;direction:ltr;text-orientation:mixed;dominant-baseline:auto;baseline-shift:baseline;text-anchor:start;white-space:normal;shape-padding:0;shape-margin:0;inline-size:0;clip-rule:nonzero;display:inline;overflow:visible;visibility:visible;opacity:1;isolation:auto;mix-blend-mode:normal;color-interpolation:sRGB;color-interpolation-filters:linearRGB;solid-color:#000000;solid-opacity:1;vector-effect:none;fill:#000000;fill-opacity:1;fill-rule:nonzero;stroke:#ffffff;stroke-width:3;stroke-linecap:round;stroke-linejoin:miter;stroke-miterlimit:4;stroke-dasharray:none;stroke-dashoffset:0;stroke-opacity:1;color-rendering:auto;image-rendering:auto;shape-rendering:auto;text-rendering:auto;enable-background:accumulate;stop-color:#000000;stop-opacity:1" />
        <path
           id="path2107"
           d="m 890.1582,1851.7988 a 1,1 0 0 0 -0.95508,0.6524 1,1 0 0 0 0.5918,1.2851 c 0,0 5.4946,2.0606 10.92969,2.0606 5.4351,0 10.93164,-2.0606 10.93164,-2.0606 a 1,1 0 0 0 0.5918,-1.2851 1,1 0 0 0 -1.28516,-0.5918 c 0,0 -5.31784,1.9375 -10.23828,1.9375 -4.92043,0 -10.23633,-1.9375 -10.23633,-1.9375 a 1,1 0 0 0 -0.33008,-0.061 z"
           style="color:#000000;font-style:normal;font-variant:normal;font-weight:normal;font-stretch:normal;font-size:medium;line-height:normal;font-family:sans-serif;font-variant-ligatures:normal;font-variant-position:normal;font-variant-caps:normal;font-variant-numeric:normal;font-variant-alternates:normal;font-variant-east-asian:normal;font-feature-settings:normal;font-variation-settings:normal;text-indent:0;text-align:start;text-decoration:none;text-decoration-line:none;text-decoration-style:solid;text-decoration-color:#000000;letter-spacing:normal;word-spacing:normal;text-transform:none;writing-mode:lr-tb;direction:ltr;text-orientation:mixed;dominant-baseline:auto;baseline-shift:baseline;text-anchor:start;white-space:normal;shape-padding:0;shape-margin:0;inline-size:0;clip-rule:nonzero;display:inline;overflow:visible;visibility:visible;opacity:1;isolation:auto;mix-blend-mode:normal;color-interpolation:sRGB;color-interpolation-filters:linearRGB;solid-color:#000000;solid-opacity:1;vector-effect:none;fill:#000000;fill-opacity:1;fill-rule:nonzero;stroke:#ffffff;stroke-width:3;stroke-linecap:round;stroke-linejoin:miter;stroke-miterlimit:4;stroke-dasharray:none;stroke-dashoffset:0;stroke-opacity:1;color-rendering:auto;image-rendering:auto;shape-rendering:auto;text-rendering:auto;enable-background:accumulate;stop-color:#000000;stop-opacity:1" />
      </g>
      <g
         id="g2087"
         transform="translate(-348.99998,-270.49998)">
        <path
           sodipodi:nodetypes="ssssszssss"
           d="m 890.1811,1832.5195 h 21.08852 c 0.80911,0 1.4605,0.8796 1.4605,1.9722 v 5.4 c 0,1.0926 -0.65139,1.9722 -1.4605,1.9722 0,0 -7.02951,2.2483 -10.54425,2.2483 -3.51477,0 -10.54427,-2.2483 -10.54427,-2.2483 -0.80911,0 -1.4605,-0.8796 -1.4605,-1.9722 v -5.4 c 0,-1.0926 0.65139,-1.9722 1.4605,-1.9722 z"
           style="fill:#000000;fill-opacity:1;stroke:none;stroke-width:50.6018;stroke-linecap:butt;stroke-linejoin:round;stroke-miterlimit:4;stroke-dasharray:none;stroke-dashoffset:0;stroke-opacity:1"
           id="path2072" />
        <path
           style="color:#000000;font-style:normal;font-variant:normal;font-weight:normal;font-stretch:normal;font-size:medium;line-height:normal;font-family:sans-serif;font-variant-ligatures:normal;font-variant-position:normal;font-variant-caps:normal;font-variant-numeric:normal;font-variant-alternates:normal;font-variant-east-asian:normal;font-feature-settings:normal;font-variation-settings:normal;text-indent:0;text-align:start;text-decoration:none;text-decoration-line:none;text-decoration-style:solid;text-decoration-color:#000000;letter-spacing:normal;word-spacing:normal;text-transform:none;writing-mode:lr-tb;direction:ltr;text-orientation:mixed;dominant-baseline:auto;baseline-shift:baseline;text-anchor:start;white-space:normal;shape-padding:0;shape-margin:0;inline-size:0;clip-rule:nonzero;display:inline;overflow:visible;visibility:visible;opacity:1;isolation:auto;mix-blend-mode:normal;color-interpolation:sRGB;color-interpolation-filters:linearRGB;solid-color:#000000;solid-opacity:1;vector-effect:none;fill:#000000;fill-opacity:1;fill-rule:nonzero;stroke:none;stroke-width:2;stroke-linecap:round;stroke-linejoin:miter;stroke-miterlimit:4;stroke-dasharray:none;stroke-dashoffset:0;stroke-opacity:1;color-rendering:auto;image-rendering:auto;shape-rendering:auto;text-rendering:auto;enable-background:accumulate;stop-color:#000000;stop-opacity:1"
           d="m 892.73633,1843.7988 a 1,1 0 0 0 -0.76367,0.4141 1,1 0 0 0 0.22461,1.3965 c 0,0 0.82834,0.5884 2.26562,1.125 1.43728,0.5366 3.54417,1.0625 6.26172,1.0625 2.71755,0 4.82639,-0.5259 6.26367,-1.0625 1.43728,-0.5366 2.26563,-1.125 2.26563,-1.125 a 1,1 0 0 0 0.22461,-1.3965 1,1 0 0 0 -1.39649,-0.2246 c 0,0 -0.55558,0.4103 -1.79492,0.873 -1.23934,0.4627 -3.10228,0.9356 -5.5625,0.9356 -2.46021,0 -4.32316,-0.4729 -5.5625,-0.9356 -1.23934,-0.4627 -1.79297,-0.873 -1.79297,-0.873 a 1,1 0 0 0 -0.63281,-0.1895 z"
           id="path2091" />
        <path
           style="color:#000000;font-style:normal;font-variant:normal;font-weight:normal;font-stretch:normal;font-size:medium;line-height:normal;font-family:sans-serif;font-variant-ligatures:normal;font-variant-position:normal;font-variant-caps:normal;font-variant-numeric:normal;font-variant-alternates:normal;font-variant-east-asian:normal;font-feature-settings:normal;font-variation-settings:normal;text-indent:0;text-align:start;text-decoration:none;text-decoration-line:none;text-decoration-style:solid;text-decoration-color:#000000;letter-spacing:normal;word-spacing:normal;text-transform:none;writing-mode:lr-tb;direction:ltr;text-orientation:mixed;dominant-baseline:auto;baseline-shift:baseline;text-anchor:start;white-space:normal;shape-padding:0;shape-margin:0;inline-size:0;clip-rule:nonzero;display:inline;overflow:visible;visibility:visible;opacity:1;isolation:auto;mix-blend-mode:normal;color-interpolation:sRGB;color-interpolation-filters:linearRGB;solid-color:#000000;solid-opacity:1;vector-effect:none;fill:#000000;fill-opacity:1;fill-rule:nonzero;stroke:none;stroke-width:2;stroke-linecap:round;stroke-linejoin:miter;stroke-miterlimit:4;stroke-dasharray:none;stroke-dashoffset:0;stroke-opacity:1;color-rendering:auto;image-rendering:auto;shape-rendering:auto;text-rendering:auto;enable-background:accumulate;stop-color:#000000;stop-opacity:1"
           d="m 891.41211,1847.7988 a 1,1 0 0 0 -0.84766,0.5606 1,1 0 0 0 0.45703,1.3379 c 0,0 4.26804,2.0996 9.70313,2.0996 5.4351,0 9.70312,-2.0996 9.70312,-2.0996 a 1,1 0 0 0 0.45899,-1.3379 1,1 0 0 0 -1.33789,-0.459 c 0,0 -3.90378,1.8965 -8.82422,1.8965 -4.92043,0 -8.82422,-1.8965 -8.82422,-1.8965 a 1,1 0 0 0 -0.48828,-0.1016 z"
           id="path2095" />
        <path
           style="color:#000000;font-style:normal;font-variant:normal;font-weight:normal;font-stretch:normal;font-size:medium;line-height:normal;font-family:sans-serif;font-variant-ligatures:normal;font-variant-position:normal;font-variant-caps:normal;font-variant-numeric:normal;font-variant-alternates:normal;font-variant-east-asian:normal;font-feature-settings:normal;font-variation-settings:normal;text-indent:0;text-align:start;text-decoration:none;text-decoration-line:none;text-decoration-style:solid;text-decoration-color:#000000;letter-spacing:normal;word-spacing:normal;text-transform:none;writing-mode:lr-tb;direction:ltr;text-orientation:mixed;dominant-baseline:auto;baseline-shift:baseline;text-anchor:start;white-space:normal;shape-padding:0;shape-margin:0;inline-size:0;clip-rule:nonzero;display:inline;overflow:visible;visibility:visible;opacity:1;isolation:auto;mix-blend-mode:normal;color-interpolation:sRGB;color-interpolation-filters:linearRGB;solid-color:#000000;solid-opacity:1;vector-effect:none;fill:#000000;fill-opacity:1;fill-rule:nonzero;stroke:none;stroke-width:2;stroke-linecap:round;stroke-linejoin:miter;stroke-miterlimit:4;stroke-dasharray:none;stroke-dashoffset:0;stroke-opacity:1;color-rendering:auto;image-rendering:auto;shape-rendering:auto;text-rendering:auto;enable-background:accumulate;stop-color:#000000;stop-opacity:1"
           d="m 890.1582,1851.7988 a 1,1 0 0 0 -0.95508,0.6524 1,1 0 0 0 0.5918,1.2851 c 0,0 5.4946,2.0606 10.92969,2.0606 5.4351,0 10.93164,-2.0606 10.93164,-2.0606 a 1,1 0 0 0 0.5918,-1.2851 1,1 0 0 0 -1.28516,-0.5918 c 0,0 -5.31784,1.9375 -10.23828,1.9375 -4.92043,0 -10.23633,-1.9375 -10.23633,-1.9375 a 1,1 0 0 0 -0.33008,-0.061 z"
           id="path2099" />
      </g>
      <g
         style="stroke:#ffffff;stroke-width:3;stroke-miterlimit:4;stroke-dasharray:none"
         id="g2119"
         transform="translate(-348.99998,-270.49998)">
        <path
           sodipodi:nodetypes="ssssszssss"
           d="m 890.1811,1832.5195 h 21.08852 c 0.80911,0 1.4605,0.8796 1.4605,1.9722 v 5.4 c 0,1.0926 -0.65139,1.9722 -1.4605,1.9722 0,0 -7.02951,2.2483 -10.54425,2.2483 -3.51477,0 -10.54427,-2.2483 -10.54427,-2.2483 -0.80911,0 -1.4605,-0.8796 -1.4605,-1.9722 v -5.4 c 0,-1.0926 0.65139,-1.9722 1.4605,-1.9722 z"
           style="fill:#000000;fill-opacity:1;stroke:#ffffff;stroke-width:3;stroke-linecap:butt;stroke-linejoin:round;stroke-miterlimit:4;stroke-dasharray:none;stroke-dashoffset:0;stroke-opacity:1"
           id="path2111" />
        <path
           style="color:#000000;font-style:normal;font-variant:normal;font-weight:normal;font-stretch:normal;font-size:medium;line-height:normal;font-family:sans-serif;font-variant-ligatures:normal;font-variant-position:normal;font-variant-caps:normal;font-variant-numeric:normal;font-variant-alternates:normal;font-variant-east-asian:normal;font-feature-settings:normal;font-variation-settings:normal;text-indent:0;text-align:start;text-decoration:none;text-decoration-line:none;text-decoration-style:solid;text-decoration-color:#000000;letter-spacing:normal;word-spacing:normal;text-transform:none;writing-mode:lr-tb;direction:ltr;text-orientation:mixed;dominant-baseline:auto;baseline-shift:baseline;text-anchor:start;white-space:normal;shape-padding:0;shape-margin:0;inline-size:0;clip-rule:nonzero;display:inline;overflow:visible;visibility:visible;opacity:1;isolation:auto;mix-blend-mode:normal;color-interpolation:sRGB;color-interpolation-filters:linearRGB;solid-color:#000000;solid-opacity:1;vector-effect:none;fill:#000000;fill-opacity:1;fill-rule:nonzero;stroke:#ffffff;stroke-width:3;stroke-linecap:round;stroke-linejoin:miter;stroke-miterlimit:4;stroke-dasharray:none;stroke-dashoffset:0;stroke-opacity:1;color-rendering:auto;image-rendering:auto;shape-rendering:auto;text-rendering:auto;enable-background:accumulate;stop-color:#000000;stop-opacity:1"
           d="m 892.73633,1843.7988 a 1,1 0 0 0 -0.76367,0.4141 1,1 0 0 0 0.22461,1.3965 c 0,0 0.82834,0.5884 2.26562,1.125 1.43728,0.5366 3.54417,1.0625 6.26172,1.0625 2.71755,0 4.82639,-0.5259 6.26367,-1.0625 1.43728,-0.5366 2.26563,-1.125 2.26563,-1.125 a 1,1 0 0 0 0.22461,-1.3965 1,1 0 0 0 -1.39649,-0.2246 c 0,0 -0.55558,0.4103 -1.79492,0.873 -1.23934,0.4627 -3.10228,0.9356 -5.5625,0.9356 -2.46021,0 -4.32316,-0.4729 -5.5625,-0.9356 -1.23934,-0.4627 -1.79297,-0.873 -1.79297,-0.873 a 1,1 0 0 0 -0.63281,-0.1895 z"
           id="path2113" />
        <path
           style="color:#000000;font-style:normal;font-variant:normal;font-weight:normal;font-stretch:normal;font-size:medium;line-height:normal;font-family:sans-serif;font-variant-ligatures:normal;font-variant-position:normal;font-variant-caps:normal;font-variant-numeric:normal;font-variant-alternates:normal;font-variant-east-asian:normal;font-feature-settings:normal;font-variation-settings:normal;text-indent:0;text-align:start;text-decoration:none;text-decoration-line:none;text-decoration-style:solid;text-decoration-color:#000000;letter-spacing:normal;word-spacing:normal;text-transform:none;writing-mode:lr-tb;direction:ltr;text-orientation:mixed;dominant-baseline:auto;baseline-shift:baseline;text-anchor:start;white-space:normal;shape-padding:0;shape-margin:0;inline-size:0;clip-rule:nonzero;display:inline;overflow:visible;visibility:visible;opacity:1;isolation:auto;mix-blend-mode:normal;color-interpolation:sRGB;color-interpolation-filters:linearRGB;solid-color:#000000;solid-opacity:1;vector-effect:none;fill:#000000;fill-opacity:1;fill-rule:nonzero;stroke:#ffffff;stroke-width:3;stroke-linecap:round;stroke-linejoin:miter;stroke-miterlimit:4;stroke-dasharray:none;stroke-dashoffset:0;stroke-opacity:1;color-rendering:auto;image-rendering:auto;shape-rendering:auto;text-rendering:auto;enable-background:accumulate;stop-color:#000000;stop-opacity:1"
           d="m 891.41211,1847.7988 a 1,1 0 0 0 -0.84766,0.5606 1,1 0 0 0 0.45703,1.3379 c 0,0 4.26804,2.0996 9.70313,2.0996 5.4351,0 9.70312,-2.0996 9.70312,-2.0996 a 1,1 0 0 0 0.45899,-1.3379 1,1 0 0 0 -1.33789,-0.459 c 0,0 -3.90378,1.8965 -8.82422,1.8965 -4.92043,0 -8.82422,-1.8965 -8.82422,-1.8965 a 1,1 0 0 0 -0.48828,-0.1016 z"
           id="path2115" />
        <path
           style="color:#000000;font-style:normal;font-variant:normal;font-weight:normal;font-stretch:normal;font-size:medium;line-height:normal;font-family:sans-serif;font-variant-ligatures:normal;font-variant-position:normal;font-variant-caps:normal;font-variant-numeric:normal;font-variant-alternates:normal;font-variant-east-asian:normal;font-feature-settings:normal;font-variation-settings:normal;text-indent:0;text-align:start;text-decoration:none;text-decoration-line:none;text-decoration-style:solid;text-decoration-color:#000000;letter-spacing:normal;word-spacing:normal;text-transform:none;writing-mode:lr-tb;direction:ltr;text-orientation:mixed;dominant-baseline:auto;baseline-shift:baseline;text-anchor:start;white-space:normal;shape-padding:0;shape-margin:0;inline-size:0;clip-rule:nonzero;display:inline;overflow:visible;visibility:visible;opacity:1;isolation:auto;mix-blend-mode:normal;color-interpolation:sRGB;color-interpolation-filters:linearRGB;solid-color:#000000;solid-opacity:1;vector-effect:none;fill:#000000;fill-opacity:1;fill-rule:nonzero;stroke:#ffffff;stroke-width:3;stroke-linecap:round;stroke-linejoin:miter;stroke-miterlimit:4;stroke-dasharray:none;stroke-dashoffset:0;stroke-opacity:1;color-rendering:auto;image-rendering:auto;shape-rendering:auto;text-rendering:auto;enable-background:accumulate;stop-color:#000000;stop-opacity:1"
           d="m 890.1582,1851.7988 a 1,1 0 0 0 -0.95508,0.6524 1,1 0 0 0 0.5918,1.2851 c 0,0 5.4946,2.0606 10.92969,2.0606 5.4351,0 10.93164,-2.0606 10.93164,-2.0606 a 1,1 0 0 0 0.5918,-1.2851 1,1 0 0 0 -1.28516,-0.5918 c 0,0 -5.31784,1.9375 -10.23828,1.9375 -4.92043,0 -10.23633,-1.9375 -10.23633,-1.9375 a 1,1 0 0 0 -0.33008,-0.061 z"
           id="path2117" />
      </g>
      <g
         transform="translate(-348.99998,-270.49998)"
         id="g2129">
        <path
           id="path2121"
           style="fill:#000000;fill-opacity:1;stroke:none;stroke-width:50.6018;stroke-linecap:butt;stroke-linejoin:round;stroke-miterlimit:4;stroke-dasharray:none;stroke-dashoffset:0;stroke-opacity:1"
           d="m 890.1811,1832.5195 h 21.08852 c 0.80911,0 1.4605,0.8796 1.4605,1.9722 v 5.4 c 0,1.0926 -0.65139,1.9722 -1.4605,1.9722 0,0 -7.02951,2.2483 -10.54425,2.2483 -3.51477,0 -10.54427,-2.2483 -10.54427,-2.2483 -0.80911,0 -1.4605,-0.8796 -1.4605,-1.9722 v -5.4 c 0,-1.0926 0.65139,-1.9722 1.4605,-1.9722 z"
           sodipodi:nodetypes="ssssszssss" />
        <path
           id="path2123"
           d="m 892.73633,1843.7988 a 1,1 0 0 0 -0.76367,0.4141 1,1 0 0 0 0.22461,1.3965 c 0,0 0.82834,0.5884 2.26562,1.125 1.43728,0.5366 3.54417,1.0625 6.26172,1.0625 2.71755,0 4.82639,-0.5259 6.26367,-1.0625 1.43728,-0.5366 2.26563,-1.125 2.26563,-1.125 a 1,1 0 0 0 0.22461,-1.3965 1,1 0 0 0 -1.39649,-0.2246 c 0,0 -0.55558,0.4103 -1.79492,0.873 -1.23934,0.4627 -3.10228,0.9356 -5.5625,0.9356 -2.46021,0 -4.32316,-0.4729 -5.5625,-0.9356 -1.23934,-0.4627 -1.79297,-0.873 -1.79297,-0.873 a 1,1 0 0 0 -0.63281,-0.1895 z"
           style="color:#000000;font-style:normal;font-variant:normal;font-weight:normal;font-stretch:normal;font-size:medium;line-height:normal;font-family:sans-serif;font-variant-ligatures:normal;font-variant-position:normal;font-variant-caps:normal;font-variant-numeric:normal;font-variant-alternates:normal;font-variant-east-asian:normal;font-feature-settings:normal;font-variation-settings:normal;text-indent:0;text-align:start;text-decoration:none;text-decoration-line:none;text-decoration-style:solid;text-decoration-color:#000000;letter-spacing:normal;word-spacing:normal;text-transform:none;writing-mode:lr-tb;direction:ltr;text-orientation:mixed;dominant-baseline:auto;baseline-shift:baseline;text-anchor:start;white-space:normal;shape-padding:0;shape-margin:0;inline-size:0;clip-rule:nonzero;display:inline;overflow:visible;visibility:visible;opacity:1;isolation:auto;mix-blend-mode:normal;color-interpolation:sRGB;color-interpolation-filters:linearRGB;solid-color:#000000;solid-opacity:1;vector-effect:none;fill:#000000;fill-opacity:1;fill-rule:nonzero;stroke:none;stroke-width:2;stroke-linecap:round;stroke-linejoin:miter;stroke-miterlimit:4;stroke-dasharray:none;stroke-dashoffset:0;stroke-opacity:1;color-rendering:auto;image-rendering:auto;shape-rendering:auto;text-rendering:auto;enable-background:accumulate;stop-color:#000000;stop-opacity:1" />
        <path
           id="path2125"
           d="m 891.41211,1847.7988 a 1,1 0 0 0 -0.84766,0.5606 1,1 0 0 0 0.45703,1.3379 c 0,0 4.26804,2.0996 9.70313,2.0996 5.4351,0 9.70312,-2.0996 9.70312,-2.0996 a 1,1 0 0 0 0.45899,-1.3379 1,1 0 0 0 -1.33789,-0.459 c 0,0 -3.90378,1.8965 -8.82422,1.8965 -4.92043,0 -8.82422,-1.8965 -8.82422,-1.8965 a 1,1 0 0 0 -0.48828,-0.1016 z"
           style="color:#000000;font-style:normal;font-variant:normal;font-weight:normal;font-stretch:normal;font-size:medium;line-height:normal;font-family:sans-serif;font-variant-ligatures:normal;font-variant-position:normal;font-variant-caps:normal;font-variant-numeric:normal;font-variant-alternates:normal;font-variant-east-asian:normal;font-feature-settings:normal;font-variation-settings:normal;text-indent:0;text-align:start;text-decoration:none;text-decoration-line:none;text-decoration-style:solid;text-decoration-color:#000000;letter-spacing:normal;word-spacing:normal;text-transform:none;writing-mode:lr-tb;direction:ltr;text-orientation:mixed;dominant-baseline:auto;baseline-shift:baseline;text-anchor:start;white-space:normal;shape-padding:0;shape-margin:0;inline-size:0;clip-rule:nonzero;display:inline;overflow:visible;visibility:visible;opacity:1;isolation:auto;mix-blend-mode:normal;color-interpolation:sRGB;color-interpolation-filters:linearRGB;solid-color:#000000;solid-opacity:1;vector-effect:none;fill:#000000;fill-opacity:1;fill-rule:nonzero;stroke:none;stroke-width:2;stroke-linecap:round;stroke-linejoin:miter;stroke-miterlimit:4;stroke-dasharray:none;stroke-dashoffset:0;stroke-opacity:1;color-rendering:auto;image-rendering:auto;shape-rendering:auto;text-rendering:auto;enable-background:accumulate;stop-color:#000000;stop-opacity:1" />
        <path
           id="path2127"
           d="m 890.1582,1851.7988 a 1,1 0 0 0 -0.95508,0.6524 1,1 0 0 0 0.5918,1.2851 c 0,0 5.4946,2.0606 10.92969,2.0606 5.4351,0 10.93164,-2.0606 10.93164,-2.0606 a 1,1 0 0 0 0.5918,-1.2851 1,1 0 0 0 -1.28516,-0.5918 c 0,0 -5.31784,1.9375 -10.23828,1.9375 -4.92043,0 -10.23633,-1.9375 -10.23633,-1.9375 a 1,1 0 0 0 -0.33008,-0.061 z"
           style="color:#000000;font-style:normal;font-variant:normal;font-weight:normal;font-stretch:normal;font-size:medium;line-height:normal;font-family:sans-serif;font-variant-ligatures:normal;font-variant-position:normal;font-variant-caps:normal;font-variant-numeric:normal;font-variant-alternates:normal;font-variant-east-asian:normal;font-feature-settings:normal;font-variation-settings:normal;text-indent:0;text-align:start;text-decoration:none;text-decoration-line:none;text-decoration-style:solid;text-decoration-color:#000000;letter-spacing:normal;word-spacing:normal;text-transform:none;writing-mode:lr-tb;direction:ltr;text-orientation:mixed;dominant-baseline:auto;baseline-shift:baseline;text-anchor:start;white-space:normal;shape-padding:0;shape-margin:0;inline-size:0;clip-rule:nonzero;display:inline;overflow:visible;visibility:visible;opacity:1;isolation:auto;mix-blend-mode:normal;color-interpolation:sRGB;color-interpolation-filters:linearRGB;solid-color:#000000;solid-opacity:1;vector-effect:none;fill:#000000;fill-opacity:1;fill-rule:nonzero;stroke:none;stroke-width:2;stroke-linecap:round;stroke-linejoin:miter;stroke-miterlimit:4;stroke-dasharray:none;stroke-dashoffset:0;stroke-opacity:1;color-rendering:auto;image-rendering:auto;shape-rendering:auto;text-rendering:auto;enable-background:accumulate;stop-color:#000000;stop-opacity:1" />
      </g>
    </g>
  </g>
</svg>
