<?xml version="1.0" encoding="UTF-8" standalone="no"?>
<svg
   sodipodi:docname="stationär.svg"
   inkscape:version="1.4.2 (f4327f4, 2025-05-13)"
   id="svg4953"
   version="1.1"
   viewBox="0 0 11.483116 9.3749809"
   height="9.3749809mm"
   width="11.483116mm"
   xmlns:inkscape="http://www.inkscape.org/namespaces/inkscape"
   xmlns:sodipodi="http://sodipodi.sourceforge.net/DTD/sodipodi-0.dtd"
   xmlns="http://www.w3.org/2000/svg"
   xmlns:svg="http://www.w3.org/2000/svg"
   xmlns:rdf="http://www.w3.org/1999/02/22-rdf-syntax-ns#"
   xmlns:cc="http://creativecommons.org/ns#"
   xmlns:dc="http://purl.org/dc/elements/1.1/">
  <defs
     id="defs4947" />
  <sodipodi:namedview
     inkscape:window-maximized="0"
     inkscape:window-y="87"
     inkscape:window-x="995"
     inkscape:window-height="1070"
     inkscape:window-width="1716"
     fit-margin-bottom="0"
     fit-margin-right="0"
     fit-margin-left="0"
     fit-margin-top="0"
     showgrid="false"
     inkscape:document-rotation="0"
     inkscape:current-layer="layer1"
     inkscape:document-units="mm"
     inkscape:cy="33.234019"
     inkscape:cx="52.325902"
     inkscape:zoom="2.8284271"
     inkscape:pageshadow="2"
     inkscape:pageopacity="0.0"
     borderopacity="1.0"
     bordercolor="#666666"
     pagecolor="#ffffff"
     id="base"
     inkscape:showpageshadow="2"
     inkscape:pagecheckerboard="0"
     inkscape:deskcolor="#d1d1d1" />
  <metadata
     id="metadata4950">
    <rdf:RDF>
      <cc:Work
         rdf:about="">
        <dc:format>image/svg+xml</dc:format>
        <dc:type
           rdf:resource="http://purl.org/dc/dcmitype/StillImage" />
        <dc:title />
      </cc:Work>
    </rdf:RDF>
  </metadata>
  <g
     transform="translate(-129.57392,-150.28275)"
     id="layer1"
     inkscape:groupmode="layer"
     inkscape:label="Ebene 1">
    <g
       style="fill:#808080"
       id="g4798"
       transform="matrix(0.08802799,0,0,0.08802799,105.14615,48.302316)">
      <path
         sodipodi:nodetypes="ccccccc"
         d="m 277.49997,1158.5 h 35 l 20,53.25 -20,53.25 h -35 l 20,-53.25 z"
         style="fill:#808080;stroke:none;stroke-width:14.6082;stroke-linecap:butt;stroke-linejoin:miter;stroke-miterlimit:4;stroke-dasharray:43.8247, 14.6082;stroke-dashoffset:0;paint-order:markers fill stroke"
         id="path4790" />
      <path
         id="path4792"
         style="fill:#808080;stroke:none;stroke-width:14.6082;stroke-linecap:butt;stroke-linejoin:miter;stroke-miterlimit:4;stroke-dasharray:43.8247, 14.6082;stroke-dashoffset:0;paint-order:markers fill stroke"
         d="m 324.49997,1158.5 h 15 l 20,53.25 -20,53.25 h -15 l 20,-53.25 z"
         sodipodi:nodetypes="ccccccc" />
      <path
         sodipodi:nodetypes="ccccccc"
         d="m 354.99997,1158.5 h 15 l 20,53.25 -20,53.25 h -15 l 20,-53.25 z"
         style="fill:#808080;stroke:none;stroke-width:14.6082;stroke-linecap:butt;stroke-linejoin:miter;stroke-miterlimit:4;stroke-dasharray:43.8247, 14.6082;stroke-dashoffset:0;paint-order:markers fill stroke"
         id="path4794" />
      <path
         id="path4796"
         style="fill:#808080;stroke:none;stroke-width:14.6082;stroke-linecap:butt;stroke-linejoin:miter;stroke-miterlimit:4;stroke-dasharray:43.8247, 14.6082;stroke-dashoffset:0;paint-order:markers fill stroke"
         d="m 354.99997,1158.5 h 15 l 20,53.25 -20,53.25 h -15 l 20,-53.25 z"
         sodipodi:nodetypes="ccccccc" />
    </g>
    <g
       id="g49"
       style="fill:#aa0000;stroke-width:0.919771"
       transform="matrix(0.18965934,0,0,0.18965934,73.56673,79.549713)" />
    <g
       id="g50"
       style="fill:#aa0000;stroke-width:0.919771"
       transform="matrix(0.18965934,0,0,0.18965934,73.56673,79.549713)" />
    <g
       id="g64"
       style="stroke-width:0.919771"
       transform="matrix(0.25752397,0,0,0.34616085,54.848861,46.997365)" />
    <g
       id="g65"
       style="stroke-width:0.919771"
       transform="matrix(0.25752397,0,0,0.34616085,54.848861,46.997365)" />
    <path
       id="path78"
       style="baseline-shift:baseline;display:inline;overflow:visible;opacity:1;stroke-width:0.794;stroke-linecap:round;stroke-linejoin:round;enable-background:accumulate;stop-color:#000000;stop-opacity:1;stroke-dasharray:none;fill:#ffffff;stroke:#ffffff"
       d="m 136.81752,151.1172 c -0.54027,0 -0.98529,0.44503 -0.98529,0.98529 0,0.43126 0.28354,0.80142 0.6727,0.93332 l -0.026,0.64115 h -0.92441 v 0.62443 h 0.89879 l -0.15592,3.835 c -0.79911,-0.12888 -1.52343,-0.56156 -2.01662,-1.21621 l 0.0527,-0.0408 a 4.4628701,5.9989403 0 0 1 -1.25074,-1.6617 l 0.0271,0.20344 c 0.0759,0.57885 0.22649,1.13524 0.44513,1.64426 l 0.13476,0.31333 0.0806,-0.0627 c 0.7168,0.94672 1.83729,1.50727 3.03013,1.50727 1.19277,0 2.31471,-0.56066 3.03161,-1.50727 l 0.0806,0.0627 0.13476,-0.31333 c 0.21864,-0.50902 0.3692,-1.06541 0.44513,-1.64426 l 0.0394,-0.29848 a 4.4628701,5.9989403 0 0 1 -1.28118,1.74227 l 0.0709,0.0553 c -0.48614,0.64519 -1.19748,1.07462 -1.98321,1.21027 l -0.15592,-3.82906 h 0.89879 v -0.62443 h -0.92441 l -0.026,-0.64152 h 3.7e-4 c 0.38896,-0.13222 0.67271,-0.50209 0.67271,-0.93295 0,-0.54026 -0.44615,-0.98529 -0.98641,-0.98529 z m 0,0.6456 c 0.19083,0 0.33932,0.14886 0.33932,0.33969 0,0.19083 -0.14849,0.33783 -0.33932,0.33783 -0.19084,0 -0.33821,-0.147 -0.33821,-0.33783 0,-0.19083 0.14737,-0.33969 0.33821,-0.33969 z" />
    <path
       id="circle73"
       style="baseline-shift:baseline;display:inline;overflow:visible;opacity:1;vector-effect:none;stroke-width:0.71841;stroke-linecap:round;stroke-linejoin:round;enable-background:accumulate;stop-color:#000000;stop-opacity:1"
       d="m 136.81752,151.1172 c -0.54027,0 -0.98529,0.44503 -0.98529,0.98529 0,0.43126 0.28354,0.80142 0.6727,0.93332 l -0.026,0.64115 h -0.92441 v 0.62443 h 0.89879 l -0.15592,3.835 c -0.79911,-0.12888 -1.52343,-0.56156 -2.01662,-1.21621 l 0.0527,-0.0408 a 4.4628701,5.9989403 0 0 1 -1.25074,-1.6617 l 0.0271,0.20344 c 0.0759,0.57885 0.22649,1.13524 0.44513,1.64426 l 0.13476,0.31333 0.0806,-0.0627 c 0.7168,0.94672 1.83729,1.50727 3.03013,1.50727 1.19277,0 2.31471,-0.56066 3.03161,-1.50727 l 0.0806,0.0627 0.13476,-0.31333 c 0.21864,-0.50902 0.3692,-1.06541 0.44513,-1.64426 l 0.0394,-0.29848 a 4.4628701,5.9989403 0 0 1 -1.28118,1.74227 l 0.0709,0.0553 c -0.48614,0.64519 -1.19748,1.07462 -1.98321,1.21027 l -0.15592,-3.82906 h 0.89879 v -0.62443 h -0.92441 l -0.026,-0.64152 h 3.7e-4 c 0.38896,-0.13222 0.67271,-0.50209 0.67271,-0.93295 0,-0.54026 -0.44615,-0.98529 -0.98641,-0.98529 z m 0,0.6456 c 0.19083,0 0.33932,0.14886 0.33932,0.33969 0,0.19083 -0.14849,0.33783 -0.33932,0.33783 -0.19084,0 -0.33821,-0.147 -0.33821,-0.33783 0,-0.19083 0.14737,-0.33969 0.33821,-0.33969 z" />
    <g
       id="g76"
       style="stroke-width:0.919771"
       transform="matrix(0.25752397,0,0,0.34616085,59.432535,44.799078)" />
    <g
       id="g77"
       style="stroke-width:0.919771"
       transform="matrix(0.25752397,0,0,0.34616085,59.432535,44.799078)" />
  </g>
</svg>
